<svg width="305" height="289" viewBox="0 0 305 289" fill="none" xmlns="http://www.w3.org/2000/svg">
<g clip-path="url(#clip0_1227_88644)">
<path d="M0 12C0 5.37259 5.37258 0 12 0H293C299.627 0 305 5.37258 305 12V277C305 283.627 299.627 289 293 289H12C5.37258 289 0 283.627 0 277V12Z" fill="white"/>
<path d="M17.9783 228.428C30.5924 203.912 26.8747 178.256 21.9395 152.911C19.1725 138.705 13.4605 125.458 0 117.22V136.48C11.3543 150.949 12.7185 168.117 12.9929 185.488C13.1823 197.49 9.52246 208.057 0 216.041V245.306C8.45196 242.222 14.1021 235.961 17.9783 228.432V228.428ZM73.4319 170.368C74.0696 185.053 76.9294 199.733 91.5841 207.826C108.345 217.086 124.055 210.089 138.199 201.41C164.409 185.334 189.846 170.098 223.214 183.252C232.257 186.818 243.92 182.689 248.805 172.492C253.01 163.714 248.906 154.839 240.508 151.381C213.351 140.193 184.648 144.233 156.429 146.35C150.682 146.782 144.646 151.913 145.774 158.606C146.52 163.035 152.726 162.353 156.371 161.501C176.819 156.717 197.39 153.74 218.367 156.944C224.585 157.892 234.154 157.187 234.135 165.734C234.112 174.632 225.038 173.953 218.533 173.398C199.288 171.756 180.324 169.728 161.279 176.097C121.342 189.455 97.8564 179.59 87.9359 139.931C76.2067 93.0857 46.5147 68.6897 0 60V67.4715C0.3169 67.5177 0.629935 67.5794 0.931377 67.6719C40.1381 79.7312 71.4378 124.437 73.4281 170.364L73.4319 170.368ZM260.832 202.775C265.868 197.181 272.124 189.074 266.076 183.449C262.266 179.906 257.307 189.44 253.338 193.538C244.798 202.359 234.908 207.459 222.58 202.532C211.021 197.91 199.798 195.188 187.547 199.757C162.338 209.156 140.742 226.045 113.075 230.772C89.416 234.816 62.267 222.252 54.9049 200.184C49.135 182.886 53.8344 164.427 49.3437 146.893C42.1632 118.862 28.6679 95.5839 0 83.5209V96.5362C21.6651 106.799 31.5122 125.828 36.9614 146.982C44.3312 175.596 48.5746 204.965 38.9555 233.748C33.0542 251.413 17.5338 260.585 0 266.36V277.582C40.2695 248.572 72.0059 258.102 101.837 291.288C117.585 308.81 133.998 308.875 142.841 287.371C156.066 255.199 176.564 231.824 211.975 222.032C228.929 217.344 247.99 217.043 260.836 202.767L260.832 202.775ZM265.895 252.531C236.025 227.329 211.527 231.743 200.115 262.562C196.895 271.256 193.568 281.831 202.433 287.07C202.433 287.07 206.058 291.134 218.785 289.256C235.723 286.754 251.479 285.146 266.679 294.518C272.368 298.027 279.811 308.085 284.302 295.066C291.293 274.803 275.722 263.16 265.895 252.531Z" fill="#D5D5F5" fill-opacity="0.25"/>
<g filter="url(#filter0_d_1227_88644)">
<rect x="117" y="192" width="74.0525" height="74.0525" rx="8.35179" fill="white"/>
</g>
<path d="M133.676 255.592C134.409 255.592 135.009 255.233 135.375 254.703L135.96 255.155C135.461 255.833 134.658 256.278 133.676 256.278C131.969 256.278 130.808 254.953 130.808 253.394C130.808 251.835 131.969 250.509 133.676 250.509C134.658 250.509 135.461 250.962 135.96 251.632L135.375 252.084C135.009 251.554 134.409 251.195 133.676 251.195C132.445 251.195 131.564 252.178 131.564 253.394C131.564 254.61 132.445 255.592 133.676 255.592ZM138.728 252.037C139.991 252.037 140.856 253.012 140.856 254.157C140.856 255.303 139.991 256.278 138.728 256.278C137.457 256.278 136.6 255.303 136.6 254.157C136.6 253.012 137.457 252.037 138.728 252.037ZM138.736 255.654C139.554 255.654 140.154 254.968 140.154 254.157C140.154 253.339 139.554 252.661 138.736 252.661C137.894 252.661 137.294 253.339 137.294 254.157C137.294 254.976 137.894 255.654 138.736 255.654ZM144.657 254.438V252.193H145.32V254.415C145.32 255.592 144.642 256.278 143.574 256.278C142.513 256.278 141.835 255.592 141.835 254.415V252.193H142.498V254.438C142.498 255.21 142.911 255.654 143.581 255.654C144.236 255.654 144.657 255.21 144.657 254.438ZM146.625 256.122V252.193H147.288V252.684C147.576 252.341 147.935 252.115 148.434 252.115C148.559 252.115 148.676 252.131 148.769 252.162V252.809C148.652 252.778 148.535 252.762 148.379 252.762C147.865 252.762 147.53 253.027 147.288 253.425V256.122H146.625ZM151.489 254.157C151.489 253.012 152.277 252.037 153.508 252.037C154.093 252.037 154.553 252.263 154.904 252.661V250.276H155.566V256.122H154.904V255.654C154.553 256.052 154.093 256.278 153.508 256.278C152.277 256.278 151.489 255.303 151.489 254.157ZM152.191 254.157C152.191 254.992 152.752 255.654 153.586 255.654C154.132 255.654 154.615 255.389 154.904 254.929V253.386C154.6 252.918 154.124 252.661 153.586 252.661C152.752 252.661 152.191 253.323 152.191 254.157ZM157.251 252.754H156.635L157.297 250.665H158.054L157.251 252.754ZM160.595 251.57H159.948L160.759 250.276H161.507L160.595 251.57ZM162.092 255.475C161.725 255.966 161.141 256.278 160.408 256.278C159.083 256.278 158.264 255.303 158.264 254.157C158.264 252.965 159.028 252.037 160.244 252.037C161.312 252.037 162.006 252.786 162.006 253.752C162.006 253.908 161.983 254.056 161.959 254.165H158.943C158.966 255.108 159.566 255.678 160.408 255.678C160.915 255.678 161.343 255.444 161.601 255.093L162.092 255.475ZM160.229 252.598C159.582 252.598 159.13 252.98 158.989 253.659H161.343C161.32 253.082 160.923 252.598 160.229 252.598ZM164.922 255.654C165.405 255.654 165.803 255.42 166.045 255.077L166.567 255.475C166.201 255.966 165.632 256.278 164.914 256.278C163.613 256.278 162.779 255.303 162.779 254.157C162.779 253.012 163.613 252.037 164.914 252.037C165.624 252.037 166.201 252.357 166.567 252.84L166.045 253.238C165.803 252.895 165.405 252.661 164.914 252.661C164.073 252.661 163.472 253.323 163.472 254.157C163.472 254.999 164.073 255.654 164.922 255.654ZM169.116 252.037C170.379 252.037 171.244 253.012 171.244 254.157C171.244 255.303 170.379 256.278 169.116 256.278C167.846 256.278 166.988 255.303 166.988 254.157C166.988 253.012 167.846 252.037 169.116 252.037ZM169.124 255.654C169.942 255.654 170.543 254.968 170.543 254.157C170.543 253.339 169.942 252.661 169.124 252.661C168.282 252.661 167.682 253.339 167.682 254.157C167.682 254.976 168.282 255.654 169.124 255.654ZM172.309 256.122V250.276H172.972V256.122H172.309ZM177.865 255.475C177.498 255.966 176.914 256.278 176.181 256.278C174.856 256.278 174.037 255.303 174.037 254.157C174.037 252.965 174.801 252.037 176.017 252.037C177.085 252.037 177.779 252.786 177.779 253.752C177.779 253.908 177.755 254.056 177.732 254.165H174.715C174.739 255.108 175.339 255.678 176.181 255.678C176.687 255.678 177.116 255.444 177.373 255.093L177.865 255.475ZM176.002 252.598C175.355 252.598 174.902 252.98 174.762 253.659H177.116C177.093 253.082 176.695 252.598 176.002 252.598Z" fill="#161616"/>
<g clip-path="url(#clip1_1227_88644)">
<path d="M159.817 218.582C159.817 216.553 158.132 214.943 156.143 214.943C154.154 214.943 152.469 216.612 152.469 218.582C152.469 220.552 154.094 222.222 156.143 222.222C158.192 222.222 159.817 220.552 159.817 218.582ZM153.674 218.523C153.674 217.211 154.756 216.077 156.143 216.077C157.53 216.077 158.612 217.211 158.612 218.523C158.612 219.835 157.467 220.969 156.143 220.969C154.819 220.969 153.674 219.835 153.674 218.523Z" fill="#3A3A3A"/>
<path d="M155.99 218.737C156.07 218.737 156.147 218.676 156.147 218.582C156.147 218.488 156.085 218.427 155.99 218.427H154.751C154.656 218.427 154.594 218.488 154.594 218.582C154.594 218.676 154.656 218.737 154.751 218.737" fill="#3A3A3A"/>
<path d="M155.992 218.582C155.992 218.661 156.054 218.738 156.149 218.738C156.244 218.738 156.306 218.676 156.306 218.582V216.861C156.306 216.767 156.244 216.706 156.149 216.706C156.054 216.706 155.992 216.767 155.992 216.861" fill="#3A3A3A"/>
<path d="M171.237 226.14C170.259 224.498 168.929 223.595 167.493 223.595C166.056 223.595 164.727 224.5 163.749 226.14C162.823 227.701 162.312 229.757 162.312 231.934C162.312 234.112 162.813 235.63 163.838 236.595C164.595 237.305 165.618 237.687 166.968 237.766V242.138C166.968 242.281 167.022 242.414 167.124 242.512C167.226 242.611 167.361 242.668 167.503 242.668C167.789 242.668 168.023 242.436 168.023 242.152V237.763C169.37 237.684 170.395 237.302 171.152 236.592C172.18 235.626 172.678 234.102 172.678 231.932C172.678 229.762 172.168 227.693 171.242 226.137L171.237 226.14ZM168.023 232.181L169.571 230.645C169.776 230.438 169.776 230.117 169.571 229.907C169.362 229.705 169.039 229.705 168.83 229.907L168.026 230.704V228.985C168.023 228.697 167.784 228.465 167.498 228.465H167.47L167.446 228.477C167.182 228.596 166.973 228.911 166.973 229.2V233.229L165.442 231.71C165.345 231.611 165.213 231.557 165.073 231.555C164.934 231.555 164.799 231.609 164.702 231.707C164.603 231.804 164.548 231.934 164.545 232.072C164.545 232.213 164.6 232.344 164.7 232.445L166.975 234.701V236.725C165.875 236.661 165.093 236.368 164.526 235.803C163.749 235.034 163.37 233.766 163.37 231.929C163.37 229.932 163.829 228.061 164.662 226.663C165.442 225.351 166.45 224.626 167.5 224.626C168.551 224.626 169.559 225.348 170.341 226.663C171.175 228.061 171.633 229.932 171.633 231.929C171.633 233.766 171.254 235.034 170.478 235.803C169.91 236.365 169.128 236.661 168.028 236.725V232.181H168.023Z" fill="#3A3A3A"/>
<path d="M164.134 235.574H160.365V230.265C160.365 227.999 158.498 226.088 156.148 226.088C153.798 226.088 151.931 227.937 151.931 230.265V235.574H147.002V234.079C148.952 233.857 150.47 232.215 150.47 230.225C150.47 228.083 148.715 226.344 146.552 226.344C145.611 226.344 144.744 226.675 144.07 227.224C143.599 225.471 141.986 224.179 140.069 224.179C137.784 224.179 135.93 226.016 135.93 228.28C135.93 230.39 137.545 232.131 139.619 232.356V237.916C139.619 238.163 139.821 238.362 140.069 238.362C140.318 238.362 140.52 238.163 140.52 237.916V232.356C142.569 232.134 144.172 230.43 144.207 228.351C144.759 227.673 145.603 227.239 146.552 227.239C148.215 227.239 149.566 228.578 149.566 230.225C149.566 231.722 148.454 232.962 147.002 233.177V231.451L148.386 230.08C148.563 229.905 148.563 229.621 148.386 229.446C148.21 229.271 147.923 229.271 147.747 229.446L147 230.186V228.923C147 228.677 146.798 228.477 146.549 228.477C146.3 228.477 146.099 228.677 146.099 228.923V230.186L145.352 229.446C145.175 229.271 144.889 229.271 144.712 229.446C144.535 229.621 144.535 229.905 144.712 230.08L146.096 231.451V233.177C145.287 233.056 144.58 232.617 144.117 231.991C143.97 231.791 143.687 231.749 143.485 231.895C143.283 232.04 143.241 232.321 143.388 232.521C144.018 233.369 144.986 233.956 146.096 234.082V237.916C146.096 238.163 146.298 238.362 146.547 238.362C146.796 238.362 146.997 238.163 146.997 237.916V236.767H152.529C152.89 236.767 153.131 236.528 153.131 236.17V230.265C153.131 228.595 154.455 227.281 156.143 227.281C157.831 227.281 159.155 228.593 159.155 230.265V236.17C159.155 236.528 159.397 236.767 159.758 236.767H164.132V235.574H164.134ZM140.52 231.453V229.991L141.8 228.724C141.976 228.549 141.976 228.265 141.8 228.09C141.623 227.915 141.337 227.915 141.16 228.09L140.518 228.726V226.647C140.518 226.401 140.316 226.201 140.067 226.201C139.818 226.201 139.616 226.401 139.616 226.647V228.142L139.031 227.562C138.855 227.387 138.568 227.387 138.392 227.562C138.215 227.737 138.215 228.021 138.392 228.196L139.616 229.409V231.456C138.043 231.239 136.831 229.9 136.831 228.282C136.831 226.512 138.282 225.077 140.067 225.077C141.852 225.077 143.303 226.514 143.303 228.282C143.303 229.9 142.091 231.239 140.518 231.456L140.52 231.453Z" fill="#3A3A3A"/>
<path d="M164.998 220.661H166.985V222.853C167.206 222.808 167.43 222.786 167.657 222.786C167.836 222.786 168.013 222.801 168.19 222.828V220.663H169.997C170.179 220.663 170.358 220.545 170.48 220.424C170.599 220.244 170.599 220.066 170.54 219.886L168.13 213.922C168.07 213.623 167.829 213.505 167.587 213.505H160.662L156.627 208.371C156.385 208.073 155.905 208.073 155.663 208.371L151.628 213.502H144.703C144.461 213.502 144.22 213.621 144.16 213.86L141.75 219.825C141.69 220.005 141.69 220.241 141.81 220.362C141.929 220.542 142.111 220.661 142.293 220.661H144.1V226.122C144.466 225.893 144.872 225.723 145.305 225.624V220.658H147.232C147.351 220.658 147.473 220.658 147.593 220.54L147.774 220.36L156.144 209.683L164.575 220.421C164.695 220.54 164.817 220.601 164.996 220.661H164.998ZM146.99 219.467H143.196L145.123 214.693H150.724L146.99 219.467ZM167.167 214.693L169.093 219.467H165.299L161.565 214.693H167.167Z" fill="#3A3A3A"/>
<path d="M152.76 224.793L153.627 224.318L153.783 224.596L153.253 224.887L153.363 225.084L153.813 224.838L153.97 225.117L153.52 225.363L153.647 225.587L154.194 225.287L154.351 225.565L153.465 226.051L152.758 224.789L152.76 224.793ZM152.875 224.451L153.074 223.975L153.37 224.091L153.116 224.535L152.875 224.448V224.451Z" fill="#1D1D1B"/>
<path d="M154.329 224.813C154.207 224.345 154.446 223.999 154.827 223.903C155.009 223.856 155.183 223.903 155.307 223.972L155.163 224.251C155.083 224.211 155.006 224.194 154.909 224.219C154.735 224.263 154.64 224.448 154.705 224.702C154.772 224.963 154.946 225.077 155.135 225.028C155.228 225.005 155.292 224.936 155.337 224.857L155.599 225.03C155.516 225.198 155.369 225.309 155.18 225.358C154.829 225.447 154.451 225.291 154.326 224.815L154.329 224.813Z" fill="#1D1D1B"/>
<path d="M155.711 224.47C155.719 223.982 155.965 223.733 156.321 223.738C156.677 223.743 156.914 224.002 156.904 224.49C156.896 224.99 156.65 225.24 156.294 225.235C155.94 225.23 155.701 224.971 155.711 224.47ZM156.51 224.483C156.515 224.206 156.441 224.068 156.316 224.066C156.192 224.066 156.112 224.199 156.107 224.475C156.102 224.764 156.177 224.902 156.301 224.904C156.426 224.904 156.505 224.771 156.51 224.483Z" fill="#1D1D1B"/>
<path d="M157.462 223.856L157.836 223.952L157.549 225.04L158.149 225.195L158.067 225.503L157.094 225.252L157.462 223.856Z" fill="#1D1D1B"/>
<path d="M158.983 224.335L159.847 224.813L159.69 225.092L159.162 224.798L159.05 224.996L159.501 225.245L159.344 225.523L158.893 225.274L158.766 225.499L159.314 225.802L159.157 226.081L158.273 225.59L158.985 224.33L158.983 224.335Z" fill="#1D1D1B"/>
</g>
<g filter="url(#filter1_d_1227_88644)">
<rect x="30" y="192" width="74.0525" height="74.0525" rx="8.35179" fill="white"/>
</g>
<path d="M61.0795 256.122V250.665H62.5293C63.6284 250.665 64.3066 251.266 64.3066 252.201C64.3066 252.856 63.9714 253.347 63.3868 253.581L65.1485 256.122H64.2832L62.7008 253.721C62.6463 253.729 62.5839 253.729 62.5293 253.729H61.8122V256.122H61.0795ZM62.5605 251.289H61.8122V253.105H62.5605C63.1841 253.105 63.5505 252.77 63.5505 252.185C63.5505 251.632 63.1841 251.289 62.5605 251.289ZM68.5998 254.438V252.193H69.2624V254.415C69.2624 255.592 68.5842 256.278 67.5163 256.278C66.4562 256.278 65.778 255.592 65.778 254.415V252.193H66.4406V254.438C66.4406 255.21 66.8537 255.654 67.5241 255.654C68.1789 255.654 68.5998 255.21 68.5998 254.438ZM74.0603 255.475C73.694 255.966 73.1093 256.278 72.3766 256.278C71.0515 256.278 70.233 255.303 70.233 254.157C70.233 252.965 70.9969 252.037 72.2129 252.037C73.2808 252.037 73.9746 252.786 73.9746 253.752C73.9746 253.908 73.9512 254.056 73.9278 254.165H70.9112C70.9345 255.108 71.5348 255.678 72.3766 255.678C72.8833 255.678 73.312 255.444 73.5693 255.093L74.0603 255.475ZM72.1973 252.598C71.5503 252.598 71.0982 252.98 70.9579 253.659H73.312C73.2886 253.082 72.8911 252.598 72.1973 252.598Z" fill="#161616"/>
<g clip-path="url(#clip2_1227_88644)">
<path d="M67.304 215.233C66.1935 215.233 65.2891 216.109 65.2891 217.189V218.994H69.319V217.189C69.319 216.112 68.4146 215.233 67.304 215.233ZM66.3632 217.919V217.189C66.3632 216.704 66.7851 216.308 67.304 216.308C67.8229 216.308 68.2448 216.704 68.2448 217.189V217.919H66.3632Z" fill="#3A3A3A"/>
<path d="M51.9448 231.456C51.9448 231.739 52.1728 231.967 52.4565 231.967C52.7668 231.967 53.019 231.715 53.019 231.405V227.87L54.1562 228.423V238.243L54.1853 238.273L59.1391 233.224H62.1142L52.7838 244.34H55.8923C56.6682 244.34 57.4102 244.008 57.9243 243.425L64.6505 234.663C64.8542 234.432 64.8348 234.08 64.6044 233.874C64.3911 233.685 64.0661 233.704 63.877 233.918L56.6343 243.263H55.2376L64.5656 232.147H59.4494V230.269H76.7985V232.147H71.6823L80.3847 243.263H78.9904L71.3355 232.753C71.127 232.521 70.7705 232.499 70.5353 232.705C70.3268 232.892 70.3074 233.212 70.4941 233.421L77.5865 243.297C78.1733 243.957 79.0123 244.335 79.8973 244.335H82.8361L74.1337 233.222H77.1113L82.065 238.27L82.0941 238.299V228.423L83.2289 227.87V230.832C83.2289 231.111 83.4544 231.337 83.7332 231.337C84.046 231.337 84.3006 231.082 84.3006 230.769V213.542L86.6332 211.531C86.8223 211.368 86.8442 211.082 86.6817 210.89C86.4586 210.631 86.0658 210.602 85.8064 210.825L77.8726 217.666V216.412L83.1343 211.264C83.3259 211.077 83.3307 210.769 83.1416 210.575C82.9137 210.342 82.5427 210.34 82.3123 210.565L76.8009 215.958V219.238H74.6938V217.591H73.0547V213.673L69.6891 213.809C68.1809 213.108 66.4424 213.093 64.9221 213.77L61.8475 213.675V217.598H59.4519V215.966L53.8871 210.522C53.6834 210.32 53.3536 210.325 53.1548 210.529C52.9414 210.747 52.9438 211.099 53.1645 211.315L58.3753 216.414V217.669L50.3882 210.784C50.1578 210.585 49.8086 210.611 49.6098 210.842C49.4231 211.06 49.4474 211.39 49.6656 211.577L51.9448 213.544M79.2256 233.852L77.8678 232.47V226.907H79.2256V233.85V233.852ZM83.2265 226.679L81.0175 227.753V235.674L80.3022 234.944V216.992L83.2265 214.469V226.676V226.679ZM80.8648 224.401L77.8702 221.012V219.09L79.2281 217.921V225.835H77.247V225.238L77.8726 221.012L80.8648 224.401ZM53.019 214.469L55.9457 216.992V234.944L55.2304 235.674V227.751L53.019 226.676V214.469ZM58.3753 232.467L57.0174 233.85V226.904H58.3753V232.467ZM59.0008 225.832H57.0198V217.918L58.3777 219.088V221.009L59.0033 225.233V225.83L59.0008 225.832ZM68.8696 229.197H65.7392V223.569C65.7392 222.751 66.4424 222.086 67.3056 222.086C67.7226 222.086 68.1179 222.244 68.4161 222.53C68.7071 222.812 68.8696 223.178 68.8696 223.569V229.197ZM76.796 229.197H69.9437V223.569C69.9437 222.882 69.6649 222.239 69.1605 221.754C68.661 221.276 68.0039 221.012 67.308 221.012C65.8507 221.012 64.6675 222.159 64.6675 223.569V229.197H59.4494V226.907H60.075V225.235L59.4494 221.009V218.671H62.9192V214.862L64.9099 214.947C66.4303 214.27 68.1688 214.284 69.677 214.985L71.9781 214.842V218.668H73.6172V220.315H76.7985V221.007L76.1753 225.233V226.904H76.8009V229.195L76.796 229.197Z" fill="#3A3A3A"/>
</g>
<g filter="url(#filter2_d_1227_88644)">
<rect x="245" y="106" width="74.0525" height="74.0525" rx="8.35179" fill="white"/>
</g>
<path d="M273.343 170.122V164.665H274.941C276.032 164.665 276.71 165.265 276.71 166.201C276.71 167.136 276.032 167.729 274.941 167.729H274.076V170.122H273.343ZM274.956 165.289H274.076V167.105H274.956C275.58 167.105 275.954 166.77 275.954 166.185C275.954 165.632 275.58 165.289 274.956 165.289ZM277.655 170.122V164.275H278.318V170.122H277.655ZM280.786 170.231C280.014 170.231 279.492 169.802 279.492 169.132C279.492 168.539 279.944 168.118 280.778 167.978L282.103 167.76V167.487C282.103 166.941 281.714 166.629 281.152 166.629C280.7 166.629 280.334 166.84 280.092 167.175L279.593 166.793C279.936 166.325 280.49 166.037 281.176 166.037C282.174 166.037 282.766 166.622 282.766 167.487V170.122H282.103V169.623C281.807 170.005 281.293 170.231 280.786 170.231ZM280.162 169.108C280.162 169.443 280.435 169.685 280.895 169.685C281.417 169.685 281.846 169.436 282.103 169.015V168.243L280.942 168.438C280.404 168.531 280.162 168.773 280.162 169.108ZM285.904 169.654C286.387 169.654 286.784 169.42 287.026 169.077L287.548 169.475C287.182 169.966 286.613 170.277 285.896 170.277C284.594 170.277 283.76 169.303 283.76 168.157C283.76 167.011 284.594 166.037 285.896 166.037C286.605 166.037 287.182 166.357 287.548 166.84L287.026 167.237C286.784 166.894 286.387 166.661 285.896 166.661C285.054 166.661 284.454 167.323 284.454 168.157C284.454 168.999 285.054 169.654 285.904 169.654ZM291.797 169.475C291.431 169.966 290.846 170.277 290.113 170.277C288.788 170.277 287.97 169.303 287.97 168.157C287.97 166.965 288.734 166.037 289.95 166.037C291.017 166.037 291.711 166.785 291.711 167.752C291.711 167.908 291.688 168.056 291.664 168.165H288.648C288.671 169.108 289.271 169.677 290.113 169.677C290.62 169.677 291.049 169.443 291.306 169.093L291.797 169.475ZM289.934 166.598C289.287 166.598 288.835 166.98 288.695 167.658H291.049C291.025 167.082 290.628 166.598 289.934 166.598Z" fill="#161616"/>
<g clip-path="url(#clip3_1227_88644)">
<path d="M268.661 139.854C267.892 139.854 267.27 140.477 267.27 141.248V142.128H267.281C267.362 144.447 268.266 146.64 269.844 148.337C271.421 150.034 273.542 151.093 275.842 151.339C275.845 151.339 275.847 151.341 275.847 151.346V155.372C275.847 156.087 276.426 156.67 277.144 156.67H286.391C287.085 156.67 287.645 156.107 287.645 155.415V151.348C287.645 151.348 287.647 151.341 287.65 151.341C289.952 151.093 292.073 150.036 293.651 148.339C295.307 146.559 296.218 144.233 296.218 141.784V141.183C296.218 140.451 295.624 139.856 294.892 139.856H268.661V139.854ZM286.363 150.742V155.369C286.363 155.369 286.36 155.376 286.355 155.376H277.148C277.148 155.376 277.141 155.374 277.141 155.369V150.742C277.141 150.396 276.867 150.11 276.522 150.096C272.06 149.905 268.566 146.254 268.566 141.784V141.157C268.566 141.157 268.568 141.15 268.573 141.15H294.928C294.928 141.15 294.935 141.152 294.935 141.157V141.787C294.935 146.251 291.441 149.902 286.98 150.098C286.634 150.112 286.36 150.396 286.36 150.745L286.363 150.742Z" fill="#3A3A3A"/>
<path d="M275.383 131.006C275.383 129.899 276.332 129.011 277.459 129.113C278.446 129.204 279.18 130.075 279.18 131.068V137.74C279.18 138.119 279.487 138.427 279.866 138.427C280.2 138.427 280.472 138.155 280.472 137.821V131.092C280.472 129.359 279.13 127.877 277.399 127.815C275.669 127.753 274.094 129.207 274.094 131.006C274.094 131.197 274.249 131.352 274.439 131.352H275.04C275.231 131.352 275.386 131.197 275.386 131.006H275.383Z" fill="#3A3A3A"/>
<path d="M277.274 126.453C277.274 125.346 278.222 124.458 279.35 124.561C280.336 124.651 281.07 125.522 281.07 126.515V133.18C281.07 133.564 281.38 133.874 281.764 133.874C282.095 133.874 282.362 133.607 282.362 133.275V126.539C282.362 124.806 281.018 123.324 279.29 123.262C277.562 123.2 275.984 124.654 275.984 126.453C275.984 126.644 276.139 126.799 276.33 126.799H276.931C277.121 126.799 277.276 126.644 277.276 126.453H277.274Z" fill="#3A3A3A"/>
<path d="M284.328 129.741C284.328 128.634 285.277 127.746 286.404 127.849C287.391 127.94 288.125 128.811 288.125 129.803C288.125 129.961 288.251 130.087 288.409 130.087H289.157C289.3 130.087 289.417 129.97 289.417 129.827C289.417 128.095 288.073 126.613 286.345 126.551C284.617 126.489 283.039 127.942 283.039 129.741V137.807C283.039 138.146 283.313 138.42 283.652 138.42C284.026 138.42 284.331 138.115 284.331 137.74V129.741H284.328Z" fill="#3A3A3A"/>
</g>
<g filter="url(#filter3_d_1227_88644)">
<rect x="203" y="192" width="74.0525" height="74.0525" rx="8.35179" fill="white"/>
</g>
<path d="M227.525 256.122V250.665H229.123C230.215 250.665 230.893 251.266 230.893 252.201C230.893 253.136 230.215 253.729 229.123 253.729H228.258V256.122H227.525ZM229.139 251.289H228.258V253.105H229.139C229.762 253.105 230.137 252.77 230.137 252.185C230.137 251.632 229.762 251.289 229.139 251.289ZM232.753 256.231C231.982 256.231 231.459 255.802 231.459 255.132C231.459 254.539 231.911 254.119 232.745 253.978L234.071 253.76V253.487C234.071 252.941 233.681 252.63 233.12 252.63C232.668 252.63 232.301 252.84 232.06 253.175L231.561 252.793C231.904 252.326 232.457 252.037 233.143 252.037C234.141 252.037 234.733 252.622 234.733 253.487V256.122H234.071V255.623C233.774 256.005 233.26 256.231 232.753 256.231ZM232.13 255.108C232.13 255.444 232.402 255.685 232.862 255.685C233.385 255.685 233.813 255.436 234.071 255.015V254.243L232.909 254.438C232.371 254.532 232.13 254.773 232.13 255.108ZM236.062 256.122V252.193H236.725V252.684C237.013 252.341 237.372 252.115 237.871 252.115C237.996 252.115 238.113 252.131 238.206 252.162V252.809C238.089 252.778 237.972 252.762 237.816 252.762C237.302 252.762 236.967 253.027 236.725 253.425V256.122H236.062ZM239.168 256.122V250.276H239.839V254.033L241.686 252.193H242.536L240.891 253.83L242.567 256.122H241.749L240.416 254.298L239.839 254.867V256.122H239.168ZM243.751 251.172C243.494 251.172 243.283 250.962 243.283 250.704C243.283 250.455 243.494 250.244 243.751 250.244C244.008 250.244 244.211 250.455 244.211 250.704C244.211 250.962 244.008 251.172 243.751 251.172ZM243.416 256.122V252.193H244.079V256.122H243.416ZM245.479 256.122V252.193H246.141V252.637C246.461 252.287 246.866 252.037 247.451 252.037C248.332 252.037 248.987 252.63 248.987 253.744V256.122H248.324V253.768C248.324 253.066 247.926 252.661 247.318 252.661C246.749 252.661 246.391 252.988 246.141 253.401V256.122H245.479ZM249.868 256.831C249.868 256.434 250.063 256.114 250.453 255.841C250.274 255.701 250.18 255.49 250.18 255.28C250.18 254.968 250.344 254.711 250.648 254.516C250.305 254.259 250.102 253.861 250.102 253.425C250.102 252.669 250.694 252.029 251.63 252.029C251.918 252.029 252.176 252.092 252.386 252.193H253.844V252.77H252.994C253.103 252.965 253.158 253.191 253.158 253.425C253.158 254.173 252.573 254.812 251.63 254.812C251.435 254.812 251.248 254.781 251.084 254.734C250.921 254.851 250.827 254.992 250.827 255.14C250.827 255.303 250.913 255.42 251.154 255.42H252.277C253.314 255.42 253.797 255.927 253.797 256.629C253.797 257.455 252.971 258.071 251.794 258.071C250.632 258.071 249.868 257.618 249.868 256.831ZM251.638 254.29C252.207 254.29 252.534 253.9 252.534 253.425C252.534 252.941 252.207 252.552 251.638 252.552C251.053 252.552 250.733 252.941 250.733 253.425C250.733 253.908 251.053 254.29 251.638 254.29ZM250.515 256.753C250.515 257.229 251.006 257.517 251.786 257.517C252.612 257.517 253.134 257.19 253.134 256.675C253.134 256.301 252.924 256.005 252.222 256.005H250.952C250.679 256.208 250.515 256.441 250.515 256.753Z" fill="#161616"/>
<g clip-path="url(#clip4_1227_88644)">
<path d="M249.863 210.336H246.578C246.275 210.336 246.031 210.58 246.031 210.882V219.095H247.127V215.81H249.865C250.302 215.81 250.719 215.636 251.027 215.329C251.334 215.022 251.508 214.604 251.508 214.167V211.978C251.508 211.542 251.334 211.124 251.027 210.817C250.719 210.509 250.302 210.336 249.865 210.336H249.863ZM250.41 214.167C250.41 214.313 250.351 214.451 250.25 214.555C250.149 214.658 250.008 214.714 249.863 214.714H247.125V211.429H249.863C250.008 211.429 250.147 211.488 250.25 211.589C250.353 211.69 250.41 211.83 250.41 211.976V214.165V214.167Z" fill="#3A3A3A"/>
<path d="M253.693 208.147H243.838C243.401 208.147 242.984 208.32 242.676 208.628C242.369 208.935 242.195 209.353 242.195 209.789V219.644C242.195 220.081 242.369 220.498 242.676 220.806C242.984 221.113 243.401 221.287 243.838 221.287H248.219V237.78C247.555 237.937 246.996 238.383 246.691 238.993L246.086 240.204C246.001 240.373 246.011 240.575 246.109 240.737C246.21 240.899 246.386 240.997 246.576 240.997H250.957C251.147 240.997 251.325 240.901 251.424 240.739C251.525 240.577 251.534 240.375 251.45 240.206L250.844 238.996C250.539 238.383 249.979 237.94 249.314 237.782V221.287H253.695C254.132 221.287 254.549 221.113 254.857 220.806C255.164 220.498 255.338 220.081 255.338 219.644V209.789C255.338 209.353 255.164 208.935 254.857 208.628C254.549 208.32 254.129 208.147 253.693 208.147ZM249.861 239.484L250.07 239.901H247.461L247.67 239.484C247.806 239.211 248.038 239 248.322 238.89C248.606 238.78 248.92 238.78 249.204 238.89C249.488 239 249.72 239.211 249.856 239.484H249.861ZM254.242 219.644C254.242 219.79 254.183 219.928 254.082 220.032C253.982 220.135 253.841 220.191 253.695 220.191H243.84C243.537 220.191 243.293 219.947 243.293 219.644V209.789C243.293 209.487 243.537 209.243 243.84 209.243H253.695C253.841 209.243 253.979 209.301 254.082 209.402C254.186 209.503 254.242 209.644 254.242 209.789V219.644Z" fill="#3A3A3A"/>
<path d="M235.623 233.331C235.043 233.331 234.485 233.561 234.074 233.972C233.664 234.383 233.434 234.941 233.434 235.521C233.434 236.1 233.664 236.659 234.074 237.069C234.485 237.48 235.043 237.71 235.623 237.71C236.202 237.71 236.761 237.48 237.171 237.069C237.582 236.659 237.812 236.1 237.812 235.521C237.812 234.941 237.582 234.383 237.171 233.972C236.761 233.561 236.202 233.331 235.623 233.331ZM235.623 236.616C235.332 236.616 235.053 236.501 234.849 236.295C234.644 236.088 234.527 235.812 234.527 235.521C234.527 235.23 234.642 234.95 234.849 234.746C235.055 234.542 235.332 234.425 235.623 234.425C235.914 234.425 236.193 234.54 236.397 234.746C236.601 234.953 236.719 235.23 236.719 235.521C236.719 235.812 236.604 236.091 236.397 236.295C236.191 236.499 235.914 236.616 235.623 236.616Z" fill="#3A3A3A"/>
<path d="M246.575 235.523V231.691C246.575 230.966 246.287 230.269 245.773 229.755C245.259 229.241 244.565 228.953 243.837 228.953H238.105L233.534 222.244C233.126 221.646 232.447 221.287 231.725 221.287H223.031C222.728 221.287 222.484 221.531 222.484 221.834V236.07C222.484 236.372 222.728 236.07 223.031 236.07H231.281C231.46 237.491 232.323 238.737 233.595 239.404C234.867 240.068 236.382 240.068 237.652 239.404C238.924 238.74 239.787 237.494 239.965 236.07H246.026C246.172 236.07 246.31 236.011 246.414 235.91C246.517 235.809 246.573 235.668 246.573 235.523H246.575ZM245.379 231.142H243.29V230.046H243.837C244.175 230.046 244.506 230.154 244.78 230.349C245.057 230.546 245.266 230.821 245.379 231.14V231.142ZM231.722 222.383C232.084 222.383 232.424 222.561 232.628 222.861L236.781 228.953H234.21L232.567 227.31L233.276 226.602L232.501 225.827L230.312 228.016L231.086 228.791L231.795 228.082L232.663 228.95H227.414V225.665C227.414 224.94 227.126 224.243 226.612 223.73C226.098 223.216 225.403 222.927 224.676 222.927C224.373 222.927 224.129 223.171 224.129 223.474V228.948H223.583V222.378H231.725L231.722 222.383ZM226.318 228.953H225.223V224.119C225.542 224.232 225.819 224.443 226.016 224.72C226.213 224.997 226.316 225.327 226.318 225.668V228.953ZM235.627 238.808C234.756 238.808 233.921 238.463 233.304 237.846C232.687 237.229 232.342 236.393 232.342 235.523C232.342 234.652 232.687 233.817 233.304 233.2C233.921 232.583 234.756 232.238 235.627 232.238C236.497 232.238 237.333 232.583 237.95 233.2C238.567 233.817 238.912 234.652 238.912 235.523C238.912 236.393 238.565 237.229 237.95 237.846C237.333 238.461 236.5 238.808 235.627 238.808ZM239.97 234.976C239.792 233.554 238.928 232.308 237.657 231.642C236.385 230.978 234.869 230.978 233.6 231.642C232.328 232.306 231.464 233.552 231.286 234.976H223.58V230.049H242.195V231.691C242.195 231.837 242.253 231.975 242.354 232.078C242.455 232.181 242.596 232.238 242.741 232.238H245.48V234.976H239.968H239.97Z" fill="#3A3A3A"/>
<path d="M224.125 230.595H226.314V231.691H224.125V230.595Z" fill="#3A3A3A"/>
<path d="M225.223 240.997H242.194C242.497 240.997 242.741 240.753 242.741 240.45C242.741 240.147 242.497 239.903 242.194 239.903H225.223C224.92 239.903 224.676 240.147 224.676 240.45C224.676 240.753 224.92 240.997 225.223 240.997Z" fill="#3A3A3A"/>
</g>
<g filter="url(#filter4_d_1227_88644)">
<rect x="-13" y="106" width="74.0525" height="74.0525" rx="8.35179" fill="white"/>
</g>
<path d="M2.49174 170.122V164.665H4.08972C5.18102 164.665 5.85918 165.265 5.85918 166.201C5.85918 167.136 5.18102 167.729 4.08972 167.729H3.22447V170.122H2.49174ZM4.10531 165.289H3.22447V167.105H4.10531C4.72891 167.105 5.10307 166.77 5.10307 166.185C5.10307 165.632 4.72891 165.289 4.10531 165.289ZM7.71975 170.231C6.94805 170.231 6.42578 169.802 6.42578 169.132C6.42578 168.539 6.87789 168.118 7.71196 167.978L9.03711 167.76V167.487C9.03711 166.941 8.64736 166.63 8.08612 166.63C7.63401 166.63 7.26764 166.84 7.026 167.175L6.52712 166.793C6.8701 166.326 7.42354 166.037 8.1095 166.037C9.10726 166.037 9.69968 166.622 9.69968 167.487V170.122H9.03711V169.623C8.7409 170.005 8.22643 170.231 7.71975 170.231ZM7.09615 169.108C7.09615 169.444 7.36898 169.685 7.82888 169.685C8.35115 169.685 8.77987 169.436 9.03711 169.015V168.243L7.87565 168.438C7.3378 168.532 7.09615 168.773 7.09615 169.108ZM11.0289 170.122V166.193H11.6915V166.684C11.9799 166.341 12.3385 166.115 12.8374 166.115C12.9621 166.115 13.079 166.131 13.1725 166.162V166.809C13.0556 166.778 12.9387 166.762 12.7828 166.762C12.2683 166.762 11.9331 167.027 11.6915 167.425V170.122H11.0289ZM15.6996 169.654C16.1829 169.654 16.5804 169.42 16.8221 169.077L17.3443 169.475C16.978 169.966 16.4089 170.278 15.6918 170.278C14.39 170.278 13.556 169.303 13.556 168.157C13.556 167.011 14.39 166.037 15.6918 166.037C16.4011 166.037 16.978 166.357 17.3443 166.84L16.8221 167.238C16.5804 166.895 16.1829 166.661 15.6918 166.661C14.8499 166.661 14.2497 167.323 14.2497 168.157C14.2497 168.999 14.8499 169.654 15.6996 169.654ZM23.8462 169.475C23.4798 169.966 22.8952 170.278 22.1624 170.278C20.8373 170.278 20.0188 169.303 20.0188 168.157C20.0188 166.965 20.7827 166.037 21.9987 166.037C23.0667 166.037 23.7604 166.785 23.7604 167.752C23.7604 167.908 23.737 168.056 23.7136 168.165H20.697C20.7204 169.108 21.3206 169.677 22.1624 169.677C22.6691 169.677 23.0978 169.444 23.3551 169.093L23.8462 169.475ZM21.9831 166.598C21.3362 166.598 20.8841 166.98 20.7437 167.658H23.0978C23.0744 167.082 22.6769 166.598 21.9831 166.598ZM25.0865 168.804V166.793H24.346V166.193H25.0865V165.211H25.7569V166.193H27.121V166.793H25.7569V168.804C25.7569 169.42 26.0687 169.592 26.5442 169.592C26.8014 169.592 26.9807 169.56 27.1288 169.498V170.091C26.9417 170.168 26.7313 170.2 26.4507 170.2C25.5776 170.2 25.0865 169.763 25.0865 168.804ZM30.5622 165.172C30.3049 165.172 30.0945 164.961 30.0945 164.704C30.0945 164.455 30.3049 164.244 30.5622 164.244C30.8116 164.244 31.0221 164.455 31.0221 164.704C31.0221 164.961 30.8116 165.172 30.5622 165.172ZM30.8973 170.636C30.8973 171.634 30.4141 172.07 29.5332 172.07C29.2526 172.07 29.0421 172.039 28.8628 171.961V171.369C29.0032 171.431 29.1902 171.462 29.4475 171.462C29.9152 171.462 30.2348 171.283 30.2348 170.636V166.193H30.8973V170.636ZM33.3656 170.231C32.5939 170.231 32.0716 169.802 32.0716 169.132C32.0716 168.539 32.5238 168.118 33.3578 167.978L34.683 167.76V167.487C34.683 166.941 34.2932 166.63 33.732 166.63C33.2799 166.63 32.9135 166.84 32.6719 167.175L32.173 166.793C32.516 166.326 33.0694 166.037 33.7554 166.037C34.7531 166.037 35.3456 166.622 35.3456 167.487V170.122H34.683V169.623C34.3868 170.005 33.8723 170.231 33.3656 170.231ZM32.742 169.108C32.742 169.444 33.0148 169.685 33.4747 169.685C33.997 169.685 34.4257 169.436 34.683 169.015V168.243L33.5215 168.438C32.9837 168.532 32.742 168.773 32.742 169.108ZM36.6748 170.122V166.193H37.3374V166.684C37.6258 166.341 37.9843 166.115 38.4832 166.115C38.6079 166.115 38.7249 166.131 38.8184 166.162V166.809C38.7015 166.778 38.5846 166.762 38.4287 166.762C37.9142 166.762 37.579 167.027 37.3374 167.425V170.122H36.6748ZM39.2018 168.157C39.2018 167.011 39.9891 166.037 41.2207 166.037C41.8054 166.037 42.2653 166.263 42.616 166.661V164.275H43.2786V170.122H42.616V169.654C42.2653 170.052 41.8054 170.278 41.2207 170.278C39.9891 170.278 39.2018 169.303 39.2018 168.157ZM39.9034 168.157C39.9034 168.991 40.4646 169.654 41.2987 169.654C41.8443 169.654 42.3276 169.389 42.616 168.929V167.386C42.312 166.918 41.8365 166.661 41.2987 166.661C40.4646 166.661 39.9034 167.323 39.9034 168.157ZM45.0105 165.172C44.7533 165.172 44.5428 164.961 44.5428 164.704C44.5428 164.455 44.7533 164.244 45.0105 164.244C45.2677 164.244 45.4704 164.455 45.4704 164.704C45.4704 164.961 45.2677 165.172 45.0105 165.172ZM44.6753 170.122V166.193H45.3379V170.122H44.6753ZM46.7383 170.122V166.193H47.4008V166.637C47.7204 166.287 48.1258 166.037 48.7104 166.037C49.5912 166.037 50.246 166.63 50.246 167.744V170.122H49.5834V167.768C49.5834 167.066 49.1859 166.661 48.5779 166.661C48.0088 166.661 47.6503 166.988 47.4008 167.401V170.122H46.7383Z" fill="#161616"/>
<g clip-path="url(#clip5_1227_88644)">
<path fill-rule="evenodd" clip-rule="evenodd" d="M38.2946 153.198C38.5579 153.198 38.9166 153.143 39.1481 153.234V155.047H38.3286C38.2288 154.789 38.2923 153.569 38.2923 153.2L38.2946 153.198ZM41.5316 150.711C41.5316 153.132 41.888 153.198 40.215 153.198V155.045H40.9618C41.7563 155.045 41.6496 156.111 41.0685 156.111H6.41712C5.836 156.111 5.72931 155.045 6.52381 155.045H13.3905V147.798C13.3905 147.641 12.4984 147.635 11.8288 147.44C7.1753 146.073 4.76003 141.176 6.48976 136.853C7.2888 134.854 8.37612 134.489 8.37612 133.301C8.37612 132.113 7.20027 130.343 8.50778 127.747C11.1614 122.47 19.0791 123.592 19.9122 129.667C20.2459 132.102 18.6342 132.9 20.1074 134.695C21.247 136.082 21.6442 137.842 21.7532 137.921C22.1096 136.398 21.3627 136.96 21.4694 134.511C21.5398 132.884 22.668 131.415 24.0073 130.615C27.7391 128.379 32.3154 131.85 31.5051 135.935C31.3393 136.772 30.8195 137.517 31.58 138.374C32.4426 139.347 33.2075 141.099 33.2075 142.398H37.2277C37.2277 141.689 37.0665 140.764 37.7611 140.764C40.4919 140.764 40.215 140.48 40.215 142.398C40.753 142.398 41.5316 142.271 41.5316 142.931V148.793C41.5316 149.401 40.5941 149.253 40.215 149.253V150.248C40.5941 150.248 41.5316 150.101 41.5316 150.711ZM27.0513 153.198H37.2254V155.045H27.0513V153.198ZM22.8178 153.198H25.9844V155.045H22.8178V153.198ZM20.8974 153.198H21.7509V155.045H20.8974V153.198ZM19.5445 151.314H40.4624V152.13H19.5467V151.314H19.5445ZM38.2923 149.253H39.1458V150.248H38.2923V149.253ZM27.0513 149.253H37.2254V150.248H27.0513V149.253ZM22.8178 149.253H25.9844V150.248H22.8178V149.253ZM20.8974 149.253C22.0006 149.253 21.7509 149.115 21.7509 150.248H20.8974V149.253ZM18.4435 150.888C18.4435 151.797 18.2483 152.98 18.8226 153.175C19.1086 153.272 19.5104 153.123 19.7964 153.234V155.047H14.496C14.3871 154.764 14.4688 149.02 14.4574 147.938C14.4552 147.646 14.3984 147.719 14.9591 147.657C16.4913 147.492 17.2359 146.982 18.4458 146.343C18.4458 149.178 18.0713 149.255 19.7987 149.255V150.251C19.0587 150.251 18.4458 150.133 18.4458 150.89L18.4435 150.888ZM19.5467 146.377H40.4647V148.188H19.5467V146.377ZM19.5467 143.498H40.4647V145.309H19.5467V143.498ZM38.2946 141.827H39.1481V142.396H38.2946V141.827ZM20.8997 141.827H21.7532V142.396H20.8997V141.827ZM22.5363 135.146C22.5363 132.725 24.4749 130.923 26.4884 130.991C29.1465 131.079 31.2009 133.607 30.3315 136.182C29.3531 139.079 32.1066 139.279 32.1066 142.396H27.0536C27.0536 141.46 26.9492 141.772 27.5961 141.126C27.8209 140.9 28.6176 140.183 28.6835 139.936C28.7901 139.526 28.4451 139.27 28.2635 139.27C27.5984 139.27 27.5212 139.809 27.0536 140.122V136.391C27.0536 135.899 26.9991 135.609 26.4498 135.609C25.9004 135.609 25.9867 136.398 25.9867 136.674V141.258C25.5872 140.99 25.2898 140.369 24.8472 140.369C24.4408 140.369 24.3137 140.648 24.3137 140.972C24.3137 141.324 25.2898 141.99 25.5599 142.394H22.8201C22.8201 141.167 23.0652 140.759 21.8599 140.759C22.0188 138.533 21.9893 139.986 22.7134 138.379C23.3104 137.059 22.5363 136.37 22.5363 135.146ZM18.3732 133.122C18.3732 135.495 21.0903 135.974 20.7998 140.521C20.7657 141.04 20.373 140.585 20.0166 140.877C19.6875 141.147 19.7942 141.766 19.7942 142.396C18.1098 142.396 18.4413 142.566 18.4413 144.989C17.5038 145.615 16.9907 146.077 15.6741 146.417C15.4017 146.488 14.7888 146.624 14.4574 146.624V143.355C14.4574 142.997 16.4505 141.711 16.4505 141.045C16.4505 140.802 16.1962 140.548 15.9534 140.548C15.3949 140.548 14.8297 141.657 14.4597 141.757C14.4597 137.47 14.0148 138.916 15.8399 137.023C16.051 136.806 16.4527 136.5 16.4527 136.18C16.4527 135.772 16.1735 135.647 15.8489 135.647C15.4562 135.647 14.7934 136.633 14.462 136.855C14.462 136.209 14.5596 131.837 14.4143 131.503C14.3371 131.329 14.1669 131.206 13.9285 131.206C13.2793 131.206 13.3951 131.916 13.3951 132.557V138.241C12.7799 137.83 12.1942 136.602 11.5723 137.168C11.0547 137.64 11.8129 138.175 12.2306 138.587L13.1908 139.546C13.4586 139.814 13.3951 139.703 13.3951 140.301V143.18C13.0568 142.953 12.3781 141.936 11.9718 141.936C11.6744 141.936 11.402 142.178 11.402 142.468C11.402 143.087 13.3951 144.395 13.3951 144.742V146.626C11.8469 146.626 10.0446 145.603 8.95724 144.52C6.80756 142.38 6.34902 138.701 8.0447 136.13C8.35569 135.661 8.83012 135.092 8.9754 134.856C10.5054 132.333 7.79274 131.315 9.67456 127.844C11.3884 124.682 16.2076 124.578 18.1848 127.847C19.6534 130.272 18.3777 131.827 18.3777 133.126L18.3732 133.122Z" fill="#3A3A3A"/>
</g>
<g filter="url(#filter5_d_1227_88644)">
<rect x="73" y="106" width="74.0525" height="74.0525" rx="8.35179" fill="white"/>
</g>
<g clip-path="url(#clip6_1227_88644)">
<path d="M93.3125 139.139C93.3125 138.738 93.6385 138.415 94.0374 138.415H96.9391C97.3403 138.415 97.6639 138.741 97.6639 139.139C97.6639 139.538 97.3403 139.864 96.9391 139.864H94.0374C93.6362 139.864 93.3125 139.538 93.3125 139.139ZM94.0374 134.788H95.9658C97.6913 134.774 99.3439 134.081 100.563 132.86L102.986 130.437C104.208 129.217 104.901 127.564 104.915 125.839V123.908C104.917 123.509 104.591 123.183 104.192 123.183C103.793 123.183 103.467 123.509 103.467 123.908V125.837C103.472 127.188 102.952 128.488 102.018 129.463L99.5946 131.886C98.619 132.821 97.3198 133.343 95.968 133.336H94.0374C93.6362 133.336 93.3125 133.66 93.3125 134.061C93.3125 134.462 93.6385 134.786 94.0374 134.786V134.788ZM109.269 127.535C109.46 127.535 109.645 127.46 109.781 127.323C109.918 127.186 109.993 127.001 109.993 126.81V123.908C109.993 123.507 109.667 123.183 109.269 123.183C108.87 123.183 108.544 123.509 108.544 123.908V126.81C108.544 127.001 108.621 127.186 108.756 127.323C108.892 127.46 109.077 127.535 109.269 127.535ZM124.5 143.491H122.571C120.844 143.495 119.186 144.191 117.974 145.419L115.551 147.842C114.32 149.057 113.627 150.712 113.622 152.44V154.368C113.622 154.77 113.946 155.093 114.347 155.093C114.748 155.093 115.072 154.767 115.072 154.368V152.44C115.058 151.088 115.578 149.784 116.522 148.813L118.945 146.39C119.916 145.449 121.22 144.929 122.571 144.941H124.5C124.901 144.941 125.225 144.617 125.225 144.216C125.225 143.815 124.899 143.491 124.5 143.491ZM117.971 132.873C119.191 134.095 120.844 134.783 122.569 134.788H124.498C124.899 134.788 125.222 134.464 125.222 134.063C125.222 133.662 124.896 133.338 124.498 133.338H122.569C121.217 133.35 119.914 132.828 118.943 131.889L116.519 129.465C115.576 128.497 115.054 127.193 115.07 125.839V123.908C115.07 123.509 114.746 123.183 114.345 123.183C113.944 123.183 113.62 123.509 113.62 123.908V125.837C113.625 127.564 114.32 129.222 115.548 130.434L117.971 132.871V132.873ZM100.566 145.419C99.3507 144.188 97.6959 143.495 95.968 143.491H94.0374C93.6362 143.491 93.3125 143.815 93.3125 144.216C93.3125 144.617 93.6385 144.941 94.0374 144.941H95.9658C97.3175 144.929 98.6213 145.451 99.5924 146.39L102.015 148.813C102.957 149.784 103.477 151.088 103.465 152.44V154.368C103.465 154.77 103.789 155.093 104.19 155.093C104.591 155.093 104.915 154.767 104.915 154.368V152.44C104.91 150.712 104.215 149.055 102.986 147.842L100.563 145.419H100.566ZM124.5 138.412H121.598C121.197 138.412 120.873 138.738 120.873 139.137C120.873 139.536 121.197 139.862 121.598 139.862H124.5C124.901 139.862 125.225 139.536 125.225 139.137C125.225 138.738 124.899 138.412 124.5 138.412ZM115.072 139.137C115.072 140.676 114.461 142.151 113.372 143.24C112.284 144.327 110.807 144.941 109.269 144.941C107.73 144.941 106.255 144.33 105.166 143.24C104.078 142.153 103.465 140.676 103.465 139.137C103.465 137.599 104.076 136.124 105.166 135.034C106.255 133.945 107.73 133.334 109.269 133.334C110.807 133.334 112.282 133.945 113.372 135.034C114.459 136.121 115.072 137.599 115.072 139.137ZM113.622 139.137C113.622 137.984 113.164 136.876 112.348 136.06C111.532 135.244 110.424 134.786 109.271 134.786C108.117 134.786 107.01 135.244 106.194 136.06C105.378 136.876 104.919 137.984 104.919 139.137C104.919 140.291 105.378 141.398 106.194 142.214C107.01 143.03 108.117 143.489 109.271 143.489C110.424 143.489 111.532 143.03 112.348 142.214C113.164 141.398 113.622 140.291 113.622 139.137ZM109.271 150.742C108.87 150.742 108.546 151.065 108.546 151.467V154.368C108.546 154.77 108.872 155.093 109.271 155.093C109.67 155.093 109.996 154.767 109.996 154.368V151.467C109.996 151.275 109.918 151.091 109.784 150.954C109.647 150.817 109.462 150.742 109.271 150.742Z" fill="#3A3A3A"/>
</g>
<path d="M90.461 170.122V164.665H91.9109C93.01 164.665 93.6882 165.265 93.6882 166.201C93.6882 166.855 93.353 167.347 92.7684 167.58L94.53 170.122H93.6648L92.0824 167.721C92.0278 167.729 91.9655 167.729 91.9109 167.729H91.1938V170.122H90.461ZM91.9421 165.289H91.1938V167.105H91.9421C92.5657 167.105 92.9321 166.77 92.9321 166.185C92.9321 165.632 92.5657 165.289 91.9421 165.289ZM97.0382 166.037C98.301 166.037 99.1662 167.011 99.1662 168.157C99.1662 169.303 98.301 170.277 97.0382 170.277C95.7676 170.277 94.9102 169.303 94.9102 168.157C94.9102 167.011 95.7676 166.037 97.0382 166.037ZM97.046 169.654C97.8645 169.654 98.4647 168.968 98.4647 168.157C98.4647 167.339 97.8645 166.661 97.046 166.661C96.2041 166.661 95.6039 167.339 95.6039 168.157C95.6039 168.976 96.2041 169.654 97.046 169.654ZM100.231 170.122V166.193H100.894V166.637C101.214 166.286 101.619 166.037 102.204 166.037C103.084 166.037 103.739 166.629 103.739 167.744V170.122H103.077V167.767C103.077 167.066 102.679 166.661 102.071 166.661C101.502 166.661 101.143 166.988 100.894 167.401V170.122H100.231ZM104.738 168.157C104.738 167.011 105.525 166.037 106.757 166.037C107.341 166.037 107.801 166.263 108.152 166.661V164.275H108.814V170.122H108.152V169.654C107.801 170.051 107.341 170.277 106.757 170.277C105.525 170.277 104.738 169.303 104.738 168.157ZM105.439 168.157C105.439 168.991 106 169.654 106.835 169.654C107.38 169.654 107.863 169.389 108.152 168.929V167.386C107.848 166.918 107.372 166.661 106.835 166.661C106 166.661 105.439 167.323 105.439 168.157ZM112.476 170.122V164.665H114.074C115.165 164.665 115.843 165.265 115.843 166.201C115.843 167.136 115.165 167.729 114.074 167.729H113.209V170.122H112.476ZM114.089 165.289H113.209V167.105H114.089C114.713 167.105 115.087 166.77 115.087 166.185C115.087 165.632 114.713 165.289 114.089 165.289ZM118.345 166.037C119.608 166.037 120.473 167.011 120.473 168.157C120.473 169.303 119.608 170.277 118.345 170.277C117.074 170.277 116.217 169.303 116.217 168.157C116.217 167.011 117.074 166.037 118.345 166.037ZM118.353 169.654C119.171 169.654 119.772 168.968 119.772 168.157C119.772 167.339 119.171 166.661 118.353 166.661C117.511 166.661 116.911 167.339 116.911 168.157C116.911 168.976 117.511 169.654 118.353 169.654ZM121.873 165.172C121.616 165.172 121.406 164.961 121.406 164.704C121.406 164.455 121.616 164.244 121.873 164.244C122.131 164.244 122.333 164.455 122.333 164.704C122.333 164.961 122.131 165.172 121.873 165.172ZM121.538 170.122V166.193H122.201V170.122H121.538ZM123.601 170.122V166.193H124.264V166.637C124.583 166.286 124.989 166.037 125.573 166.037C126.454 166.037 127.109 166.629 127.109 167.744V170.122H126.446V167.767C126.446 167.066 126.049 166.661 125.441 166.661C124.872 166.661 124.513 166.988 124.264 167.401V170.122H123.601ZM128.669 168.804V166.793H127.928V166.193H128.669V165.211H129.339V166.193H130.703V166.793H129.339V168.804C129.339 169.42 129.651 169.592 130.126 169.592C130.384 169.592 130.563 169.56 130.711 169.498V170.09C130.524 170.168 130.313 170.2 130.033 170.2C129.16 170.2 128.669 169.763 128.669 168.804Z" fill="#161616"/>
<g filter="url(#filter6_d_1227_88644)">
<rect x="159" y="106" width="74.0525" height="74.0525" rx="8.35179" fill="white"/>
</g>
<path d="M179.97 170.122V164.665H181.319C182.363 164.665 182.995 165.219 182.995 166.084C182.995 166.575 182.769 166.973 182.34 167.206C182.979 167.432 183.322 167.931 183.322 168.555C183.322 169.514 182.613 170.122 181.451 170.122H179.97ZM181.327 165.289H180.703V166.934H181.327C181.903 166.934 182.239 166.637 182.239 166.099C182.239 165.585 181.903 165.289 181.327 165.289ZM181.483 167.557H180.703V169.498H181.483C182.161 169.498 182.566 169.14 182.566 168.524C182.566 167.908 182.161 167.557 181.483 167.557ZM185.307 165.569H184.707L185.525 164.275H186.422L187.232 165.569H186.64L185.977 164.587L185.307 165.569ZM185.548 170.231C184.777 170.231 184.255 169.802 184.255 169.132C184.255 168.539 184.707 168.118 185.541 167.978L186.866 167.76V167.487C186.866 166.941 186.476 166.63 185.915 166.63C185.463 166.63 185.096 166.84 184.855 167.175L184.356 166.793C184.699 166.326 185.252 166.037 185.938 166.037C186.936 166.037 187.528 166.622 187.528 167.487V170.122H186.866V169.623C186.57 170.005 186.055 170.231 185.548 170.231ZM184.925 169.108C184.925 169.444 185.198 169.685 185.658 169.685C186.18 169.685 186.609 169.436 186.866 169.015V168.243L185.704 168.438C185.167 168.532 184.925 168.773 184.925 169.108ZM189.084 168.804V166.793H188.343V166.193H189.084V165.211H189.754V166.193H191.118V166.793H189.754V168.804C189.754 169.42 190.066 169.592 190.541 169.592C190.799 169.592 190.978 169.56 191.126 169.498V170.091C190.939 170.168 190.728 170.2 190.448 170.2C189.575 170.2 189.084 169.763 189.084 168.804ZM192.466 165.172C192.209 165.172 191.998 164.961 191.998 164.704C191.998 164.455 192.209 164.244 192.466 164.244C192.723 164.244 192.926 164.455 192.926 164.704C192.926 164.961 192.723 165.172 192.466 165.172ZM192.131 170.122V166.193H192.794V170.122H192.131ZM194.194 170.122V166.193H194.856V166.622C195.153 166.279 195.542 166.037 196.088 166.037C196.657 166.037 197.125 166.294 197.366 166.793C197.678 166.365 198.091 166.037 198.77 166.037C199.611 166.037 200.227 166.598 200.227 167.666V170.122H199.565V167.69C199.565 167.035 199.198 166.661 198.637 166.661C198.138 166.661 197.787 166.941 197.53 167.401C197.538 167.487 197.546 167.573 197.546 167.666V170.122H196.883V167.69C196.883 167.035 196.525 166.661 195.956 166.661C195.418 166.661 195.083 166.996 194.856 167.401V170.122H194.194ZM205.055 169.475C204.688 169.966 204.104 170.278 203.371 170.278C202.046 170.278 201.227 169.303 201.227 168.157C201.227 166.965 201.991 166.037 203.207 166.037C204.275 166.037 204.969 166.785 204.969 167.752C204.969 167.908 204.946 168.056 204.922 168.165H201.906C201.929 169.108 202.529 169.677 203.371 169.677C203.878 169.677 204.306 169.444 204.564 169.093L205.055 169.475ZM203.192 166.598C202.545 166.598 202.093 166.98 201.952 167.658H204.306C204.283 167.082 203.886 166.598 203.192 166.598ZM206.092 170.122V166.193H206.754V166.637C207.074 166.287 207.479 166.037 208.064 166.037C208.945 166.037 209.6 166.63 209.6 167.744V170.122H208.937V167.768C208.937 167.066 208.54 166.661 207.932 166.661C207.363 166.661 207.004 166.988 206.754 167.401V170.122H206.092ZM211.159 168.804V166.793H210.419V166.193H211.159V165.211H211.83V166.193H213.194V166.793H211.83V168.804C211.83 169.42 212.142 169.592 212.617 169.592C212.874 169.592 213.054 169.56 213.202 169.498V170.091C213.015 170.168 212.804 170.2 212.524 170.2C211.65 170.2 211.159 169.763 211.159 168.804Z" fill="#161616"/>
<g clip-path="url(#clip7_1227_88644)">
<path fill-rule="evenodd" clip-rule="evenodd" d="M190.553 132.078H192.173C192.523 132.078 192.861 131.939 193.111 131.687C193.359 131.438 193.5 131.099 193.5 130.745V128.85C193.5 128.498 193.361 128.159 193.111 127.908C192.863 127.658 192.525 127.517 192.173 127.517H190.553C190.203 127.517 189.865 127.656 189.615 127.908C189.368 128.157 189.227 128.496 189.227 128.85V130.745C189.227 131.097 189.365 131.436 189.615 131.687C189.863 131.936 190.201 132.078 190.553 132.078ZM190.363 128.85C190.363 128.799 190.382 128.752 190.419 128.715C190.455 128.679 190.502 128.659 190.553 128.659H192.173C192.224 128.659 192.271 128.679 192.307 128.715C192.344 128.752 192.363 128.799 192.363 128.85V130.745C192.363 130.794 192.344 130.843 192.307 130.88C192.273 130.916 192.224 130.936 192.173 130.936H190.553C190.504 130.936 190.455 130.916 190.419 130.88C190.382 130.843 190.363 130.796 190.363 130.745V128.85Z" fill="#3A3A3A"/>
<path fill-rule="evenodd" clip-rule="evenodd" d="M189.227 137.155C189.227 137.507 189.365 137.847 189.615 138.098C189.863 138.347 190.201 138.489 190.553 138.489H192.173C192.523 138.489 192.861 138.349 193.111 138.098C193.359 137.849 193.5 137.509 193.5 137.155V135.261C193.5 134.909 193.361 134.569 193.111 134.318C192.863 134.069 192.525 133.927 192.173 133.927H190.553C190.203 133.927 189.865 134.067 189.615 134.318C189.368 134.567 189.227 134.907 189.227 135.261V137.155ZM190.363 135.261C190.363 135.209 190.382 135.162 190.419 135.126C190.455 135.091 190.502 135.07 190.553 135.07H192.173C192.224 135.07 192.271 135.089 192.307 135.126C192.344 135.162 192.363 135.209 192.363 135.261V137.155C192.363 137.204 192.344 137.254 192.307 137.29C192.273 137.327 192.224 137.346 192.173 137.346H190.553C190.504 137.346 190.455 137.327 190.419 137.29C190.382 137.256 190.363 137.207 190.363 137.155V135.261Z" fill="#3A3A3A"/>
<path fill-rule="evenodd" clip-rule="evenodd" d="M196.061 132.078H197.681C198.033 132.078 198.369 131.939 198.619 131.687C198.866 131.438 199.007 131.099 199.007 130.744V128.85C199.007 128.498 198.869 128.159 198.619 127.907C198.371 127.658 198.033 127.517 197.681 127.517H196.061C195.711 127.517 195.373 127.656 195.123 127.907C194.875 128.157 194.734 128.496 194.734 128.85V130.744C194.734 131.097 194.873 131.436 195.123 131.687C195.371 131.936 195.709 132.078 196.061 132.078ZM195.871 128.85C195.871 128.799 195.89 128.751 195.927 128.715C195.963 128.678 196.01 128.659 196.061 128.659H197.681C197.732 128.659 197.779 128.678 197.815 128.715C197.852 128.751 197.871 128.799 197.871 128.85V130.744C197.871 130.794 197.852 130.843 197.815 130.88C197.779 130.916 197.732 130.936 197.681 130.936H196.061C196.01 130.936 195.963 130.916 195.927 130.88C195.892 130.843 195.871 130.796 195.871 130.744V128.85Z" fill="#3A3A3A"/>
<path fill-rule="evenodd" clip-rule="evenodd" d="M194.734 137.155C194.734 137.507 194.873 137.847 195.123 138.098C195.371 138.347 195.709 138.489 196.061 138.489H197.681C198.033 138.489 198.369 138.349 198.619 138.098C198.866 137.849 199.007 137.509 199.007 137.155V135.261C199.007 134.909 198.869 134.569 198.619 134.318C198.371 134.069 198.033 133.927 197.681 133.927H196.061C195.711 133.927 195.373 134.067 195.123 134.318C194.875 134.567 194.734 134.907 194.734 135.261V137.155ZM195.871 135.261C195.871 135.209 195.89 135.162 195.927 135.126C195.963 135.091 196.01 135.07 196.061 135.07H197.681C197.732 135.07 197.779 135.089 197.815 135.126C197.852 135.162 197.871 135.209 197.871 135.261V137.155C197.871 137.204 197.852 137.254 197.815 137.29C197.779 137.327 197.732 137.346 197.681 137.346H196.061C196.01 137.346 195.963 137.327 195.927 137.29C195.892 137.256 195.871 137.207 195.871 137.155V135.261Z" fill="#3A3A3A"/>
<path fill-rule="evenodd" clip-rule="evenodd" d="M214.675 140.185C214.675 139.492 214.261 138.867 213.622 138.603C212.881 138.293 211.654 137.784 210.451 137.284V134.722C210.451 134.028 210.037 133.403 209.398 133.139L202.192 130.141C202.164 130.13 202.136 130.122 202.108 130.115V126.645C202.108 125.698 201.346 124.931 200.403 124.931H187.828C186.887 124.931 186.123 125.698 186.123 126.645V135.716C186.123 136.032 186.377 136.287 186.691 136.287C187.005 136.287 187.259 136.032 187.259 135.716V126.645C187.259 126.329 187.513 126.073 187.828 126.073H200.403C200.717 126.073 200.972 126.329 200.972 126.645V138.094C200.495 138.291 200.072 138.467 199.743 138.605C199.106 138.869 198.69 139.494 198.69 140.187V153.857H194.077V152.863C195.581 152.521 196.784 150.848 196.784 148.771C196.784 147.891 196.568 147.077 196.211 146.411C195.996 146.012 195.912 145.516 195.972 145.03C195.991 144.871 196.002 144.712 196.002 144.547C196.002 142.788 194.838 141.429 193.511 141.429C192.184 141.429 191.02 142.788 191.02 144.547C191.02 144.71 191.03 144.871 191.049 145.028C191.109 145.514 191.028 146.012 190.81 146.411C190.449 147.077 190.235 147.891 190.235 148.771C190.235 150.846 191.436 152.519 192.942 152.863V153.857H185.221V152.079C187.302 151.72 188.971 149.429 188.971 146.589C188.971 145.408 188.684 144.317 188.201 143.424C187.881 142.833 187.755 142.095 187.847 141.377C187.847 141.377 187.847 141.377 187.847 141.375C187.872 141.167 187.885 140.954 187.885 140.737C187.885 138.437 186.39 136.635 184.653 136.635C182.916 136.635 181.42 138.435 181.42 140.737C181.42 140.956 181.433 141.169 181.461 141.377C181.55 142.097 181.426 142.833 181.104 143.426C180.621 144.317 180.335 145.41 180.335 146.592C180.335 149.431 182.005 151.722 184.084 152.081V153.859H179.053C178.739 153.859 178.484 154.115 178.484 154.43C178.484 154.746 178.739 155.002 179.053 155.002H212.97C213.911 155.002 214.675 154.235 214.675 153.288V140.19V140.185ZM192.308 151.254C191.733 150.696 191.372 149.787 191.372 148.771C191.372 148.095 191.532 147.468 191.808 146.957C192.133 146.358 192.267 145.612 192.175 144.884C192.175 144.884 192.175 144.884 192.175 144.882C192.16 144.773 192.154 144.661 192.154 144.547C192.154 143.875 192.387 143.271 192.767 142.902C192.977 142.7 193.229 142.571 193.509 142.571C193.789 142.571 194.041 142.7 194.248 142.902C194.628 143.271 194.861 143.873 194.861 144.547C194.861 144.663 194.855 144.777 194.84 144.889C194.748 145.614 194.882 146.358 195.207 146.957C195.483 147.468 195.643 148.095 195.643 148.771C195.643 149.787 195.284 150.696 194.707 151.254C194.517 151.439 194.303 151.581 194.073 151.673V146.736C194.073 146.42 193.818 146.164 193.504 146.164C193.19 146.164 192.936 146.42 192.936 146.736V151.673C192.705 151.581 192.492 151.439 192.301 151.254H192.308ZM181.471 146.589C181.471 145.612 181.704 144.708 182.104 143.969C182.533 143.177 182.71 142.193 182.589 141.231C182.589 141.231 182.589 141.231 182.589 141.229C182.567 141.068 182.557 140.903 182.557 140.735C182.557 139.736 182.909 138.845 183.475 138.298C183.807 137.975 184.212 137.776 184.655 137.776C185.097 137.776 185.503 137.975 185.834 138.298C186.398 138.847 186.753 139.736 186.753 140.735C186.753 140.905 186.742 141.072 186.723 141.233C186.603 142.191 186.778 143.177 187.208 143.967C187.605 144.706 187.838 145.61 187.838 146.587C187.838 148.72 186.742 150.545 185.223 150.915V143.765C185.223 143.45 184.969 143.194 184.655 143.194C184.341 143.194 184.086 143.45 184.086 143.765V150.915C182.569 150.545 181.471 148.72 181.471 146.587V146.589ZM202.11 131.342L208.967 134.194C209.178 134.282 209.317 134.49 209.317 134.722V136.811C208.497 136.47 207.772 136.169 207.336 135.987C206.92 135.813 206.45 135.813 206.033 135.987C205.268 136.305 203.617 136.992 202.11 137.619V131.342ZM213.539 153.284C213.539 153.599 213.285 153.855 212.97 153.855H199.829V140.185C199.829 139.953 199.967 139.747 200.179 139.657L201.758 139C201.758 139 201.762 139 201.766 138.996L206.467 137.041C206.606 136.983 206.762 136.983 206.901 137.041C207.471 137.277 208.533 137.72 209.661 138.19C209.661 138.19 209.665 138.19 209.667 138.192C210.979 138.738 212.377 139.32 213.188 139.657C213.4 139.745 213.539 139.953 213.539 140.185V153.284Z" fill="#3A3A3A"/>
<path fill-rule="evenodd" clip-rule="evenodd" d="M204.743 140.81H203.124C202.773 140.81 202.436 140.95 202.186 141.201C201.938 141.45 201.797 141.79 201.797 142.144V144.038C201.797 144.393 201.936 144.73 202.186 144.981C202.434 145.23 202.771 145.372 203.124 145.372H204.743C205.094 145.372 205.431 145.232 205.681 144.981C205.929 144.732 206.07 144.393 206.07 144.038V142.144C206.07 141.79 205.931 141.452 205.681 141.201C205.433 140.952 205.096 140.81 204.743 140.81ZM204.933 144.036C204.933 144.088 204.914 144.135 204.878 144.171C204.841 144.208 204.794 144.227 204.743 144.227H203.124C203.072 144.227 203.025 144.208 202.989 144.171C202.955 144.135 202.934 144.088 202.934 144.036V142.142C202.934 142.09 202.953 142.043 202.989 142.007C203.025 141.97 203.072 141.951 203.124 141.951H204.743C204.792 141.951 204.841 141.97 204.878 142.007C204.914 142.043 204.933 142.09 204.933 142.142V144.036Z" fill="#3A3A3A"/>
<path fill-rule="evenodd" clip-rule="evenodd" d="M204.743 147.221H203.124C202.773 147.221 202.436 147.36 202.186 147.612C201.938 147.861 201.797 148.2 201.797 148.554V150.449C201.797 150.801 201.936 151.14 202.186 151.391C202.434 151.64 202.771 151.782 203.124 151.782H204.743C205.094 151.782 205.431 151.643 205.681 151.391C205.929 151.142 206.07 150.803 206.07 150.449V148.554C206.07 148.2 205.931 147.863 205.681 147.612C205.433 147.362 205.096 147.221 204.743 147.221ZM204.933 150.449C204.933 150.498 204.914 150.547 204.878 150.584C204.841 150.62 204.794 150.64 204.743 150.64H203.124C203.072 150.64 203.025 150.62 202.989 150.584C202.955 150.547 202.934 150.5 202.934 150.449V148.554C202.934 148.503 202.953 148.456 202.989 148.419C203.025 148.383 203.072 148.363 203.124 148.363H204.743C204.792 148.363 204.841 148.383 204.878 148.419C204.914 148.456 204.933 148.503 204.933 148.554V150.449Z" fill="#3A3A3A"/>
<path fill-rule="evenodd" clip-rule="evenodd" d="M210.243 140.81H208.624C208.271 140.81 207.936 140.95 207.686 141.201C207.438 141.45 207.297 141.79 207.297 142.144V144.038C207.297 144.393 207.436 144.73 207.686 144.981C207.934 145.23 208.271 145.372 208.624 145.372H210.243C210.594 145.372 210.931 145.232 211.181 144.981C211.429 144.732 211.57 144.393 211.57 144.038V142.144C211.57 141.79 211.431 141.452 211.181 141.201C210.933 140.952 210.596 140.81 210.243 140.81ZM210.433 144.036C210.433 144.088 210.414 144.135 210.378 144.171C210.341 144.208 210.294 144.227 210.243 144.227H208.624C208.572 144.227 208.525 144.208 208.489 144.171C208.453 144.135 208.434 144.088 208.434 144.036V142.142C208.434 142.09 208.453 142.043 208.489 142.007C208.525 141.97 208.572 141.951 208.624 141.951H210.243C210.294 141.951 210.341 141.97 210.378 142.007C210.412 142.043 210.433 142.09 210.433 142.142V144.036Z" fill="#3A3A3A"/>
<path fill-rule="evenodd" clip-rule="evenodd" d="M210.243 147.221H208.624C208.271 147.221 207.936 147.36 207.686 147.612C207.438 147.861 207.297 148.2 207.297 148.554V150.449C207.297 150.801 207.436 151.14 207.686 151.391C207.934 151.64 208.271 151.782 208.624 151.782H210.243C210.594 151.782 210.931 151.643 211.181 151.391C211.429 151.142 211.57 150.803 211.57 150.449V148.554C211.57 148.2 211.431 147.863 211.181 147.612C210.933 147.362 210.596 147.221 210.243 147.221ZM210.433 150.449C210.433 150.498 210.414 150.547 210.378 150.584C210.341 150.62 210.294 150.64 210.243 150.64H208.624C208.572 150.64 208.525 150.62 208.489 150.584C208.453 150.547 208.434 150.5 208.434 150.449V148.554C208.434 148.503 208.453 148.456 208.489 148.419C208.525 148.383 208.572 148.363 208.624 148.363H210.243C210.294 148.363 210.341 148.383 210.378 148.419C210.412 148.456 210.433 148.503 210.433 148.554V150.449Z" fill="#3A3A3A"/>
</g>
<path d="M121.04 51L126.34 37H130.06L135.36 51H132.34L131 47.36H125.4L124.06 51H121.04ZM126.28 44.94H130.12L128.2 39.68L126.28 44.94ZM139.068 39.16C138.168 39.16 137.408 38.4 137.408 37.5C137.408 36.6 138.168 35.84 139.068 35.84C139.968 35.84 140.708 36.6 140.708 37.5C140.708 38.4 139.968 39.16 139.068 39.16ZM137.788 51V40.92H140.328V51H137.788ZM142.654 45.96C142.654 43.02 144.594 40.52 147.774 40.52C149.134 40.52 150.114 40.94 150.894 41.72V36H153.454V51H150.894V50.2C150.114 50.98 149.134 51.4 147.774 51.4C144.594 51.4 142.654 48.9 142.654 45.96ZM145.314 45.96C145.314 47.72 146.414 49 148.134 49C149.274 49 150.214 48.52 150.894 47.6V44.32C150.214 43.4 149.274 42.92 148.134 42.92C146.414 42.92 145.314 44.2 145.314 45.96ZM165.779 49.36C164.839 50.62 163.279 51.4 161.379 51.4C157.799 51.4 155.779 48.9 155.779 45.96C155.779 42.98 157.659 40.52 160.959 40.52C163.759 40.52 165.599 42.42 165.599 45.06C165.599 45.62 165.519 46.14 165.439 46.48H158.379C158.619 48.36 159.779 49.12 161.359 49.12C162.459 49.12 163.419 48.64 163.959 47.92L165.779 49.36ZM160.899 42.6C159.599 42.6 158.739 43.32 158.459 44.64H163.099C163.059 43.62 162.319 42.6 160.899 42.6ZM176.251 39.32L173.851 36H176.611L178.671 39.32H176.251ZM176.311 51.3C174.291 51.3 172.911 50.14 172.911 48.28C172.911 46.76 174.091 45.62 176.251 45.26L179.331 44.74V44.48C179.331 43.42 178.531 42.74 177.371 42.74C176.391 42.74 175.631 43.2 175.091 43.94L173.231 42.52C174.131 41.28 175.611 40.52 177.451 40.52C180.371 40.52 181.871 42.26 181.871 44.48V51H179.331V50.02C178.691 50.8 177.491 51.3 176.311 51.3ZM175.431 48.16C175.431 48.84 175.971 49.28 176.831 49.28C177.991 49.28 178.831 48.74 179.331 47.94V46.52L176.931 46.92C175.871 47.1 175.431 47.54 175.431 48.16ZM101.997 75V60H104.537V75H101.997ZM110.423 75.3C108.403 75.3 107.023 74.14 107.023 72.28C107.023 70.76 108.203 69.62 110.363 69.26L113.443 68.74V68.48C113.443 67.42 112.643 66.74 111.483 66.74C110.503 66.74 109.743 67.2 109.203 67.94L107.343 66.52C108.243 65.28 109.723 64.52 111.563 64.52C114.483 64.52 115.983 66.26 115.983 68.48V75H113.443V74.02C112.803 74.8 111.603 75.3 110.423 75.3ZM109.543 72.16C109.543 72.84 110.083 73.28 110.943 73.28C112.103 73.28 112.943 72.74 113.443 71.94V70.52L111.043 70.92C109.983 71.1 109.543 71.54 109.543 72.16ZM123.562 69.96C123.562 67.02 125.502 64.52 128.682 64.52C130.042 64.52 131.022 64.94 131.802 65.72V60H134.362V75H131.802V74.2C131.022 74.98 130.042 75.4 128.682 75.4C125.502 75.4 123.562 72.9 123.562 69.96ZM126.222 69.96C126.222 71.72 127.322 73 129.042 73C130.182 73 131.122 72.52 131.802 71.6V68.32C131.122 67.4 130.182 66.92 129.042 66.92C127.322 66.92 126.222 68.2 126.222 69.96ZM143.267 63.32H140.827L142.907 60H145.667L143.267 63.32ZM146.687 73.36C145.747 74.62 144.187 75.4 142.287 75.4C138.707 75.4 136.687 72.9 136.687 69.96C136.687 66.98 138.567 64.52 141.867 64.52C144.667 64.52 146.507 66.42 146.507 69.06C146.507 69.62 146.427 70.14 146.347 70.48H139.287C139.527 72.36 140.687 73.12 142.267 73.12C143.367 73.12 144.327 72.64 144.867 71.92L146.687 73.36ZM141.807 66.6C140.507 66.6 139.647 67.32 139.367 68.64H144.007C143.967 67.62 143.227 66.6 141.807 66.6ZM153.751 73C154.751 73 155.551 72.54 156.031 71.84L158.011 73.36C157.071 74.6 155.591 75.4 153.751 75.4C150.271 75.4 148.191 72.9 148.191 69.96C148.191 67.02 150.271 64.52 153.751 64.52C155.591 64.52 157.071 65.32 158.011 66.56L156.031 68.08C155.551 67.38 154.751 66.92 153.711 66.92C152.051 66.92 150.831 68.2 150.831 69.96C150.831 71.74 152.051 73 153.751 73ZM161.187 63.16C160.287 63.16 159.527 62.4 159.527 61.5C159.527 60.6 160.287 59.84 161.187 59.84C162.087 59.84 162.827 60.6 162.827 61.5C162.827 62.4 162.087 63.16 161.187 63.16ZM159.907 75V64.92H162.447V75H159.907ZM164.476 73.54L166.156 72.02C166.776 72.8 167.516 73.36 168.476 73.36C169.296 73.36 169.716 72.88 169.716 72.28C169.716 70.52 164.896 71.18 164.896 67.64C164.896 65.86 166.396 64.52 168.496 64.52C170.036 64.52 171.436 65.26 172.156 66.24L170.476 67.72C169.956 67.08 169.296 66.56 168.516 66.56C167.716 66.56 167.336 67 167.336 67.52C167.336 69.24 172.156 68.64 172.156 72.12C172.116 74.24 170.416 75.4 168.516 75.4C166.716 75.4 165.436 74.68 164.476 73.54ZM175.777 63.16C174.877 63.16 174.117 62.4 174.117 61.5C174.117 60.6 174.877 59.84 175.777 59.84C176.677 59.84 177.417 60.6 177.417 61.5C177.417 62.4 176.677 63.16 175.777 63.16ZM174.497 75V64.92H177.037V75H174.497ZM184.883 64.52C188.163 64.52 190.403 66.94 190.403 69.96C190.403 72.98 188.163 75.4 184.883 75.4C181.603 75.4 179.363 72.98 179.363 69.96C179.363 66.94 181.603 64.52 184.883 64.52ZM184.923 73C186.543 73 187.763 71.7 187.763 69.96C187.763 68.2 186.543 66.92 184.923 66.92C183.243 66.92 182.003 68.2 182.003 69.96C182.003 71.72 183.243 73 184.923 73ZM192.719 75V64.92H195.259V65.72C195.959 65.04 196.899 64.52 198.239 64.52C200.419 64.52 202.159 66.02 202.159 69V75H199.599V69.1C199.599 67.76 198.839 66.92 197.599 66.92C196.319 66.92 195.639 67.78 195.259 68.42V75H192.719Z" fill="#000091"/>
</g>
<rect x="0.5" y="0.5" width="304" height="288" rx="11.5" stroke="#DCDCFC"/>
<defs>
<filter id="filter0_d_1227_88644" x="105.864" y="180.864" width="96.3222" height="96.3239" filterUnits="userSpaceOnUse" color-interpolation-filters="sRGB">
<feFlood flood-opacity="0" result="BackgroundImageFix"/>
<feColorMatrix in="SourceAlpha" type="matrix" values="0 0 0 0 0 0 0 0 0 0 0 0 0 0 0 0 0 0 127 0" result="hardAlpha"/>
<feOffset/>
<feGaussianBlur stdDeviation="5.56786"/>
<feComposite in2="hardAlpha" operator="out"/>
<feColorMatrix type="matrix" values="0 0 0 0 0 0 0 0 0 0 0 0 0 0 0.568627 0 0 0 0.2 0"/>
<feBlend mode="normal" in2="BackgroundImageFix" result="effect1_dropShadow_1227_88644"/>
<feBlend mode="normal" in="SourceGraphic" in2="effect1_dropShadow_1227_88644" result="shape"/>
</filter>
<filter id="filter1_d_1227_88644" x="18.8643" y="180.864" width="96.3222" height="96.3239" filterUnits="userSpaceOnUse" color-interpolation-filters="sRGB">
<feFlood flood-opacity="0" result="BackgroundImageFix"/>
<feColorMatrix in="SourceAlpha" type="matrix" values="0 0 0 0 0 0 0 0 0 0 0 0 0 0 0 0 0 0 127 0" result="hardAlpha"/>
<feOffset/>
<feGaussianBlur stdDeviation="5.56786"/>
<feComposite in2="hardAlpha" operator="out"/>
<feColorMatrix type="matrix" values="0 0 0 0 0 0 0 0 0 0 0 0 0 0 0.568627 0 0 0 0.2 0"/>
<feBlend mode="normal" in2="BackgroundImageFix" result="effect1_dropShadow_1227_88644"/>
<feBlend mode="normal" in="SourceGraphic" in2="effect1_dropShadow_1227_88644" result="shape"/>
</filter>
<filter id="filter2_d_1227_88644" x="233.864" y="94.8643" width="96.3222" height="96.3239" filterUnits="userSpaceOnUse" color-interpolation-filters="sRGB">
<feFlood flood-opacity="0" result="BackgroundImageFix"/>
<feColorMatrix in="SourceAlpha" type="matrix" values="0 0 0 0 0 0 0 0 0 0 0 0 0 0 0 0 0 0 127 0" result="hardAlpha"/>
<feOffset/>
<feGaussianBlur stdDeviation="5.56786"/>
<feComposite in2="hardAlpha" operator="out"/>
<feColorMatrix type="matrix" values="0 0 0 0 0 0 0 0 0 0 0 0 0 0 0.568627 0 0 0 0.2 0"/>
<feBlend mode="normal" in2="BackgroundImageFix" result="effect1_dropShadow_1227_88644"/>
<feBlend mode="normal" in="SourceGraphic" in2="effect1_dropShadow_1227_88644" result="shape"/>
</filter>
<filter id="filter3_d_1227_88644" x="191.864" y="180.864" width="96.3222" height="96.3239" filterUnits="userSpaceOnUse" color-interpolation-filters="sRGB">
<feFlood flood-opacity="0" result="BackgroundImageFix"/>
<feColorMatrix in="SourceAlpha" type="matrix" values="0 0 0 0 0 0 0 0 0 0 0 0 0 0 0 0 0 0 127 0" result="hardAlpha"/>
<feOffset/>
<feGaussianBlur stdDeviation="5.56786"/>
<feComposite in2="hardAlpha" operator="out"/>
<feColorMatrix type="matrix" values="0 0 0 0 0 0 0 0 0 0 0 0 0 0 0.568627 0 0 0 0.2 0"/>
<feBlend mode="normal" in2="BackgroundImageFix" result="effect1_dropShadow_1227_88644"/>
<feBlend mode="normal" in="SourceGraphic" in2="effect1_dropShadow_1227_88644" result="shape"/>
</filter>
<filter id="filter4_d_1227_88644" x="-24.1357" y="94.8643" width="96.3222" height="96.3239" filterUnits="userSpaceOnUse" color-interpolation-filters="sRGB">
<feFlood flood-opacity="0" result="BackgroundImageFix"/>
<feColorMatrix in="SourceAlpha" type="matrix" values="0 0 0 0 0 0 0 0 0 0 0 0 0 0 0 0 0 0 127 0" result="hardAlpha"/>
<feOffset/>
<feGaussianBlur stdDeviation="5.56786"/>
<feComposite in2="hardAlpha" operator="out"/>
<feColorMatrix type="matrix" values="0 0 0 0 0 0 0 0 0 0 0 0 0 0 0.568627 0 0 0 0.2 0"/>
<feBlend mode="normal" in2="BackgroundImageFix" result="effect1_dropShadow_1227_88644"/>
<feBlend mode="normal" in="SourceGraphic" in2="effect1_dropShadow_1227_88644" result="shape"/>
</filter>
<filter id="filter5_d_1227_88644" x="61.8643" y="94.8643" width="96.3222" height="96.3239" filterUnits="userSpaceOnUse" color-interpolation-filters="sRGB">
<feFlood flood-opacity="0" result="BackgroundImageFix"/>
<feColorMatrix in="SourceAlpha" type="matrix" values="0 0 0 0 0 0 0 0 0 0 0 0 0 0 0 0 0 0 127 0" result="hardAlpha"/>
<feOffset/>
<feGaussianBlur stdDeviation="5.56786"/>
<feComposite in2="hardAlpha" operator="out"/>
<feColorMatrix type="matrix" values="0 0 0 0 0 0 0 0 0 0 0 0 0 0 0.568627 0 0 0 0.2 0"/>
<feBlend mode="normal" in2="BackgroundImageFix" result="effect1_dropShadow_1227_88644"/>
<feBlend mode="normal" in="SourceGraphic" in2="effect1_dropShadow_1227_88644" result="shape"/>
</filter>
<filter id="filter6_d_1227_88644" x="147.864" y="94.8643" width="96.3222" height="96.3239" filterUnits="userSpaceOnUse" color-interpolation-filters="sRGB">
<feFlood flood-opacity="0" result="BackgroundImageFix"/>
<feColorMatrix in="SourceAlpha" type="matrix" values="0 0 0 0 0 0 0 0 0 0 0 0 0 0 0 0 0 0 127 0" result="hardAlpha"/>
<feOffset/>
<feGaussianBlur stdDeviation="5.56786"/>
<feComposite in2="hardAlpha" operator="out"/>
<feColorMatrix type="matrix" values="0 0 0 0 0 0 0 0 0 0 0 0 0 0 0.568627 0 0 0 0.2 0"/>
<feBlend mode="normal" in2="BackgroundImageFix" result="effect1_dropShadow_1227_88644"/>
<feBlend mode="normal" in="SourceGraphic" in2="effect1_dropShadow_1227_88644" result="shape"/>
</filter>
<clipPath id="clip0_1227_88644">
<rect width="305" height="289" rx="12" fill="white"/>
</clipPath>
<clipPath id="clip1_1227_88644">
<rect width="36.7479" height="34.5207" fill="white" transform="translate(135.93 208.147)"/>
</clipPath>
<clipPath id="clip2_1227_88644">
<rect width="37.3047" height="33.9639" fill="white" transform="translate(49.4844 210.374)"/>
</clipPath>
<clipPath id="clip3_1227_88644">
<rect width="28.9529" height="33.4072" fill="white" transform="translate(267.27 123.26)"/>
</clipPath>
<clipPath id="clip4_1227_88644">
<rect width="32.8504" height="32.8504" fill="white" transform="translate(222.484 208.147)"/>
</clipPath>
<clipPath id="clip5_1227_88644">
<rect width="35.6343" height="31.7368" fill="white" transform="translate(5.92969 124.374)"/>
</clipPath>
<clipPath id="clip6_1227_88644">
<rect width="31.9121" height="31.9121" fill="white" transform="translate(93.8672 123.183)"/>
</clipPath>
<clipPath id="clip7_1227_88644">
<rect width="36.1911" height="30.0664" fill="white" transform="translate(178.484 124.931)"/>
</clipPath>
</defs>
</svg>
