<svg width="528" height="206" viewBox="0 0 528 206" fill="none" xmlns="http://www.w3.org/2000/svg">
<g clip-path="url(#clip0_1227_88417)">
<rect width="528" height="206" rx="12" fill="white"/>
<g filter="url(#filter0_d_1227_88417)">
<rect x="421" y="-66" width="74.0525" height="74.0525" rx="8.35179" fill="white"/>
</g>
<g filter="url(#filter1_d_1227_88417)">
<rect x="421" y="20.0525" width="74.0525" height="74.0525" rx="8.35179" fill="white"/>
</g>
<path d="M452.079 84.1742V78.7177H453.529C454.628 78.7177 455.307 79.3179 455.307 80.2533C455.307 80.9081 454.971 81.3992 454.387 81.633L456.148 84.1742H455.283L453.701 81.7733C453.646 81.7811 453.584 81.7811 453.529 81.7811H452.812V84.1742H452.079ZM453.561 79.3413H452.812V81.1575H453.561C454.184 81.1575 454.55 80.8223 454.55 80.2377C454.55 79.6843 454.184 79.3413 453.561 79.3413ZM459.6 82.4905V80.2455H460.262V82.4671C460.262 83.6441 459.584 84.3301 458.516 84.3301C457.456 84.3301 456.778 83.6441 456.778 82.4671V80.2455H457.441V82.4905C457.441 83.2622 457.854 83.7065 458.524 83.7065C459.179 83.7065 459.6 83.2622 459.6 82.4905ZM465.06 83.5272C464.694 84.0183 464.109 84.3301 463.377 84.3301C462.051 84.3301 461.233 83.3557 461.233 82.2099C461.233 81.0172 461.997 80.0896 463.213 80.0896C464.281 80.0896 464.975 80.8379 464.975 81.8045C464.975 81.9604 464.951 82.1085 464.928 82.2176H461.911C461.935 83.1608 462.535 83.7299 463.377 83.7299C463.883 83.7299 464.312 83.496 464.569 83.1453L465.06 83.5272ZM463.197 80.6509C462.55 80.6509 462.098 81.0328 461.958 81.711H464.312C464.289 81.1341 463.891 80.6509 463.197 80.6509Z" fill="#161616"/>
<g clip-path="url(#clip1_1227_88417)">
<path d="M458.308 43.2859C457.197 43.2859 456.293 44.1617 456.293 45.2412V47.0462H460.323V45.2412C460.323 44.1641 459.418 43.2859 458.308 43.2859ZM457.367 45.9715V45.2412C457.367 44.756 457.789 44.3606 458.308 44.3606C458.827 44.3606 459.249 44.756 459.249 45.2412V45.9715H457.367Z" fill="#3A3A3A"/>
<path d="M442.949 59.5082C442.949 59.792 443.177 60.02 443.46 60.02C443.771 60.02 444.023 59.7677 444.023 59.4572V55.9225L445.16 56.4757V66.2961L445.189 66.3252L450.143 61.2767H453.118L443.788 72.3926H446.896C447.672 72.3926 448.414 72.0603 448.928 71.478L455.654 62.7153C455.858 62.4848 455.839 62.1331 455.608 61.9269C455.395 61.7376 455.07 61.757 454.881 61.9705L447.638 71.3155H446.242L455.57 60.1996H450.453V58.3218H467.802V60.1996H462.686L471.389 71.3155H469.994L462.339 60.8061C462.131 60.5732 461.774 60.5513 461.539 60.7575C461.331 60.9443 461.311 61.2646 461.498 61.4732L468.59 71.3494C469.177 72.0093 470.016 72.3878 470.901 72.3878H473.84L465.138 61.2743H468.115L473.069 66.3228L473.098 66.3519V56.4757L474.233 55.9225V58.8847C474.233 59.1637 474.458 59.3893 474.737 59.3893C475.05 59.3893 475.305 59.1345 475.305 58.8216V41.5946L477.637 39.5834C477.826 39.4209 477.848 39.1346 477.686 38.943C477.463 38.6834 477.07 38.6543 476.81 38.8775L468.877 45.7188V44.4645L474.138 39.3166C474.33 39.1298 474.335 38.8217 474.145 38.6276C473.918 38.3947 473.547 38.3923 473.316 38.6179L467.805 44.0109V47.2908H465.698V45.6436H464.059V41.7256L460.693 41.8615C459.185 41.1603 457.446 41.1458 455.926 41.8226L452.851 41.728V45.6509H450.456V44.0182L444.891 38.5742C444.687 38.3729 444.358 38.3777 444.159 38.5815C443.945 38.7998 443.948 39.1516 444.168 39.3675L449.379 44.467V45.7212L441.392 38.8362C441.162 38.6373 440.813 38.664 440.614 38.8945C440.427 39.1128 440.451 39.4427 440.669 39.6295L442.949 41.597M470.23 61.905L468.872 60.5222V54.9594H470.23V61.9026V61.905ZM474.23 54.7314L472.021 55.8061V63.727L471.306 62.9967V45.0444L474.23 42.5213V54.7289V54.7314ZM471.869 52.4534L468.874 49.0642V47.1428L470.232 45.9735V53.8871H468.251V53.2903L468.877 49.0642L471.869 52.4534ZM444.023 42.5213L446.95 45.0444V62.9967L446.234 63.727V55.8037L444.023 54.7289V42.5213ZM449.379 60.5198L448.021 61.9026V54.957H449.379V60.5198ZM450.005 53.8847H448.024V45.9711L449.382 47.1404V49.0618L450.007 53.2855V53.8823L450.005 53.8847ZM459.873 57.2495H456.743V51.6212C456.743 50.8037 457.446 50.139 458.309 50.139C458.727 50.139 459.122 50.2966 459.42 50.5829C459.711 50.8643 459.873 51.2306 459.873 51.6212V57.2495ZM467.8 57.2495H460.948V51.6212C460.948 50.9347 460.669 50.2918 460.164 49.8066C459.665 49.3287 459.008 49.0642 458.312 49.0642C456.855 49.0642 455.671 50.2117 455.671 51.6212V57.2495H450.453V54.9594H451.079V53.2879L450.453 49.0618V46.7231H453.923V42.9143L455.914 42.9992C457.434 42.3224 459.173 42.3369 460.681 43.0381L462.982 42.8949V46.7207H464.621V48.368H467.802V49.0594L467.179 53.2855V54.957H467.805V57.2471L467.8 57.2495Z" fill="#3A3A3A"/>
</g>
<g filter="url(#filter2_d_1227_88417)">
<rect x="421" y="106.105" width="74.0525" height="74.0525" rx="8.35179" fill="white"/>
</g>
<path d="M437.676 169.697C438.409 169.697 439.009 169.338 439.375 168.808L439.96 169.26C439.461 169.939 438.658 170.383 437.676 170.383C435.969 170.383 434.808 169.058 434.808 167.499C434.808 165.94 435.969 164.615 437.676 164.615C438.658 164.615 439.461 165.067 439.96 165.737L439.375 166.189C439.009 165.659 438.409 165.3 437.676 165.3C436.445 165.3 435.564 166.283 435.564 167.499C435.564 168.715 436.445 169.697 437.676 169.697ZM442.728 166.142C443.991 166.142 444.856 167.117 444.856 168.263C444.856 169.408 443.991 170.383 442.728 170.383C441.457 170.383 440.6 169.408 440.6 168.263C440.6 167.117 441.457 166.142 442.728 166.142ZM442.736 169.759C443.554 169.759 444.154 169.073 444.154 168.263C444.154 167.444 443.554 166.766 442.736 166.766C441.894 166.766 441.294 167.444 441.294 168.263C441.294 169.081 441.894 169.759 442.736 169.759ZM448.657 168.543V166.298H449.32V168.52C449.32 169.697 448.642 170.383 447.574 170.383C446.513 170.383 445.835 169.697 445.835 168.52V166.298H446.498V168.543C446.498 169.315 446.911 169.759 447.581 169.759C448.236 169.759 448.657 169.315 448.657 168.543ZM450.625 170.227V166.298H451.288V166.789C451.576 166.446 451.935 166.22 452.434 166.22C452.559 166.22 452.676 166.236 452.769 166.267V166.914C452.652 166.883 452.535 166.867 452.379 166.867C451.865 166.867 451.53 167.132 451.288 167.53V170.227H450.625ZM455.489 168.263C455.489 167.117 456.277 166.142 457.508 166.142C458.093 166.142 458.553 166.368 458.904 166.766V164.381H459.566V170.227H458.904V169.759C458.553 170.157 458.093 170.383 457.508 170.383C456.277 170.383 455.489 169.408 455.489 168.263ZM456.191 168.263C456.191 169.097 456.752 169.759 457.586 169.759C458.132 169.759 458.615 169.494 458.904 169.034V167.491C458.6 167.023 458.124 166.766 457.586 166.766C456.752 166.766 456.191 167.429 456.191 168.263ZM461.251 166.859H460.635L461.297 164.77H462.054L461.251 166.859ZM464.595 165.675H463.948L464.759 164.381H465.507L464.595 165.675ZM466.092 169.58C465.725 170.071 465.141 170.383 464.408 170.383C463.083 170.383 462.264 169.408 462.264 168.263C462.264 167.07 463.028 166.142 464.244 166.142C465.312 166.142 466.006 166.891 466.006 167.857C466.006 168.013 465.983 168.161 465.959 168.27H462.943C462.966 169.214 463.566 169.783 464.408 169.783C464.915 169.783 465.343 169.549 465.601 169.198L466.092 169.58ZM464.229 166.704C463.582 166.704 463.13 167.086 462.989 167.764H465.343C465.32 167.187 464.923 166.704 464.229 166.704ZM468.922 169.759C469.405 169.759 469.803 169.525 470.045 169.182L470.567 169.58C470.201 170.071 469.632 170.383 468.914 170.383C467.613 170.383 466.779 169.408 466.779 168.263C466.779 167.117 467.613 166.142 468.914 166.142C469.624 166.142 470.201 166.462 470.567 166.945L470.045 167.343C469.803 167 469.405 166.766 468.914 166.766C468.073 166.766 467.472 167.429 467.472 168.263C467.472 169.104 468.073 169.759 468.922 169.759ZM473.116 166.142C474.379 166.142 475.244 167.117 475.244 168.263C475.244 169.408 474.379 170.383 473.116 170.383C471.846 170.383 470.988 169.408 470.988 168.263C470.988 167.117 471.846 166.142 473.116 166.142ZM473.124 169.759C473.942 169.759 474.543 169.073 474.543 168.263C474.543 167.444 473.942 166.766 473.124 166.766C472.282 166.766 471.682 167.444 471.682 168.263C471.682 169.081 472.282 169.759 473.124 169.759ZM476.309 170.227V164.381H476.972V170.227H476.309ZM481.865 169.58C481.498 170.071 480.914 170.383 480.181 170.383C478.856 170.383 478.037 169.408 478.037 168.263C478.037 167.07 478.801 166.142 480.017 166.142C481.085 166.142 481.779 166.891 481.779 167.857C481.779 168.013 481.755 168.161 481.732 168.27H478.715C478.739 169.214 479.339 169.783 480.181 169.783C480.687 169.783 481.116 169.549 481.373 169.198L481.865 169.58ZM480.002 166.704C479.355 166.704 478.902 167.086 478.762 167.764H481.116C481.093 167.187 480.695 166.704 480.002 166.704Z" fill="#161616"/>
<g clip-path="url(#clip2_1227_88417)">
<path d="M463.821 132.687C463.821 130.658 462.136 129.048 460.147 129.048C458.158 129.048 456.473 130.717 456.473 132.687C456.473 134.657 458.098 136.327 460.147 136.327C462.196 136.327 463.821 134.657 463.821 132.687ZM457.678 132.628C457.678 131.316 458.76 130.182 460.147 130.182C461.534 130.182 462.616 131.316 462.616 132.628C462.616 133.94 461.471 135.074 460.147 135.074C458.823 135.074 457.678 133.94 457.678 132.628Z" fill="#3A3A3A"/>
<path d="M459.99 132.842C460.07 132.842 460.147 132.781 460.147 132.687C460.147 132.593 460.085 132.532 459.99 132.532H458.751C458.656 132.532 458.594 132.593 458.594 132.687C458.594 132.781 458.656 132.842 458.751 132.842" fill="#3A3A3A"/>
<path d="M459.988 132.687C459.988 132.766 460.051 132.842 460.145 132.842C460.24 132.842 460.302 132.781 460.302 132.687V130.966C460.302 130.872 460.24 130.811 460.145 130.811C460.051 130.811 459.988 130.872 459.988 130.966" fill="#3A3A3A"/>
<path d="M475.237 140.245C474.259 138.603 472.929 137.7 471.493 137.7C470.056 137.7 468.727 138.605 467.749 140.245C466.823 141.806 466.312 143.862 466.312 146.039C466.312 148.217 466.813 149.735 467.838 150.7C468.595 151.41 469.618 151.792 470.968 151.871V156.243C470.968 156.386 471.022 156.519 471.124 156.617C471.226 156.716 471.361 156.773 471.503 156.773C471.789 156.773 472.023 156.541 472.023 156.257V151.868C473.37 151.789 474.395 151.407 475.152 150.697C476.18 149.731 476.678 148.207 476.678 146.037C476.678 143.867 476.168 141.798 475.242 140.242L475.237 140.245ZM472.023 146.286L473.571 144.75C473.776 144.543 473.776 144.222 473.571 144.012C473.362 143.81 473.039 143.81 472.83 144.012L472.026 144.809V143.09C472.023 142.802 471.784 142.57 471.498 142.57H471.47L471.446 142.582C471.182 142.701 470.973 143.016 470.973 143.305V147.334L469.442 145.815C469.345 145.716 469.213 145.662 469.073 145.66C468.934 145.66 468.799 145.714 468.702 145.812C468.603 145.909 468.548 146.039 468.545 146.177C468.545 146.318 468.6 146.449 468.7 146.55L470.975 148.806V150.83C469.875 150.766 469.093 150.473 468.526 149.908C467.749 149.139 467.37 147.871 467.37 146.034C467.37 144.037 467.829 142.166 468.662 140.767C469.442 139.456 470.45 138.731 471.5 138.731C472.551 138.731 473.559 139.453 474.341 140.767C475.175 142.166 475.633 144.037 475.633 146.034C475.633 147.871 475.254 149.139 474.478 149.908C473.91 150.47 473.128 150.766 472.028 150.83V146.286H472.023Z" fill="#3A3A3A"/>
<path d="M468.134 149.678H464.365V144.37C464.365 142.104 462.498 140.193 460.148 140.193C457.798 140.193 455.931 142.042 455.931 144.37V149.678H451.002V148.184C452.952 147.962 454.47 146.32 454.47 144.33C454.47 142.187 452.715 140.449 450.552 140.449C449.611 140.449 448.744 140.78 448.07 141.329C447.599 139.576 445.986 138.284 444.069 138.284C441.784 138.284 439.93 140.121 439.93 142.385C439.93 144.495 441.545 146.236 443.619 146.461V152.021C443.619 152.268 443.821 152.467 444.069 152.467C444.318 152.467 444.52 152.268 444.52 152.021V146.461C446.569 146.239 448.172 144.535 448.207 142.456C448.759 141.778 449.603 141.344 450.552 141.344C452.215 141.344 453.566 142.683 453.566 144.33C453.566 145.827 452.454 147.067 451.002 147.282V145.556L452.386 144.185C452.563 144.01 452.563 143.726 452.386 143.551C452.21 143.376 451.923 143.376 451.747 143.551L451 144.291V143.028C451 142.782 450.798 142.582 450.549 142.582C450.3 142.582 450.099 142.782 450.099 143.028V144.291L449.352 143.551C449.175 143.376 448.889 143.376 448.712 143.551C448.535 143.726 448.535 144.01 448.712 144.185L450.096 145.556V147.282C449.287 147.161 448.58 146.722 448.117 146.096C447.97 145.896 447.687 145.854 447.485 146C447.283 146.145 447.241 146.426 447.388 146.626C448.018 147.474 448.986 148.061 450.096 148.187V152.021C450.096 152.268 450.298 152.467 450.547 152.467C450.796 152.467 450.997 152.268 450.997 152.021V150.872H456.529C456.89 150.872 457.131 150.633 457.131 150.275V144.37C457.131 142.7 458.455 141.386 460.143 141.386C461.831 141.386 463.155 142.698 463.155 144.37V150.275C463.155 150.633 463.397 150.872 463.758 150.872H468.132V149.678H468.134ZM444.52 145.558V144.096L445.8 142.829C445.976 142.654 445.976 142.37 445.8 142.195C445.623 142.02 445.337 142.02 445.16 142.195L444.518 142.831V140.752C444.518 140.506 444.316 140.306 444.067 140.306C443.818 140.306 443.616 140.506 443.616 140.752V142.247L443.031 141.667C442.855 141.492 442.568 141.492 442.392 141.667C442.215 141.842 442.215 142.126 442.392 142.301L443.616 143.514V145.561C442.043 145.344 440.831 144.005 440.831 142.387C440.831 140.617 442.282 139.182 444.067 139.182C445.852 139.182 447.303 140.619 447.303 142.387C447.303 144.005 446.091 145.344 444.518 145.561L444.52 145.558Z" fill="#3A3A3A"/>
<path d="M469.002 134.766H470.989V136.958C471.21 136.913 471.434 136.891 471.661 136.891C471.84 136.891 472.017 136.906 472.194 136.933V134.768H474.001C474.183 134.768 474.362 134.65 474.484 134.529C474.603 134.349 474.603 134.171 474.543 133.991L472.134 128.027C472.074 127.728 471.833 127.61 471.591 127.61H464.666L460.63 122.476C460.389 122.178 459.909 122.178 459.667 122.476L455.632 127.608H448.706C448.465 127.608 448.224 127.726 448.164 127.965L445.754 133.93C445.694 134.11 445.694 134.347 445.814 134.467C445.933 134.647 446.115 134.766 446.297 134.766H448.104V140.227C448.47 139.998 448.876 139.828 449.309 139.729V134.763H451.236C451.355 134.763 451.477 134.763 451.597 134.645L451.778 134.465L460.148 123.788L468.579 134.527C468.698 134.645 468.82 134.707 469 134.766H469.002ZM450.994 133.572H447.2L449.127 128.799H454.728L450.994 133.572ZM471.17 128.799L473.097 133.572H469.303L465.569 128.799H471.17Z" fill="#3A3A3A"/>
<path d="M456.76 138.898L457.627 138.423L457.783 138.701L457.253 138.992L457.363 139.189L457.813 138.943L457.97 139.221L457.52 139.468L457.647 139.692L458.194 139.392L458.351 139.67L457.465 140.156L456.758 138.894L456.76 138.898ZM456.875 138.556L457.074 138.08L457.37 138.196L457.116 138.64L456.875 138.553V138.556Z" fill="#1D1D1B"/>
<path d="M458.329 138.918C458.207 138.45 458.446 138.104 458.827 138.008C459.009 137.961 459.183 138.008 459.307 138.077L459.163 138.356C459.083 138.316 459.006 138.299 458.909 138.324C458.735 138.368 458.64 138.553 458.705 138.807C458.772 139.068 458.946 139.182 459.135 139.133C459.228 139.11 459.292 139.041 459.337 138.962L459.599 139.135C459.516 139.303 459.369 139.414 459.18 139.463C458.829 139.552 458.451 139.396 458.326 138.92L458.329 138.918Z" fill="#1D1D1B"/>
<path d="M459.707 138.575C459.715 138.087 459.961 137.838 460.317 137.843C460.673 137.848 460.91 138.107 460.9 138.595C460.892 139.095 460.646 139.344 460.29 139.34C459.936 139.335 459.697 139.076 459.707 138.575ZM460.506 138.588C460.511 138.311 460.437 138.173 460.312 138.171C460.188 138.171 460.108 138.304 460.103 138.58C460.098 138.869 460.173 139.007 460.297 139.009C460.422 139.009 460.501 138.876 460.506 138.588Z" fill="#1D1D1B"/>
<path d="M461.462 137.961L461.836 138.057L461.549 139.145L462.149 139.3L462.067 139.608L461.094 139.357L461.462 137.961Z" fill="#1D1D1B"/>
<path d="M462.983 138.44L463.847 138.918L463.69 139.197L463.162 138.903L463.05 139.101L463.501 139.35L463.344 139.628L462.893 139.379L462.766 139.604L463.314 139.907L463.157 140.186L462.273 139.695L462.985 138.435L462.983 138.44Z" fill="#1D1D1B"/>
</g>
<g filter="url(#filter3_d_1227_88417)">
<rect x="421" y="192.158" width="74.0525" height="74.0525" rx="8.35179" fill="white"/>
</g>
<g filter="url(#filter4_d_1227_88417)">
<rect x="332" y="-11" width="74.0525" height="74.0525" rx="8.35179" fill="white"/>
</g>
<path d="M360.343 53.1216V47.6651H361.941C363.032 47.6651 363.71 48.2653 363.71 49.2007C363.71 50.1361 363.032 50.7285 361.941 50.7285H361.076V53.1216H360.343ZM361.956 48.2887H361.076V50.1049H361.956C362.58 50.1049 362.954 49.7697 362.954 49.1851C362.954 48.6317 362.58 48.2887 361.956 48.2887ZM364.655 53.1216V47.2753H365.318V53.1216H364.655ZM367.786 53.2307C367.014 53.2307 366.492 52.802 366.492 52.1316C366.492 51.5392 366.944 51.1183 367.778 50.978L369.103 50.7597V50.4869C369.103 49.9412 368.714 49.6294 368.152 49.6294C367.7 49.6294 367.334 49.8399 367.092 50.1751L366.593 49.7931C366.936 49.3254 367.49 49.037 368.176 49.037C369.174 49.037 369.766 49.6216 369.766 50.4869V53.1216H369.103V52.6227C368.807 53.0047 368.293 53.2307 367.786 53.2307ZM367.162 52.1082C367.162 52.4434 367.435 52.6851 367.895 52.6851C368.417 52.6851 368.846 52.4356 369.103 52.0147V51.243L367.942 51.4379C367.404 51.5314 367.162 51.773 367.162 52.1082ZM372.904 52.6539C373.387 52.6539 373.784 52.42 374.026 52.0771L374.548 52.4746C374.182 52.9657 373.613 53.2775 372.896 53.2775C371.594 53.2775 370.76 52.3031 370.76 51.1572C370.76 50.0114 371.594 49.037 372.896 49.037C373.605 49.037 374.182 49.3566 374.548 49.8399L374.026 50.2374C373.784 49.8944 373.387 49.6606 372.896 49.6606C372.054 49.6606 371.454 50.3232 371.454 51.1572C371.454 51.9991 372.054 52.6539 372.904 52.6539ZM378.797 52.4746C378.431 52.9657 377.846 53.2775 377.113 53.2775C375.788 53.2775 374.97 52.3031 374.97 51.1572C374.97 49.9646 375.734 49.037 376.95 49.037C378.017 49.037 378.711 49.7853 378.711 50.7519C378.711 50.9078 378.688 51.0559 378.664 51.165H375.648C375.671 52.1082 376.271 52.6773 377.113 52.6773C377.62 52.6773 378.049 52.4434 378.306 52.0926L378.797 52.4746ZM376.934 49.5982C376.287 49.5982 375.835 49.9802 375.695 50.6584H378.049C378.025 50.0815 377.628 49.5982 376.934 49.5982Z" fill="#161616"/>
<g clip-path="url(#clip3_1227_88417)">
<path d="M355.661 22.854C354.892 22.854 354.27 23.4768 354.27 24.2476V25.1281H354.281C354.362 27.4475 355.266 29.6404 356.844 31.337C358.421 33.0336 360.542 34.0931 362.842 34.3389C362.845 34.3389 362.847 34.3413 362.847 34.3461V38.3716C362.847 39.0875 363.426 39.6697 364.144 39.6697H373.391C374.085 39.6697 374.645 39.1066 374.645 38.4146V34.3485C374.645 34.3485 374.647 34.3413 374.65 34.3413C376.952 34.0931 379.073 33.036 380.651 31.3394C382.307 29.5593 383.218 27.2327 383.218 24.7845V24.1831C383.218 23.4506 382.624 22.8564 381.892 22.8564H355.661V22.854ZM373.363 33.7424V38.3692C373.363 38.3692 373.36 38.3764 373.355 38.3764H364.148C364.148 38.3764 364.141 38.374 364.141 38.3692V33.7424C364.141 33.3963 363.867 33.11 363.522 33.0957C359.06 32.9048 355.566 29.2539 355.566 24.7845V24.1569C355.566 24.1569 355.568 24.1497 355.573 24.1497H381.928C381.928 24.1497 381.935 24.1521 381.935 24.1569V24.7868C381.935 29.2515 378.441 32.9024 373.98 33.0981C373.634 33.1124 373.36 33.3963 373.36 33.7447L373.363 33.7424Z" fill="#3A3A3A"/>
<path d="M362.383 14.0058C362.383 12.8986 363.332 12.0109 364.459 12.1135C365.446 12.2042 366.18 13.0751 366.18 14.0678V20.7397C366.18 21.1191 366.487 21.4269 366.866 21.4269C367.2 21.4269 367.472 21.1549 367.472 20.8208V14.0917C367.472 12.3593 366.13 10.8774 364.399 10.8154C362.669 10.7534 361.094 12.2066 361.094 14.0058C361.094 14.1967 361.249 14.3518 361.439 14.3518H362.04C362.231 14.3518 362.386 14.1967 362.386 14.0058H362.383Z" fill="#3A3A3A"/>
<path d="M364.274 9.45292C364.274 8.34571 365.222 7.45803 366.35 7.56064C367.336 7.65132 368.07 8.52229 368.07 9.51496V16.1797C368.07 16.5639 368.38 16.8741 368.764 16.8741C369.095 16.8741 369.362 16.6068 369.362 16.2751V9.53882C369.362 7.80642 368.018 6.32458 366.29 6.26254C364.562 6.20049 362.984 7.65371 362.984 9.45292C362.984 9.64382 363.139 9.79892 363.33 9.79892H363.931C364.121 9.79892 364.276 9.64382 364.276 9.45292H364.274Z" fill="#3A3A3A"/>
<path d="M371.328 12.7412C371.328 11.634 372.277 10.7464 373.404 10.849C374.391 10.9396 375.125 11.8106 375.125 12.8033C375.125 12.9608 375.251 13.0873 375.409 13.0873H376.157C376.3 13.0873 376.417 12.9703 376.417 12.8272C376.417 11.0948 375.073 9.61291 373.345 9.55087C371.617 9.48882 370.039 10.942 370.039 12.7412V20.8067C370.039 21.1455 370.313 21.42 370.652 21.42C371.026 21.42 371.331 21.1145 371.331 20.7399V12.7412H371.328Z" fill="#3A3A3A"/>
</g>
<g filter="url(#filter5_d_1227_88417)">
<rect x="332" y="75.0525" width="74.0525" height="74.0525" rx="8.35179" fill="white"/>
</g>
<path d="M356.525 139.174V133.718H358.123C359.215 133.718 359.893 134.318 359.893 135.253C359.893 136.189 359.215 136.781 358.123 136.781H357.258V139.174H356.525ZM358.139 134.341H357.258V136.158H358.139C358.762 136.158 359.137 135.822 359.137 135.238C359.137 134.684 358.762 134.341 358.139 134.341ZM361.753 139.283C360.982 139.283 360.459 138.855 360.459 138.184C360.459 137.592 360.911 137.171 361.745 137.031L363.071 136.812V136.54C363.071 135.994 362.681 135.682 362.12 135.682C361.668 135.682 361.301 135.893 361.06 136.228L360.561 135.846C360.904 135.378 361.457 135.09 362.143 135.09C363.141 135.09 363.733 135.674 363.733 136.54V139.174H363.071V138.675C362.774 139.057 362.26 139.283 361.753 139.283ZM361.13 138.161C361.13 138.496 361.402 138.738 361.862 138.738C362.385 138.738 362.813 138.488 363.071 138.067V137.296L361.909 137.491C361.371 137.584 361.13 137.826 361.13 138.161ZM365.062 139.174V135.246H365.725V135.737C366.013 135.394 366.372 135.168 366.871 135.168C366.996 135.168 367.113 135.183 367.206 135.214V135.861C367.089 135.83 366.972 135.815 366.816 135.815C366.302 135.815 365.967 136.08 365.725 136.477V139.174H365.062ZM368.168 139.174V133.328H368.839V137.085L370.686 135.246H371.536L369.891 136.883L371.567 139.174H370.749L369.416 137.35L368.839 137.919V139.174H368.168ZM372.751 134.224C372.494 134.224 372.283 134.014 372.283 133.757C372.283 133.507 372.494 133.297 372.751 133.297C373.008 133.297 373.211 133.507 373.211 133.757C373.211 134.014 373.008 134.224 372.751 134.224ZM372.416 139.174V135.246H373.079V139.174H372.416ZM374.479 139.174V135.246H375.141V135.69C375.461 135.339 375.866 135.09 376.451 135.09C377.332 135.09 377.987 135.682 377.987 136.797V139.174H377.324V136.82C377.324 136.119 376.926 135.713 376.318 135.713C375.749 135.713 375.391 136.041 375.141 136.454V139.174H374.479ZM378.868 139.884C378.868 139.486 379.063 139.167 379.453 138.894C379.274 138.753 379.18 138.543 379.18 138.332C379.18 138.021 379.344 137.763 379.648 137.569C379.305 137.311 379.102 136.914 379.102 136.477C379.102 135.721 379.694 135.082 380.63 135.082C380.918 135.082 381.176 135.144 381.386 135.246H382.844V135.822H381.994C382.103 136.017 382.158 136.243 382.158 136.477C382.158 137.226 381.573 137.865 380.63 137.865C380.435 137.865 380.248 137.834 380.084 137.787C379.921 137.904 379.827 138.044 379.827 138.192C379.827 138.356 379.913 138.473 380.154 138.473H381.277C382.314 138.473 382.797 138.979 382.797 139.681C382.797 140.507 381.971 141.123 380.794 141.123C379.632 141.123 378.868 140.671 378.868 139.884ZM380.638 137.342C381.207 137.342 381.534 136.953 381.534 136.477C381.534 135.994 381.207 135.604 380.638 135.604C380.053 135.604 379.733 135.994 379.733 136.477C379.733 136.961 380.053 137.342 380.638 137.342ZM379.515 139.806C379.515 140.281 380.006 140.57 380.786 140.57C381.612 140.57 382.134 140.242 382.134 139.728C382.134 139.354 381.924 139.057 381.222 139.057H379.952C379.679 139.26 379.515 139.494 379.515 139.806Z" fill="#161616"/>
<g clip-path="url(#clip4_1227_88417)">
<path d="M378.867 93.3882H375.582C375.279 93.3882 375.035 93.6322 375.035 93.9349V102.148H376.131V98.8625H378.869C379.306 98.8625 379.723 98.6888 380.031 98.3814C380.338 98.0741 380.512 97.6564 380.512 97.2199V95.0307C380.512 94.5943 380.338 94.1766 380.031 93.8692C379.723 93.5618 379.306 93.3882 378.869 93.3882H378.867ZM379.414 97.2199C379.414 97.3654 379.355 97.5039 379.254 97.6071C379.153 97.7104 379.012 97.7667 378.867 97.7667H376.129V94.4816H378.867C379.012 94.4816 379.151 94.5403 379.254 94.6412C379.357 94.7421 379.414 94.8829 379.414 95.0284V97.2176V97.2199Z" fill="#3A3A3A"/>
<path d="M382.697 91.1995H372.842C372.405 91.1995 371.988 91.3731 371.68 91.6805C371.373 91.9879 371.199 92.4055 371.199 92.842V102.697C371.199 103.134 371.373 103.551 371.68 103.859C371.988 104.166 372.405 104.34 372.842 104.34H377.223V120.833C376.559 120.99 376 121.436 375.695 122.046L375.09 123.257C375.005 123.426 375.015 123.627 375.113 123.789C375.214 123.951 375.39 124.05 375.58 124.05H379.961C380.151 124.05 380.329 123.954 380.428 123.792C380.529 123.63 380.538 123.428 380.454 123.259L379.848 122.048C379.543 121.436 378.982 120.992 378.318 120.835V104.34H382.699C383.136 104.34 383.553 104.166 383.861 103.859C384.168 103.551 384.342 103.134 384.342 102.697V92.842C384.342 92.4055 384.168 91.9879 383.861 91.6805C383.553 91.3731 383.133 91.1995 382.697 91.1995ZM378.865 122.536L379.074 122.954H376.465L376.673 122.536C376.81 122.264 377.042 122.053 377.326 121.943C377.61 121.832 377.924 121.832 378.208 121.943C378.492 122.053 378.724 122.264 378.86 122.536H378.865ZM383.246 102.697C383.246 102.843 383.187 102.981 383.086 103.084C382.985 103.188 382.845 103.244 382.699 103.244H372.844C372.541 103.244 372.297 103 372.297 102.697V92.842C372.297 92.5393 372.541 92.2953 372.844 92.2953H382.699C382.845 92.2953 382.983 92.3539 383.086 92.4548C383.19 92.5557 383.246 92.6965 383.246 92.842V102.697Z" fill="#3A3A3A"/>
<path d="M364.627 116.384C364.047 116.384 363.489 116.614 363.078 117.024C362.667 117.435 362.438 117.994 362.438 118.573C362.438 119.153 362.667 119.711 363.078 120.122C363.489 120.532 364.047 120.762 364.627 120.762C365.206 120.762 365.765 120.532 366.175 120.122C366.586 119.711 366.816 119.153 366.816 118.573C366.816 117.994 366.586 117.435 366.175 117.024C365.765 116.614 365.206 116.384 364.627 116.384ZM364.627 119.669C364.336 119.669 364.057 119.554 363.852 119.347C363.648 119.141 363.531 118.864 363.531 118.573C363.531 118.282 363.646 118.003 363.852 117.799C364.059 117.595 364.336 117.477 364.627 117.477C364.918 117.477 365.197 117.592 365.401 117.799C365.605 118.005 365.723 118.282 365.723 118.573C365.723 118.864 365.608 119.143 365.401 119.347C365.195 119.552 364.918 119.669 364.627 119.669Z" fill="#3A3A3A"/>
<path d="M375.579 118.575V114.744C375.579 114.019 375.291 113.322 374.777 112.808C374.263 112.294 373.568 112.005 372.841 112.005H367.109L362.538 105.297C362.129 104.698 361.451 104.339 360.729 104.339H352.035C351.732 104.339 351.488 104.584 351.488 104.886V119.122C351.488 119.425 351.732 119.122 352.035 119.122H360.285C360.463 120.544 361.327 121.79 362.599 122.456C363.871 123.121 365.386 123.121 366.656 122.456C367.928 121.792 368.791 120.546 368.969 119.122H375.03C375.176 119.122 375.314 119.063 375.417 118.963C375.521 118.862 375.577 118.721 375.577 118.575H375.579ZM374.383 114.195H372.294V113.099H372.841C373.179 113.099 373.51 113.207 373.784 113.401C374.061 113.599 374.27 113.873 374.383 114.192V114.195ZM360.726 105.435C361.088 105.435 361.428 105.614 361.632 105.914L365.785 112.005H363.214L361.571 110.363L362.28 109.654L361.505 108.88L359.316 111.069L360.09 111.843L360.799 111.135L361.667 112.003H356.418V108.718C356.418 107.993 356.13 107.296 355.616 106.782C355.102 106.268 354.407 105.98 353.68 105.98C353.377 105.98 353.133 106.224 353.133 106.526V112.001H352.586V105.431H360.729L360.726 105.435ZM355.322 112.005H354.227V107.172C354.546 107.284 354.823 107.495 355.02 107.772C355.217 108.049 355.32 108.38 355.322 108.72V112.005ZM364.631 121.86C363.76 121.86 362.925 121.516 362.308 120.898C361.691 120.281 361.346 119.446 361.346 118.575C361.346 117.705 361.691 116.87 362.308 116.252C362.925 115.635 363.76 115.29 364.631 115.29C365.501 115.29 366.337 115.635 366.954 116.252C367.571 116.87 367.916 117.705 367.916 118.575C367.916 119.446 367.569 120.281 366.954 120.898C366.337 121.513 365.504 121.86 364.631 121.86ZM368.974 118.029C368.796 116.607 367.932 115.361 366.66 114.694C365.389 114.03 363.873 114.03 362.603 114.694C361.332 115.358 360.468 116.604 360.29 118.029H352.584V113.101H371.199V114.744C371.199 114.889 371.257 115.028 371.358 115.131C371.459 115.234 371.6 115.29 371.745 115.29H374.484V118.029H368.972H368.974Z" fill="#3A3A3A"/>
<path d="M353.129 113.648H355.318V114.744H353.129V113.648Z" fill="#3A3A3A"/>
<path d="M354.226 124.05H371.198C371.501 124.05 371.745 123.805 371.745 123.503C371.745 123.2 371.501 122.956 371.198 122.956H354.226C353.924 122.956 353.68 123.2 353.68 123.503C353.68 123.805 353.924 124.05 354.226 124.05Z" fill="#3A3A3A"/>
</g>
<g filter="url(#filter6_d_1227_88417)">
<rect x="332" y="161.105" width="74.0525" height="74.0525" rx="8.35179" fill="white"/>
</g>
<g clip-path="url(#clip5_1227_88417)">
<path fill-rule="evenodd" clip-rule="evenodd" d="M383.295 208.303C383.558 208.303 383.917 208.248 384.148 208.339V210.153H383.329C383.229 209.894 383.292 208.675 383.292 208.305L383.295 208.303ZM386.532 205.816C386.532 208.237 386.888 208.303 385.215 208.303V210.15H385.962C386.756 210.15 386.65 211.216 386.069 211.216H351.417C350.836 211.216 350.729 210.15 351.524 210.15H358.391V202.903C358.391 202.747 357.498 202.74 356.829 202.545C352.175 201.178 349.76 196.281 351.49 191.958C352.289 189.959 353.376 189.594 353.376 188.406C353.376 187.218 352.2 185.448 353.508 182.852C356.161 177.575 364.079 178.697 364.912 184.772C365.246 187.207 363.634 188.005 365.107 189.8C366.247 191.188 366.644 192.947 366.753 193.026C367.11 191.503 366.363 192.065 366.469 189.617C366.54 187.989 367.668 186.52 369.007 185.72C372.739 183.485 377.315 186.955 376.505 191.04C376.339 191.877 375.82 192.623 376.58 193.479C377.443 194.452 378.208 196.204 378.208 197.503H382.228C382.228 196.794 382.067 195.869 382.761 195.869C385.492 195.869 385.215 195.585 385.215 197.503C385.753 197.503 386.532 197.376 386.532 198.036V203.898C386.532 204.506 385.594 204.358 385.215 204.358V205.354C385.594 205.354 386.532 205.206 386.532 205.816ZM372.051 208.303H382.225V210.15H372.051V208.303ZM367.818 208.303H370.984V210.15H367.818V208.303ZM365.897 208.303H366.751V210.15H365.897V208.303ZM364.544 206.419H385.462V207.235H364.547V206.419H364.544ZM383.292 204.358H384.146V205.354H383.292V204.358ZM372.051 204.358H382.225V205.354H372.051V204.358ZM367.818 204.358H370.984V205.354H367.818V204.358ZM365.897 204.358C367.001 204.358 366.751 204.22 366.751 205.354H365.897V204.358ZM363.444 205.993C363.444 206.902 363.248 208.085 363.823 208.28C364.109 208.378 364.51 208.228 364.796 208.339V210.153H359.496C359.387 209.869 359.469 204.125 359.457 203.044C359.455 202.751 359.398 202.824 359.959 202.762C361.491 202.597 362.236 202.087 363.446 201.448C363.446 204.284 363.071 204.361 364.799 204.361V205.356C364.059 205.356 363.446 205.238 363.446 205.995L363.444 205.993ZM364.547 201.482H385.465V203.293H364.547V201.482ZM364.547 198.603H385.465V200.414H364.547V198.603ZM383.295 196.932H384.148V197.501H383.295V196.932ZM365.9 196.932H366.753V197.501H365.9V196.932ZM367.536 190.251C367.536 187.83 369.475 186.028 371.488 186.096C374.147 186.184 376.201 188.712 375.331 191.287C374.353 194.184 377.107 194.384 377.107 197.501H372.054C372.054 196.565 371.949 196.878 372.596 196.231C372.821 196.005 373.618 195.288 373.683 195.041C373.79 194.631 373.445 194.375 373.264 194.375C372.598 194.375 372.521 194.914 372.054 195.227V191.496C372.054 191.004 371.999 190.714 371.45 190.714C370.9 190.714 370.987 191.503 370.987 191.779V196.363C370.587 196.095 370.29 195.474 369.847 195.474C369.441 195.474 369.314 195.753 369.314 196.077C369.314 196.429 370.29 197.095 370.56 197.499H367.82C367.82 196.272 368.065 195.864 366.86 195.864C367.019 193.638 366.989 195.091 367.713 193.484C368.31 192.165 367.536 191.475 367.536 190.251ZM363.373 188.227C363.373 190.6 366.09 191.079 365.8 195.626C365.766 196.145 365.373 195.69 365.017 195.982C364.687 196.252 364.794 196.871 364.794 197.501C363.11 197.501 363.441 197.671 363.441 200.094C362.504 200.72 361.991 201.182 360.674 201.522C360.402 201.593 359.789 201.729 359.457 201.729V198.46C359.457 198.102 361.45 196.816 361.45 196.15C361.45 195.907 361.196 195.653 360.953 195.653C360.395 195.653 359.83 196.762 359.46 196.862C359.46 192.575 359.015 194.021 360.84 192.128C361.051 191.911 361.453 191.605 361.453 191.285C361.453 190.877 361.174 190.752 360.849 190.752C360.456 190.752 359.793 191.738 359.462 191.961C359.462 191.314 359.56 186.942 359.414 186.608C359.337 186.434 359.167 186.311 358.929 186.311C358.279 186.311 358.395 187.021 358.395 187.662V193.346C357.78 192.935 357.194 191.707 356.572 192.273C356.055 192.745 356.813 193.28 357.231 193.692L358.191 194.651C358.459 194.919 358.395 194.808 358.395 195.406V198.285C358.057 198.059 357.378 197.041 356.972 197.041C356.674 197.041 356.402 197.283 356.402 197.573C356.402 198.192 358.395 199.5 358.395 199.847V201.731C356.847 201.731 355.045 200.709 353.957 199.625C351.808 197.485 351.349 193.806 353.045 191.235C353.356 190.766 353.83 190.197 353.975 189.961C355.505 187.438 352.793 186.42 354.675 182.95C356.388 179.787 361.208 179.683 363.185 182.952C364.653 185.377 363.378 186.933 363.378 188.231L363.373 188.227Z" fill="#3A3A3A"/>
</g>
<path d="M17.9783 170.428C30.5924 145.912 26.8747 120.256 21.9395 94.9114C19.1725 80.7049 13.4605 67.4582 0 59.2196V78.4804C11.3543 92.9491 12.7185 110.117 12.9929 127.488C13.1823 139.49 9.52246 150.057 0 158.041V187.306C8.45196 184.222 14.1021 177.961 17.9783 170.432V170.428ZM73.4319 112.368C74.0696 127.053 76.9294 141.733 91.5841 149.826C108.345 159.086 124.055 152.089 138.199 143.41C164.409 127.334 189.846 112.098 223.214 125.252C232.257 128.818 243.92 124.689 248.805 114.492C253.01 105.714 248.906 96.839 240.508 93.3809C213.351 82.193 184.648 86.2333 156.429 88.3498C150.682 88.7816 144.646 93.9129 145.774 100.606C146.52 105.035 152.726 104.353 156.371 103.501C176.819 98.7165 197.39 95.7403 218.367 98.944C224.585 99.8924 234.154 99.1869 234.135 107.734C234.112 116.632 225.038 115.953 218.533 115.398C199.288 113.756 180.324 111.728 161.279 118.097C121.342 131.455 97.8564 121.59 87.9359 81.9308C76.2067 35.0857 46.5147 10.6897 0 2V9.47147C0.3169 9.51773 0.629935 9.57942 0.931377 9.67195C40.1381 21.7312 71.4378 66.4366 73.4281 112.364L73.4319 112.368ZM260.832 144.775C265.868 139.181 272.124 131.074 266.076 125.449C262.266 121.906 257.307 131.44 253.338 135.538C244.798 144.359 234.908 149.459 222.58 144.532C211.021 139.91 199.798 137.188 187.547 141.757C162.338 151.156 140.742 168.045 113.075 172.772C89.416 176.816 62.267 164.252 54.9049 142.184C49.135 124.886 53.8344 106.427 49.3437 88.8934C42.1632 60.8619 28.6679 37.5839 0 25.5209V38.5362C21.6651 48.7988 31.5122 67.8283 36.9614 88.9821C44.3312 117.596 48.5746 146.965 38.9555 175.748C33.0542 193.413 17.5338 202.585 0 208.36V219.582C40.2695 190.572 72.0059 200.102 101.837 233.288C117.585 250.81 133.998 250.875 142.841 229.371C156.066 197.199 176.564 173.824 211.975 164.032C228.929 159.344 247.99 159.043 260.836 144.767L260.832 144.775ZM265.895 194.531C236.025 169.329 211.527 173.743 200.115 204.562C196.895 213.256 193.568 223.831 202.433 229.07C202.433 229.07 206.058 233.134 218.785 231.256C235.723 228.754 251.479 227.146 266.679 236.518C272.368 240.027 279.811 250.085 284.302 237.066C291.293 216.803 275.722 205.16 265.895 194.531Z" fill="#D5D5F5" fill-opacity="0.25"/>
<path d="M32.36 99L38.72 82.2H43.184L49.544 99H45.92L44.312 94.632H37.592L35.984 99H32.36ZM38.648 91.728H43.256L40.952 85.416L38.648 91.728ZM53.9928 84.792C52.9128 84.792 52.0008 83.88 52.0008 82.8C52.0008 81.72 52.9128 80.808 53.9928 80.808C55.0728 80.808 55.9608 81.72 55.9608 82.8C55.9608 83.88 55.0728 84.792 53.9928 84.792ZM52.4568 99V86.904H55.5048V99H52.4568ZM58.2959 92.952C58.2959 89.424 60.6239 86.424 64.4399 86.424C66.0719 86.424 67.2479 86.928 68.1839 87.864V81H71.2559V99H68.1839V98.04C67.2479 98.976 66.0719 99.48 64.4399 99.48C60.6239 99.48 58.2959 96.48 58.2959 92.952ZM61.4879 92.952C61.4879 95.064 62.8079 96.6 64.8719 96.6C66.2399 96.6 67.3679 96.024 68.1839 94.92V90.984C67.3679 89.88 66.2399 89.304 64.8719 89.304C62.8079 89.304 61.4879 90.84 61.4879 92.952ZM86.0459 97.032C84.9179 98.544 83.0459 99.48 80.7659 99.48C76.4699 99.48 74.0459 96.48 74.0459 92.952C74.0459 89.376 76.3019 86.424 80.2619 86.424C83.6219 86.424 85.8299 88.704 85.8299 91.872C85.8299 92.544 85.7339 93.168 85.6379 93.576H77.1659C77.4539 95.832 78.8459 96.744 80.7419 96.744C82.0619 96.744 83.2139 96.168 83.8619 95.304L86.0459 97.032ZM80.1899 88.92C78.6299 88.92 77.5979 89.784 77.2619 91.368H82.8299C82.7819 90.144 81.8939 88.92 80.1899 88.92ZM98.6131 84.984L95.7331 81H99.0451L101.517 84.984H98.6131ZM98.6851 99.36C96.2611 99.36 94.6051 97.968 94.6051 95.736C94.6051 93.912 96.0211 92.544 98.6131 92.112L102.309 91.488V91.176C102.309 89.904 101.349 89.088 99.9571 89.088C98.7811 89.088 97.8691 89.64 97.2211 90.528L94.9891 88.824C96.0691 87.336 97.8451 86.424 100.053 86.424C103.557 86.424 105.357 88.512 105.357 91.176V99H102.309V97.824C101.541 98.76 100.101 99.36 98.6851 99.36ZM97.6291 95.592C97.6291 96.408 98.2771 96.936 99.3091 96.936C100.701 96.936 101.709 96.288 102.309 95.328V93.624L99.4291 94.104C98.1571 94.32 97.6291 94.848 97.6291 95.592ZM33.824 128V110H36.872V128H33.824ZM43.9351 128.36C41.5111 128.36 39.8551 126.968 39.8551 124.736C39.8551 122.912 41.2711 121.544 43.8631 121.112L47.5591 120.488V120.176C47.5591 118.904 46.5991 118.088 45.2071 118.088C44.0311 118.088 43.1191 118.64 42.4711 119.528L40.2391 117.824C41.3191 116.336 43.0951 115.424 45.3031 115.424C48.8071 115.424 50.6071 117.512 50.6071 120.176V128H47.5591V126.824C46.7911 127.76 45.3511 128.36 43.9351 128.36ZM42.8791 124.592C42.8791 125.408 43.5271 125.936 44.5591 125.936C45.9511 125.936 46.9591 125.288 47.5591 124.328V122.624L44.6791 123.104C43.4071 123.32 42.8791 123.848 42.8791 124.592ZM59.7022 121.952C59.7022 118.424 62.0302 115.424 65.8462 115.424C67.4782 115.424 68.6542 115.928 69.5902 116.864V110H72.6622V128H69.5902V127.04C68.6542 127.976 67.4782 128.48 65.8462 128.48C62.0302 128.48 59.7022 125.48 59.7022 121.952ZM62.8942 121.952C62.8942 124.064 64.2142 125.6 66.2782 125.6C67.6462 125.6 68.7742 125.024 69.5902 123.92V119.984C68.7742 118.88 67.6462 118.304 66.2782 118.304C64.2142 118.304 62.8942 119.84 62.8942 121.952ZM83.3482 113.984H80.4202L82.9162 110H86.2282L83.3482 113.984ZM87.4522 126.032C86.3242 127.544 84.4522 128.48 82.1722 128.48C77.8762 128.48 75.4522 125.48 75.4522 121.952C75.4522 118.376 77.7082 115.424 81.6682 115.424C85.0282 115.424 87.2362 117.704 87.2362 120.872C87.2362 121.544 87.1402 122.168 87.0442 122.576H78.5722C78.8602 124.832 80.2522 125.744 82.1482 125.744C83.4682 125.744 84.6202 125.168 85.2682 124.304L87.4522 126.032ZM81.5962 117.92C80.0362 117.92 79.0042 118.784 78.6682 120.368H84.2362C84.1882 119.144 83.3002 117.92 81.5962 117.92ZM95.9289 125.6C97.1289 125.6 98.0889 125.048 98.6649 124.208L101.041 126.032C99.9129 127.52 98.1369 128.48 95.9289 128.48C91.7529 128.48 89.2569 125.48 89.2569 121.952C89.2569 118.424 91.7529 115.424 95.9289 115.424C98.1369 115.424 99.9129 116.384 101.041 117.872L98.6649 119.696C98.0889 118.856 97.1289 118.304 95.8809 118.304C93.8889 118.304 92.4249 119.84 92.4249 121.952C92.4249 124.088 93.8889 125.6 95.9289 125.6ZM104.852 113.792C103.772 113.792 102.86 112.88 102.86 111.8C102.86 110.72 103.772 109.808 104.852 109.808C105.932 109.808 106.82 110.72 106.82 111.8C106.82 112.88 105.932 113.792 104.852 113.792ZM103.316 128V115.904H106.364V128H103.316ZM108.799 126.248L110.815 124.424C111.559 125.36 112.447 126.032 113.599 126.032C114.583 126.032 115.087 125.456 115.087 124.736C115.087 122.624 109.303 123.416 109.303 119.168C109.303 117.032 111.103 115.424 113.623 115.424C115.471 115.424 117.151 116.312 118.015 117.488L115.999 119.264C115.375 118.496 114.583 117.872 113.647 117.872C112.687 117.872 112.231 118.4 112.231 119.024C112.231 121.088 118.015 120.368 118.015 124.544C117.967 127.088 115.927 128.48 113.647 128.48C111.487 128.48 109.951 127.616 108.799 126.248ZM122.36 113.792C121.28 113.792 120.368 112.88 120.368 111.8C120.368 110.72 121.28 109.808 122.36 109.808C123.44 109.808 124.328 110.72 124.328 111.8C124.328 112.88 123.44 113.792 122.36 113.792ZM120.824 128V115.904H123.872V128H120.824ZM133.287 115.424C137.223 115.424 139.911 118.328 139.911 121.952C139.911 125.576 137.223 128.48 133.287 128.48C129.351 128.48 126.663 125.576 126.663 121.952C126.663 118.328 129.351 115.424 133.287 115.424ZM133.335 125.6C135.279 125.6 136.743 124.04 136.743 121.952C136.743 119.84 135.279 118.304 133.335 118.304C131.319 118.304 129.831 119.84 129.831 121.952C129.831 124.064 131.319 125.6 133.335 125.6ZM142.691 128V115.904H145.739V116.864C146.579 116.048 147.707 115.424 149.315 115.424C151.931 115.424 154.019 117.224 154.019 120.8V128H150.947V120.92C150.947 119.312 150.035 118.304 148.547 118.304C147.011 118.304 146.195 119.336 145.739 120.104V128H142.691Z" fill="#000091"/>
<g filter="url(#filter7_d_1227_88417)">
<rect x="243" y="-66" width="74.0525" height="74.0525" rx="8.35179" fill="white"/>
</g>
<g filter="url(#filter8_d_1227_88417)">
<rect x="243" y="20.0525" width="74.0525" height="74.0525" rx="8.35179" fill="white"/>
</g>
<g clip-path="url(#clip6_1227_88417)">
<path d="M263.312 53.1919C263.312 52.7907 263.638 52.467 264.037 52.467H266.939C267.34 52.467 267.664 52.793 267.664 53.1919C267.664 53.5908 267.34 53.9168 266.939 53.9168H264.037C263.636 53.9168 263.312 53.5908 263.312 53.1919ZM264.037 48.8405H265.966C267.691 48.8268 269.344 48.1338 270.563 46.9121L272.986 44.489C274.208 43.2695 274.901 41.6169 274.915 39.8914V37.9607C274.917 37.5618 274.591 37.2358 274.192 37.2358C273.793 37.2358 273.467 37.5618 273.467 37.9607V39.8891C273.472 41.2408 272.952 42.5401 272.018 43.5157L269.595 45.9387C268.619 46.8733 267.32 47.3953 265.968 47.3885H264.037C263.636 47.3885 263.312 47.7121 263.312 48.1133C263.312 48.5145 263.638 48.8382 264.037 48.8382V48.8405ZM279.269 41.5873C279.46 41.5873 279.645 41.5121 279.781 41.3753C279.918 41.2385 279.993 41.0539 279.993 40.8624V37.9607C279.993 37.5595 279.667 37.2358 279.269 37.2358C278.87 37.2358 278.544 37.5618 278.544 37.9607V40.8624C278.544 41.0539 278.621 41.2385 278.756 41.3753C278.892 41.5121 279.077 41.5873 279.269 41.5873ZM294.5 57.5434H292.571C290.844 57.5479 289.186 58.2431 287.974 59.4718L285.551 61.8948C284.32 63.1098 283.627 64.7646 283.622 66.4924V68.4208C283.622 68.822 283.946 69.1457 284.347 69.1457C284.748 69.1457 285.072 68.8197 285.072 68.4208V66.4924C285.058 65.1407 285.578 63.8369 286.522 62.8659L288.945 60.4428C289.916 59.5014 291.22 58.9817 292.571 58.9931H294.5C294.901 58.9931 295.225 58.6694 295.225 58.2682C295.225 57.867 294.899 57.5434 294.5 57.5434ZM287.971 46.9257C289.191 48.1475 290.844 48.8359 292.569 48.8405H294.498C294.899 48.8405 295.222 48.5168 295.222 48.1156C295.222 47.7144 294.896 47.3907 294.498 47.3907H292.569C291.217 47.4021 289.914 46.8801 288.943 45.941L286.519 43.518C285.576 42.5492 285.054 41.2454 285.07 39.8914V37.9607C285.07 37.5618 284.746 37.2358 284.345 37.2358C283.944 37.2358 283.62 37.5618 283.62 37.9607V39.8891C283.625 41.6169 284.32 43.2741 285.548 44.4867L287.971 46.9235V46.9257ZM270.566 59.4718C269.351 58.2409 267.696 57.5479 265.968 57.5434H264.037C263.636 57.5434 263.312 57.867 263.312 58.2682C263.312 58.6694 263.638 58.9931 264.037 58.9931H265.966C267.317 58.9817 268.621 59.5037 269.592 60.4428L272.015 62.8659C272.957 63.8369 273.477 65.1407 273.465 66.4924V68.4208C273.465 68.822 273.789 69.1457 274.19 69.1457C274.591 69.1457 274.915 68.8197 274.915 68.4208V66.4924C274.91 64.7646 274.215 63.1075 272.986 61.8948L270.563 59.4718H270.566ZM294.5 52.4648H291.598C291.197 52.4648 290.873 52.7907 290.873 53.1896C290.873 53.5885 291.197 53.9145 291.598 53.9145H294.5C294.901 53.9145 295.225 53.5885 295.225 53.1896C295.225 52.7907 294.899 52.4648 294.5 52.4648ZM285.072 53.1896C285.072 54.7283 284.461 56.2031 283.372 57.2926C282.284 58.3799 280.807 58.9931 279.269 58.9931C277.73 58.9931 276.255 58.3822 275.166 57.2926C274.078 56.2053 273.465 54.7283 273.465 53.1896C273.465 51.651 274.076 50.1762 275.166 49.0866C276.255 47.9971 277.73 47.3862 279.269 47.3862C280.807 47.3862 282.282 47.9971 283.372 49.0866C284.459 50.1739 285.072 51.651 285.072 53.1896ZM283.622 53.1896C283.622 52.0362 283.164 50.9284 282.348 50.1124C281.532 49.2964 280.424 48.8382 279.271 48.8382C278.117 48.8382 277.01 49.2964 276.194 50.1124C275.378 50.9284 274.919 52.0362 274.919 53.1896C274.919 54.343 275.378 55.4508 276.194 56.2669C277.01 57.0829 278.117 57.5411 279.271 57.5411C280.424 57.5411 281.532 57.0829 282.348 56.2669C283.164 55.4508 283.622 54.343 283.622 53.1896ZM279.271 64.7943C278.87 64.7943 278.546 65.1179 278.546 65.5191V68.4208C278.546 68.822 278.872 69.1457 279.271 69.1457C279.67 69.1457 279.996 68.8197 279.996 68.4208V65.5191C279.996 65.3276 279.918 65.143 279.784 65.0062C279.647 64.8695 279.462 64.7943 279.271 64.7943Z" fill="#3A3A3A"/>
</g>
<path d="M260.461 84.1741V78.7176H261.911C263.01 78.7176 263.688 79.3178 263.688 80.2532C263.688 80.908 263.353 81.3991 262.768 81.6329L264.53 84.1741H263.665L262.082 81.7732C262.028 81.781 261.965 81.781 261.911 81.781H261.194V84.1741H260.461ZM261.942 79.3412H261.194V81.1574H261.942C262.566 81.1574 262.932 80.8222 262.932 80.2376C262.932 79.6841 262.566 79.3412 261.942 79.3412ZM267.038 80.0895C268.301 80.0895 269.166 81.0639 269.166 82.2097C269.166 83.3556 268.301 84.33 267.038 84.33C265.768 84.33 264.91 83.3556 264.91 82.2097C264.91 81.0639 265.768 80.0895 267.038 80.0895ZM267.046 83.7064C267.864 83.7064 268.465 83.0204 268.465 82.2097C268.465 81.3913 267.864 80.7131 267.046 80.7131C266.204 80.7131 265.604 81.3913 265.604 82.2097C265.604 83.0282 266.204 83.7064 267.046 83.7064ZM270.231 84.1741V80.2454H270.894V80.6897C271.214 80.3389 271.619 80.0895 272.204 80.0895C273.084 80.0895 273.739 80.6819 273.739 81.7966V84.1741H273.077V81.82C273.077 81.1184 272.679 80.7131 272.071 80.7131C271.502 80.7131 271.143 81.0405 270.894 81.4536V84.1741H270.231ZM274.738 82.2097C274.738 81.0639 275.525 80.0895 276.757 80.0895C277.341 80.0895 277.801 80.3155 278.152 80.7131V78.3278H278.814V84.1741H278.152V83.7064C277.801 84.1039 277.341 84.33 276.757 84.33C275.525 84.33 274.738 83.3556 274.738 82.2097ZM275.439 82.2097C275.439 83.0438 276 83.7064 276.835 83.7064C277.38 83.7064 277.863 83.4413 278.152 82.9814V81.438C277.848 80.9703 277.372 80.7131 276.835 80.7131C276 80.7131 275.439 81.3757 275.439 82.2097ZM282.476 84.1741V78.7176H284.074C285.165 78.7176 285.843 79.3178 285.843 80.2532C285.843 81.1886 285.165 81.781 284.074 81.781H283.209V84.1741H282.476ZM284.089 79.3412H283.209V81.1574H284.089C284.713 81.1574 285.087 80.8222 285.087 80.2376C285.087 79.6841 284.713 79.3412 284.089 79.3412ZM288.345 80.0895C289.608 80.0895 290.473 81.0639 290.473 82.2097C290.473 83.3556 289.608 84.33 288.345 84.33C287.074 84.33 286.217 83.3556 286.217 82.2097C286.217 81.0639 287.074 80.0895 288.345 80.0895ZM288.353 83.7064C289.171 83.7064 289.772 83.0204 289.772 82.2097C289.772 81.3913 289.171 80.7131 288.353 80.7131C287.511 80.7131 286.911 81.3913 286.911 82.2097C286.911 83.0282 287.511 83.7064 288.353 83.7064ZM291.873 79.2242C291.616 79.2242 291.406 79.0138 291.406 78.7565C291.406 78.5071 291.616 78.2966 291.873 78.2966C292.131 78.2966 292.333 78.5071 292.333 78.7565C292.333 79.0138 292.131 79.2242 291.873 79.2242ZM291.538 84.1741V80.2454H292.201V84.1741H291.538ZM293.601 84.1741V80.2454H294.264V80.6897C294.583 80.3389 294.989 80.0895 295.573 80.0895C296.454 80.0895 297.109 80.6819 297.109 81.7966V84.1741H296.446V81.82C296.446 81.1184 296.049 80.7131 295.441 80.7131C294.872 80.7131 294.513 81.0405 294.264 81.4536V84.1741H293.601ZM298.669 82.8567V80.8456H297.928V80.2454H298.669V79.2632H299.339V80.2454H300.703V80.8456H299.339V82.8567C299.339 83.4725 299.651 83.644 300.126 83.644C300.384 83.644 300.563 83.6128 300.711 83.5505V84.1429C300.524 84.2208 300.313 84.252 300.033 84.252C299.16 84.252 298.669 83.8155 298.669 82.8567Z" fill="#161616"/>
<g filter="url(#filter9_d_1227_88417)">
<rect x="243" y="106.105" width="74.0525" height="74.0525" rx="8.35179" fill="white"/>
</g>
<path d="M263.97 170.227V164.77H265.319C266.363 164.77 266.995 165.324 266.995 166.189C266.995 166.68 266.769 167.078 266.34 167.311C266.979 167.538 267.322 168.036 267.322 168.66C267.322 169.619 266.613 170.227 265.451 170.227H263.97ZM265.327 165.394H264.703V167.039H265.327C265.903 167.039 266.239 166.742 266.239 166.205C266.239 165.69 265.903 165.394 265.327 165.394ZM265.483 167.662H264.703V169.603H265.483C266.161 169.603 266.566 169.245 266.566 168.629C266.566 168.013 266.161 167.662 265.483 167.662ZM269.307 165.675H268.707L269.525 164.381H270.422L271.232 165.675H270.64L269.977 164.692L269.307 165.675ZM269.548 170.336C268.777 170.336 268.255 169.907 268.255 169.237C268.255 168.644 268.707 168.223 269.541 168.083L270.866 167.865V167.592C270.866 167.046 270.476 166.735 269.915 166.735C269.463 166.735 269.096 166.945 268.855 167.28L268.356 166.898C268.699 166.431 269.252 166.142 269.938 166.142C270.936 166.142 271.528 166.727 271.528 167.592V170.227H270.866V169.728C270.57 170.11 270.055 170.336 269.548 170.336ZM268.925 169.213C268.925 169.549 269.198 169.79 269.658 169.79C270.18 169.79 270.609 169.541 270.866 169.12V168.348L269.704 168.543C269.167 168.637 268.925 168.878 268.925 169.213ZM273.084 168.909V166.898H272.343V166.298H273.084V165.316H273.754V166.298H275.118V166.898H273.754V168.909C273.754 169.525 274.066 169.697 274.541 169.697C274.799 169.697 274.978 169.666 275.126 169.603V170.196C274.939 170.274 274.728 170.305 274.448 170.305C273.575 170.305 273.084 169.868 273.084 168.909ZM276.466 165.277C276.209 165.277 275.998 165.067 275.998 164.809C275.998 164.56 276.209 164.349 276.466 164.349C276.723 164.349 276.926 164.56 276.926 164.809C276.926 165.067 276.723 165.277 276.466 165.277ZM276.131 170.227V166.298H276.794V170.227H276.131ZM278.194 170.227V166.298H278.856V166.727C279.153 166.384 279.542 166.142 280.088 166.142C280.657 166.142 281.125 166.399 281.366 166.898C281.678 166.47 282.091 166.142 282.77 166.142C283.611 166.142 284.227 166.703 284.227 167.771V170.227H283.565V167.795C283.565 167.14 283.198 166.766 282.637 166.766C282.138 166.766 281.787 167.046 281.53 167.506C281.538 167.592 281.546 167.678 281.546 167.771V170.227H280.883V167.795C280.883 167.14 280.525 166.766 279.956 166.766C279.418 166.766 279.083 167.101 278.856 167.506V170.227H278.194ZM289.055 169.58C288.688 170.071 288.104 170.383 287.371 170.383C286.046 170.383 285.227 169.408 285.227 168.262C285.227 167.07 285.991 166.142 287.207 166.142C288.275 166.142 288.969 166.891 288.969 167.857C288.969 168.013 288.946 168.161 288.922 168.27H285.906C285.929 169.213 286.529 169.782 287.371 169.782C287.878 169.782 288.306 169.549 288.564 169.198L289.055 169.58ZM287.192 166.703C286.545 166.703 286.093 167.085 285.952 167.764H288.306C288.283 167.187 287.886 166.703 287.192 166.703ZM290.092 170.227V166.298H290.754V166.742C291.074 166.392 291.479 166.142 292.064 166.142C292.945 166.142 293.6 166.735 293.6 167.849V170.227H292.937V167.873C292.937 167.171 292.54 166.766 291.932 166.766C291.363 166.766 291.004 167.093 290.754 167.506V170.227H290.092ZM295.159 168.909V166.898H294.419V166.298H295.159V165.316H295.83V166.298H297.194V166.898H295.83V168.909C295.83 169.525 296.142 169.697 296.617 169.697C296.874 169.697 297.054 169.666 297.202 169.603V170.196C297.015 170.274 296.804 170.305 296.524 170.305C295.65 170.305 295.159 169.868 295.159 168.909Z" fill="#161616"/>
<g clip-path="url(#clip7_1227_88417)">
<path fill-rule="evenodd" clip-rule="evenodd" d="M274.557 132.183H276.177C276.527 132.183 276.865 132.044 277.115 131.792C277.363 131.543 277.504 131.204 277.504 130.85V128.955C277.504 128.603 277.365 128.264 277.115 128.013C276.867 127.763 276.529 127.622 276.177 127.622H274.557C274.207 127.622 273.869 127.761 273.619 128.013C273.371 128.262 273.23 128.601 273.23 128.955V130.85C273.23 131.202 273.369 131.541 273.619 131.792C273.867 132.041 274.205 132.183 274.557 132.183ZM274.367 128.955C274.367 128.904 274.386 128.857 274.423 128.82C274.459 128.784 274.506 128.764 274.557 128.764H276.177C276.228 128.764 276.275 128.784 276.311 128.82C276.348 128.857 276.367 128.904 276.367 128.955V130.85C276.367 130.899 276.348 130.948 276.311 130.985C276.277 131.021 276.228 131.041 276.177 131.041H274.557C274.508 131.041 274.459 131.021 274.423 130.985C274.386 130.948 274.367 130.901 274.367 130.85V128.955Z" fill="#3A3A3A"/>
<path fill-rule="evenodd" clip-rule="evenodd" d="M273.23 137.26C273.23 137.612 273.369 137.951 273.619 138.203C273.867 138.452 274.205 138.594 274.557 138.594H276.177C276.527 138.594 276.865 138.454 277.115 138.203C277.363 137.954 277.504 137.614 277.504 137.26V135.366C277.504 135.014 277.365 134.674 277.115 134.423C276.867 134.174 276.529 134.032 276.177 134.032H274.557C274.207 134.032 273.869 134.172 273.619 134.423C273.371 134.672 273.23 135.011 273.23 135.366V137.26ZM274.367 135.366C274.367 135.314 274.386 135.267 274.423 135.23C274.459 135.196 274.506 135.175 274.557 135.175H276.177C276.228 135.175 276.275 135.194 276.311 135.23C276.348 135.267 276.367 135.314 276.367 135.366V137.26C276.367 137.309 276.348 137.359 276.311 137.395C276.277 137.432 276.228 137.451 276.177 137.451H274.557C274.508 137.451 274.459 137.432 274.423 137.395C274.386 137.361 274.367 137.311 274.367 137.26V135.366Z" fill="#3A3A3A"/>
<path fill-rule="evenodd" clip-rule="evenodd" d="M280.065 132.183H281.685C282.037 132.183 282.373 132.044 282.623 131.792C282.87 131.543 283.011 131.204 283.011 130.85V128.955C283.011 128.603 282.873 128.264 282.623 128.013C282.375 127.763 282.037 127.622 281.685 127.622H280.065C279.715 127.622 279.377 127.761 279.127 128.013C278.879 128.262 278.738 128.601 278.738 128.955V130.85C278.738 131.202 278.877 131.541 279.127 131.792C279.375 132.041 279.713 132.183 280.065 132.183ZM279.875 128.955C279.875 128.904 279.894 128.857 279.93 128.82C279.967 128.784 280.014 128.764 280.065 128.764H281.685C281.736 128.764 281.783 128.784 281.819 128.82C281.856 128.857 281.875 128.904 281.875 128.955V130.85C281.875 130.899 281.856 130.948 281.819 130.985C281.783 131.021 281.736 131.041 281.685 131.041H280.065C280.014 131.041 279.967 131.021 279.93 130.985C279.896 130.948 279.875 130.901 279.875 130.85V128.955Z" fill="#3A3A3A"/>
<path fill-rule="evenodd" clip-rule="evenodd" d="M278.738 137.26C278.738 137.612 278.877 137.951 279.127 138.203C279.375 138.452 279.713 138.594 280.065 138.594H281.685C282.037 138.594 282.373 138.454 282.623 138.203C282.87 137.954 283.011 137.614 283.011 137.26V135.366C283.011 135.014 282.873 134.674 282.623 134.423C282.375 134.174 282.037 134.032 281.685 134.032H280.065C279.715 134.032 279.377 134.172 279.127 134.423C278.879 134.672 278.738 135.011 278.738 135.366V137.26ZM279.875 135.366C279.875 135.314 279.894 135.267 279.93 135.23C279.967 135.196 280.014 135.175 280.065 135.175H281.685C281.736 135.175 281.783 135.194 281.819 135.23C281.856 135.267 281.875 135.314 281.875 135.366V137.26C281.875 137.309 281.856 137.359 281.819 137.395C281.783 137.432 281.736 137.451 281.685 137.451H280.065C280.014 137.451 279.967 137.432 279.93 137.395C279.896 137.361 279.875 137.311 279.875 137.26V135.366Z" fill="#3A3A3A"/>
<path fill-rule="evenodd" clip-rule="evenodd" d="M298.679 140.29C298.679 139.597 298.265 138.972 297.626 138.707C296.885 138.398 295.658 137.889 294.455 137.389V134.827C294.455 134.133 294.041 133.508 293.402 133.244L286.195 130.246C286.168 130.235 286.14 130.227 286.112 130.22V126.75C286.112 125.802 285.349 125.036 284.407 125.036H271.831C270.891 125.036 270.126 125.802 270.126 126.75V135.821C270.126 136.137 270.381 136.392 270.695 136.392C271.009 136.392 271.263 136.137 271.263 135.821V126.75C271.263 126.434 271.517 126.178 271.831 126.178H284.407C284.721 126.178 284.976 126.434 284.976 126.75V138.198C284.499 138.396 284.076 138.572 283.747 138.71C283.11 138.974 282.694 139.599 282.694 140.292V153.962H278.081V152.967C279.585 152.626 280.788 150.953 280.788 148.876C280.788 147.996 280.572 147.182 280.215 146.516C279.999 146.117 279.916 145.621 279.976 145.135C279.995 144.976 280.006 144.817 280.006 144.652C280.006 142.893 278.841 141.534 277.515 141.534C276.188 141.534 275.023 142.893 275.023 144.652C275.023 144.815 275.034 144.976 275.053 145.133C275.113 145.618 275.032 146.117 274.814 146.516C274.453 147.182 274.239 147.996 274.239 148.876C274.239 150.951 275.44 152.624 276.946 152.967V153.962H269.225V152.184C271.306 151.825 272.974 149.533 272.974 146.694C272.974 145.513 272.688 144.422 272.205 143.529C271.885 142.938 271.759 142.199 271.851 141.482C271.851 141.482 271.851 141.482 271.851 141.48C271.876 141.272 271.889 141.059 271.889 140.842C271.889 138.542 270.394 136.74 268.657 136.74C266.919 136.74 265.424 138.54 265.424 140.842C265.424 141.061 265.437 141.274 265.465 141.482C265.554 142.202 265.43 142.938 265.108 143.531C264.625 144.422 264.339 145.515 264.339 146.696C264.339 149.536 266.009 151.827 268.088 152.186V153.964H263.057C262.743 153.964 262.488 154.22 262.488 154.535C262.488 154.851 262.743 155.107 263.057 155.107H296.974C297.914 155.107 298.679 154.34 298.679 153.393V140.294V140.29ZM276.312 151.359C275.737 150.801 275.376 149.892 275.376 148.876C275.376 148.2 275.536 147.573 275.812 147.062C276.137 146.462 276.271 145.717 276.179 144.989C276.179 144.989 276.179 144.989 276.179 144.987C276.164 144.877 276.158 144.766 276.158 144.652C276.158 143.98 276.391 143.376 276.771 143.007C276.981 142.805 277.233 142.676 277.513 142.676C277.792 142.676 278.045 142.805 278.252 143.007C278.632 143.376 278.865 143.978 278.865 144.652C278.865 144.768 278.859 144.882 278.844 144.993C278.752 145.719 278.886 146.462 279.211 147.062C279.487 147.573 279.647 148.2 279.647 148.876C279.647 149.892 279.288 150.801 278.711 151.359C278.521 151.544 278.307 151.685 278.077 151.778V146.84C278.077 146.525 277.822 146.269 277.508 146.269C277.194 146.269 276.94 146.525 276.94 146.84V151.778C276.709 151.685 276.496 151.544 276.305 151.359H276.312ZM265.475 146.694C265.475 145.717 265.708 144.813 266.108 144.074C266.537 143.282 266.714 142.298 266.593 141.336C266.593 141.336 266.593 141.336 266.593 141.334C266.571 141.173 266.561 141.007 266.561 140.84C266.561 139.841 266.913 138.95 267.479 138.402C267.81 138.08 268.216 137.881 268.659 137.881C269.101 137.881 269.507 138.08 269.838 138.402C270.402 138.952 270.757 139.841 270.757 140.84C270.757 141.01 270.746 141.177 270.727 141.338C270.607 142.296 270.782 143.282 271.212 144.072C271.609 144.811 271.842 145.715 271.842 146.692C271.842 148.825 270.746 150.65 269.227 151.02V143.87C269.227 143.555 268.973 143.299 268.659 143.299C268.345 143.299 268.09 143.555 268.09 143.87V151.02C266.573 150.65 265.475 148.825 265.475 146.692V146.694ZM286.114 131.446L292.971 134.298C293.182 134.386 293.321 134.595 293.321 134.827V136.916C292.5 136.575 291.776 136.274 291.34 136.092C290.924 135.918 290.454 135.918 290.037 136.092C289.272 136.409 287.621 137.097 286.114 137.724V131.446ZM297.543 153.388C297.543 153.704 297.288 153.96 296.974 153.96H283.832V140.29C283.832 140.058 283.971 139.852 284.183 139.762L285.762 139.105C285.762 139.105 285.766 139.105 285.77 139.1L290.471 137.146C290.61 137.088 290.766 137.088 290.904 137.146C291.475 137.382 292.537 137.825 293.665 138.295C293.665 138.295 293.669 138.295 293.671 138.297C294.983 138.843 296.38 139.425 297.192 139.762C297.404 139.85 297.543 140.058 297.543 140.29V153.388Z" fill="#3A3A3A"/>
<path fill-rule="evenodd" clip-rule="evenodd" d="M288.747 140.915H287.128C286.777 140.915 286.44 141.055 286.19 141.306C285.942 141.555 285.801 141.895 285.801 142.249V144.143C285.801 144.497 285.94 144.835 286.19 145.086C286.437 145.335 286.775 145.477 287.128 145.477H288.747C289.097 145.477 289.435 145.337 289.685 145.086C289.933 144.837 290.074 144.497 290.074 144.143V142.249C290.074 141.895 289.935 141.557 289.685 141.306C289.437 141.057 289.1 140.915 288.747 140.915ZM288.937 144.141C288.937 144.193 288.918 144.24 288.882 144.276C288.845 144.313 288.798 144.332 288.747 144.332H287.128C287.076 144.332 287.029 144.313 286.993 144.276C286.959 144.24 286.937 144.193 286.937 144.141V142.247C286.937 142.195 286.957 142.148 286.993 142.111C287.029 142.075 287.076 142.056 287.128 142.056H288.747C288.796 142.056 288.845 142.075 288.882 142.111C288.918 142.148 288.937 142.195 288.937 142.247V144.141Z" fill="#3A3A3A"/>
<path fill-rule="evenodd" clip-rule="evenodd" d="M288.747 147.326H287.128C286.777 147.326 286.44 147.465 286.19 147.717C285.942 147.966 285.801 148.305 285.801 148.659V150.554C285.801 150.906 285.94 151.245 286.19 151.496C286.437 151.746 286.775 151.887 287.128 151.887H288.747C289.097 151.887 289.435 151.748 289.685 151.496C289.933 151.247 290.074 150.908 290.074 150.554V148.659C290.074 148.305 289.935 147.968 289.685 147.717C289.437 147.468 289.1 147.326 288.747 147.326ZM288.937 150.554C288.937 150.603 288.918 150.652 288.882 150.689C288.845 150.725 288.798 150.745 288.747 150.745H287.128C287.076 150.745 287.029 150.725 286.993 150.689C286.959 150.652 286.937 150.605 286.937 150.554V148.659C286.937 148.608 286.957 148.561 286.993 148.524C287.029 148.488 287.076 148.468 287.128 148.468H288.747C288.796 148.468 288.845 148.488 288.882 148.524C288.918 148.561 288.937 148.608 288.937 148.659V150.554Z" fill="#3A3A3A"/>
<path fill-rule="evenodd" clip-rule="evenodd" d="M294.247 140.915H292.628C292.275 140.915 291.94 141.055 291.69 141.306C291.442 141.555 291.301 141.895 291.301 142.249V144.143C291.301 144.497 291.44 144.835 291.69 145.086C291.937 145.335 292.275 145.477 292.628 145.477H294.247C294.597 145.477 294.935 145.337 295.185 145.086C295.433 144.837 295.574 144.497 295.574 144.143V142.249C295.574 141.895 295.435 141.557 295.185 141.306C294.937 141.057 294.6 140.915 294.247 140.915ZM294.437 144.141C294.437 144.193 294.418 144.24 294.382 144.276C294.345 144.313 294.298 144.332 294.247 144.332H292.628C292.576 144.332 292.529 144.313 292.493 144.276C292.457 144.24 292.437 144.193 292.437 144.141V142.247C292.437 142.195 292.457 142.148 292.493 142.111C292.529 142.075 292.576 142.056 292.628 142.056H294.247C294.298 142.056 294.345 142.075 294.382 142.111C294.416 142.148 294.437 142.195 294.437 142.247V144.141Z" fill="#3A3A3A"/>
<path fill-rule="evenodd" clip-rule="evenodd" d="M294.247 147.326H292.628C292.275 147.326 291.94 147.465 291.69 147.717C291.442 147.966 291.301 148.305 291.301 148.659V150.554C291.301 150.906 291.44 151.245 291.69 151.496C291.937 151.746 292.275 151.887 292.628 151.887H294.247C294.597 151.887 294.935 151.748 295.185 151.496C295.433 151.247 295.574 150.908 295.574 150.554V148.659C295.574 148.305 295.435 147.968 295.185 147.717C294.937 147.468 294.6 147.326 294.247 147.326ZM294.437 150.554C294.437 150.603 294.418 150.652 294.382 150.689C294.345 150.725 294.298 150.745 294.247 150.745H292.628C292.576 150.745 292.529 150.725 292.493 150.689C292.457 150.652 292.437 150.605 292.437 150.554V148.659C292.437 148.608 292.457 148.561 292.493 148.524C292.529 148.488 292.576 148.468 292.628 148.468H294.247C294.298 148.468 294.345 148.488 294.382 148.524C294.416 148.561 294.437 148.608 294.437 148.659V150.554Z" fill="#3A3A3A"/>
</g>
<g filter="url(#filter10_d_1227_88417)">
<rect x="243" y="192.158" width="74.0525" height="74.0525" rx="8.35179" fill="white"/>
</g>
</g>
<rect x="0.5" y="0.5" width="527" height="205" rx="11.5" stroke="#DCDCFC"/>
<defs>
<filter id="filter0_d_1227_88417" x="409.864" y="-77.1357" width="96.3222" height="96.3239" filterUnits="userSpaceOnUse" color-interpolation-filters="sRGB">
<feFlood flood-opacity="0" result="BackgroundImageFix"/>
<feColorMatrix in="SourceAlpha" type="matrix" values="0 0 0 0 0 0 0 0 0 0 0 0 0 0 0 0 0 0 127 0" result="hardAlpha"/>
<feOffset/>
<feGaussianBlur stdDeviation="5.56786"/>
<feComposite in2="hardAlpha" operator="out"/>
<feColorMatrix type="matrix" values="0 0 0 0 0 0 0 0 0 0 0 0 0 0 0.568627 0 0 0 0.2 0"/>
<feBlend mode="normal" in2="BackgroundImageFix" result="effect1_dropShadow_1227_88417"/>
<feBlend mode="normal" in="SourceGraphic" in2="effect1_dropShadow_1227_88417" result="shape"/>
</filter>
<filter id="filter1_d_1227_88417" x="409.864" y="8.91677" width="96.3222" height="96.3239" filterUnits="userSpaceOnUse" color-interpolation-filters="sRGB">
<feFlood flood-opacity="0" result="BackgroundImageFix"/>
<feColorMatrix in="SourceAlpha" type="matrix" values="0 0 0 0 0 0 0 0 0 0 0 0 0 0 0 0 0 0 127 0" result="hardAlpha"/>
<feOffset/>
<feGaussianBlur stdDeviation="5.56786"/>
<feComposite in2="hardAlpha" operator="out"/>
<feColorMatrix type="matrix" values="0 0 0 0 0 0 0 0 0 0 0 0 0 0 0.568627 0 0 0 0.2 0"/>
<feBlend mode="normal" in2="BackgroundImageFix" result="effect1_dropShadow_1227_88417"/>
<feBlend mode="normal" in="SourceGraphic" in2="effect1_dropShadow_1227_88417" result="shape"/>
</filter>
<filter id="filter2_d_1227_88417" x="409.864" y="94.9694" width="96.3222" height="96.3239" filterUnits="userSpaceOnUse" color-interpolation-filters="sRGB">
<feFlood flood-opacity="0" result="BackgroundImageFix"/>
<feColorMatrix in="SourceAlpha" type="matrix" values="0 0 0 0 0 0 0 0 0 0 0 0 0 0 0 0 0 0 127 0" result="hardAlpha"/>
<feOffset/>
<feGaussianBlur stdDeviation="5.56786"/>
<feComposite in2="hardAlpha" operator="out"/>
<feColorMatrix type="matrix" values="0 0 0 0 0 0 0 0 0 0 0 0 0 0 0.568627 0 0 0 0.2 0"/>
<feBlend mode="normal" in2="BackgroundImageFix" result="effect1_dropShadow_1227_88417"/>
<feBlend mode="normal" in="SourceGraphic" in2="effect1_dropShadow_1227_88417" result="shape"/>
</filter>
<filter id="filter3_d_1227_88417" x="409.864" y="181.022" width="96.3222" height="96.3239" filterUnits="userSpaceOnUse" color-interpolation-filters="sRGB">
<feFlood flood-opacity="0" result="BackgroundImageFix"/>
<feColorMatrix in="SourceAlpha" type="matrix" values="0 0 0 0 0 0 0 0 0 0 0 0 0 0 0 0 0 0 127 0" result="hardAlpha"/>
<feOffset/>
<feGaussianBlur stdDeviation="5.56786"/>
<feComposite in2="hardAlpha" operator="out"/>
<feColorMatrix type="matrix" values="0 0 0 0 0 0 0 0 0 0 0 0 0 0 0.568627 0 0 0 0.2 0"/>
<feBlend mode="normal" in2="BackgroundImageFix" result="effect1_dropShadow_1227_88417"/>
<feBlend mode="normal" in="SourceGraphic" in2="effect1_dropShadow_1227_88417" result="shape"/>
</filter>
<filter id="filter4_d_1227_88417" x="320.864" y="-22.1357" width="96.3222" height="96.3239" filterUnits="userSpaceOnUse" color-interpolation-filters="sRGB">
<feFlood flood-opacity="0" result="BackgroundImageFix"/>
<feColorMatrix in="SourceAlpha" type="matrix" values="0 0 0 0 0 0 0 0 0 0 0 0 0 0 0 0 0 0 127 0" result="hardAlpha"/>
<feOffset/>
<feGaussianBlur stdDeviation="5.56786"/>
<feComposite in2="hardAlpha" operator="out"/>
<feColorMatrix type="matrix" values="0 0 0 0 0 0 0 0 0 0 0 0 0 0 0.568627 0 0 0 0.2 0"/>
<feBlend mode="normal" in2="BackgroundImageFix" result="effect1_dropShadow_1227_88417"/>
<feBlend mode="normal" in="SourceGraphic" in2="effect1_dropShadow_1227_88417" result="shape"/>
</filter>
<filter id="filter5_d_1227_88417" x="320.864" y="63.9168" width="96.3222" height="96.3239" filterUnits="userSpaceOnUse" color-interpolation-filters="sRGB">
<feFlood flood-opacity="0" result="BackgroundImageFix"/>
<feColorMatrix in="SourceAlpha" type="matrix" values="0 0 0 0 0 0 0 0 0 0 0 0 0 0 0 0 0 0 127 0" result="hardAlpha"/>
<feOffset/>
<feGaussianBlur stdDeviation="5.56786"/>
<feComposite in2="hardAlpha" operator="out"/>
<feColorMatrix type="matrix" values="0 0 0 0 0 0 0 0 0 0 0 0 0 0 0.568627 0 0 0 0.2 0"/>
<feBlend mode="normal" in2="BackgroundImageFix" result="effect1_dropShadow_1227_88417"/>
<feBlend mode="normal" in="SourceGraphic" in2="effect1_dropShadow_1227_88417" result="shape"/>
</filter>
<filter id="filter6_d_1227_88417" x="320.864" y="149.969" width="96.3222" height="96.3239" filterUnits="userSpaceOnUse" color-interpolation-filters="sRGB">
<feFlood flood-opacity="0" result="BackgroundImageFix"/>
<feColorMatrix in="SourceAlpha" type="matrix" values="0 0 0 0 0 0 0 0 0 0 0 0 0 0 0 0 0 0 127 0" result="hardAlpha"/>
<feOffset/>
<feGaussianBlur stdDeviation="5.56786"/>
<feComposite in2="hardAlpha" operator="out"/>
<feColorMatrix type="matrix" values="0 0 0 0 0 0 0 0 0 0 0 0 0 0 0.568627 0 0 0 0.2 0"/>
<feBlend mode="normal" in2="BackgroundImageFix" result="effect1_dropShadow_1227_88417"/>
<feBlend mode="normal" in="SourceGraphic" in2="effect1_dropShadow_1227_88417" result="shape"/>
</filter>
<filter id="filter7_d_1227_88417" x="231.864" y="-77.1357" width="96.3222" height="96.3239" filterUnits="userSpaceOnUse" color-interpolation-filters="sRGB">
<feFlood flood-opacity="0" result="BackgroundImageFix"/>
<feColorMatrix in="SourceAlpha" type="matrix" values="0 0 0 0 0 0 0 0 0 0 0 0 0 0 0 0 0 0 127 0" result="hardAlpha"/>
<feOffset/>
<feGaussianBlur stdDeviation="5.56786"/>
<feComposite in2="hardAlpha" operator="out"/>
<feColorMatrix type="matrix" values="0 0 0 0 0 0 0 0 0 0 0 0 0 0 0.568627 0 0 0 0.2 0"/>
<feBlend mode="normal" in2="BackgroundImageFix" result="effect1_dropShadow_1227_88417"/>
<feBlend mode="normal" in="SourceGraphic" in2="effect1_dropShadow_1227_88417" result="shape"/>
</filter>
<filter id="filter8_d_1227_88417" x="231.864" y="8.91677" width="96.3222" height="96.3239" filterUnits="userSpaceOnUse" color-interpolation-filters="sRGB">
<feFlood flood-opacity="0" result="BackgroundImageFix"/>
<feColorMatrix in="SourceAlpha" type="matrix" values="0 0 0 0 0 0 0 0 0 0 0 0 0 0 0 0 0 0 127 0" result="hardAlpha"/>
<feOffset/>
<feGaussianBlur stdDeviation="5.56786"/>
<feComposite in2="hardAlpha" operator="out"/>
<feColorMatrix type="matrix" values="0 0 0 0 0 0 0 0 0 0 0 0 0 0 0.568627 0 0 0 0.2 0"/>
<feBlend mode="normal" in2="BackgroundImageFix" result="effect1_dropShadow_1227_88417"/>
<feBlend mode="normal" in="SourceGraphic" in2="effect1_dropShadow_1227_88417" result="shape"/>
</filter>
<filter id="filter9_d_1227_88417" x="231.864" y="94.9694" width="96.3222" height="96.3239" filterUnits="userSpaceOnUse" color-interpolation-filters="sRGB">
<feFlood flood-opacity="0" result="BackgroundImageFix"/>
<feColorMatrix in="SourceAlpha" type="matrix" values="0 0 0 0 0 0 0 0 0 0 0 0 0 0 0 0 0 0 127 0" result="hardAlpha"/>
<feOffset/>
<feGaussianBlur stdDeviation="5.56786"/>
<feComposite in2="hardAlpha" operator="out"/>
<feColorMatrix type="matrix" values="0 0 0 0 0 0 0 0 0 0 0 0 0 0 0.568627 0 0 0 0.2 0"/>
<feBlend mode="normal" in2="BackgroundImageFix" result="effect1_dropShadow_1227_88417"/>
<feBlend mode="normal" in="SourceGraphic" in2="effect1_dropShadow_1227_88417" result="shape"/>
</filter>
<filter id="filter10_d_1227_88417" x="231.864" y="181.022" width="96.3222" height="96.3239" filterUnits="userSpaceOnUse" color-interpolation-filters="sRGB">
<feFlood flood-opacity="0" result="BackgroundImageFix"/>
<feColorMatrix in="SourceAlpha" type="matrix" values="0 0 0 0 0 0 0 0 0 0 0 0 0 0 0 0 0 0 127 0" result="hardAlpha"/>
<feOffset/>
<feGaussianBlur stdDeviation="5.56786"/>
<feComposite in2="hardAlpha" operator="out"/>
<feColorMatrix type="matrix" values="0 0 0 0 0 0 0 0 0 0 0 0 0 0 0.568627 0 0 0 0.2 0"/>
<feBlend mode="normal" in2="BackgroundImageFix" result="effect1_dropShadow_1227_88417"/>
<feBlend mode="normal" in="SourceGraphic" in2="effect1_dropShadow_1227_88417" result="shape"/>
</filter>
<clipPath id="clip0_1227_88417">
<rect width="528" height="206" rx="12" fill="white"/>
</clipPath>
<clipPath id="clip1_1227_88417">
<rect width="37.3047" height="33.9639" fill="white" transform="translate(440.488 38.4265)"/>
</clipPath>
<clipPath id="clip2_1227_88417">
<rect width="36.7479" height="34.5207" fill="white" transform="translate(439.93 122.252)"/>
</clipPath>
<clipPath id="clip3_1227_88417">
<rect width="28.9529" height="33.4072" fill="white" transform="translate(354.27 6.26025)"/>
</clipPath>
<clipPath id="clip4_1227_88417">
<rect width="32.8504" height="32.8504" fill="white" transform="translate(351.488 91.1993)"/>
</clipPath>
<clipPath id="clip5_1227_88417">
<rect width="35.6343" height="31.7368" fill="white" transform="translate(350.93 179.479)"/>
</clipPath>
<clipPath id="clip6_1227_88417">
<rect width="31.9121" height="31.9121" fill="white" transform="translate(263.867 37.2358)"/>
</clipPath>
<clipPath id="clip7_1227_88417">
<rect width="36.1911" height="30.0664" fill="white" transform="translate(262.488 125.036)"/>
</clipPath>
</defs>
</svg>
