<svg width="100" height="101" viewBox="0 0 100 101" fill="none" xmlns="http://www.w3.org/2000/svg">
<rect width="100" height="101" rx="12" fill="#F5F5FE"/>
<path d="M59.2202 21.0069C54.9722 21.0274 52.1379 22.9614 52.1169 26.8157V52.9042C49.1286 54.9 47.1621 58.1096 47.1621 61.7307C47.1621 67.7796 52.5788 72.6969 59.2482 72.6969C65.9176 72.6969 71.3343 67.7796 71.3343 61.7307C71.3343 58.0959 69.3608 54.8794 66.3585 52.8837C66.2815 40.6898 66.4705 38.3512 66.3375 26.8089C66.3585 22.9546 63.5172 21.0206 59.2342 21H59.2202V21.0069ZM59.1992 22.3031C62.0895 22.3236 64.9309 23.613 64.9099 26.8157C64.9589 38.7695 64.9309 41.0465 64.9309 53.1923C64.9309 53.398 65.0498 53.5969 65.2388 53.7135C68.0521 55.4555 69.8997 58.4045 69.8997 61.7376C69.8997 67.087 65.1408 71.4076 59.2342 71.4076C53.3276 71.4076 48.5688 67.0801 48.5688 61.7376C48.5688 58.4114 50.4093 55.4761 53.2087 53.7341C53.3976 53.6175 53.5096 53.4186 53.5166 53.2129V26.8157C53.5376 23.613 56.3789 22.3236 59.1782 22.3031H59.1852H59.1992Z" fill="#000091" stroke="#000091" stroke-width="1.9" stroke-miterlimit="10"/>
<path d="M59.0871 25.628C58.7092 25.6622 58.4013 26.012 58.4433 26.3481C58.4853 26.6841 58.8702 26.9447 59.2411 26.9104H62.0824C62.4603 26.9104 62.7893 26.6087 62.7893 26.2658C62.7893 25.9229 62.4533 25.6211 62.0824 25.6211H59.0801L59.0871 25.628Z" fill="#000091"/>
<path d="M56.2473 28.208C55.8694 28.2423 55.5615 28.5921 55.6035 28.9281C55.6454 29.2642 56.0303 29.5248 56.4013 29.4905H62.0909C62.4688 29.4905 62.7977 29.1887 62.7977 28.8458C62.7977 28.5029 62.4618 28.2012 62.0909 28.2012H56.2473V28.208Z" fill="#000091"/>
<path d="M59.0871 30.792C58.7092 30.8263 58.4013 31.1761 58.4433 31.5121C58.4853 31.8482 58.8702 32.1088 59.2411 32.0745H62.0824C62.4603 32.0745 62.7893 31.7727 62.7893 31.4298C62.7893 31.0869 62.4533 30.7852 62.0824 30.7852H59.0801L59.0871 30.792Z" fill="#000091"/>
<path d="M56.2473 33.3721C55.8694 33.4064 55.5615 33.7562 55.6035 34.0922C55.6454 34.4283 56.0303 34.6889 56.4013 34.6546H62.0909C62.4688 34.6546 62.7977 34.3528 62.7977 34.0099C62.7977 33.667 62.4618 33.3652 62.0909 33.3652H56.2473V33.3721Z" fill="#000091"/>
<path d="M59.0871 35.9502C58.7092 35.9845 58.4013 36.3343 58.4433 36.6703C58.4853 37.0064 58.8702 37.267 59.2411 37.2327H62.0824C62.4603 37.2327 62.7893 36.9309 62.7893 36.588C62.7893 36.2451 62.4533 35.9434 62.0824 35.9434H59.0801L59.0871 35.9502Z" fill="#000091"/>
<path d="M56.2473 38.5283C55.8694 38.5626 55.5615 38.9124 55.6035 39.2485C55.6454 39.5845 56.0303 39.8451 56.4013 39.8108H62.0909C62.4688 39.8108 62.7977 39.5091 62.7977 39.1662C62.7977 38.8232 62.4618 38.5215 62.0909 38.5215H56.2473V38.5283Z" fill="#000091"/>
<path d="M56.6878 42.2596C56.4148 42.5065 56.4009 42.8014 56.4009 43.0414V56.5658C54.3154 57.5191 52.8457 59.4462 52.8457 61.7025C52.8457 64.8985 55.722 67.5114 59.2422 67.5114C62.7623 67.5114 65.6386 64.9053 65.6386 61.7025C65.6386 59.4394 64.176 57.5191 62.0835 56.5658V43.0414C62.0905 42.5751 61.4047 42.2322 60.9708 42.4996C59.6971 43.0346 58.6333 42.3693 57.5976 42.0402C57.2407 41.9647 56.9257 42.1636 56.6878 42.2596Z" fill="#000091"/>
<path d="M38.562 49.7358C31.8716 49.7358 26 44.4961 26 38.5227C26 32.5492 31.8716 27.3164 38.562 27.3164C39.7097 27.3164 40.8295 27.481 41.8862 27.7965C42.579 28.0022 43.0409 28.6195 43.0339 29.3259C43.0339 30.0322 42.558 30.6358 41.8652 30.8278C38.408 31.8359 35.9866 35.0044 35.9866 38.5295C35.9866 42.0546 38.408 45.2231 41.8792 46.2313C42.579 46.437 43.0409 47.0542 43.0339 47.7675C43.0339 48.4739 42.558 49.0774 41.8652 49.2694C40.8225 49.5849 39.7027 49.7426 38.555 49.7426L38.562 49.7358ZM38.562 29.3739C33.0893 29.3739 28.0995 33.7357 28.0995 38.5295C28.0995 43.3234 33.0823 47.6852 38.562 47.6852C38.9539 47.6852 39.3458 47.6646 39.7307 47.6166C36.2246 45.9501 33.8871 42.4113 33.8871 38.5295C33.8871 34.6478 36.2246 31.1158 39.7307 29.4424C39.3458 29.3944 38.9539 29.3739 38.562 29.3739ZM41.2703 47.2874C41.2703 47.2874 41.2633 47.2874 41.2564 47.2874C41.2564 47.2874 41.2633 47.2874 41.2703 47.2874ZM41.2843 28.8526H41.2773C41.2773 28.8526 41.2773 28.8526 41.2843 28.8526Z" fill="#000091"/>
</svg>
