<svg width="100" height="102" viewBox="0 0 100 102" fill="none" xmlns="http://www.w3.org/2000/svg">
<rect y="0.548828" width="100" height="101" rx="12" fill="#F5F5FE"/>
<path d="M61.5649 24.1942C57.4315 24.2144 54.6736 26.1119 54.6532 29.8935V55.4898C51.7455 57.4479 49.832 60.5969 49.832 64.1497C49.832 70.0845 55.1026 74.909 61.5921 74.909C68.0816 74.909 73.3522 70.0845 73.3522 64.1497C73.3522 60.5835 71.4319 57.4277 68.5106 55.4696C68.4357 43.5058 68.6196 41.2113 68.4902 29.8868C68.5106 26.1052 65.746 24.2077 61.5785 24.1875H61.5649V24.1942ZM61.5445 25.466C64.3568 25.4862 67.1215 26.7512 67.1011 29.8935C67.1487 41.6218 67.1215 43.8557 67.1215 55.7724C67.1215 55.9742 67.2373 56.1694 67.4211 56.2838C70.1586 57.9929 71.9563 60.8863 71.9563 64.1564C71.9563 69.4049 67.3258 73.644 61.5785 73.644C55.8312 73.644 51.2008 69.3982 51.2008 64.1564C51.2008 60.893 52.9917 58.0131 55.7155 56.304C55.8993 56.1896 56.0083 55.9944 56.0151 55.7926V29.8935C56.0355 26.7512 58.8002 25.4862 61.524 25.466H61.5308H61.5445Z" fill="#000091" stroke="#000091" stroke-width="1.9" stroke-miterlimit="10"/>
<path d="M61.4369 28.7294C61.0691 28.763 60.7695 29.1062 60.8104 29.4359C60.8512 29.7656 61.2258 30.0213 61.5867 29.9877H64.3514C64.7191 29.9877 65.0391 29.6916 65.0391 29.3552C65.0391 29.0187 64.7123 28.7227 64.3514 28.7227H61.4301L61.4369 28.7294Z" fill="#000091"/>
<path d="M58.6712 31.2606C58.3035 31.2943 58.0039 31.6374 58.0448 31.9672C58.0856 32.2969 58.4601 32.5526 58.821 32.5189H64.3572C64.7249 32.5189 65.045 32.2229 65.045 31.8864C65.045 31.55 64.7181 31.2539 64.3572 31.2539H58.6712V31.2606Z" fill="#000091"/>
<path d="M61.4369 33.7958C61.0691 33.8294 60.7695 34.1726 60.8104 34.5023C60.8512 34.832 61.2258 35.0877 61.5867 35.0541H64.3514C64.7191 35.0541 65.0391 34.758 65.0391 34.4216C65.0391 34.0851 64.7123 33.7891 64.3514 33.7891H61.4301L61.4369 33.7958Z" fill="#000091"/>
<path d="M58.6712 36.327C58.3035 36.3607 58.0039 36.7039 58.0448 37.0336C58.0856 37.3633 58.4601 37.619 58.821 37.5853H64.3572C64.7249 37.5853 65.045 37.2893 65.045 36.9528C65.045 36.6164 64.7181 36.3203 64.3572 36.3203H58.6712V36.327Z" fill="#000091"/>
<path d="M61.4369 38.8563C61.0691 38.89 60.7695 39.2331 60.8104 39.5629C60.8512 39.8926 61.2258 40.1483 61.5867 40.1146H64.3514C64.7191 40.1146 65.0391 39.8186 65.0391 39.4821C65.0391 39.1457 64.7123 38.8496 64.3514 38.8496H61.4301L61.4369 38.8563Z" fill="#000091"/>
<path d="M58.6712 41.3876C58.3035 41.4212 58.0039 41.7644 58.0448 42.0941C58.0856 42.4238 58.4601 42.6795 58.821 42.6459H64.3572C64.7249 42.6459 65.045 42.3498 65.045 42.0134C65.045 41.6769 64.7181 41.3809 64.3572 41.3809H58.6712V41.3876Z" fill="#000091"/>
<path d="M59.0998 45.0481C58.8342 45.2904 58.8206 45.5797 58.8206 45.8152V59.0844C56.7913 60.0197 55.3613 61.9104 55.3613 64.1242C55.3613 67.2598 58.1601 69.8235 61.5853 69.8235C65.0105 69.8235 67.8092 67.2666 67.8092 64.1242C67.8092 61.9037 66.386 60.0197 64.3499 59.0844V45.8152C64.3568 45.3576 63.6894 45.0212 63.2672 45.2836C62.0279 45.8085 60.9928 45.1558 59.985 44.8328C59.6377 44.7588 59.3313 44.9539 59.0998 45.0481Z" fill="#000091"/>
<path d="M30.4461 32.7602C28.1308 32.7602 25.9109 33.6686 24.2766 35.2835C22.6423 36.8984 21.723 39.092 21.723 41.3798C21.723 43.6675 22.6423 45.8611 24.2766 47.476C25.9109 49.0909 28.1308 49.9993 30.4461 49.9993C32.7613 49.9993 34.9812 49.0909 36.6155 47.476C38.2498 45.8611 39.1691 43.6675 39.1691 41.3798C39.1691 39.092 38.2498 36.8984 36.6155 35.2835C34.9812 33.6686 32.7613 32.7602 30.4461 32.7602ZM30.4461 47.5433C28.7914 47.5433 27.2115 46.8974 26.0403 45.74C24.8691 44.5827 24.2153 43.0216 24.2153 41.3865C24.2153 39.7514 24.8691 38.1903 26.0403 37.033C27.2115 35.8756 28.7914 35.2297 30.4461 35.2297C32.1008 35.2297 33.6806 35.8756 34.8519 37.033C36.0231 38.1903 36.6768 39.7514 36.6768 41.3865C36.6768 43.0216 36.0231 44.5827 34.8519 45.74C33.6806 46.8974 32.1008 47.5433 30.4461 47.5433ZM29.1999 29.0661V25.372C29.1999 24.6924 29.7583 24.1406 30.4461 24.1406C31.1338 24.1406 31.6922 24.6924 31.6922 25.372V29.0661C31.6922 29.7457 31.1338 30.2975 30.4461 30.2975C29.7583 30.2975 29.1999 29.7457 29.1999 29.0661ZM17.9846 42.6111H14.2461C13.5584 42.6111 13 42.0594 13 41.3798C13 40.7001 13.5584 40.1484 14.2461 40.1484H17.9846C18.6724 40.1484 19.2307 40.7001 19.2307 41.3798C19.2307 42.0594 18.6724 42.6111 17.9846 42.6111ZM22.4449 49.1515C22.9283 49.6292 22.9283 50.4098 22.4449 50.8875L19.7755 53.4714C19.544 53.7001 19.2307 53.828 18.9039 53.828C18.5634 53.828 18.2434 53.7001 18.005 53.4579C17.5147 52.9869 17.5011 52.2064 17.9778 51.7219L20.6471 49.138C20.8855 48.9025 21.2055 48.768 21.546 48.768C21.8865 48.768 22.2065 48.9093 22.438 49.1515H22.4449ZM42.6897 51.9372C43.0369 52.2938 43.1459 52.8187 42.9484 53.2762C42.7578 53.7338 42.3083 54.0299 41.8044 54.0366C41.4708 54.0366 41.1507 53.902 40.9192 53.6665L38.3043 51.0288C37.8821 50.5376 37.9162 49.8109 38.3792 49.3601C38.8423 48.9093 39.5845 48.8891 40.0748 49.3063L42.6897 51.9439V51.9372ZM47.899 41.5278C47.899 41.8575 47.7696 42.167 47.5313 42.3958C47.2997 42.6246 46.9797 42.7592 46.6528 42.7592H42.9144C42.2266 42.7592 41.6682 42.2074 41.6682 41.5278C41.6682 40.8482 42.2266 40.2964 42.9144 40.2964H46.6528C46.9865 40.2964 47.2997 40.4243 47.5313 40.6598C47.7628 40.8886 47.899 41.2048 47.899 41.5278ZM38.4473 33.608C37.9638 33.1303 37.9638 32.3497 38.4473 31.872L41.1167 29.2881C41.6069 28.7969 42.4037 28.7902 42.9008 29.2747C43.3979 29.7592 43.4047 30.5464 42.9144 31.0376L40.211 33.6215C39.9863 33.857 39.6662 33.9848 39.3394 33.9781C39.0057 33.9781 38.6856 33.8435 38.4541 33.608H38.4473ZM18.2093 30.8156C17.9778 30.5801 17.8484 30.2638 17.8552 29.9341C17.8552 29.6044 17.9982 29.2949 18.2365 29.0661C18.72 28.5883 19.5099 28.5883 19.9934 29.0661L22.6083 31.7038C23.0918 32.1815 23.0918 32.9621 22.6083 33.4398C22.3768 33.6686 22.0635 33.7964 21.7367 33.7964C21.3962 33.7964 21.0761 33.6686 20.8378 33.4263L18.2093 30.8156ZM31.6922 53.7001V57.3942C31.6922 58.0739 31.1338 58.6256 30.4461 58.6256C29.7583 58.6256 29.1999 58.0739 29.1999 57.3942V53.7001C29.1999 53.0205 29.7583 52.4688 30.4461 52.4688C31.1338 52.4688 31.6922 53.0205 31.6922 53.7001Z" fill="#000091"/>
</svg>
