<svg width="100" height="101" viewBox="0 0 100 101" fill="none" xmlns="http://www.w3.org/2000/svg">
<rect width="100" height="101" rx="12" fill="#F5F5FE"/>
<path d="M62.6129 25.0071C58.2238 25.0285 55.2954 27.0355 55.2737 31.0352V58.1082C52.1861 60.1792 50.1543 63.51 50.1543 67.2677C50.1543 73.5449 55.7509 78.6478 62.6418 78.6478C69.5327 78.6478 75.1293 73.5449 75.1293 67.2677C75.1293 63.4957 73.0902 60.1579 69.9882 58.0868C69.9087 45.4328 70.1039 43.006 69.9665 31.0281C69.9882 27.0283 67.0526 25.0214 62.6273 25H62.6129V25.0071ZM62.5912 26.3522C65.5775 26.3736 68.5132 27.7116 68.4915 31.0352C68.5421 43.4401 68.5132 45.8029 68.5132 58.4071C68.5132 58.6206 68.6361 58.827 68.8313 58.948C71.7381 60.7557 73.647 63.816 73.647 67.2748C73.647 72.8261 68.7301 77.3098 62.6273 77.3098C56.5246 77.3098 51.6077 72.819 51.6077 67.2748C51.6077 63.8231 53.5094 60.777 56.4017 58.9693C56.5969 58.8483 56.7126 58.6419 56.7198 58.4284V31.0352C56.7415 27.7116 59.6772 26.3736 62.5695 26.3522H62.5767H62.5912Z" fill="#000091" stroke="#000091" stroke-width="1.9" stroke-miterlimit="10"/>
<path d="M62.4758 29.804C62.0854 29.8396 61.7672 30.2025 61.8106 30.5513C61.854 30.9 62.2517 31.1705 62.6349 31.1349H65.5706C65.9611 31.1349 66.3009 30.8217 66.3009 30.4659C66.3009 30.11 65.9538 29.7969 65.5706 29.7969H62.4686L62.4758 29.804Z" fill="#000091"/>
<path d="M59.5403 32.4798C59.1498 32.5154 58.8317 32.8783 58.8751 33.2271C58.9184 33.5758 59.3161 33.8462 59.6994 33.8106H65.578C65.9684 33.8106 66.3083 33.4975 66.3083 33.1417C66.3083 32.7858 65.9612 32.4727 65.578 32.4727H59.5403V32.4798Z" fill="#000091"/>
<path d="M62.4758 35.1634C62.0854 35.199 61.7672 35.5619 61.8106 35.9106C61.854 36.2594 62.2517 36.5298 62.6349 36.4942H65.5706C65.9611 36.4942 66.3009 36.1811 66.3009 35.8252C66.3009 35.4694 65.9538 35.1562 65.5706 35.1562H62.4686L62.4758 35.1634Z" fill="#000091"/>
<path d="M59.5403 37.8391C59.1498 37.8747 58.8317 38.2377 58.8751 38.5864C58.9184 38.9352 59.3161 39.2056 59.6994 39.17H65.578C65.9684 39.17 66.3083 38.8569 66.3083 38.501C66.3083 38.1452 65.9612 37.832 65.578 37.832H59.5403V37.8391Z" fill="#000091"/>
<path d="M62.4758 40.5149C62.0854 40.5505 61.7672 40.9135 61.8106 41.2622C61.854 41.6109 62.2517 41.8814 62.6349 41.8458H65.5706C65.9611 41.8458 66.3009 41.5327 66.3009 41.1768C66.3009 40.821 65.9538 40.5078 65.5706 40.5078H62.4686L62.4758 40.5149Z" fill="#000091"/>
<path d="M59.5403 43.1907C59.1498 43.2263 58.8317 43.5893 58.8751 43.938C58.9184 44.2867 59.3161 44.5572 59.6994 44.5216H65.578C65.9684 44.5216 66.3083 44.2084 66.3083 43.8526C66.3083 43.4967 65.9612 43.1836 65.578 43.1836H59.5403V43.1907Z" fill="#000091"/>
<path d="M59.9951 47.0634C59.7131 47.3197 59.6986 47.6257 59.6986 47.8748V61.9095C57.5438 62.8987 56.0254 64.8986 56.0254 67.2401C56.0254 70.5566 58.9972 73.2682 62.6343 73.2682C66.2714 73.2682 69.2432 70.5637 69.2432 67.2401C69.2432 64.8915 67.732 62.8987 65.57 61.9095V47.8748C65.5772 47.3908 64.8686 47.035 64.4203 47.3125C63.1043 47.8677 62.0052 47.1773 60.9351 46.8357C60.5663 46.7574 60.2409 46.9638 59.9951 47.0634Z" fill="#000091"/>
<path d="M43.646 30.2178L46.1045 30.6591C42.5614 33.3635 37.4493 33.2426 34.0508 30.1538C31.9178 28.2108 29.1339 27.2074 26.2055 27.3212C23.6024 27.4209 21.1729 28.403 19.2856 30.104C18.9096 30.4385 18.9024 31.0221 19.2784 31.3637C19.5459 31.6128 19.9726 31.6199 20.2401 31.3708C21.8742 29.8549 23.9929 28.9795 26.2778 28.887C28.7796 28.7944 31.1585 29.6485 32.9807 31.3067C35.0776 33.2141 37.7385 34.1535 40.3922 34.1535C42.5903 34.1535 44.7885 33.5059 46.654 32.2177L46.2997 34.1322C46.2419 34.4524 46.4588 34.7585 46.7769 34.8154L47.0517 34.8652C47.4422 34.9364 47.8109 34.6802 47.8833 34.2959L48.6714 30.0257C48.722 29.7552 48.5413 29.4919 48.2593 29.4421L43.74 28.6379C43.4508 28.588 43.176 28.7731 43.1254 29.0578L43.0676 29.3852C42.9953 29.7766 43.2556 30.1467 43.6533 30.2178H43.646Z" fill="#000091" stroke="#000091" stroke-width="0.5" stroke-miterlimit="10"/>
<path d="M43.646 39.6319L46.1045 40.0732C42.5614 42.7776 37.4493 42.6566 34.0508 39.5678C31.9178 37.6249 29.1339 36.6214 26.2055 36.7353C23.6024 36.8349 21.1729 37.8171 19.2856 39.518C18.9096 39.8525 18.9024 40.4361 19.2784 40.7777C19.5459 41.0268 19.9726 41.0339 20.2401 40.7848C21.8742 39.2689 23.9929 38.3935 26.2778 38.301C28.7796 38.2085 31.1585 39.0625 32.9807 40.7208C35.0776 42.6281 37.7385 43.5676 40.3922 43.5676C42.5903 43.5676 44.7885 42.9199 46.654 41.6318L46.2997 43.5462C46.2419 43.8665 46.4588 44.1725 46.7769 44.2295L47.0517 44.2793C47.4422 44.3505 47.8109 44.0942 47.8833 43.7099L48.6714 39.4397C48.722 39.1693 48.5413 38.906 48.2593 38.8561L43.74 38.0519C43.4508 38.0021 43.176 38.1872 43.1254 38.4718L43.0676 38.7992C42.9953 39.1906 43.2556 39.5607 43.6533 39.6319H43.646Z" fill="#000091" stroke="#000091" stroke-width="0.5" stroke-miterlimit="10"/>
<path d="M43.646 49.0479L46.1045 49.4892C42.5614 52.1936 37.4493 52.0726 34.0508 48.9839C31.9178 47.0409 29.1339 46.0374 26.2055 46.1513C23.6024 46.2509 21.1729 47.2331 19.2856 48.934C18.9096 49.2685 18.9024 49.8521 19.2784 50.1937C19.5459 50.4428 19.9726 50.45 20.2401 50.2009C21.8742 48.6849 23.9929 47.8096 26.2778 47.717C28.7796 47.6245 31.1585 48.4786 32.9807 50.1368C35.0776 52.0442 37.7385 52.9836 40.3922 52.9836C42.5903 52.9836 44.7885 52.336 46.654 51.0478L46.2997 52.9623C46.2419 53.2825 46.4588 53.5885 46.7769 53.6455L47.0517 53.6953C47.4422 53.7665 47.8109 53.5103 47.8833 53.1259L48.6714 48.8558C48.722 48.5853 48.5413 48.322 48.2593 48.2722L43.74 47.4679C43.4508 47.4181 43.176 47.6032 43.1254 47.8878L43.0676 48.2152C42.9953 48.6067 43.2556 48.9767 43.6533 49.0479H43.646Z" fill="#000091" stroke="#000091" stroke-width="0.5" stroke-miterlimit="10"/>
</svg>
