<svg width="518" height="353" viewBox="0 0 518 353" fill="none" xmlns="http://www.w3.org/2000/svg">
<path d="M255.042 239.606C245.943 193.689 274.096 147.299 320.467 128.622C350.063 116.7 378.104 98.6733 412.309 110.13C430.73 116.306 439.355 140.236 458.962 144.407C487.431 150.465 510.127 132.25 535.467 125.257C568.714 116.079 601.005 115.594 630.811 140.261C674.757 176.622 681.609 208.984 659.877 279.11L563.325 313.637C552.693 308.42 542.179 302.648 531.143 299.538C473.031 283.156 418.689 301.497 364.008 314.453C314.241 326.244 265.744 293.625 255.045 239.614L255.042 239.606ZM947.563 58.7291C924.091 41.7474 897.684 34.4963 873.478 52.7442C849.241 71.0173 846.15 98.002 857.867 127.879C868.527 155.043 891.104 170.569 910.033 189.645L882.832 199.372C874.358 188.21 866.265 176.642 856.883 166.474C824.612 131.482 818.248 81.5411 842.728 49.0445C868.768 14.4847 916.741 11.3927 954.598 38.0281C994.543 66.1293 1036.43 89.1028 1082.99 66.2836L1094.69 100.561C1041.32 110.684 993.46 91.9517 947.565 58.737L947.563 58.7291ZM991.535 -68.9348C994.898 -66.1826 997.791 -62.7388 1000.91 -59.6173C997.212 -61.0565 993.481 -62.394 989.822 -63.9448C980.989 -67.6869 972.211 -71.5955 963.373 -75.3024C872.946 -113.19 799.561 -81.8151 759.72 10.0296C726.61 86.3512 740.557 166.771 749.73 246.976L701.057 264.38C697.237 180.808 724.633 104.803 740.736 26.1273C767.954 -106.877 889.4 -152.564 991.544 -68.9289L991.535 -68.9348ZM66.6295 314.738C82.1559 294.116 110.262 292.196 135.864 303.924C169.322 319.25 188.453 353.528 214.909 378.164C232.851 394.872 252.877 406.862 273.9 417.134L147.649 462.286C152.652 415.526 125.366 388.024 92.7162 361.63C79.1927 350.699 46.6723 341.255 66.6388 314.744L66.6295 314.738ZM995.262 17.3616C925.675 -26.1186 865.117 -40.5878 815.774 33.5022C789.124 73.5242 797.617 138.707 836.205 192.012C840.725 198.251 844.716 204.936 848.814 211.533L788.431 233.129C783.278 202.034 777.607 171.001 773.292 139.816C761.943 57.8151 792.681 -19.0947 857.939 -49.338C911.571 -74.1965 961.408 -46.2821 1006.62 -7.77856C1019.22 2.95885 1033.94 19.7396 1050.6 4.73696C1055.8 0.0514753 1057.12 -5.62704 1056.41 -11.5455L1070.63 30.106C1044.36 47.3125 1018.94 32.1691 995.257 17.3714L995.262 17.3616ZM936.384 -136.618C862.744 -174.759 748.449 -119.884 728.904 -36.7432C718.047 9.44238 705.391 55.0973 691.836 100.301C687.841 113.623 675.901 128.956 662.239 119.867C648.085 110.455 663.413 98.9058 667.875 88.6904C676.005 70.0757 686.309 52.085 691.036 32.2809C709.28 -44.1918 733.222 -115.779 800.318 -157.087C812.164 -164.379 823.339 -175.313 812.838 -191.813C804.709 -204.594 791.609 -200.806 781.421 -194.33C725.667 -158.896 700.201 -99.7001 680.618 -35.7273C669.449 0.762775 665.314 41.7467 636.018 67.7541C611.855 89.2052 579.011 82.7338 550.682 91.2442C527.253 98.2813 503.478 112.305 478.318 102.593C459.567 95.3575 443.972 76.5609 425.179 69.9946C374.73 52.3692 333.782 79.1956 295.569 106.268C253.496 136.07 212.089 164.032 159.352 168.991C110.106 173.622 64.9301 190.553 29.686 229.115C23.5572 235.82 18.7228 244.591 24.2971 254.361C30.0661 264.459 39.2112 262.768 47.7143 259.68C82.648 246.978 112.782 223.126 149.69 214.4C184.347 206.211 217.359 222.18 220.953 252.554C227.195 305.338 268.661 351.223 316.853 353.582C364.675 355.93 407.158 329.874 453.928 324.97C475.976 322.656 498.051 318.505 519.467 329.304L453.019 353.066C427.575 351.935 403.098 358.224 379.601 366.03C305.6 390.618 245.626 370.651 196.445 299.849C164.968 254.536 128.591 248.32 68.1495 273.45C46.658 282.39 23.5806 299.61 6.31905 269.059C-9.63654 240.816 12.9064 223.68 29.2241 207.799C52.2918 185.367 68.366 158.085 82.3083 128.032C96.4474 97.5469 120.514 115.753 140.764 122.604C207.907 145.316 263.163 118.579 306.644 72.4101C356.863 19.0779 406.798 16.4727 470.394 48.6572C534.791 81.2428 611.308 60.8327 643.947 7.09816C669.437 -34.8575 674.144 -87.7567 693.8 -133.085C717.209 -187.064 734.977 -247.107 788.82 -274.706C827.294 -294.431 855.293 -266.234 878.364 -234.793C917.593 -181.347 970.711 -144.499 1013.95 -95.9846C1021.65 -87.3401 1029.13 -78.4677 1036.6 -69.5854L1051.1 -27.1069C1050.06 -29.1908 1048.96 -31.2163 1047.89 -33.1492C1021.29 -81.1945 982.294 -112.848 936.373 -136.632L936.384 -136.618Z" fill="#D5D5F5" fill-opacity="0.45"/>
</svg>
