<svg width="321" height="265" viewBox="0 0 321 265" fill="none" xmlns="http://www.w3.org/2000/svg">
<g clip-path="url(#clip0_32830_2102)">
<path d="M155.166 259.369C200.011 259.369 236.365 253.624 236.365 246.536C236.365 239.449 200.011 233.703 155.166 233.703C110.322 233.703 73.9678 239.449 73.9678 246.536C73.9678 253.624 110.322 259.369 155.166 259.369Z" fill="white"/>
<path d="M76.3498 264.73C118.249 264.73 152.215 259.364 152.215 252.745C152.215 246.125 118.249 240.759 76.3498 240.759C34.4508 240.759 0.484863 246.125 0.484863 252.745C0.484863 259.364 34.4508 264.73 76.3498 264.73Z" fill="white"/>
<path d="M244.65 264.73C286.549 264.73 320.515 259.364 320.515 252.745C320.515 246.125 286.549 240.759 244.65 240.759C202.751 240.759 168.785 246.125 168.785 252.745C168.785 259.364 202.751 264.73 244.65 264.73Z" fill="white"/>
<path d="M188.467 134.658C189.383 137.318 188.383 141.602 190.474 141.512C192.335 141.449 192.738 138.436 192.738 138.436C192.738 138.436 193.384 141.977 195.363 141.345C197.342 140.713 197.12 137.318 197.12 137.318C197.12 137.318 197.523 140.29 199.453 139.519C201.384 138.748 201.724 135.825 201.724 135.825C201.724 135.825 202.419 136.595 203.544 135.436C205.148 133.776 204.468 128.832 203.495 126.332C202.523 123.832 197.134 115.409 196.287 114.131L180.202 120.214C180.202 120.214 179.876 125.45 180.036 128.123C180.195 130.797 183.161 139.463 185.362 138.873C187.564 138.283 185.362 132.2 185.147 130.589C184.932 128.978 185.272 128.658 185.932 129.311C186.362 129.755 188.064 133.505 188.467 134.658Z" fill="#CE614A"/>
<path d="M192.689 138.304C192.953 134.068 192.342 132.165 190.335 128.491C190.293 128.422 190.39 128.346 190.439 128.422C192.731 131.832 193.849 134.109 192.891 138.331C192.849 138.533 192.675 138.505 192.689 138.304Z" fill="#3A3A3A"/>
<path d="M197.065 137.519C196.961 133.089 196.308 131.019 194.495 127.019C194.495 126.964 194.558 126.915 194.592 126.971C196.676 130.742 197.766 133.04 197.287 137.477C197.266 137.679 197.072 137.72 197.065 137.519Z" fill="#3A3A3A"/>
<path d="M201.683 135.797C201.273 131.519 200.655 129.221 198.398 125.568C198.392 125.56 198.388 125.551 198.385 125.541C198.383 125.531 198.383 125.521 198.384 125.511C198.386 125.501 198.389 125.491 198.395 125.482C198.4 125.474 198.407 125.466 198.415 125.46C198.423 125.454 198.433 125.45 198.443 125.448C198.452 125.446 198.463 125.445 198.473 125.447C198.483 125.448 198.492 125.452 198.501 125.457C198.509 125.463 198.517 125.47 198.523 125.478C201.197 128.95 201.995 131.839 201.815 135.776C201.801 136.047 201.711 136.047 201.683 135.797Z" fill="#3A3A3A"/>
<path d="M169.376 63.9102C180.216 77.3264 194.891 110.207 196.648 114.888C197.842 118.068 181.175 124.755 180.675 122.471C180.05 119.554 169.153 83.236 166.591 69.6947C165.195 62.1811 167.132 61.1395 169.376 63.9102Z" fill="#CE614A"/>
<path d="M166.459 73.1043C168.244 85.4998 178.897 119.888 178.897 119.888L191.529 115.082L197.905 112.652C197.905 112.652 179.848 78.3125 172.258 66.9379C171.667 66.0629 171.126 65.306 170.626 64.6741C165.834 58.577 165.084 63.556 166.459 73.1043Z" fill="#3A3A3A"/>
<path d="M191.606 109.11C191.374 108.232 191.374 107.308 191.606 106.43C191.838 107.308 191.838 108.232 191.606 109.11Z" fill="white"/>
<path d="M168.66 65.7504C168.538 65.3121 168.479 64.8583 168.486 64.4032C168.479 63.9504 168.538 63.499 168.66 63.063C168.779 63.4997 168.838 63.9506 168.834 64.4032C168.838 64.8581 168.779 65.3114 168.66 65.7504Z" fill="white"/>
<path d="M182.793 102.249C183.672 102.018 184.595 102.018 185.474 102.249C184.595 102.481 183.672 102.481 182.793 102.249Z" fill="white"/>
<path d="M176.237 85.097C177.118 84.8654 178.044 84.8654 178.925 85.097C178.49 85.2225 178.038 85.281 177.585 85.2706C177.129 85.278 176.676 85.2195 176.237 85.097Z" fill="white"/>
<path d="M186.425 94.937C186.032 94.7127 185.672 94.4346 185.356 94.1107C185.029 93.7965 184.751 93.4362 184.529 93.0413C185.313 93.5007 185.966 94.1534 186.425 94.937Z" fill="white"/>
<path d="M173.126 73.8753C172.733 73.6509 172.373 73.3728 172.056 73.0489C171.73 72.7347 171.452 72.3744 171.23 71.9795C171.625 72.2012 171.985 72.4796 172.299 72.8058C172.623 73.1221 172.902 73.4821 173.126 73.8753Z" fill="white"/>
<path d="M177.112 108.534C176.324 108.077 175.669 107.424 175.209 106.638C175.606 106.86 175.969 107.138 176.285 107.464C176.608 107.782 176.886 108.142 177.112 108.534Z" fill="white"/>
<path d="M177.585 94.3816C177.358 94.7757 177.08 95.1377 176.758 95.4579C176.44 95.7824 176.077 96.0605 175.682 96.2843C176.138 95.4944 176.795 94.8382 177.585 94.3816Z" fill="white"/>
<path d="M185.932 113.131C185.475 113.918 184.822 114.574 184.036 115.034C184.258 114.637 184.537 114.274 184.863 113.957C185.179 113.633 185.539 113.355 185.932 113.131Z" fill="white"/>
<path d="M172.174 78.6321C171.715 79.4157 171.062 80.0684 170.278 80.5279C170.738 79.7442 171.391 79.0915 172.174 78.6321Z" fill="white"/>
<path d="M178.196 116.179C185.696 112.645 194.106 110.076 195.558 109.52C195.565 109.518 195.572 109.517 195.58 109.518C195.588 109.518 195.595 109.52 195.602 109.524C195.609 109.528 195.615 109.532 195.62 109.538C195.624 109.544 195.628 109.551 195.63 109.558C195.633 109.565 195.634 109.573 195.633 109.581C195.632 109.588 195.63 109.596 195.626 109.603C195.623 109.609 195.618 109.615 195.612 109.62C195.606 109.625 195.6 109.629 195.592 109.631C194.155 110.103 184.863 114.082 178.23 116.298C178.154 116.325 178.126 116.214 178.196 116.179Z" fill="#3A3A3A"/>
<path d="M190.3 115.548L178.897 119.888C178.897 119.888 168.244 85.4999 166.459 73.1044C165.556 66.8546 165.57 62.5492 167.035 62.0562L190.3 115.548Z" fill="#3A3A3A"/>
<path d="M157.417 210.51C157.417 210.51 157.417 236.127 157.417 236.148C157.417 241.044 157.458 245.342 157.694 247.557C157.691 247.571 157.691 247.585 157.694 247.599C157.696 248.124 157.818 248.641 158.048 249.113C159.5 250.113 198.655 251.453 200.037 251.036C201.419 250.62 200.349 246.654 198.87 245.391C197.391 244.127 182.626 236.912 182.626 236.912L182.376 211.301L157.417 210.51Z" fill="#FB907D"/>
<path d="M157.424 230.884V236.148C157.424 241.043 157.465 245.342 157.702 247.557C157.698 247.571 157.698 247.585 157.702 247.599C157.76 248.116 157.879 248.624 158.056 249.113C159.507 250.113 198.662 251.453 200.044 251.036C201.426 250.62 200.357 246.654 198.877 245.391C197.398 244.127 182.633 236.912 182.633 236.912L182.703 231.572L157.424 230.884Z" fill="#3A3A3A"/>
<path d="M200.086 251.064C198.697 251.481 159.556 250.14 158.097 249.141C157.535 248.772 157.403 243.057 157.403 236.148V235.933L182.668 236.509V236.94C182.668 236.94 197.426 244.155 198.912 245.418C200.398 246.682 201.475 250.661 200.086 251.064Z" fill="#3A3A3A"/>
<path d="M199.69 249.536C193.092 249.147 166.459 248.203 159.917 248.321C159.861 248.321 159.861 248.356 159.917 248.363C166.445 248.89 193.085 249.613 199.69 249.64C199.821 249.64 199.828 249.543 199.69 249.536Z" fill="#3A3A3A"/>
<path d="M184.807 237.092C182.23 236.516 179.043 236.808 176.994 238.585C176.911 238.655 176.994 238.766 177.098 238.745C179.599 238.033 182.17 237.593 184.765 237.433C184.81 237.438 184.856 237.426 184.892 237.398C184.927 237.37 184.951 237.328 184.956 237.283C184.962 237.238 184.949 237.193 184.921 237.157C184.893 237.121 184.852 237.098 184.807 237.092Z" fill="#3A3A3A"/>
<path d="M186.626 238.28C184.043 237.71 180.855 238.002 178.806 239.78C178.73 239.849 178.806 239.96 178.911 239.939C181.42 239.22 184 238.775 186.605 238.613C186.65 238.616 186.693 238.601 186.726 238.572C186.76 238.542 186.78 238.501 186.782 238.457C186.785 238.413 186.77 238.369 186.741 238.336C186.712 238.303 186.67 238.282 186.626 238.28Z" fill="#3A3A3A"/>
<path d="M188.46 239.474C185.884 238.905 182.689 239.196 180.64 240.974C180.564 241.043 180.64 241.155 180.751 241.134C183.258 240.414 185.836 239.969 188.439 239.807C188.483 239.81 188.527 239.795 188.56 239.766C188.593 239.737 188.614 239.695 188.616 239.651C188.619 239.607 188.604 239.563 188.575 239.53C188.546 239.497 188.504 239.477 188.46 239.474Z" fill="#3A3A3A"/>
<path d="M155.173 115.513L156.153 192.087L156.729 237.224L184.133 236.682L178.772 113.985L178.501 99.9368H155.361L155.173 115.513Z" fill="#DFDFDF"/>
<path d="M182.988 232.106C178.71 232.072 179.932 232.023 175.654 232.03C173.57 232.03 159.799 232.086 157.847 232.433C157.836 232.433 157.826 232.437 157.818 232.445C157.81 232.453 157.806 232.463 157.806 232.474C157.806 232.485 157.81 232.496 157.818 232.504C157.826 232.512 157.836 232.516 157.847 232.516C159.806 232.822 173.563 232.516 175.654 232.516C179.932 232.419 178.703 232.398 182.981 232.259C182.991 232.26 183.001 232.258 183.01 232.255C183.019 232.251 183.028 232.246 183.036 232.239C183.043 232.232 183.049 232.224 183.053 232.215C183.058 232.206 183.06 232.196 183.06 232.186C183.061 232.176 183.059 232.166 183.056 232.157C183.053 232.147 183.047 232.139 183.041 232.131C183.034 232.124 183.026 232.118 183.016 232.114C183.007 232.109 182.998 232.107 182.988 232.106Z" fill="#3A3A3A"/>
<path d="M170.778 120.242C170.778 120.186 170.869 120.186 170.869 120.242C170.869 127.401 171.091 134.568 171.264 141.727C171.438 148.887 171.646 156.053 171.841 163.22C172.23 177.532 172.806 191.844 173.334 206.156C173.63 214.183 174.001 222.209 174.445 230.231C174.445 230.28 174.369 230.28 174.362 230.231C173.327 215.933 172.327 201.635 171.764 187.309C171.202 172.983 170.785 158.678 170.716 144.352C170.681 136.318 170.792 128.283 170.778 120.242Z" fill="#3A3A3A"/>
<path d="M155.173 115.513L156.153 192.087L174.522 99.9368H155.361L155.173 115.513Z" fill="#3A3A3A"/>
<path d="M151.965 211.273C151.965 211.273 148.694 235.696 148.694 235.71C148.694 240.613 148.548 244.904 148.284 247.127C148.287 247.138 148.287 247.15 148.284 247.161C148.277 247.685 148.151 248.2 147.916 248.668V248.703C146.451 249.682 107.282 250.571 105.907 250.14C104.532 249.71 105.643 245.759 107.136 244.509C108.629 243.259 123.477 236.217 123.477 236.217L127.589 210.628L151.965 211.273Z" fill="#FB907D"/>
<path d="M149.111 230.488C148.854 233.551 148.68 235.717 148.68 235.731C148.68 240.634 148.534 244.925 148.27 247.147C148.273 247.159 148.273 247.171 148.27 247.182C148.208 247.697 148.084 248.203 147.902 248.689V248.724C146.437 249.703 107.268 250.592 105.893 250.161C104.518 249.731 105.629 245.779 107.123 244.53C108.616 243.28 123.464 236.238 123.464 236.238L123.95 230.835L149.111 230.488Z" fill="#3A3A3A"/>
<path d="M105.859 250.14C107.247 250.571 146.395 249.682 147.868 248.703C148.43 248.335 148.631 242.627 148.68 235.71V235.495L123.408 235.787V236.217C123.408 236.217 108.567 243.259 107.067 244.509C105.567 245.759 104.476 249.717 105.859 250.14Z" fill="#3A3A3A"/>
<path d="M106.268 248.613C112.866 248.3 139.506 247.668 146.048 247.856C146.103 247.856 146.103 247.898 146.048 247.898C139.513 248.349 112.866 248.773 106.261 248.724C106.129 248.717 106.129 248.62 106.268 248.613Z" fill="#3A3A3A"/>
<path d="M120.595 235.926C123.186 235.384 126.373 235.71 128.401 237.516C128.478 237.585 128.401 237.696 128.29 237.669C125.789 236.933 123.216 236.467 120.616 236.28C120.569 236.283 120.523 236.267 120.488 236.235C120.453 236.204 120.431 236.16 120.429 236.113C120.426 236.066 120.442 236.02 120.473 235.985C120.504 235.95 120.548 235.928 120.595 235.926Z" fill="#3A3A3A"/>
<path d="M118.748 237.099C121.338 236.551 124.519 236.877 126.547 238.683C126.63 238.759 126.547 238.863 126.443 238.842C123.942 238.106 121.369 237.641 118.769 237.453C118.746 237.455 118.722 237.452 118.7 237.444C118.678 237.436 118.658 237.424 118.641 237.409C118.623 237.393 118.609 237.375 118.599 237.354C118.589 237.333 118.583 237.31 118.581 237.287C118.58 237.264 118.583 237.24 118.591 237.218C118.598 237.196 118.61 237.176 118.626 237.159C118.641 237.141 118.66 237.127 118.681 237.117C118.702 237.107 118.725 237.101 118.748 237.099Z" fill="#3A3A3A"/>
<path d="M116.901 238.273C119.484 237.724 122.672 238.051 124.7 239.856C124.776 239.926 124.7 240.037 124.596 240.016C122.092 239.279 119.517 238.814 116.915 238.627C116.868 238.629 116.822 238.612 116.787 238.58C116.753 238.548 116.732 238.504 116.731 238.457C116.729 238.41 116.746 238.364 116.778 238.33C116.809 238.295 116.854 238.275 116.901 238.273Z" fill="#3A3A3A"/>
<path d="M176.147 99.9368C176.05 100.416 174.431 107.923 172.751 114.374C171.529 119.082 170.278 123.228 169.556 123.651C168.834 124.075 164.764 125.894 163.431 126.429L157.354 184.587L149.201 236.905L121.859 235.474L143.784 99.9368H176.147Z" fill="#DFDFDF"/>
<path d="M149.055 231.926C144.784 231.648 146.013 231.669 141.742 231.44C139.659 231.329 125.915 230.599 123.943 230.836C123.931 230.836 123.921 230.84 123.913 230.848C123.905 230.856 123.901 230.866 123.901 230.877C123.901 230.888 123.905 230.899 123.913 230.907C123.921 230.915 123.931 230.919 123.943 230.919C125.88 231.336 139.631 231.822 141.721 231.891C145.999 232.044 144.777 231.954 149.048 232.051C149.056 232.051 149.064 232.05 149.072 232.047C149.08 232.045 149.087 232.04 149.093 232.035C149.099 232.029 149.104 232.023 149.108 232.015C149.111 232.008 149.113 232 149.114 231.992C149.114 231.984 149.113 231.975 149.111 231.968C149.108 231.96 149.104 231.953 149.098 231.947C149.093 231.94 149.086 231.935 149.079 231.932C149.071 231.928 149.063 231.926 149.055 231.926Z" fill="#3A3A3A"/>
<path d="M133.416 217.017C134.082 213.281 134.756 209.545 135.436 205.809C136.825 198.332 138.214 190.86 139.603 183.393C142.409 168.439 145.187 153.481 147.937 138.519C149.479 130.061 149.437 130.88 150.778 122.367C150.778 122.311 150.882 122.318 150.875 122.367C149.583 129.908 150.18 128.255 148.979 135.811C147.777 143.366 146.493 150.762 145.152 158.22C142.465 173.205 139.645 188.163 136.818 203.121C136.022 207.315 135.212 211.505 134.388 215.69C133.554 219.968 132.603 224.211 131.721 228.474C131.721 228.572 131.554 228.558 131.568 228.474C132.138 224.655 132.721 220.829 133.416 217.017Z" fill="#3A3A3A"/>
<path d="M140.791 122.922C141.485 122.742 142.27 122.679 142.999 122.568C143.59 122.471 144.18 122.367 144.763 122.242C145.881 122.039 146.941 121.594 147.868 120.936C148.795 120.081 149.489 119.003 149.882 117.804C150.173 117.11 150.472 116.415 150.777 115.77C150.923 115.443 151.069 115.117 151.222 114.79C151.429 114.41 151.615 114.018 151.777 113.617C151.777 113.554 151.889 113.617 151.861 113.617C151.75 113.888 151.701 114.186 151.618 114.464C151.534 114.742 151.423 115.159 151.319 115.45C151.139 116.04 150.958 116.624 150.77 117.207C150.478 118.279 150.058 119.311 149.52 120.283C148.444 122.006 146.513 122.693 144.583 122.936C144.034 123.005 143.471 123.047 142.916 123.082C142.223 123.14 141.526 123.14 140.832 123.082C140.707 123.103 140.673 122.95 140.791 122.922Z" fill="#3A3A3A"/>
<path d="M171.667 122.603C168.829 123.632 166.087 124.907 163.472 126.415C163.461 126.42 163.452 126.427 163.443 126.436C163.435 126.445 163.429 126.455 163.425 126.467C163.42 126.478 163.419 126.49 163.419 126.502C163.419 126.514 163.422 126.526 163.427 126.537C163.432 126.548 163.439 126.558 163.448 126.566C163.457 126.574 163.467 126.58 163.479 126.585C163.49 126.589 163.502 126.591 163.514 126.59C163.526 126.59 163.538 126.587 163.549 126.582C166.327 125.401 169.105 124.263 171.813 122.929C171.85 122.906 171.877 122.87 171.89 122.829C171.902 122.787 171.899 122.743 171.882 122.703C171.864 122.663 171.833 122.631 171.793 122.613C171.754 122.594 171.709 122.591 171.667 122.603Z" fill="#3A3A3A"/>
<path d="M172.494 103.701C172.494 103.603 172.32 103.582 172.32 103.701C172.32 106.778 172.164 109.854 171.855 112.916C171.73 114.339 170.584 122.193 168.119 121.624C167.709 121.526 167.501 121.124 167.424 120.499C167.437 119.685 167.546 118.876 167.751 118.089C168.028 116.443 168.244 114.797 168.39 113.131C168.678 110.038 168.643 106.925 168.285 103.839C168.28 103.822 168.27 103.807 168.255 103.796C168.241 103.786 168.224 103.78 168.206 103.78C168.188 103.78 168.17 103.786 168.156 103.796C168.141 103.807 168.131 103.822 168.126 103.839C168.203 108.13 167.952 112.42 167.376 116.672C167.07 118.714 166.042 121.79 168.174 122.11C170.306 122.429 171.765 117.249 172.029 115.86C172.711 111.844 172.867 107.757 172.494 103.701Z" fill="#3A3A3A"/>
<path d="M168.188 121.818C167.968 122.35 167.782 122.895 167.632 123.45C167.474 123.879 167.396 124.333 167.403 124.79C167.403 124.874 167.528 124.881 167.57 124.79C167.821 124.407 168.013 123.988 168.139 123.547C168.327 123.047 168.521 122.547 168.695 122.04C168.717 121.975 168.714 121.903 168.686 121.839C168.658 121.775 168.607 121.725 168.543 121.697C168.48 121.669 168.408 121.666 168.342 121.688C168.276 121.711 168.221 121.757 168.188 121.818Z" fill="#3A3A3A"/>
<path d="M139.978 112.943C140.075 113.047 181.216 111.749 181.578 111.318C182.078 110.7 173.244 69.8475 166.299 61.195C164.549 59.0353 158.66 58.4173 156.347 60.8478C149.645 67.792 148.437 72.7779 146.833 77.4097C145.645 80.8332 144.298 86.6525 143.117 92.6037C141.145 102.409 139.624 112.568 139.978 112.943Z" fill="#3A3A3A"/>
<path d="M168.897 103.215C168.774 102.779 168.716 102.327 168.723 101.874C168.712 101.421 168.771 100.969 168.897 100.534C169.128 101.413 169.128 102.336 168.897 103.215Z" fill="white"/>
<path d="M164.111 84.3818C163.992 83.9451 163.934 83.4941 163.938 83.0415C163.934 82.5866 163.992 82.1334 164.111 81.6943C164.234 82.1327 164.292 82.5864 164.285 83.0415C164.292 83.4943 164.234 83.9458 164.111 84.3818Z" fill="white"/>
<path d="M151.201 76.9306C151.079 76.4946 151.02 76.0431 151.027 75.5903C151.02 75.1353 151.079 74.6815 151.201 74.2432C151.324 74.6815 151.382 75.1353 151.375 75.5903C151.379 76.0429 151.32 76.4939 151.201 76.9306Z" fill="white"/>
<path d="M151.375 99.555C151.143 98.6765 151.143 97.753 151.375 96.8745C151.497 97.3105 151.556 97.762 151.549 98.2148C151.552 98.6673 151.494 99.1183 151.375 99.555Z" fill="white"/>
<path d="M158.938 95.9162C159.816 95.6845 160.74 95.6845 161.618 95.9162C160.74 96.1478 159.816 96.1478 158.938 95.9162Z" fill="white"/>
<path d="M149.389 84.7845C150.27 84.5529 151.195 84.5529 152.076 84.7845C151.195 85.0161 150.27 85.0161 149.389 84.7845Z" fill="white"/>
<path d="M162.771 72.1601C163.207 72.0376 163.659 71.9791 164.111 71.9865C164.564 71.9752 165.016 72.0338 165.452 72.1601C164.573 72.3917 163.65 72.3917 162.771 72.1601Z" fill="white"/>
<path d="M148.368 107.943C149.249 107.712 150.174 107.712 151.055 107.943C150.174 108.175 149.249 108.175 148.368 107.943Z" fill="white"/>
<path d="M166.834 110.11C167.273 109.991 167.726 109.933 168.181 109.936C168.634 109.933 169.085 109.991 169.522 110.11C169.086 110.233 168.634 110.291 168.181 110.284C167.726 110.291 167.272 110.233 166.834 110.11Z" fill="white"/>
<path d="M161.23 107.944C160.833 107.722 160.47 107.443 160.153 107.117C159.829 106.801 159.551 106.441 159.327 106.048C159.724 106.269 160.086 106.548 160.403 106.874C160.725 107.192 161.003 107.552 161.23 107.944Z" fill="white"/>
<path d="M147.243 92.9927C146.455 92.5359 145.8 91.8828 145.34 91.0969C145.737 91.319 146.099 91.5974 146.416 91.9233C146.74 92.2395 147.018 92.5995 147.243 92.9927Z" fill="white"/>
<path d="M169.605 91.3746C168.819 90.915 168.166 90.2594 167.709 89.4719C168.102 89.6962 168.462 89.9744 168.778 90.2983C169.105 90.615 169.383 90.9776 169.605 91.3746Z" fill="white"/>
<path d="M158.938 77.9029C158.15 77.4461 157.494 76.7929 157.035 76.0071C157.432 76.2287 157.794 76.5071 158.111 76.8334C158.433 77.1513 158.711 77.511 158.938 77.9029Z" fill="white"/>
<path d="M177.112 108.534C176.324 108.077 175.669 107.424 175.209 106.638C175.606 106.86 175.969 107.138 176.285 107.464C176.608 107.782 176.886 108.142 177.112 108.534Z" fill="white"/>
<path d="M177.585 94.3816C177.358 94.7757 177.08 95.1377 176.758 95.4579C176.44 95.7824 176.077 96.0605 175.682 96.2843C176.138 95.4944 176.795 94.8382 177.585 94.3816Z" fill="white"/>
<path d="M157.722 88.9373C157.263 89.7209 156.61 90.3736 155.826 90.833C156.048 90.4381 156.326 90.0778 156.653 89.7636C156.969 89.4397 157.329 89.1616 157.722 88.9373Z" fill="white"/>
<path d="M143.784 101.979C143.325 102.762 142.672 103.415 141.888 103.874C142.348 103.091 143 102.438 143.784 101.979Z" fill="white"/>
<path d="M172.174 78.6321C171.715 79.4157 171.062 80.0684 170.278 80.5279C170.738 79.7442 171.391 79.0915 172.174 78.6321Z" fill="white"/>
<path d="M156.771 67.563C156.547 67.9586 156.269 68.321 155.945 68.6393C155.627 68.9615 155.267 69.2394 154.875 69.4657C155.097 69.0689 155.375 68.7064 155.701 68.3894C156.018 68.0654 156.378 67.7873 156.771 67.563Z" fill="white"/>
<path d="M164.285 66.3755C162.584 66.7088 158.535 64.0353 156.736 61.5145C156.61 60.0065 156.562 58.493 156.59 56.9799C156.549 55.5216 156.465 53.9106 156.278 52.4384C156.278 52.1329 157.34 52.5634 157.34 52.5634L159.299 52.7856L165.778 53.5356C165.482 55.4374 165.419 57.3683 165.591 59.2854C165.617 59.4886 165.664 59.6886 165.73 59.8826C165.73 59.8826 165.73 59.9451 165.73 59.9798C166.056 61.1326 166.952 65.8477 164.285 66.3755Z" fill="#CE614A"/>
<path d="M165.73 59.9105C165.73 59.9105 165.73 59.973 165.73 60.0077C165.42 60.0887 165.104 60.1445 164.785 60.1744C158.535 60.8063 156.806 53.0149 156.806 53.0149L159.271 52.8135L165.751 53.5635C165.454 55.4653 165.391 57.3962 165.563 59.3133C165.599 59.5174 165.655 59.7174 165.73 59.9105Z" fill="#3A3A3A"/>
<path d="M154.569 40.0222C153.569 43.3207 155.333 52.8342 157.68 54.9522C161.09 58.0216 166.653 58.2993 169.25 54.2092C171.778 50.244 169.25 37.8903 166.639 35.9667C162.771 33.1335 156.041 35.1543 154.569 40.0222Z" fill="#CE614A"/>
<path d="M162.979 45.1538C162.979 45.1538 162.938 45.1955 162.979 45.2233C163.146 45.8552 163.223 46.6121 162.702 46.9454C162.702 46.9454 162.702 46.9871 162.702 46.9801C163.354 46.7232 163.236 45.7232 162.979 45.1538Z" fill="#3A3A3A"/>
<path d="M162.264 44.6192C161.222 44.772 161.604 46.8414 162.57 46.7025C163.535 46.5636 163.139 44.4942 162.264 44.6192Z" fill="#3A3A3A"/>
<path d="M166.75 44.3206C166.75 44.3206 166.806 44.3206 166.806 44.3692C166.903 45.015 167.126 45.758 167.744 45.8413V45.8761C167.021 45.9108 166.75 44.9525 166.75 44.3206Z" fill="#3A3A3A"/>
<path d="M167.195 43.5498C168.216 43.2789 168.674 45.3275 167.737 45.5775C166.799 45.8275 166.348 43.772 167.195 43.5498Z" fill="#3A3A3A"/>
<path d="M161.271 43.8276C161.542 43.7026 161.771 43.5429 162.021 43.3971C162.271 43.2512 162.556 43.1193 162.715 42.8068C162.749 42.7148 162.751 42.6142 162.721 42.5211C162.691 42.4279 162.63 42.3476 162.549 42.2929C162.371 42.2082 162.174 42.1719 161.978 42.1877C161.781 42.2036 161.593 42.271 161.431 42.3832C161.071 42.5623 160.791 42.8694 160.646 43.2443C160.618 43.3296 160.616 43.4211 160.638 43.5079C160.661 43.5947 160.707 43.6733 160.773 43.7345C160.839 43.7956 160.92 43.8369 161.008 43.8534C161.097 43.8699 161.188 43.8609 161.271 43.8276Z" fill="#3A3A3A"/>
<path d="M167.764 42.6054C167.473 42.6054 167.195 42.5706 166.903 42.5498C166.601 42.5609 166.304 42.4731 166.056 42.2998C165.986 42.2303 165.94 42.1397 165.926 42.0419C165.912 41.944 165.931 41.8444 165.98 41.7582C166.102 41.6045 166.263 41.4862 166.446 41.4154C166.629 41.3446 166.827 41.3239 167.021 41.3554C167.424 41.3545 167.812 41.5087 168.105 41.7859C168.176 41.8515 168.225 41.9374 168.246 42.032C168.267 42.1265 168.258 42.2252 168.221 42.3147C168.184 42.4041 168.12 42.48 168.039 42.532C167.957 42.584 167.861 42.6096 167.764 42.6054Z" fill="#3A3A3A"/>
<path d="M163.494 51.2093C163.674 51.3343 163.862 51.5149 164.098 51.4871C164.335 51.4388 164.56 51.3419 164.758 51.2024C164.758 51.2024 164.799 51.2024 164.792 51.2024C164.723 51.3446 164.617 51.4656 164.485 51.5524C164.353 51.6392 164.2 51.6886 164.042 51.6954C163.906 51.6847 163.776 51.6342 163.669 51.5503C163.562 51.4663 163.481 51.3526 163.438 51.2232C163.438 51.2232 163.466 51.1954 163.494 51.2093Z" fill="#3A3A3A"/>
<path d="M163.806 49.1676C164.017 49.3898 164.271 49.566 164.553 49.6855C164.835 49.805 165.138 49.8651 165.445 49.8621C165.713 49.8666 165.98 49.8291 166.236 49.751C166.287 49.7445 166.336 49.7304 166.382 49.7093L166.521 49.6607C166.554 49.6483 166.582 49.625 166.599 49.5946C166.617 49.5643 166.624 49.5287 166.618 49.494C166.622 49.4733 166.622 49.4522 166.618 49.4315V49.376C166.542 48.8829 166.354 48.1399 166.354 48.1399C166.549 48.1955 167.549 48.4385 167.486 48.1885C167.009 45.9739 166.311 43.8127 165.403 41.7373C165.397 41.7217 165.386 41.7088 165.371 41.7017C165.356 41.6945 165.339 41.6936 165.323 41.6991C165.307 41.7046 165.295 41.7162 165.287 41.7311C165.28 41.7461 165.279 41.7633 165.285 41.779C165.709 43.8275 166.486 45.7858 166.945 47.8343C166.589 47.7431 166.222 47.7034 165.854 47.7163C165.792 47.7163 166.243 49.1399 166.257 49.369C165.861 49.4843 165.446 49.5185 165.037 49.4696C164.628 49.4207 164.233 49.2896 163.875 49.0843C163.806 49.0704 163.764 49.126 163.806 49.1676Z" fill="#3A3A3A"/>
<path d="M165.896 49.5635C165.693 49.9654 165.389 50.3076 165.014 50.5565C164.808 50.6891 164.565 50.7523 164.32 50.7371C163.785 50.6954 163.681 50.2302 163.702 49.8066C163.714 49.5849 163.754 49.3657 163.82 49.1538C164.451 49.5062 165.178 49.6497 165.896 49.5635Z" fill="#3A3A3A"/>
<path d="M155.806 47.2232C158 46.869 157.806 42.8206 157.806 42.8206C157.806 42.8206 161.479 41.6192 161.584 38.6957C161.584 38.6957 165.521 40.4248 168.174 38.9665C170.827 37.5082 169.744 34.425 169.327 33.7931C168.91 33.1611 167.542 34.6611 167.542 34.6611C167.542 34.6611 167.091 32.8903 166.577 32.7862C166.063 32.682 165.716 33.8417 165.716 33.8417C163.37 33.4699 160.982 33.4535 158.632 33.7931C155.354 34.3972 154.243 37.9596 154.243 37.9596C154.243 37.9596 152.541 38.6054 152.16 39.9248C151.778 41.2442 154.41 47.4454 155.806 47.2232Z" fill="#3A3A3A"/>
<path d="M156.924 42.9943C159.896 42.9318 161.535 40.6888 161.521 37.8347H161.577C161.896 40.4527 159.917 43.7234 156.917 43.1332C156.898 43.1322 156.881 43.124 156.869 43.1104C156.856 43.0967 156.85 43.0787 156.851 43.0602C156.852 43.0418 156.86 43.0245 156.873 43.0122C156.887 42.9998 156.905 42.9933 156.924 42.9943Z" fill="#3A3A3A"/>
<path d="M154.312 37.9041C154.312 37.9041 154.368 37.9388 154.312 37.9596C153.555 38.4596 152.666 38.8901 152.229 39.7234C151.673 40.7303 152.007 41.8831 152.423 42.8622C153.069 44.383 154.208 46.3343 155.764 47.0288C155.854 47.0704 155.764 47.2024 155.694 47.1676C153.847 46.4316 152.444 43.9178 151.923 42.0914C151.34 40.0359 152.458 38.6471 154.312 37.9041Z" fill="#3A3A3A"/>
<path d="M164.903 39.0151C165.642 39.3058 166.446 39.3883 167.229 39.2536C168.011 39.1189 168.742 38.7722 169.341 38.2512C170.73 36.9388 170.112 35.2235 169.216 33.8555C169.174 33.7861 169.264 33.6958 169.327 33.7583C170.431 34.911 170.813 36.8693 169.73 38.1748C168.646 39.4804 166.362 39.8415 164.813 39.2095C164.667 39.154 164.778 38.9595 164.903 39.0151Z" fill="#3A3A3A"/>
<path d="M156.618 47.7788C156.618 47.7788 154.402 44.7511 153.02 45.5497C151.638 46.3483 153.361 50.7717 155.014 51.3412C155.22 51.4297 155.443 51.4754 155.668 51.4756C155.893 51.4757 156.116 51.4303 156.323 51.3421C156.53 51.2538 156.717 51.1245 156.873 50.9621C157.028 50.7996 157.15 50.6073 157.229 50.3968L156.618 47.7788Z" fill="#CE614A"/>
<path d="M153.555 46.7996C153.555 46.7996 153.521 46.8412 153.555 46.8482C154.088 47.0991 154.563 47.4585 154.949 47.9033C155.336 48.3481 155.625 48.8686 155.799 49.4314C155.729 49.3167 155.636 49.2186 155.524 49.144C155.413 49.0694 155.287 49.0201 155.154 48.9996C155.022 48.9791 154.887 48.9878 154.758 49.0252C154.629 49.0627 154.51 49.1278 154.41 49.2162C154.375 49.2162 154.41 49.2786 154.41 49.2717C154.611 49.2027 154.828 49.1977 155.032 49.2574C155.236 49.3171 155.417 49.4385 155.549 49.605C155.765 49.8869 155.953 50.1893 156.111 50.5078C156.167 50.605 156.347 50.5494 156.306 50.4314C156.333 48.9384 155.125 46.9176 153.555 46.7996Z" fill="#3A3A3A"/>
<path d="M165.882 60.4798L164.215 66.2436L156.625 59.9243L154.896 62.3687C154.896 62.3687 162.757 72.8336 162.743 72.3267L164.549 67.3199L168.181 70.3129L167.077 61.9798L165.882 60.4798Z" fill="#EDEDED"/>
<path d="M167.869 66.1671C167.64 64.7783 167.445 63.3894 167.174 62.0631C167.174 62.0145 167.084 62.0006 167.084 62.0631C166.938 63.4172 167.841 68.6392 167.959 69.9031C167.806 69.7712 164.612 67.2851 164.584 67.3337C164.167 68.1393 162.841 71.785 162.757 72.1114C161.514 70.4517 156.292 63.9311 154.861 62.3894C154.82 62.3478 154.75 62.3894 154.785 62.445C155.91 64.2227 162.681 72.8613 162.757 72.8058C163.479 71.0767 164.107 69.3104 164.639 67.5143C165.195 68.0768 168.459 70.917 168.445 70.7086C168.334 69.1856 168.142 67.6696 167.869 66.1671Z" fill="#3A3A3A"/>
<path d="M149.722 66.3338C146.368 62.8617 138.742 49.9662 138.909 42.3762C139.034 36.4528 142.055 20.1061 143.902 15.9326C144.736 14.0368 157.327 22.2241 157.424 24.4393C157.521 26.6545 152.562 40.4874 151.979 43.9386C151.701 45.5705 152.75 53.9592 155.222 61.5978C157.452 68.4795 153.819 70.5489 149.722 66.3338Z" fill="#CE614A"/>
<path d="M142.979 19.3839C143.347 17.5714 145.756 9.43279 146.965 7.32175C148.173 5.2107 151.993 -0.629388 153.701 0.1067C155.41 0.842788 154.396 2.64829 154.396 2.64829C154.396 2.64829 156.41 0.440022 158.063 1.34277C159.715 2.24552 158.063 4.99543 158.063 4.99543C158.063 4.99543 160.299 2.91217 161.882 3.89825C163.466 4.88433 161.361 7.37036 161.361 7.37036C161.361 7.37036 163.32 5.34265 164.271 6.73149C165.417 8.40505 161.396 11.7383 160.264 14.1688C160.007 14.7243 155.854 25.7378 155.854 25.7378L142.979 19.3839Z" fill="#CE614A"/>
<path d="M161.597 7.15519C158.646 9.61345 157.778 11.2037 156.611 14.7938C156.611 14.8633 156.479 14.8494 156.5 14.7938C157.319 11.162 158.118 9.01624 161.486 7.02325C161.646 6.88437 161.736 7.03714 161.597 7.15519Z" fill="#3A3A3A"/>
<path d="M158.354 4.80107C155.514 7.62043 154.555 9.33565 153.062 13.0161C153.062 13.0647 152.951 13.0161 152.965 12.9814C154.132 9.25232 154.979 7.12739 158.188 4.6483C158.333 4.53719 158.486 4.64135 158.354 4.80107Z" fill="#3A3A3A"/>
<path d="M154.354 2.80101C151.798 5.73842 150.673 7.57169 149.68 11.3285C149.68 11.4188 149.521 11.391 149.541 11.3285C149.914 7.94966 151.606 4.85476 154.25 2.71768C154.438 2.57879 154.514 2.62046 154.354 2.80101Z" fill="#3A3A3A"/>
<path d="M156.541 28.4531C156.541 28.4531 160.187 25.1129 161.278 23.2449C162.368 21.3769 163.847 12.898 162.035 12.4744C159.694 11.9258 157.868 16.641 157.285 19.0784C157.285 19.0784 151.875 17.8076 149.833 20.9117C147.791 24.0157 156.541 28.4531 156.541 28.4531Z" fill="#CE614A"/>
<path d="M161.34 12.5298C158.847 13.5714 158.278 16.8075 157.535 19.1268C157.525 19.1616 157.507 19.1935 157.482 19.2197C157.457 19.246 157.426 19.2658 157.392 19.2774C157.358 19.289 157.321 19.2921 157.286 19.2865C157.25 19.2808 157.216 19.2665 157.187 19.2449C154.889 18.8629 151.527 18.9949 149.805 20.7657C149.794 20.7723 149.781 20.7754 149.768 20.7743C149.755 20.7732 149.743 20.7681 149.733 20.7597C149.723 20.7513 149.716 20.74 149.712 20.7274C149.709 20.7147 149.71 20.7014 149.715 20.6893C151.305 18.5505 154.576 18.1477 157.09 18.731C157.785 16.3422 158.535 13.1201 161.333 12.4812C161.347 12.502 161.354 12.5229 161.34 12.5298Z" fill="#3A3A3A"/>
<path d="M140.812 21.7727L156.875 30.1058C156.875 30.1058 152.708 41.7096 152.361 43.8692C152.014 46.0289 155.924 61.327 156.465 64.57C157.007 67.8129 148.826 79.1528 148.18 73.4516C147.534 67.7504 138.888 50.6537 138.457 44.8414C138.027 39.0291 140.812 21.7727 140.812 21.7727Z" fill="#3A3A3A"/>
<path d="M150.777 50.4941C150.655 50.058 150.597 49.6066 150.604 49.1538C150.593 48.6986 150.652 48.2443 150.777 47.8066C150.896 48.2457 150.955 48.6989 150.951 49.1538C150.951 49.6062 150.893 50.0566 150.777 50.4941Z" fill="white"/>
<path d="M146.291 31.8834C146.059 31.0049 146.059 30.0814 146.291 29.2029C146.523 30.0814 146.523 31.0049 146.291 31.8834Z" fill="white"/>
<path d="M152.319 56.7645C153.198 56.5329 154.121 56.5329 155 56.7645C154.121 56.9962 153.198 56.9962 152.319 56.7645Z" fill="white"/>
<path d="M148.333 39.3693C148.772 39.2502 149.225 39.1918 149.68 39.1957C150.133 39.1883 150.585 39.2468 151.021 39.3693C150.585 39.4918 150.133 39.5503 149.68 39.5429C149.225 39.5503 148.771 39.4918 148.333 39.3693Z" fill="white"/>
<path d="M151.173 64.4033C150.386 63.9466 149.73 63.2934 149.271 62.5076C149.667 62.7297 150.03 63.008 150.347 63.3339C150.671 63.6502 150.949 64.0101 151.173 64.4033Z" fill="white"/>
<path d="M145.381 47.0149C144.594 46.5582 143.938 45.905 143.479 45.1191C143.876 45.3408 144.238 45.6192 144.555 45.9455C144.877 46.2633 145.155 46.623 145.381 47.0149Z" fill="white"/>
<path d="M156.771 67.563C156.547 67.9586 156.269 68.321 155.945 68.6393C155.627 68.9615 155.267 69.2394 154.875 69.4657C155.097 69.0689 155.375 68.7064 155.701 68.3894C156.018 68.0654 156.378 67.7873 156.771 67.563Z" fill="white"/>
<path d="M146.326 55.0493C146.104 55.4443 145.825 55.8046 145.499 56.1187C145.183 56.4426 144.823 56.7208 144.43 56.9451C144.889 56.1615 145.542 55.5088 146.326 55.0493Z" fill="white"/>
<path d="M155.687 31.5779C155.228 32.3615 154.575 33.0142 153.792 33.4737C154.251 32.69 154.904 32.0373 155.687 31.5779Z" fill="white"/>
<path d="M155.055 32.4251C150.589 30.0135 146 27.8392 141.305 25.9114C141.249 25.9114 141.214 25.9739 141.27 25.9947C142.416 26.4669 149.756 30.3001 155.021 32.5223C155.083 32.5778 155.111 32.4598 155.055 32.4251Z" fill="#3A3A3A"/>
<path d="M187.071 253.022C188.425 253.474 227.149 253.363 228.621 252.425C229.184 252.078 229.496 246.432 229.677 239.606C229.719 238.134 229.747 236.62 229.774 235.065C229.774 233.231 229.83 231.377 229.837 229.579C229.885 221.496 229.774 214.371 229.774 214.371H204.565V229.579V235.065L204.69 239.606C204.69 239.606 189.89 246.287 188.383 247.488C186.876 248.689 185.723 252.585 187.071 253.022Z" fill="#FB907D"/>
<path d="M187.071 253.022C188.425 253.474 227.149 253.363 228.622 252.425C229.184 252.078 229.497 246.432 229.677 239.606C229.719 238.134 229.747 236.62 229.775 235.065C229.775 233.231 229.83 231.377 229.837 229.579H204.579V235.065L204.704 239.606C204.704 239.606 189.904 246.286 188.397 247.488C186.89 248.689 185.724 252.585 187.071 253.022Z" fill="white"/>
<path d="M186.953 253.085C187.835 253.377 204.315 253.432 216.337 253.182C219.114 253.127 221.656 253.05 223.712 252.96C226.532 252.828 228.427 252.675 228.74 252.481C229.434 252.043 229.747 243.759 229.9 235.023H204.565L204.697 239.592C204.697 239.592 189.807 246.3 188.293 247.509C186.78 248.717 185.599 252.627 186.953 253.085Z" fill="#C1C1FB"/>
<path d="M187.508 251.522C194.037 251.349 220.378 251.238 226.844 251.522C226.892 251.522 226.892 251.564 226.844 251.564C220.378 251.884 194.037 251.779 187.508 251.599C187.37 251.627 187.37 251.529 187.508 251.522Z" fill="#3A3A3A"/>
<path d="M203.773 238.127C206.336 237.641 209.482 238.03 211.447 239.849C211.523 239.926 211.447 240.03 211.343 240.002C208.885 239.216 206.349 238.697 203.78 238.453C203.742 238.446 203.708 238.427 203.683 238.398C203.658 238.368 203.644 238.331 203.644 238.293C203.643 238.255 203.655 238.217 203.679 238.187C203.702 238.157 203.736 238.136 203.773 238.127Z" fill="#3A3A3A"/>
<path d="M201.919 239.266C204.489 238.78 207.628 239.162 209.6 240.988C209.676 241.057 209.6 241.168 209.489 241.141C207.033 240.354 204.5 239.835 201.933 239.592C201.895 239.586 201.86 239.567 201.835 239.538C201.809 239.51 201.794 239.473 201.793 239.435C201.791 239.396 201.803 239.358 201.826 239.328C201.849 239.297 201.882 239.275 201.919 239.266Z" fill="#3A3A3A"/>
<path d="M200.086 240.391C202.648 239.905 205.794 240.287 207.725 242.113C207.801 242.182 207.725 242.287 207.621 242.266C205.171 241.483 202.645 240.962 200.086 240.71C200.043 240.71 200.003 240.693 199.973 240.663C199.943 240.633 199.926 240.593 199.926 240.55C199.926 240.508 199.943 240.467 199.973 240.438C200.003 240.408 200.043 240.391 200.086 240.391Z" fill="#3A3A3A"/>
<path d="M198.217 241.509C200.787 241.023 203.926 241.412 205.898 243.231C205.975 243.307 205.898 243.412 205.787 243.384C203.332 242.598 200.798 242.078 198.231 241.835C198.193 241.829 198.159 241.81 198.133 241.782C198.107 241.753 198.093 241.716 198.091 241.678C198.089 241.639 198.101 241.602 198.124 241.571C198.147 241.54 198.18 241.518 198.217 241.509Z" fill="#3A3A3A"/>
<path d="M200.169 235.87C201.995 237.259 204.336 237.849 206.481 238.648C206.53 238.661 206.58 238.663 206.629 238.652C206.678 238.642 206.724 238.621 206.764 238.59C206.803 238.559 206.834 238.519 206.855 238.474C206.876 238.428 206.886 238.378 206.884 238.329C206.895 238.328 206.905 238.325 206.914 238.32C206.924 238.315 206.932 238.307 206.938 238.299C206.944 238.29 206.948 238.28 206.949 238.27C206.951 238.259 206.95 238.248 206.947 238.238C206.159 235.966 204.789 233.941 202.974 232.363C201.898 231.468 200.016 230.843 199.009 232.238C198.002 233.634 199.106 235.051 200.169 235.87ZM199.509 233.787C199.051 230.968 202.079 232.44 202.849 233.134C203.345 233.591 203.809 234.081 204.238 234.599C205.095 235.684 205.895 236.813 206.634 237.981C205.613 237.53 204.551 237.176 203.53 236.766C202.273 236.301 199.766 235.349 199.509 233.808V233.787Z" fill="#3A3A3A"/>
<path d="M215.51 234.273C214.885 232.676 212.906 232.808 211.642 233.405C209.49 234.488 207.661 236.116 206.336 238.127C206.33 238.136 206.326 238.146 206.325 238.156C206.323 238.167 206.324 238.178 206.328 238.188C206.331 238.198 206.337 238.207 206.344 238.214C206.352 238.222 206.361 238.228 206.371 238.231C206.329 238.426 206.447 238.669 206.676 238.648C208.926 238.419 211.364 238.46 213.475 237.551C214.704 236.995 216.1 235.787 215.51 234.273ZM210.017 237.578C208.912 237.717 207.808 237.801 206.704 237.981C207.713 237.036 208.77 236.144 209.871 235.308C210.408 234.909 210.972 234.547 211.558 234.224C212.475 233.745 215.774 233.079 214.628 235.69C213.975 237.127 211.329 237.433 210.017 237.578Z" fill="#3A3A3A"/>
<path d="M238.185 106.958C238.185 106.958 231.372 174.316 231.205 175.191C231.205 175.303 231.136 176.58 231.073 178.712C230.705 190.309 229.795 226.475 229.795 226.475H202.016C202.016 226.475 203.829 183.643 204.87 173.65C206.197 160.9 214.593 106.985 214.593 106.985L238.185 106.958Z" fill="#3A3A3A"/>
<path d="M227.865 177.566C228.726 162.96 230.015 148.396 231.733 133.873C232.705 125.686 233.886 117.527 235.053 109.367C235.053 109.298 235.171 109.298 235.164 109.367C233.011 123.895 231.49 138.533 230.177 153.116C228.865 167.699 227.948 182.358 227.351 197.003C227.011 205.336 226.754 213.607 226.49 221.912C226.482 221.948 226.462 221.98 226.434 222.003C226.406 222.026 226.37 222.039 226.334 222.039C226.297 222.039 226.261 222.026 226.233 222.003C226.204 221.98 226.185 221.948 226.177 221.912C226.601 207.142 227.025 192.344 227.865 177.566Z" fill="#3A3A3A"/>
<path d="M203.759 221.996C204.454 221.905 205.273 221.933 206.016 221.905C206.759 221.877 207.683 221.871 208.516 221.836C210.128 221.78 211.748 221.739 213.378 221.711C216.619 221.655 219.86 221.678 223.101 221.78L225.781 221.871C226.733 221.912 227.684 221.996 228.636 221.989C228.643 221.986 228.651 221.985 228.659 221.985C228.667 221.986 228.674 221.989 228.681 221.993C228.687 221.998 228.693 222.004 228.697 222.011C228.7 222.018 228.702 222.026 228.702 222.034C228.702 222.042 228.7 222.049 228.697 222.057C228.693 222.064 228.687 222.07 228.681 222.074C228.674 222.078 228.667 222.081 228.659 222.082C228.651 222.083 228.643 222.082 228.636 222.079C226.997 222.079 225.344 222.218 223.712 222.28C222.08 222.343 220.489 222.364 218.885 222.384C215.642 222.433 212.385 222.384 209.162 222.28L206.482 222.211L205.058 222.148C204.634 222.148 204.211 222.148 203.787 222.107C203.676 222.1 203.683 222.009 203.759 221.996Z" fill="#3A3A3A"/>
<path d="M238.185 106.958C238.185 106.958 231.372 174.316 231.205 175.191C231.205 175.303 231.136 176.58 231.073 178.712L217.968 106.958H238.185Z" fill="#3A3A3A"/>
<path d="M290.472 231.183C291.667 230.391 315.508 199.885 315.682 198.149C315.751 197.455 311.515 193.76 306.258 189.399C305.126 188.448 303.987 187.427 302.744 186.511C301.188 185.351 299.612 184.212 298.077 183.136C291.438 178.427 285.673 174.733 285.673 174.733L270.534 193.989L282.34 202.725L287.201 206.309L290.854 209.017C290.854 209.017 286.951 224.78 286.965 226.704C286.979 228.627 289.285 231.954 290.472 231.183Z" fill="#FB907D"/>
<path d="M290.472 231.183C291.666 230.391 315.508 199.885 315.681 198.149C315.751 197.455 311.515 193.76 306.257 189.399C305.125 188.448 303.986 187.427 302.743 186.511C301.188 185.351 299.611 184.212 298.076 183.136C293.382 189.045 286.583 197.483 282.333 202.725L287.194 206.309L290.847 209.017C290.847 209.017 286.944 224.78 286.958 226.704C286.972 228.627 289.284 231.954 290.472 231.183Z" fill="white"/>
<path d="M290.444 231.294C291.639 230.502 315.619 199.823 315.793 198.073C315.876 197.267 309.542 191.899 302.785 186.372L287.125 206.281L290.798 209.003C290.798 209.003 286.896 224.856 286.896 226.794C286.896 228.731 289.243 232.085 290.444 231.294Z" fill="#C1C1FB"/>
<path d="M289.555 229.891C293.451 224.648 309.647 203.878 313.897 198.996C313.931 198.955 313.959 198.996 313.897 198.996C310.154 204.274 293.792 224.912 289.59 229.933C289.555 230.065 289.479 230.002 289.555 229.891Z" fill="#3A3A3A"/>
<path d="M289.09 208.836C290.291 206.517 292.562 204.288 295.188 203.864C295.292 203.864 295.313 203.996 295.243 204.045C293.106 205.49 291.131 207.161 289.354 209.031C289.326 209.057 289.289 209.073 289.25 209.076C289.211 209.078 289.172 209.066 289.141 209.043C289.11 209.02 289.087 208.987 289.078 208.949C289.069 208.911 289.073 208.871 289.09 208.836Z" fill="#3A3A3A"/>
<path d="M288.826 210.989C290.035 208.67 292.299 206.433 294.931 206.017C295.028 206.017 295.056 206.149 294.979 206.197C292.843 207.641 290.869 209.31 289.09 211.176C289.062 211.201 289.026 211.215 288.989 211.217C288.952 211.218 288.915 211.208 288.885 211.186C288.854 211.165 288.832 211.133 288.821 211.098C288.811 211.062 288.812 211.024 288.826 210.989Z" fill="#3A3A3A"/>
<path d="M288.569 213.128C289.771 210.808 292.042 208.579 294.667 208.156C294.771 208.156 294.792 208.288 294.722 208.336C292.584 209.783 290.608 211.454 288.826 213.322C288.8 213.356 288.762 213.379 288.72 213.385C288.678 213.39 288.635 213.379 288.6 213.354C288.566 213.328 288.544 213.289 288.538 213.247C288.532 213.205 288.543 213.162 288.569 213.128Z" fill="#3A3A3A"/>
<path d="M288.284 215.281C289.486 212.968 291.757 210.732 294.382 210.315C294.486 210.315 294.507 210.44 294.437 210.496C292.302 211.94 290.327 213.609 288.548 215.475C288.52 215.502 288.483 215.517 288.444 215.52C288.405 215.522 288.367 215.511 288.335 215.488C288.304 215.464 288.282 215.431 288.272 215.393C288.263 215.355 288.267 215.316 288.284 215.281Z" fill="#3A3A3A"/>
<path d="M285.076 210.26C287.312 209.704 289.243 208.177 291.146 207.01C291.187 206.98 291.221 206.941 291.244 206.896C291.268 206.851 291.28 206.801 291.28 206.75C291.28 206.699 291.268 206.648 291.244 206.603C291.221 206.558 291.187 206.519 291.146 206.489C291.151 206.48 291.155 206.47 291.157 206.46C291.158 206.449 291.157 206.439 291.154 206.429C291.15 206.419 291.145 206.409 291.137 206.402C291.13 206.394 291.121 206.389 291.111 206.385C288.839 205.6 286.401 205.425 284.041 205.878C282.652 206.17 281.02 207.267 281.492 208.92C281.965 210.572 283.777 210.593 285.076 210.26ZM283.048 209.503C280.548 208.114 283.576 206.656 284.597 206.482C285.259 206.381 285.927 206.326 286.597 206.316C287.977 206.313 289.356 206.38 290.729 206.517C289.75 207.045 288.819 207.649 287.861 208.211C286.715 208.878 284.423 210.267 283.048 209.503Z" fill="#3A3A3A"/>
<path d="M293.306 197.219C291.66 196.726 290.528 198.357 290.229 199.725C289.742 202.079 289.883 204.52 290.639 206.802C290.639 206.857 290.701 206.857 290.743 206.836C290.772 206.878 290.81 206.912 290.855 206.935C290.9 206.959 290.949 206.971 291 206.971C291.051 206.971 291.1 206.959 291.145 206.935C291.19 206.912 291.228 206.878 291.257 206.836C292.472 204.927 294.035 203.038 294.597 200.816C294.945 199.531 294.861 197.691 293.306 197.219ZM292.507 203.58C291.931 204.538 291.313 205.454 290.778 206.427C290.656 205.041 290.605 203.651 290.625 202.26C290.647 201.592 290.714 200.926 290.826 200.267C291.014 199.253 292.528 196.246 293.868 198.76C294.611 200.177 293.188 202.448 292.507 203.58Z" fill="#3A3A3A"/>
<path d="M214.211 106.583C214.211 106.583 216.378 116.693 223.17 121.638C223.17 121.638 240.643 167.504 244.317 172.33C250.401 180.33 279.833 200.92 279.833 200.92L297.195 178.789C297.195 178.789 268.721 160.463 266.443 157.581C264.922 155.671 252.797 126.221 252.943 125.172C254.609 112.721 248.672 104.985 248.672 104.985L214.211 106.583Z" fill="#3A3A3A"/>
<path d="M246.616 106.923C247.939 109.322 248.922 111.892 249.539 114.561C249.84 115.918 250.024 117.298 250.088 118.686C250.171 120.165 250.088 121.651 250.088 123.138C250.11 124.653 250.344 126.159 250.782 127.61C251.199 128.998 251.706 130.387 252.171 131.776C253.171 134.619 254.225 137.44 255.331 140.241C257.54 145.797 259.94 151.292 262.533 156.727C263.076 157.998 263.825 159.171 264.748 160.199C265.814 161.177 266.977 162.043 268.221 162.782C270.777 164.523 273.335 166.263 275.895 168.004L291.319 178.497V178.532C291.493 178.65 291.319 178.934 291.16 178.816C285.993 175.31 282.729 173.073 277.562 169.567L269.735 164.254C268.499 163.414 267.242 162.602 266.033 161.734C264.963 160.994 264.049 160.05 263.346 158.956C262.642 157.761 262.011 156.525 261.457 155.255C260.804 153.866 260.165 152.477 259.54 151.088C258.304 148.468 257.123 145.769 255.998 142.991C254.873 140.213 253.787 137.403 252.741 134.561C252.222 133.135 251.715 131.704 251.22 130.269C250.708 128.911 250.29 127.519 249.97 126.103C249.393 123.186 249.907 120.193 249.63 117.249C249.378 114.399 248.674 111.607 247.546 108.978C247.243 108.297 246.905 107.632 246.532 106.985C246.484 106.923 246.616 106.881 246.616 106.923Z" fill="#3A3A3A"/>
<path d="M237.052 107.714C237.625 109.663 238.821 111.37 240.455 112.575C242.266 113.862 244.41 114.597 246.629 114.693C247.004 114.693 247.039 115.284 246.629 115.29C242.094 115.29 237.518 112.416 236.851 107.721C236.851 107.631 237.025 107.61 237.052 107.714Z" fill="#3A3A3A"/>
<path d="M218.837 118.554C220.479 119.218 222.048 120.051 223.517 121.041C225.073 122.006 226.511 123.124 228.011 124.172C228.073 124.214 228.011 124.304 227.962 124.27C226.386 123.36 224.747 122.575 223.184 121.638C221.626 120.786 220.147 119.796 218.767 118.679C218.705 118.638 218.753 118.534 218.837 118.554Z" fill="#3A3A3A"/>
<path d="M218.184 109.11C218.427 110.145 218.726 111.193 219.003 112.2C219.281 113.207 219.462 114.159 219.76 115.11C220.019 116.035 220.534 116.868 221.246 117.513C221.642 117.853 222.08 118.145 222.503 118.457L223.198 118.943C223.163 118.811 223.135 118.665 223.101 118.527C223.01 118.131 222.927 117.742 222.844 117.346C222.656 116.471 222.476 115.596 222.295 114.714C221.955 112.992 221.601 111.242 221.191 109.541C221.188 109.532 221.187 109.523 221.188 109.514C221.189 109.506 221.192 109.497 221.197 109.49C221.203 109.482 221.209 109.476 221.217 109.472C221.225 109.468 221.234 109.466 221.243 109.466C221.252 109.466 221.261 109.468 221.269 109.472C221.277 109.476 221.284 109.482 221.289 109.49C221.294 109.497 221.297 109.506 221.298 109.514C221.299 109.523 221.298 109.532 221.295 109.541C221.802 111.221 222.358 112.888 222.816 114.589C223.038 115.423 223.886 119.554 223.934 119.846C223.983 120.138 224.017 120.457 224.038 120.763C224.094 121.07 224.108 121.383 224.08 121.693C224.074 121.706 224.064 121.718 224.052 121.726C224.039 121.734 224.025 121.738 224.011 121.738C223.996 121.738 223.982 121.734 223.969 121.726C223.957 121.718 223.947 121.706 223.941 121.693C223.803 121.411 223.701 121.112 223.635 120.804C223.545 120.513 223.469 120.214 223.399 119.908L223.337 119.582C222.913 119.353 222.517 119.04 222.122 118.777C221.726 118.513 221.26 118.228 220.858 117.915C220.107 117.339 219.548 116.55 219.253 115.652C218.955 114.682 218.746 113.687 218.628 112.68C218.441 111.506 218.288 110.319 218.073 109.152C218.066 109.076 218.142 109.041 218.184 109.11Z" fill="#3A3A3A"/>
<path d="M277.055 196.913C277.43 196.281 277.95 195.677 278.388 195.087C278.826 194.497 279.395 193.754 279.888 193.08C280.837 191.779 281.803 190.49 282.784 189.212C284.756 186.636 286.791 184.094 288.882 181.615L290.618 179.573C291.236 178.879 291.896 178.185 292.486 177.407C292.528 177.351 292.59 177.407 292.548 177.462C291.528 178.74 290.618 180.129 289.652 181.448C288.687 182.768 287.722 184.025 286.743 185.302C284.763 187.872 282.722 190.406 280.617 192.879C280.034 193.573 279.471 194.267 278.895 194.962C278.589 195.323 278.27 195.656 277.964 196.038C277.659 196.42 277.444 196.733 277.138 197.01C277.125 197.021 277.108 197.027 277.091 197.026C277.074 197.024 277.059 197.016 277.048 197.003C277.037 196.991 277.031 196.974 277.032 196.957C277.034 196.94 277.042 196.924 277.055 196.913Z" fill="#3A3A3A"/>
<path d="M199.287 73.653C199.288 73.7319 199.319 73.8075 199.373 73.8652C199.427 73.9229 199.5 73.9587 199.579 73.9655L200.856 73.8752C201.607 70.549 202.516 67.8546 202.322 68.8823C202.024 70.4988 201.954 72.149 202.114 73.785L204.634 73.5628C204.933 67.8407 205.69 63.5214 205.766 64.8061C206.079 70.0073 206.572 71.6253 207.121 73.3475C213.197 72.7989 221.156 71.9586 226.899 71.2642C227.184 68.0838 227.358 64.6603 227.483 64.8755C228.476 66.5144 229.004 69.0421 229.261 70.9587C231.087 70.7156 232.539 70.4865 233.428 70.2642C233.428 70.2642 233.539 67.6046 233.497 66.7435C233.375 64.5462 232.879 62.3857 232.032 60.3548C231.092 58.3594 229.954 56.4634 228.636 54.6953V54.6536C227.817 53.4651 227.139 52.1858 226.615 50.8413C226.249 49.8565 225.964 48.8441 225.761 47.8136C225.031 44.0359 222.621 41.0221 219.156 40.4805C212.065 34.9945 206.072 38.5639 204.766 43.7234C204.634 44.2234 204.523 44.7998 204.426 45.4178C204.044 47.7094 203.822 50.6538 203.558 52.9384C203.466 53.833 203.32 54.7212 203.12 55.598C201.982 59.8271 198.613 62.5978 199.287 73.653Z" fill="#3A3A3A"/>
<path d="M220.712 41.293C221.866 41.6978 222.896 42.3948 223.7 43.3161C224.505 44.2374 225.057 45.3515 225.302 46.5497C225.597 48.1408 226.087 49.6894 226.761 51.1607C227.582 52.5741 228.604 53.8607 229.796 54.98C231.653 56.7033 232.948 58.9467 233.511 61.4173C234.18 64.2817 234.284 67.2491 233.817 70.1532C234.12 67.1193 233.842 64.0553 232.997 61.1257C232.15 58.1744 230.323 56.4939 228.414 54.4314C226.873 52.7969 225.787 50.7886 225.261 48.6052C224.927 47.2164 224.768 45.8275 224.094 44.5915C223.259 43.2765 222.05 42.2414 220.621 41.6194C220.413 41.5013 220.538 41.2235 220.712 41.293Z" fill="#3A3A3A"/>
<path d="M199.933 60.4105C201.217 58.0286 202.599 55.9593 203.176 53.1538C203.704 50.5914 203.87 47.9387 204.398 45.3832C204.398 45.3415 204.467 45.3485 204.461 45.3832C203.697 49.9039 203.981 54.3135 201.815 58.3272C200.641 60.5008 199.446 62.5354 198.807 65.0423C198.159 67.6733 197.987 70.3991 198.3 73.0906C198.3 73.1879 198.189 73.2018 198.175 73.0906C197.255 68.7887 197.877 64.3002 199.933 60.4105Z" fill="#3A3A3A"/>
<path d="M217.489 72.9379C210.336 74.2017 186.196 66.57 181.675 61.6118C174.946 54.244 169.834 41.0847 168.383 36.1335C167.751 33.9738 181.974 27.474 182.967 29.6545C185.134 34.328 191.301 48.8206 192.502 50.1816C193.703 51.5427 205.697 59.8549 212.642 63.5354C222.01 68.4866 221.108 72.299 217.489 72.9379Z" fill="#FB907D"/>
<path d="M184.022 32.6752C183.911 31.6058 180.605 23.5991 178.772 21.0366C176.894 18.2752 174.576 15.8402 171.911 13.8285C167.688 10.6759 164.466 8.88425 163.632 9.51618C162.091 10.6828 163.007 12.5786 167.237 15.8215C171.466 19.0645 170.897 22.2102 170.327 24.4046C168.919 29.7846 168.888 35.4325 170.237 40.8277C170.237 40.8277 184.467 36.807 184.022 32.6752Z" fill="#FB907D"/>
<path d="M170.556 23.6129C170.042 25.8976 167.202 17.3631 164.639 16.6687C162.077 15.9743 162.285 18.6478 163.25 20.995C166.66 29.1197 165.16 34.2723 169.167 38.9388C173.174 43.6054 170.556 23.6129 170.556 23.6129Z" fill="#FB907D"/>
<path d="M169.459 42.2443C169.765 41.9873 185.661 32.7793 185.661 32.7793C185.661 32.7793 191.564 47.8274 192.773 49.626C193.981 51.4245 211.357 62.5145 217.364 66.0213C223.788 69.7781 221.871 75.3127 210.558 73.0766C199.245 70.8406 186.328 66.4866 182.036 62.7506C177.862 59.1326 169.459 42.2443 169.459 42.2443Z" fill="#C1C1FB"/>
<path d="M171.841 44.0012C178.376 40.9457 184.786 36.7376 185.953 36.0848C186.008 36.0501 185.953 35.9667 185.897 36.0015C184.786 36.6959 176.945 40.7166 171.779 43.9109C171.769 43.9201 171.763 43.9323 171.762 43.9455C171.76 43.9587 171.764 43.972 171.771 43.9829C171.779 43.9938 171.79 44.0016 171.803 44.005C171.816 44.0083 171.829 44.007 171.841 44.0012Z" fill="#3A3A3A"/>
<path d="M210.274 94.4719L211.454 114.082C211.454 114.082 242.574 108.11 250.164 105.971C250.164 105.971 236.504 71.6809 226.358 64.4034C221.281 60.7646 216.489 62.1118 214.045 65.8964C213.42 66.8547 206.628 81.1737 206.621 86.0902C206.628 90.4373 210.274 94.4719 210.274 94.4719Z" fill="#C1C1FB"/>
<path d="M221.17 64.7644C221.017 65.3824 217.996 69.3892 215.149 69.2226C214.218 69.167 214.301 64.0977 214.301 64.0977L214.225 63.7158L213.114 58.459L219.329 54.5841L220.225 54.105C220.225 54.105 220.434 55.5633 220.677 57.3827C220.677 57.466 220.677 57.5493 220.711 57.6396L220.753 57.9382C220.795 58.209 220.829 58.4868 220.864 58.7646C220.899 59.0423 220.92 59.1812 220.934 59.4034C220.947 59.6256 220.982 59.8409 221.01 60.0631C221.167 61.6249 221.221 63.1955 221.17 64.7644Z" fill="#FB907D"/>
<path d="M220.677 57.3479C220.128 58.8139 219.266 60.1429 218.152 61.2426C217.038 62.3422 215.698 63.1862 214.225 63.7158L213.114 58.459L219.329 54.5841L220.225 54.105C220.225 54.105 220.434 55.5285 220.677 57.3479Z" fill="#3A3A3A"/>
<path d="M205.433 51.4177C205.787 60.848 211.475 61.7021 213.51 61.6257C215.35 61.5493 221.628 61.0771 222.254 51.6607C222.879 42.2444 218.385 39.432 214.149 39.3695C209.913 39.307 205.086 41.9944 205.433 51.4177Z" fill="#FB907D"/>
<path d="M206.732 48.7649C206.945 48.7223 207.156 48.669 207.364 48.6052C207.593 48.5801 207.808 48.48 207.975 48.3205C208.022 48.2624 208.047 48.1901 208.047 48.1156C208.047 48.0411 208.022 47.9688 207.975 47.9108C207.864 47.8126 207.729 47.7456 207.584 47.7163C207.439 47.687 207.289 47.6966 207.148 47.7441C206.849 47.7997 206.581 47.9658 206.398 48.2093C206.362 48.266 206.342 48.3318 206.341 48.3992C206.34 48.4666 206.358 48.533 206.392 48.5908C206.427 48.6486 206.477 48.6956 206.537 48.7263C206.597 48.7571 206.665 48.7705 206.732 48.7649Z" fill="#3A3A3A"/>
<path d="M212.926 48.5496C212.709 48.5261 212.493 48.489 212.28 48.4385C212.049 48.4321 211.827 48.349 211.648 48.2024C211.605 48.1429 211.582 48.0712 211.582 47.9975C211.582 47.9239 211.605 47.8522 211.648 47.7927C211.751 47.6862 211.881 47.6094 212.024 47.5703C212.167 47.5312 212.318 47.5313 212.461 47.5705C212.765 47.599 213.046 47.7432 213.246 47.9732C213.291 48.0281 213.319 48.0953 213.325 48.1661C213.332 48.2369 213.317 48.308 213.282 48.3701C213.248 48.4323 213.195 48.4827 213.132 48.5147C213.068 48.5467 212.997 48.5589 212.926 48.5496Z" fill="#3A3A3A"/>
<path d="M211.753 50.9941C211.753 50.9941 211.808 50.9941 211.808 51.0497C211.808 51.6955 211.892 52.4385 212.503 52.6399V52.6746C211.76 52.5844 211.642 51.6052 211.753 50.9941Z" fill="#3A3A3A"/>
<path d="M212.322 50.3204C213.35 50.2232 213.461 52.2996 212.503 52.4037C211.544 52.5079 211.454 50.3968 212.322 50.3204Z" fill="#3A3A3A"/>
<path d="M212.732 50.4038C212.92 50.5149 213.107 50.7094 213.329 50.7233C213.552 50.7372 213.76 50.508 213.913 50.2927C213.913 50.2927 213.913 50.2927 213.954 50.2927C213.954 50.6885 213.843 51.1052 213.427 51.1816C213.01 51.258 212.732 50.9177 212.621 50.5288C212.586 50.4733 212.656 50.3622 212.732 50.4038Z" fill="#3A3A3A"/>
<path d="M208.058 51.0635C208.058 51.0635 208.009 51.0635 208.016 51.126C208.072 51.7649 208.016 52.5148 207.468 52.7579C207.468 52.7579 207.468 52.7995 207.468 52.7926C208.176 52.6537 208.218 51.6607 208.058 51.0635Z" fill="#3A3A3A"/>
<path d="M207.447 50.4316C206.412 50.4316 206.454 52.5149 207.412 52.5149C208.371 52.5149 208.315 50.4455 207.447 50.4316Z" fill="#3A3A3A"/>
<path d="M207.03 50.5775C206.871 50.6886 206.711 50.8969 206.516 50.9108C206.322 50.9247 206.121 50.7094 205.968 50.4941C205.968 50.89 206.1 51.2997 206.482 51.3691C206.864 51.4386 207.079 51.0844 207.176 50.6747C207.141 50.633 207.086 50.5289 207.03 50.5775Z" fill="#3A3A3A"/>
<path d="M212.079 56.0981C211.94 56.2648 211.808 56.487 211.579 56.5287C211.344 56.5466 211.108 56.5159 210.885 56.4384C210.989 56.5551 211.123 56.6414 211.272 56.6879C211.421 56.7343 211.58 56.7393 211.732 56.7023C211.857 56.6542 211.966 56.5709 212.045 56.4625C212.124 56.354 212.169 56.2251 212.177 56.0912C212.149 56.0842 212.1 56.0773 212.079 56.0981Z" fill="#3A3A3A"/>
<path d="M209.301 53.8899C209.253 54.3513 209.227 54.8148 209.225 55.2787C209.225 55.3204 209.336 55.3343 209.489 55.3412C209.884 55.4013 210.289 55.3499 210.657 55.1929C211.025 55.0359 211.342 54.7794 211.572 54.4523C211.577 54.4429 211.578 54.4321 211.576 54.4218C211.574 54.4114 211.569 54.402 211.561 54.3949C211.553 54.3879 211.543 54.3836 211.533 54.3827C211.522 54.3817 211.512 54.3843 211.503 54.3898C210.941 54.81 210.259 55.0366 209.558 55.0356C209.523 54.9107 209.773 53.3899 209.704 53.3829C209.355 53.431 209.014 53.5244 208.69 53.6607C208.822 51.6469 209.28 49.6678 209.384 47.6609C209.384 47.6443 209.378 47.6284 209.366 47.6167C209.354 47.605 209.338 47.5984 209.322 47.5984C209.305 47.5984 209.289 47.605 209.278 47.6167C209.266 47.6284 209.259 47.6443 209.259 47.6609C208.704 49.7626 208.36 51.9144 208.232 54.0843C208.204 54.3482 209.114 53.9732 209.301 53.8899Z" fill="#3A3A3A"/>
<path d="M209.489 55.0634C209.738 55.4361 210.081 55.7376 210.482 55.9384C210.698 56.0417 210.94 56.0756 211.176 56.0356C211.704 55.9314 211.746 55.4592 211.683 55.0495C211.644 54.8295 211.579 54.615 211.489 54.4106C210.907 54.8332 210.208 55.0616 209.489 55.0634Z" fill="#3A3A3A"/>
<path d="M210.503 55.9383C210.719 56.0416 210.961 56.0756 211.197 56.0355C211.725 55.9314 211.767 55.4592 211.704 55.0495C211.434 55.0426 211.169 55.1264 210.951 55.2874C210.733 55.4484 210.576 55.6775 210.503 55.9383Z" fill="#FCBFB7"/>
<path d="M221.871 51.3759C219.587 51.5009 219.441 47.9038 219.441 47.9038C219.441 47.9038 216.836 47.7927 216.455 43.6192C215.991 44.4824 215.333 45.2259 214.533 45.7912C213.732 46.3564 212.812 46.7278 211.843 46.8761C211.1 47.0219 213.503 44.9803 213.503 44.9803C213.503 44.9803 210.649 47.8205 205.058 47.0636C204.662 47.008 204.773 40.5846 209.031 38.3902C213.288 36.1959 217.705 37.6958 220.517 40.3069C220.517 40.3069 223.767 41.6332 224.267 44.6262C224.767 47.6191 222.753 51.3273 221.871 51.3759Z" fill="#3A3A3A"/>
<path d="M220.781 52.4454C220.781 52.4454 222.462 49.265 223.878 49.8274C225.295 50.3899 224.288 54.8203 222.802 55.5911C222.619 55.7046 222.414 55.7796 222.201 55.8116C221.988 55.8436 221.771 55.832 221.562 55.7775C221.354 55.7229 221.159 55.6266 220.988 55.4943C220.818 55.362 220.677 55.1965 220.573 55.0078L220.781 52.4454Z" fill="#FB907D"/>
<path d="M223.559 51.0913C223.559 51.0913 223.594 51.0913 223.559 51.133C223.087 51.4454 222.686 51.8546 222.383 52.3334C222.08 52.8122 221.882 53.3498 221.802 53.9107C221.852 53.7936 221.927 53.6887 222.021 53.6031C222.115 53.5176 222.227 53.4535 222.348 53.4153C222.47 53.377 222.598 53.3655 222.724 53.3815C222.851 53.3974 222.972 53.4406 223.08 53.5079V53.5704C222.881 53.5331 222.675 53.5585 222.491 53.6431C222.307 53.7277 222.154 53.8673 222.052 54.0426C221.886 54.3379 221.751 54.6498 221.649 54.9731C221.608 55.0773 221.427 55.0426 221.448 54.9315C221.24 53.501 222.08 51.4177 223.559 51.0913Z" fill="#3A3A3A"/>
<path d="M228.83 68.0699C240.81 80.6875 250.651 106.958 244.886 109.395C239.622 111.645 222.934 109.562 216.072 107.93C214.058 107.444 218.156 91.833 220.274 92.3469C222.878 92.9649 229.538 93.9232 229.809 93.9024C230.386 93.8607 224.253 76.396 222.281 69.6948C219.531 60.3548 224.337 63.3339 228.83 68.0699Z" fill="#FB907D"/>
<path d="M199.509 88.7566C199.261 89.1869 199.148 89.6821 199.185 90.1776C199.222 90.6731 199.408 91.1459 199.717 91.5343C198.946 91.8992 198.326 92.5234 197.967 93.2981C197.391 94.687 199.356 96.2008 199.356 96.2008C198.633 96.7483 198.091 97.5008 197.801 98.3605C197.391 99.7493 199.134 101.548 199.134 101.548C198.744 102.423 198.682 103.409 198.96 104.326C199.794 106.721 203.586 107.582 205.989 108.159C208.391 108.735 215.711 108.103 217.149 108.124L220.92 92.7634C220.92 92.7634 210.885 87.1386 207.961 86.8678C205.509 86.6386 200.558 87.1386 199.509 88.7566Z" fill="#FB907D"/>
<path d="M199.884 91.3469C202.558 90.9649 205.197 91.3885 207.857 91.6663C207.866 91.6699 207.873 91.6761 207.879 91.6842C207.884 91.6922 207.887 91.7017 207.887 91.7114C207.887 91.7212 207.884 91.7306 207.879 91.7387C207.873 91.7467 207.866 91.753 207.857 91.7566C205.211 91.451 202.544 91.6732 199.898 91.4719C199.881 91.4737 199.865 91.4689 199.852 91.4585C199.839 91.448 199.83 91.4329 199.829 91.4163C199.827 91.3997 199.831 91.3831 199.842 91.3701C199.852 91.3571 199.867 91.3487 199.884 91.3469Z" fill="#3A3A3A"/>
<path d="M199.433 96.0481C200.048 96.0192 200.664 96.0705 201.266 96.2009C201.912 96.305 202.558 96.4162 203.197 96.5342C204.482 96.7773 205.759 97.0481 207.023 97.3606C207.086 97.3606 207.079 97.4578 207.023 97.4508C205.745 97.2055 204.461 96.9902 203.169 96.805L201.238 96.5411C200.622 96.5037 200.012 96.3989 199.419 96.2287C199.401 96.2202 199.386 96.2065 199.377 96.1896C199.367 96.1726 199.363 96.1531 199.364 96.1336C199.366 96.1141 199.373 96.0955 199.385 96.0803C199.397 96.065 199.414 96.0538 199.433 96.0481Z" fill="#3A3A3A"/>
<path d="M199.162 101.597C199.72 101.576 200.277 101.654 200.808 101.826L202.558 102.18C203.725 102.409 204.891 102.645 206.065 102.833C206.127 102.833 206.114 102.937 206.065 102.93C204.87 102.736 203.669 102.569 202.481 102.368L200.724 102.069C200.181 102.023 199.65 101.882 199.155 101.652C199.155 101.652 199.141 101.597 199.162 101.597Z" fill="#3A3A3A"/>
<path d="M229.191 93.4024C230.018 92.708 223.476 76.2571 221.691 68.7713C219.906 61.2854 223.365 61.702 228.844 67.7296C234.719 74.1877 244.484 88.472 246.706 103.187C247.401 107.784 248.338 111.062 237.678 110.874C231.495 110.809 225.326 110.27 219.226 109.263L221.545 92.458C221.545 92.458 228.955 93.6038 229.191 93.4024Z" fill="#C1C1FB"/>
<path d="M223.004 109.131C224.393 102.478 224.781 95.2843 224.948 94.0343C224.948 93.9787 224.858 93.9718 224.851 94.0343C224.754 95.2634 223.386 103.437 222.899 109.124C222.899 109.187 223.004 109.194 223.004 109.131Z" fill="#3A3A3A"/>
<path d="M237.275 94.7079C236.617 94.5221 235.946 94.3852 235.268 94.2982L233.4 93.9579L232.587 93.8121H232.664L233.747 93.6593C234.108 93.6038 234.442 93.5274 234.837 93.4927C234.893 93.4927 234.893 93.3955 234.837 93.4024C234.476 93.451 234.143 93.451 233.754 93.4719L232.622 93.5482L231.636 93.6524C231.032 93.5552 230.427 93.458 229.823 93.3746C229.559 92.1802 229.129 90.9997 228.775 89.8331C228.42 88.6664 227.997 87.4026 227.58 86.1943C227.163 84.986 226.74 83.8333 226.281 82.6666C226.052 82.0833 224.83 78.5001 224.427 77.5557C224.427 77.4932 224.33 77.5557 224.344 77.5904C224.58 78.5348 225.83 82.2222 226.011 82.8194C226.142 83.2569 226.281 83.6944 226.42 84.1249L226.365 84.0624L225.636 83.0902C225.149 82.4305 224.663 81.7639 224.247 81.0625C224.247 81 224.122 81.0625 224.156 81.1181C224.559 81.8542 224.941 82.5903 225.365 83.3055C225.58 83.6666 225.802 83.9999 226.059 84.361C226.271 84.7129 226.523 85.0391 226.809 85.3332C226.92 85.6874 227.024 86.0276 227.143 86.4026C227.518 87.597 227.9 88.7914 228.268 89.9858C228.636 91.1803 228.907 92.208 229.295 93.2844C228.052 93.1177 226.816 92.9719 225.573 92.8191L223.67 92.5969C222.976 92.5205 222.281 92.5205 221.587 92.4024C221.524 92.4024 221.503 92.4858 221.587 92.4927C222.281 92.5691 222.934 92.7774 223.601 92.8955L225.476 93.2219C226.795 93.4441 228.122 93.6802 229.448 93.9163C230.775 94.1524 232.073 94.2635 233.386 94.4163L235.365 94.6385C236.002 94.7368 236.645 94.7901 237.289 94.7982L237.275 94.7079Z" fill="#3A3A3A"/>
<path d="M240.206 110.888C234.476 110.687 224.163 109.902 219.371 109.263C219.364 109.26 219.356 109.259 219.348 109.26C219.34 109.261 219.333 109.263 219.326 109.268C219.319 109.272 219.314 109.278 219.31 109.285C219.307 109.292 219.305 109.3 219.305 109.308C219.305 109.316 219.307 109.324 219.31 109.331C219.314 109.338 219.319 109.344 219.326 109.348C219.333 109.353 219.34 109.356 219.348 109.356C219.356 109.357 219.364 109.356 219.371 109.353C226.213 110.823 233.214 111.413 240.206 111.11C240.235 111.11 240.263 111.098 240.284 111.078C240.305 111.057 240.317 111.029 240.317 110.999C240.317 110.97 240.305 110.941 240.284 110.92C240.263 110.9 240.235 110.888 240.206 110.888Z" fill="#3A3A3A"/>
<path d="M243.456 90.9095C243.143 90.2151 242.81 89.5206 242.49 88.8262C242.115 88.0207 242.081 88.1318 242.421 89.0345C242.761 89.9373 243.053 90.722 243.379 91.5622C244.018 93.2358 247.331 103.367 246.963 106.951C246.963 106.999 247.039 107.006 247.046 106.951C247.9 102.166 244.616 93.5274 243.456 90.9095Z" fill="#3A3A3A"/>
<path d="M102.581 44.9733C110.456 52.612 112.06 72.2711 102.351 85.4929C94.1287 96.687 75.0375 98.8189 66.8287 92.1455C58.1269 85.0554 59.4047 73.5697 65.7662 67.9796C72.329 62.2158 80.2044 63.7644 84.1838 58.6257C86.0866 56.1674 86.795 50.987 89.4479 47.2024C92.4411 42.9942 98.5526 41.0499 102.581 44.9733Z" fill="#3A3A3A"/>
<path d="M95.344 43.522C96.2191 43.1956 97.0455 38.3208 93.844 36.0014C90.6424 33.682 86.538 36.3347 88.2881 40.3277C89.3507 42.8484 93.5036 44.2095 95.344 43.522Z" fill="#3A3A3A"/>
<path d="M87.5799 50.7092C87.0051 52.4908 86.2826 54.2213 85.42 55.8827C84.5565 57.5813 83.3365 59.0735 81.8435 60.2575C81.0521 60.8073 80.1741 61.2204 79.2461 61.4797C78.3433 61.7714 77.4405 62.0144 76.5446 62.2644C74.7509 62.7343 72.9823 63.2952 71.2457 63.9449C69.5242 64.577 67.8905 65.4265 66.3843 66.4726C64.8801 67.5293 63.6101 68.8851 62.6541 70.4552C61.6981 72.0254 61.0766 73.7759 60.8285 75.5973C60.5567 77.4364 60.5031 79.3011 60.6688 81.1527C60.3713 79.2998 60.313 77.4165 60.4952 75.5487C60.6933 73.6596 61.2746 71.8308 62.2036 70.1739C63.1521 68.5141 64.4479 67.0786 66.0024 65.9657C67.5491 64.8681 69.2294 63.9721 71.0026 63.2991C72.7665 62.6562 74.5631 62.1068 76.3848 61.6533C77.2877 61.4103 78.1836 61.1742 79.0655 60.9033C79.9388 60.6635 80.7719 60.2961 81.5379 59.8131C83.0154 58.7206 84.238 57.3203 85.1214 55.7091C86.0609 54.1042 86.8825 52.4332 87.5799 50.7092Z" fill="#3A3A3A"/>
<path d="M104.088 46.6816C106.375 49.9911 108.139 53.6333 109.317 57.4799C110.527 61.3457 110.998 65.4047 110.706 69.4448C110.537 71.4662 110.124 73.4598 109.477 75.3821C109.331 75.8682 109.136 76.3335 108.949 76.8057C108.761 77.2779 108.581 77.7501 108.345 78.1945C108.109 78.639 107.907 79.1112 107.65 79.5834L106.865 80.8819C104.67 84.2621 101.84 87.184 98.5317 89.4858C99.2748 88.7914 100.06 88.2012 100.775 87.5067C101.49 86.8123 102.226 86.1179 102.858 85.3679C104.202 83.9062 105.391 82.3098 106.407 80.6042C108.473 77.197 109.715 73.3542 110.032 69.3823C110.34 65.4236 109.923 61.4421 108.803 57.6327C108.267 55.7148 107.601 53.8356 106.81 52.0079C106.031 50.1697 105.121 48.3898 104.088 46.6816Z" fill="#3A3A3A"/>
<path d="M89.3645 35.7168C88.42 36.508 87.7692 37.594 87.5172 38.8C87.3908 39.3626 87.414 39.9484 87.5846 40.4991C87.7552 41.0498 88.0672 41.5462 88.4895 41.9388C89.3901 42.7399 90.4922 43.2801 91.6771 43.5013C92.2784 43.6278 92.8895 43.7021 93.5036 43.7235C94.1242 43.7713 94.7484 43.703 95.344 43.5221C94.7808 43.8309 94.158 44.0156 93.5175 44.0637C92.8739 44.1401 92.2235 44.1401 91.5799 44.0637C90.2545 43.9192 89.007 43.3658 88.0103 42.4805C87.5024 42.0133 87.1375 41.4117 86.958 40.7455C86.7785 40.0792 86.7918 39.3757 86.9963 38.7167C87.1641 38.0809 87.4609 37.4865 87.8683 36.9704C88.2758 36.4543 88.785 36.0276 89.3645 35.7168Z" fill="#3A3A3A"/>
<path d="M93.9271 69.195C91.4617 85.3958 77.1693 118.381 75.0095 122.617C73.5442 125.492 58.1823 118.082 59.474 116.284C61.1199 113.971 77.6346 84.9931 85.51 74.5073C89.8575 68.7228 94.4341 65.8479 93.9271 69.195Z" fill="#FCBFB7"/>
<path d="M59.8005 115.825C58.0087 118.186 55.203 124.929 54.5572 127.179C53.9113 129.429 52.5362 136.047 54.2447 136.741C55.9531 137.436 56.4739 135.505 56.4739 135.505C56.4739 135.505 56.335 138.387 58.0782 138.908C59.8213 139.429 60.5992 136.436 60.5992 136.436C60.5992 136.436 60.6686 139.408 62.4465 139.797C64.2243 140.186 64.5299 137.019 64.5299 137.019C64.5299 137.019 64.4674 139.741 66.0647 139.45C67.9954 139.096 67.537 134.068 68.4329 131.637C68.6412 131.082 73.3567 120.742 73.3567 120.742L59.8005 115.825Z" fill="#FCBFB7"/>
<path d="M64.1477 137.109C63.8213 133.415 64.3213 131.742 65.995 128.492C65.995 128.429 65.9394 128.367 65.8978 128.429C63.9741 131.457 63.0435 133.471 63.9671 137.137C64.0157 137.318 64.1616 137.29 64.1477 137.109Z" fill="#3A3A3A"/>
<path d="M60.3075 136.519C60.3075 132.644 60.8284 130.825 62.3284 127.29C62.3284 127.242 62.2729 127.2 62.2451 127.248C60.4811 130.589 59.5991 132.616 60.1131 136.484C60.1339 136.658 60.3075 136.693 60.3075 136.519Z" fill="#3A3A3A"/>
<path d="M56.2379 135.116C56.5018 131.366 56.9949 129.346 58.8908 126.089C58.8963 126.074 58.8967 126.058 58.8921 126.044C58.8874 126.029 58.8779 126.016 58.8652 126.007C58.8524 125.998 58.837 125.994 58.8215 125.995C58.806 125.996 58.7913 126.002 58.7797 126.012C56.7362 128.569 55.7807 131.826 56.1198 135.082C56.1407 135.352 56.2171 135.352 56.2379 135.116Z" fill="#3A3A3A"/>
<path d="M75.9958 119.45C75.9958 119.45 75.7874 124.096 75.2388 126.117C74.6901 128.137 69.9052 134.922 68.3773 133.97C66.4119 132.741 68.3773 128.276 69.669 126.221C69.669 126.221 65.1133 123.381 65.8564 119.867C66.5994 116.353 75.9958 119.45 75.9958 119.45Z" fill="#FCBFB7"/>
<path d="M67.9467 133.457C66.9605 131.04 68.7939 128.443 69.8704 126.353C69.8877 126.323 69.8974 126.289 69.8986 126.254C69.8999 126.219 69.8927 126.184 69.8777 126.153C69.8627 126.122 69.8403 126.094 69.8124 126.073C69.7845 126.053 69.752 126.039 69.7176 126.033C67.8911 124.714 65.6896 122.325 65.7313 119.943C65.7313 119.929 65.7254 119.914 65.715 119.904C65.7046 119.894 65.6905 119.888 65.6757 119.888C65.661 119.888 65.6469 119.894 65.6364 119.904C65.626 119.914 65.6202 119.929 65.6202 119.943C65.2313 122.485 67.2036 125.013 69.3009 126.332C68.162 128.457 66.4397 131.137 67.912 133.471C67.9328 133.478 67.9536 133.471 67.9467 133.457Z" fill="#3A3A3A"/>
<path d="M75.2109 87.3124C75.2109 87.3124 77.5444 88.5138 80.2529 89.9443C83.7947 91.7984 87.9824 94.0345 88.4269 94.4164C88.4269 94.4164 92.9618 79.7988 93.9827 73.2643C95.0036 66.7298 94.0591 65.452 89.295 69.3894C86.9963 71.2991 83.635 75.542 80.7807 79.4238C77.7041 83.5765 75.2109 87.3124 75.2109 87.3124Z" fill="#C1C1FB"/>
<path d="M75.2109 87.3124C75.2109 87.3124 77.5444 88.5138 80.2529 89.9443C83.7947 91.7984 87.9824 94.0345 88.4269 94.4164C88.4269 94.4164 92.9618 79.7988 93.9827 73.2643C95.0036 66.7298 94.0591 65.452 89.295 69.3894C86.9963 71.2991 83.635 75.542 80.7807 79.4238C77.7041 83.5765 75.2109 87.3124 75.2109 87.3124Z" fill="#C1C1FB"/>
<path d="M93.969 73.2642C92.9621 79.7987 88.4132 94.4163 88.4132 94.4163C87.9687 94.0344 83.781 91.7983 80.2392 89.9442L78.2808 88.9165C76.4959 87.979 75.1973 87.3123 75.1973 87.3123C75.1973 87.3123 77.6904 83.5764 80.7531 79.4237C83.6074 75.5419 86.9687 71.299 89.2674 69.3893L89.7674 68.9865C94.1079 65.5491 94.9413 66.9658 93.969 73.2642Z" fill="#C1C1FB"/>
<path d="M93.969 73.2642C92.9621 79.7987 88.4132 94.4163 88.4132 94.4163C87.9687 94.0344 83.781 91.7983 80.2392 89.9442L78.2808 88.9165C76.4959 87.979 75.1973 87.3123 75.1973 87.3123C75.1973 87.3123 77.6904 83.5764 80.7531 79.4237C83.6074 75.5419 86.9687 71.299 89.2674 69.3893L89.7674 68.9865C94.1079 65.5491 94.9413 66.9658 93.969 73.2642Z" fill="#C1C1FB"/>
<path d="M93.9691 73.2642C92.9621 79.7987 88.4132 94.4163 88.4132 94.4163C87.9688 94.0344 83.781 91.7983 80.2392 89.9442L78.2808 88.9165C81.0934 83.9652 86.3645 74.8613 89.7675 68.9865C94.1079 65.5491 94.9413 66.9658 93.9691 73.2642Z" fill="#3A3A3A"/>
<path d="M89.0172 91.1525C85.1385 88.924 81.1442 86.9027 77.0513 85.0972C77.0027 85.0972 76.975 85.1527 77.0513 85.1736C78.0445 85.618 84.4267 89.1595 89.0103 91.2359C89.0311 91.2567 89.0659 91.1803 89.0172 91.1525Z" fill="#3A3A3A"/>
<path d="M94.3369 65.9103C94.4411 66.5353 97.1496 70.7366 99.99 70.7713C100.914 70.7713 101.198 65.7436 101.198 65.7436L101.309 65.3756L102.796 60.2299L96.9134 55.9245L96.0592 55.3481C96.0592 55.3481 95.7467 56.7856 95.3648 58.5703C95.3648 58.6536 95.33 58.7369 95.3161 58.8272C95.3022 58.9175 95.2675 59.0216 95.2467 59.1189C95.1911 59.3827 95.1286 59.6605 95.0731 59.9313C95.0175 60.2022 94.9897 60.341 94.955 60.5563C94.9203 60.7716 94.8786 60.9869 94.8369 61.2091C94.5621 62.7628 94.3951 64.3336 94.3369 65.9103Z" fill="#FCBFB7"/>
<path d="M95.3716 58.5563C95.8084 60.0535 96.5657 61.4376 97.5911 62.6128C98.6164 63.7879 99.8852 64.7259 101.309 65.3617L102.796 60.216L96.9133 55.9106L96.0591 55.3342C96.0591 55.3342 95.7466 56.7717 95.3716 58.5563Z" fill="#3A3A3A"/>
<path d="M109.581 51.244C111.762 60.3757 106.581 62.7992 104.56 63.1811C102.754 63.5283 96.6288 64.8269 93.5176 55.9661C90.4063 47.1052 93.962 43.2026 97.997 42.0151C102.032 40.8277 107.4 42.1054 109.581 51.244Z" fill="#FCBFB7"/>
<path d="M108.657 49.376C108.435 49.376 108.226 49.376 108.004 49.376C107.776 49.3959 107.547 49.3424 107.351 49.2233C107.297 49.1732 107.261 49.106 107.249 49.0328C107.238 48.9596 107.252 48.8847 107.289 48.8205C107.376 48.7013 107.493 48.6079 107.629 48.5504C107.765 48.4929 107.914 48.4734 108.06 48.4941C108.363 48.4857 108.658 48.5924 108.886 48.7927C108.926 48.8423 108.952 48.9015 108.962 48.9644C108.971 49.0273 108.964 49.0916 108.941 49.1508C108.917 49.21 108.879 49.262 108.829 49.3015C108.779 49.3411 108.72 49.3668 108.657 49.376Z" fill="#3A3A3A"/>
<path d="M102.726 50.6955C102.932 50.6282 103.134 50.5494 103.33 50.4594C103.555 50.406 103.756 50.2788 103.9 50.0983C103.933 50.0327 103.945 49.9579 103.932 49.8853C103.92 49.8127 103.884 49.7461 103.83 49.6955C103.709 49.6137 103.567 49.5656 103.421 49.5558C103.275 49.546 103.128 49.5751 102.997 49.64C102.706 49.732 102.459 49.9271 102.302 50.1885C102.271 50.2513 102.259 50.3217 102.268 50.3912C102.276 50.4607 102.304 50.5263 102.349 50.58C102.394 50.6337 102.454 50.6732 102.52 50.6937C102.587 50.7142 102.659 50.7148 102.726 50.6955Z" fill="#3A3A3A"/>
<path d="M104.469 52.751C104.469 52.751 104.428 52.751 104.469 52.8135C104.608 53.4385 104.664 54.2023 104.129 54.494C104.129 54.494 104.129 54.5356 104.129 54.5287C104.782 54.2995 104.698 53.3204 104.469 52.751Z" fill="#3A3A3A"/>
<path d="M103.782 52.2022C102.761 52.3133 103.088 54.3549 104.018 54.2855C104.949 54.2161 104.643 52.105 103.782 52.2022Z" fill="#3A3A3A"/>
<path d="M103.4 52.3689C103.24 52.5078 103.094 52.737 102.879 52.7925C102.664 52.8481 102.421 52.6675 102.226 52.487H102.191C102.247 52.8828 102.455 53.2578 102.886 53.2578C103.316 53.2578 103.497 52.862 103.539 52.4592C103.553 52.4106 103.462 52.3134 103.4 52.3689Z" fill="#3A3A3A"/>
<path d="M107.817 51.8899C107.817 51.8899 107.872 51.8899 107.872 51.9385C107.942 52.5704 108.129 53.3273 108.733 53.4176V53.4523C108.018 53.4523 107.782 52.501 107.817 51.8899Z" fill="#3A3A3A"/>
<path d="M108.289 51.1469C109.296 50.9247 109.678 52.9524 108.733 53.1607C107.789 53.369 107.442 51.3274 108.289 51.1469Z" fill="#3A3A3A"/>
<path d="M108.733 51.2023C108.914 51.2787 109.108 51.4454 109.303 51.4245C109.497 51.4037 109.657 51.1467 109.754 50.9106C109.754 50.9106 109.754 50.9106 109.796 50.9106C109.872 51.2926 109.796 51.7231 109.463 51.869C109.129 52.0148 108.824 51.7092 108.657 51.3412C108.629 51.3273 108.664 51.1676 108.733 51.2023Z" fill="#3A3A3A"/>
<path d="M105.192 57.6327C105.358 57.7647 105.532 57.9591 105.768 57.9522C106.013 57.9249 106.25 57.8469 106.463 57.723C106.463 57.723 106.504 57.723 106.463 57.723C106.386 57.8582 106.273 57.9697 106.137 58.0456C106.001 58.1215 105.847 58.1588 105.692 58.1536C105.559 58.1308 105.436 58.0702 105.338 57.979C105.239 57.8877 105.169 57.7699 105.136 57.6397C105.136 57.6397 105.164 57.6119 105.192 57.6327Z" fill="#3A3A3A"/>
<path d="M107.463 54.9244C107.463 54.9244 107.747 55.8479 107.817 56.3132C107.817 56.3549 107.719 56.3896 107.567 56.4243C107.197 56.5566 106.798 56.5844 106.413 56.5048C106.028 56.4251 105.673 56.2411 105.386 55.9729C105.379 55.9646 105.375 55.9542 105.375 55.9433C105.374 55.9324 105.377 55.9217 105.384 55.9129C105.39 55.9041 105.399 55.8977 105.41 55.8948C105.42 55.8918 105.432 55.8924 105.442 55.8966C106.072 56.1904 106.78 56.2756 107.463 56.1396C107.463 56.0077 106.921 54.5772 106.99 54.5563C107.341 54.5327 107.694 54.556 108.039 54.6258C107.504 52.6883 106.65 50.8481 106.164 48.9176C106.164 48.8482 106.247 48.8065 106.275 48.869C107.235 50.8095 108 52.8401 108.56 54.9313C108.622 55.1605 107.65 54.973 107.463 54.9244Z" fill="#3A3A3A"/>
<path d="M107.476 56.0702C107.31 56.4857 107.04 56.8516 106.692 57.1326C106.492 57.2848 106.248 57.3677 105.997 57.3687C105.462 57.3687 105.303 56.9243 105.303 56.5077C105.289 56.2747 105.308 56.0411 105.358 55.8132C106.018 56.1261 106.761 56.2163 107.476 56.0702Z" fill="#3A3A3A"/>
<path d="M106.692 57.1327C106.492 57.2849 106.248 57.3678 105.997 57.3688C105.462 57.3688 105.303 56.9244 105.303 56.5077C105.571 56.4406 105.854 56.4658 106.106 56.5792C106.358 56.6926 106.564 56.8876 106.692 57.1327Z" fill="#FCBFB7"/>
<path d="M93.6704 55.6605C94.6774 55.4591 96.9345 52.2856 96.3164 47.3691C96.3164 47.3691 96.5664 51.8203 96.3164 52.5147C96.0664 53.2092 97.5734 50.7301 97.1359 46.758C98.5094 47.474 99.9779 47.9907 101.497 48.2927C103.435 48.5496 104.581 48.369 104.692 48.2163C104.803 48.0635 101.914 47.5843 101.067 46.8274C101.067 46.8274 106.366 48.4315 108.706 48.2857C108.977 48.2857 108.518 42.772 104.65 40.9596C100.782 39.1471 95.5178 42.4387 94.233 44.1053C94.233 44.1053 92.4968 44.6122 90.9411 47.501C89.3855 50.3898 92.5871 55.8827 93.6704 55.6605Z" fill="#3A3A3A"/>
<path d="M95.2189 56.105C95.2189 56.105 92.7605 53.5009 91.5521 54.4245C90.3437 55.3481 92.4966 59.2855 94.1286 59.6605C94.3343 59.7188 94.5496 59.7351 94.7618 59.7084C94.9739 59.6816 95.1785 59.6124 95.3633 59.5048C95.548 59.3972 95.7092 59.2534 95.8372 59.0821C95.9651 58.9108 96.0572 58.7154 96.1079 58.5077L95.2189 56.105Z" fill="#FCBFB7"/>
<path d="M42.5706 211.378C42.8414 211.246 80.9128 192.483 87.2117 180.677C98.4692 159.567 102.386 132.582 103.803 126.242C106.718 118.937 108.699 111.293 109.699 103.492H79.0168C79.0168 103.492 70.9678 118.888 75.1208 129.762C75.4958 130.762 68.2941 164.935 64.7731 168.983C60.8562 173.476 30.82 188.552 30.313 188.809L42.5706 211.378Z" fill="#3A3A3A"/>
<path d="M95.3785 107.395C93.8645 115.145 92.1422 122.86 90.406 130.561C88.6698 138.262 86.8434 145.838 84.9197 153.428C83.9474 157.261 82.9473 161.083 81.9195 164.893C80.982 168.365 80.0652 171.921 77.704 174.719C75.3428 177.518 72.3287 179.441 69.4397 181.441C66.384 183.524 63.2449 185.545 60.0503 187.441C53.6056 191.274 46.9594 194.753 40.2854 198.163L37.8339 199.406C37.6534 199.496 37.8339 199.767 38.0006 199.677C44.7648 196.316 51.5152 192.885 58.0572 189.108C61.3305 187.223 64.5436 185.247 67.6966 183.177C69.2452 182.156 70.7731 181.094 72.2871 180.025C73.7118 179.035 75.0819 177.968 76.3914 176.83C77.6775 175.701 78.7789 174.377 79.6555 172.907C80.4981 171.38 81.16 169.76 81.6278 168.081C82.7459 164.393 83.6765 160.636 84.6419 156.907C86.642 149.199 88.4939 141.459 90.1977 133.686C91.927 125.915 93.5312 118.117 94.9271 110.277C95.1007 109.325 95.2674 108.374 95.448 107.423C95.4896 107.353 95.3855 107.326 95.3785 107.395Z" fill="#3A3A3A"/>
<path d="M109.699 103.492C108.699 111.293 106.718 118.937 103.803 126.242C103.657 126.881 103.49 127.728 103.296 128.762C103.247 129.012 103.199 129.269 103.143 129.533C103.087 129.797 103.011 130.228 102.935 130.623C102.858 131.019 102.803 131.318 102.733 131.693L102.587 132.436C102.497 132.929 102.393 133.45 102.289 133.984C102.247 134.2 102.205 134.422 102.157 134.637C102.08 135.047 101.99 135.471 101.907 135.901C101.553 137.637 101.157 139.533 100.712 141.554C100.518 142.408 100.316 143.297 100.101 144.199C99.8859 145.102 99.6706 146.026 99.4067 146.977C99.3095 147.38 99.2053 147.783 99.1011 148.185C98.5733 150.269 97.983 152.484 97.3372 154.713C97.1983 155.206 97.0524 155.699 96.9066 156.199C96.2491 158.398 95.5362 160.629 94.7676 162.893C94.5731 163.456 94.3717 164.018 94.1773 164.588C93.7745 165.713 93.3555 166.842 92.9203 167.976L81.5586 103.492C88.9687 103.478 109.706 103.478 109.699 103.492Z" fill="#3A3A3A"/>
<path d="M19.7497 194.274C18.3607 194.969 17.0412 195.719 15.7495 196.427L13.4021 197.725C8.54077 200.434 4.87392 202.642 4.8253 203.211C4.66557 204.947 22.222 239.453 23.236 240.46C24.2499 241.467 27.1598 238.627 27.5626 236.738C27.7917 235.592 27.5626 229.148 27.382 224.273C27.2431 221.141 27.125 218.655 27.125 218.655L31.2225 216.697L49.9109 207.802L38.1048 184.754C38.1048 184.754 28.6043 189.517 19.7497 194.274Z" fill="white"/>
<path d="M45.64 211.663C45.1678 211.024 32.7713 186.538 32.7713 186.538C32.7713 186.538 5.18656 200.843 4.4782 203.031C3.76983 205.218 22.8819 241.266 23.6875 241.634C24.4931 242.002 27.6599 239.551 28.5905 235.821C29.285 233.113 28.403 219.683 28.403 219.683L45.64 211.663Z" fill="#C1C1FB"/>
<path d="M30.0766 220.662C30.0141 218.065 28.9863 215.107 26.7987 213.558C26.7153 213.503 26.632 213.621 26.6737 213.697C27.9497 215.921 28.9857 218.275 29.7641 220.718C29.7753 220.755 29.7999 220.788 29.8333 220.808C29.8667 220.829 29.9065 220.836 29.9452 220.83C29.9838 220.823 30.0186 220.802 30.0428 220.771C30.0671 220.74 30.0791 220.701 30.0766 220.662Z" fill="#3A3A3A"/>
<path d="M31.9659 219.697C31.9034 217.1 30.8686 214.142 28.681 212.593C28.5977 212.537 28.5143 212.655 28.556 212.732C29.8377 214.953 30.8739 217.307 31.6464 219.752C31.6613 219.787 31.6872 219.815 31.7202 219.833C31.7532 219.851 31.7912 219.857 31.8281 219.851C31.865 219.844 31.8987 219.826 31.9237 219.798C31.9487 219.77 31.9636 219.734 31.9659 219.697Z" fill="#3A3A3A"/>
<path d="M33.8476 218.732C33.7851 216.135 32.7503 213.176 30.5697 211.628C30.4863 211.572 30.403 211.69 30.4447 211.767C31.7213 213.99 32.7551 216.343 33.5282 218.787C33.543 218.822 33.569 218.85 33.6019 218.868C33.6349 218.886 33.6729 218.892 33.7098 218.886C33.7468 218.879 33.7804 218.861 33.8054 218.833C33.8304 218.805 33.8453 218.769 33.8476 218.732Z" fill="#3A3A3A"/>
<path d="M35.7369 217.767C35.6674 215.169 34.6396 212.211 32.452 210.663C32.3687 210.6 32.2853 210.725 32.327 210.802C33.603 213.026 34.639 215.379 35.4174 217.822C35.4322 217.857 35.4582 217.885 35.4912 217.903C35.5242 217.921 35.5622 217.927 35.5991 217.921C35.636 217.914 35.6697 217.895 35.6947 217.867C35.7197 217.84 35.7346 217.804 35.7369 217.767Z" fill="#3A3A3A"/>
<path d="M37.6189 216.801C37.5564 214.204 36.5217 211.246 34.341 209.697C34.2507 209.635 34.1674 209.76 34.216 209.836C35.4926 212.059 36.5264 214.413 37.2995 216.857C37.3143 216.891 37.3403 216.92 37.3732 216.938C37.4062 216.955 37.4442 216.962 37.4811 216.955C37.5181 216.949 37.5518 216.93 37.5768 216.902C37.6018 216.874 37.6166 216.839 37.6189 216.801Z" fill="#3A3A3A"/>
<path d="M91.4132 130.943C91.4132 130.943 94.0384 155.831 95.2606 168.358C95.5732 171.476 95.7815 173.837 95.8579 174.844C95.8579 175.247 95.8996 181.747 95.9135 190.253C95.9135 197.712 95.9135 206.697 95.9135 214.44V219.996C95.9135 227.134 95.9135 232.217 95.9135 232.217H121.213C121.213 232.217 121.213 231.981 121.213 231.523C121.213 231.287 121.213 230.995 121.213 230.648C121.213 230.301 121.213 229.884 121.213 229.412C121.213 229.141 121.213 228.843 121.213 228.537C121.213 226.405 121.29 223.454 121.338 220.016C121.338 218.253 121.387 216.371 121.415 214.399C121.609 199.08 121.769 178.504 121.331 172.442C121.276 171.747 121.227 171.018 121.179 170.275C120.04 153.116 119.408 128.137 110.991 103.451H78.9751C78.9751 103.451 79.2529 117.95 85.8504 128.45C87.7497 129.177 89.6069 130.009 91.4132 130.943Z" fill="#3A3A3A"/>
<path d="M115.234 180.282C115.109 172.282 114.782 164.31 114.157 156.31C113.532 148.31 112.574 140.561 111.296 132.742C110.072 124.874 108.367 117.089 106.192 109.43C105.914 108.471 105.629 107.513 105.337 106.562C105.334 106.549 105.328 106.536 105.319 106.525C105.311 106.515 105.3 106.505 105.288 106.499C105.276 106.492 105.263 106.488 105.25 106.486C105.236 106.484 105.222 106.485 105.209 106.489C105.196 106.493 105.183 106.499 105.173 106.507C105.162 106.516 105.153 106.526 105.146 106.538C105.139 106.55 105.135 106.563 105.133 106.577C105.131 106.59 105.132 106.604 105.136 106.617C107.185 114.256 108.949 122.013 110.289 129.839C111.629 137.665 112.511 145.63 113.178 153.574C113.845 161.518 114.22 169.546 114.421 177.525C114.623 185.504 114.637 193.497 114.56 201.475C114.484 209.454 114.171 217.447 114.15 225.405C114.15 226.405 114.15 227.405 114.15 228.405C114.15 228.475 114.255 228.468 114.255 228.405C114.4 224.405 114.637 220.405 114.769 216.399C114.9 212.392 115.019 208.378 115.116 204.364C115.269 196.337 115.359 188.309 115.234 180.282Z" fill="#3A3A3A"/>
<path d="M95.698 132.915C94.1215 132.054 92.5034 131.276 90.8366 130.568C89.1699 129.86 87.4823 129.221 85.8364 128.485C85.7739 128.485 85.7183 128.547 85.7808 128.582C87.4059 129.415 88.9963 130.311 90.6422 131.103C92.2548 131.879 93.9184 132.545 95.6216 133.096C95.7397 133.13 95.7952 132.964 95.698 132.915Z" fill="#3A3A3A"/>
<path d="M95.976 235.134C95.976 236.676 96.0315 238.203 96.0732 239.676C96.0732 240.592 96.1288 241.488 96.1565 242.349C96.344 247.905 96.6496 252.182 97.1288 252.488C98.6011 253.418 137.318 253.536 138.673 253.092C140.027 252.647 138.839 248.752 137.339 247.536C136.429 246.807 130.603 244.064 126.172 242.016C123.325 240.703 121.054 239.683 121.054 239.683L121.179 235.141L121.783 214.447H95.8648C95.8648 214.447 95.8093 225.093 95.976 235.134Z" fill="white"/>
<path d="M123.262 220.017C122.477 220.149 95.0312 220.017 95.0312 220.017C95.0312 220.017 95.184 251.085 96.8091 252.71C98.4342 254.335 139.235 253.772 139.922 253.231C140.61 252.689 139.874 248.738 136.985 246.21C134.901 244.377 122.54 239.023 122.54 239.023L123.262 220.017Z" fill="#C1C1FB"/>
<path d="M124.179 237.974C121.838 236.842 118.72 236.405 116.359 237.655C116.269 237.703 116.359 237.828 116.421 237.828C118.977 237.706 121.538 237.857 124.061 238.28C124.101 238.295 124.146 238.294 124.186 238.277C124.226 238.259 124.257 238.226 124.273 238.186C124.288 238.145 124.287 238.1 124.27 238.061C124.252 238.021 124.219 237.99 124.179 237.974Z" fill="#3A3A3A"/>
<path d="M124.179 235.856C121.838 234.724 118.72 234.287 116.359 235.537C116.269 235.585 116.359 235.71 116.421 235.71C118.977 235.588 121.538 235.739 124.061 236.162C124.101 236.177 124.146 236.176 124.186 236.159C124.226 236.141 124.257 236.109 124.273 236.068C124.288 236.028 124.287 235.982 124.27 235.943C124.252 235.903 124.219 235.872 124.179 235.856Z" fill="#3A3A3A"/>
<path d="M124.179 233.738C121.838 232.606 118.72 232.169 116.359 233.419C116.269 233.468 116.359 233.592 116.421 233.592C118.977 233.47 121.538 233.621 124.061 234.044C124.101 234.06 124.146 234.058 124.186 234.041C124.226 234.023 124.257 233.991 124.273 233.95C124.288 233.91 124.287 233.865 124.27 233.825C124.252 233.785 124.219 233.754 124.179 233.738Z" fill="#3A3A3A"/>
<path d="M124.179 231.62C121.838 230.488 118.72 230.051 116.359 231.301C116.269 231.349 116.359 231.474 116.421 231.474C118.977 231.352 121.538 231.503 124.061 231.926C124.101 231.941 124.146 231.94 124.186 231.923C124.226 231.905 124.257 231.872 124.273 231.832C124.288 231.791 124.287 231.746 124.27 231.707C124.252 231.667 124.219 231.636 124.179 231.62Z" fill="#3A3A3A"/>
<path d="M124.179 229.502C121.838 228.37 118.72 227.933 116.359 229.183C116.269 229.231 116.359 229.356 116.421 229.356C118.977 229.234 121.538 229.385 124.061 229.808C124.101 229.823 124.146 229.822 124.186 229.805C124.226 229.787 124.257 229.755 124.273 229.714C124.288 229.674 124.287 229.628 124.27 229.589C124.252 229.549 124.219 229.518 124.179 229.502Z" fill="#3A3A3A"/>
<path d="M111.831 94.944L114.657 114.388C114.657 114.388 81.1624 114.853 73.2939 114.305C73.2939 114.305 81.5166 77.9515 89.9615 68.7712C94.1978 64.1742 99.1633 64.5214 102.33 67.7296C103.129 68.5421 112.685 81.1736 113.692 85.9999C114.588 90.2567 111.831 94.944 111.831 94.944Z" fill="#C1C1FB"/>
<path d="M96.6494 74.0906C101.4 74.785 129.234 73.1393 134.151 67.3617C140.124 60.3688 147.346 46.6401 149.173 42.2375C150.367 39.3139 136.547 31.8211 135.769 34.5988C134.554 38.9459 123.804 55.369 122.97 56.8203C122.137 58.2717 109.775 62.5215 102.573 66.1187C96.1146 69.3408 93.302 73.5837 96.6494 74.0906Z" fill="#FCBFB7"/>
<path d="M135.61 35.2237C135.61 35.2237 137.179 29.4461 138.388 25.7171C139.082 23.6338 140.534 20.1617 141.728 18.877C143.513 16.9257 152.215 9.91896 153.958 11.9953C155.541 13.8702 147.298 18.9395 147.298 18.9395C147.298 18.9395 155.166 13.0855 156.646 15.6966C158.125 18.3076 148.055 22.8005 148.055 22.8005C148.055 22.8005 156.278 16.9674 157.382 19.9048C158.215 22.12 149.319 26.7032 149.319 26.7032C149.319 26.7032 156.416 21.738 157.375 23.981C158.437 26.4601 150.486 31.203 150.486 31.203C151.965 37.3209 150.166 40.8347 148.59 43.1818C148.201 43.7443 135.61 35.2237 135.61 35.2237Z" fill="#FCBFB7"/>
<path d="M144.437 20.7728C145.339 20.0783 146.242 19.3145 147.215 18.6895C148.187 18.0645 149.159 17.4465 150.173 16.8979C151.49 16.1569 152.889 15.5697 154.34 15.1479C151.912 16.2013 149.587 17.4775 147.395 18.9603C146.437 19.5923 145.451 20.1825 144.492 20.8214C144.437 20.8422 144.416 20.8075 144.437 20.7728Z" fill="#3A3A3A"/>
<path d="M146.68 24.3006C147.867 23.4256 149.013 22.5229 150.243 21.7034C151.472 20.884 152.694 20.2243 153.965 19.4952C154.069 19.4396 154.062 19.4952 153.965 19.5716C152.722 20.3493 151.632 21.1618 150.402 21.9534C149.173 22.7451 147.902 23.495 146.701 24.3284C146.68 24.3422 146.666 24.3145 146.68 24.3006Z" fill="#3A3A3A"/>
<path d="M148.062 27.6545C149.854 26.2758 151.783 25.0844 153.819 24.099C153.916 24.0504 153.902 24.1407 153.819 24.2032C151.881 25.349 150.346 26.2309 148.124 27.717C148.076 27.717 147.999 27.717 148.062 27.6545Z" fill="#3A3A3A"/>
<path d="M116.005 58.355L122.769 72.9865C122.769 72.9865 106.018 77.4724 97.99 76.3961C92.1911 75.6183 92.3855 71.0074 100.379 66.2506C106.692 62.4937 116.005 58.355 116.005 58.355Z" fill="#C1C1FB"/>
<path d="M119.692 73.1253C117.934 68.5974 115.934 64.1675 113.699 59.8549C113.699 59.7994 113.595 59.8549 113.622 59.8966C114.164 60.9452 117.143 68.2921 119.602 73.167C119.63 73.2225 119.713 73.1809 119.692 73.1253Z" fill="#3A3A3A"/>
<path d="M108.511 75.9307C105.886 76.3126 103.379 77.3196 100.872 78.1251C100.86 78.1312 100.851 78.1413 100.846 78.1535C100.841 78.1658 100.84 78.1795 100.845 78.1921C100.849 78.2046 100.857 78.2153 100.869 78.2221C100.88 78.2289 100.894 78.2315 100.907 78.2293C101.872 77.9515 102.858 77.7015 103.844 77.4446C103.393 77.7154 102.955 78.007 102.504 78.2709C102.441 78.2709 102.504 78.3959 102.56 78.3612C103.254 77.9654 103.948 77.6668 104.643 77.2293C105.962 76.898 107.259 76.4828 108.525 75.9863C108.525 75.9863 108.553 75.9238 108.511 75.9307Z" fill="#3A3A3A"/>
</g>
<defs>
<clipPath id="clip0_32830_2102">
<rect width="321" height="265" fill="white" transform="translate(0 -0.000488281)"/>
</clipPath>
</defs>
</svg>
