<svg width="40" height="40" viewBox="0 0 40 40" fill="none" xmlns="http://www.w3.org/2000/svg">
<g filter="url(#filter0_d_32795_13522)">
<path fill-rule="evenodd" clip-rule="evenodd" d="M8.33333 16.666C6.5 16.666 5 18.166 5 19.9993C5 21.8327 6.5 23.3327 8.33333 23.3327C10.1667 23.3327 11.6667 21.8327 11.6667 19.9993C11.6667 18.166 10.1667 16.666 8.33333 16.666ZM31.6667 16.666C29.8333 16.666 28.3333 18.166 28.3333 19.9993C28.3333 21.8327 29.8333 23.3327 31.6667 23.3327C33.5 23.3327 35 21.8327 35 19.9993C35 18.166 33.5 16.666 31.6667 16.666ZM20 16.666C18.1667 16.666 16.6667 18.166 16.6667 19.9993C16.6667 21.8327 18.1667 23.3327 20 23.3327C21.8333 23.3327 23.3333 21.8327 23.3333 19.9993C23.3333 18.166 21.8333 16.666 20 16.666Z" fill="#3A3A3A"/>
</g>
<defs>
<filter id="filter0_d_32795_13522" x="2.69231" y="16.666" width="32.3077" height="8.9742" filterUnits="userSpaceOnUse" color-interpolation-filters="sRGB">
<feFlood flood-opacity="0" result="BackgroundImageFix"/>
<feColorMatrix in="SourceAlpha" type="matrix" values="0 0 0 0 0 0 0 0 0 0 0 0 0 0 0 0 0 0 127 0" result="hardAlpha"/>
<feOffset dx="-2.30769" dy="2.30769"/>
<feComposite in2="hardAlpha" operator="out"/>
<feColorMatrix type="matrix" values="0 0 0 0 0.658824 0 0 0 0 0.670588 0 0 0 0 0.937255 0 0 0 0.29 0"/>
<feBlend mode="normal" in2="BackgroundImageFix" result="effect1_dropShadow_32795_13522"/>
<feBlend mode="normal" in="SourceGraphic" in2="effect1_dropShadow_32795_13522" result="shape"/>
</filter>
</defs>
</svg>
