<svg width="41" height="41" viewBox="0 0 41 41" fill="none" xmlns="http://www.w3.org/2000/svg">
<g filter="url(#filter0_d_32861_24194)">
<path fill-rule="evenodd" clip-rule="evenodd" d="M21.0007 36.6661C11.7957 36.6661 4.33398 29.2044 4.33398 19.9994C4.33398 10.7944 11.7957 3.33276 21.0007 3.33276C30.2057 3.33276 37.6673 10.7944 37.6673 19.9994C37.6673 29.2044 30.2057 36.6661 21.0007 36.6661ZM19.334 24.9994V28.3328H22.6673V24.9994H19.334ZM22.6673 22.2578C25.4357 21.4234 27.1759 18.688 26.7585 15.8269C26.3412 12.9658 23.892 10.8415 21.0007 10.8328C18.2199 10.8326 15.8254 12.7946 15.279 15.5211L18.549 16.1761C18.8071 14.8847 20.0227 14.015 21.3283 14.1877C22.6338 14.3604 23.5816 15.5162 23.4951 16.8303C23.4086 18.1443 22.3176 19.166 21.0007 19.1661C20.0802 19.1661 19.334 19.9123 19.334 20.8328V23.3328H22.6673V22.2578Z" fill="#FA9D79"/>
</g>
<defs>
<filter id="filter0_d_32861_24194" x="0.180138" y="3.33276" width="37.4873" height="37.4872" filterUnits="userSpaceOnUse" color-interpolation-filters="sRGB">
<feFlood flood-opacity="0" result="BackgroundImageFix"/>
<feColorMatrix in="SourceAlpha" type="matrix" values="0 0 0 0 0 0 0 0 0 0 0 0 0 0 0 0 0 0 127 0" result="hardAlpha"/>
<feOffset dx="-4.15385" dy="4.15385"/>
<feComposite in2="hardAlpha" operator="out"/>
<feColorMatrix type="matrix" values="0 0 0 0 1 0 0 0 0 0.298039 0 0 0 0 0.215686 0 0 0 0.15 0"/>
<feBlend mode="normal" in2="BackgroundImageFix" result="effect1_dropShadow_32861_24194"/>
<feBlend mode="normal" in="SourceGraphic" in2="effect1_dropShadow_32861_24194" result="shape"/>
</filter>
</defs>
</svg>
