<svg width="331" height="353" viewBox="0 0 331 353" fill="none" xmlns="http://www.w3.org/2000/svg">
<g clip-path="url(#clip0_1271_99681)">
<path d="M219.908 42.6222H5.09766V37.0674C5.09766 33.5923 7.9089 30.7754 11.377 30.7754H213.55C217.062 30.7754 219.908 33.6274 219.908 37.1463V42.6222Z" fill="#E3E3FB" stroke="#F5F5FD" stroke-width="2.36" stroke-miterlimit="10"/>
<path d="M213.566 30.7842H11.4193C7.70468 30.7842 4.69336 33.8016 4.69336 37.5237V306.762C4.69336 310.484 7.70468 313.502 11.4193 313.502H213.566C217.281 313.502 220.292 310.484 220.292 306.762V37.5237C220.292 33.8016 217.281 30.7842 213.566 30.7842Z" fill="#E3E3FB" stroke="#F5F5FD" stroke-width="2.36" stroke-miterlimit="10"/>
<path d="M240.481 61.3314H25.6699V55.7766C25.6699 52.3015 28.4812 49.4846 31.9492 49.4846H234.122C237.634 49.4846 240.481 52.3366 240.481 55.8556V61.3314Z" fill="#E3E3FB" stroke="#F5F5FD" stroke-width="2.36" stroke-miterlimit="10"/>
<path d="M234.138 49.4846H31.9916C28.2769 49.4846 25.2656 52.502 25.2656 56.2241V325.463C25.2656 329.185 28.2769 332.202 31.9916 332.202H234.138C237.853 332.202 240.864 329.185 240.864 325.463V56.2241C240.864 52.502 237.853 49.4846 234.138 49.4846Z" fill="#E3E3FB" stroke="#F5F5FD" stroke-width="2.36" stroke-miterlimit="10"/>
<path d="M51.5918 69.905H253.765C257.268 69.905 260.123 72.757 260.123 76.276V81.7518H45.3125V76.197C45.3125 72.7219 48.1237 69.905 51.5918 69.905Z" fill="white"/>
<path d="M253.791 69.905H51.6439C47.9293 69.905 44.918 72.9224 44.918 76.6445V345.883C44.918 349.605 47.9293 352.623 51.6439 352.623H253.791C257.505 352.623 260.517 349.605 260.517 345.883V76.6445C260.517 72.9224 257.505 69.905 253.791 69.905Z" fill="white"/>
<path d="M54.2628 76.1882C54.2628 77.3203 53.352 78.2329 52.2222 78.2329C51.0925 78.2329 50.1816 77.3203 50.1816 76.1882C50.1816 75.0562 51.0925 74.1436 52.2222 74.1436C53.352 74.1436 54.2628 75.0562 54.2628 76.1882Z" fill="white"/>
<path d="M61.6378 76.1882C61.6378 77.3203 60.727 78.2329 59.5972 78.2329C58.4675 78.2329 57.5566 77.3203 57.5566 76.1882C57.5566 75.0562 58.4675 74.1436 59.5972 74.1436C60.727 74.1436 61.6378 75.0562 61.6378 76.1882Z" fill="white"/>
<path d="M69.0108 76.1882C69.0108 77.3203 68.1 78.2329 66.9702 78.2329C65.8405 78.2329 64.9297 77.3203 64.9297 76.1882C64.9297 75.0562 65.8405 74.1436 66.9702 74.1436C68.1 74.1436 69.0108 75.0562 69.0108 76.1882Z" fill="white"/>
<mask id="mask0_1271_99681" style="mask-type:luminance" maskUnits="userSpaceOnUse" x="45" y="82" width="216" height="70">
<path d="M260.141 82.1116H45.3125V151.516H260.141V82.1116Z" fill="white"/>
</mask>
<g mask="url(#mask0_1271_99681)">
<path d="M260.141 81.7517H45.3125V151.867H260.141V81.7517Z" fill="#E3E3FD"/>
<path d="M258.687 151.867H45.3125V130.631L121.312 129.464L258.687 128.569V151.867Z" fill="#B8B8E0"/>
<mask id="mask1_1271_99681" style="mask-type:luminance" maskUnits="userSpaceOnUse" x="45" y="81" width="216" height="71">
<path d="M260.141 81.7517H45.3125V151.867H260.141V81.7517Z" fill="white"/>
</mask>
<g mask="url(#mask1_1271_99681)">
<path d="M25.5898 131.175L147.498 129.788L133.705 129.99L101.388 142.715L91.2644 152.543L25.5898 152.841V131.175Z" fill="#6A6AEC"/>
<path d="M84.7401 140.486C84.7401 140.486 84.6613 140.459 84.6613 140.415C84.565 139.784 84.6 139.354 84.7489 139.161C84.8014 139.082 84.8802 139.038 84.9678 139.029C85.213 138.994 85.4407 139.266 85.5984 139.52C85.5984 139.336 85.6509 139.161 85.8261 139.108C86.0888 139.029 86.4917 139.319 86.7632 139.784C86.7894 139.819 86.7719 139.871 86.7369 139.898C86.7019 139.924 86.6493 139.906 86.623 139.871C86.3778 139.45 86.0363 139.222 85.8786 139.266C85.721 139.31 85.756 139.652 85.8173 139.924C85.8173 139.968 85.7998 140.003 85.7648 140.021C85.721 140.029 85.686 140.021 85.6684 139.977C85.5458 139.705 85.2306 139.169 85.0029 139.196C84.9591 139.196 84.924 139.222 84.8978 139.266C84.8277 139.354 84.7314 139.626 84.8452 140.398C84.8452 140.442 84.8189 140.486 84.7752 140.494C84.7752 140.494 84.7752 140.494 84.7664 140.494L84.7401 140.486Z" fill="#067F45"/>
<path d="M54.1399 150.375C54.0873 150.375 54.0348 150.331 54.026 150.279C53.8946 149.401 53.9384 148.822 54.1399 148.55C54.2187 148.445 54.315 148.383 54.4376 148.366C54.7704 148.322 55.0945 148.699 55.3134 149.041C55.3134 148.787 55.3922 148.541 55.6287 148.471C55.9878 148.366 56.5483 148.761 56.9161 149.41C56.9511 149.463 56.9248 149.533 56.8723 149.568C56.8197 149.603 56.7497 149.577 56.7147 149.524C56.3731 148.945 55.9089 148.62 55.69 148.69C55.471 148.752 55.5236 149.217 55.6024 149.594C55.6112 149.647 55.5849 149.708 55.5236 149.726C55.4711 149.744 55.4097 149.717 55.3835 149.665C55.2171 149.296 54.7879 148.55 54.4639 148.594C54.4026 148.594 54.3588 148.629 54.315 148.682C54.2187 148.805 54.0873 149.173 54.245 150.244C54.2537 150.305 54.2099 150.367 54.1486 150.375C54.1486 150.375 54.1399 150.375 54.1311 150.375H54.1399Z" fill="#067F45"/>
<path d="M187.625 148.19C189.92 149.507 198.283 149.875 204.212 149.208C205.797 149.024 207.12 148.787 208.136 148.498C210.395 149.305 211.902 149.998 215.851 149.542C219.381 149.138 222.823 148.62 221.675 147.848C224.408 147.997 229.636 147.541 231.948 147.137C236.826 146.277 238.368 145.312 237.378 144.312C242.203 143.627 243.832 142.276 240.977 141.188C237.938 140.029 230.959 139.599 225.389 140.231C224.53 140.328 223.751 140.451 223.068 140.582C220.519 140.126 216.797 140.021 213.688 140.38C213.592 140.389 213.496 140.407 213.408 140.415C210.281 139.898 205.868 139.792 202.154 140.214C199.308 140.538 190.988 142.179 198.642 144.549C196.619 144.426 183.483 145.812 187.625 148.182V148.19ZM216.149 143.601C216.149 143.601 216.07 143.627 216.027 143.645C215.974 143.627 215.913 143.61 215.851 143.583C215.948 143.583 216.044 143.592 216.14 143.592L216.149 143.601Z" fill="#6A6AEC"/>
<path d="M228.077 141.416C227.674 141.89 232.219 141.214 233.253 141.705C235.941 142.987 242.886 143.653 248.772 143.188C251.679 142.96 253.781 142.495 254.841 141.934C258.624 142.407 263.222 142.53 267.382 142.206C272.803 141.776 275.956 140.696 275.807 139.511C280.983 139.152 283.356 138.195 283.041 137.195C284.337 137.168 285.633 137.107 286.885 137.01C295.021 136.37 298.595 134.413 294.873 132.632C291.378 130.964 282.69 130.052 274.905 130.482C270.298 129.314 265.061 128.744 258.44 129.262C254.543 129.569 248.912 131.043 251.714 132.421C248.509 131.438 236.668 131.21 231.493 132.746C227.963 133.799 228.27 134.703 230.731 135.966C222.157 136.01 216.245 137.651 217.725 139.003C218.864 140.038 220.685 141.091 228.077 141.407V141.416ZM260.673 135.966C260.621 135.931 260.568 135.905 260.507 135.87C260.621 135.87 260.735 135.878 260.849 135.887C260.787 135.914 260.726 135.94 260.673 135.966Z" fill="#6A6AEC"/>
<path d="M205.588 155.983C205.097 156.553 210.597 155.737 211.841 156.334C215.09 157.887 223.489 158.686 230.6 158.133C234.12 157.852 236.66 157.299 237.93 156.615C242.51 157.185 248.054 157.343 253.09 156.948C259.641 156.431 263.45 155.123 263.275 153.693C269.537 153.254 272.401 152.104 272.024 150.893C273.592 150.858 275.151 150.788 276.675 150.665C286.501 149.893 290.827 147.524 286.334 145.374C282.113 143.355 271.604 142.258 262.198 142.767C256.637 141.354 250.296 140.661 242.292 141.293C237.58 141.662 230.766 143.443 234.164 145.11C230.285 143.917 215.983 143.645 209.721 145.505C205.456 146.769 205.833 147.875 208.793 149.402C198.433 149.454 191.286 151.437 193.073 153.078C194.448 154.333 196.655 155.606 205.579 155.992L205.588 155.983ZM244.998 149.393C244.928 149.358 244.866 149.314 244.796 149.279C244.936 149.279 245.076 149.296 245.217 149.296C245.147 149.323 245.076 149.358 245.006 149.393H244.998Z" fill="#6A6AEC"/>
<path d="M229.401 147.804C224.584 146.295 214.539 145.944 206.964 147.015C204.932 147.304 203.294 147.664 202.059 148.068C198.723 147.085 192.049 146.865 186.996 147.585C182.486 148.226 180.769 149.401 182.617 150.376C178.939 150.27 174.989 150.446 171.582 150.928C165.785 151.753 163.324 153.21 165.058 154.491C158.954 155.544 157.36 157.361 161.616 158.695C166.144 160.116 175.585 160.45 182.705 159.432C183.799 159.274 184.78 159.098 185.63 158.896C189.203 159.405 194.177 159.423 198.162 158.861C198.285 158.844 198.407 158.826 198.521 158.809C202.883 159.379 208.785 159.37 213.532 158.703C217.175 158.186 219.338 157.387 219.759 156.562C222.491 156.65 225.451 156.527 227.991 156.167C233.132 155.439 234.647 154.009 231.372 152.982C230.119 152.587 228.341 152.315 226.336 152.157C232.326 151.025 233.771 149.165 229.392 147.787L229.401 147.804ZM193.521 154.737C193.564 154.719 193.617 154.693 193.661 154.675C193.74 154.702 193.827 154.719 193.915 154.746C193.783 154.746 193.652 154.746 193.521 154.746V154.737Z" fill="#6A6AEC"/>
<path d="M69.9913 143.768C71.8742 144.865 78.7403 145.172 83.6096 144.61C84.9145 144.461 85.9917 144.259 86.8325 144.022C88.6891 144.689 89.9239 145.268 93.1643 144.9C96.0631 144.566 98.8831 144.136 97.9461 143.487C100.188 143.61 104.479 143.232 106.38 142.89C110.382 142.17 111.643 141.372 110.838 140.529C114.796 139.959 116.136 138.836 113.789 137.923C111.293 136.958 105.565 136.598 100.994 137.125C100.284 137.204 99.6538 137.3 99.0846 137.414C96.9915 137.037 93.9438 136.949 91.3865 137.247C91.3077 137.256 91.2289 137.265 91.15 137.274C88.584 136.844 84.9583 136.756 81.9106 137.107C79.5723 137.379 72.75 138.748 79.0293 140.723C77.3653 140.626 66.5845 141.776 69.9825 143.75L69.9913 143.768ZM93.4095 139.95C93.4095 139.95 93.3482 139.977 93.3132 139.985C93.2694 139.968 93.2169 139.95 93.1731 139.942C93.2519 139.942 93.3307 139.942 93.4095 139.95Z" fill="#6A6AEC"/>
<path d="M103.191 138.125C102.858 138.52 106.589 137.958 107.439 138.371C109.646 139.441 115.347 139.994 120.172 139.608C122.563 139.415 124.289 139.029 125.156 138.564C128.265 138.959 132.03 139.064 135.446 138.792C139.895 138.432 142.478 137.528 142.365 136.545C146.621 136.247 148.556 135.448 148.302 134.615C149.371 134.588 150.43 134.545 151.455 134.457C158.129 133.921 161.071 132.289 158.015 130.806C155.142 129.42 148.013 129.692 141.629 130.043C138.678 129.306 135.7 129.306 128.116 129.025C124.91 128.911 120.146 129.472 120.146 129.472C117.51 128.647 110.25 129.604 105.994 130.885C103.095 131.763 103.349 132.517 105.363 133.57C98.3217 133.606 93.4699 134.975 94.6872 136.107C95.6243 136.975 97.1219 137.853 103.182 138.116L103.191 138.125ZM129.955 133.579C129.911 133.553 129.867 133.527 129.815 133.5C129.911 133.5 129.999 133.509 130.095 133.518C130.042 133.535 129.999 133.562 129.946 133.579H129.955Z" fill="#6A6AEC"/>
<path d="M104.286 143.443C100.328 142.179 92.0867 141.89 85.8687 142.785C84.2047 143.022 82.856 143.329 81.8489 143.662C79.1077 142.846 73.6341 142.662 69.4829 143.259C65.7784 143.794 64.3684 144.768 65.8922 145.584C62.8708 145.496 59.6304 145.646 56.8279 146.049C52.0725 146.734 50.0494 147.954 51.4682 149.024C46.4587 149.902 45.1538 151.42 48.6482 152.534C52.3702 153.719 60.1121 153.991 65.9535 153.149C66.8556 153.017 67.6613 152.868 68.3619 152.71C71.2958 153.131 75.3857 153.149 78.6436 152.675C78.7487 152.657 78.845 152.648 78.9413 152.631C82.5233 153.105 87.3663 153.105 91.2635 152.543C94.2499 152.113 96.0277 151.446 96.3693 150.753C98.6113 150.832 101.037 150.727 103.13 150.428C107.352 149.823 108.595 148.629 105.907 147.778C104.873 147.453 103.419 147.216 101.773 147.094C106.686 146.146 107.877 144.601 104.278 143.452L104.286 143.443ZM74.8252 149.226C74.8252 149.226 74.904 149.191 74.939 149.173C75.0091 149.191 75.0791 149.208 75.1492 149.235C75.0441 149.235 74.939 149.235 74.8252 149.235V149.226Z" fill="#6A6AEC"/>
<path d="M234.69 76.3461C233.455 66.4913 224.47 66.0613 221.974 66.544C218.725 67.1758 216.352 69.5276 215.738 72.3533C215.651 72.3708 215.572 72.3796 215.485 72.3972C212.761 72.9237 210.79 74.9508 210.379 77.3465C209.643 77.3202 208.89 77.3728 208.137 77.522C203.259 78.4697 200.141 82.875 201.166 87.368C202.129 91.589 206.403 94.3796 210.966 93.9233C212.831 97.0298 216.115 98.855 221.133 98.8375C223.515 98.8287 227.745 97.5563 229.015 95.889C230.215 98.4689 233.534 98.2144 236.626 97.6177C240.085 96.9508 239.288 94.4059 238.666 91.2204C239.971 91.4925 241.355 91.5188 242.739 91.2468C247.923 90.2376 252.004 85.3146 250.157 80.7689C246.829 72.5639 235.601 75.0912 234.682 76.3549L234.69 76.3461ZM222.044 81.8922C222.053 81.9711 222.07 82.0501 222.079 82.1291C222.018 82.1115 221.957 82.0852 221.895 82.0677C221.948 82.015 221.992 81.9536 222.035 81.9009L222.044 81.8922Z" fill="#00A95F"/>
<path d="M209.712 70.6683C207.286 66.4035 199.737 64.8502 194.509 68.7553C192.88 64.2623 190.839 61.7174 186.162 60.6029C179.305 58.9707 172.789 65.1398 173.288 69.2467C171.589 64.2886 164.627 63.0513 161.544 64.078C156.307 65.8155 154.582 69.782 154.687 75.0297C148.994 77.5658 146.043 84.0509 148.04 90.0971C150.168 96.5383 157.095 100.031 163.524 97.8985C164.513 97.5738 165.433 97.1262 166.282 96.5909C168.533 99.364 172.29 100.777 176.266 99.2938C179.077 102.479 183.614 103.866 187.896 102.444C191.181 101.356 193.607 98.8462 194.719 95.8275C196.733 96.8191 199.115 97.056 201.418 96.2926C206.069 94.7569 208.582 89.7286 207.05 85.0776C206.463 83.2962 210.824 82.9276 209.432 81.8833C213.066 77.5746 211.577 73.9328 209.712 70.6596V70.6683ZM176.31 82.6994C176.362 82.6292 176.424 82.559 176.476 82.4976C176.52 82.6029 176.564 82.717 176.608 82.8223C176.511 82.7784 176.415 82.7433 176.319 82.6994H176.31Z" fill="#00A95F"/>
<path d="M244.07 98.8725C243.527 99.75 243.282 100.777 243.422 101.839C243.79 104.62 246.663 106.612 249.842 106.296C251.418 106.139 252.767 105.445 253.686 104.445C255.175 105.744 257.303 106.454 259.545 106.235C262.479 105.937 264.791 104.129 265.579 101.803C265.658 101.803 265.728 101.795 265.807 101.786C268.268 101.54 270.186 99.9782 270.764 98.0037C271.412 98.0827 272.078 98.0915 272.761 98.0213C277.157 97.5825 280.319 94.1074 279.811 90.255C279.338 86.6396 275.8 83.9894 271.727 84.0508C270.352 81.3041 267.051 79.5402 263.469 79.9C261.358 80.1106 259.537 81.0233 258.267 82.3308C257.435 80.0843 254.878 78.5837 252.093 78.8645C248.966 79.1805 246.715 81.6025 246.978 84.3228C245.848 83.9981 244.631 83.8841 243.37 84.0069C238.693 84.4808 235.33 88.1753 235.864 92.2646C236.355 95.9854 239.893 98.7496 244.053 98.8637L244.07 98.8725ZM260.868 93.344C260.868 93.2738 260.868 93.2123 260.85 93.1421C260.903 93.1685 260.955 93.186 261.008 93.2123C260.964 93.2562 260.912 93.3001 260.868 93.344Z" fill="#00A95F"/>
<path d="M223.593 109.473L220.563 152.403L208.802 152.517L209.012 126.778C209.012 126.778 211.429 108.078 191.487 103.014L185.068 100.715C183.474 100.145 181.819 99.7413 180.137 99.5219L174.865 98.8374L177.396 95.5642C177.396 95.5642 179.761 95.7572 197.355 101.022C197.355 101.022 200.315 101.918 197.355 98.8374L193.16 92.2295H196.865L202.067 101.031C202.067 101.031 206.279 104.77 208.32 101.918L217.086 92.2383L220.957 92.7999L215.02 100.566C214.196 101.646 214.59 103.234 215.852 103.752C215.878 103.76 215.904 103.778 215.939 103.787C218.479 104.796 221.36 104.427 223.672 102.962L237.133 94.4497L241.985 96.977L231.519 102.567C231.519 102.567 224.224 105.981 223.602 109.482L223.593 109.473Z" fill="#929292"/>
<path d="M243.869 104.682L242.03 138.529L236.591 138.994L234.945 119.477C234.945 119.477 236.644 101.549 224.365 99.8204L220.468 98.0916C219.496 97.6616 218.498 97.3633 217.473 97.1965L214.268 96.6788L215.809 94.2217C215.809 94.2217 217.245 94.3709 227.938 98.3286C227.938 98.3286 229.734 98.9955 227.938 96.6788L225.39 91.7031H227.641L230.802 98.3198C230.802 98.3198 233.36 101.137 234.603 98.9867L239.928 91.7031L242.275 92.1243L238.667 97.9688C238.168 98.7849 238.413 99.9783 239.175 100.364C239.192 100.364 239.21 100.382 239.227 100.391C240.769 101.154 242.52 100.873 243.93 99.7677L252.11 93.3617L255.053 95.2659L248.694 99.4694C248.694 99.4694 244.263 102.041 243.886 104.673L243.869 104.682Z" fill="#929292"/>
<path d="M257.627 102.979L255.788 133.72L250.349 134.185L248.352 113.606C248.352 113.606 246.548 101.11 238.123 98.1178L234.226 96.389C233.254 95.959 232.255 95.6606 231.231 95.4939L228.025 94.9762L229.567 92.519C229.567 92.519 231.003 92.6682 241.696 96.6259C241.696 96.6259 243.492 97.2929 241.696 94.9762L239.148 90.0005H241.399L244.56 96.6172C244.56 96.6172 247.117 99.4341 248.361 97.2841L253.686 90.0005L256.033 90.4217L252.425 96.2661C251.925 97.0823 252.171 98.2757 252.932 98.6618C252.95 98.6618 252.968 98.6794 252.985 98.6882C254.526 99.4516 256.278 99.1708 257.688 98.0651L265.868 91.659L268.81 93.5633L262.452 97.7667C262.452 97.7667 258.021 100.338 257.644 102.971L257.627 102.979Z" fill="#929292"/>
<path d="M54.7264 109.473L59.2892 112.887C60.7692 113.993 61.575 115.783 61.4348 117.617L59.4643 143.022C59.3154 144.987 58.9389 146.927 58.3608 148.813L56.9596 153.35L69.9124 151.455L69.9999 126.98C70.0087 123.979 70.5429 120.995 71.6551 118.205C73.7307 112.983 78.1447 105.515 86.8499 103.014L93.2693 100.715C94.8632 100.145 96.5185 99.7413 98.2 99.5219L103.472 98.8374L100.941 95.5642C100.941 95.5642 98.5765 95.7572 80.9822 101.022C80.9822 101.022 78.022 101.918 80.9822 98.8374L85.1772 92.2295H81.4726L76.2705 101.031C76.2705 101.031 72.058 104.77 70.0174 101.918L61.2509 92.2383L57.38 92.7999L66.6632 103.471C67.4865 104.55 66.6632 105.691 65.4109 106.209C65.3846 106.218 64.5001 106.507 64.4738 106.525C61.934 107.534 56.9771 104.427 54.6738 102.962L41.2131 94.4497L36.3613 96.977L46.8269 102.567C46.8269 102.567 54.1221 105.981 54.7439 109.482L54.7264 109.473Z" fill="#929292"/>
<path d="M82.9433 102.444L83.8629 114.818C84.0555 117.38 84.003 119.951 83.7227 122.496L81.8836 139.169C81.7347 140.547 81.8486 140.029 83.3024 140.714L89.6342 141.03C91.9463 140.24 91.85 139.529 91.3595 137.239L90.8078 134.861C89.967 129.999 90.2123 124.778 90.6239 119.863L92.0426 110.86C92.0426 110.86 93.8117 100.97 102.07 98.6006L105.889 97.2316C106.843 96.8894 107.824 96.6525 108.823 96.5208L111.967 96.1084L110.46 94.1602C110.46 94.1602 109.05 94.2743 98.5672 97.4159C98.5672 97.4159 96.8069 97.9512 98.5672 96.1084L101.063 92.1682H98.8562L95.7559 97.4071C95.7559 97.4071 93.2512 99.6361 92.0339 97.9337L86.8142 92.1682L84.511 92.5017L88.0666 97.1527C88.557 97.7933 88.3031 98.7235 87.5587 99.0306L87.5061 99.0481C86.0348 99.6449 84.3708 99.4869 83.0396 98.6445L74.8862 93.4845L71.9961 94.9939L78.2316 98.3286C78.2316 98.3286 82.5755 100.364 82.9521 102.444H82.9433Z" fill="#929292"/>
<path d="M106.16 84.8231L108.244 112.94L108.674 129.762C108.691 130.359 109.111 130.868 109.698 130.982L111.826 131.412C112.579 131.561 113.359 131.456 114.042 131.113L115.89 130.174C116.249 129.99 116.442 129.604 116.372 129.209L114.857 120.478C114.016 115.616 113.797 110.667 114.2 105.744L115.242 93.2388C115.242 93.2388 117.011 83.3489 125.269 80.9795L129.088 79.6105C130.042 79.2683 131.023 79.0314 132.022 78.8997L135.166 78.4873L133.659 76.5391C133.659 76.5391 132.249 76.6532 121.766 79.7948C121.766 79.7948 120.006 80.3301 121.766 78.4873L124.262 74.5471H122.055L118.955 79.786C118.955 79.786 116.45 82.015 115.233 80.3126L110.013 74.5471L107.71 74.8806L111.266 79.5316C111.756 80.1722 111.502 81.1024 110.758 81.4095L110.705 81.4271C109.234 82.0238 107.57 81.8658 106.239 81.0234L98.0854 75.8634L95.1953 77.3728L101.431 80.7075C101.431 80.7075 105.775 82.7434 106.151 84.8231H106.16Z" fill="#929292"/>
<path d="M41.3535 80.7601C39.5143 85.3058 43.5867 90.2288 48.7713 91.238C50.1638 91.51 51.5475 91.4837 52.8437 91.2116C52.2219 94.3971 51.4249 96.942 54.8842 97.6089C57.9757 98.2057 61.2949 98.4601 62.4947 95.8802C63.7646 97.5563 67.9946 98.8199 70.3767 98.8287C75.3949 98.8463 78.6703 97.0297 80.5445 93.9145C85.0985 94.3708 89.3811 91.5802 90.3444 87.3592C91.3691 82.8662 88.2513 78.461 83.3732 77.5132C82.6201 77.364 81.8669 77.3114 81.1313 77.3377C80.7196 74.942 78.7579 72.9149 76.0255 72.3884C75.9379 72.3708 75.8591 72.362 75.7715 72.3445C75.1672 69.5188 72.7851 67.1582 69.536 66.5352C67.04 66.0525 58.0545 66.4825 56.8197 76.3373C55.9089 75.0649 44.6727 72.5463 41.3447 80.7513L41.3535 80.7601ZM69.6148 82.0589C69.5535 82.0764 69.4922 82.1028 69.4309 82.1203C69.4484 82.0413 69.4571 81.9623 69.4659 81.8834C69.5097 81.9448 69.5622 81.9975 69.606 82.0501L69.6148 82.0589Z" fill="#00A95F"/>
<path d="M82.0861 81.8921C80.6936 82.9452 85.055 83.305 84.4682 85.0864C82.9269 89.7373 85.4491 94.7657 90.0995 96.3014C92.394 97.0648 94.7849 96.8279 96.7992 95.8363C97.9114 98.855 100.329 101.365 103.621 102.453C107.904 103.875 112.441 102.488 115.252 99.3026C119.228 100.786 122.985 99.3728 125.236 96.5997C126.076 97.135 126.996 97.5826 127.994 97.9073C134.423 100.04 141.35 96.5471 143.478 90.1059C145.475 84.0597 142.523 77.5658 136.831 75.0385C136.945 69.7908 135.211 65.8156 129.974 64.0868C126.891 63.0688 119.928 64.2974 118.229 69.2555C118.729 65.1486 112.222 58.9795 105.356 60.6117C100.679 61.7262 98.6383 64.2623 97.0094 68.7641C91.7722 64.859 84.2318 66.4123 81.8059 70.6771C79.9405 73.9504 78.4516 77.5922 82.0861 81.9009V81.8921ZM114.91 82.8135C114.954 82.7082 114.998 82.6029 115.042 82.4888C115.094 82.5591 115.147 82.6293 115.208 82.6907C115.112 82.7258 115.015 82.7697 114.919 82.8135H114.91Z" fill="#00A95F"/>
<path d="M67.2501 99.3728C68.0733 93.1159 62.9412 87.4645 55.7861 86.745C53.8682 86.5519 52.0028 86.745 50.2775 87.2276C50.6804 83.0681 47.2386 79.3561 42.4656 78.8822C38.2005 78.4522 34.3033 80.7514 33.0247 84.1825C31.0805 82.173 28.2955 80.7865 25.0726 80.4618C19.599 79.9089 14.5458 82.6117 12.4439 86.8064C6.21715 86.7186 0.813605 90.7729 0.0867102 96.3014C-0.683974 102.181 4.14156 107.49 10.8675 108.166C11.9097 108.271 12.9256 108.254 13.9152 108.139C14.7998 111.167 17.7336 113.545 21.4907 113.922C21.6046 113.931 21.7272 113.94 21.841 113.949C23.0496 117.503 26.5877 120.267 31.0717 120.723C34.5135 121.066 37.7626 119.977 40.0309 117.994C41.4409 119.521 43.5077 120.583 45.9161 120.829C50.7767 121.32 55.1731 118.266 55.7336 114.019C55.9438 112.387 55.5672 110.825 54.744 109.482C61.1021 109.298 66.5144 105.077 67.2588 99.3903L67.2501 99.3728ZM28.8385 100.821C28.9173 100.786 28.9961 100.751 29.0749 100.715C29.0662 100.821 29.0574 100.917 29.0574 101.023C28.9874 100.952 28.9173 100.882 28.8385 100.821Z" fill="#00A95F"/>
</g>
</g>
<path d="M51.6794 69.905H253.669C257.224 69.905 260.123 72.8009 260.123 76.3725V82.1116H45.3125V76.2935C45.3125 72.7658 48.1675 69.905 51.6882 69.905H51.6794Z" fill="#9FA4FF"/>
<path d="M253.791 69.905H51.6439C47.9293 69.905 44.918 72.9224 44.918 76.6445V345.883C44.918 349.605 47.9293 352.623 51.6439 352.623H253.791C257.505 352.623 260.517 349.605 260.517 345.883V76.6445C260.517 72.9224 257.505 69.905 253.791 69.905Z" stroke="#000091" stroke-width="0.84" stroke-miterlimit="10"/>
<path d="M54.2628 76.1882C54.2628 77.3203 53.352 78.2329 52.2222 78.2329C51.0925 78.2329 50.1816 77.3203 50.1816 76.1882C50.1816 75.0562 51.0925 74.1436 52.2222 74.1436C53.352 74.1436 54.2628 75.0562 54.2628 76.1882Z" fill="white"/>
<path d="M61.6378 76.1882C61.6378 77.3203 60.727 78.2329 59.5972 78.2329C58.4675 78.2329 57.5566 77.3203 57.5566 76.1882C57.5566 75.0562 58.4675 74.1436 59.5972 74.1436C60.727 74.1436 61.6378 75.0562 61.6378 76.1882Z" fill="white"/>
<path d="M69.0108 76.1882C69.0108 77.3203 68.1 78.2329 66.9702 78.2329C65.8405 78.2329 64.9297 77.3203 64.9297 76.1882C64.9297 75.0562 65.8405 74.1436 66.9702 74.1436C68.1 74.1436 69.0108 75.0562 69.0108 76.1882Z" fill="white"/>
<path d="M149.907 167.005H72.0508V172.139H149.907V167.005Z" fill="#B8B8E0"/>
<path d="M149.907 174.956H72.0508V180.089H149.907V174.956Z" fill="#B8B8E0"/>
<path d="M149.907 182.897H72.0508V188.031H149.907V182.897Z" fill="#B8B8E0"/>
<path d="M149.907 190.848H72.0508V195.982H149.907V190.848Z" fill="#B8B8E0"/>
<path d="M149.907 198.79H72.0508V203.923H149.907V198.79Z" fill="#B8B8E0"/>
<path d="M107.266 206.74H71.998V211.874H107.266V206.74Z" fill="#B8B8E0"/>
<path d="M149.013 215.085H71.1562V220.219H149.013V215.085Z" fill="#B8B8E0"/>
<path d="M149.013 223.027H71.1562V228.161H149.013V223.027Z" fill="#B8B8E0"/>
<path d="M149.013 239.586H71.1562V244.72H149.013V239.586Z" fill="#B8B8E0"/>
<path d="M149.013 247.537H71.1562V252.671H149.013V247.537Z" fill="#B8B8E0"/>
<path d="M149.013 255.479H71.1562V260.612H149.013V255.479Z" fill="#B8B8E0"/>
<path d="M138.153 263.429H71.1562V268.563H138.153V263.429Z" fill="#B8B8E0"/>
<path d="M234.103 239.586H162.955V244.72H234.103V239.586Z" fill="#B8B8E0"/>
<path d="M231.721 205.362H204.301V210.496H231.721V205.362Z" fill="#B8B8E0"/>
<path d="M231.721 217.823H204.301V222.957H231.721V217.823Z" fill="#B8B8E0"/>
<path d="M234.103 247.537H162.955V252.671H234.103V247.537Z" fill="#B8B8E0"/>
<path d="M234.103 255.479H162.955V260.612H234.103V255.479Z" fill="#B8B8E0"/>
<path d="M224.172 263.429H162.955V268.563H224.172V263.429Z" fill="#B8B8E0"/>
<path d="M227.09 283.025H76.6749C74.1211 283.025 72.0508 285.099 72.0508 287.658V318.881C72.0508 321.44 74.1211 323.515 76.6749 323.515H227.09C229.643 323.515 231.714 321.44 231.714 318.881V287.658C231.714 285.099 229.643 283.025 227.09 283.025Z" fill="#E3E3FD"/>
<path d="M175.601 183.591V188.505H167.01V183.591H175.601Z" fill="#000091"/>
<path d="M177.949 183.784L186.795 171.858H192.969V183.784H195.009V188.628H192.969V194.174H187.592V188.628H177.949V183.784ZM187.592 183.784V178.141L183.326 183.784H187.592Z" fill="#000091"/>
<path d="M207.865 176.544C207.865 179.607 205.641 181.871 202.391 181.871C199.142 181.871 196.883 179.607 196.883 176.544C196.883 173.481 199.107 171.217 202.391 171.217C205.676 171.217 207.865 173.481 207.865 176.544ZM204.231 176.544C204.231 175.236 203.434 174.534 202.383 174.534C201.332 174.534 200.535 175.236 200.535 176.544C200.535 177.851 201.332 178.589 202.383 178.589C203.434 178.589 204.231 177.825 204.231 176.544Z" fill="#000091"/>
<path d="M225.906 186.881L230.39 190.295C228.324 193.042 225.013 194.823 220.941 194.823C213.847 194.823 209.004 189.4 209.004 183.029C209.004 176.658 213.838 171.235 220.941 171.235C225.013 171.235 228.324 173.016 230.39 175.728L225.906 179.168C224.855 177.641 223.174 176.553 220.941 176.553C217.376 176.553 214.828 179.291 214.828 183.029C214.828 186.767 217.376 189.505 220.941 189.505C223.139 189.505 224.855 188.417 225.906 186.89V186.881Z" fill="#000091"/>
<path d="M170.592 212.155C172.924 212.155 174.814 210.261 174.814 207.925C174.814 205.589 172.924 203.695 170.592 203.695C168.261 203.695 166.371 205.589 166.371 207.925C166.371 210.261 168.261 212.155 170.592 212.155Z" fill="#000091"/>
<path d="M182.407 212.155C184.738 212.155 186.628 210.261 186.628 207.925C186.628 205.589 184.738 203.695 182.407 203.695C180.075 203.695 178.186 205.589 178.186 207.925C178.186 210.261 180.075 212.155 182.407 212.155Z" fill="#000091"/>
<path d="M194.211 212.155C196.543 212.155 198.433 210.261 198.433 207.925C198.433 205.589 196.543 203.695 194.211 203.695C191.88 203.695 189.99 205.589 189.99 207.925C189.99 210.261 191.88 212.155 194.211 212.155Z" fill="#B8B8E0"/>
<path d="M170.592 223.878C172.924 223.878 174.814 221.985 174.814 219.649C174.814 217.313 172.924 215.419 170.592 215.419C168.261 215.419 166.371 217.313 166.371 219.649C166.371 221.985 168.261 223.878 170.592 223.878Z" fill="#000091"/>
<path d="M182.407 223.878C184.738 223.878 186.628 221.985 186.628 219.649C186.628 217.313 184.738 215.419 182.407 215.419C180.075 215.419 178.186 217.313 178.186 219.649C178.186 221.985 180.075 223.878 182.407 223.878Z" fill="#000091"/>
<path d="M194.211 223.878C196.543 223.878 198.433 221.985 198.433 219.649C198.433 217.313 196.543 215.419 194.211 215.419C191.88 215.419 189.99 217.313 189.99 219.649C189.99 221.985 191.88 223.878 194.211 223.878Z" fill="#B8B8E0"/>
<path d="M245.27 37.7168L235.26 34.0837" stroke="#000091" stroke-width="0.9" stroke-miterlimit="10"/>
<path d="M242.416 57.5842C258.174 57.5842 270.948 44.7839 270.948 28.9939C270.948 13.2039 258.174 0.403564 242.416 0.403564C226.657 0.403564 213.883 13.2039 213.883 28.9939C213.883 44.7839 226.657 57.5842 242.416 57.5842Z" fill="white" stroke="#000091" stroke-width="0.9" stroke-miterlimit="10"/>
<path d="M236.338 24.5273L242.424 18.2178L248.511 24.5273C251.865 28.0111 251.865 33.6713 248.511 37.1639C245.157 40.6477 239.701 40.6477 236.329 37.1639C232.975 33.6801 232.975 28.0199 236.338 24.5273Z" fill="#4F84F6"/>
<path d="M295.461 88.8688C314.871 88.8688 330.606 73.1021 330.606 53.653C330.606 34.2039 314.871 18.4373 295.461 18.4373C276.051 18.4373 260.316 34.2039 260.316 53.653C260.316 73.1021 276.051 88.8688 295.461 88.8688Z" fill="white" stroke="#000091" stroke-width="0.9" stroke-miterlimit="10"/>
<path d="M308.581 40.323V43.3593C308.581 57.9616 300.752 64.587 291.083 64.587H288.316C288.622 60.0238 289.988 57.2508 293.561 53.9775C295.313 52.3541 295.164 51.4327 294.306 51.9592C288.359 55.6449 285.399 60.6205 285.268 68.5798V69.1415H282.334C282.334 67.0792 282.509 65.2013 282.842 63.4901C282.509 61.5332 282.334 58.8655 282.334 55.4957C282.334 47.1239 288.867 40.3318 296.916 40.3318C299.832 40.3318 302.748 41.8499 308.581 40.3318V40.323Z" fill="#4BA566"/>
<path d="M291.626 125.971C303.442 125.971 313.021 116.373 313.021 104.533C313.021 92.6928 303.442 83.0945 291.626 83.0945C279.809 83.0945 270.23 92.6928 270.23 104.533C270.23 116.373 279.809 125.971 291.626 125.971Z" fill="white" stroke="#000091" stroke-width="0.9" stroke-miterlimit="10"/>
<path d="M283.375 113.791C283.375 109.991 286.466 106.92 290.285 106.92C294.103 106.92 297.195 110 297.195 113.791H283.384H283.375ZM290.276 106.06C287.412 106.06 285.1 103.752 285.1 100.9C285.1 98.0566 287.412 95.7399 290.276 95.7399C293.14 95.7399 295.452 98.0391 295.452 100.9C295.452 103.761 293.131 106.06 290.276 106.06ZM298.263 97.6179C298.684 98.6358 298.911 99.7327 298.911 100.9C298.911 102.067 298.675 103.173 298.263 104.182L296.809 103.138C297.055 102.444 297.177 101.681 297.177 100.9C297.177 100.119 297.046 99.3729 296.809 98.6621L298.263 97.6179ZM301.109 95.5556C301.915 97.1615 302.362 98.9781 302.362 100.9C302.362 102.822 301.915 104.629 301.109 106.244L299.691 105.209C300.295 103.892 300.637 102.436 300.637 100.891C300.637 99.3554 300.304 97.8899 299.691 96.5736L301.109 95.5381V95.5556Z" fill="#CDA351"/>
<path d="M273.671 153.017C283.582 153.017 291.616 144.967 291.616 135.036C291.616 125.106 283.582 117.055 273.671 117.055C263.761 117.055 255.727 125.106 255.727 135.036C255.727 144.967 263.761 153.017 273.671 153.017Z" fill="white" stroke="#000091" stroke-width="0.9" stroke-miterlimit="10"/>
<path d="M281.291 140.582C281.291 141.012 280.923 141.372 280.477 141.372H267.41C266.964 141.372 266.596 141.021 266.596 140.582V132.316C266.596 132.07 266.71 131.842 266.911 131.693L273.444 126.805C273.742 126.585 274.154 126.585 274.451 126.805L280.985 131.693C281.177 131.842 281.3 132.07 281.3 132.316V140.582H281.291Z" fill="#919191"/>
</g>
<defs>
<clipPath id="clip0_1271_99681">
<rect width="331" height="353" fill="white"/>
</clipPath>
</defs>
</svg>
