<svg width="297" height="236" viewBox="0 0 297 236" fill="none" xmlns="http://www.w3.org/2000/svg">
<path d="M169.688 216.877C169.688 216.877 275.007 185.042 291.402 134.979C291.402 134.979 320.578 80.2458 245.717 41.6562C245.717 41.6562 171.389 -8.76248 101.112 1.33741C101.112 1.33741 15.2342 9.38499 37.7689 127.756C37.7689 127.756 38.8868 134.284 40.037 142.283C41.6894 153.902 41.819 165.667 40.6688 177.334C38.7572 196.629 39.3404 232.811 70.04 234.782C70.04 234.782 98.1638 242.975 169.688 216.861V216.877Z" fill="#E3E3FD"/>
<g clip-path="url(#clip0_1241_90400)">
<path d="M82.4863 95.3164C82.4863 95.3164 82.4686 95.3164 82.4509 95.3341C82.4156 95.3341 82.4156 95.3341 82.4863 95.3164Z" fill="#80B5E0"/>
<path d="M56.2495 79.0371C56.2495 79.0371 56.2317 79.0902 56.2139 79.1255C56.2139 79.0902 56.2317 79.0725 56.2495 79.0371Z" fill="#80B5E0"/>
<path d="M69.3232 53.1432C69.3232 53.1432 69.3232 53.1253 69.3412 53.1074C69.3412 53.1074 69.3412 53.1074 69.3412 53.1253L69.3232 53.1432Z" fill="#80B5E0"/>
<path d="M65.1293 89.1992C65.1293 89.1992 65.0763 89.2169 65.0586 89.2346C65.0586 89.2346 65.0763 89.2346 65.0939 89.2169C65.0939 89.2169 65.1116 89.2169 65.1293 89.2169V89.1992Z" fill="#80B5E0"/>
<path d="M60.1268 87.0723C60.1268 87.0723 60.0917 87.0723 60.0566 87.0547C60.1444 87.0547 60.1619 87.0723 60.1268 87.0723Z" fill="#80B5E0"/>
<path d="M56.231 74.8192C56.231 74.8192 56.231 74.8192 56.2486 74.8192C56.389 74.7313 56.5294 74.6434 56.6698 74.5555C56.7575 74.4851 56.8277 74.4148 56.8979 74.3445C57.0383 74.2215 57.1436 74.0808 57.2665 73.9578C57.3191 73.8699 57.3893 73.782 57.442 73.6941C57.5297 73.5534 57.6175 73.4128 57.6877 73.2546C57.7052 73.1667 57.7579 73.0788 57.793 72.9909C57.8456 72.8151 57.8983 72.6393 57.9334 72.4635C57.9334 72.3932 57.9509 72.3228 57.9685 72.2525C57.9685 72.2525 57.9685 72.2525 57.9685 72.2349C57.9685 72.0416 57.986 71.8658 57.986 71.6724C57.986 71.5845 57.986 71.4966 57.986 71.4263C57.986 71.3911 57.986 71.3032 57.9685 71.2329C57.9685 71.2153 57.9685 71.1977 57.9685 71.1802C57.9685 71.0923 57.9334 71.0044 57.9158 70.934C57.8632 70.7407 57.8105 70.5473 57.7403 70.3715C57.7403 70.3715 57.7403 70.3539 57.7403 70.3363C57.7228 70.2836 57.6877 70.2309 57.6701 70.1781C57.5824 70.0023 57.4771 69.8441 57.3893 69.6859C57.3542 69.6331 57.1612 69.3343 57.3016 69.5452C57.4244 69.7386 57.2665 69.5101 57.2138 69.4573C57.0734 69.3167 56.9506 69.1761 56.7926 69.0354C56.7751 69.0179 56.6698 68.9475 56.6171 68.8948C56.582 68.8772 56.5645 68.8596 56.5294 68.8421C56.3714 68.7366 56.2135 68.6487 56.0555 68.5432C55.6168 68.2619 55.178 67.9279 54.8094 67.5412C54.1074 66.8028 53.5809 65.9062 53.265 64.9394C52.7034 63.199 52.9842 61.2652 53.8793 59.683C54.3882 58.7689 54.9323 57.8723 55.4412 56.9582C56.1784 55.6924 57.0559 54.5673 58.3897 53.8993C60.2851 52.95 62.4613 52.95 64.3743 53.8993C64.5674 53.9872 64.7253 54.0927 64.9184 54.1806C65.0061 54.2157 65.2869 54.3212 65.0588 54.2509C65.2343 54.3036 65.3922 54.3739 65.5677 54.4091C65.6906 54.4443 65.8134 54.4618 65.9363 54.497C65.9538 54.497 65.9714 54.497 65.9889 54.497C65.9889 54.497 66.024 54.497 66.0416 54.497C66.2873 54.497 66.5154 54.5146 66.7611 54.497C66.7787 54.497 66.8313 54.497 66.8664 54.497C66.9366 54.497 67.042 54.4618 67.0771 54.4618C67.2701 54.4091 67.4807 54.3564 67.6738 54.286C67.7264 54.286 68.0248 54.163 67.8142 54.2333C67.6036 54.3036 67.8844 54.1982 67.937 54.163C68.1301 54.0751 68.3231 53.952 68.5162 53.829C68.5864 53.7762 68.7619 53.6004 68.639 53.7411C68.4986 53.8993 68.6917 53.6883 68.7443 53.6532C68.9198 53.5125 69.0602 53.3367 69.2182 53.1785C69.2182 53.1785 69.2533 53.1434 69.2708 53.1258C69.2182 53.1961 69.1655 53.284 69.2357 53.1785C69.2357 53.1609 69.2708 53.1258 69.2884 53.1082C69.3059 53.0906 69.3235 53.073 69.3235 53.0555C69.3235 53.0555 69.3235 53.0555 69.3059 53.073C69.341 53.0203 69.3761 52.9676 69.4112 52.9324C69.5341 52.7566 69.6218 52.5632 69.7271 52.3699C69.7271 52.3699 69.7271 52.3347 69.7447 52.3171C69.7798 52.2292 69.8149 52.1237 69.8324 52.0358C69.8851 51.86 69.8851 51.5436 69.9728 51.403C69.9728 51.403 69.9728 51.403 69.9728 51.3854C69.9728 51.2623 69.9728 51.1393 69.9728 51.0162C69.9728 50.7877 69.9728 50.5591 70.0079 50.3482C70.2536 48.2738 71.3769 46.4103 73.2021 45.338C74.4832 44.5996 75.8346 44.459 77.2737 44.459C78.2741 44.459 79.2745 44.459 80.2748 44.459C82.5388 44.459 84.6273 45.6192 85.8382 47.5354C86.4876 48.5551 86.786 49.7505 86.8035 50.9459C86.8035 51.0338 86.8737 51.4733 86.8386 51.526C86.8562 51.6491 86.8913 51.7546 86.9088 51.8776C86.9439 51.9831 87.0843 52.282 87.0843 52.3874C87.137 52.4753 87.1721 52.5632 87.2247 52.6687C87.3125 52.8269 87.4178 52.9851 87.5231 53.1258C87.5231 53.1258 87.6635 53.284 87.7337 53.3543C87.8565 53.495 87.9969 53.618 88.1373 53.7411C88.2075 53.7587 88.3128 53.8641 88.383 53.8993C88.5234 53.9872 88.6814 54.0927 88.8393 54.163C88.9095 54.1982 89.0148 54.2333 89.085 54.2685H89.1201C89.2781 54.3212 89.4536 54.3739 89.6291 54.4091C89.7168 54.4267 89.8046 54.4443 89.8924 54.4618C89.8924 54.4618 89.9099 54.4618 89.9275 54.4618C90.103 54.4618 90.2785 54.4794 90.454 54.4794C90.5417 54.4794 90.6295 54.4794 90.7172 54.4794C90.7172 54.4794 90.7523 54.4794 90.7699 54.4794C90.9278 54.4091 91.156 54.4267 91.3139 54.3739C91.4017 54.3564 91.4894 54.3212 91.5772 54.286L91.7176 54.2333C91.7176 54.2333 91.7527 54.2333 91.7702 54.2157C92.051 54.0751 92.6477 53.7587 92.7179 53.7235C93.2093 53.5125 93.6832 53.3367 94.2097 53.2488C96.2806 52.8973 98.3691 53.4774 99.9135 54.9365C100.773 55.7452 101.318 56.8351 101.897 57.8547C102.458 58.8216 103.09 59.7885 103.476 60.8433C104.143 62.6716 103.862 64.8866 102.792 66.504C102.213 67.3829 101.476 68.0685 100.58 68.6135C100.545 68.6311 100.247 68.8421 100.142 68.8948C100.142 68.8948 100.142 68.8948 100.124 68.9124C100.036 68.9827 99.9662 69.053 99.896 69.1233C99.8082 69.2112 99.6327 69.4925 99.5099 69.5452C99.4572 69.6156 99.4046 69.7035 99.3519 69.7914C99.2642 69.9496 99.1764 70.1078 99.0887 70.266C99.0536 70.3539 99.036 70.4418 99.0009 70.5297C98.9483 70.6879 98.9132 70.8461 98.8605 71.0219C98.8605 71.0747 98.8605 71.1098 98.843 71.1626C98.843 71.2153 98.843 71.2505 98.843 71.3032C98.843 71.479 98.843 71.6372 98.843 71.813C98.843 71.9009 98.843 71.9888 98.843 72.0591C98.843 72.0591 98.843 72.0943 98.843 72.1119C98.9483 72.4283 99.0009 72.7799 99.1062 73.1139C99.1413 73.2018 99.194 73.2897 99.2291 73.36C99.3168 73.5183 99.4221 73.6765 99.5099 73.8171C99.5625 73.8523 99.6327 73.9753 99.6678 74.0105C99.8082 74.1687 99.9662 74.3094 100.124 74.45C100.124 74.45 100.142 74.4676 100.159 74.4851C100.229 74.5379 100.335 74.6082 100.335 74.6082C100.51 74.7137 100.686 74.8192 100.861 74.9246C101.282 75.2059 101.686 75.5224 102.037 75.8915C103.494 77.4385 104.073 79.5305 103.722 81.6049C103.511 82.8355 102.844 83.8727 102.23 84.9275C101.739 85.7889 101.282 86.7206 100.686 87.5117C99.4221 89.1818 97.4916 90.219 95.3856 90.2014C94.3326 90.2014 93.3146 89.9201 92.3845 89.4455C92.1739 89.34 91.9808 89.217 91.7702 89.1291C91.7702 89.1291 91.6649 89.0763 91.6474 89.0763H91.6298C91.4894 89.0236 91.3315 88.9884 91.1911 88.9357C91.0682 88.9005 90.9454 88.8829 90.8225 88.8654C90.7874 88.8654 90.7348 88.8654 90.6997 88.8654C90.454 88.8654 90.1907 88.8654 89.945 88.8654C89.945 88.8654 89.8923 88.8654 89.8572 88.8654C89.787 88.8654 89.7344 88.8829 89.6642 88.9005C89.436 88.9533 89.243 89.0236 89.0148 89.0939C88.9271 89.1466 88.8393 89.1818 88.7516 89.217C88.5585 89.3049 88.383 89.4103 88.2251 89.5334C88.19 89.551 88.1724 89.5861 88.1373 89.6037C88.0847 89.6564 88.032 89.6916 87.9794 89.7443C87.8214 89.885 87.6986 90.0432 87.5582 90.2014C87.488 90.2893 87.4353 90.3772 87.3651 90.4827C87.33 90.5354 87.0317 90.9925 87.0668 91.0452C87.0668 91.0452 87.1721 90.764 87.1194 90.9222C87.1194 90.9749 87.0843 91.0101 87.0668 91.0628C87.0317 91.1507 86.9966 91.2562 86.979 91.3441C86.9439 91.432 86.9264 91.5375 86.9088 91.643C86.9088 91.6957 86.8913 91.7484 86.8737 91.8012C86.8737 92.2055 86.8386 92.6626 86.786 93.0669C86.6631 94.1041 86.3472 95.1237 85.7329 96.0027C84.5395 97.7431 82.6441 98.8155 80.5205 98.9034C79.5553 98.9385 78.6076 98.9034 77.6423 98.9034H76.484C75.3959 98.9034 74.3253 98.6221 73.36 98.1123C71.2365 96.9872 70.0079 94.7194 69.9728 92.3461C69.9728 92.2407 69.9728 92.1176 69.9728 92.0121C69.9026 91.9067 69.8851 91.5551 69.85 91.432C69.8324 91.3441 69.7973 91.2562 69.7622 91.1683V91.1331C69.6569 90.9925 69.5867 90.7816 69.5165 90.6409C69.4463 90.5179 69.3761 90.4124 69.2884 90.2893C69.2533 90.2542 69.2182 90.2014 69.2182 90.1838C69.148 90.1135 69.0778 90.0256 69.0076 89.9553C68.8847 89.8322 68.7794 89.7268 68.6566 89.6213C68.5688 89.5685 68.4635 89.4807 68.3758 89.4279C68.2354 89.34 68.0774 89.2521 67.9195 89.1818C67.9195 89.1818 67.8668 89.1466 67.8142 89.1291C67.7615 89.1115 67.6913 89.0763 67.6562 89.0763C67.4807 89.0236 67.2877 88.9708 67.1122 88.9181C67.042 88.9181 66.9893 88.9005 66.9191 88.8829C66.9016 88.8829 66.8664 88.8829 66.8489 88.8829C66.6734 88.8829 66.4979 88.8654 66.3224 88.8829C66.2171 88.8829 66.1118 88.8829 66.0065 88.8829C65.831 88.9181 65.6555 88.9533 65.4624 89.006C65.3747 89.0412 65.2869 89.0587 65.1992 89.0939C65.1992 89.0939 65.1465 89.0939 65.1114 89.1291C65.2343 89.0587 65.1816 89.0939 65.1114 89.1291C65.1114 89.1291 65.0939 89.1291 65.0763 89.1291C65.0412 89.1291 65.0237 89.1466 65.0237 89.1466C65.0237 89.1466 65.0237 89.1466 65.0412 89.1466C64.2339 89.551 63.4617 89.9729 62.5491 90.1135C61.5136 90.2717 60.4782 90.2542 59.4603 89.9201C57.8105 89.3928 56.5118 88.2676 55.6518 86.7734C55.1078 85.8416 54.5813 84.9099 54.0372 83.9782C53.7564 83.486 53.4932 82.9937 53.3001 82.4488C52.9491 81.4467 52.8965 80.3744 53.0544 79.3372C53.3352 77.3858 54.5637 75.6806 56.2135 74.6961L56.231 74.8192ZM57.3016 65.7304C57.3016 65.7304 57.3016 65.7304 57.3191 65.7304C57.2665 65.6953 57.2138 65.6601 57.3016 65.7304ZM56.7926 65.2382C56.7926 65.2382 56.7575 65.2031 56.74 65.1679C56.7575 65.2031 56.7751 65.2206 56.7926 65.2382ZM58.6529 57.3273C58.6529 57.3273 58.6354 57.3625 58.6178 57.3625C58.495 57.4856 58.6178 57.3977 58.6529 57.3273ZM60.0043 56.3253L60.1272 56.2726C60.1272 56.2726 60.0394 56.3077 60.0043 56.3253ZM60.8818 56.0968C60.8818 56.0968 60.9696 56.0968 61.0047 56.0792C60.9696 56.0792 60.9169 56.0792 60.8818 56.0968ZM69.9904 51.5085C69.9904 51.5085 69.9904 51.4733 69.9904 51.4557C69.9904 51.4557 69.9904 51.4909 69.9904 51.5085ZM82.4686 48.0277L82.5564 48.098C82.5564 48.0804 82.5213 48.0452 82.4686 48.0277ZM83.8726 50.3658V50.4537C83.8726 50.4537 83.8726 50.4009 83.8726 50.3658ZM90.8401 54.497H90.8752C91.0156 54.497 90.9278 54.497 90.8401 54.497ZM91.6474 54.3036C91.6474 54.3036 91.7 54.3036 91.7702 54.2509C91.7176 54.2685 91.6474 54.3036 91.6474 54.3036ZM100.142 65.1503C100.142 65.1503 100.089 65.2206 100.089 65.2031C100.089 65.2031 100.124 65.1679 100.142 65.1503ZM100.616 78.9856C100.616 78.9856 100.668 79.1438 100.668 79.1262C100.668 79.1262 100.651 79.0559 100.616 78.9856ZM100.668 81.7456C100.668 81.7456 100.668 81.7807 100.633 81.8159C100.633 81.7807 100.668 81.7632 100.668 81.7456ZM98.2112 85.9999C98.2112 85.9999 98.2112 85.9999 98.2112 85.9823C98.1761 86.035 98.141 86.0702 98.2112 85.9999ZM97.7198 86.5097C97.7198 86.5097 97.6846 86.5448 97.6495 86.5624C97.6846 86.5448 97.7022 86.5273 97.7198 86.5097ZM94.8942 87.3008H94.824C94.824 87.3008 94.8591 87.3008 94.8942 87.3008ZM88.9622 89.217L88.892 89.2521C88.892 89.2521 88.9271 89.2521 88.9622 89.217ZM86.8386 91.9594C86.8386 92.0121 86.8211 92.0649 86.8386 91.9594ZM75.1853 95.7918C75.1853 95.7918 75.1677 95.7918 75.1326 95.7918C75.1502 95.7918 75.1677 95.7918 75.1853 95.7918ZM74.3604 95.3347C74.3604 95.3347 74.3604 95.3347 74.3428 95.3347C74.3779 95.3699 74.5008 95.4402 74.3604 95.3347ZM72.9915 93.1021C72.9915 93.1021 72.9915 93.0845 72.9915 93.0493C72.9915 93.0493 72.9915 93.0845 72.9915 93.1021Z" fill="#3B87FF"/>
<path d="M96.8944 56.3594C96.8944 56.3594 96.8417 56.3418 96.8066 56.3242C96.8417 56.3242 96.8593 56.3418 96.8944 56.3594Z" fill="#80B5E0"/>
<path d="M72.2017 64.3059C73.8163 62.9874 75.7117 62.2139 77.7826 62.0381C79.7307 61.8799 81.7841 62.3897 83.4514 63.4094C86.9614 65.5541 88.734 69.7029 87.9267 73.7287C87.172 77.5083 83.9252 80.6726 80.1168 81.2704C79.5552 81.3583 79.0112 81.411 78.4495 81.411C74.3428 81.3934 70.745 78.7916 69.3234 74.9592C67.9545 71.2499 69.1479 66.8022 72.2017 64.2883V64.3059ZM71.7454 70.8983C71.7454 70.8983 71.7454 70.7928 71.7454 70.7753C71.7454 70.8104 71.7454 70.8632 71.7454 70.8983ZM83.7673 75.891C83.6971 75.9964 83.6971 75.9964 83.7673 75.891ZM77.6071 78.4576C77.5018 78.4576 77.4316 78.44 77.4141 78.44C77.4843 78.4576 77.5896 78.4752 77.6071 78.4576ZM75.8697 78.0005C75.8697 78.0005 75.7819 77.9654 75.7468 77.9478C75.7995 77.9829 75.8521 78.0005 75.8697 78.0005ZM73.1669 75.9789C73.1669 75.9789 73.0792 75.8558 73.0616 75.8382C73.0967 75.891 73.1318 75.9437 73.1669 75.9789ZM71.7103 72.041C71.7103 72.252 71.7454 72.4453 71.7629 72.6563C71.7629 72.7442 71.7629 72.7618 71.7629 72.7266C71.7805 72.8321 71.8156 72.9376 71.8156 72.9727C71.9033 73.4298 72.0437 73.8693 72.2017 74.3088C72.2017 74.3439 72.2192 74.3615 72.2368 74.3967V74.4318C72.2368 74.3967 72.2017 74.3615 72.1841 74.3088C72.1666 74.3615 72.3245 74.6076 72.3421 74.6604C72.4474 74.8538 72.5527 75.0647 72.658 75.2581C72.7633 75.4163 72.8686 75.5745 72.9739 75.7503C72.9739 75.7679 73.009 75.8031 73.0265 75.8382C73.0265 75.8382 73.0441 75.8734 73.0792 75.9085C73.1318 75.9613 73.1669 75.9964 73.202 76.0492C73.5004 76.3832 73.8163 76.6996 74.1673 76.9985C74.1848 77.0161 74.2199 77.0512 74.2375 77.0512C74.3603 77.1391 74.3252 77.1391 74.1673 76.9985C74.2199 77.0864 74.3954 77.1743 74.4832 77.227C74.6762 77.3501 74.8517 77.4731 75.0623 77.5962C75.2378 77.6841 75.3958 77.7896 75.5713 77.8775C75.5713 77.8775 75.6415 77.9126 75.6942 77.9478C75.6942 77.9478 75.7293 77.9478 75.7644 77.9829C75.817 78.0005 75.8872 78.0357 75.9574 78.0533C76.3962 78.2115 76.8349 78.3345 77.2912 78.4224C77.2912 78.4224 77.3439 78.4224 77.3965 78.44C77.3965 78.44 77.4316 78.44 77.5018 78.44H77.6949C77.9406 78.4576 78.1863 78.4752 78.432 78.4752C78.6426 78.4752 78.8532 78.4752 79.0463 78.4576C79.1516 78.4576 79.2393 78.44 79.3446 78.4224C79.7658 78.3345 80.187 78.2466 80.5907 78.106C80.7311 78.0533 81.047 78.0181 81.1523 77.8951C81.0996 77.9126 81.0294 77.9478 80.9768 77.9654C81.0294 77.9302 81.0996 77.9126 81.1523 77.8775C81.24 77.8247 81.3278 77.7896 81.4155 77.7544C81.7665 77.5786 82.1 77.3852 82.4159 77.1567C82.4685 77.104 82.6089 77.0512 82.644 76.9809C82.5914 77.0161 82.5563 77.0512 82.5036 77.0864C82.5563 77.0512 82.6089 76.9985 82.644 76.9633C82.7844 76.8403 82.9249 76.7172 83.0653 76.5766C83.2057 76.4359 83.3461 76.2953 83.4689 76.1547C83.5391 76.0843 83.5918 76.014 83.662 75.9261C83.6971 75.891 83.7322 75.8558 83.7673 75.8031C83.9603 75.5218 84.1534 75.2405 84.3113 74.9417C84.3991 74.7659 84.5044 74.6076 84.5746 74.4318L84.6272 74.3439C84.6974 74.2033 84.6799 74.2209 84.5921 74.4318C84.6623 74.3615 84.6974 74.1506 84.7325 74.0627C84.8729 73.6935 84.9607 73.3067 85.0484 72.92C85.066 72.8321 85.0835 72.7266 85.1011 72.6211C85.1537 72.3399 85.1011 72.709 85.1011 72.709C85.1888 72.6036 85.1537 72.1465 85.1537 71.9883C85.1537 71.5663 85.1537 71.162 85.1011 70.7577C85.0835 70.6698 85.066 70.5643 85.0484 70.4588C84.9958 70.2303 84.9431 70.0018 84.8905 69.7732C84.8378 69.5798 84.7676 69.404 84.6974 69.2107C84.6974 69.1579 84.6623 69.1228 84.6448 69.07C84.6448 69.07 84.6448 69.0349 84.6272 69.0173C84.4342 68.6481 84.2587 68.2614 84.013 67.9098C83.9252 67.7867 83.8024 67.523 83.6795 67.4351C83.7146 67.4879 83.7497 67.523 83.7848 67.5758C83.7497 67.523 83.6971 67.4703 83.662 67.4351C83.6093 67.3648 83.5391 67.2945 83.4689 67.2066C83.2057 66.9253 82.9249 66.644 82.644 66.3979C82.6265 66.3803 82.5914 66.3452 82.5738 66.3452C82.451 66.2573 82.4861 66.2573 82.644 66.3979C82.6089 66.3452 82.4685 66.2749 82.4159 66.2221C82.2579 66.1166 82.1 65.9936 81.9245 65.9057C81.7665 65.8002 81.591 65.7123 81.4155 65.6244C81.3278 65.5717 81.24 65.5365 81.1523 65.5013C81.1172 65.5013 81.0821 65.4662 81.047 65.4486C80.7135 65.3255 80.3625 65.2025 80.0115 65.1146C79.8185 65.0619 79.6254 65.0267 79.4324 64.9915C79.3973 64.9915 79.3622 64.9915 79.3446 64.9915C79.1866 64.974 79.2042 64.974 79.4324 64.9915C79.3622 64.9388 79.1164 64.9564 79.0287 64.9564C78.6075 64.9212 78.2038 64.9212 77.8002 64.9564C77.6949 64.9564 77.6071 64.974 77.5018 64.9915C77.2912 65.0267 77.0806 65.0794 76.87 65.1322C76.5015 65.2201 76.168 65.3431 75.817 65.4662C75.817 65.4662 75.7995 65.4662 75.7819 65.4662C75.6942 65.5189 75.6064 65.5541 75.5187 65.5892C75.3256 65.6947 75.115 65.8002 74.9219 65.9057C74.764 66.0112 74.606 66.1166 74.4305 66.2221C74.3779 66.2749 74.2375 66.3276 74.2024 66.3979C74.255 66.3627 74.2901 66.3276 74.3428 66.2924C74.2901 66.3276 74.2375 66.3803 74.2024 66.4155C73.904 66.6616 73.6232 66.9253 73.3775 67.2242C73.3073 67.2945 73.2547 67.3648 73.1845 67.4527C73.1669 67.4703 73.1318 67.5054 73.1318 67.523C73.0441 67.6461 73.0441 67.6109 73.1845 67.4527C73.0441 67.5406 72.9388 67.8043 72.851 67.9273C72.6229 68.2789 72.4298 68.6481 72.2368 69.0349C72.2368 69.0524 72.2368 69.07 72.2192 69.0876C72.2017 69.1403 72.1841 69.1755 72.1666 69.2282C72.0964 69.4216 72.0262 69.5974 71.9735 69.7908C71.9209 69.9842 71.8682 70.1776 71.8331 70.3709C71.8156 70.4588 71.798 70.5643 71.7805 70.6698C71.7805 70.6698 71.7805 70.6698 71.7805 70.6874C71.7805 70.6874 71.7805 70.7401 71.7805 70.7753C71.7454 71.1972 71.7278 71.6015 71.7278 72.0058L71.7103 72.041Z" fill="white"/>
<path d="M52.2653 50.3828C52.2653 50.3828 52.2474 50.4007 52.2295 50.4007C52.2295 50.4007 52.2295 50.4007 52.2474 50.4007L52.2653 50.3828Z" fill="#80B5E0"/>
<path d="M45.1914 31.9599C45.1914 31.9599 45.1914 31.8538 45.2626 31.8008C45.2448 31.8361 45.2092 31.8892 45.1914 31.9422V31.9599Z" fill="#80B5E0"/>
<path d="M53.0195 50.1719C53.0195 50.1719 53.1073 50.1895 53.1424 50.207C53.1424 50.207 53.1073 50.207 53.0195 50.1719Z" fill="#80B5E0"/>
<path d="M50.3164 38.745C50.369 38.7098 50.4041 38.6922 50.4392 38.6571C50.4392 38.6571 50.4392 38.6395 50.4743 38.6219C50.5094 38.5868 50.5445 38.5516 50.5796 38.5164C50.5972 38.4813 50.6323 38.4637 50.6323 38.4461C50.6323 38.4461 50.6323 38.411 50.6498 38.3934C50.6498 38.3934 50.6674 38.3934 50.6849 38.3406C50.6849 38.3231 50.6849 38.2879 50.7025 38.2703C50.7025 38.2703 50.7025 38.2527 50.72 38.2527C50.72 38.2527 50.72 38.2527 50.7025 38.2527C50.7025 38.2527 50.7025 38.2527 50.7025 38.2352C50.7025 38.1824 50.72 38.1121 50.7376 38.0594C50.7376 38.0594 50.7376 38.0594 50.7376 38.0418C50.7376 37.9715 50.7376 37.8836 50.7376 37.8132C50.7376 37.7605 50.7025 37.6902 50.6849 37.6375C50.6849 37.6375 50.6849 37.6375 50.6849 37.6199C50.6498 37.5671 50.6147 37.5144 50.5796 37.4441C50.5445 37.4089 50.4743 37.3562 50.4392 37.3034C50.4041 37.2859 50.369 37.2507 50.3515 37.2507C49.5617 36.7585 48.9299 36.0377 48.7368 35.0884C48.5438 34.227 48.7017 33.3832 49.1229 32.6097C49.6845 31.6252 50.2111 30.4649 51.2992 29.9727C52.282 29.5332 53.3174 29.5332 54.2827 29.9903C54.3529 30.0254 54.4231 30.0606 54.4933 30.0958C54.4933 30.0958 54.4933 30.0958 54.5109 30.0958C54.546 30.0958 54.5811 30.1133 54.6162 30.1309C54.6513 30.1309 54.7039 30.1485 54.7566 30.1661C54.8092 30.1661 54.897 30.1661 54.9496 30.1661C54.8794 30.1661 54.8268 30.2188 54.9496 30.1836C54.9672 30.1836 55.0023 30.1836 55.0198 30.1836H55.0374C55.0374 30.1836 55.0549 30.1836 55.0725 30.1836C55.1427 30.1836 55.1953 30.1485 55.2655 30.1309C55.2655 30.1309 55.2831 30.1309 55.3006 30.1309C55.3357 30.1133 55.3708 30.0958 55.4059 30.0606C55.4059 30.0606 55.4059 30.0606 55.4235 30.0606C55.4235 30.0606 55.441 30.0606 55.4586 30.043C55.4761 30.0079 55.5112 29.9903 55.5463 29.9551C55.5463 29.9551 55.5814 29.92 55.599 29.9024C55.6341 29.8496 55.6516 29.8145 55.6867 29.7617C55.6516 29.8145 55.7043 29.7266 55.7218 29.6738C55.7218 29.6211 55.7569 29.5684 55.7569 29.5156C55.7569 29.4805 55.7569 29.4277 55.7569 29.4101C55.7569 29.1289 55.792 28.8476 55.8622 28.5663C56.0728 27.6697 56.7222 26.8259 57.547 26.404C58.5123 25.9118 59.6355 25.9997 60.6885 26.0173C61.8469 26.0348 62.8999 26.615 63.5317 27.617C63.8476 28.1092 63.988 28.6718 64.0231 29.2519C64.0231 29.3222 64.0231 29.4101 64.0231 29.498C64.0231 29.5156 64.0231 29.5508 64.0231 29.5508C64.0231 29.6035 64.0582 29.6563 64.0757 29.709C64.0757 29.7442 64.1108 29.7793 64.1108 29.7969C64.1284 29.8321 64.2863 30.0958 64.181 29.92C64.0933 29.7617 64.2161 29.9375 64.2512 29.9903C64.2688 30.0079 64.3214 30.0606 64.3565 30.0782C64.3916 30.1133 64.4443 30.1309 64.4618 30.1485C64.4969 30.1661 64.7251 30.3067 64.5496 30.2012C64.3916 30.1133 64.5847 30.2012 64.6373 30.2188C64.6373 30.2188 64.6549 30.2188 64.6724 30.2188H64.6373C64.6373 30.2188 64.6724 30.2188 64.69 30.2188C64.7075 30.2188 64.7251 30.2188 64.7426 30.2188C64.7953 30.2188 64.8128 30.2188 64.8128 30.2188C64.8479 30.2188 64.8655 30.2188 64.883 30.2188C64.883 30.2188 64.9006 30.2188 64.9181 30.2188C64.9532 30.2188 65.041 30.2012 65.0761 30.1836C65.0761 30.1836 65.1112 30.1836 65.1287 30.1836C65.1638 30.1485 65.2691 30.1133 65.3042 30.0958C65.7781 29.8496 66.2695 29.709 66.796 29.6738C67.7262 29.6211 68.709 30.0254 69.3408 30.6935C69.7094 31.0978 69.9551 31.5724 70.2183 32.0295C70.4816 32.4866 70.7799 32.9437 70.9203 33.4535C71.1836 34.35 71.0256 35.4048 70.4991 36.1783C70.2008 36.6178 69.8322 36.9518 69.3759 37.2331C69.3408 37.2683 69.2881 37.2859 69.253 37.321C69.253 37.321 69.2179 37.3386 69.2179 37.3562C69.1828 37.3913 69.1478 37.4265 69.1127 37.4792C69.0951 37.5144 69.06 37.532 69.06 37.5671C69.06 37.5671 69.0249 37.6199 69.0249 37.655C69.0249 37.6902 69.0073 37.7253 68.9898 37.7429C68.9898 37.7957 68.9722 37.866 68.9547 37.9187C68.9547 37.9187 68.9547 37.9539 68.9547 37.9715C68.9547 38.0242 68.9547 38.0945 68.9547 38.1648C68.9547 38.2352 68.9898 38.2879 69.0073 38.3582C69.0073 38.3582 69.0073 38.3582 69.0073 38.3758C69.0424 38.4285 69.0775 38.4813 69.0951 38.534C69.0951 38.534 69.1126 38.5692 69.1302 38.5692C69.1302 38.5692 69.218 38.6571 69.2706 38.6922C69.2882 38.6922 69.3057 38.7274 69.3408 38.7274C69.7445 38.9735 70.0604 39.2548 70.3587 39.624C70.973 40.4326 71.1836 41.4874 70.9379 42.4543C70.815 42.9817 70.4991 43.4388 70.2359 43.9134C69.9726 44.3705 69.7445 44.81 69.411 45.2143C68.7967 45.9351 67.8139 46.357 66.8662 46.3394C66.3397 46.3394 65.8483 46.1988 65.3744 45.9527C65.3218 45.9351 65.2516 45.8999 65.199 45.8648C65.199 45.8648 65.1989 45.8648 65.1814 45.8648C65.1463 45.8648 65.1112 45.8472 65.0761 45.8296C65.0761 45.8296 65.041 45.8296 65.0234 45.8296C65.0234 45.8296 64.9883 45.7944 64.9181 45.7944H64.7777C64.7777 45.7944 64.7075 45.7944 64.6724 45.7944C64.6549 45.7944 64.6373 45.7944 64.6198 45.7944C64.6022 45.7944 64.5145 45.8296 64.4443 45.8648C64.4267 45.8648 64.3916 45.8823 64.3741 45.8999C64.339 45.9175 64.3039 45.9351 64.2863 45.9527C64.2863 45.9351 64.3039 45.9175 64.2688 45.9527C64.2512 45.9878 64.2161 46.0054 64.181 46.0406C64.181 46.0406 64.1635 46.0581 64.1459 46.0757C64.1108 46.1285 64.0757 46.1988 64.0406 46.2515C64.0406 46.2691 64.0231 46.2867 64.0231 46.3043C64.0055 46.3746 63.988 46.4625 63.9704 46.5328C63.9704 46.5504 63.9704 46.5855 63.9704 46.6031C63.9704 46.8668 63.9353 47.1305 63.8651 47.3942C63.7423 47.904 63.479 48.3611 63.1456 48.783C62.5489 49.5213 61.5836 49.9257 60.6359 49.9433C60.2498 49.9433 59.8461 49.9433 59.46 49.9433C58.7229 49.9433 58.0034 49.8729 57.354 49.4862C56.3536 48.8885 55.7569 47.8161 55.7218 46.6734C55.7218 46.6031 55.7218 46.5504 55.7218 46.4801C55.7218 46.4625 55.7218 46.4273 55.7218 46.4273C55.7218 46.4097 55.6692 46.2867 55.6516 46.2164C55.6516 46.1988 55.6341 46.1812 55.6165 46.1636C55.6165 46.1636 55.6165 46.1285 55.5814 46.1109C55.6165 46.1812 55.5112 46.023 55.4586 45.9702C55.4059 45.9527 55.3006 45.8648 55.2655 45.8472C55.2655 45.8472 55.1953 45.812 55.1602 45.7944C55.3357 45.8999 55.09 45.7944 55.0374 45.7593C54.9672 45.7593 54.8794 45.7593 54.8268 45.7593C54.8268 45.7593 54.8268 45.7593 54.8092 45.7593C54.7741 45.7769 54.6162 45.7944 54.5986 45.812C54.5635 45.8472 54.4231 45.8999 54.388 45.9175C52.7207 46.7789 50.7727 46.1636 49.86 44.5463C49.6319 44.1595 49.4037 43.7728 49.1756 43.3684C48.7368 42.6125 48.5964 41.8038 48.7544 40.9424C48.8948 40.0283 49.5266 39.2372 50.3164 38.745ZM50.4919 37.3386C50.4919 37.3386 50.527 37.3738 50.527 37.3562C50.527 37.3562 50.527 37.3562 50.4919 37.3386ZM51.2816 41.1007C51.2816 41.1007 51.2992 41.0655 51.3167 41.0479C51.3167 41.0479 51.2992 41.0655 51.2816 41.1007ZM51.422 40.9424C51.422 40.9424 51.4747 40.9073 51.5273 40.8721C51.4922 40.8721 51.4571 40.9073 51.422 40.9424ZM51.1939 34.7895C51.1939 34.7895 51.1763 34.7368 51.1588 34.7192C51.1588 34.7544 51.1763 34.7895 51.1939 34.7895ZM52.4224 32.1526C52.4224 32.1526 52.4399 32.1526 52.4575 32.1526C52.4575 32.1526 52.4399 32.1526 52.4224 32.1526ZM53.0717 32.1526C53.0717 32.1526 53.1244 32.1702 53.1595 32.1877C53.1595 32.1877 53.1068 32.1526 53.0717 32.1526ZM55.1778 30.1661C55.1778 30.1661 55.1778 30.1661 55.2129 30.1485C55.1953 30.1485 55.1778 30.1485 55.1778 30.1661ZM55.5814 29.8496L55.599 29.8321C55.599 29.8321 55.599 29.8321 55.5814 29.8496ZM58.1438 29.3047C58.1438 29.3047 58.1438 29.2168 58.1613 29.1816C58.1613 29.2343 58.1262 29.2871 58.1438 29.3047ZM58.1789 29.041C58.1789 29.041 58.1964 28.9882 58.214 28.9706C58.1964 29.0058 58.1789 29.041 58.1789 29.041ZM58.4948 28.6191C58.4948 28.6191 58.5123 28.6191 58.5299 28.6015C58.5299 28.6015 58.5299 28.6015 58.4948 28.6191ZM58.6878 28.496C58.6878 28.496 58.7229 28.496 58.7405 28.4784C58.7405 28.4784 58.7054 28.4784 58.6878 28.496ZM58.916 28.4433C58.916 28.4433 58.9686 28.4433 59.0213 28.4433C59.0213 28.4433 58.9686 28.4433 58.916 28.4433ZM60.9518 28.5136C60.9518 28.5136 60.9869 28.5136 61.0044 28.5312C60.9869 28.5312 60.9693 28.5136 60.9518 28.5136ZM61.1624 28.6191C61.1624 28.6191 61.1799 28.6366 61.1975 28.6542C61.1975 28.6542 61.1799 28.6366 61.1624 28.6191ZM65.1463 30.1661C65.1463 30.1661 65.1814 30.1661 65.199 30.1661C65.3745 30.1133 65.1989 30.1661 65.1463 30.1661ZM67.3576 32.2229C67.3576 32.2229 67.4454 32.2756 67.4805 32.3108C67.4454 32.2581 67.3927 32.2229 67.3576 32.2229ZM67.5682 32.3987C67.5682 32.3987 67.6033 32.4514 67.6384 32.469C67.6033 32.4339 67.5858 32.3987 67.5682 32.3987ZM68.4808 33.9457C68.4808 33.9457 68.5159 34.016 68.5335 34.0512C68.5335 33.9984 68.4984 33.9457 68.4808 33.9457ZM67.2348 43.8255C67.2348 43.8255 67.2172 43.8255 67.1997 43.8255C67.1997 43.8255 67.2172 43.8255 67.2348 43.8255ZM64.4092 45.8296H64.3741C64.3741 45.8296 64.3916 45.8296 64.4092 45.8296ZM61.1273 47.3415C61.1273 47.3415 61.1097 47.3415 61.0922 47.359C61.0922 47.359 61.0922 47.359 61.1273 47.3415ZM60.9342 47.4645C60.9342 47.4645 60.8991 47.4645 60.8816 47.4821C60.8816 47.4821 60.9167 47.4821 60.9342 47.4645ZM60.7763 47.4997C60.7763 47.4997 60.7236 47.4997 60.7061 47.4997C60.7412 47.4997 60.7587 47.4997 60.7763 47.4997ZM55.1251 45.7593C55.1251 45.7593 55.1251 45.7593 55.1076 45.7593C55.1076 45.7593 55.1076 45.7593 55.1251 45.7593ZM54.7741 45.7417C54.7741 45.7417 54.7215 45.7417 54.7039 45.7417C54.5284 45.7417 54.7039 45.7417 54.7741 45.7417ZM52.3522 43.7904C52.3522 43.7904 52.3171 43.7728 52.282 43.7552C52.282 43.7552 52.3171 43.7728 52.3522 43.7904ZM52.2644 43.7552C52.2644 43.7552 52.1767 43.7025 52.1416 43.6673C52.1767 43.72 52.2293 43.7552 52.2644 43.7552ZM52.0538 43.5794C52.0538 43.5794 52.0012 43.5267 51.9836 43.4915C52.0187 43.5442 52.0363 43.5794 52.0538 43.5794ZM51.1412 42.0324C51.1412 42.0324 51.1061 41.9621 51.0886 41.9269C51.0886 41.9796 51.1237 42.0324 51.1412 42.0324ZM68.4282 41.171C68.4282 41.171 68.4457 41.2237 68.4633 41.2413C68.4633 41.2061 68.4457 41.171 68.4282 41.171ZM68.358 34.8774C68.358 34.8774 68.3404 34.895 68.3229 34.9126C68.3229 34.9126 68.3404 34.9126 68.358 34.8774ZM68.358 41.0655C68.358 41.0655 68.3931 41.1182 68.4282 41.1534C68.4282 41.1358 68.3931 41.1007 68.358 41.0655ZM68.2351 40.9424C68.2351 40.9424 68.2351 40.9424 68.2527 40.9424C68.2527 40.9424 68.2527 40.9424 68.2351 40.9424ZM68.2351 35.0181C68.2351 35.0181 68.1825 35.0532 68.1298 35.0884C68.1649 35.0884 68.2 35.0532 68.2351 35.0181Z" fill="#3B87FF"/>
<path d="M55.4062 30.0436C55.4062 30.0436 55.4242 30.0078 55.4421 30.0078C55.4421 30.0078 55.4421 30.0078 55.4242 30.0257C55.4242 30.0257 55.4242 30.0257 55.4062 30.0257V30.0436Z" fill="#80B5E0"/>
<path d="M59.0741 35.9316C59.0565 35.9316 59.0214 35.9492 58.9863 35.9668C59.0039 35.9668 59.039 35.9492 59.0565 35.9316H59.0741Z" fill="#80B5E0"/>
<path d="M61.1445 39.8011C61.1623 39.8011 61.1801 39.7657 61.1979 39.748C61.1801 39.748 61.1623 39.7834 61.1445 39.8011Z" fill="#80B5E0"/>
<path d="M57.8286 38.8521C57.8286 38.8521 57.793 38.7814 57.793 38.7637C57.793 38.799 57.8286 38.8344 57.8286 38.8521Z" fill="#80B5E0"/>
<path d="M56.8449 34.4567C58.3718 33.2086 60.5305 32.9625 62.2504 33.9821C63.9528 35.0193 64.7776 36.9882 64.4266 38.9396C64.023 41.0843 62.0222 42.6137 59.8811 42.6313C57.8979 42.6137 56.1956 41.3656 55.4936 39.5197C54.8442 37.7793 55.4233 35.617 56.8449 34.4392V34.4567ZM62.0398 37.6563C62.0398 37.6563 62.0398 37.7617 62.0573 37.7969C62.0573 37.709 62.0573 37.6563 62.0398 37.6563ZM59.0211 40.0471C59.0211 40.0471 58.986 40.0295 58.986 40.0119C58.986 40.0119 58.986 40.0119 59.0211 40.0471ZM58.5824 39.7834C58.5824 39.7834 58.5297 39.7482 58.4946 39.7307C58.4946 39.7307 58.5297 39.7658 58.5824 39.7834ZM57.6698 37.8145C57.6698 37.8145 57.6873 37.709 57.6873 37.6563C57.6873 37.709 57.6873 37.7617 57.6873 37.8145C57.6873 37.9024 57.6873 37.9903 57.6873 38.0782C57.6873 38.1485 57.6873 38.2188 57.6873 38.2715C57.6873 38.2891 57.6873 38.3067 57.6873 38.3243C57.6873 38.377 57.7926 38.8868 57.8453 38.8693C57.8453 38.8693 57.8453 38.8341 57.8277 38.8165C57.8277 38.8165 57.8277 38.8517 57.8453 38.8693C57.8804 38.9396 57.9155 39.0099 57.9681 39.0802C58.0032 39.1505 58.0559 39.2209 58.091 39.2912C58.091 39.2912 58.091 39.3088 58.1085 39.3088C58.1085 39.3088 58.1261 39.3439 58.1436 39.3439C58.2489 39.467 58.3542 39.5724 58.4771 39.6779C58.4946 39.6955 58.5122 39.7131 58.5473 39.7307C58.5648 39.7307 58.5824 39.7482 58.5824 39.7658C58.6526 39.801 58.7403 39.8537 58.7403 39.8537C58.8105 39.8889 58.8807 39.9416 58.9509 39.9768C59.0036 40.0119 59.0387 40.0295 59.0563 40.0295C59.2142 40.0823 59.4599 40.135 59.495 40.135C59.5126 40.135 59.8109 40.135 59.846 40.135C59.846 40.135 60.0215 40.135 60.1093 40.135C60.2672 40.0998 60.4252 40.0647 60.5831 40.0119C60.5831 40.0119 60.6358 40.0119 60.6884 39.9768C60.6533 39.9768 60.6182 40.0119 60.6007 40.0119C60.6358 40.0119 60.6709 39.9944 60.6884 39.9768C60.7235 39.9768 60.7411 39.9592 60.7411 39.9592C60.7411 39.9592 60.706 39.9592 60.6884 39.9768C60.6884 39.9768 60.7235 39.9768 60.7411 39.9592C60.7762 39.9592 60.9868 39.8361 61.1096 39.7482C61.1798 39.7131 61.2149 39.6779 61.2149 39.6603C61.2149 39.6603 61.1798 39.6779 61.1623 39.6955C61.1623 39.6955 61.1974 39.6603 61.2149 39.6603C61.25 39.6252 61.3027 39.59 61.3378 39.5549C61.3904 39.5021 61.6712 39.2736 61.6537 39.2033C61.6186 39.2384 61.5835 39.2912 61.5484 39.3263C61.5835 39.2912 61.6186 39.2384 61.6361 39.2033C61.6712 39.133 61.7239 39.0626 61.759 38.9923C61.7765 38.9396 61.8116 38.9044 61.8292 38.8517C61.8292 38.8517 61.8292 38.8517 61.8292 38.8341C61.8292 38.8341 61.8292 38.7989 61.8467 38.7814C61.8818 38.6231 61.952 38.4649 61.9696 38.3067C61.9696 38.2891 61.9696 38.254 61.9696 38.2188C61.9696 38.2364 61.9696 38.2715 61.9696 38.3067C61.9696 38.254 61.9696 38.2012 61.9696 38.1485C61.9696 38.1133 61.9696 37.92 61.9696 37.7793C61.9696 37.7266 61.9696 37.6738 61.9345 37.6211C61.9169 37.5332 61.8994 37.4277 61.8643 37.3398C61.8467 37.2695 61.8292 37.2168 61.7941 37.1464C61.7239 37.0058 61.6537 36.8652 61.5659 36.7421C61.5659 36.7245 61.5308 36.707 61.5308 36.6718C61.5308 36.6718 61.5308 36.6542 61.5133 36.6366C61.5133 36.6366 61.4957 36.6015 61.4782 36.6015C61.3553 36.4608 61.2325 36.3378 61.0921 36.2323C61.0921 36.2323 61.0921 36.2323 61.0745 36.2323C61.0394 36.2147 60.9868 36.162 60.9341 36.1444C60.8815 36.1092 60.5656 35.8983 60.5129 35.9159C60.5656 35.9334 60.6182 35.951 60.6533 35.9862C60.6007 35.9686 60.548 35.951 60.4954 35.9334C60.4076 35.9159 60.3374 35.8807 60.2672 35.8631C60.2146 35.8631 60.1619 35.8455 60.1093 35.828C60.1093 35.828 60.0742 35.828 60.0566 35.828C60.0566 35.828 60.0215 35.828 60.004 35.828H59.495C59.4424 35.828 59.3897 35.8455 59.3371 35.8631C59.302 35.8631 59.1264 35.9159 59.0036 35.951C59.0036 35.951 59.0036 35.951 58.986 35.951C58.9158 35.9686 58.8632 35.9862 58.8632 36.0038C58.8632 36.0038 58.8983 36.0038 58.9158 35.9862C58.9158 35.9862 58.8807 35.9862 58.8632 36.0038C58.7754 36.0389 58.7052 36.0917 58.6175 36.1444C58.5648 36.1796 58.5122 36.2147 58.4595 36.2499C58.4595 36.2499 58.4595 36.2499 58.442 36.2499C58.3367 36.3554 58.2138 36.4608 58.1085 36.5663C58.0734 36.6015 58.0383 36.6366 58.0208 36.6718C57.9155 36.83 57.8277 36.9882 57.74 37.1464C57.74 37.1992 57.7049 37.2519 57.6873 37.3047C57.6698 37.375 57.5294 37.7442 57.582 37.7793L57.6698 37.8145Z" fill="white"/>
<path d="M87.1543 167.94L90.5591 157.761L58.723 165.338C56.8451 165.812 53.9142 166.428 51.5449 166.551H47.2276C47.2978 160.433 47.2627 151.327 47.2451 146.123C47.21 134.204 47.017 122.32 46.6309 110.454C50.0005 108.924 63.0579 101.225 68.165 98.9568C73.5178 96.5835 78.9408 94.4388 84.4341 92.5577C90.015 90.6416 95.6838 88.9539 101.352 87.6178C106.793 86.3521 112.199 85.8423 117.393 86.7916C133.785 89.7977 143.894 105.672 160.865 106.305C171.536 106.709 178.38 100.293 188.138 96.7945C192.526 95.2123 197.036 94.7025 201.406 95.0013C210.217 95.599 218.044 99.2029 225.45 102.824C232.944 106.498 273.538 128.579 279.487 133.36C272.327 141.429 226.556 168.854 226.275 169.223C225.748 168.924 210.831 158.851 201.985 152.944C198.721 150.764 194.263 152.153 192.807 155.792L192.561 156.407C190.104 162.507 184.225 186.873 177.661 186.873L91.8052 176.606C86.1364 174.954 86.2242 170.84 87.1543 167.922V167.94Z" fill="#9FA4FF"/>
<path d="M64.6548 163.949C65.0584 153.7 64.6548 143.416 63.4965 133.219C63.163 130.336 62.7593 127.453 62.3206 124.57C62.1977 123.797 61.0219 124.131 61.1447 124.904C62.7242 134.942 63.5491 145.086 63.6018 155.247C63.6018 158.148 63.5667 161.048 63.4438 163.949C63.4087 164.74 64.6372 164.74 64.6723 163.949H64.6548Z" fill="#1F233C"/>
<path d="M249.266 116.57C241.755 118.645 234.541 121.862 228.206 126.432C222.098 130.845 216.921 136.382 212.639 142.571C210.041 146.333 207.76 150.306 205.706 154.402C205.355 155.105 206.408 155.72 206.759 155.017C210.234 148.073 214.394 141.428 219.659 135.679C224.626 130.265 230.487 125.799 237.051 122.494C241.053 120.49 245.265 118.943 249.582 117.748C250.337 117.537 250.021 116.359 249.249 116.57H249.266Z" fill="#1F233C"/>
<path d="M140.103 166.427H108.688C122.009 147.23 142.227 124.746 158.759 108.238C160.076 106.92 161.866 107.465 161.251 109.029C161.357 109.029 161.48 109.029 161.585 109.029C163.586 109.293 165.499 108.783 167.482 107.799C169.482 106.814 171.466 105.795 173.572 106.006C173.695 106.006 173.8 106.041 173.905 106.076C175.063 105.267 176.45 106.638 175.397 107.939C172.15 111.895 169.167 116.096 166.288 120.28C163.41 124.464 160.69 128.736 158.092 133.043C152.845 141.763 148.124 150.711 143.578 159.712C142.596 161.645 141.086 164.493 140.121 166.427H140.103Z" fill="#9FA4FF"/>
<path d="M174.467 90.7285L177.082 102.138C177.082 102.138 173.098 111.894 164.762 111.35C153.863 110.629 152.547 104.74 152.547 104.74L159.356 95.1059L174.467 90.7285Z" fill="#F77737"/>
<path d="M171.168 57.8364C167.552 54.9709 162.954 53.0899 158.286 53.5821C154.021 54.0216 149.704 56.975 149.195 61.5106C148.756 65.5012 152.143 69.0347 155.864 69.8258C160.111 70.7399 164.744 68.8413 167.921 66.0461C169.448 64.7101 170.764 62.7763 170.852 60.7195C171.87 60.2624 172.326 58.7505 171.168 57.8364Z" fill="#1F233C"/>
<path d="M186.874 67.1187C186.787 66.3628 186.646 65.6244 186.436 64.9036C183.856 56.4302 173.326 54.4437 165.849 56.5181C160.83 57.9069 157.197 61.5986 155.302 66.3803C153.933 69.826 153.74 72.8321 153.318 75.3284C152.476 80.2156 152.107 82.624 151.721 87.1068C151.265 92.2401 152.564 97.3031 159.04 98.1645C165.639 99.0435 172.325 94.7716 177.064 90.3239C182.785 84.9797 186.137 78.8268 186.874 71.039C186.997 69.7381 187.032 68.402 186.892 67.1011L186.874 67.1187Z" fill="#F77737"/>
<path d="M159.654 54.3745C160.409 54.4272 161.164 54.5151 161.936 54.6206C162.813 52.8626 163.884 51.2101 165.095 49.7158C166.587 47.87 169.43 45.4967 171.904 47.0965C173.045 47.8348 173.326 49.1884 173.361 50.4718C173.361 50.5245 173.361 50.5772 173.361 50.63C174.818 49.4521 176.432 48.4853 178.187 47.8172C180.802 46.8152 184.33 46.0944 186.822 47.7821C189.665 49.7158 189.437 53.601 187.998 56.2906C187.735 56.7829 187.436 57.2751 187.121 57.7322C189.402 57.6619 192.017 58.1189 193.456 59.9648C195.457 62.5139 193.965 65.6606 192.035 67.6999C191.859 67.8933 191.666 68.0691 191.473 68.2624C192.965 68.6316 194.404 69.4227 194.667 70.917C195.106 73.5012 189.648 75.0131 189.349 75.101C190.087 78.0895 188.507 80.8495 186.998 82.6427C185.594 84.2952 177.117 92.5928 177.117 92.5928L176.38 98.0249C171.22 94.3859 171.729 87.8463 173.08 85.5433C173.554 85.6312 175.923 81.9395 175.923 81.9395C175.923 81.9395 179.118 77.5973 180.223 76.0503C178.925 75.1713 177.907 73.9055 177.398 72.3761C177.134 71.6026 177.047 70.8467 177.082 70.0907C176.889 70.1435 176.678 70.1962 176.485 70.249C174.853 70.6005 172.922 70.7236 171.413 69.9149C170.202 69.2645 169.711 68.2097 169.693 67.0319C168.658 67.1725 167.64 67.1373 166.727 66.944C164.726 66.5045 163.287 65.0278 162.62 63.1292C162.585 63.0413 162.568 62.9358 162.533 62.8479C162.182 62.6018 161.866 62.3029 161.585 61.9162C161.48 61.7755 161.392 61.6525 161.322 61.4942C161.181 61.547 161.023 61.5821 160.848 61.5997C160.076 61.5997 159.461 60.9844 159.426 60.2285C159.391 59.2792 159.637 55.3413 159.725 54.3745H159.654Z" fill="#111DAA"/>
<path d="M184.05 68.3666C185.436 67.5228 186.893 66.5559 187.419 64.921C187.876 63.5322 187.419 61.95 186.085 61.2468C184.734 60.5437 183.084 60.7898 181.645 61.0007C179.592 61.282 177.591 61.7742 175.625 62.4598C175.819 62.7939 176.029 63.1455 176.222 63.4795C177.363 62.0379 182.295 55.6916 178.363 54.8478C176.766 54.5138 174.941 55.5159 173.519 56.096C171.624 56.9047 169.781 57.8188 168.009 58.8736C167.324 59.2779 167.938 60.3327 168.623 59.9284C169.939 59.1549 171.273 58.4341 172.659 57.8012C174.028 57.1683 175.485 56.4827 176.977 56.1136C177.451 55.9905 178.24 55.8499 178.539 56.3245C178.942 56.9398 178.188 58.0473 177.907 58.6099C177.187 60.0338 176.328 61.3699 175.345 62.6181C175.011 63.04 175.292 63.8662 175.941 63.6377C177.363 63.1455 178.82 62.7411 180.294 62.4598C181.61 62.1961 183.049 61.9149 184.401 62.0379C185.752 62.161 186.682 63.0751 186.278 64.4991C185.892 65.8527 184.559 66.6262 183.435 67.3118C182.768 67.7162 183.383 68.7885 184.05 68.3666Z" fill="#516BED"/>
<path d="M166.306 86.1406H156.285C156.285 86.1406 156.478 90.4125 160.866 90.4125C164.306 90.4125 166.026 87.7755 166.622 86.6504C166.745 86.4219 166.57 86.1406 166.306 86.1406Z" fill="white"/>
<path d="M158.794 98.7102C160.62 98.7102 162.462 98.341 164.217 97.8488C165.867 97.3741 167.534 96.7764 169.009 95.8799C169.676 95.4755 169.061 94.4208 168.394 94.8251C167.008 95.6689 165.464 96.2315 163.902 96.671C162.252 97.1456 160.532 97.4796 158.794 97.4796C158.005 97.4796 158.005 98.7102 158.794 98.7102Z" fill="#1F233C"/>
<path d="M170.729 71.9885C173.94 71.8479 176.257 73.5707 176.38 75.1529C176.485 76.4538 174.976 76.7526 172.677 76.2077C170.167 75.61 168.307 77.1921 167.57 75.1529C166.99 73.518 167.71 72.1468 170.729 72.0061V71.9885Z" fill="#1F233C"/>
<path d="M161.076 67.2073C160.023 67.3479 159.163 67.7347 158.391 68.1214C156.408 69.1235 157.11 72.4988 158.918 72.0769C160.813 71.655 164.411 71.8659 164.744 69.7212C165.008 67.9984 164.06 66.7854 161.076 67.2073Z" fill="#1F233C"/>
<path d="M170.922 82.5882C170.711 85.6119 172.993 88.2137 176.011 88.4247C179.03 88.6356 181.627 86.3502 181.838 83.3265C182.049 80.3028 179.767 77.701 176.748 77.4901C173.73 77.2791 171.132 79.5645 170.922 82.5882Z" fill="#F77737"/>
<path d="M160.918 73.0263C163.059 73.5361 162.252 76.1555 161.655 77.1399C161.269 77.7904 160.585 78.4936 159.619 78.2474C158.215 77.8959 158.443 76.2082 158.672 75.3116C158.917 74.3272 159.514 72.6747 160.9 73.0087L160.918 73.0263Z" fill="#1F233C"/>
<path d="M136.933 81.4671L112.964 117.837C112.084 119.172 110.285 119.541 108.952 118.66L107.575 117.75C106.242 116.868 105.874 115.066 106.754 113.731L130.723 77.3606C130.79 77.2579 130.912 77.233 131.014 77.3008L136.858 81.1651C136.961 81.2329 136.986 81.3547 136.918 81.4574L136.933 81.4671Z" fill="#111DAA"/>
<path d="M147.983 91.0316C161.972 88.2698 171.077 74.6717 168.319 60.6593C165.562 46.6469 151.987 37.5265 137.998 40.2883C124.009 43.0502 114.904 56.6483 117.661 70.6607C120.418 84.6731 133.994 93.7935 147.983 91.0316Z" fill="#111DAA"/>
<path d="M142.982 89.393C156.067 89.393 166.675 78.7675 166.675 65.6604C166.675 52.5532 156.067 41.9277 142.982 41.9277C129.897 41.9277 119.289 52.5532 119.289 65.6604C119.289 78.7675 129.897 89.393 142.982 89.393Z" fill="#00A95F"/>
<path d="M172.94 79.9864C171.887 78.2987 169.553 77.6834 167.815 78.6503C167.535 78.8085 167.429 79.2129 167.587 79.4941C167.763 79.793 168.131 79.8809 168.43 79.7227C168.517 79.6699 168.588 79.6348 168.675 79.5996C168.57 79.6348 168.675 79.5996 168.711 79.5996C168.763 79.5996 168.798 79.5644 168.851 79.5469C168.939 79.5117 169.026 79.4941 169.132 79.4765C169.184 79.4765 169.219 79.4765 169.272 79.459C169.342 79.459 169.184 79.459 169.307 79.459C169.5 79.459 169.676 79.4414 169.869 79.459C169.922 79.459 169.957 79.459 170.009 79.459C170.115 79.459 169.869 79.4238 170.044 79.459C170.132 79.4765 170.237 79.4941 170.325 79.5117C170.413 79.5293 170.501 79.5644 170.588 79.5996C170.624 79.5996 170.659 79.6172 170.694 79.6348C170.869 79.6875 170.588 79.582 170.764 79.6699C170.922 79.7578 171.08 79.8281 171.238 79.9336C171.273 79.9688 171.308 79.9864 171.361 80.0215C171.273 79.9512 171.361 80.0215 171.396 80.0567C171.466 80.127 171.536 80.1797 171.606 80.2501C171.677 80.3204 171.729 80.3907 171.799 80.461C171.834 80.5137 171.764 80.4083 171.817 80.4962C171.852 80.5489 171.887 80.5841 171.905 80.6368C172.08 80.9181 172.449 81.0236 172.747 80.8478C173.028 80.6895 173.133 80.2852 172.975 80.0039L172.94 79.9864Z" fill="#1F233C"/>
<path d="M178.363 81.6928C178.31 81.5697 178.363 81.728 178.363 81.7455C178.363 81.7807 178.398 81.8334 178.398 81.8686C178.433 81.9565 178.45 82.062 178.468 82.1499C178.468 82.1499 178.485 82.3081 178.468 82.2202C178.468 82.1323 178.468 82.2905 178.468 82.2905C178.468 82.3784 178.468 82.4663 178.468 82.5542C178.468 82.6597 178.468 82.7476 178.468 82.8531C178.468 82.9234 178.485 82.7652 178.468 82.8706C178.468 82.9234 178.45 82.9761 178.433 83.0289C178.398 83.2047 178.345 83.398 178.275 83.5738C178.24 83.6617 178.345 83.4508 178.275 83.609C178.257 83.6442 178.24 83.6969 178.222 83.7321C178.17 83.82 178.134 83.9079 178.082 83.9958C178.029 84.0661 177.977 84.1364 177.924 84.2243C177.994 84.1188 177.889 84.2594 177.889 84.2594C177.854 84.2946 177.836 84.3298 177.801 84.3649C177.731 84.4352 177.661 84.5056 177.59 84.5759C177.573 84.5935 177.538 84.6286 177.503 84.6462C177.38 84.7517 177.59 84.5935 177.45 84.6814C177.292 84.7868 177.117 84.8923 176.941 84.9626C176.643 85.1033 176.572 85.5428 176.73 85.8065C176.906 86.1229 177.257 86.1581 177.573 86.0174C178.468 85.6131 179.117 84.822 179.468 83.9254C179.819 82.9937 179.784 81.9917 179.398 81.0951C179.275 80.7962 178.819 80.7259 178.556 80.8666C178.24 81.0424 178.205 81.3939 178.328 81.7104L178.363 81.6928Z" fill="#1F233C"/>
<path d="M114.287 128.348C107.776 136.47 101.283 144.592 94.7716 152.731C92.8937 155.07 91.0334 157.408 89.1555 159.746C88.6641 160.361 89.5241 161.222 90.0155 160.607C96.5266 152.485 103.02 144.364 109.531 136.224C111.409 133.886 113.27 131.548 115.147 129.21C115.639 128.595 114.779 127.733 114.287 128.348Z" fill="#1F233C"/>
<path d="M197.317 150.429C193.824 148.161 190.525 145.595 187.454 142.764C186.874 142.237 186.014 143.098 186.594 143.626C189.735 146.526 193.122 149.146 196.703 151.484C197.369 151.906 197.984 150.851 197.317 150.429Z" fill="#1F233C"/>
<path d="M46.0514 100.01C57.1782 95.1933 68.6034 91.3609 78.5018 87.8274C88.6985 84.1884 104.862 78.4398 113.304 79.7407C115.778 80.1275 118.13 81.0416 120.499 81.8503C122.728 82.6238 124.957 83.45 127.151 84.3642C128.678 84.9971 130.152 85.7178 131.609 86.4738C133.101 87.1594 134.557 87.8977 135.961 88.6536C137.067 89.2513 138.137 90.0249 138.682 91.2027C139.313 92.5915 138.857 94.1561 137.874 95.2285C135.926 97.3556 132.785 97.7248 130.099 97.1095C129.327 96.9337 128.59 96.7051 127.853 96.4415C128.081 99.1839 128.064 102.014 127.642 104.739C127.414 106.145 127.028 107.622 126.151 108.782C125.343 109.855 124.01 110.347 122.886 109.802C122.167 111.964 120.675 114.619 118.323 114.865C116.586 115.041 115.638 113.705 114.883 112.369C114.199 111.191 113.655 109.925 113.216 108.642C113.146 108.413 113.076 108.185 113.006 107.956C112.883 108.185 112.69 108.378 112.391 108.501C107.916 110.593 99.0531 110.048 99.0531 110.048C99.0531 110.048 64.0579 133.078 54.6335 138.369C51.9834 139.846 47.2624 142.518 47.2624 142.518V166.549H18.2518C6.28258 165.829 -6.35358 144.627 3.57985 128.788C12.5129 114.513 29.1681 107.341 46.069 100.01H46.0514Z" fill="#F77737"/>
<path d="M34.1879 148.917C33.4859 149.269 34.1002 150.323 34.8022 149.972C39.5759 147.563 44.3671 145.173 49.1407 142.764C49.8427 142.413 49.2285 141.358 48.5265 141.709" fill="#1F233C"/>
<path d="M129.134 96.3712C128.099 91.5719 125.765 87.1243 122.412 83.5556C121.868 82.9754 121.008 83.8544 121.553 84.417C124.764 87.845 126.976 92.0993 127.958 96.7052C128.116 97.4787 129.31 97.1447 129.134 96.3712Z" fill="#1F233C"/>
<path d="M123.29 110.03C123.132 104.089 121.816 98.2521 119.464 92.8023C119.148 92.0816 118.095 92.6969 118.411 93.4176C120.675 98.6564 121.921 104.317 122.079 110.03C122.097 110.822 123.325 110.822 123.307 110.03H123.29Z" fill="#1F233C"/>
<path d="M182.838 181.633C183.996 183.127 186.015 183.426 187.77 183.11C191.139 182.495 194.474 181.018 197.405 179.278C197.808 179.031 198.195 178.785 198.598 178.539C198.668 179.207 199.844 191.408 201.003 194.168C201.863 196.224 203.74 198.615 206.268 197.578C208.391 196.699 209.234 193.693 209.795 191.689C209.83 191.583 209.848 191.478 209.883 191.372C210.252 192.058 210.638 192.726 211.059 193.376C211.919 194.748 212.849 196.26 214.2 197.191C215.639 198.193 217.623 198.475 218.869 196.998C220.045 195.609 220.08 193.376 219.974 191.671C219.869 189.896 219.413 188.138 218.921 186.432C219.764 187.311 220.641 188.19 221.536 189.017C222.817 190.212 224.327 191.144 226.134 191.003C227.907 190.863 229.346 189.526 229.557 187.733C229.75 186.011 229.03 184.182 228.539 182.547C227.609 179.383 226.468 176.236 225.134 173.177C229.873 172.263 233.295 168.853 233.295 168.853C233.295 168.853 255.987 173.037 277.416 166.603C280.312 165.741 285.209 162.665 286.928 160.116C290.298 155.158 291.018 148.197 288.561 142.94C284.647 134.59 275.767 129.878 266.079 130.423C247.318 131.478 214.007 144.839 197.352 160.502C192.263 165.284 187.155 170.628 183.189 176.394C182.101 177.977 181.574 179.998 182.856 181.633H182.838Z" fill="#F77737"/>
<path d="M200.862 161.486C198.634 166.373 197.651 171.735 198.054 177.097C198.107 177.871 199.336 177.888 199.283 177.097C198.897 171.964 199.792 166.795 201.933 162.102C202.266 161.398 201.196 160.766 200.88 161.486H200.862Z" fill="#1F233C"/>
<path d="M208.409 175.568C208.655 180.332 208.918 185.096 209.164 189.86C209.199 190.651 210.427 190.651 210.392 189.86C210.146 185.096 209.883 180.332 209.637 175.568C209.602 174.777 208.374 174.777 208.409 175.568Z" fill="#1F233C"/>
<path d="M216.394 174.215C216.991 177.819 217.605 181.44 218.202 185.044C218.325 185.817 219.518 185.483 219.378 184.71C218.781 181.106 218.167 177.485 217.57 173.881C217.447 173.107 216.254 173.441 216.394 174.215Z" fill="#1F233C"/>
<path d="M148.809 61.4414H138.051C137.612 61.4414 137.278 61.7754 137.278 62.2149V68.3678C137.278 68.8073 137.612 69.1413 138.051 69.1413H148.809C149.248 69.1413 149.581 68.8073 149.581 68.3678V62.2149C149.581 61.7754 149.248 61.4414 148.809 61.4414ZM148.037 67.5943H138.805V62.9708H148.037V67.5943Z" fill="white"/>
<path d="M131.89 76.0843H133.891L132.908 77.0687C132.592 77.3852 132.592 77.8774 132.908 78.1411C133.224 78.4575 133.715 78.4575 133.978 78.1411L136.277 75.8382C136.593 75.5217 136.593 75.0295 136.277 74.7658L133.978 72.4628C133.662 72.1464 133.171 72.1464 132.908 72.4628C132.592 72.7793 132.592 73.2715 132.908 73.5352L133.891 74.5548H131.89C131.451 74.5548 131.118 74.2208 131.118 73.7813V56.8521C131.118 56.4126 131.451 56.0785 131.89 56.0785H137.278V58.3815C137.278 58.821 137.611 59.155 138.05 59.155H148.808C149.247 59.155 149.581 58.821 149.581 58.3815V52.2286C149.581 51.7891 149.247 51.4551 148.808 51.4551H138.05C137.611 51.4551 137.278 51.7891 137.278 52.2286V54.5315H131.89C130.626 54.5315 129.591 55.5863 129.591 56.8345V73.7637C129.591 75.0295 130.644 76.0667 131.89 76.0667V76.0843ZM148.036 57.608H138.805V52.9845H148.036V57.608Z" fill="white"/>
<path d="M154.951 64.5344H152.951L153.933 63.5499C154.249 63.2335 154.249 62.7413 153.933 62.4776C153.618 62.1611 153.126 62.1611 152.863 62.4776L150.564 64.7805C150.248 65.0969 150.248 65.5892 150.564 65.8529L152.863 68.1558C153.179 68.4722 153.67 68.4722 153.933 68.1558C154.249 67.8394 154.249 67.3471 153.933 67.0834L152.951 66.0638H154.951C155.39 66.0638 155.724 66.3978 155.724 66.8373V74.5373C155.724 74.9767 155.39 75.3108 154.951 75.3108H149.563V72.2343C149.563 71.7948 149.23 71.4608 148.791 71.4608H138.033C137.594 71.4608 137.261 71.7948 137.261 72.2343V78.3872C137.261 78.8267 137.594 79.1607 138.033 79.1607H148.791C149.23 79.1607 149.563 78.8267 149.563 78.3872V76.8402H154.951C156.215 76.8402 157.25 75.7854 157.25 74.5373V66.8373C157.25 65.5716 156.197 64.5344 154.951 64.5344ZM138.805 73.0078H148.037V77.6313H138.805V73.0078Z" fill="white"/>
</g>
<defs>
<clipPath id="clip0_1241_90400">
<rect width="290" height="172" fill="white" transform="translate(0 26)"/>
</clipPath>
</defs>
</svg>
