<?xml version="1.0" encoding="UTF-8"?>
<svg xmlns="http://www.w3.org/2000/svg" xmlns:xlink="http://www.w3.org/1999/xlink" width="297px" height="236px" viewBox="0 0 297 236" version="1.1">
<defs>
<clipPath id="clip1">
  <path d="M 182 130 L 290 130 L 290 198 L 182 198 Z M 182 130 "/>
</clipPath>
</defs>
<g id="surface1">
<path style=" stroke:none;fill-rule:nonzero;fill:rgb(89.019608%,89.019608%,99.215686%);fill-opacity:1;" d="M 169.6875 216.878906 C 169.6875 216.878906 275.007812 185.042969 291.402344 134.980469 C 291.402344 134.980469 320.578125 80.246094 245.71875 41.65625 C 245.71875 41.65625 171.390625 -8.761719 101.113281 1.335938 C 101.113281 1.335938 15.234375 9.386719 37.769531 127.757812 C 37.769531 127.757812 38.886719 134.285156 40.035156 142.28125 C 41.6875 153.902344 41.820312 165.667969 40.667969 177.335938 C 38.757812 196.628906 39.339844 232.8125 70.039062 234.78125 C 70.039062 234.78125 98.164062 242.976562 169.6875 216.859375 Z M 169.6875 216.878906 "/>
<path style=" stroke:none;fill-rule:nonzero;fill:rgb(50.196078%,70.980392%,87.843137%);fill-opacity:1;" d="M 82.484375 95.316406 C 82.484375 95.316406 82.46875 95.316406 82.449219 95.335938 C 82.414062 95.335938 82.414062 95.335938 82.484375 95.316406 Z M 82.484375 95.316406 "/>
<path style=" stroke:none;fill-rule:nonzero;fill:rgb(50.196078%,70.980392%,87.843137%);fill-opacity:1;" d="M 56.25 79.035156 C 56.25 79.035156 56.230469 79.089844 56.214844 79.125 C 56.214844 79.089844 56.230469 79.074219 56.25 79.035156 Z M 56.25 79.035156 "/>
<path style=" stroke:none;fill-rule:nonzero;fill:rgb(50.196078%,70.980392%,87.843137%);fill-opacity:1;" d="M 69.324219 53.144531 C 69.324219 53.144531 69.324219 53.125 69.339844 53.105469 C 69.339844 53.105469 69.339844 53.105469 69.339844 53.125 Z M 69.324219 53.144531 "/>
<path style=" stroke:none;fill-rule:nonzero;fill:rgb(50.196078%,70.980392%,87.843137%);fill-opacity:1;" d="M 65.128906 89.199219 C 65.128906 89.199219 65.078125 89.21875 65.058594 89.234375 C 65.058594 89.234375 65.078125 89.234375 65.09375 89.21875 C 65.09375 89.21875 65.113281 89.21875 65.128906 89.21875 Z M 65.128906 89.199219 "/>
<path style=" stroke:none;fill-rule:nonzero;fill:rgb(50.196078%,70.980392%,87.843137%);fill-opacity:1;" d="M 60.125 87.074219 C 60.125 87.074219 60.089844 87.074219 60.054688 87.054688 C 60.144531 87.054688 60.160156 87.074219 60.125 87.074219 Z M 60.125 87.074219 "/>
<path style=" stroke:none;fill-rule:nonzero;fill:rgb(23.137255%,52.941176%,100%);fill-opacity:1;" d="M 56.230469 74.820312 C 56.230469 74.820312 56.230469 74.820312 56.25 74.820312 C 56.390625 74.730469 56.53125 74.644531 56.667969 74.554688 C 56.757812 74.484375 56.828125 74.414062 56.898438 74.34375 C 57.039062 74.222656 57.144531 74.082031 57.265625 73.957031 C 57.320312 73.871094 57.390625 73.78125 57.441406 73.695312 C 57.53125 73.554688 57.617188 73.414062 57.6875 73.253906 C 57.707031 73.167969 57.757812 73.078125 57.792969 72.992188 C 57.84375 72.816406 57.898438 72.640625 57.933594 72.464844 C 57.933594 72.394531 57.949219 72.324219 57.96875 72.253906 C 57.96875 72.253906 57.96875 72.253906 57.96875 72.234375 C 57.96875 72.042969 57.984375 71.867188 57.984375 71.671875 C 57.984375 71.585938 57.984375 71.496094 57.984375 71.425781 C 57.984375 71.390625 57.984375 71.304688 57.96875 71.234375 C 57.96875 71.214844 57.96875 71.199219 57.96875 71.179688 C 57.96875 71.09375 57.933594 71.003906 57.914062 70.933594 C 57.863281 70.742188 57.808594 70.546875 57.742188 70.371094 C 57.742188 70.371094 57.742188 70.355469 57.742188 70.335938 C 57.722656 70.285156 57.6875 70.230469 57.671875 70.179688 C 57.582031 70.003906 57.476562 69.84375 57.390625 69.6875 C 57.355469 69.632812 57.160156 69.335938 57.300781 69.546875 C 57.425781 69.738281 57.265625 69.511719 57.214844 69.457031 C 57.074219 69.316406 56.949219 69.175781 56.792969 69.035156 C 56.773438 69.019531 56.667969 68.949219 56.617188 68.894531 C 56.582031 68.878906 56.566406 68.859375 56.53125 68.84375 C 56.371094 68.738281 56.214844 68.648438 56.054688 68.542969 C 55.617188 68.261719 55.179688 67.929688 54.808594 67.542969 C 54.105469 66.804688 53.582031 65.90625 53.265625 64.9375 C 52.703125 63.199219 52.984375 61.265625 53.878906 59.683594 C 54.386719 58.769531 54.933594 57.871094 55.441406 56.957031 C 56.179688 55.691406 57.054688 54.566406 58.390625 53.898438 C 60.285156 52.949219 62.460938 52.949219 64.375 53.898438 C 64.566406 53.988281 64.726562 54.09375 64.917969 54.179688 C 65.007812 54.214844 65.285156 54.320312 65.058594 54.25 C 65.234375 54.304688 65.390625 54.375 65.566406 54.410156 C 65.691406 54.445312 65.8125 54.460938 65.9375 54.496094 C 65.953125 54.496094 65.972656 54.496094 65.988281 54.496094 C 65.988281 54.496094 66.023438 54.496094 66.042969 54.496094 C 66.289062 54.496094 66.515625 54.515625 66.761719 54.496094 C 66.777344 54.496094 66.832031 54.496094 66.867188 54.496094 C 66.9375 54.496094 67.042969 54.460938 67.078125 54.460938 C 67.269531 54.410156 67.480469 54.355469 67.671875 54.285156 C 67.726562 54.285156 68.023438 54.164062 67.8125 54.234375 C 67.605469 54.304688 67.882812 54.199219 67.9375 54.164062 C 68.128906 54.074219 68.324219 53.953125 68.515625 53.828125 C 68.585938 53.777344 68.761719 53.601562 68.640625 53.742188 C 68.5 53.898438 68.691406 53.6875 68.746094 53.652344 C 68.917969 53.511719 69.058594 53.335938 69.21875 53.179688 C 69.21875 53.179688 69.253906 53.144531 69.269531 53.125 C 69.21875 53.195312 69.164062 53.285156 69.234375 53.179688 C 69.234375 53.160156 69.269531 53.125 69.289062 53.109375 C 69.304688 53.089844 69.324219 53.074219 69.324219 53.054688 C 69.324219 53.054688 69.324219 53.054688 69.304688 53.074219 C 69.339844 53.019531 69.375 52.96875 69.410156 52.933594 C 69.535156 52.757812 69.621094 52.5625 69.726562 52.371094 C 69.726562 52.371094 69.726562 52.335938 69.746094 52.316406 C 69.78125 52.230469 69.816406 52.125 69.832031 52.035156 C 69.886719 51.859375 69.886719 51.542969 69.972656 51.402344 C 69.972656 51.402344 69.972656 51.402344 69.972656 51.386719 C 69.972656 51.261719 69.972656 51.140625 69.972656 51.015625 C 69.972656 50.789062 69.972656 50.558594 70.007812 50.347656 C 70.253906 48.273438 71.375 46.410156 73.203125 45.339844 C 74.484375 44.597656 75.835938 44.460938 77.273438 44.460938 C 78.273438 44.460938 79.273438 44.460938 80.273438 44.460938 C 82.539062 44.460938 84.628906 45.621094 85.839844 47.535156 C 86.488281 48.554688 86.785156 49.75 86.804688 50.945312 C 86.804688 51.035156 86.875 51.472656 86.839844 51.527344 C 86.855469 51.648438 86.890625 51.753906 86.910156 51.878906 C 86.945312 51.984375 87.085938 52.28125 87.085938 52.386719 C 87.136719 52.476562 87.171875 52.5625 87.226562 52.667969 C 87.3125 52.828125 87.417969 52.984375 87.523438 53.125 C 87.523438 53.125 87.664062 53.285156 87.734375 53.355469 C 87.855469 53.496094 87.996094 53.617188 88.136719 53.742188 C 88.207031 53.757812 88.3125 53.863281 88.382812 53.898438 C 88.523438 53.988281 88.679688 54.09375 88.839844 54.164062 C 88.910156 54.199219 89.015625 54.234375 89.085938 54.269531 L 89.121094 54.269531 C 89.277344 54.320312 89.453125 54.375 89.628906 54.410156 C 89.71875 54.425781 89.804688 54.445312 89.890625 54.460938 C 89.890625 54.460938 89.910156 54.460938 89.925781 54.460938 C 90.101562 54.460938 90.277344 54.480469 90.453125 54.480469 C 90.542969 54.480469 90.628906 54.480469 90.71875 54.480469 C 90.71875 54.480469 90.753906 54.480469 90.769531 54.480469 C 90.929688 54.410156 91.15625 54.425781 91.3125 54.375 C 91.402344 54.355469 91.488281 54.320312 91.578125 54.285156 L 91.71875 54.234375 C 91.71875 54.234375 91.753906 54.234375 91.769531 54.214844 C 92.050781 54.074219 92.648438 53.757812 92.71875 53.722656 C 93.210938 53.511719 93.683594 53.335938 94.210938 53.25 C 96.28125 52.898438 98.367188 53.476562 99.914062 54.9375 C 100.773438 55.746094 101.316406 56.835938 101.898438 57.855469 C 102.457031 58.820312 103.089844 59.789062 103.476562 60.84375 C 104.144531 62.671875 103.863281 64.886719 102.792969 66.503906 C 102.214844 67.382812 101.476562 68.070312 100.578125 68.613281 C 100.546875 68.632812 100.246094 68.84375 100.140625 68.894531 C 100.140625 68.894531 100.140625 68.894531 100.125 68.914062 C 100.035156 68.984375 99.964844 69.054688 99.894531 69.125 C 99.808594 69.210938 99.632812 69.492188 99.511719 69.546875 C 99.457031 69.617188 99.40625 69.703125 99.351562 69.792969 C 99.265625 69.949219 99.175781 70.109375 99.089844 70.265625 C 99.054688 70.355469 99.035156 70.441406 99 70.53125 C 98.949219 70.6875 98.914062 70.847656 98.859375 71.023438 C 98.859375 71.074219 98.859375 71.109375 98.84375 71.164062 C 98.84375 71.214844 98.84375 71.25 98.84375 71.304688 C 98.84375 71.480469 98.84375 71.636719 98.84375 71.8125 C 98.84375 71.902344 98.84375 71.988281 98.84375 72.058594 C 98.84375 72.058594 98.84375 72.09375 98.84375 72.113281 C 98.949219 72.429688 99 72.78125 99.105469 73.113281 C 99.140625 73.203125 99.195312 73.289062 99.230469 73.359375 C 99.316406 73.519531 99.421875 73.675781 99.511719 73.816406 C 99.5625 73.851562 99.632812 73.976562 99.667969 74.011719 C 99.808594 74.167969 99.964844 74.308594 100.125 74.449219 C 100.125 74.449219 100.140625 74.46875 100.160156 74.484375 C 100.230469 74.539062 100.335938 74.609375 100.335938 74.609375 C 100.511719 74.714844 100.6875 74.820312 100.859375 74.925781 C 101.28125 75.207031 101.6875 75.523438 102.035156 75.890625 C 103.492188 77.4375 104.074219 79.53125 103.722656 81.605469 C 103.511719 82.835938 102.84375 83.871094 102.230469 84.925781 C 101.738281 85.789062 101.28125 86.71875 100.6875 87.511719 C 99.421875 89.183594 97.492188 90.21875 95.386719 90.203125 C 94.332031 90.203125 93.316406 89.921875 92.382812 89.445312 C 92.175781 89.339844 91.980469 89.21875 91.769531 89.128906 C 91.769531 89.128906 91.664062 89.078125 91.648438 89.078125 L 91.628906 89.078125 C 91.488281 89.023438 91.332031 88.988281 91.191406 88.9375 C 91.066406 88.902344 90.945312 88.882812 90.824219 88.867188 C 90.789062 88.867188 90.734375 88.867188 90.699219 88.867188 C 90.453125 88.867188 90.191406 88.867188 89.945312 88.867188 C 89.945312 88.867188 89.890625 88.867188 89.855469 88.867188 C 89.785156 88.867188 89.734375 88.882812 89.664062 88.902344 C 89.4375 88.953125 89.242188 89.023438 89.015625 89.09375 C 88.925781 89.148438 88.839844 89.183594 88.75 89.21875 C 88.558594 89.304688 88.382812 89.410156 88.226562 89.535156 C 88.191406 89.550781 88.171875 89.585938 88.136719 89.605469 C 88.085938 89.65625 88.03125 89.691406 87.980469 89.746094 C 87.820312 89.886719 87.699219 90.042969 87.558594 90.203125 C 87.488281 90.289062 87.433594 90.378906 87.363281 90.484375 C 87.328125 90.535156 87.03125 90.992188 87.066406 91.046875 C 87.066406 91.046875 87.171875 90.765625 87.121094 90.921875 C 87.121094 90.976562 87.085938 91.011719 87.066406 91.0625 C 87.03125 91.152344 86.996094 91.257812 86.980469 91.34375 C 86.945312 91.433594 86.925781 91.539062 86.910156 91.644531 C 86.910156 91.695312 86.890625 91.75 86.875 91.800781 C 86.875 92.207031 86.839844 92.664062 86.785156 93.066406 C 86.664062 94.105469 86.347656 95.125 85.734375 96.003906 C 84.539062 97.742188 82.644531 98.816406 80.519531 98.902344 C 79.554688 98.9375 78.609375 98.902344 77.640625 98.902344 L 76.484375 98.902344 C 75.394531 98.902344 74.324219 98.621094 73.359375 98.113281 C 71.238281 96.988281 70.007812 94.71875 69.972656 92.347656 C 69.972656 92.242188 69.972656 92.117188 69.972656 92.011719 C 69.902344 91.90625 69.886719 91.554688 69.851562 91.433594 C 69.832031 91.34375 69.796875 91.257812 69.761719 91.167969 L 69.761719 91.132812 C 69.65625 90.992188 69.585938 90.78125 69.515625 90.640625 C 69.445312 90.519531 69.375 90.414062 69.289062 90.289062 C 69.253906 90.253906 69.21875 90.203125 69.21875 90.183594 C 69.148438 90.113281 69.078125 90.027344 69.007812 89.957031 C 68.882812 89.832031 68.78125 89.726562 68.65625 89.621094 C 68.570312 89.570312 68.464844 89.480469 68.375 89.429688 C 68.234375 89.339844 68.078125 89.253906 67.917969 89.183594 C 67.917969 89.183594 67.867188 89.148438 67.8125 89.128906 C 67.761719 89.113281 67.691406 89.078125 67.65625 89.078125 C 67.480469 89.023438 67.289062 88.972656 67.113281 88.917969 C 67.042969 88.917969 66.988281 88.902344 66.917969 88.882812 C 66.902344 88.882812 66.867188 88.882812 66.847656 88.882812 C 66.671875 88.882812 66.496094 88.867188 66.324219 88.882812 C 66.21875 88.882812 66.113281 88.882812 66.007812 88.882812 C 65.832031 88.917969 65.65625 88.953125 65.460938 89.007812 C 65.375 89.042969 65.285156 89.058594 65.199219 89.09375 C 65.199219 89.09375 65.148438 89.09375 65.113281 89.128906 C 65.234375 89.058594 65.179688 89.09375 65.113281 89.128906 C 65.113281 89.128906 65.09375 89.128906 65.078125 89.128906 C 65.042969 89.128906 65.023438 89.148438 65.023438 89.148438 C 65.023438 89.148438 65.023438 89.148438 65.042969 89.148438 C 64.234375 89.550781 63.460938 89.972656 62.550781 90.113281 C 61.511719 90.273438 60.476562 90.253906 59.460938 89.921875 C 57.808594 89.394531 56.511719 88.269531 55.652344 86.773438 C 55.109375 85.839844 54.582031 84.910156 54.039062 83.976562 C 53.757812 83.484375 53.492188 82.992188 53.300781 82.449219 C 52.949219 81.445312 52.898438 80.375 53.054688 79.335938 C 53.335938 77.386719 54.5625 75.679688 56.214844 74.695312 Z M 57.300781 65.730469 C 57.300781 65.730469 57.300781 65.730469 57.320312 65.730469 C 57.265625 65.695312 57.214844 65.660156 57.300781 65.730469 Z M 56.792969 65.238281 C 56.792969 65.238281 56.757812 65.203125 56.738281 65.167969 C 56.757812 65.203125 56.773438 65.21875 56.792969 65.238281 Z M 58.652344 57.328125 C 58.652344 57.328125 58.636719 57.363281 58.617188 57.363281 C 58.496094 57.484375 58.617188 57.398438 58.652344 57.328125 Z M 60.003906 56.324219 L 60.128906 56.273438 C 60.128906 56.273438 60.039062 56.308594 60.003906 56.324219 Z M 60.882812 56.097656 C 60.882812 56.097656 60.96875 56.097656 61.003906 56.078125 C 60.96875 56.078125 60.917969 56.078125 60.882812 56.097656 Z M 69.992188 51.507812 C 69.992188 51.507812 69.992188 51.472656 69.992188 51.457031 C 69.992188 51.457031 69.992188 51.492188 69.992188 51.507812 Z M 82.46875 48.027344 L 82.554688 48.097656 C 82.554688 48.082031 82.519531 48.046875 82.46875 48.027344 Z M 83.871094 50.367188 L 83.871094 50.453125 C 83.871094 50.453125 83.871094 50.402344 83.871094 50.367188 Z M 90.839844 54.496094 L 90.875 54.496094 C 91.015625 54.496094 90.929688 54.496094 90.839844 54.496094 Z M 91.648438 54.304688 C 91.648438 54.304688 91.699219 54.304688 91.769531 54.25 C 91.71875 54.269531 91.648438 54.304688 91.648438 54.304688 Z M 100.140625 65.148438 C 100.140625 65.148438 100.089844 65.21875 100.089844 65.203125 C 100.089844 65.203125 100.125 65.167969 100.140625 65.148438 Z M 100.617188 78.984375 C 100.617188 78.984375 100.667969 79.144531 100.667969 79.125 C 100.667969 79.125 100.652344 79.054688 100.617188 78.984375 Z M 100.667969 81.746094 C 100.667969 81.746094 100.667969 81.78125 100.632812 81.816406 C 100.632812 81.78125 100.667969 81.761719 100.667969 81.746094 Z M 98.210938 86 C 98.210938 86 98.210938 86 98.210938 85.980469 C 98.175781 86.035156 98.140625 86.070312 98.210938 86 Z M 97.71875 86.507812 C 97.71875 86.507812 97.683594 86.542969 97.648438 86.5625 C 97.683594 86.542969 97.703125 86.527344 97.71875 86.507812 Z M 94.894531 87.300781 L 94.824219 87.300781 C 94.824219 87.300781 94.859375 87.300781 94.894531 87.300781 Z M 88.960938 89.21875 L 88.890625 89.253906 C 88.890625 89.253906 88.925781 89.253906 88.960938 89.21875 Z M 86.839844 91.960938 C 86.839844 92.011719 86.820312 92.066406 86.839844 91.960938 Z M 75.183594 95.792969 C 75.183594 95.792969 75.167969 95.792969 75.132812 95.792969 C 75.148438 95.792969 75.167969 95.792969 75.183594 95.792969 Z M 74.359375 95.335938 C 74.359375 95.335938 74.359375 95.335938 74.34375 95.335938 C 74.378906 95.371094 74.5 95.441406 74.359375 95.335938 Z M 72.992188 93.101562 C 72.992188 93.101562 72.992188 93.085938 72.992188 93.050781 C 72.992188 93.050781 72.992188 93.085938 72.992188 93.101562 Z M 72.992188 93.101562 "/>
<path style=" stroke:none;fill-rule:nonzero;fill:rgb(50.196078%,70.980392%,87.843137%);fill-opacity:1;" d="M 96.894531 56.359375 C 96.894531 56.359375 96.839844 56.34375 96.804688 56.324219 C 96.839844 56.324219 96.859375 56.34375 96.894531 56.359375 Z M 96.894531 56.359375 "/>
<path style=" stroke:none;fill-rule:nonzero;fill:rgb(100%,100%,100%);fill-opacity:1;" d="M 72.203125 64.304688 C 73.816406 62.988281 75.710938 62.214844 77.78125 62.039062 C 79.730469 61.878906 81.785156 62.390625 83.453125 63.410156 C 86.960938 65.554688 88.734375 69.703125 87.925781 73.730469 C 87.171875 77.507812 83.925781 80.671875 80.117188 81.269531 C 79.554688 81.359375 79.011719 81.410156 78.449219 81.410156 C 74.34375 81.394531 70.746094 78.792969 69.324219 74.960938 C 67.953125 71.25 69.148438 66.800781 72.203125 64.289062 Z M 71.746094 70.898438 C 71.746094 70.898438 71.746094 70.792969 71.746094 70.773438 C 71.746094 70.808594 71.746094 70.863281 71.746094 70.898438 Z M 83.765625 75.890625 C 83.695312 75.996094 83.695312 75.996094 83.765625 75.890625 Z M 77.605469 78.457031 C 77.5 78.457031 77.429688 78.441406 77.414062 78.441406 C 77.484375 78.457031 77.589844 78.476562 77.605469 78.457031 Z M 75.871094 78 C 75.871094 78 75.78125 77.964844 75.746094 77.949219 C 75.800781 77.984375 75.851562 78 75.871094 78 Z M 73.167969 75.980469 C 73.167969 75.980469 73.078125 75.855469 73.0625 75.839844 C 73.097656 75.890625 73.132812 75.945312 73.167969 75.980469 Z M 71.710938 72.039062 C 71.710938 72.253906 71.746094 72.445312 71.761719 72.65625 C 71.761719 72.746094 71.761719 72.761719 71.761719 72.726562 C 71.78125 72.832031 71.816406 72.9375 71.816406 72.972656 C 71.902344 73.429688 72.042969 73.871094 72.203125 74.308594 C 72.203125 74.34375 72.21875 74.363281 72.238281 74.398438 L 72.238281 74.433594 C 72.238281 74.398438 72.203125 74.363281 72.183594 74.308594 C 72.167969 74.363281 72.324219 74.609375 72.34375 74.660156 C 72.449219 74.855469 72.550781 75.066406 72.65625 75.257812 C 72.761719 75.417969 72.867188 75.574219 72.972656 75.75 C 72.972656 75.769531 73.007812 75.804688 73.027344 75.839844 C 73.027344 75.839844 73.042969 75.875 73.078125 75.910156 C 73.132812 75.960938 73.167969 75.996094 73.203125 76.050781 C 73.5 76.382812 73.816406 76.699219 74.167969 77 C 74.183594 77.015625 74.21875 77.050781 74.238281 77.050781 C 74.359375 77.140625 74.324219 77.140625 74.167969 77 C 74.21875 77.085938 74.394531 77.175781 74.484375 77.226562 C 74.675781 77.351562 74.851562 77.472656 75.0625 77.597656 C 75.238281 77.683594 75.394531 77.789062 75.570312 77.878906 C 75.570312 77.878906 75.640625 77.914062 75.695312 77.949219 C 75.695312 77.949219 75.730469 77.949219 75.765625 77.984375 C 75.816406 78 75.886719 78.035156 75.957031 78.054688 C 76.394531 78.210938 76.835938 78.335938 77.292969 78.421875 C 77.292969 78.421875 77.34375 78.421875 77.398438 78.441406 C 77.398438 78.441406 77.429688 78.441406 77.5 78.441406 L 77.695312 78.441406 C 77.941406 78.457031 78.1875 78.476562 78.433594 78.476562 C 78.644531 78.476562 78.851562 78.476562 79.046875 78.457031 C 79.152344 78.457031 79.238281 78.441406 79.34375 78.421875 C 79.765625 78.335938 80.1875 78.246094 80.589844 78.105469 C 80.730469 78.054688 81.046875 78.019531 81.152344 77.894531 C 81.097656 77.914062 81.03125 77.949219 80.976562 77.964844 C 81.03125 77.929688 81.097656 77.914062 81.152344 77.878906 C 81.238281 77.824219 81.328125 77.789062 81.414062 77.753906 C 81.765625 77.578125 82.101562 77.386719 82.414062 77.15625 C 82.46875 77.105469 82.609375 77.050781 82.644531 76.980469 C 82.589844 77.015625 82.554688 77.050781 82.503906 77.085938 C 82.554688 77.050781 82.609375 77 82.644531 76.964844 C 82.785156 76.839844 82.925781 76.71875 83.066406 76.578125 C 83.207031 76.4375 83.347656 76.296875 83.46875 76.15625 C 83.539062 76.085938 83.59375 76.015625 83.660156 75.925781 C 83.695312 75.890625 83.730469 75.855469 83.765625 75.804688 C 83.960938 75.523438 84.152344 75.242188 84.3125 74.941406 C 84.398438 74.765625 84.503906 74.609375 84.574219 74.433594 L 84.628906 74.34375 C 84.699219 74.203125 84.679688 74.222656 84.59375 74.433594 C 84.664062 74.363281 84.699219 74.152344 84.734375 74.0625 C 84.871094 73.695312 84.960938 73.308594 85.046875 72.921875 C 85.066406 72.832031 85.082031 72.726562 85.101562 72.621094 C 85.152344 72.339844 85.101562 72.710938 85.101562 72.710938 C 85.1875 72.605469 85.152344 72.148438 85.152344 71.988281 C 85.152344 71.566406 85.152344 71.160156 85.101562 70.757812 C 85.082031 70.667969 85.066406 70.5625 85.046875 70.457031 C 84.996094 70.230469 84.941406 70 84.890625 69.773438 C 84.835938 69.578125 84.769531 69.402344 84.699219 69.210938 C 84.699219 69.15625 84.664062 69.121094 84.644531 69.070312 C 84.644531 69.070312 84.644531 69.035156 84.628906 69.015625 C 84.433594 68.648438 84.257812 68.261719 84.011719 67.910156 C 83.925781 67.785156 83.800781 67.523438 83.679688 67.433594 C 83.714844 67.488281 83.75 67.523438 83.785156 67.574219 C 83.75 67.523438 83.695312 67.46875 83.660156 67.433594 C 83.609375 67.363281 83.539062 67.292969 83.46875 67.207031 C 83.207031 66.925781 82.925781 66.644531 82.644531 66.398438 C 82.625 66.378906 82.589844 66.34375 82.574219 66.34375 C 82.449219 66.257812 82.484375 66.257812 82.644531 66.398438 C 82.609375 66.34375 82.46875 66.273438 82.414062 66.222656 C 82.257812 66.117188 82.101562 65.992188 81.925781 65.90625 C 81.765625 65.800781 81.589844 65.710938 81.414062 65.625 C 81.328125 65.570312 81.238281 65.535156 81.152344 65.5 C 81.117188 65.5 81.082031 65.464844 81.046875 65.449219 C 80.714844 65.324219 80.363281 65.203125 80.011719 65.113281 C 79.820312 65.0625 79.625 65.027344 79.433594 64.992188 C 79.398438 64.992188 79.363281 64.992188 79.34375 64.992188 C 79.1875 64.972656 79.203125 64.972656 79.433594 64.992188 C 79.363281 64.9375 79.117188 64.957031 79.027344 64.957031 C 78.609375 64.921875 78.203125 64.921875 77.800781 64.957031 C 77.695312 64.957031 77.605469 64.972656 77.5 64.992188 C 77.292969 65.027344 77.082031 65.078125 76.871094 65.132812 C 76.5 65.21875 76.167969 65.34375 75.816406 65.464844 C 75.816406 65.464844 75.800781 65.464844 75.78125 65.464844 C 75.695312 65.519531 75.605469 65.554688 75.519531 65.589844 C 75.324219 65.695312 75.113281 65.800781 74.921875 65.90625 C 74.765625 66.011719 74.605469 66.117188 74.429688 66.222656 C 74.378906 66.273438 74.238281 66.328125 74.203125 66.398438 C 74.253906 66.363281 74.289062 66.328125 74.34375 66.292969 C 74.289062 66.328125 74.238281 66.378906 74.203125 66.414062 C 73.902344 66.660156 73.625 66.925781 73.378906 67.222656 C 73.308594 67.292969 73.253906 67.363281 73.183594 67.453125 C 73.167969 67.46875 73.132812 67.503906 73.132812 67.523438 C 73.042969 67.644531 73.042969 67.609375 73.183594 67.453125 C 73.042969 67.539062 72.9375 67.804688 72.851562 67.925781 C 72.621094 68.277344 72.429688 68.648438 72.238281 69.035156 C 72.238281 69.050781 72.238281 69.070312 72.21875 69.085938 C 72.203125 69.140625 72.183594 69.175781 72.167969 69.226562 C 72.097656 69.421875 72.027344 69.597656 71.972656 69.789062 C 71.921875 69.984375 71.867188 70.175781 71.832031 70.371094 C 71.816406 70.457031 71.796875 70.5625 71.78125 70.667969 C 71.78125 70.667969 71.78125 70.667969 71.78125 70.6875 C 71.78125 70.6875 71.78125 70.738281 71.78125 70.773438 C 71.746094 71.195312 71.726562 71.601562 71.726562 72.003906 Z M 71.710938 72.039062 "/>
<path style=" stroke:none;fill-rule:nonzero;fill:rgb(50.196078%,70.980392%,87.843137%);fill-opacity:1;" d="M 52.265625 50.382812 C 52.265625 50.382812 52.246094 50.402344 52.230469 50.402344 C 52.230469 50.402344 52.230469 50.402344 52.246094 50.402344 Z M 52.265625 50.382812 "/>
<path style=" stroke:none;fill-rule:nonzero;fill:rgb(50.196078%,70.980392%,87.843137%);fill-opacity:1;" d="M 45.191406 31.960938 C 45.191406 31.960938 45.191406 31.855469 45.261719 31.800781 C 45.246094 31.835938 45.210938 31.890625 45.191406 31.941406 Z M 45.191406 31.960938 "/>
<path style=" stroke:none;fill-rule:nonzero;fill:rgb(50.196078%,70.980392%,87.843137%);fill-opacity:1;" d="M 53.019531 50.171875 C 53.019531 50.171875 53.105469 50.191406 53.140625 50.207031 C 53.140625 50.207031 53.105469 50.207031 53.019531 50.171875 Z M 53.019531 50.171875 "/>
<path style=" stroke:none;fill-rule:nonzero;fill:rgb(23.137255%,52.941176%,100%);fill-opacity:1;" d="M 50.316406 38.746094 C 50.367188 38.710938 50.402344 38.691406 50.4375 38.65625 C 50.4375 38.65625 50.4375 38.640625 50.472656 38.621094 C 50.507812 38.585938 50.542969 38.550781 50.578125 38.515625 C 50.597656 38.480469 50.632812 38.464844 50.632812 38.445312 C 50.632812 38.445312 50.632812 38.410156 50.648438 38.394531 C 50.648438 38.394531 50.667969 38.394531 50.683594 38.339844 C 50.683594 38.324219 50.683594 38.289062 50.703125 38.269531 C 50.703125 38.269531 50.703125 38.253906 50.71875 38.253906 C 50.71875 38.253906 50.71875 38.253906 50.703125 38.253906 C 50.703125 38.253906 50.703125 38.253906 50.703125 38.234375 C 50.703125 38.183594 50.71875 38.113281 50.738281 38.058594 C 50.738281 38.058594 50.738281 38.058594 50.738281 38.042969 C 50.738281 37.972656 50.738281 37.882812 50.738281 37.8125 C 50.738281 37.761719 50.703125 37.691406 50.683594 37.636719 C 50.683594 37.636719 50.683594 37.636719 50.683594 37.621094 C 50.648438 37.566406 50.613281 37.515625 50.578125 37.445312 C 50.542969 37.410156 50.472656 37.355469 50.4375 37.304688 C 50.402344 37.285156 50.367188 37.25 50.351562 37.25 C 49.5625 36.757812 48.929688 36.039062 48.738281 35.089844 C 48.542969 34.226562 48.703125 33.382812 49.121094 32.609375 C 49.683594 31.625 50.210938 30.464844 51.300781 29.972656 C 52.28125 29.53125 53.316406 29.53125 54.28125 29.992188 C 54.351562 30.027344 54.421875 30.0625 54.492188 30.097656 C 54.492188 30.097656 54.492188 30.097656 54.511719 30.097656 C 54.546875 30.097656 54.582031 30.113281 54.617188 30.132812 C 54.652344 30.132812 54.703125 30.148438 54.757812 30.167969 C 54.808594 30.167969 54.898438 30.167969 54.949219 30.167969 C 54.878906 30.167969 54.828125 30.21875 54.949219 30.183594 C 54.96875 30.183594 55.003906 30.183594 55.019531 30.183594 L 55.039062 30.183594 C 55.039062 30.183594 55.054688 30.183594 55.074219 30.183594 C 55.144531 30.183594 55.195312 30.148438 55.265625 30.132812 C 55.265625 30.132812 55.28125 30.132812 55.300781 30.132812 C 55.335938 30.113281 55.371094 30.097656 55.40625 30.0625 C 55.40625 30.0625 55.40625 30.0625 55.421875 30.0625 C 55.421875 30.0625 55.441406 30.0625 55.457031 30.042969 C 55.476562 30.007812 55.511719 29.992188 55.546875 29.957031 C 55.546875 29.957031 55.582031 29.921875 55.597656 29.902344 C 55.632812 29.847656 55.652344 29.816406 55.6875 29.761719 C 55.652344 29.816406 55.703125 29.726562 55.722656 29.671875 C 55.722656 29.621094 55.757812 29.570312 55.757812 29.515625 C 55.757812 29.480469 55.757812 29.425781 55.757812 29.410156 C 55.757812 29.128906 55.792969 28.847656 55.863281 28.566406 C 56.074219 27.667969 56.722656 26.824219 57.546875 26.402344 C 58.511719 25.910156 59.636719 26 60.6875 26.015625 C 61.847656 26.035156 62.898438 26.613281 63.53125 27.617188 C 63.847656 28.109375 63.988281 28.671875 64.023438 29.25 C 64.023438 29.320312 64.023438 29.410156 64.023438 29.496094 C 64.023438 29.515625 64.023438 29.550781 64.023438 29.550781 C 64.023438 29.601562 64.058594 29.65625 64.074219 29.710938 C 64.074219 29.746094 64.109375 29.78125 64.109375 29.796875 C 64.128906 29.832031 64.285156 30.097656 64.179688 29.921875 C 64.09375 29.761719 64.214844 29.9375 64.25 29.992188 C 64.269531 30.007812 64.320312 30.0625 64.355469 30.078125 C 64.390625 30.113281 64.445312 30.132812 64.460938 30.148438 C 64.496094 30.167969 64.726562 30.308594 64.550781 30.203125 C 64.390625 30.113281 64.585938 30.203125 64.636719 30.21875 C 64.636719 30.21875 64.65625 30.21875 64.671875 30.21875 L 64.636719 30.21875 C 64.636719 30.21875 64.671875 30.21875 64.691406 30.21875 C 64.707031 30.21875 64.726562 30.21875 64.742188 30.21875 C 64.796875 30.21875 64.8125 30.21875 64.8125 30.21875 C 64.847656 30.21875 64.867188 30.21875 64.882812 30.21875 C 64.882812 30.21875 64.902344 30.21875 64.917969 30.21875 C 64.953125 30.21875 65.039062 30.203125 65.074219 30.183594 C 65.074219 30.183594 65.109375 30.183594 65.128906 30.183594 C 65.164062 30.148438 65.269531 30.113281 65.304688 30.097656 C 65.777344 29.847656 66.269531 29.710938 66.796875 29.671875 C 67.726562 29.621094 68.710938 30.027344 69.339844 30.695312 C 69.710938 31.097656 69.957031 31.574219 70.21875 32.03125 C 70.480469 32.488281 70.78125 32.945312 70.921875 33.453125 C 71.183594 34.351562 71.027344 35.40625 70.5 36.179688 C 70.199219 36.617188 69.832031 36.953125 69.375 37.234375 C 69.339844 37.269531 69.289062 37.285156 69.253906 37.320312 C 69.253906 37.320312 69.21875 37.339844 69.21875 37.355469 C 69.183594 37.390625 69.148438 37.425781 69.113281 37.480469 C 69.09375 37.515625 69.058594 37.53125 69.058594 37.566406 C 69.058594 37.566406 69.023438 37.621094 69.023438 37.65625 C 69.023438 37.691406 69.007812 37.726562 68.988281 37.742188 C 68.988281 37.796875 68.972656 37.867188 68.953125 37.917969 C 68.953125 37.917969 68.953125 37.953125 68.953125 37.972656 C 68.953125 38.023438 68.953125 38.09375 68.953125 38.164062 C 68.953125 38.234375 68.988281 38.289062 69.007812 38.359375 C 69.007812 38.359375 69.007812 38.359375 69.007812 38.375 C 69.042969 38.429688 69.078125 38.480469 69.09375 38.535156 C 69.09375 38.535156 69.113281 38.570312 69.128906 38.570312 C 69.128906 38.570312 69.21875 38.65625 69.269531 38.691406 C 69.289062 38.691406 69.304688 38.726562 69.339844 38.726562 C 69.746094 38.972656 70.058594 39.253906 70.359375 39.625 C 70.972656 40.433594 71.183594 41.488281 70.9375 42.453125 C 70.816406 42.980469 70.5 43.4375 70.234375 43.914062 C 69.972656 44.371094 69.746094 44.808594 69.410156 45.214844 C 68.796875 45.933594 67.8125 46.355469 66.867188 46.339844 C 66.339844 46.339844 65.847656 46.199219 65.375 45.953125 C 65.320312 45.933594 65.25 45.898438 65.199219 45.863281 C 65.199219 45.863281 65.199219 45.863281 65.179688 45.863281 C 65.144531 45.863281 65.109375 45.847656 65.074219 45.828125 C 65.074219 45.828125 65.039062 45.828125 65.023438 45.828125 C 65.023438 45.828125 64.988281 45.792969 64.917969 45.792969 L 64.777344 45.792969 C 64.777344 45.792969 64.707031 45.792969 64.671875 45.792969 C 64.65625 45.792969 64.636719 45.792969 64.621094 45.792969 C 64.601562 45.792969 64.515625 45.828125 64.445312 45.863281 C 64.425781 45.863281 64.390625 45.882812 64.375 45.898438 C 64.339844 45.917969 64.304688 45.933594 64.285156 45.953125 C 64.285156 45.933594 64.304688 45.917969 64.269531 45.953125 C 64.25 45.988281 64.214844 46.003906 64.179688 46.039062 C 64.179688 46.039062 64.164062 46.058594 64.144531 46.074219 C 64.109375 46.128906 64.074219 46.199219 64.039062 46.25 C 64.039062 46.269531 64.023438 46.285156 64.023438 46.304688 C 64.003906 46.375 63.988281 46.460938 63.96875 46.53125 C 63.96875 46.550781 63.96875 46.585938 63.96875 46.601562 C 63.96875 46.867188 63.933594 47.128906 63.863281 47.394531 C 63.742188 47.902344 63.480469 48.359375 63.144531 48.78125 C 62.550781 49.519531 61.582031 49.925781 60.636719 49.941406 C 60.25 49.941406 59.847656 49.941406 59.460938 49.941406 C 58.722656 49.941406 58.003906 49.871094 57.355469 49.484375 C 56.355469 48.886719 55.757812 47.816406 55.722656 46.671875 C 55.722656 46.601562 55.722656 46.550781 55.722656 46.480469 C 55.722656 46.460938 55.722656 46.425781 55.722656 46.425781 C 55.722656 46.410156 55.667969 46.285156 55.652344 46.214844 C 55.652344 46.199219 55.632812 46.179688 55.617188 46.164062 C 55.617188 46.164062 55.617188 46.128906 55.582031 46.109375 C 55.617188 46.179688 55.511719 46.023438 55.457031 45.96875 C 55.40625 45.953125 55.300781 45.863281 55.265625 45.847656 C 55.265625 45.847656 55.195312 45.8125 55.160156 45.792969 C 55.335938 45.898438 55.089844 45.792969 55.039062 45.757812 C 54.96875 45.757812 54.878906 45.757812 54.828125 45.757812 C 54.828125 45.757812 54.828125 45.757812 54.808594 45.757812 C 54.773438 45.777344 54.617188 45.792969 54.597656 45.8125 C 54.5625 45.847656 54.421875 45.898438 54.386719 45.917969 C 52.71875 46.777344 50.773438 46.164062 49.859375 44.546875 C 49.632812 44.160156 49.402344 43.773438 49.175781 43.367188 C 48.738281 42.613281 48.597656 41.804688 48.753906 40.941406 C 48.894531 40.027344 49.527344 39.238281 50.316406 38.746094 Z M 50.492188 37.339844 C 50.492188 37.339844 50.527344 37.375 50.527344 37.355469 C 50.527344 37.355469 50.527344 37.355469 50.492188 37.339844 Z M 51.28125 41.101562 C 51.28125 41.101562 51.300781 41.066406 51.316406 41.046875 C 51.316406 41.046875 51.300781 41.066406 51.28125 41.101562 Z M 51.421875 40.941406 C 51.421875 40.941406 51.476562 40.90625 51.527344 40.871094 C 51.492188 40.871094 51.457031 40.90625 51.421875 40.941406 Z M 51.195312 34.789062 C 51.195312 34.789062 51.175781 34.738281 51.160156 34.71875 C 51.160156 34.753906 51.175781 34.789062 51.195312 34.789062 Z M 52.421875 32.152344 C 52.421875 32.152344 52.441406 32.152344 52.457031 32.152344 C 52.457031 32.152344 52.441406 32.152344 52.421875 32.152344 Z M 53.070312 32.152344 C 53.070312 32.152344 53.125 32.171875 53.160156 32.1875 C 53.160156 32.1875 53.105469 32.152344 53.070312 32.152344 Z M 55.179688 30.167969 C 55.179688 30.167969 55.179688 30.167969 55.214844 30.148438 C 55.195312 30.148438 55.179688 30.148438 55.179688 30.167969 Z M 55.582031 29.847656 L 55.597656 29.832031 C 55.597656 29.832031 55.597656 29.832031 55.582031 29.847656 Z M 58.144531 29.304688 C 58.144531 29.304688 58.144531 29.21875 58.160156 29.179688 C 58.160156 29.234375 58.125 29.285156 58.144531 29.304688 Z M 58.179688 29.039062 C 58.179688 29.039062 58.195312 28.988281 58.214844 28.96875 C 58.195312 29.003906 58.179688 29.039062 58.179688 29.039062 Z M 58.496094 28.617188 C 58.496094 28.617188 58.511719 28.617188 58.53125 28.601562 C 58.53125 28.601562 58.53125 28.601562 58.496094 28.617188 Z M 58.6875 28.496094 C 58.6875 28.496094 58.722656 28.496094 58.742188 28.476562 C 58.742188 28.476562 58.707031 28.476562 58.6875 28.496094 Z M 58.914062 28.441406 C 58.914062 28.441406 58.96875 28.441406 59.019531 28.441406 C 59.019531 28.441406 58.96875 28.441406 58.914062 28.441406 Z M 60.953125 28.511719 C 60.953125 28.511719 60.988281 28.511719 61.003906 28.53125 C 60.988281 28.53125 60.96875 28.511719 60.953125 28.511719 Z M 61.164062 28.617188 C 61.164062 28.617188 61.179688 28.636719 61.199219 28.652344 C 61.199219 28.652344 61.179688 28.636719 61.164062 28.617188 Z M 65.144531 30.167969 C 65.144531 30.167969 65.179688 30.167969 65.199219 30.167969 C 65.375 30.113281 65.199219 30.167969 65.144531 30.167969 Z M 67.359375 32.222656 C 67.359375 32.222656 67.445312 32.277344 67.480469 32.3125 C 67.445312 32.257812 67.394531 32.222656 67.359375 32.222656 Z M 67.566406 32.398438 C 67.566406 32.398438 67.601562 32.453125 67.636719 32.46875 C 67.601562 32.433594 67.585938 32.398438 67.566406 32.398438 Z M 68.480469 33.945312 C 68.480469 33.945312 68.515625 34.015625 68.535156 34.050781 C 68.535156 34 68.5 33.945312 68.480469 33.945312 Z M 67.234375 43.824219 C 67.234375 43.824219 67.21875 43.824219 67.199219 43.824219 C 67.199219 43.824219 67.21875 43.824219 67.234375 43.824219 Z M 64.410156 45.828125 L 64.375 45.828125 C 64.375 45.828125 64.390625 45.828125 64.410156 45.828125 Z M 61.128906 47.339844 C 61.128906 47.339844 61.109375 47.339844 61.09375 47.359375 C 61.09375 47.359375 61.09375 47.359375 61.128906 47.339844 Z M 60.933594 47.464844 C 60.933594 47.464844 60.898438 47.464844 60.882812 47.480469 C 60.882812 47.480469 60.917969 47.480469 60.933594 47.464844 Z M 60.777344 47.5 C 60.777344 47.5 60.722656 47.5 60.707031 47.5 C 60.742188 47.5 60.757812 47.5 60.777344 47.5 Z M 55.125 45.757812 C 55.125 45.757812 55.125 45.757812 55.109375 45.757812 C 55.109375 45.757812 55.109375 45.757812 55.125 45.757812 Z M 54.773438 45.742188 C 54.773438 45.742188 54.722656 45.742188 54.703125 45.742188 C 54.527344 45.742188 54.703125 45.742188 54.773438 45.742188 Z M 52.351562 43.789062 C 52.351562 43.789062 52.316406 43.773438 52.28125 43.753906 C 52.28125 43.753906 52.316406 43.773438 52.351562 43.789062 Z M 52.265625 43.753906 C 52.265625 43.753906 52.175781 43.703125 52.140625 43.667969 C 52.175781 43.71875 52.230469 43.753906 52.265625 43.753906 Z M 52.054688 43.578125 C 52.054688 43.578125 52 43.527344 51.984375 43.492188 C 52.019531 43.542969 52.035156 43.578125 52.054688 43.578125 Z M 51.140625 42.03125 C 51.140625 42.03125 51.105469 41.960938 51.089844 41.925781 C 51.089844 41.980469 51.125 42.03125 51.140625 42.03125 Z M 68.429688 41.171875 C 68.429688 41.171875 68.445312 41.222656 68.464844 41.242188 C 68.464844 41.207031 68.445312 41.171875 68.429688 41.171875 Z M 68.359375 34.878906 C 68.359375 34.878906 68.339844 34.894531 68.324219 34.914062 C 68.324219 34.914062 68.339844 34.914062 68.359375 34.878906 Z M 68.359375 41.066406 C 68.359375 41.066406 68.394531 41.117188 68.429688 41.152344 C 68.429688 41.136719 68.394531 41.101562 68.359375 41.066406 Z M 68.234375 40.941406 C 68.234375 40.941406 68.234375 40.941406 68.253906 40.941406 C 68.253906 40.941406 68.253906 40.941406 68.234375 40.941406 Z M 68.234375 35.019531 C 68.234375 35.019531 68.183594 35.054688 68.128906 35.089844 C 68.164062 35.089844 68.199219 35.054688 68.234375 35.019531 Z M 68.234375 35.019531 "/>
<path style=" stroke:none;fill-rule:nonzero;fill:rgb(50.196078%,70.980392%,87.843137%);fill-opacity:1;" d="M 55.40625 30.042969 C 55.40625 30.042969 55.425781 30.007812 55.441406 30.007812 C 55.441406 30.007812 55.441406 30.007812 55.425781 30.027344 C 55.425781 30.027344 55.425781 30.027344 55.40625 30.027344 Z M 55.40625 30.042969 "/>
<path style=" stroke:none;fill-rule:nonzero;fill:rgb(50.196078%,70.980392%,87.843137%);fill-opacity:1;" d="M 59.074219 35.929688 C 59.054688 35.929688 59.019531 35.949219 58.984375 35.96875 C 59.003906 35.96875 59.039062 35.949219 59.054688 35.929688 Z M 59.074219 35.929688 "/>
<path style=" stroke:none;fill-rule:nonzero;fill:rgb(50.196078%,70.980392%,87.843137%);fill-opacity:1;" d="M 61.144531 39.800781 C 61.164062 39.800781 61.179688 39.765625 61.199219 39.746094 C 61.179688 39.746094 61.164062 39.785156 61.144531 39.800781 Z M 61.144531 39.800781 "/>
<path style=" stroke:none;fill-rule:nonzero;fill:rgb(50.196078%,70.980392%,87.843137%);fill-opacity:1;" d="M 57.828125 38.851562 C 57.828125 38.851562 57.792969 38.78125 57.792969 38.765625 C 57.792969 38.800781 57.828125 38.835938 57.828125 38.851562 Z M 57.828125 38.851562 "/>
<path style=" stroke:none;fill-rule:nonzero;fill:rgb(100%,100%,100%);fill-opacity:1;" d="M 56.84375 34.457031 C 58.371094 33.207031 60.53125 32.960938 62.25 33.980469 C 63.953125 35.019531 64.777344 36.988281 64.425781 38.941406 C 64.023438 41.085938 62.023438 42.613281 59.882812 42.632812 C 57.898438 42.613281 56.195312 41.367188 55.492188 39.519531 C 54.84375 37.78125 55.421875 35.617188 56.84375 34.4375 Z M 62.039062 37.65625 C 62.039062 37.65625 62.039062 37.761719 62.058594 37.796875 C 62.058594 37.710938 62.058594 37.65625 62.039062 37.65625 Z M 59.019531 40.046875 C 59.019531 40.046875 58.984375 40.03125 58.984375 40.011719 C 58.984375 40.011719 58.984375 40.011719 59.019531 40.046875 Z M 58.582031 39.785156 C 58.582031 39.785156 58.53125 39.75 58.496094 39.730469 C 58.496094 39.730469 58.53125 39.765625 58.582031 39.785156 Z M 57.667969 37.816406 C 57.667969 37.816406 57.6875 37.710938 57.6875 37.65625 C 57.6875 37.710938 57.6875 37.761719 57.6875 37.816406 C 57.6875 37.902344 57.6875 37.992188 57.6875 38.078125 C 57.6875 38.148438 57.6875 38.21875 57.6875 38.273438 C 57.6875 38.289062 57.6875 38.308594 57.6875 38.324219 C 57.6875 38.378906 57.792969 38.886719 57.84375 38.871094 C 57.84375 38.871094 57.84375 38.835938 57.828125 38.816406 C 57.828125 38.816406 57.828125 38.851562 57.84375 38.871094 C 57.878906 38.941406 57.914062 39.011719 57.96875 39.082031 C 58.003906 39.152344 58.054688 39.222656 58.089844 39.292969 C 58.089844 39.292969 58.089844 39.308594 58.109375 39.308594 C 58.109375 39.308594 58.125 39.34375 58.144531 39.34375 C 58.25 39.46875 58.355469 39.574219 58.476562 39.679688 C 58.496094 39.695312 58.511719 39.714844 58.546875 39.730469 C 58.566406 39.730469 58.582031 39.75 58.582031 39.765625 C 58.652344 39.800781 58.742188 39.855469 58.742188 39.855469 C 58.808594 39.890625 58.878906 39.941406 58.949219 39.976562 C 59.003906 40.011719 59.039062 40.03125 59.054688 40.03125 C 59.214844 40.082031 59.460938 40.136719 59.496094 40.136719 C 59.511719 40.136719 59.8125 40.136719 59.847656 40.136719 C 59.847656 40.136719 60.023438 40.136719 60.109375 40.136719 C 60.265625 40.101562 60.425781 40.066406 60.582031 40.011719 C 60.582031 40.011719 60.636719 40.011719 60.6875 39.976562 C 60.652344 39.976562 60.617188 40.011719 60.601562 40.011719 C 60.636719 40.011719 60.671875 39.996094 60.6875 39.976562 C 60.722656 39.976562 60.742188 39.960938 60.742188 39.960938 C 60.742188 39.960938 60.707031 39.960938 60.6875 39.976562 C 60.6875 39.976562 60.722656 39.976562 60.742188 39.960938 C 60.777344 39.960938 60.988281 39.835938 61.109375 39.75 C 61.179688 39.714844 61.214844 39.679688 61.214844 39.660156 C 61.214844 39.660156 61.179688 39.679688 61.164062 39.695312 C 61.164062 39.695312 61.199219 39.660156 61.214844 39.660156 C 61.25 39.625 61.300781 39.589844 61.335938 39.554688 C 61.390625 39.503906 61.671875 39.273438 61.652344 39.203125 C 61.617188 39.238281 61.582031 39.292969 61.546875 39.328125 C 61.582031 39.292969 61.617188 39.238281 61.636719 39.203125 C 61.671875 39.132812 61.722656 39.0625 61.757812 38.992188 C 61.777344 38.941406 61.8125 38.90625 61.828125 38.851562 C 61.828125 38.851562 61.828125 38.851562 61.828125 38.835938 C 61.828125 38.835938 61.828125 38.800781 61.847656 38.78125 C 61.882812 38.625 61.953125 38.464844 61.96875 38.308594 C 61.96875 38.289062 61.96875 38.253906 61.96875 38.21875 C 61.96875 38.238281 61.96875 38.273438 61.96875 38.308594 C 61.96875 38.253906 61.96875 38.203125 61.96875 38.148438 C 61.96875 38.113281 61.96875 37.921875 61.96875 37.78125 C 61.96875 37.726562 61.96875 37.671875 61.933594 37.621094 C 61.917969 37.53125 61.898438 37.425781 61.863281 37.339844 C 61.847656 37.269531 61.828125 37.21875 61.792969 37.144531 C 61.722656 37.003906 61.652344 36.863281 61.566406 36.742188 C 61.566406 36.722656 61.53125 36.707031 61.53125 36.671875 C 61.53125 36.671875 61.53125 36.652344 61.511719 36.636719 C 61.511719 36.636719 61.496094 36.601562 61.476562 36.601562 C 61.355469 36.460938 61.234375 36.335938 61.09375 36.230469 C 61.09375 36.230469 61.09375 36.230469 61.074219 36.230469 C 61.039062 36.214844 60.988281 36.160156 60.933594 36.144531 C 60.882812 36.109375 60.566406 35.898438 60.511719 35.914062 C 60.566406 35.933594 60.617188 35.949219 60.652344 35.984375 C 60.601562 35.96875 60.546875 35.949219 60.496094 35.933594 C 60.40625 35.914062 60.335938 35.878906 60.265625 35.863281 C 60.214844 35.863281 60.160156 35.84375 60.109375 35.828125 C 60.109375 35.828125 60.074219 35.828125 60.054688 35.828125 C 60.054688 35.828125 60.023438 35.828125 60.003906 35.828125 L 59.496094 35.828125 C 59.441406 35.828125 59.390625 35.84375 59.335938 35.863281 C 59.300781 35.863281 59.125 35.914062 59.003906 35.949219 C 59.003906 35.949219 59.003906 35.949219 58.984375 35.949219 C 58.914062 35.96875 58.863281 35.984375 58.863281 36.003906 C 58.863281 36.003906 58.898438 36.003906 58.914062 35.984375 C 58.914062 35.984375 58.878906 35.984375 58.863281 36.003906 C 58.777344 36.039062 58.707031 36.089844 58.617188 36.144531 C 58.566406 36.179688 58.511719 36.214844 58.460938 36.25 C 58.460938 36.25 58.460938 36.25 58.441406 36.25 C 58.335938 36.355469 58.214844 36.460938 58.109375 36.566406 C 58.074219 36.601562 58.039062 36.636719 58.019531 36.671875 C 57.914062 36.828125 57.828125 36.988281 57.738281 37.144531 C 57.738281 37.199219 57.703125 37.25 57.6875 37.304688 C 57.667969 37.375 57.53125 37.746094 57.582031 37.78125 Z M 57.667969 37.816406 "/>
<path style=" stroke:none;fill-rule:nonzero;fill:rgb(62.352941%,64.313725%,100%);fill-opacity:1;" d="M 87.15625 167.941406 L 90.558594 157.761719 L 58.722656 165.339844 C 56.84375 165.8125 53.914062 166.429688 51.542969 166.550781 L 47.226562 166.550781 C 47.296875 160.433594 47.261719 151.328125 47.246094 146.121094 C 47.210938 134.203125 47.015625 122.320312 46.632812 110.453125 C 50 108.925781 63.058594 101.226562 68.164062 98.957031 C 73.519531 96.582031 78.941406 94.4375 84.433594 92.558594 C 90.015625 90.640625 95.683594 88.953125 101.351562 87.617188 C 106.792969 86.351562 112.199219 85.84375 117.394531 86.792969 C 133.785156 89.796875 143.894531 105.671875 160.863281 106.304688 C 171.535156 106.710938 178.378906 100.292969 188.136719 96.792969 C 192.527344 95.210938 197.035156 94.703125 201.40625 95 C 210.21875 95.597656 218.042969 99.203125 225.449219 102.824219 C 232.945312 106.496094 273.539062 128.578125 279.488281 133.359375 C 272.328125 141.429688 226.554688 168.855469 226.273438 169.222656 C 225.746094 168.925781 210.832031 158.851562 201.984375 152.945312 C 198.722656 150.765625 194.261719 152.152344 192.808594 155.792969 L 192.5625 156.40625 C 190.105469 162.507812 184.226562 186.871094 177.660156 186.871094 L 91.804688 176.605469 C 86.136719 174.953125 86.222656 170.839844 87.15625 167.921875 Z M 87.15625 167.941406 "/>
<path style=" stroke:none;fill-rule:nonzero;fill:rgb(12.156863%,13.72549%,23.529412%);fill-opacity:1;" d="M 64.65625 163.949219 C 65.058594 153.699219 64.65625 143.414062 63.496094 133.21875 C 63.164062 130.335938 62.757812 127.453125 62.320312 124.570312 C 62.199219 123.796875 61.023438 124.132812 61.144531 124.902344 C 62.722656 134.941406 63.550781 145.085938 63.601562 155.246094 C 63.601562 158.148438 63.566406 161.046875 63.445312 163.949219 C 63.410156 164.738281 64.636719 164.738281 64.671875 163.949219 Z M 64.65625 163.949219 "/>
<path style=" stroke:none;fill-rule:nonzero;fill:rgb(12.156863%,13.72549%,23.529412%);fill-opacity:1;" d="M 249.265625 116.570312 C 241.753906 118.644531 234.539062 121.863281 228.207031 126.433594 C 222.097656 130.84375 216.921875 136.382812 212.640625 142.570312 C 210.039062 146.332031 207.761719 150.304688 205.707031 154.402344 C 205.355469 155.105469 206.40625 155.71875 206.757812 155.015625 C 210.234375 148.074219 214.394531 141.429688 219.660156 135.679688 C 224.625 130.265625 230.488281 125.800781 237.050781 122.492188 C 241.054688 120.488281 245.265625 118.941406 249.582031 117.746094 C 250.335938 117.535156 250.019531 116.359375 249.25 116.570312 Z M 249.265625 116.570312 "/>
<path style=" stroke:none;fill-rule:nonzero;fill:rgb(62.352941%,64.313725%,100%);fill-opacity:1;" d="M 140.101562 166.425781 L 108.6875 166.425781 C 122.007812 147.230469 142.226562 124.746094 158.757812 108.238281 C 160.074219 106.921875 161.867188 107.464844 161.25 109.027344 C 161.355469 109.027344 161.480469 109.027344 161.585938 109.027344 C 163.585938 109.292969 165.5 108.78125 167.480469 107.800781 C 169.480469 106.8125 171.464844 105.796875 173.570312 106.007812 C 173.695312 106.007812 173.800781 106.039062 173.90625 106.074219 C 175.0625 105.265625 176.449219 106.636719 175.398438 107.9375 C 172.148438 111.894531 169.167969 116.097656 166.289062 120.28125 C 163.410156 124.464844 160.691406 128.734375 158.09375 133.042969 C 152.84375 141.761719 148.125 150.710938 143.578125 159.710938 C 142.597656 161.644531 141.085938 164.492188 140.121094 166.425781 Z M 140.101562 166.425781 "/>
<path style=" stroke:none;fill-rule:nonzero;fill:rgb(96.862745%,46.666667%,21.568627%);fill-opacity:1;" d="M 174.46875 90.726562 L 177.082031 102.136719 C 177.082031 102.136719 173.097656 111.894531 164.761719 111.351562 C 153.863281 110.628906 152.546875 104.738281 152.546875 104.738281 L 159.355469 95.105469 Z M 174.46875 90.726562 "/>
<path style=" stroke:none;fill-rule:nonzero;fill:rgb(12.156863%,13.72549%,23.529412%);fill-opacity:1;" d="M 171.167969 57.835938 C 167.550781 54.972656 162.953125 53.089844 158.285156 53.582031 C 154.019531 54.023438 149.703125 56.976562 149.195312 61.511719 C 148.757812 65.5 152.144531 69.035156 155.863281 69.824219 C 160.109375 70.738281 164.742188 68.839844 167.921875 66.046875 C 169.449219 64.710938 170.765625 62.777344 170.851562 60.71875 C 171.871094 60.261719 172.324219 58.75 171.167969 57.835938 Z M 171.167969 57.835938 "/>
<path style=" stroke:none;fill-rule:nonzero;fill:rgb(96.862745%,46.666667%,21.568627%);fill-opacity:1;" d="M 186.875 67.117188 C 186.785156 66.363281 186.644531 65.625 186.4375 64.902344 C 183.855469 56.429688 173.324219 54.445312 165.847656 56.519531 C 160.828125 57.90625 157.195312 61.597656 155.300781 66.378906 C 153.933594 69.824219 153.738281 72.832031 153.316406 75.328125 C 152.476562 80.214844 152.105469 82.625 151.722656 87.105469 C 151.265625 92.238281 152.5625 97.304688 159.039062 98.164062 C 165.640625 99.042969 172.324219 94.773438 177.0625 90.324219 C 182.785156 84.980469 186.136719 78.828125 186.875 71.039062 C 186.996094 69.738281 187.03125 68.402344 186.890625 67.101562 Z M 186.875 67.117188 "/>
<path style=" stroke:none;fill-rule:nonzero;fill:rgb(6.666667%,11.372549%,66.666667%);fill-opacity:1;" d="M 159.652344 54.375 C 160.410156 54.425781 161.164062 54.515625 161.9375 54.621094 C 162.8125 52.863281 163.882812 51.210938 165.09375 49.714844 C 166.585938 47.871094 169.429688 45.496094 171.902344 47.097656 C 173.046875 47.835938 173.324219 49.1875 173.359375 50.472656 C 173.359375 50.523438 173.359375 50.578125 173.359375 50.628906 C 174.816406 49.453125 176.433594 48.484375 178.1875 47.816406 C 180.800781 46.816406 184.328125 46.09375 186.820312 47.78125 C 189.664062 49.714844 189.4375 53.601562 187.996094 56.289062 C 187.734375 56.78125 187.4375 57.273438 187.121094 57.730469 C 189.402344 57.660156 192.015625 58.117188 193.457031 59.964844 C 195.457031 62.515625 193.964844 65.660156 192.035156 67.699219 C 191.859375 67.894531 191.664062 68.070312 191.472656 68.261719 C 192.964844 68.632812 194.402344 69.421875 194.667969 70.917969 C 195.105469 73.5 189.648438 75.011719 189.347656 75.101562 C 190.085938 78.089844 188.507812 80.847656 186.996094 82.644531 C 185.59375 84.296875 177.117188 92.59375 177.117188 92.59375 L 176.378906 98.023438 C 171.21875 94.386719 171.730469 87.847656 173.078125 85.542969 C 173.554688 85.632812 175.921875 81.941406 175.921875 81.941406 C 175.921875 81.941406 179.117188 77.597656 180.222656 76.050781 C 178.925781 75.171875 177.90625 73.90625 177.398438 72.375 C 177.132812 71.601562 177.046875 70.847656 177.082031 70.089844 C 176.890625 70.144531 176.679688 70.195312 176.484375 70.25 C 174.851562 70.601562 172.921875 70.722656 171.414062 69.914062 C 170.203125 69.265625 169.710938 68.210938 169.691406 67.03125 C 168.65625 67.171875 167.640625 67.136719 166.726562 66.945312 C 164.726562 66.503906 163.285156 65.027344 162.621094 63.128906 C 162.585938 63.042969 162.566406 62.9375 162.53125 62.847656 C 162.183594 62.601562 161.867188 62.304688 161.585938 61.917969 C 161.480469 61.777344 161.390625 61.652344 161.320312 61.496094 C 161.179688 61.546875 161.023438 61.582031 160.847656 61.601562 C 160.074219 61.601562 159.460938 60.984375 159.425781 60.226562 C 159.390625 59.277344 159.636719 55.339844 159.726562 54.375 Z M 159.652344 54.375 "/>
<path style=" stroke:none;fill-rule:nonzero;fill:rgb(31.764706%,41.960784%,92.941176%);fill-opacity:1;" d="M 184.050781 68.367188 C 185.4375 67.523438 186.894531 66.554688 187.417969 64.921875 C 187.875 63.53125 187.417969 61.949219 186.085938 61.246094 C 184.734375 60.542969 183.085938 60.789062 181.644531 61 C 179.59375 61.28125 177.589844 61.773438 175.625 62.460938 C 175.820312 62.792969 176.027344 63.144531 176.222656 63.480469 C 177.363281 62.039062 182.296875 55.691406 178.363281 54.847656 C 176.765625 54.515625 174.941406 55.515625 173.519531 56.097656 C 171.625 56.90625 169.78125 57.820312 168.007812 58.875 C 167.324219 59.277344 167.9375 60.332031 168.621094 59.929688 C 169.9375 59.15625 171.273438 58.433594 172.660156 57.800781 C 174.027344 57.167969 175.484375 56.484375 176.976562 56.113281 C 177.449219 55.992188 178.238281 55.851562 178.539062 56.324219 C 178.941406 56.941406 178.1875 58.046875 177.90625 58.609375 C 177.1875 60.035156 176.328125 61.371094 175.34375 62.617188 C 175.011719 63.039062 175.292969 63.867188 175.941406 63.636719 C 177.363281 63.144531 178.820312 62.742188 180.292969 62.460938 C 181.609375 62.195312 183.050781 61.914062 184.402344 62.039062 C 185.753906 62.160156 186.683594 63.074219 186.277344 64.5 C 185.890625 65.851562 184.558594 66.625 183.433594 67.3125 C 182.769531 67.714844 183.382812 68.789062 184.050781 68.367188 Z M 184.050781 68.367188 "/>
<path style=" stroke:none;fill-rule:nonzero;fill:rgb(100%,100%,100%);fill-opacity:1;" d="M 166.304688 86.140625 L 156.285156 86.140625 C 156.285156 86.140625 156.476562 90.414062 160.867188 90.414062 C 164.304688 90.414062 166.027344 87.777344 166.621094 86.652344 C 166.746094 86.421875 166.570312 86.140625 166.304688 86.140625 Z M 166.304688 86.140625 "/>
<path style=" stroke:none;fill-rule:nonzero;fill:rgb(12.156863%,13.72549%,23.529412%);fill-opacity:1;" d="M 158.792969 98.710938 C 160.621094 98.710938 162.460938 98.339844 164.21875 97.847656 C 165.867188 97.375 167.535156 96.777344 169.007812 95.878906 C 169.675781 95.476562 169.0625 94.421875 168.394531 94.824219 C 167.007812 95.667969 165.464844 96.230469 163.902344 96.671875 C 162.253906 97.144531 160.53125 97.480469 158.792969 97.480469 C 158.003906 97.480469 158.003906 98.710938 158.792969 98.710938 Z M 158.792969 98.710938 "/>
<path style=" stroke:none;fill-rule:nonzero;fill:rgb(12.156863%,13.72549%,23.529412%);fill-opacity:1;" d="M 170.730469 71.988281 C 173.941406 71.847656 176.257812 73.570312 176.378906 75.152344 C 176.484375 76.453125 174.976562 76.753906 172.675781 76.207031 C 170.167969 75.609375 168.308594 77.191406 167.570312 75.152344 C 166.988281 73.519531 167.710938 72.148438 170.730469 72.007812 Z M 170.730469 71.988281 "/>
<path style=" stroke:none;fill-rule:nonzero;fill:rgb(12.156863%,13.72549%,23.529412%);fill-opacity:1;" d="M 161.074219 67.207031 C 160.023438 67.347656 159.164062 67.734375 158.390625 68.121094 C 156.40625 69.125 157.109375 72.5 158.917969 72.078125 C 160.8125 71.65625 164.410156 71.867188 164.742188 69.722656 C 165.007812 68 164.058594 66.785156 161.074219 67.207031 Z M 161.074219 67.207031 "/>
<path style=" stroke:none;fill-rule:nonzero;fill:rgb(96.862745%,46.666667%,21.568627%);fill-opacity:1;" d="M 170.921875 82.589844 C 170.710938 85.613281 172.992188 88.214844 176.011719 88.425781 C 179.03125 88.636719 181.628906 86.351562 181.839844 83.328125 C 182.050781 80.304688 179.765625 77.699219 176.746094 77.488281 C 173.730469 77.277344 171.132812 79.566406 170.921875 82.589844 Z M 170.921875 82.589844 "/>
<path style=" stroke:none;fill-rule:nonzero;fill:rgb(12.156863%,13.72549%,23.529412%);fill-opacity:1;" d="M 160.917969 73.027344 C 163.058594 73.535156 162.253906 76.15625 161.65625 77.140625 C 161.269531 77.789062 160.585938 78.492188 159.617188 78.246094 C 158.214844 77.894531 158.441406 76.207031 158.671875 75.3125 C 158.917969 74.328125 159.515625 72.675781 160.898438 73.007812 Z M 160.917969 73.027344 "/>
<path style=" stroke:none;fill-rule:nonzero;fill:rgb(6.666667%,11.372549%,66.666667%);fill-opacity:1;" d="M 136.933594 81.46875 L 112.964844 117.835938 C 112.085938 119.171875 110.285156 119.539062 108.953125 118.660156 L 107.574219 117.75 C 106.242188 116.867188 105.875 115.066406 106.753906 113.730469 L 130.722656 77.359375 C 130.789062 77.257812 130.910156 77.234375 131.015625 77.300781 L 136.859375 81.164062 C 136.960938 81.234375 136.984375 81.355469 136.917969 81.457031 Z M 136.933594 81.46875 "/>
<path style=" stroke:none;fill-rule:nonzero;fill:rgb(6.666667%,11.372549%,66.666667%);fill-opacity:1;" d="M 147.984375 91.03125 C 161.972656 88.269531 171.078125 74.671875 168.320312 60.660156 C 165.5625 46.648438 151.988281 37.527344 137.996094 40.289062 C 124.007812 43.050781 114.902344 56.648438 117.660156 70.660156 C 120.417969 84.671875 133.992188 93.792969 147.984375 91.03125 Z M 147.984375 91.03125 "/>
<path style=" stroke:none;fill-rule:nonzero;fill:rgb(0%,66.27451%,37.254902%);fill-opacity:1;" d="M 142.980469 89.394531 C 156.066406 89.394531 166.675781 78.765625 166.675781 65.660156 C 166.675781 52.554688 156.066406 41.925781 142.980469 41.925781 C 129.898438 41.925781 119.289062 52.554688 119.289062 65.660156 C 119.289062 78.765625 129.898438 89.394531 142.980469 89.394531 Z M 142.980469 89.394531 "/>
<path style=" stroke:none;fill-rule:nonzero;fill:rgb(12.156863%,13.72549%,23.529412%);fill-opacity:1;" d="M 172.941406 79.988281 C 171.886719 78.296875 169.554688 77.683594 167.816406 78.648438 C 167.535156 78.808594 167.429688 79.214844 167.585938 79.492188 C 167.761719 79.792969 168.132812 79.882812 168.429688 79.722656 C 168.515625 79.667969 168.589844 79.636719 168.675781 79.597656 C 168.570312 79.636719 168.675781 79.597656 168.710938 79.597656 C 168.761719 79.597656 168.796875 79.5625 168.851562 79.546875 C 168.9375 79.511719 169.027344 79.492188 169.132812 79.476562 C 169.183594 79.476562 169.21875 79.476562 169.273438 79.460938 C 169.34375 79.460938 169.183594 79.460938 169.308594 79.460938 C 169.5 79.460938 169.675781 79.441406 169.867188 79.460938 C 169.921875 79.460938 169.957031 79.460938 170.007812 79.460938 C 170.113281 79.460938 169.867188 79.421875 170.042969 79.460938 C 170.132812 79.476562 170.238281 79.492188 170.324219 79.511719 C 170.414062 79.53125 170.5 79.5625 170.589844 79.597656 C 170.625 79.597656 170.660156 79.617188 170.695312 79.636719 C 170.867188 79.6875 170.589844 79.582031 170.765625 79.667969 C 170.921875 79.757812 171.078125 79.828125 171.238281 79.933594 C 171.273438 79.96875 171.308594 79.988281 171.359375 80.023438 C 171.273438 79.953125 171.359375 80.023438 171.394531 80.058594 C 171.464844 80.128906 171.535156 80.179688 171.605469 80.25 C 171.675781 80.320312 171.730469 80.390625 171.800781 80.460938 C 171.835938 80.515625 171.765625 80.410156 171.816406 80.496094 C 171.851562 80.550781 171.886719 80.585938 171.90625 80.636719 C 172.078125 80.917969 172.449219 81.023438 172.746094 80.847656 C 173.027344 80.691406 173.132812 80.285156 172.976562 80.003906 Z M 172.941406 79.988281 "/>
<path style=" stroke:none;fill-rule:nonzero;fill:rgb(12.156863%,13.72549%,23.529412%);fill-opacity:1;" d="M 178.363281 81.691406 C 178.308594 81.570312 178.363281 81.726562 178.363281 81.746094 C 178.363281 81.78125 178.398438 81.832031 178.398438 81.867188 C 178.433594 81.957031 178.449219 82.0625 178.46875 82.148438 C 178.46875 82.148438 178.484375 82.308594 178.46875 82.21875 C 178.46875 82.132812 178.46875 82.289062 178.46875 82.289062 C 178.46875 82.378906 178.46875 82.464844 178.46875 82.554688 C 178.46875 82.660156 178.46875 82.746094 178.46875 82.851562 C 178.46875 82.921875 178.484375 82.765625 178.46875 82.871094 C 178.46875 82.921875 178.449219 82.976562 178.433594 83.027344 C 178.398438 83.203125 178.34375 83.398438 178.273438 83.574219 C 178.238281 83.660156 178.34375 83.449219 178.273438 83.609375 C 178.257812 83.644531 178.238281 83.695312 178.222656 83.730469 C 178.171875 83.820312 178.132812 83.90625 178.082031 83.996094 C 178.027344 84.066406 177.976562 84.136719 177.925781 84.222656 C 177.992188 84.117188 177.890625 84.257812 177.890625 84.257812 C 177.855469 84.292969 177.835938 84.328125 177.800781 84.363281 C 177.730469 84.433594 177.660156 84.503906 177.589844 84.574219 C 177.574219 84.59375 177.539062 84.628906 177.503906 84.644531 C 177.378906 84.75 177.589844 84.59375 177.449219 84.679688 C 177.292969 84.785156 177.117188 84.890625 176.941406 84.960938 C 176.644531 85.101562 176.570312 85.542969 176.730469 85.804688 C 176.90625 86.121094 177.257812 86.15625 177.574219 86.015625 C 178.46875 85.613281 179.117188 84.820312 179.46875 83.925781 C 179.820312 82.992188 179.785156 81.992188 179.398438 81.09375 C 179.273438 80.796875 178.820312 80.726562 178.554688 80.867188 C 178.238281 81.042969 178.203125 81.394531 178.328125 81.710938 Z M 178.363281 81.691406 "/>
<path style=" stroke:none;fill-rule:nonzero;fill:rgb(12.156863%,13.72549%,23.529412%);fill-opacity:1;" d="M 114.285156 128.347656 C 107.777344 136.46875 101.28125 144.59375 94.773438 152.730469 C 92.894531 155.070312 91.035156 157.40625 89.15625 159.746094 C 88.664062 160.359375 89.523438 161.222656 90.015625 160.605469 C 96.527344 152.484375 103.019531 144.363281 109.53125 136.222656 C 111.410156 133.886719 113.269531 131.546875 115.148438 129.210938 C 115.640625 128.59375 114.777344 127.734375 114.285156 128.347656 Z M 114.285156 128.347656 "/>
<path style=" stroke:none;fill-rule:nonzero;fill:rgb(12.156863%,13.72549%,23.529412%);fill-opacity:1;" d="M 197.316406 150.429688 C 193.824219 148.160156 190.523438 145.59375 187.453125 142.765625 C 186.875 142.238281 186.015625 143.097656 186.59375 143.625 C 189.734375 146.527344 193.121094 149.144531 196.703125 151.484375 C 197.367188 151.90625 197.984375 150.851562 197.316406 150.429688 Z M 197.316406 150.429688 "/>
<path style=" stroke:none;fill-rule:nonzero;fill:rgb(96.862745%,46.666667%,21.568627%);fill-opacity:1;" d="M 46.050781 100.011719 C 57.179688 95.191406 68.601562 91.359375 78.5 87.828125 C 88.699219 84.1875 104.863281 78.441406 113.304688 79.742188 C 115.777344 80.128906 118.128906 81.042969 120.5 81.851562 C 122.726562 82.625 124.957031 83.449219 127.152344 84.363281 C 128.679688 84.996094 130.152344 85.71875 131.609375 86.472656 C 133.101562 87.160156 134.558594 87.898438 135.960938 88.652344 C 137.066406 89.25 138.136719 90.023438 138.683594 91.203125 C 139.3125 92.589844 138.855469 94.15625 137.875 95.226562 C 135.925781 97.355469 132.785156 97.726562 130.097656 97.109375 C 129.328125 96.933594 128.589844 96.707031 127.851562 96.441406 C 128.082031 99.183594 128.0625 102.015625 127.640625 104.738281 C 127.414062 106.144531 127.027344 107.621094 126.152344 108.78125 C 125.34375 109.855469 124.011719 110.347656 122.886719 109.800781 C 122.167969 111.964844 120.675781 114.617188 118.324219 114.863281 C 116.585938 115.039062 115.636719 113.703125 114.882812 112.367188 C 114.199219 111.191406 113.65625 109.925781 113.214844 108.640625 C 113.144531 108.414062 113.074219 108.183594 113.007812 107.957031 C 112.882812 108.183594 112.691406 108.378906 112.390625 108.5 C 107.914062 110.59375 99.054688 110.046875 99.054688 110.046875 C 99.054688 110.046875 64.058594 133.078125 54.632812 138.367188 C 51.984375 139.847656 47.261719 142.519531 47.261719 142.519531 L 47.261719 166.550781 L 18.25 166.550781 C 6.28125 165.828125 -6.355469 144.628906 3.578125 128.789062 C 12.511719 114.511719 29.167969 107.339844 46.070312 100.011719 Z M 46.050781 100.011719 "/>
<path style=" stroke:none;fill-rule:nonzero;fill:rgb(12.156863%,13.72549%,23.529412%);fill-opacity:1;" d="M 34.1875 148.917969 C 33.484375 149.269531 34.101562 150.324219 34.800781 149.972656 C 39.574219 147.5625 44.367188 145.171875 49.140625 142.765625 C 49.84375 142.414062 49.226562 141.359375 48.527344 141.710938 "/>
<path style=" stroke:none;fill-rule:nonzero;fill:rgb(12.156863%,13.72549%,23.529412%);fill-opacity:1;" d="M 129.132812 96.371094 C 128.097656 91.570312 125.765625 87.125 122.410156 83.554688 C 121.867188 82.976562 121.007812 83.855469 121.554688 84.417969 C 124.765625 87.84375 126.976562 92.097656 127.957031 96.707031 C 128.117188 97.480469 129.308594 97.144531 129.132812 96.371094 Z M 129.132812 96.371094 "/>
<path style=" stroke:none;fill-rule:nonzero;fill:rgb(12.156863%,13.72549%,23.529412%);fill-opacity:1;" d="M 123.289062 110.03125 C 123.132812 104.089844 121.816406 98.253906 119.464844 92.800781 C 119.148438 92.082031 118.09375 92.695312 118.410156 93.417969 C 120.675781 98.65625 121.921875 104.316406 122.078125 110.03125 C 122.097656 110.820312 123.324219 110.820312 123.308594 110.03125 Z M 123.289062 110.03125 "/>
<g clip-path="url(#clip1)" clip-rule="nonzero">
<path style=" stroke:none;fill-rule:nonzero;fill:rgb(96.862745%,46.666667%,21.568627%);fill-opacity:1;" d="M 182.839844 181.632812 C 183.996094 183.128906 186.015625 183.425781 187.769531 183.109375 C 191.140625 182.496094 194.472656 181.019531 197.40625 179.277344 C 197.808594 179.03125 198.195312 178.785156 198.597656 178.539062 C 198.667969 179.207031 199.84375 191.40625 201.003906 194.167969 C 201.863281 196.222656 203.738281 198.613281 206.269531 197.578125 C 208.390625 196.699219 209.234375 193.691406 209.796875 191.6875 C 209.828125 191.582031 209.847656 191.476562 209.882812 191.371094 C 210.253906 192.058594 210.636719 192.726562 211.058594 193.375 C 211.917969 194.746094 212.847656 196.261719 214.199219 197.191406 C 215.640625 198.191406 217.621094 198.476562 218.867188 196.996094 C 220.046875 195.609375 220.078125 193.375 219.972656 191.671875 C 219.867188 189.894531 219.414062 188.136719 218.921875 186.433594 C 219.765625 187.3125 220.640625 188.191406 221.535156 189.015625 C 222.816406 190.210938 224.328125 191.144531 226.132812 191.003906 C 227.90625 190.863281 229.347656 189.527344 229.558594 187.734375 C 229.75 186.011719 229.03125 184.183594 228.539062 182.546875 C 227.609375 179.382812 226.46875 176.234375 225.132812 173.175781 C 229.871094 172.261719 233.296875 168.851562 233.296875 168.851562 C 233.296875 168.851562 255.988281 173.035156 277.414062 166.601562 C 280.3125 165.742188 285.210938 162.664062 286.929688 160.117188 C 290.296875 155.15625 291.019531 148.195312 288.5625 142.941406 C 284.648438 134.589844 275.765625 129.878906 266.078125 130.421875 C 247.316406 131.476562 214.007812 144.839844 197.351562 160.503906 C 192.261719 165.285156 187.15625 170.628906 183.1875 176.394531 C 182.101562 177.976562 181.574219 179.996094 182.855469 181.632812 Z M 182.839844 181.632812 "/>
</g>
<path style=" stroke:none;fill-rule:nonzero;fill:rgb(12.156863%,13.72549%,23.529412%);fill-opacity:1;" d="M 200.863281 161.484375 C 198.632812 166.371094 197.652344 171.734375 198.054688 177.097656 C 198.105469 177.871094 199.335938 177.886719 199.28125 177.097656 C 198.898438 171.964844 199.792969 166.796875 201.933594 162.101562 C 202.265625 161.398438 201.195312 160.765625 200.878906 161.484375 Z M 200.863281 161.484375 "/>
<path style=" stroke:none;fill-rule:nonzero;fill:rgb(12.156863%,13.72549%,23.529412%);fill-opacity:1;" d="M 208.410156 175.566406 C 208.65625 180.332031 208.917969 185.097656 209.164062 189.859375 C 209.199219 190.652344 210.425781 190.652344 210.390625 189.859375 C 210.144531 185.097656 209.882812 180.332031 209.636719 175.566406 C 209.601562 174.777344 208.375 174.777344 208.410156 175.566406 Z M 208.410156 175.566406 "/>
<path style=" stroke:none;fill-rule:nonzero;fill:rgb(12.156863%,13.72549%,23.529412%);fill-opacity:1;" d="M 216.394531 174.214844 C 216.992188 177.820312 217.605469 181.441406 218.203125 185.042969 C 218.324219 185.816406 219.519531 185.484375 219.378906 184.710938 C 218.78125 181.105469 218.167969 177.484375 217.570312 173.882812 C 217.445312 173.105469 216.253906 173.441406 216.394531 174.214844 Z M 216.394531 174.214844 "/>
<path style=" stroke:none;fill-rule:nonzero;fill:rgb(100%,100%,100%);fill-opacity:1;" d="M 148.808594 61.441406 L 138.050781 61.441406 C 137.613281 61.441406 137.277344 61.777344 137.277344 62.214844 L 137.277344 68.367188 C 137.277344 68.808594 137.613281 69.140625 138.050781 69.140625 L 148.808594 69.140625 C 149.246094 69.140625 149.582031 68.808594 149.582031 68.367188 L 149.582031 62.214844 C 149.582031 61.777344 149.246094 61.441406 148.808594 61.441406 Z M 148.035156 67.59375 L 138.804688 67.59375 L 138.804688 62.972656 L 148.035156 62.972656 Z M 148.035156 67.59375 "/>
<path style=" stroke:none;fill-rule:nonzero;fill:rgb(100%,100%,100%);fill-opacity:1;" d="M 131.890625 76.085938 L 133.890625 76.085938 L 132.90625 77.070312 C 132.59375 77.386719 132.59375 77.878906 132.90625 78.140625 C 133.222656 78.457031 133.714844 78.457031 133.976562 78.140625 L 136.277344 75.839844 C 136.59375 75.523438 136.59375 75.03125 136.277344 74.765625 L 133.976562 72.460938 C 133.660156 72.144531 133.171875 72.144531 132.90625 72.460938 C 132.59375 72.78125 132.59375 73.273438 132.90625 73.535156 L 133.890625 74.554688 L 131.890625 74.554688 C 131.449219 74.554688 131.117188 74.222656 131.117188 73.78125 L 131.117188 56.851562 C 131.117188 56.414062 131.449219 56.078125 131.890625 56.078125 L 137.277344 56.078125 L 137.277344 58.382812 C 137.277344 58.820312 137.609375 59.15625 138.050781 59.15625 L 148.808594 59.15625 C 149.246094 59.15625 149.582031 58.820312 149.582031 58.382812 L 149.582031 52.230469 C 149.582031 51.789062 149.246094 51.457031 148.808594 51.457031 L 138.050781 51.457031 C 137.609375 51.457031 137.277344 51.789062 137.277344 52.230469 L 137.277344 54.53125 L 131.890625 54.53125 C 130.625 54.53125 129.589844 55.585938 129.589844 56.835938 L 129.589844 73.765625 C 129.589844 75.03125 130.644531 76.066406 131.890625 76.066406 Z M 148.035156 57.609375 L 138.804688 57.609375 L 138.804688 52.984375 L 148.035156 52.984375 Z M 148.035156 57.609375 "/>
<path style=" stroke:none;fill-rule:nonzero;fill:rgb(100%,100%,100%);fill-opacity:1;" d="M 154.949219 64.535156 L 152.949219 64.535156 L 153.933594 63.550781 C 154.25 63.234375 154.25 62.742188 153.933594 62.476562 C 153.617188 62.160156 153.125 62.160156 152.863281 62.476562 L 150.5625 64.78125 C 150.246094 65.097656 150.246094 65.589844 150.5625 65.851562 L 152.863281 68.15625 C 153.179688 68.472656 153.671875 68.472656 153.933594 68.15625 C 154.25 67.839844 154.25 67.347656 153.933594 67.082031 L 152.949219 66.0625 L 154.949219 66.0625 C 155.390625 66.0625 155.722656 66.398438 155.722656 66.835938 L 155.722656 74.539062 C 155.722656 74.976562 155.390625 75.3125 154.949219 75.3125 L 149.5625 75.3125 L 149.5625 72.234375 C 149.5625 71.792969 149.230469 71.460938 148.789062 71.460938 L 138.03125 71.460938 C 137.59375 71.460938 137.261719 71.792969 137.261719 72.234375 L 137.261719 78.386719 C 137.261719 78.828125 137.59375 79.160156 138.03125 79.160156 L 148.789062 79.160156 C 149.230469 79.160156 149.5625 78.828125 149.5625 78.386719 L 149.5625 76.839844 L 154.949219 76.839844 C 156.214844 76.839844 157.25 75.785156 157.25 74.539062 L 157.25 66.835938 C 157.25 65.570312 156.195312 64.535156 154.949219 64.535156 Z M 138.804688 73.007812 L 148.035156 73.007812 L 148.035156 77.632812 L 138.804688 77.632812 Z M 138.804688 73.007812 "/>
</g>
</svg>
