<svg width="301" height="273" viewBox="0 0 301 273" fill="none" xmlns="http://www.w3.org/2000/svg">
<path d="M162.248 26.6143C162.248 26.6143 47.7809 32.9988 18.8372 79.6944C18.8372 79.6944 -24.2125 127.992 42.0314 185.474C42.0314 185.474 104.825 254.808 178.452 261.852C178.452 261.852 267.361 274.802 273.778 149.328C273.778 149.328 274.261 142.429 275.079 134.042C276.279 121.868 279.047 109.904 283.091 98.3702C289.796 79.2844 298.146 42.4785 267.55 32.9472C267.55 32.9472 241.095 17.7334 162.265 26.6133L162.248 26.6143Z" fill="#E3E3FD"/>
<g clip-path="url(#clip0_1241_90401)">
<path d="M97.8813 108.566C101.282 102.212 103.864 95.4387 105.613 88.4236C127.555 87.6172 131.052 63.9593 131.084 63.7013C134.837 32.2219 96.7104 3.66146 95.0743 2.45196C94.6733 2.16167 94.16 2.12942 93.727 2.3552C93.3099 2.5971 93.0693 3.06477 93.1174 3.54857C93.1174 3.67759 94.2563 17.4659 80.911 34.9151C72.3938 46.107 70.8059 60.3147 76.8208 72.0711C78.0078 74.4094 79.5156 76.5865 81.2639 78.5379C86.8939 84.6822 94.7856 88.2462 103.046 88.3752C101.362 94.971 98.8918 101.325 95.6838 107.324C95.4432 107.792 95.5234 108.356 95.8603 108.743C95.9565 108.856 96.0528 108.937 96.1811 109.001C96.7746 109.34 97.5124 109.146 97.8653 108.566H97.8813Z" fill="#6ABA74"/>
<path fill-rule="evenodd" clip-rule="evenodd" d="M54.0917 44.9459C54.0917 44.9459 49.2315 29.1094 37.9234 31.0285C37.9234 31.0285 26.1019 39.3015 43.377 51.5095L52.6801 53.4769L54.0917 44.9459Z" fill="#6ABA74"/>
<path fill-rule="evenodd" clip-rule="evenodd" d="M175.001 60.1374V52.8965C175.001 51.1871 176.028 49.655 177.583 48.9939L195.324 41.6078C196.029 41.3175 196.847 41.6562 197.152 42.3658C197.441 43.0753 197.104 43.8978 196.398 44.2042L178.658 51.5903C178.129 51.7999 177.792 52.316 177.792 52.8965V60.1374C177.792 60.9115 177.166 61.5404 176.396 61.5404C175.627 61.5404 175.001 60.9115 175.001 60.1374Z" fill="#9FA4FF"/>
<path fill-rule="evenodd" clip-rule="evenodd" d="M195.02 63.9902V34.8653C195.02 32.5431 196.896 30.6562 199.206 30.6562H230.163C232.473 30.6562 234.35 32.5431 234.35 34.8653V57.2008C234.35 57.9749 233.724 58.6039 232.954 58.6039C232.184 58.6039 231.559 57.9749 231.559 57.2008V34.8653C231.559 34.0912 230.933 33.4623 230.163 33.4623H199.206C198.436 33.4623 197.81 34.0912 197.81 34.8653V63.9902C197.81 64.7643 197.185 65.3932 196.415 65.3932C195.645 65.3932 195.02 64.7643 195.02 63.9902Z" fill="#9FA4FF"/>
<path fill-rule="evenodd" clip-rule="evenodd" d="M216.208 40.3016C216.208 39.4307 216.545 38.5921 217.17 37.9793C217.78 37.3665 218.614 37.0117 219.48 37.0117H223.474C224.34 37.0117 225.174 37.3504 225.784 37.9793C226.393 38.5921 226.746 39.4307 226.746 40.3016V44.9622C226.746 45.833 226.409 46.6716 225.784 47.2844C225.174 47.8973 224.34 48.252 223.474 48.252H219.48C218.614 48.252 217.78 47.9134 217.17 47.2844C216.561 46.6716 216.208 45.833 216.208 44.9622V40.3016ZM218.999 40.3016V44.9622C218.999 45.0912 219.047 45.2041 219.143 45.3009C219.224 45.3815 219.352 45.446 219.48 45.446H223.474C223.602 45.446 223.715 45.3976 223.811 45.3009C223.891 45.2202 223.955 45.0912 223.955 44.9622V40.3016C223.955 40.1726 223.907 40.0597 223.811 39.9629C223.731 39.8823 223.602 39.8339 223.474 39.8339H219.48C219.352 39.8339 219.24 39.8823 219.143 39.9629C219.063 40.0435 218.999 40.1726 218.999 40.3016Z" fill="#9FA4FF"/>
<path fill-rule="evenodd" clip-rule="evenodd" d="M216.208 56.0887C216.208 55.2178 216.545 54.3792 217.17 53.7664C217.78 53.1536 218.614 52.7988 219.48 52.7988H223.474C224.34 52.7988 225.174 53.1375 225.784 53.7664C226.393 54.3792 226.746 55.2178 226.746 56.0887V60.7493C226.746 61.6201 226.409 62.4587 225.784 63.0716C225.174 63.6844 224.34 64.0392 223.474 64.0392H219.48C218.614 64.0392 217.78 63.7005 217.17 63.0716C216.561 62.4587 216.208 61.6201 216.208 60.7493V56.0887ZM218.999 56.0887V60.7493C218.999 60.8783 219.047 60.9912 219.143 61.088C219.224 61.1686 219.352 61.2331 219.48 61.2331H223.474C223.602 61.2331 223.715 61.1847 223.811 61.088C223.891 61.0073 223.955 60.8783 223.955 60.7493V56.0887C223.955 55.9597 223.907 55.8468 223.811 55.75C223.731 55.6694 223.602 55.621 223.474 55.621H219.48C219.352 55.621 219.24 55.6694 219.143 55.75C219.063 55.8307 218.999 55.9597 218.999 56.0887Z" fill="#9FA4FF"/>
<path fill-rule="evenodd" clip-rule="evenodd" d="M202.654 40.3016C202.654 39.4307 202.991 38.5921 203.617 37.9793C204.226 37.3665 205.06 37.0117 205.926 37.0117H209.92C210.787 37.0117 211.621 37.3504 212.23 37.9793C212.84 38.6083 213.193 39.4307 213.193 40.3016V44.9622C213.193 45.833 212.856 46.6716 212.23 47.2844C211.621 47.8973 210.787 48.252 209.92 48.252H205.926C205.06 48.252 204.226 47.9134 203.617 47.2844C203.007 46.6716 202.654 45.833 202.654 44.9622V40.3016ZM205.445 40.3016V44.9622C205.445 45.0912 205.493 45.2041 205.574 45.3009C205.654 45.3815 205.782 45.446 205.91 45.446H209.904C210.033 45.446 210.145 45.3976 210.241 45.3009C210.321 45.2202 210.37 45.0912 210.37 44.9622V40.3016C210.37 40.1726 210.321 40.0597 210.241 39.9629C210.161 39.8823 210.033 39.8339 209.904 39.8339H205.91C205.782 39.8339 205.67 39.8823 205.574 39.9629C205.493 40.0435 205.445 40.1726 205.445 40.3016Z" fill="#9FA4FF"/>
<path fill-rule="evenodd" clip-rule="evenodd" d="M202.654 56.0887C202.654 55.2178 202.991 54.3792 203.617 53.7664C204.226 53.1536 205.06 52.7988 205.926 52.7988H209.92C210.787 52.7988 211.621 53.1375 212.23 53.7664C212.84 54.3792 213.193 55.2178 213.193 56.0887V60.7493C213.193 61.6201 212.856 62.4587 212.23 63.0716C211.621 63.6844 210.787 64.0392 209.92 64.0392H205.926C205.06 64.0392 204.226 63.7005 203.617 63.0716C203.007 62.4587 202.654 61.6201 202.654 60.7493V56.0887ZM205.445 56.0887V60.7493C205.445 60.8783 205.493 60.9912 205.574 61.088C205.654 61.1686 205.782 61.2331 205.91 61.2331H209.904C210.033 61.2331 210.145 61.1847 210.241 61.088C210.321 61.0073 210.37 60.8783 210.37 60.7493V56.0887C210.37 55.9597 210.321 55.8468 210.241 55.75C210.161 55.6694 210.033 55.621 209.904 55.621H205.91C205.782 55.621 205.67 55.6694 205.574 55.75C205.493 55.8307 205.445 55.9597 205.445 56.0887Z" fill="#9FA4FF"/>
<path fill-rule="evenodd" clip-rule="evenodd" d="M138.462 56.056C138.462 54.3466 139.488 52.8145 141.044 52.1533C144.766 50.6052 153.475 46.9767 156.523 45.7188C157.549 45.2995 158.704 45.2995 159.731 45.7188C162.762 46.9767 171.472 50.6052 175.209 52.1533C176.781 52.7984 177.792 54.3466 177.792 56.056V91.1155C177.792 91.8896 177.166 92.5185 176.396 92.5185H142.648C140.339 92.5185 138.462 90.6317 138.462 88.3095V56.056ZM141.253 56.056V88.3095C141.253 89.0835 141.878 89.7125 142.648 89.7125H175.001V56.056C175.001 55.4916 174.664 54.9755 174.135 54.7497L158.656 48.3152C158.319 48.17 157.934 48.17 157.582 48.3152C154.55 49.5731 145.84 53.2016 142.103 54.7497C141.574 54.9594 141.237 55.4754 141.237 56.056H141.253Z" fill="#9FA4FF"/>
<path fill-rule="evenodd" clip-rule="evenodd" d="M159.651 60.8777C159.651 60.0069 159.988 59.1683 160.614 58.5555C161.223 57.9427 162.057 57.5879 162.924 57.5879H166.917C167.784 57.5879 168.618 57.9266 169.227 58.5555C169.837 59.1683 170.19 60.0069 170.19 60.8777V65.5384C170.19 66.4092 169.853 67.2478 169.227 67.8606C168.618 68.4734 167.784 68.8282 166.917 68.8282H162.924C162.057 68.8282 161.223 68.4896 160.614 67.8606C160.004 67.2478 159.651 66.4092 159.651 65.5384V60.8777ZM162.442 60.8777V65.5384C162.442 65.6674 162.49 65.7803 162.587 65.877C162.667 65.9577 162.795 66.006 162.924 66.006H166.917C167.046 66.006 167.158 65.9577 167.254 65.877C167.335 65.7964 167.383 65.6674 167.383 65.5384V60.8777C167.383 60.7487 167.335 60.6358 167.254 60.5391C167.174 60.4585 167.046 60.4101 166.917 60.4101H162.924C162.795 60.4101 162.683 60.4585 162.587 60.5391C162.49 60.6197 162.442 60.7487 162.442 60.8777Z" fill="#9FA4FF"/>
<path fill-rule="evenodd" clip-rule="evenodd" d="M159.651 76.6668C159.651 75.796 159.988 74.9574 160.614 74.3446C161.223 73.7317 162.057 73.377 162.924 73.377H166.917C167.784 73.377 168.618 73.7156 169.227 74.3446C169.837 74.9574 170.19 75.796 170.19 76.6668V81.3274C170.19 82.1983 169.853 83.0369 169.227 83.6497C168.618 84.2625 167.784 84.6173 166.917 84.6173H162.924C162.057 84.6173 161.223 84.2786 160.614 83.6497C160.004 83.0369 159.651 82.1983 159.651 81.3274V76.6668ZM162.442 76.6668V81.3274C162.442 81.4564 162.49 81.5693 162.587 81.6661C162.667 81.7467 162.795 81.8112 162.924 81.8112H166.917C167.046 81.8112 167.158 81.7629 167.254 81.6661C167.335 81.5855 167.383 81.4564 167.383 81.3274V76.6668C167.383 76.5378 167.335 76.4249 167.254 76.3281C167.174 76.2475 167.046 76.1991 166.917 76.1991H162.924C162.795 76.1991 162.683 76.2475 162.587 76.3281C162.506 76.4088 162.442 76.5378 162.442 76.6668Z" fill="#9FA4FF"/>
<path fill-rule="evenodd" clip-rule="evenodd" d="M146.098 60.8777C146.098 60.0069 146.434 59.1683 147.06 58.5555C147.67 57.9427 148.504 57.5879 149.37 57.5879H153.364C154.23 57.5879 155.064 57.9266 155.674 58.5555C156.283 59.1683 156.636 60.0069 156.636 60.8777V65.5384C156.636 66.4092 156.299 67.2478 155.674 67.8606C155.064 68.4734 154.23 68.8282 153.364 68.8282H149.37C148.504 68.8282 147.67 68.4896 147.06 67.8606C146.451 67.2478 146.098 66.4092 146.098 65.5384V60.8777ZM148.889 60.8777V65.5384C148.889 65.6674 148.937 65.7803 149.017 65.877C149.097 65.9577 149.225 66.006 149.354 66.006H153.348C153.476 66.006 153.588 65.9577 153.685 65.877C153.765 65.7964 153.813 65.6674 153.813 65.5384V60.8777C153.813 60.7487 153.765 60.6358 153.685 60.5391C153.604 60.4585 153.476 60.4101 153.348 60.4101H149.354C149.225 60.4101 149.113 60.4585 149.017 60.5391C148.937 60.6197 148.889 60.7487 148.889 60.8777Z" fill="#9FA4FF"/>
<path fill-rule="evenodd" clip-rule="evenodd" d="M146.098 76.6668C146.098 75.796 146.434 74.9574 147.06 74.3446C147.67 73.7317 148.504 73.377 149.37 73.377H153.364C154.23 73.377 155.064 73.7156 155.674 74.3446C156.283 74.9574 156.636 75.796 156.636 76.6668V81.3274C156.636 82.1983 156.299 83.0369 155.674 83.6497C155.064 84.2625 154.23 84.6173 153.364 84.6173H149.37C148.504 84.6173 147.67 84.2786 147.06 83.6497C146.451 83.0369 146.098 82.1983 146.098 81.3274V76.6668ZM148.889 76.6668V81.3274C148.889 81.4564 148.937 81.5693 149.017 81.6661C149.097 81.7467 149.225 81.8112 149.354 81.8112H153.348C153.476 81.8112 153.588 81.7629 153.685 81.6661C153.781 81.5693 153.813 81.4564 153.813 81.3274V76.6668C153.813 76.5378 153.765 76.4249 153.685 76.3281C153.604 76.2475 153.476 76.1991 153.348 76.1991H149.354C149.225 76.1991 149.113 76.2475 149.017 76.3281C148.937 76.4088 148.889 76.5378 148.889 76.6668Z" fill="#9FA4FF"/>
<path d="M96.1488 109.839C99.6936 103.243 102.404 96.2438 104.249 88.9868C126.946 88.0353 130.683 63.5872 130.731 63.313C134.773 30.7854 95.5072 1.49926 93.823 0.257504C93.422 -0.0327775 92.8766 -0.0811577 92.4435 0.160743C92.0105 0.418771 91.7538 0.902573 91.802 1.4025C91.802 1.53152 92.9087 15.7714 79.0181 33.8656C70.164 45.4769 68.4317 60.1683 74.5911 72.2633C75.8101 74.6662 77.3499 76.9078 79.1464 78.9237C84.9368 85.2454 93.0691 88.8739 101.618 88.9706C99.838 95.7922 97.2555 102.372 93.9032 108.581C93.6626 109.065 93.7267 109.645 94.0796 110.048C94.1759 110.161 94.2881 110.242 94.4004 110.322C95.0099 110.661 95.7799 110.468 96.1488 109.855V109.839ZM76.9008 71.1506C71.1906 59.9425 72.7946 46.2671 81.1193 35.5105C92.203 21.0771 94.1919 9.09495 94.4165 3.95052C102.388 10.369 131.581 36.0266 128.213 62.9582C128.181 63.184 124.828 85.0357 104.858 86.3904C105.42 83.8423 105.869 81.3104 106.206 78.8269L106.27 78.7785C106.27 78.7785 106.222 78.7302 106.27 78.6657C106.623 76.166 106.896 73.6986 107.088 71.2635C121.861 60.3618 121.716 49.4602 121.7 49.0086C121.508 48.3152 120.786 47.912 120.08 48.1216C119.631 48.2507 119.278 48.6216 119.166 49.0892C119.214 49.1376 119.166 58.3621 107.264 67.9414C107.409 64.8128 107.425 61.7165 107.329 58.733C107.345 58.604 107.345 58.475 107.329 58.346C107.184 54.2014 106.863 50.202 106.398 46.4445C110.088 41.7516 112.686 36.2846 113.985 30.4467C113.953 29.721 113.344 29.1566 112.622 29.1889C112.141 29.205 111.692 29.4953 111.499 29.9468C110.44 34.5429 108.548 38.8971 105.933 42.8159C105.484 39.8325 104.987 37.0264 104.441 34.4139C104.441 34.2204 104.409 34.043 104.329 33.8656C102.998 27.3182 101.137 20.8997 98.7793 14.6587C98.6671 13.9491 98.0094 13.4492 97.2876 13.5621C96.5819 13.6749 96.0846 14.3361 96.1969 15.0618C96.229 15.2715 96.3092 15.465 96.4375 15.6424C98.4104 20.8352 100.014 26.157 101.217 31.5917C99.3889 30.1565 97.8169 28.4148 96.5819 26.4473C96.0846 25.9313 95.2505 25.9151 94.7373 26.4151C94.4004 26.7537 94.2721 27.2375 94.3844 27.6891C95.1062 28.8824 95.9242 29.9952 96.8706 31.0112C98.3463 32.6561 100.079 34.0591 101.987 35.188C103.447 42.2193 104.345 49.3634 104.714 56.5398C94.5929 51.4276 89.1393 39.9454 89.0752 39.8164C88.61 39.2519 87.792 39.1874 87.2466 39.639C86.8777 39.9454 86.7173 40.4131 86.7975 40.8807C88.6421 44.5738 90.9679 48.0087 93.7428 51.0728C96.8225 54.5885 100.592 57.4106 104.826 59.362C104.987 65.2482 104.698 71.1506 103.944 76.9885C95.1062 74.5856 89.6847 65.5224 89.6366 65.4417C89.2676 64.8451 88.4977 64.6515 87.9042 64.9902C87.3268 65.3611 87.1343 66.1191 87.4551 66.7158C88.4817 68.3929 89.6686 69.9734 91 71.4248C94.3042 75.2629 98.651 78.0528 103.511 79.4559C103.158 81.7781 102.693 84.1326 102.148 86.471C90.9679 86.342 81.777 80.8105 76.8527 71.1506L76.9008 71.199V71.1506Z" fill="#00843C"/>
<path d="M61.0857 92.4223C61.1659 92.5514 62.9143 95.7122 66.1383 99.1311C70.0681 103.308 74.3187 105.92 78.7778 106.92C89.1236 109.243 99.1967 102.437 100.624 101.421C101.057 100.97 100.977 100.889 100.785 100.228C100.271 99.3246 98.5872 96.6153 95.8764 93.7447C92.0108 89.6485 87.8083 87.0683 83.3973 86.0684C72.4741 83.6171 61.7113 91.3257 61.2622 91.6483L60.8291 91.9547L61.0857 92.4223Z" fill="#00843C" stroke="#00843C" stroke-width="0.66" stroke-miterlimit="10"/>
<path d="M131.18 78.0043C134.773 79.9395 137.676 82.9391 138.189 86.8579C138.478 89.0189 137.868 91.2605 136.698 93.0828C135.591 94.8084 134.035 96.1792 132.27 97.1951C130.554 98.1789 128.341 98.9852 126.416 98.0982C124.78 97.3403 123.994 95.5663 123.609 93.8892C123.384 92.8732 123.288 91.8249 123.224 90.7767C123.144 89.5672 123.128 88.3416 123.096 87.1159C123.047 84.8582 122.999 82.5682 122.566 80.3427C122.39 79.4719 122.165 78.6171 121.844 77.7785C121.764 77.5044 122.743 74.9886 123.144 74.9886C124.828 74.9564 129.624 77.198 131.164 78.0205L131.18 78.0043Z" fill="#111DAA"/>
<path d="M105.196 85.5677C105.741 80.0684 108.5 75.2788 114.659 74.6499C120.145 74.1016 126.657 76.3593 130.459 80.2297C132.143 81.9391 133.506 83.9227 134.629 86.0192C135.784 88.1641 136.714 90.4057 137.532 92.6796C138.431 95.1469 139.297 97.6305 139.938 100.162C140.58 102.694 140.965 105.339 140.644 107.935C140.387 110.113 139.65 112.274 138.334 114.064C136.987 115.918 135.046 117.241 132.801 117.886C130.491 118.547 128.005 118.515 125.679 117.934C123.193 117.321 120.899 116.128 118.846 114.693C116.953 113.37 115.221 111.822 113.681 110.129C112.173 108.468 110.842 106.661 109.719 104.742C108.58 102.807 107.634 100.759 106.912 98.6464C105.629 94.8728 104.731 90.0348 105.18 85.5515L105.196 85.5677Z" fill="#FFC697"/>
<path d="M125.358 94.3743C125.919 92.4874 128.726 90.52 129.881 90.2942C130.474 90.1652 131.116 90.1652 131.693 90.391C132.271 90.6329 132.752 91.1489 132.864 91.8101C132.977 92.5036 132.656 93.2131 132.191 93.6969C131.725 94.1807 131.116 94.471 130.522 94.7613C129.544 95.229 128.566 95.7128 127.587 96.1805C126.962 96.4869 126.143 96.7449 125.694 96.1966C125.229 95.6483 125.165 95.0032 125.358 94.3743Z" fill="#2F1E45"/>
<path d="M122.326 106.098C122.326 106.098 109.077 118.031 109.221 118.112C109.349 118.193 120.128 127.111 120.128 127.111L130.923 115.112L122.342 106.098H122.326Z" fill="#FFC697"/>
<path d="M108.419 76.0383C117.306 69.8295 129.753 75.7642 134.404 84.0211C134.516 84.2307 134.629 84.4404 134.741 84.6661C134.837 84.8597 134.885 85.0854 134.853 85.2951C134.853 85.2951 134.917 88.343 127.635 90.4556C120.353 92.5521 118.877 96.0194 118.877 96.0194C118.877 96.0194 118.845 95.971 118.781 95.8742C118.541 96.616 118.364 97.4224 118.3 98.3416C118.3 98.3416 119.102 100.551 118.958 101.341C119.134 101.341 119.311 101.454 119.391 101.648C120.305 104.115 117.354 105.244 116.279 107.647C115.252 109.904 115.75 114.339 112.814 113.904C111.291 113.678 110.505 112.452 109.959 111.211C107.441 105.421 105.051 99.4221 104.105 93.1972C103.816 91.3265 103.19 89.617 102.837 87.8754C101.891 83.1341 104.762 78.6509 108.419 76.1028V76.0383Z" fill="#111DAA"/>
<path d="M176.637 89.8251L182.572 89.3252C183.823 87.6157 185.443 86.4869 187.224 86.2772L213.321 81.036C215.887 76.7141 219.384 73.7306 223.33 72.8437H223.378C223.618 72.7953 223.859 72.7469 224.1 72.6985L244.679 68.7797C245.449 68.554 246.235 68.4088 247.021 68.3282H247.037C247.454 68.2959 247.871 68.2637 248.288 68.2637C259.163 68.2637 267.985 81.8101 267.985 98.5174C267.985 115.225 259.163 128.771 248.288 128.771C247.871 128.771 247.454 128.755 247.037 128.707H247.021C246.219 128.626 245.449 128.481 244.679 128.255L224.1 124.336C223.859 124.304 223.618 124.256 223.378 124.191H223.33C219.384 123.304 215.887 120.321 213.321 115.999L187.224 110.758C185.443 110.532 183.839 109.419 182.572 107.694L176.637 107.194C173.509 107.194 170.991 103.307 170.991 98.5174C170.991 93.7278 173.526 89.8412 176.637 89.8412V89.8251Z" fill="#9FA4FF"/>
<path d="M213.416 81.1496C212.39 83.2138 211.572 85.3748 210.962 87.6164C210.353 89.8419 209.968 92.1158 209.775 94.4219C209.583 96.7442 209.583 99.0664 209.775 101.389C209.968 103.711 210.337 106.017 210.898 108.275C211.444 110.533 212.181 112.742 213.064 114.887C213.176 115.145 213.288 115.419 213.4 115.677C213.529 115.967 213.112 116.209 212.983 115.919C212.037 113.774 211.251 111.549 210.642 109.275C210.032 106.985 209.599 104.646 209.358 102.276C209.118 99.9373 209.07 97.5666 209.214 95.2282C209.358 92.8899 209.711 90.5515 210.273 88.2615C210.834 86.0038 211.604 83.7944 212.598 81.6818C212.727 81.4238 212.855 81.1657 212.983 80.9077C213.128 80.6336 213.545 80.8755 213.4 81.1496H213.416Z" fill="#9FA4FF"/>
<path d="M182.459 89.923C181.401 92.0195 180.759 94.3256 180.551 96.664C180.342 99.0185 180.535 101.389 181.16 103.679C181.513 104.953 181.994 106.179 182.604 107.356C182.748 107.63 182.331 107.872 182.187 107.598C181.064 105.453 180.374 103.099 180.118 100.68C179.861 98.2767 180.021 95.8254 180.631 93.4871C180.968 92.1647 181.449 90.8907 182.058 89.6811C182.203 89.407 182.62 89.6489 182.475 89.923H182.459Z" fill="#9FA4FF"/>
<path d="M248.304 126.433C258.349 126.433 266.493 113.928 266.493 98.5018C266.493 83.0757 258.349 70.5703 248.304 70.5703C238.258 70.5703 230.114 83.0757 230.114 98.5018C230.114 113.928 238.258 126.433 248.304 126.433Z" fill="#111DAA"/>
<path d="M242.642 190.924C238.086 198.746 221.629 205.68 201.066 198.101C180.503 190.505 145.247 163.993 145.247 163.993L185.556 121.031L242.626 190.924H242.642Z" fill="#FFC697"/>
<path d="M155.561 93.5354C155.593 92.5194 155.817 91.3583 156.78 90.81C157.838 90.2133 159.17 90.6487 160.004 91.4067C160.453 91.8099 160.79 92.2937 161.094 92.7936C161.415 93.3419 161.704 93.9063 161.944 94.4708C162.442 95.648 162.779 96.8737 163.019 98.1154C163.212 99.1314 163.324 100.164 163.388 101.212C163.613 99.8732 163.885 98.5508 164.222 97.2284C164.832 94.8094 165.634 92.4388 166.596 90.1488C167.558 87.8588 168.713 85.6494 170.029 83.5368C170.365 83.0047 170.702 82.4725 171.055 81.9564C171.376 81.4887 171.713 81.0211 172.146 80.6502C172.531 80.3115 173.012 80.0535 173.525 80.0212C173.974 79.9728 174.456 80.0696 174.825 80.3438C175.306 80.505 175.691 80.8759 175.883 81.3597C176.172 82.0532 176.172 82.8434 176.076 83.5691C176.06 83.7465 176.028 83.9239 175.995 84.0852C176.076 83.94 176.14 83.811 176.204 83.6659C176.605 82.9402 177.022 82.2145 177.487 81.521C177.888 80.9404 178.337 80.3599 178.915 79.9406C179.444 79.5374 180.102 79.2633 180.791 79.3278C181.449 79.3761 182.027 79.7471 182.444 80.2309C183.181 81.1017 183.294 82.1499 183.165 83.1982C183.743 82.3273 184.529 81.6178 185.652 81.6823C186.47 81.7307 187.223 82.2306 187.705 82.8434C188.282 83.5691 188.475 84.4883 188.491 85.3914C188.507 86.3913 188.346 87.3911 188.218 88.391C188.074 89.4392 187.913 90.4875 187.737 91.5357C187.384 93.6483 186.967 95.7287 186.502 97.8251C186.053 99.9055 185.555 101.97 185.026 104.034C184.834 104.808 184.625 105.598 184.433 106.372C188.122 108.985 191.731 111.71 195.259 114.5C200.023 118.274 204.659 122.225 209.134 126.321C213.673 130.466 218.052 134.771 222.271 139.206C233.515 151.076 249.619 168.009 245.064 185.764C244.438 188.199 243.315 190.586 241.471 192.392C239.61 194.215 237.108 195.263 234.493 195.585C228.591 196.327 223.121 193.489 218.453 190.312C213.818 187.151 209.551 183.474 205.766 179.378C203.312 176.733 201.066 173.911 199.029 170.944C198.933 170.847 198.836 170.75 198.74 170.637C193.896 165.686 189.068 160.736 184.224 155.785C179.621 151.076 174.921 146.431 170.462 141.593C166.307 137.094 162.394 132.272 159.635 126.821C157.1 121.789 155.48 116.161 155.785 110.517C155.721 107.743 155.705 104.969 155.657 102.212C155.641 100.728 155.609 99.2282 155.593 97.7445C155.593 97.0027 155.577 96.2608 155.561 95.5351C155.561 94.8739 155.528 94.1966 155.545 93.5193L155.561 93.5354Z" fill="#FFC697"/>
<path d="M134.356 89.8251L140.291 89.3252C141.542 87.6157 143.162 86.4869 144.942 86.2772L171.039 81.036C173.606 76.7141 177.103 73.7306 181.048 72.8437H181.097C181.337 72.7953 181.578 72.7469 181.818 72.6985L202.398 68.7797C203.167 68.554 203.953 68.4088 204.739 68.3282H204.755C205.172 68.2959 205.59 68.2637 206.007 68.2637C216.882 68.2637 225.704 81.8101 225.704 98.5174C225.704 115.225 216.882 128.771 206.007 128.771C205.59 128.771 205.172 128.755 204.755 128.707H204.739C203.937 128.626 203.167 128.481 202.398 128.255L181.818 124.336C181.578 124.304 181.337 124.256 181.097 124.191H181.048C177.103 123.304 173.606 120.321 171.039 115.999L144.942 110.758C143.162 110.532 141.558 109.419 140.291 107.694L134.356 107.194C131.228 107.194 128.71 103.307 128.71 98.5174C128.71 93.7278 131.244 89.8412 134.356 89.8412V89.8251Z" fill="#9FA4FF"/>
<path d="M171.135 81.1496C170.109 83.2138 169.291 85.3748 168.681 87.6164C168.072 89.8419 167.687 92.1158 167.494 94.4219C167.302 96.7442 167.302 99.0664 167.494 101.389C167.687 103.711 168.056 106.017 168.617 108.275C169.162 110.533 169.9 112.742 170.782 114.887C170.895 115.145 171.007 115.419 171.119 115.677C171.248 115.967 170.83 116.209 170.702 115.919C169.756 113.774 168.97 111.549 168.36 109.275C167.751 106.985 167.318 104.646 167.077 102.276C166.837 99.9373 166.788 97.5666 166.933 95.2282C167.077 92.8899 167.43 90.5515 167.991 88.2615C168.553 86.0038 169.323 83.7944 170.317 81.6818C170.446 81.4238 170.574 81.1657 170.702 80.9077C170.847 80.6336 171.264 80.8755 171.119 81.1496H171.135Z" fill="#2F1E45" stroke="black" stroke-width="0.25" stroke-miterlimit="10"/>
<path d="M140.178 89.923C139.119 92.0195 138.478 94.3256 138.269 96.664C138.061 99.0185 138.253 101.389 138.879 103.679C139.232 104.953 139.713 106.179 140.322 107.356C140.467 107.63 140.05 107.872 139.905 107.598C138.783 105.453 138.093 103.099 137.836 100.68C137.58 98.2767 137.74 95.8254 138.35 93.4871C138.686 92.1647 139.168 90.8907 139.777 89.6811C139.921 89.407 140.339 89.6489 140.194 89.923H140.178Z" fill="#2F1E45" stroke="black" stroke-width="0.25" stroke-miterlimit="10"/>
<path d="M206.022 126.433C216.068 126.433 224.212 113.928 224.212 98.5018C224.212 83.0757 216.068 70.5703 206.022 70.5703C195.977 70.5703 187.833 83.0757 187.833 98.5018C187.833 113.928 195.977 126.433 206.022 126.433Z" fill="#111DAA"/>
<path d="M207.033 94.3733C206.905 93.4218 206.52 92.5026 205.927 91.7608C205.846 91.664 205.83 91.5189 205.927 91.4221C206.007 91.3415 206.183 91.3254 206.263 91.4221C206.937 92.2768 207.37 93.2928 207.515 94.3733C207.531 94.5023 207.386 94.6152 207.274 94.6152C207.13 94.6152 207.049 94.5023 207.033 94.3733Z" fill="#2F1E45"/>
<path d="M217.651 204.633C209.359 213.922 194.794 216.566 174.247 208.971C153.684 201.375 121.396 176.346 121.396 176.346L161.704 133.385L217.635 204.633H217.651Z" fill="#FFC697"/>
<path d="M158.624 160.041C156.956 162.444 155.24 164.798 153.459 167.105C151.679 169.411 149.834 171.668 147.942 173.862C146.033 176.071 144.076 178.232 142.071 180.329C140.066 182.425 138.013 184.457 135.896 186.441C133.794 188.424 131.629 190.343 129.415 192.198C129.143 192.424 128.87 192.649 128.597 192.891C128.357 193.085 128.02 192.746 128.261 192.553C130.49 190.698 132.655 188.795 134.773 186.828C136.89 184.86 138.959 182.844 140.964 180.78C142.985 178.7 144.942 176.571 146.835 174.394C148.744 172.201 150.604 169.959 152.401 167.669C154.197 165.379 155.929 163.057 157.598 160.67C157.806 160.38 158.015 160.073 158.207 159.783C158.384 159.525 158.801 159.783 158.624 160.025V160.041Z" fill="#2F1E45"/>
<path d="M46.7939 194.747C54.6375 185.667 62.3206 176.427 69.8273 167.073C77.719 157.236 85.4342 147.253 92.973 137.126C94.8016 134.658 96.5981 132.159 98.4587 129.724C100.079 127.611 101.795 125.547 103.832 123.821C106.014 121.999 108.532 120.677 111.339 120.177C114.402 119.644 117.546 120.048 120.514 120.854C126.096 122.37 131.421 125.128 136.425 127.998C141.317 130.804 146.001 133.997 150.492 137.416C158.978 143.867 166.805 151.108 174.584 158.381C174.584 158.381 164.11 179.813 137.981 201.391L130.298 194.602C128.598 196.408 105.372 214.76 94.0156 223.936C90.5189 226.758 85.5305 226.694 82.0979 223.807L47.9167 194.956" fill="#9FA4FF"/>
<path d="M131.709 102.26C131.741 101.212 131.966 100.019 132.928 99.4383C133.987 98.8094 135.318 99.277 136.152 100.067C136.601 100.487 136.938 100.986 137.243 101.519C137.564 102.083 137.852 102.664 138.093 103.26C138.59 104.47 138.927 105.744 139.168 107.034C139.36 108.098 139.472 109.163 139.537 110.227C139.761 108.84 140.034 107.469 140.371 106.099C140.98 103.599 141.782 101.148 142.745 98.761C143.707 96.3903 144.862 94.1004 146.177 91.9071C146.514 91.3588 146.851 90.8105 147.204 90.2622C147.524 89.7784 147.861 89.2946 148.294 88.9075C148.679 88.5528 149.16 88.2947 149.674 88.2464C150.123 88.198 150.604 88.2947 150.973 88.5689C151.454 88.7301 151.839 89.1333 152.032 89.6332C152.32 90.3428 152.32 91.1653 152.224 91.9232C152.208 92.1006 152.176 92.278 152.144 92.4716C152.224 92.3264 152.288 92.1813 152.352 92.0361C152.753 91.2782 153.17 90.5363 153.636 89.8268C154.037 89.214 154.486 88.6334 155.063 88.1818C155.593 87.7625 156.25 87.4884 156.94 87.5368C157.598 87.5852 158.175 87.9722 158.592 88.4721C159.33 89.3752 159.442 90.4557 159.314 91.5362C159.891 90.6331 160.677 89.8913 161.8 89.9719C162.618 90.0203 163.372 90.5363 163.853 91.1814C164.431 91.9394 164.623 92.8908 164.639 93.8101C164.655 94.8422 164.495 95.8904 164.366 96.9225C164.222 98.0191 164.062 99.0996 163.885 100.18C163.532 102.357 163.115 104.534 162.65 106.695C162.201 108.856 161.704 111.001 161.174 113.13C160.982 113.936 160.773 114.743 160.581 115.549C164.27 118.258 167.879 121.064 171.408 123.967C176.172 127.886 180.807 131.966 185.283 136.207C189.822 140.497 194.201 144.948 198.419 149.56C209.663 161.849 225.767 179.379 221.212 197.779C220.586 200.311 219.464 202.762 217.619 204.633C215.758 206.52 213.256 207.616 210.642 207.939C204.739 208.697 199.269 205.778 194.602 202.472C189.966 199.198 185.7 195.376 181.914 191.151C179.46 188.409 177.214 185.491 175.177 182.426C175.081 182.33 174.985 182.217 174.889 182.12C170.045 176.992 165.217 171.863 160.372 166.751C155.769 161.881 151.069 157.075 146.61 152.06C142.456 147.399 138.542 142.4 135.783 136.756C133.249 131.547 131.629 125.709 131.934 119.871C131.869 117 131.853 114.13 131.805 111.259C131.789 109.711 131.757 108.179 131.741 106.631C131.741 105.873 131.725 105.099 131.709 104.341C131.709 103.647 131.677 102.954 131.693 102.26H131.709Z" fill="#FFC697"/>
<path d="M186.052 191.118C183.133 188.973 180.294 186.732 177.551 184.361C174.824 182.007 172.194 179.555 169.644 176.991C168.2 175.54 166.804 174.056 165.425 172.556C165.216 172.331 165.553 171.976 165.762 172.218C168.184 174.879 170.702 177.459 173.333 179.926C175.947 182.394 178.674 184.764 181.481 187.022C183.053 188.28 184.657 189.522 186.277 190.699C186.389 190.78 186.437 190.909 186.357 191.038C186.293 191.134 186.133 191.199 186.02 191.118H186.052Z" fill="#2F1E45" stroke="black" stroke-width="0.25" stroke-miterlimit="10"/>
<path d="M220.026 200.004C222.32 193.005 221.694 185.361 219.368 178.442C217.075 171.605 213.161 165.428 208.862 159.703C204.724 154.204 200.136 149.092 195.212 144.286C190.143 139.351 184.754 134.723 179.188 130.352C173.718 126.047 168.072 121.983 162.282 118.096C161.608 117.645 160.919 117.193 160.229 116.741C159.972 116.564 160.213 116.145 160.469 116.322C166.292 120.16 171.97 124.176 177.504 128.433C183.182 132.82 188.7 137.432 193.913 142.383C198.933 147.14 203.681 152.22 207.932 157.703C212.311 163.364 216.369 169.379 219.015 176.072C221.678 182.829 222.817 190.376 221.213 197.536C221.02 198.407 220.78 199.278 220.491 200.133C220.395 200.423 219.93 200.294 220.026 200.004Z" fill="#2F1E45" stroke="black" stroke-width="0.25" stroke-miterlimit="10"/>
<path d="M159.603 91.2778C158.609 93.5839 157.679 95.9223 156.828 98.2768C155.978 100.631 155.176 103.002 154.454 105.405C154.053 106.759 153.652 108.13 153.3 109.501C153.219 109.807 152.754 109.678 152.834 109.372C153.492 106.937 154.198 104.518 154.984 102.115C155.77 99.7121 156.62 97.3414 157.55 94.9869C158.08 93.6645 158.609 92.3422 159.186 91.0198C159.234 90.9069 159.411 90.8746 159.523 90.9391C159.651 91.0198 159.667 91.1488 159.603 91.2778Z" fill="#2F1E45" stroke="black" stroke-width="0.25" stroke-miterlimit="10"/>
<path d="M152.529 91.8574C151.631 93.9377 150.781 96.0181 149.979 98.1307C149.177 100.243 148.439 102.372 147.733 104.533C147.332 105.759 146.963 106.968 146.595 108.21C146.514 108.5 146.049 108.387 146.129 108.081C146.771 105.888 147.477 103.727 148.215 101.566C148.968 99.4047 149.77 97.2759 150.621 95.1633C151.102 93.97 151.599 92.7927 152.112 91.6155C152.16 91.5026 152.337 91.4703 152.449 91.5348C152.577 91.5993 152.593 91.7445 152.529 91.8735V91.8574Z" fill="#2F1E45" stroke="black" stroke-width="0.25" stroke-miterlimit="10"/>
<path d="M140.098 107.484C139.184 110.048 138.591 112.725 138.334 115.435C138.254 116.209 138.222 116.983 138.19 117.757C138.19 118.063 137.692 118.063 137.708 117.757C137.789 114.999 138.19 112.258 138.927 109.597C139.136 108.839 139.377 108.097 139.633 107.355C139.729 107.065 140.195 107.194 140.098 107.484Z" fill="#2F1E45" stroke="black" stroke-width="0.25" stroke-miterlimit="10"/>
<path d="M219.095 75.3917C221.1 78.0042 222.592 80.9876 223.699 84.084C224.805 87.1642 225.559 90.3895 225.944 93.6471C226.313 96.5983 226.329 99.5656 226.024 102.533C225.688 105.758 225.03 108.968 224.019 112.064C223.009 115.176 221.629 118.208 219.737 120.885C219.512 121.208 219.288 121.514 219.047 121.821C218.854 122.062 218.518 121.724 218.71 121.482C220.683 118.934 222.127 115.999 223.217 112.983C224.308 109.935 225.046 106.774 225.447 103.565C225.816 100.662 225.88 97.7272 225.607 94.8244C225.303 91.6313 224.645 88.4704 223.65 85.4225C222.64 82.3262 221.26 79.3105 219.4 76.6334C219.175 76.3109 218.935 75.9884 218.694 75.6819C218.502 75.44 218.919 75.1981 219.111 75.44L219.095 75.3917Z" fill="#2F1E45"/>
<path d="M161.303 114.467C161.078 115.177 160.87 115.87 160.645 116.58C160.549 116.87 160.084 116.757 160.18 116.451C160.405 115.741 160.613 115.048 160.838 114.338C160.934 114.048 161.399 114.161 161.303 114.467Z" fill="#2F1E45" stroke="black" stroke-width="0.25" stroke-miterlimit="10"/>
<path d="M131.95 106.259C131.998 109.291 132.062 112.323 132.11 115.355C132.11 116.209 132.142 117.064 132.158 117.919C132.158 118.225 131.677 118.225 131.677 117.919C131.629 114.887 131.565 111.855 131.517 108.823C131.517 107.969 131.485 107.114 131.469 106.259C131.469 105.953 131.95 105.953 131.95 106.259Z" fill="#2F1E45" stroke="black" stroke-width="0.25" stroke-miterlimit="10"/>
<path d="M127.86 118.547C126.208 118.193 124.604 117.58 123.144 116.725C122.872 116.564 123.112 116.145 123.385 116.306C124.813 117.144 126.368 117.741 127.988 118.08C128.293 118.144 128.165 118.612 127.86 118.547Z" fill="#2F1E45" stroke="black" stroke-width="0.25" stroke-miterlimit="10"/>
<path d="M29.6948 143.948C34.2181 135.513 41.4361 128.918 50.2741 125.192C63.9883 119.435 79.4989 120.435 91.6412 110.549C98.2176 105.195 101.458 98.1156 103.206 89.9232C103.318 89.4233 103.479 87.4074 103.687 85.3109C100.992 88.875 94.4963 89.391 88.4974 86.3431C82.0012 83.0371 78.0233 77.6185 80.75 72.3934C83.3164 67.4748 90.0372 67.12 96.5334 70.426C100.912 72.6515 103.912 76.2155 104.73 79.6505C106.125 78.1507 107.681 76.8122 109.43 75.7639C110.183 75.9252 110.921 76.3122 111.499 76.8283C112.188 77.4411 112.718 78.1991 113.167 78.9893C113.295 79.215 113.423 79.4408 113.6 79.6505C114.161 80.2955 114.963 80.6987 115.525 81.3599C116.102 82.0372 116.567 82.8274 116.92 83.6499C117.642 85.3109 113.985 86.9397 114.29 88.7137C116.086 99.1316 118.861 109.969 118.027 120.419C118.027 120.419 118.091 125.16 115.829 131.288C113.039 140.98 108.724 150.189 103.11 158.559C96.8061 167.977 88.8984 176.314 79.8679 183.12C70.709 190.038 59.7377 195.94 47.9162 194.924C42.607 194.457 37.3459 192.602 33.2717 189.103C29.3901 185.764 26.8076 181.168 25.4122 176.282C22.3325 165.574 24.4818 153.624 29.6788 143.948H29.6948Z" fill="#111DAA"/>
<path d="M201.451 69.3279C197.842 70.6664 194.907 73.4402 192.741 76.5688C190.111 80.3586 188.442 84.7934 187.496 89.2928C186.421 94.4534 186.277 99.8397 187.031 105.049C187.721 109.79 189.164 114.467 191.586 118.595C193.575 121.998 196.302 125.11 199.831 126.933C200.216 127.142 200.617 127.32 201.018 127.481C201.307 127.594 201.178 128.061 200.889 127.949C197.216 126.449 194.281 123.578 192.084 120.305C189.421 116.337 187.753 111.709 186.871 107.016C185.876 101.743 185.812 96.2757 186.678 90.97C187.464 86.2287 189.004 81.552 191.554 77.4719C193.639 74.1014 196.495 71.0535 200.104 69.344C200.505 69.1505 200.922 68.9893 201.323 68.828C201.611 68.7151 201.74 69.1828 201.451 69.2957V69.3279Z" fill="#2F1E45"/>
<path d="M243.524 69.4094C239.947 70.8125 237.044 73.6024 234.895 76.7471C232.28 80.5853 230.628 85.0362 229.714 89.5679C228.671 94.7123 228.543 100.082 229.329 105.275C230.035 109.952 231.478 114.58 233.884 118.66C235.873 122.031 238.584 125.127 242.081 126.95C242.466 127.159 242.867 127.337 243.268 127.498C243.556 127.611 243.428 128.078 243.139 127.966C239.498 126.466 236.579 123.611 234.382 120.37C231.735 116.435 230.067 111.855 229.169 107.194C228.158 101.953 228.078 96.5346 228.912 91.2612C229.666 86.5038 231.19 81.7948 233.708 77.6663C235.777 74.2958 238.584 71.2156 242.161 69.4578C242.562 69.2643 242.963 69.0869 243.38 68.9256C243.669 68.8128 243.797 69.2804 243.508 69.3933L243.524 69.4094Z" fill="#2F1E45"/>
<path d="M113.809 98.5184C114.579 96.6961 116.632 95.6801 118.557 95.922C122.278 96.4058 126.192 102.969 123.369 106.162C122.535 107.098 121.252 107.517 120.017 107.469C116.311 107.307 112.253 102.211 113.793 98.5184H113.809Z" fill="#FFC697"/>
<path d="M116.488 98.9703C116.151 99.9056 116.151 100.954 116.552 101.857C116.905 102.663 117.53 103.308 118.3 103.712C118.573 103.857 118.332 104.276 118.059 104.131C117.209 103.679 116.504 102.937 116.119 102.05C115.669 101.034 115.637 99.8734 116.022 98.8251C116.07 98.6961 116.183 98.6155 116.311 98.6477C116.423 98.68 116.52 98.8251 116.488 98.938V98.9703Z" fill="#2F1E45" stroke="black" stroke-width="0.25" stroke-miterlimit="10"/>
<path d="M118.793 110.388C120.234 110.047 121.126 108.598 120.787 107.15C120.449 105.702 119.007 104.804 117.566 105.145C116.126 105.486 115.234 106.935 115.572 108.383C115.911 109.831 117.353 110.729 118.793 110.388Z" fill="#F2CA08"/>
<path d="M266.285 97.5178C266.285 98.7112 266.237 99.8884 266.157 101.066C262.916 106.436 256.132 115.886 248.304 116.386C240.46 116.87 233.692 108.274 230.452 103.307C230.371 102.162 230.323 100.985 230.323 99.7917C230.323 98.5983 230.371 97.421 230.452 96.2599C233.692 90.8897 240.477 81.4233 248.304 80.9395C256.132 80.4557 262.916 89.0513 266.157 94.0183C266.237 95.1794 266.285 96.3405 266.285 97.55V97.5178Z" fill="#FBDFC4"/>
<path d="M257.387 98.9196C257.648 91.2645 254.192 84.9326 249.667 84.7769C245.143 84.6212 241.265 90.7008 241.004 98.3559C240.743 106.011 244.2 112.343 248.724 112.499C253.248 112.654 257.127 106.575 257.387 98.9196Z" fill="#3B87FF"/>
<path d="M224.004 97.5178C224.004 98.7112 223.955 99.8884 223.875 101.066C220.635 106.436 213.85 115.886 206.023 116.386C198.179 116.87 191.41 108.274 188.17 103.307C188.09 102.162 188.042 100.985 188.042 99.7917C188.042 98.5983 188.09 97.421 188.17 96.2599C191.41 90.8897 198.195 81.4233 206.023 80.9395C213.85 80.4557 220.635 89.0513 223.875 94.0183C223.955 95.1794 224.004 96.3405 224.004 97.55V97.5178Z" fill="#FBDFC4"/>
<path d="M215.104 98.9274C215.365 91.2723 211.908 84.9404 207.384 84.7847C202.86 84.6291 198.981 90.7086 198.721 98.3637C198.46 106.019 201.917 112.351 206.441 112.506C210.965 112.662 214.844 106.583 215.104 98.9274Z" fill="#3B87FF"/>
<path d="M114.947 179.748L130.057 193.536" stroke="#2F1E45" stroke-width="0.75" stroke-miterlimit="10" stroke-linecap="round"/>
<path d="M32.5986 181.748C32.5986 181.748 40.6828 202.116 66.3146 185.651" stroke="#516BED" stroke-linecap="round" stroke-linejoin="round"/>
<path d="M86.1398 80.5535C86.1398 80.5535 81.3118 78.1667 83.1564 72.6191" stroke="#516BED" stroke-linecap="round" stroke-linejoin="round"/>
<path fill-rule="evenodd" clip-rule="evenodd" d="M48.0927 58.0084C48.0927 58.0084 31.7159 56.1861 28.957 67.378C28.957 67.378 31.7961 81.5696 49.809 70.5066L55.3107 62.7174L48.0927 58.0084Z" fill="#6ABA74"/>
<path fill-rule="evenodd" clip-rule="evenodd" d="M69.7466 50.7677C69.7466 50.7677 80.75 38.4307 73.2914 29.6739C73.2914 29.6739 60.1547 23.7393 58.6309 44.9137L61.7426 53.9446L69.7466 50.7677Z" fill="#6ABA74"/>
<path fill-rule="evenodd" clip-rule="evenodd" d="M37.4901 48.9456C40.8906 52.4612 47.8519 55.2189 53.2574 53.6384L59.2724 59.8311L56.1767 60.6213C52.1025 56.6219 44.1948 55.5898 39.0941 56.9606C19.9263 62.1211 24.7223 80.1185 43.8901 74.958C49.0389 73.5711 55.4709 68.604 56.9145 63.0081L61.2613 61.8953L76.8201 75.6514C77.173 76.0223 77.4136 76.0707 77.9269 75.5708C78.4401 75.0709 78.1995 74.3774 77.9269 74.071L63.0418 60.1698L64.2608 55.8317C69.8748 54.5093 74.9595 48.1715 76.4672 43.0271C82.0652 23.9008 64.2929 18.6273 58.6949 37.7697C57.2032 42.8658 58.0373 50.8324 61.919 55.0253L61.0528 58.1217L55.0378 51.929C56.7381 46.5427 54.1717 39.4792 50.7552 35.9635C38.0515 22.8686 24.8025 35.8829 37.5061 48.9617L37.4901 48.9456ZM44.6119 41.1564L46.3121 35.0927C47.2745 35.6894 48.2529 36.4635 49.2314 37.4472C49.4399 37.6569 49.6484 37.8826 49.8409 38.1407L48.0123 44.6397L44.6279 41.1564H44.6119ZM51.5892 40.979C52.8724 43.656 53.5622 46.9458 52.8724 49.6713L49.9852 46.7039L51.5892 40.979ZM51.1241 51.4291C48.3973 52.0742 45.1251 51.2839 42.4785 49.9132L48.2208 48.4295L51.1241 51.4291ZM39.7036 48.0747C39.463 47.8651 39.2385 47.6554 39.0299 47.4458C38.0515 46.462 37.2976 45.4622 36.7202 44.4785L42.8314 42.898L46.2159 46.3814L39.6876 48.0747H39.7036ZM35.6936 42.1885C34.9718 39.8501 35.2926 37.7375 36.3192 36.1893L40.8585 40.8661L35.6936 42.1885ZM38.0996 34.4638C39.6715 33.5123 41.7567 33.2381 44.0505 34.0122L42.6229 39.1083C40.249 36.657 39.7838 36.1893 38.0996 34.4638ZM40.7783 64.6369L36.6079 60.3472C37.5222 59.9279 38.5648 59.557 39.7036 59.2505C40.1527 59.1377 40.6179 59.0409 41.1312 58.9603L45.478 63.4435L40.7783 64.653V64.6369ZM44.4033 58.7667C47.5311 58.8635 50.8835 59.7021 52.9526 61.5083L48.2529 62.7178L44.4194 58.7667H44.4033ZM53.514 63.9434C52.5677 66.6205 49.9852 69.1524 47.2745 70.8457L48.8624 65.1368L53.5301 63.9434H53.514ZM44.2911 72.3293C43.9542 72.4583 43.6174 72.5712 43.2805 72.6519C41.9813 73.0066 40.7783 73.2002 39.6555 73.2969L41.3718 67.0559L46.0715 65.8464L44.275 72.3293H44.2911ZM37.1212 73.2647C34.0576 72.9421 31.9884 71.5391 31.1062 69.7007L38.645 67.7655L37.1372 73.1357C37.1372 73.1357 37.1212 73.2163 37.1212 73.2485V73.2647ZM30.625 67.2655C30.7373 65.3303 31.9403 63.2661 34.3623 61.5889L38.0194 65.3465C34.25 66.3141 33.9613 66.3947 30.625 67.2494V67.2655ZM66.1856 39.705L64.8703 44.3978L60.5716 39.9952C60.6679 39.4308 60.7801 38.8986 60.9245 38.4148C61.2453 37.3182 61.6142 36.3345 62.0313 35.4475L66.1696 39.705H66.1856ZM60.3471 43.3012L64.1004 47.1716L62.8172 51.7677C61.133 49.6874 60.3952 46.3975 60.3471 43.3173V43.3012ZM65.1751 52.4773L66.4743 47.8328L72.2327 46.3653C70.4683 49.0585 67.8698 51.6065 65.1751 52.4612V52.4773ZM73.8046 43.4141L67.2442 45.0752L68.5595 40.3823L74.8793 38.7857C74.767 39.8823 74.5264 41.0757 74.1575 42.3336C74.0612 42.6723 73.9329 43.0432 73.7886 43.4141H73.8046ZM74.9434 36.2538C74.9434 36.2538 74.7991 36.2538 74.7349 36.2538L69.3455 37.6407L71.4788 29.9967C73.3234 30.932 74.7028 33.0769 74.9434 36.2377V36.2538ZM69.0568 29.4967C68.0944 32.8995 68.0142 33.1736 66.9555 36.9634L63.3145 33.222C65.0307 30.7707 67.1159 29.5774 69.0568 29.4967Z" fill="#00843C"/>
</g>
<defs>
<clipPath id="clip0_1241_90401">
<rect width="244" height="226" fill="white" transform="translate(24.001)"/>
</clipPath>
</defs>
</svg>
