<?xml version="1.0" encoding="UTF-8"?>
<svg xmlns="http://www.w3.org/2000/svg" xmlns:xlink="http://www.w3.org/1999/xlink" width="297px" height="236px" viewBox="0 0 297 236" version="1.1">
<defs>
<clipPath id="clip1">
  <path d="M 14.683594 0 L 283.257812 0 L 283.257812 236 L 14.683594 236 Z M 14.683594 0 "/>
</clipPath>
<clipPath id="clip2">
  <path d="M 34 105 L 263.730469 105 L 263.730469 209.558594 L 34 209.558594 Z M 34 105 "/>
</clipPath>
</defs>
<g id="surface1">
<g clip-path="url(#clip1)" clip-rule="nonzero">
<path style=" stroke:none;fill-rule:nonzero;fill:rgb(89.019608%,89.019608%,99.215686%);fill-opacity:1;" d="M 117.242188 225.707031 C 117.242188 225.707031 219.242188 252.996094 257.585938 218.695312 C 257.585938 218.695312 308.699219 187.011719 266.671875 115.292969 C 266.671875 115.292969 230.964844 33.734375 168.453125 6.011719 C 168.453125 6.011719 94.1875 -31.554688 53.691406 81.285156 C 53.691406 81.285156 51.351562 87.441406 48.3125 94.871094 C 43.878906 105.648438 38.125 115.777344 31.378906 125.167969 C 20.21875 140.675781 2.667969 171.890625 26.808594 189.46875 C 26.808594 189.46875 45.738281 211.023438 117.257812 225.726562 Z M 117.242188 225.707031 "/>
</g>
<path style=" stroke:none;fill-rule:nonzero;fill:rgb(100%,64.705882%,52.156863%);fill-opacity:1;" d="M 5.257812 115.304688 C 3.753906 114.136719 3.136719 112.671875 3.453125 110.632812 C 3.628906 109.5 4.292969 108.613281 5.179688 108.003906 C 5.179688 108.003906 5.179688 107.988281 5.179688 107.96875 C 5.351562 106.785156 6.082031 105.847656 7.046875 105.242188 C 7.953125 104.664062 8.996094 104.386719 10.042969 104.1875 C 11.386719 103.925781 12.75 103.726562 14.109375 103.597656 C 19.289062 103.054688 24.464844 103.300781 29.613281 103.890625 C 29.074219 103.054688 28.535156 102.230469 28 101.394531 C 27.316406 100.339844 26.667969 99.238281 26.351562 97.972656 C 25.433594 94.386719 29.121094 93.136719 31.671875 94.570312 C 33.824219 95.769531 35.804688 97.460938 37.734375 99.023438 C 39.761719 100.667969 41.789062 102.296875 43.707031 104.054688 C 51.59375 111.242188 56.722656 118.625 59.367188 125.21875 C 59.445312 125.402344 58.828125 130.414062 56.277344 133.558594 C 57.386719 134.742188 58.492188 135.925781 59.570312 137.140625 C 57.859375 139.3125 55.359375 142.371094 52.890625 145.28125 C 50.894531 141.828125 46.585938 151.183594 44.007812 148.160156 C 43.453125 145.921875 32.238281 124.84375 32.238281 124.84375 C 16.453125 122.554688 7.046875 122.800781 5.179688 120.632812 C 4.402344 119.726562 4.339844 118.214844 4.515625 117 C 4.609375 116.355469 4.878906 115.78125 5.242188 115.304688 Z M 5.257812 115.304688 "/>
<path style=" stroke:none;fill-rule:nonzero;fill:rgb(12.156863%,13.72549%,23.529412%);fill-opacity:1;" d="M 22.34375 113.542969 C 16.503906 112.179688 10.53125 112.621094 4.925781 114.828125 C 4.402344 115.023438 4.625 115.914062 5.164062 115.699219 C 10.609375 113.558594 16.421875 113.082031 22.105469 114.414062 C 22.660156 114.546875 22.882812 113.675781 22.34375 113.542969 Z M 22.34375 113.542969 "/>
<path style=" stroke:none;fill-rule:nonzero;fill:rgb(12.156863%,13.72549%,23.529412%);fill-opacity:1;" d="M 25.988281 106.816406 C 23.34375 109.628906 21.695312 113.296875 21.285156 117.195312 C 21.222656 117.769531 22.09375 117.769531 22.15625 117.195312 C 22.535156 113.542969 24.132812 110.089844 26.589844 107.460938 C 26.984375 107.046875 26.367188 106.390625 25.972656 106.816406 Z M 25.988281 106.816406 "/>
<path style=" stroke:none;fill-rule:nonzero;fill:rgb(12.156863%,13.72549%,23.529412%);fill-opacity:1;" d="M 25.039062 108.085938 C 18.6875 106.160156 11.625 106.128906 5.292969 108.132812 C 4.753906 108.296875 4.992188 109.1875 5.53125 109.003906 C 11.722656 107.03125 18.609375 107.082031 24.816406 108.957031 C 25.355469 109.121094 25.589844 108.25 25.050781 108.085938 Z M 25.039062 108.085938 "/>
<path style=" stroke:none;fill-rule:nonzero;fill:rgb(12.156863%,13.72549%,23.529412%);fill-opacity:1;" d="M 28.996094 104.058594 C 30.074219 105.011719 31.226562 105.882812 32.429688 106.65625 C 32.90625 106.96875 33.351562 106.179688 32.875 105.867188 C 31.734375 105.125 30.640625 104.304688 29.613281 103.414062 C 29.4375 103.25 29.167969 103.234375 28.996094 103.414062 C 28.839844 103.582031 28.820312 103.894531 28.996094 104.058594 Z M 28.996094 104.058594 "/>
<path style=" stroke:none;fill-rule:nonzero;fill:rgb(12.156863%,13.72549%,23.529412%);fill-opacity:1;" d="M 32.164062 106.40625 C 31.734375 110.335938 33.730469 114.367188 37.023438 116.324219 C 37.511719 116.617188 37.957031 115.828125 37.46875 115.535156 C 34.414062 113.722656 32.640625 110.023438 33.035156 106.40625 C 33.097656 105.832031 32.222656 105.832031 32.164062 106.40625 Z M 32.164062 106.40625 "/>
<path style=" stroke:none;fill-rule:nonzero;fill:rgb(6.666667%,11.372549%,66.666667%);fill-opacity:1;" d="M 189.339844 100.078125 C 187.421875 98.105469 185.109375 96.507812 182.671875 95.40625 C 181.769531 94.996094 166.3125 88.847656 166.820312 88.238281 C 166.535156 88.601562 161.65625 105.472656 160.742188 107.261719 C 159.757812 109.171875 159.726562 111.359375 159.757812 113.464844 C 159.789062 115.550781 160.265625 117.621094 161.992188 118.90625 C 163.625 120.121094 165.714844 120.648438 167.640625 121.09375 C 171.84375 122.046875 176.148438 122.113281 180.421875 122.144531 C 181.671875 122.144531 182.925781 122.179688 184.128906 121.800781 C 185.238281 121.453125 186.140625 120.730469 186.960938 119.910156 C 188.609375 118.28125 190.210938 116.605469 191.824219 114.941406 C 192.503906 115.453125 193.695312 115.125 193.914062 114.070312 C 195.054688 108.644531 192.902344 103.710938 189.339844 100.042969 Z M 189.339844 100.078125 "/>
<path style=" stroke:none;fill-rule:nonzero;fill:rgb(6.666667%,11.372549%,66.666667%);fill-opacity:1;" d="M 142.4375 98.8125 C 141.230469 94.960938 139.015625 91.574219 137.714844 87.777344 C 136.277344 83.582031 137.464844 79.882812 137.210938 75.722656 C 136.832031 69.328125 132.617188 73.503906 132.457031 76.21875 C 132.160156 81.460938 129.085938 85.457031 124.761719 87.53125 C 119.773438 89.914062 114.296875 87.84375 109.089844 87.910156 C 104.210938 87.972656 99.347656 88.78125 94.914062 91.015625 C 86.917969 95.046875 81.628906 103.070312 80.585938 112.195312 C 78.085938 134.148438 108.832031 130.152344 119.789062 128.0625 C 123.589844 127.339844 127.359375 126.5 131.113281 125.53125 C 132.835938 125.085938 134.628906 124.710938 136.242188 123.921875 C 137.921875 123.113281 139.203125 121.863281 140.21875 120.269531 C 142.117188 117.261719 143.164062 113.527344 143.527344 109.976562 C 143.910156 106.226562 143.578125 102.394531 142.449219 98.792969 Z M 142.4375 98.8125 "/>
<path style=" stroke:none;fill-rule:nonzero;fill:rgb(100%,64.705882%,52.156863%);fill-opacity:1;" d="M 291.742188 110.109375 C 293.246094 108.941406 293.863281 107.476562 293.546875 105.4375 C 293.371094 104.304688 292.707031 103.414062 291.820312 102.808594 C 291.820312 102.808594 291.820312 102.789062 291.820312 102.773438 C 291.644531 101.589844 290.917969 100.652344 289.953125 100.042969 C 289.046875 99.46875 288.003906 99.1875 286.957031 98.992188 C 285.613281 98.726562 284.25 98.53125 282.890625 98.398438 C 277.710938 97.855469 272.53125 98.105469 267.386719 98.695312 C 267.925781 97.855469 268.464844 97.035156 269 96.195312 C 269.683594 95.144531 270.332031 94.042969 270.648438 92.777344 C 271.566406 89.191406 267.878906 87.941406 265.328125 89.371094 C 263.175781 90.574219 261.195312 92.265625 259.265625 93.828125 C 257.234375 95.472656 255.210938 97.101562 253.292969 98.859375 C 245.40625 106.046875 243.097656 109.085938 236.367188 122.570312 C 236.273438 122.753906 238.171875 125.21875 240.722656 128.359375 C 239.613281 129.542969 238.503906 130.726562 237.429688 131.945312 C 239.136719 134.117188 241.640625 137.175781 244.109375 140.085938 C 246.105469 136.632812 250.414062 145.988281 252.992188 142.960938 C 253.546875 140.726562 264.757812 119.644531 264.757812 119.644531 C 280.542969 117.359375 289.953125 117.605469 291.820312 115.433594 C 292.597656 114.53125 292.660156 113.019531 292.484375 111.800781 C 292.390625 111.160156 292.117188 110.585938 291.757812 110.109375 Z M 291.742188 110.109375 "/>
<g clip-path="url(#clip2)" clip-rule="nonzero">
<path style=" stroke:none;fill-rule:nonzero;fill:rgb(62.352941%,64.313725%,100%);fill-opacity:1;" d="M 263.523438 141.515625 C 263.460938 141.730469 263.398438 141.941406 263.332031 142.15625 C 260.609375 151.660156 257.519531 161.101562 253.925781 170.277344 C 252.171875 174.765625 250.269531 179.203125 248.128906 183.496094 C 246.105469 187.558594 243.746094 191.488281 240.5 194.628906 C 237.472656 197.539062 233.59375 199.710938 229.445312 200.121094 C 225.140625 200.546875 221.070312 198.921875 217.539062 196.46875 C 214.042969 194.035156 211.03125 190.847656 208.179688 187.65625 C 205.285156 184.417969 202.574219 180.980469 200.105469 177.378906 C 197.160156 173.105469 194.546875 168.582031 192.316406 163.863281 L 192.535156 193.066406 C 192.566406 196.863281 189.605469 199.972656 185.933594 199.972656 L 121.597656 199.972656 C 116.136719 199.972656 111.621094 195.566406 111.289062 189.910156 C 110.8125 181.835938 110.148438 170.703125 109.671875 163.46875 C 105.414062 171.410156 101.171875 178.828125 96.402344 186.457031 C 88.613281 198.921875 82.5625 213.390625 65.460938 208.621094 C 56.25 206.058594 45.9375 188.890625 41.410156 175.882812 C 38.273438 166.886719 35.835938 157.679688 34.0625 148.324219 C 36.914062 145.414062 39.796875 142.535156 42.785156 139.789062 C 49.675781 133.457031 52.449219 131.519531 59.414062 125.253906 C 60.253906 127.0625 61.09375 128.851562 61.917969 130.664062 C 64.433594 136.15625 67 141.613281 69.613281 147.074219 C 71.972656 142.171875 74.378906 137.289062 77.117188 132.601562 C 80.886719 126.171875 85.464844 120.15625 91.480469 115.828125 C 94.25 113.824219 97.320312 112.195312 100.566406 111.175781 C 104.195312 110.042969 107.945312 109.730469 111.71875 110.089844 C 125.476562 111.421875 145.761719 114.976562 161.578125 114.53125 C 182.621094 113.9375 183.210938 102.574219 194.578125 106.046875 C 201.230469 108.085938 206.722656 112.261719 210.429688 117.753906 C 214.976562 124.464844 223.445312 139.722656 224.648438 142.617188 C 226.359375 139.34375 228.117188 136.105469 229.921875 132.882812 C 231.585938 129.90625 233.292969 126.960938 235.050781 124.050781 C 236.144531 122.242188 237.222656 120.382812 238.363281 118.59375 C 242.746094 122.964844 247.46875 126.996094 252.152344 131.039062 C 256.046875 134.429688 259.804688 137.996094 263.585938 141.53125 Z M 263.523438 141.515625 "/>
</g>
<path style=" stroke:none;fill-rule:nonzero;fill:rgb(12.156863%,13.72549%,23.529412%);fill-opacity:1;" d="M 210.539062 168.582031 C 214.324219 162.070312 218.09375 155.542969 221.875 149.03125 C 222.953125 147.1875 224.015625 145.332031 225.09375 143.488281 C 225.378906 142.980469 224.632812 142.535156 224.332031 143.027344 C 220.546875 149.539062 216.78125 156.070312 212.992188 162.582031 C 211.917969 164.421875 210.859375 166.28125 209.78125 168.121094 C 209.496094 168.632812 210.242188 169.074219 210.539062 168.582031 Z M 210.539062 168.582031 "/>
<path style=" stroke:none;fill-rule:nonzero;fill:rgb(12.156863%,13.72549%,23.529412%);fill-opacity:1;" d="M 193.929688 145.675781 C 193.328125 150.558594 192.726562 155.445312 192.125 160.328125 C 192.0625 160.902344 192.933594 160.902344 192.996094 160.328125 C 193.59375 155.445312 194.199219 150.558594 194.800781 145.675781 C 194.863281 145.101562 193.996094 145.101562 193.929688 145.675781 Z M 193.929688 145.675781 "/>
<path style=" stroke:none;fill-rule:nonzero;fill:rgb(12.156863%,13.72549%,23.529412%);fill-opacity:1;" d="M 69.34375 147.484375 C 72.335938 154.523438 75.34375 161.5625 78.335938 168.597656 C 79.191406 170.605469 80.046875 172.59375 80.886719 174.601562 C 81.109375 175.128906 81.867188 174.667969 81.644531 174.140625 C 78.652344 167.101562 75.644531 160.066406 72.652344 153.027344 C 71.796875 151.019531 70.941406 149.03125 70.101562 147.023438 C 69.878906 146.5 69.121094 146.957031 69.34375 147.484375 Z M 69.34375 147.484375 "/>
<path style=" stroke:none;fill-rule:nonzero;fill:rgb(12.156863%,13.72549%,23.529412%);fill-opacity:1;" d="M 37.433594 161.90625 C 44.546875 155.476562 51.636719 149.0625 58.75 142.632812 C 60.742188 140.824219 62.753906 139.015625 64.75 137.207031 C 65.179688 136.828125 64.5625 136.1875 64.132812 136.566406 C 57.023438 142.996094 49.929688 149.410156 42.820312 155.839844 C 40.824219 157.648438 38.8125 159.457031 36.816406 161.265625 C 36.390625 161.644531 37.007812 162.285156 37.433594 161.90625 Z M 37.433594 161.90625 "/>
<path style=" stroke:none;fill-rule:nonzero;fill:rgb(12.156863%,13.72549%,23.529412%);fill-opacity:1;" d="M 232.4375 128.394531 C 239.28125 134.988281 246.121094 141.566406 252.945312 148.15625 C 254.894531 150.035156 256.824219 151.90625 258.769531 153.765625 C 259.1875 154.160156 259.800781 153.519531 259.390625 153.125 C 252.546875 146.53125 245.707031 139.953125 238.882812 133.359375 C 236.9375 131.484375 235.003906 129.609375 233.054688 127.75 C 232.644531 127.355469 232.027344 128 232.4375 128.394531 Z M 232.4375 128.394531 "/>
<path style=" stroke:none;fill-rule:nonzero;fill:rgb(12.156863%,13.72549%,23.529412%);fill-opacity:1;" d="M 107.867188 148.4375 C 108.535156 153.421875 109.199219 158.417969 109.847656 163.402344 C 109.929688 163.976562 110.765625 163.730469 110.6875 163.15625 C 110.023438 158.171875 109.355469 153.171875 108.707031 148.191406 C 108.628906 147.617188 107.789062 147.863281 107.867188 148.4375 Z M 107.867188 148.4375 "/>
<path style=" stroke:none;fill-rule:nonzero;fill:rgb(12.156863%,13.72549%,23.529412%);fill-opacity:1;" d="M 147.945312 119.808594 C 148.578125 129.640625 149.210938 139.492188 149.863281 149.328125 C 150.527344 159.585938 151.191406 169.847656 151.855469 180.109375 C 152.207031 185.484375 152.554688 190.847656 152.902344 196.222656 C 152.933594 196.800781 153.824219 196.816406 153.773438 196.222656 C 153.140625 186.390625 152.507812 176.539062 151.855469 166.707031 C 151.191406 156.445312 150.527344 146.183594 149.863281 135.925781 C 149.511719 130.546875 149.167969 125.1875 148.816406 119.808594 C 148.785156 119.234375 147.898438 119.21875 147.945312 119.808594 Z M 147.945312 119.808594 "/>
<path style=" stroke:none;fill-rule:nonzero;fill:rgb(100%,64.705882%,52.156863%);fill-opacity:1;" d="M 145.710938 88.371094 L 142.242188 105.933594 C 142.242188 105.933594 141.058594 120.5 153.078125 121.964844 C 158.035156 122.574219 161.132812 119.761719 161.167969 119.382812 C 161.199219 119.003906 161.945312 103.644531 161.945312 103.644531 L 145.699219 88.386719 Z M 145.710938 88.371094 "/>
<path style=" stroke:none;fill-rule:nonzero;fill:rgb(100%,100%,100%);fill-opacity:1;" d="M 143.371094 110.484375 C 143.371094 110.484375 154.785156 121.027344 161.519531 114.53125 L 161.296875 118.558594 C 161.261719 119.152344 161.214844 119.742188 161.136719 120.335938 C 160.347656 126.550781 155.613281 162.613281 152.03125 162.613281 C 146.582031 162.613281 142.53125 119.957031 141.675781 113.707031 C 140.882812 107.921875 143.371094 110.503906 143.371094 110.503906 Z M 143.371094 110.484375 "/>
<path style=" stroke:none;fill-rule:nonzero;fill:rgb(100%,64.705882%,52.156863%);fill-opacity:1;" d="M 134.265625 68.832031 C 134.488281 68.027344 134.769531 67.238281 135.136719 66.480469 C 139.460938 57.617188 150.828125 57.898438 158.601562 61.171875 C 164.492188 63.636719 167.390625 67.519531 167.597656 73.289062 C 167.722656 76.628906 166.648438 83.765625 166.648438 83.765625 C 166.648438 83.765625 168.230469 93.449219 168.230469 96.691406 C 168.230469 102.855469 165.980469 108.511719 158.207031 108.464844 C 151.015625 108.414062 144.683594 102.164062 140.4375 96.359375 C 135.324219 89.371094 132.886719 81.9375 133.550781 73.191406 C 133.664062 71.726562 133.867188 70.246094 134.25 68.851562 Z M 134.265625 68.832031 "/>
<path style=" stroke:none;fill-rule:nonzero;fill:rgb(6.666667%,11.372549%,66.666667%);fill-opacity:1;" d="M 169.214844 66.203125 C 167.742188 63.671875 164.890625 61.105469 161.863281 61.371094 C 159.425781 61.582031 160.425781 64.542969 160.679688 65.628906 C 161.355469 68.523438 162.53125 71.976562 164.148438 74.539062 C 165.015625 75.9375 166.28125 77.074219 167.753906 77.730469 C 168.546875 78.074219 169.671875 78.371094 170.542969 78.125 C 171.777344 77.78125 171.757812 76.628906 171.746094 75.496094 C 171.746094 72.335938 170.765625 68.917969 169.195312 66.21875 Z M 169.214844 66.203125 "/>
<path style=" stroke:none;fill-rule:nonzero;fill:rgb(6.666667%,11.372549%,66.666667%);fill-opacity:1;" d="M 161.355469 62.109375 C 161.628906 61.632812 161.613281 60.992188 161.089844 60.53125 C 159.125 58.820312 156.464844 57.980469 153.960938 57.652344 C 151.507812 57.324219 148.988281 57.503906 146.582031 58.113281 C 141.484375 59.394531 136.292969 62.652344 134.042969 67.75 C 131.492188 73.539062 132.835938 79.902344 132.601562 86.019531 C 132.414062 90.984375 130.796875 96.394531 125.714844 97.90625 C 122.925781 98.746094 119.933594 98.613281 117.210938 99.765625 C 116.054688 100.257812 114.851562 101.128906 113.996094 102.199219 C 113.570312 101.917969 112.96875 101.953125 112.574219 102.25 C 109.132812 104.8125 119.15625 112.738281 120.820312 113.988281 C 123.75 116.191406 127.109375 117.789062 130.652344 118.527344 C 132.9375 119.003906 135.34375 119.121094 137.574219 118.378906 C 139.648438 117.691406 141.453125 116.191406 142.832031 114.46875 C 145.570312 111.011719 146.820312 106.457031 146.996094 102.035156 C 147.21875 96.820312 146.265625 91.675781 145.382812 86.542969 C 148.691406 85.246094 151.667969 83.109375 154.261719 80.625 C 157.683594 77.351562 160.980469 73.472656 161.929688 68.605469 C 162.339844 66.484375 162.246094 64.082031 161.355469 62.09375 Z M 161.355469 62.109375 "/>
<path style=" stroke:none;fill-rule:nonzero;fill:rgb(31.764706%,41.960784%,92.941176%);fill-opacity:1;" d="M 99.382812 102.511719 C 103.246094 100.457031 107.773438 99.964844 111.96875 101.148438 C 112.507812 101.292969 112.746094 100.421875 112.207031 100.277344 C 107.789062 99.042969 103.023438 99.570312 98.9375 101.738281 C 98.433594 102 98.875 102.792969 99.382812 102.527344 Z M 99.382812 102.511719 "/>
<path style=" stroke:none;fill-rule:nonzero;fill:rgb(31.764706%,41.960784%,92.941176%);fill-opacity:1;" d="M 105.746094 105.308594 C 109.6875 104.535156 113.757812 104.765625 117.589844 105.996094 C 118.128906 106.160156 118.367188 105.289062 117.828125 105.125 C 113.839844 103.859375 109.609375 103.628906 105.523438 104.433594 C 104.972656 104.550781 105.207031 105.421875 105.761719 105.308594 Z M 105.746094 105.308594 "/>
<path style=" stroke:none;fill-rule:nonzero;fill:rgb(12.156863%,13.72549%,23.529412%);fill-opacity:1;" d="M 159.125 87.957031 C 159.601562 88.617188 160.074219 89.273438 160.550781 89.914062 C 161.039062 90.605469 161.640625 91.265625 162.023438 92.035156 C 162.179688 92.347656 162.273438 92.726562 162.054688 93.023438 C 161.835938 93.304688 161.453125 93.433594 161.117188 93.53125 C 160.203125 93.796875 159.25 93.730469 158.351562 93.402344 C 157.71875 93.171875 157.445312 94.207031 158.078125 94.4375 C 159.140625 94.832031 160.3125 94.882812 161.40625 94.570312 C 162.355469 94.289062 163.335938 93.613281 163.226562 92.449219 C 163.113281 91.363281 162.261719 90.472656 161.65625 89.652344 C 161.117188 88.914062 160.582031 88.171875 160.042969 87.433594 C 159.867188 87.203125 159.601562 87.085938 159.328125 87.234375 C 159.109375 87.367188 158.984375 87.746094 159.140625 87.976562 Z M 159.125 87.957031 "/>
<path style=" stroke:none;fill-rule:nonzero;fill:rgb(12.156863%,13.72549%,23.529412%);fill-opacity:1;" d="M 150.75 115.171875 C 148.5 114.53125 146.410156 112.902344 145.269531 110.78125 C 145 110.273438 144.289062 110.796875 144.554688 111.308594 C 145.824219 113.640625 148.152344 115.367188 150.621094 116.074219 C 151.160156 116.242188 151.300781 115.335938 150.765625 115.171875 Z M 150.75 115.171875 "/>
<path style=" stroke:none;fill-rule:nonzero;fill:rgb(12.156863%,13.72549%,23.529412%);fill-opacity:1;" d="M 165.097656 78.15625 C 168.4375 79.160156 170.558594 81.003906 170.445312 81.988281 C 170.351562 82.8125 168.769531 82.480469 166.472656 81.378906 C 163.984375 80.179688 161.816406 80.507812 161.375 79.011719 C 161.023438 77.8125 161.957031 77.21875 165.078125 78.15625 Z M 165.097656 78.15625 "/>
<path style=" stroke:none;fill-rule:nonzero;fill:rgb(12.156863%,13.72549%,23.529412%);fill-opacity:1;" d="M 152.445312 78.15625 C 149.117188 79.175781 146.964844 80.917969 147.042969 81.824219 C 147.105469 82.582031 148.691406 82.21875 150.984375 81.132812 C 153.488281 79.949219 155.613281 80.179688 156.101562 78.816406 C 156.480469 77.714844 155.5625 77.203125 152.457031 78.15625 Z M 152.445312 78.15625 "/>
<path style=" stroke:none;fill-rule:nonzero;fill:rgb(100%,64.705882%,52.156863%);fill-opacity:1;" d="M 151.808594 90.144531 C 152.585938 93.433594 150.636719 96.753906 147.472656 97.5625 C 144.304688 98.367188 141.105469 96.34375 140.328125 93.054688 C 139.554688 89.765625 141.5 86.445312 144.667969 85.640625 C 147.832031 84.832031 151.03125 86.855469 151.808594 90.144531 Z M 151.808594 90.144531 "/>
<path style=" stroke:none;fill-rule:nonzero;fill:rgb(12.156863%,13.72549%,23.529412%);fill-opacity:1;" d="M 152.855469 85.820312 C 150.921875 85.9375 151.222656 88.433594 151.589844 89.421875 C 151.824219 90.0625 152.316406 90.804688 153.1875 90.753906 C 154.46875 90.65625 154.515625 89.09375 154.457031 88.253906 C 154.375 87.316406 154.121094 85.753906 152.855469 85.820312 Z M 152.855469 85.820312 "/>
<path style=" stroke:none;fill-rule:nonzero;fill:rgb(12.156863%,13.72549%,23.529412%);fill-opacity:1;" d="M 164.542969 85.640625 C 162.53125 85.769531 162.847656 88.351562 163.226562 89.371094 C 163.480469 90.046875 163.984375 90.820312 164.890625 90.753906 C 166.21875 90.652344 166.269531 89.027344 166.203125 88.171875 C 166.125 87.199219 165.851562 85.574219 164.542969 85.65625 Z M 164.542969 85.640625 "/>
<path style=" stroke:none;fill-rule:nonzero;fill:rgb(12.156863%,13.72549%,23.529412%);fill-opacity:1;" d="M 145.632812 88.007812 C 144.273438 88.074219 143.097656 89.207031 142.859375 90.589844 C 142.59375 92.070312 143.289062 93.582031 144.414062 94.484375 C 144.636719 94.667969 144.9375 94.714844 145.144531 94.484375 C 145.316406 94.304688 145.367188 93.910156 145.144531 93.730469 C 144.335938 93.070312 143.703125 92.019531 143.84375 90.917969 C 143.972656 89.996094 144.714844 89.125 145.617188 89.074219 C 146.285156 89.042969 146.285156 87.972656 145.617188 88.007812 Z M 145.632812 88.007812 "/>
<path style=" stroke:none;fill-rule:nonzero;fill:rgb(12.156863%,13.72549%,23.529412%);fill-opacity:1;" d="M 155.46875 99.421875 C 157.207031 100.835938 159.601562 101.179688 161.65625 100.390625 C 161.929688 100.292969 162.007812 99.914062 161.894531 99.667969 C 161.769531 99.386719 161.46875 99.320312 161.199219 99.421875 C 159.472656 100.078125 157.496094 99.699219 156.050781 98.53125 C 155.527344 98.105469 154.945312 98.992188 155.46875 99.421875 Z M 155.46875 99.421875 "/>
<path style=" stroke:none;fill-rule:nonzero;fill:rgb(6.666667%,11.372549%,66.666667%);fill-opacity:1;" d="M 154.785156 116.832031 C 154.660156 116.832031 154.519531 116.832031 154.390625 116.882812 C 153.503906 117.160156 153.046875 118.117188 152.585938 118.808594 C 152.351562 119.167969 151.257812 120.714844 151.289062 121.027344 C 151.414062 122.046875 151.574219 122.425781 152 123.378906 C 152.222656 123.871094 152.457031 124.332031 152.761719 124.777344 C 153.011719 125.171875 153.296875 125.710938 153.824219 125.792969 C 154.390625 125.894531 154.722656 125.417969 155.023438 125.039062 C 155.375 124.59375 155.707031 124.132812 156.023438 123.671875 C 156.625 122.820312 157.195312 121.929688 157.730469 121.042969 C 156.703125 119.660156 155.722656 118.265625 154.773438 116.832031 Z M 154.785156 116.832031 "/>
<path style=" stroke:none;fill-rule:nonzero;fill:rgb(6.666667%,11.372549%,66.666667%);fill-opacity:1;" d="M 158.601562 139 C 156.546875 154.242188 153.773438 164.257812 150.714844 162.957031 C 150.714844 162.957031 148.292969 158.960938 146.914062 150.429688 C 147.675781 145.347656 151.316406 125.367188 153.789062 125.054688 C 155.339844 124.859375 157.222656 134.675781 158.585938 139.015625 Z M 158.601562 139 "/>
<path style=" stroke:none;fill-rule:nonzero;fill:rgb(31.764706%,41.960784%,92.941176%);fill-opacity:1;" d="M 144.191406 80.738281 C 148.988281 77.878906 152.222656 72.664062 152.789062 66.960938 C 152.855469 66.269531 151.824219 66.285156 151.761719 66.960938 C 151.222656 72.269531 148.132812 77.15625 143.671875 79.800781 C 143.082031 80.148438 143.605469 81.066406 144.191406 80.722656 Z M 144.191406 80.738281 "/>
<path style=" stroke:none;fill-rule:nonzero;fill:rgb(31.764706%,41.960784%,92.941176%);fill-opacity:1;" d="M 143.875 72.417969 C 146.316406 70 148.070312 66.875 148.894531 63.472656 C 149.054688 62.796875 148.054688 62.519531 147.898438 63.191406 C 147.105469 66.417969 145.460938 69.359375 143.148438 71.660156 C 142.671875 72.136719 143.398438 72.894531 143.875 72.417969 Z M 143.875 72.417969 "/>
<path style=" stroke:none;fill-rule:nonzero;fill:rgb(12.156863%,13.72549%,23.529412%);fill-opacity:1;" d="M 274.878906 109.238281 C 280.578125 107.902344 286.375 108.378906 291.820312 110.519531 C 292.34375 110.734375 292.582031 109.84375 292.058594 109.648438 C 286.453125 107.445312 280.484375 107 274.640625 108.363281 C 274.082031 108.496094 274.324219 109.367188 274.878906 109.238281 Z M 274.878906 109.238281 "/>
<path style=" stroke:none;fill-rule:nonzero;fill:rgb(12.156863%,13.72549%,23.529412%);fill-opacity:1;" d="M 270.394531 102.28125 C 272.867188 104.910156 274.449219 108.363281 274.828125 112.015625 C 274.894531 112.589844 275.761719 112.589844 275.699219 112.015625 C 275.289062 108.117188 273.640625 104.449219 271 101.636719 C 270.601562 101.210938 269.984375 101.867188 270.378906 102.28125 Z M 270.394531 102.28125 "/>
<path style=" stroke:none;fill-rule:nonzero;fill:rgb(12.156863%,13.72549%,23.529412%);fill-opacity:1;" d="M 272.183594 103.761719 C 278.390625 101.886719 285.277344 101.835938 291.46875 103.8125 C 292.007812 103.976562 292.246094 103.105469 291.707031 102.9375 C 285.375 100.933594 278.3125 100.964844 271.960938 102.890625 C 271.421875 103.054688 271.644531 103.925781 272.199219 103.761719 Z M 272.183594 103.761719 "/>
<path style=" stroke:none;fill-rule:nonzero;fill:rgb(12.156863%,13.72549%,23.529412%);fill-opacity:1;" d="M 267.386719 98.21875 C 266.359375 99.125 265.265625 99.945312 264.125 100.667969 C 263.648438 100.980469 264.09375 101.769531 264.570312 101.457031 C 265.769531 100.6875 266.910156 99.8125 268.003906 98.859375 C 268.175781 98.695312 268.160156 98.382812 268.003906 98.21875 C 267.832031 98.039062 267.558594 98.054688 267.386719 98.21875 Z M 267.386719 98.21875 "/>
<path style=" stroke:none;fill-rule:nonzero;fill:rgb(12.156863%,13.72549%,23.529412%);fill-opacity:1;" d="M 263.949219 101.210938 C 264.347656 104.847656 262.570312 108.53125 259.515625 110.339844 C 259.027344 110.636719 259.46875 111.40625 259.960938 111.128906 C 263.269531 109.171875 265.265625 105.140625 264.820312 101.210938 C 264.757812 100.636719 263.886719 100.636719 263.949219 101.210938 Z M 263.949219 101.210938 "/>
<path style=" stroke:none;fill-rule:nonzero;fill:rgb(12.156863%,13.72549%,23.529412%);fill-opacity:1;" d="M 152.03125 162.597656 C 146.027344 160.574219 140.976562 156.019531 136.816406 151.25 C 132.492188 146.316406 128.785156 140.691406 125.984375 134.691406 C 124.890625 132.355469 123.890625 129.90625 123.308594 127.355469 C 126.980469 127.355469 130.636719 127.390625 134.3125 127.40625 C 134.820312 127.40625 134.898438 126.667969 134.421875 126.519531 C 131.890625 125.695312 129.5 124.414062 127.152344 123.148438 C 125.824219 122.425781 124.507812 121.683594 123.214844 120.910156 C 123.308594 119.53125 123.433594 118.148438 123.609375 116.75 C 123.339844 116.636719 123.070312 116.488281 122.785156 116.339844 C 122.5625 117.949219 122.402344 119.5625 122.308594 121.15625 C 122.308594 121.324219 122.402344 121.46875 122.53125 121.550781 C 123.941406 122.40625 125.382812 123.214844 126.835938 124.003906 C 128.46875 124.890625 130.132812 125.761719 131.84375 126.5 C 128.820312 126.5 125.792969 126.484375 122.769531 126.46875 C 122.46875 126.46875 122.292969 126.765625 122.339844 127.042969 C 122.832031 129.511719 123.75 131.878906 124.761719 134.164062 C 126.0625 137.089844 127.613281 139.902344 129.308594 142.617188 C 132.980469 148.472656 137.414062 153.980469 142.738281 158.289062 C 145.476562 160.492188 148.484375 162.382812 151.792969 163.5 C 152.332031 163.679688 152.554688 162.808594 152.03125 162.628906 Z M 152.03125 162.597656 "/>
<path style=" stroke:none;fill-rule:nonzero;fill:rgb(62.352941%,64.313725%,100%);fill-opacity:1;" d="M 161.53125 109.335938 L 166.679688 114.121094 L 161.375 117.3125 Z M 161.53125 109.335938 "/>
<path style=" stroke:none;fill-rule:nonzero;fill:rgb(12.156863%,13.72549%,23.529412%);fill-opacity:1;" d="M 152.140625 163.433594 C 157.367188 160.902344 161.355469 155.984375 164.507812 151.101562 C 167.945312 145.789062 170.703125 139.902344 172.632812 133.820312 C 173.46875 131.15625 174.179688 128.410156 174.46875 125.597656 C 174.484375 125.367188 174.246094 125.136719 174.023438 125.136719 C 170.191406 125.367188 166.347656 125.597656 162.511719 125.828125 C 162.546875 126.125 162.589844 126.417969 162.625 126.714844 C 165.078125 125.761719 167.390625 124.332031 169.625 122.917969 C 170.984375 122.0625 172.347656 121.171875 173.660156 120.238281 C 173.820312 120.121094 173.914062 119.925781 173.867188 119.726562 C 172.613281 115.453125 163.605469 112.226562 161.863281 108.132812 C 161.640625 107.609375 161.296875 108.777344 161.519531 109.300781 C 163.226562 113.3125 171.097656 115.320312 173.011719 119.957031 C 173.074219 119.792969 173.136719 119.613281 173.21875 119.449219 C 171.9375 120.351562 170.621094 121.207031 169.292969 122.046875 C 167.089844 123.445312 164.808594 124.875 162.386719 125.828125 C 161.957031 125.992188 161.972656 126.75 162.496094 126.714844 C 166.328125 126.484375 170.175781 126.253906 174.007812 126.023438 C 173.867188 125.878906 173.726562 125.730469 173.566406 125.566406 C 173.332031 127.933594 172.757812 130.265625 172.074219 132.535156 C 171.222656 135.414062 170.144531 138.226562 168.925781 140.957031 C 166.347656 146.726562 163.113281 152.351562 158.875 156.972656 C 156.796875 159.242188 154.421875 161.28125 151.683594 162.597656 C 151.175781 162.84375 151.617188 163.632812 152.128906 163.386719 Z M 152.140625 163.433594 "/>
<path style=" stroke:none;fill-rule:nonzero;fill:rgb(94.901961%,79.215686%,3.137255%);fill-opacity:1;" d="M 87.871094 12.054688 C 88.535156 11.9375 88.976562 11.296875 88.882812 10.605469 L 87.410156 1.070312 C 87.296875 0.378906 86.679688 -0.0820312 86.015625 0.015625 C 85.351562 0.117188 84.910156 0.773438 85.003906 1.464844 L 86.476562 11 C 86.585938 11.691406 87.203125 12.167969 87.871094 12.054688 Z M 87.871094 12.054688 "/>
<path style=" stroke:none;fill-rule:nonzero;fill:rgb(94.901961%,79.215686%,3.137255%);fill-opacity:1;" d="M 75.441406 16.132812 C 75.707031 16.542969 76.167969 16.757812 76.640625 16.675781 C 76.816406 16.640625 76.992188 16.574219 77.132812 16.476562 C 77.402344 16.28125 77.589844 16 77.640625 15.671875 C 77.703125 15.34375 77.640625 14.996094 77.453125 14.71875 L 72.242188 6.710938 C 71.972656 6.296875 71.511719 6.101562 71.035156 6.167969 C 70.863281 6.199219 70.707031 6.265625 70.546875 6.363281 C 70.277344 6.5625 70.085938 6.839844 70.023438 7.171875 C 69.960938 7.5 70.023438 7.84375 70.210938 8.125 L 75.421875 16.132812 Z M 75.441406 16.132812 "/>
<path style=" stroke:none;fill-rule:nonzero;fill:rgb(94.901961%,79.215686%,3.137255%);fill-opacity:1;" d="M 67.503906 25.636719 C 67.761719 25.78125 68.042969 25.847656 68.328125 25.800781 C 68.675781 25.734375 68.996094 25.519531 69.183594 25.207031 C 69.355469 24.910156 69.40625 24.582031 69.328125 24.253906 C 69.246094 23.925781 69.054688 23.644531 68.773438 23.480469 L 60.792969 18.515625 C 60.554688 18.367188 60.253906 18.300781 59.964844 18.351562 C 59.605469 18.417969 59.304688 18.628906 59.113281 18.941406 C 58.765625 19.535156 58.953125 20.324219 59.527344 20.667969 Z M 67.503906 25.636719 "/>
<path style=" stroke:none;fill-rule:nonzero;fill:rgb(94.901961%,79.215686%,3.137255%);fill-opacity:1;" d="M 54.933594 36.71875 L 64.195312 37.722656 C 64.289062 37.722656 64.398438 37.722656 64.511719 37.722656 C 65.050781 37.640625 65.476562 37.179688 65.527344 36.605469 C 65.589844 35.914062 65.117188 35.289062 64.433594 35.207031 L 55.171875 34.21875 C 55.058594 34.21875 54.949219 34.21875 54.855469 34.21875 C 54.316406 34.300781 53.902344 34.761719 53.839844 35.339844 C 53.777344 36.027344 54.253906 36.652344 54.933594 36.71875 Z M 54.933594 36.71875 "/>
<path style=" stroke:none;fill-rule:nonzero;fill:rgb(94.901961%,79.215686%,3.137255%);fill-opacity:1;" d="M 66.855469 48.507812 C 66.667969 47.933594 66.09375 47.570312 65.527344 47.671875 C 65.445312 47.671875 65.382812 47.703125 65.304688 47.738281 L 56.515625 50.894531 C 56.214844 51.007812 55.960938 51.238281 55.820312 51.535156 C 55.675781 51.832031 55.660156 52.175781 55.773438 52.503906 C 55.960938 53.082031 56.53125 53.441406 57.117188 53.34375 C 57.199219 53.34375 57.261719 53.3125 57.320312 53.292969 L 66.113281 50.136719 C 66.746094 49.90625 67.078125 49.183594 66.855469 48.527344 Z M 66.855469 48.507812 "/>
<path style=" stroke:none;fill-rule:nonzero;fill:rgb(94.901961%,79.215686%,3.137255%);fill-opacity:1;" d="M 71.84375 58.359375 C 71.589844 58.390625 71.367188 58.523438 71.195312 58.703125 L 64.511719 65.429688 C 64.277344 65.660156 64.148438 65.972656 64.148438 66.316406 C 64.148438 66.664062 64.261719 66.976562 64.496094 67.222656 C 64.765625 67.519531 65.179688 67.648438 65.554688 67.582031 C 65.8125 67.550781 66.035156 67.417969 66.207031 67.238281 L 72.890625 60.511719 C 73.128906 60.28125 73.25 59.96875 73.25 59.625 C 73.25 59.28125 73.140625 58.96875 72.90625 58.71875 C 72.636719 58.425781 72.222656 58.292969 71.84375 58.359375 Z M 71.84375 58.359375 "/>
<path style=" stroke:none;fill-rule:nonzero;fill:rgb(94.901961%,79.215686%,3.137255%);fill-opacity:1;" d="M 99.410156 12.777344 C 99.585938 12.824219 99.761719 12.84375 99.933594 12.808594 C 100.394531 12.726562 100.789062 12.382812 100.917969 11.90625 L 103.464844 2.613281 C 103.5625 2.285156 103.515625 1.941406 103.355469 1.660156 C 103.199219 1.363281 102.941406 1.152344 102.625 1.050781 C 102.453125 1.003906 102.277344 0.988281 102.105469 1.019531 C 101.644531 1.101562 101.25 1.445312 101.121094 1.921875 L 98.570312 11.214844 C 98.382812 11.890625 98.765625 12.578125 99.410156 12.777344 Z M 99.410156 12.777344 "/>
<path style=" stroke:none;fill-rule:nonzero;fill:rgb(94.901961%,79.215686%,3.137255%);fill-opacity:1;" d="M 110.5625 18.777344 C 110.84375 18.730469 111.101562 18.582031 111.289062 18.351562 L 117.382812 11.050781 C 117.828125 10.523438 117.761719 9.71875 117.257812 9.273438 C 116.988281 9.027344 116.625 8.929688 116.277344 8.980469 C 115.988281 9.027344 115.738281 9.175781 115.546875 9.40625 L 109.449219 16.707031 C 109.007812 17.234375 109.070312 18.039062 109.578125 18.484375 C 109.847656 18.730469 110.210938 18.828125 110.578125 18.777344 Z M 110.5625 18.777344 "/>
<path style=" stroke:none;fill-rule:nonzero;fill:rgb(94.901961%,79.215686%,3.137255%);fill-opacity:1;" d="M 116.433594 27.164062 C 116.324219 27.476562 116.324219 27.820312 116.46875 28.132812 C 116.691406 28.660156 117.226562 28.957031 117.765625 28.875 C 117.875 28.859375 117.96875 28.824219 118.066406 28.777344 L 126.570312 24.828125 C 126.871094 24.699219 127.09375 24.433594 127.203125 24.121094 C 127.3125 23.808594 127.3125 23.464844 127.171875 23.152344 C 126.949219 22.625 126.410156 22.328125 125.875 22.410156 C 125.761719 22.429688 125.664062 22.460938 125.558594 22.511719 L 117.066406 26.457031 C 116.769531 26.589844 116.546875 26.851562 116.417969 27.164062 Z M 116.433594 27.164062 "/>
<path style=" stroke:none;fill-rule:nonzero;fill:rgb(94.901961%,79.215686%,3.137255%);fill-opacity:1;" d="M 130.179688 39.1875 C 129.957031 38.9375 129.660156 38.808594 129.324219 38.808594 L 120.015625 38.660156 C 120.015625 38.660156 119.867188 38.660156 119.789062 38.660156 C 119.207031 38.757812 118.78125 39.269531 118.78125 39.894531 C 118.78125 40.582031 119.300781 41.160156 119.980469 41.175781 L 129.292969 41.324219 C 129.292969 41.324219 129.4375 41.324219 129.5 41.324219 C 130.085938 41.226562 130.515625 40.714844 130.527344 40.089844 C 130.527344 39.761719 130.414062 39.433594 130.179688 39.1875 Z M 130.179688 39.1875 "/>
<path style=" stroke:none;fill-rule:nonzero;fill:rgb(94.901961%,79.215686%,3.137255%);fill-opacity:1;" d="M 126.109375 55.203125 L 117.734375 50.976562 C 117.511719 50.859375 117.257812 50.828125 117.003906 50.859375 C 116.605469 50.925781 116.277344 51.191406 116.101562 51.550781 C 115.800781 52.175781 116.054688 52.933594 116.671875 53.246094 L 125.046875 57.472656 C 125.269531 57.585938 125.523438 57.617188 125.773438 57.585938 C 126.171875 57.519531 126.507812 57.257812 126.679688 56.894531 C 126.980469 56.269531 126.726562 55.515625 126.109375 55.203125 Z M 126.109375 55.203125 "/>
<path style=" stroke:none;fill-rule:nonzero;fill:rgb(94.901961%,79.215686%,3.137255%);fill-opacity:1;" d="M 107 18.070312 C 101.488281 13.925781 94.769531 12.265625 88.089844 13.367188 C 74.25 15.671875 64.800781 29.21875 67.015625 43.59375 C 68.773438 54.988281 77.324219 63.800781 88.3125 65.527344 C 91.035156 66.054688 92.113281 69.457031 92.683594 71.300781 L 92.859375 71.84375 C 93.347656 73.304688 94.597656 74.257812 95.925781 74.144531 C 95.992188 74.144531 96.054688 74.144531 96.105469 74.128906 C 97.371094 73.914062 98.273438 72.78125 98.542969 71.101562 C 98.667969 70.347656 98.714844 69.558594 98.777344 68.800781 C 98.808594 68.472656 98.84375 68.058594 98.875 67.683594 C 99.253906 68.75 99.570312 70.59375 99.792969 71.925781 C 100.359375 75.3125 100.820312 77.976562 102.671875 78.335938 C 102.894531 78.386719 103.132812 78.386719 103.339844 78.335938 C 103.765625 78.273438 104.066406 78.042969 104.242188 77.878906 C 105.128906 76.988281 104.921875 75.445312 104.589844 72.894531 C 104.496094 72.136719 104.367188 71.199219 104.273438 70.246094 L 104.273438 70.199219 C 104.148438 68.949219 103.925781 66.695312 103.894531 65.035156 C 103.925781 65.082031 103.9375 65.132812 103.972656 65.183594 L 103.988281 65.230469 C 105.273438 67.417969 106.367188 69.328125 107.882812 69.0625 C 107.996094 69.046875 108.089844 69.015625 108.199219 68.980469 C 109.484375 68.503906 109.484375 66.910156 109.46875 64.507812 C 109.46875 62.074219 109.433594 58.753906 110.765625 57.339844 C 110.78125 57.324219 110.796875 57.289062 110.8125 57.273438 C 116.085938 51.289062 118.394531 43.28125 117.164062 35.289062 C 116.085938 28.332031 112.476562 22.230469 106.964844 18.085938 Z M 107 18.070312 "/>
<path style=" stroke:none;fill-rule:nonzero;fill:rgb(55.686275%,39.607843%,14.117647%);fill-opacity:1;" d="M 287.625 104.699219 C 282.933594 95.636719 269.621094 94.058594 263.222656 101.359375 C 262.285156 102.429688 262.507812 104.121094 263.648438 104.929688 C 266.164062 106.71875 271.695312 113.808594 285.914062 107.871094 C 287.289062 107.296875 288.320312 106.0625 287.625 104.699219 Z M 287.625 104.699219 "/>
<path style="fill:none;stroke-width:1.8;stroke-linecap:round;stroke-linejoin:round;stroke:rgb(0%,66.27451%,37.254902%);stroke-opacity:1;stroke-miterlimit:4;" d="M 287.916748 98.803788 L 287.916748 90.694131 L 296.219448 82.39699 " transform="matrix(0.94237,0,0,0.979253,3.375,0)"/>
<path style="fill:none;stroke-width:1.8;stroke-linecap:round;stroke-linejoin:round;stroke:rgb(0%,66.27451%,37.254902%);stroke-opacity:1;stroke-miterlimit:4;" d="M 287.920893 90.694131 L 279.804724 82.48076 " transform="matrix(0.94237,0,0,0.979253,3.375,0)"/>
<path style=" stroke:none;fill-rule:nonzero;fill:rgb(0%,66.27451%,37.254902%);fill-opacity:1;" d="M 278.660156 84.800781 C 272.453125 67.042969 288.382812 72.847656 292.785156 67.796875 C 292.785156 67.796875 296.109375 90.03125 278.660156 84.800781 Z M 278.660156 84.800781 "/>
<path style=" stroke:none;fill-rule:nonzero;fill:rgb(0%,66.27451%,37.254902%);fill-opacity:1;" d="M 270.917969 84.800781 C 275.144531 64.523438 260.847656 73.207031 255.621094 69.015625 C 255.621094 69.015625 254.71875 90.40625 270.917969 84.800781 Z M 270.917969 84.800781 "/>
<path style="fill:none;stroke-width:0.48;stroke-linecap:round;stroke-linejoin:miter;stroke:rgb(6.666667%,11.372549%,66.666667%);stroke-opacity:1;stroke-miterlimit:10;" d="M 160.250817 119.359157 L 153.917054 127.839792 " transform="matrix(0.94237,0,0,0.979253,3.375,0)"/>
<path style="fill:none;stroke-width:0.48;stroke-linecap:round;stroke-linejoin:miter;stroke:rgb(6.666667%,11.372549%,66.666667%);stroke-opacity:1;stroke-miterlimit:10;" d="M 160.383461 119.359157 L 166.717223 127.839792 " transform="matrix(0.94237,0,0,0.979253,3.375,0)"/>
</g>
</svg>
