<?xml version="1.0" encoding="UTF-8"?>
<svg xmlns="http://www.w3.org/2000/svg" xmlns:xlink="http://www.w3.org/1999/xlink" width="297px" height="236px" viewBox="0 0 297 236" version="1.1">
<defs>
<clipPath id="clip1">
  <path d="M 165 59 L 246.371094 59 L 246.371094 112 L 165 112 Z M 165 59 "/>
</clipPath>
<clipPath id="clip2">
  <path d="M 62 103 L 168.75 103 L 168.75 195.371094 L 62 195.371094 Z M 62 103 "/>
</clipPath>
<clipPath id="clip3">
  <path d="M 43.132812 59 L 122 59 L 122 169 L 43.132812 169 Z M 43.132812 59 "/>
</clipPath>
</defs>
<g id="surface1">
<path style=" stroke:none;fill-rule:nonzero;fill:rgb(89.019608%,89.019608%,99.215686%);fill-opacity:1;" d="M 158.285156 23.007812 C 158.285156 23.007812 62.941406 28.527344 38.832031 68.894531 C 38.832031 68.894531 2.976562 110.644531 58.152344 160.335938 C 58.152344 160.335938 110.457031 220.273438 171.78125 226.363281 C 171.78125 226.363281 245.835938 237.558594 251.179688 129.089844 C 251.179688 129.089844 251.585938 123.125 252.265625 115.875 C 253.265625 105.351562 255.574219 95.007812 258.941406 85.039062 C 264.523438 68.539062 271.480469 36.722656 245.996094 28.480469 C 245.996094 28.480469 223.960938 15.328125 158.300781 23.007812 Z M 158.285156 23.007812 "/>
<path style=" stroke:none;fill-rule:nonzero;fill:rgb(41.568627%,72.941176%,45.490196%);fill-opacity:1;" d="M 104.671875 93.851562 C 107.503906 88.359375 109.652344 82.503906 111.109375 76.4375 C 129.386719 75.742188 132.300781 55.289062 132.328125 55.066406 C 135.453125 27.855469 103.699219 3.164062 102.335938 2.121094 C 102 1.867188 101.574219 1.839844 101.210938 2.035156 C 100.867188 2.246094 100.664062 2.648438 100.703125 3.066406 C 100.703125 3.179688 101.652344 15.097656 90.539062 30.183594 C 83.441406 39.859375 82.117188 52.140625 87.128906 62.304688 C 88.117188 64.324219 89.375 66.207031 90.832031 67.894531 C 95.519531 73.207031 102.09375 76.285156 108.976562 76.398438 C 107.570312 82.097656 105.515625 87.59375 102.84375 92.777344 C 102.640625 93.183594 102.707031 93.671875 102.992188 94.003906 C 103.070312 94.101562 103.148438 94.171875 103.253906 94.226562 C 103.75 94.519531 104.363281 94.351562 104.660156 93.851562 Z M 104.671875 93.851562 "/>
<path style=" stroke:none;fill-rule:evenodd;fill:rgb(41.568627%,72.941176%,45.490196%);fill-opacity:1;" d="M 68.195312 38.855469 C 68.195312 38.855469 64.152344 25.164062 54.730469 26.824219 C 54.730469 26.824219 44.882812 33.976562 59.273438 44.527344 L 67.023438 46.230469 Z M 68.195312 38.855469 "/>
<path style=" stroke:none;fill-rule:evenodd;fill:rgb(62.352941%,64.313725%,100%);fill-opacity:1;" d="M 168.90625 51.988281 L 168.90625 45.726562 C 168.90625 44.25 169.761719 42.925781 171.058594 42.355469 L 185.835938 35.96875 C 186.421875 35.71875 187.105469 36.011719 187.359375 36.625 C 187.597656 37.238281 187.320312 37.949219 186.730469 38.214844 L 171.957031 44.597656 C 171.515625 44.78125 171.230469 45.226562 171.230469 45.726562 L 171.230469 51.988281 C 171.230469 52.65625 170.710938 53.199219 170.070312 53.199219 C 169.429688 53.199219 168.90625 52.65625 168.90625 51.988281 Z M 168.90625 51.988281 "/>
<path style=" stroke:none;fill-rule:evenodd;fill:rgb(62.352941%,64.313725%,100%);fill-opacity:1;" d="M 185.582031 55.316406 L 185.582031 30.140625 C 185.582031 28.132812 187.148438 26.5 189.066406 26.5 L 214.855469 26.5 C 216.78125 26.5 218.34375 28.132812 218.34375 30.140625 L 218.34375 49.449219 C 218.34375 50.117188 217.820312 50.660156 217.179688 50.660156 C 216.539062 50.660156 216.019531 50.117188 216.019531 49.449219 L 216.019531 30.140625 C 216.019531 29.472656 215.496094 28.925781 214.855469 28.925781 L 189.066406 28.925781 C 188.425781 28.925781 187.90625 29.472656 187.90625 30.140625 L 187.90625 55.316406 C 187.90625 55.988281 187.382812 56.53125 186.742188 56.53125 C 186.101562 56.53125 185.582031 55.988281 185.582031 55.316406 Z M 185.582031 55.316406 "/>
<path style=" stroke:none;fill-rule:evenodd;fill:rgb(62.352941%,64.313725%,100%);fill-opacity:1;" d="M 203.230469 34.839844 C 203.230469 34.085938 203.511719 33.363281 204.03125 32.832031 C 204.542969 32.300781 205.234375 31.996094 205.957031 31.996094 L 209.285156 31.996094 C 210.003906 31.996094 210.699219 32.289062 211.207031 32.832031 C 211.714844 33.363281 212.007812 34.085938 212.007812 34.839844 L 212.007812 38.867188 C 212.007812 39.621094 211.726562 40.347656 211.207031 40.875 C 210.699219 41.40625 210.003906 41.710938 209.285156 41.710938 L 205.957031 41.710938 C 205.234375 41.710938 204.542969 41.417969 204.03125 40.875 C 203.523438 40.347656 203.230469 39.621094 203.230469 38.867188 Z M 205.554688 34.839844 L 205.554688 38.867188 C 205.554688 38.980469 205.597656 39.078125 205.675781 39.160156 C 205.742188 39.230469 205.847656 39.285156 205.957031 39.285156 L 209.285156 39.285156 C 209.390625 39.285156 209.484375 39.246094 209.5625 39.160156 C 209.628906 39.089844 209.683594 38.980469 209.683594 38.867188 L 209.683594 34.839844 C 209.683594 34.726562 209.640625 34.628906 209.5625 34.546875 C 209.5 34.476562 209.390625 34.433594 209.285156 34.433594 L 205.957031 34.433594 C 205.847656 34.433594 205.753906 34.476562 205.675781 34.546875 C 205.609375 34.617188 205.554688 34.726562 205.554688 34.839844 Z M 205.554688 34.839844 "/>
<path style=" stroke:none;fill-rule:evenodd;fill:rgb(62.352941%,64.313725%,100%);fill-opacity:1;" d="M 203.230469 48.488281 C 203.230469 47.734375 203.511719 47.007812 204.03125 46.480469 C 204.542969 45.949219 205.234375 45.644531 205.957031 45.644531 L 209.285156 45.644531 C 210.003906 45.644531 210.699219 45.9375 211.207031 46.480469 C 211.714844 47.007812 212.007812 47.734375 212.007812 48.488281 L 212.007812 52.515625 C 212.007812 53.269531 211.726562 53.992188 211.207031 54.523438 C 210.699219 55.054688 210.003906 55.359375 209.285156 55.359375 L 205.957031 55.359375 C 205.234375 55.359375 204.542969 55.066406 204.03125 54.523438 C 203.523438 53.992188 203.230469 53.269531 203.230469 52.515625 Z M 205.554688 48.488281 L 205.554688 52.515625 C 205.554688 52.628906 205.597656 52.726562 205.675781 52.808594 C 205.742188 52.878906 205.847656 52.933594 205.957031 52.933594 L 209.285156 52.933594 C 209.390625 52.933594 209.484375 52.890625 209.5625 52.808594 C 209.628906 52.738281 209.683594 52.628906 209.683594 52.515625 L 209.683594 48.488281 C 209.683594 48.375 209.640625 48.277344 209.5625 48.195312 C 209.5 48.125 209.390625 48.082031 209.285156 48.082031 L 205.957031 48.082031 C 205.847656 48.082031 205.753906 48.125 205.675781 48.195312 C 205.609375 48.265625 205.554688 48.375 205.554688 48.488281 Z M 205.554688 48.488281 "/>
<path style=" stroke:none;fill-rule:evenodd;fill:rgb(62.352941%,64.313725%,100%);fill-opacity:1;" d="M 191.941406 34.839844 C 191.941406 34.085938 192.21875 33.363281 192.742188 32.832031 C 193.25 32.300781 193.945312 31.996094 194.664062 31.996094 L 197.996094 31.996094 C 198.714844 31.996094 199.410156 32.289062 199.914062 32.832031 C 200.425781 33.375 200.71875 34.085938 200.71875 34.839844 L 200.71875 38.867188 C 200.71875 39.621094 200.441406 40.347656 199.914062 40.875 C 199.410156 41.40625 198.714844 41.710938 197.996094 41.710938 L 194.664062 41.710938 C 193.945312 41.710938 193.25 41.417969 192.742188 40.875 C 192.234375 40.347656 191.941406 39.621094 191.941406 38.867188 Z M 194.265625 34.839844 L 194.265625 38.867188 C 194.265625 38.980469 194.308594 39.078125 194.371094 39.160156 C 194.4375 39.230469 194.542969 39.285156 194.652344 39.285156 L 197.980469 39.285156 C 198.089844 39.285156 198.179688 39.246094 198.261719 39.160156 C 198.328125 39.089844 198.367188 38.980469 198.367188 38.867188 L 198.367188 34.839844 C 198.367188 34.726562 198.328125 34.628906 198.261719 34.546875 C 198.195312 34.476562 198.089844 34.433594 197.980469 34.433594 L 194.652344 34.433594 C 194.542969 34.433594 194.453125 34.476562 194.371094 34.546875 C 194.308594 34.617188 194.265625 34.726562 194.265625 34.839844 Z M 194.265625 34.839844 "/>
<path style=" stroke:none;fill-rule:evenodd;fill:rgb(62.352941%,64.313725%,100%);fill-opacity:1;" d="M 191.941406 48.488281 C 191.941406 47.734375 192.21875 47.007812 192.742188 46.480469 C 193.25 45.949219 193.945312 45.644531 194.664062 45.644531 L 197.996094 45.644531 C 198.714844 45.644531 199.410156 45.9375 199.914062 46.480469 C 200.425781 47.007812 200.71875 47.734375 200.71875 48.488281 L 200.71875 52.515625 C 200.71875 53.269531 200.441406 53.992188 199.914062 54.523438 C 199.410156 55.054688 198.714844 55.359375 197.996094 55.359375 L 194.664062 55.359375 C 193.945312 55.359375 193.25 55.066406 192.742188 54.523438 C 192.234375 53.992188 191.941406 53.269531 191.941406 52.515625 Z M 194.265625 48.488281 L 194.265625 52.515625 C 194.265625 52.628906 194.308594 52.726562 194.371094 52.808594 C 194.4375 52.878906 194.542969 52.933594 194.652344 52.933594 L 197.980469 52.933594 C 198.089844 52.933594 198.179688 52.890625 198.261719 52.808594 C 198.328125 52.738281 198.367188 52.628906 198.367188 52.515625 L 198.367188 48.488281 C 198.367188 48.375 198.328125 48.277344 198.261719 48.195312 C 198.195312 48.125 198.089844 48.082031 197.980469 48.082031 L 194.652344 48.082031 C 194.542969 48.082031 194.453125 48.125 194.371094 48.195312 C 194.308594 48.265625 194.265625 48.375 194.265625 48.488281 Z M 194.265625 48.488281 "/>
<path style=" stroke:none;fill-rule:evenodd;fill:rgb(62.352941%,64.313725%,100%);fill-opacity:1;" d="M 138.472656 48.457031 C 138.472656 46.980469 139.328125 45.65625 140.625 45.085938 C 143.722656 43.746094 150.976562 40.609375 153.515625 39.523438 C 154.371094 39.160156 155.332031 39.160156 156.1875 39.523438 C 158.710938 40.609375 165.96875 43.746094 169.082031 45.085938 C 170.390625 45.640625 171.230469 46.980469 171.230469 48.457031 L 171.230469 78.765625 C 171.230469 79.4375 170.710938 79.980469 170.070312 79.980469 L 141.960938 79.980469 C 140.035156 79.980469 138.472656 78.347656 138.472656 76.339844 Z M 140.796875 48.457031 L 140.796875 76.339844 C 140.796875 77.011719 141.316406 77.554688 141.960938 77.554688 L 168.90625 77.554688 L 168.90625 48.457031 C 168.90625 47.972656 168.625 47.523438 168.183594 47.328125 L 155.296875 41.765625 C 155.011719 41.640625 154.691406 41.640625 154.398438 41.765625 C 151.875 42.855469 144.621094 45.992188 141.503906 47.328125 C 141.0625 47.511719 140.785156 47.957031 140.785156 48.457031 Z M 140.796875 48.457031 "/>
<path style=" stroke:none;fill-rule:evenodd;fill:rgb(62.352941%,64.313725%,100%);fill-opacity:1;" d="M 156.125 52.625 C 156.125 51.875 156.402344 51.148438 156.925781 50.621094 C 157.429688 50.089844 158.128906 49.78125 158.847656 49.78125 L 162.171875 49.78125 C 162.898438 49.78125 163.589844 50.074219 164.097656 50.621094 C 164.605469 51.148438 164.898438 51.875 164.898438 52.625 L 164.898438 56.65625 C 164.898438 57.410156 164.621094 58.132812 164.097656 58.664062 C 163.589844 59.191406 162.898438 59.5 162.171875 59.5 L 158.847656 59.5 C 158.128906 59.5 157.429688 59.207031 156.925781 58.664062 C 156.417969 58.132812 156.125 57.410156 156.125 56.65625 Z M 158.449219 52.625 L 158.449219 56.65625 C 158.449219 56.765625 158.484375 56.863281 158.570312 56.949219 C 158.632812 57.019531 158.742188 57.058594 158.847656 57.058594 L 162.171875 57.058594 C 162.28125 57.058594 162.375 57.019531 162.457031 56.949219 C 162.523438 56.878906 162.5625 56.765625 162.5625 56.65625 L 162.5625 52.625 C 162.5625 52.515625 162.523438 52.417969 162.457031 52.335938 C 162.386719 52.265625 162.28125 52.222656 162.171875 52.222656 L 158.847656 52.222656 C 158.742188 52.222656 158.648438 52.265625 158.570312 52.335938 C 158.484375 52.402344 158.449219 52.515625 158.449219 52.625 Z M 158.449219 52.625 "/>
<path style=" stroke:none;fill-rule:evenodd;fill:rgb(62.352941%,64.313725%,100%);fill-opacity:1;" d="M 156.125 66.277344 C 156.125 65.523438 156.402344 64.796875 156.925781 64.269531 C 157.429688 63.738281 158.128906 63.433594 158.847656 63.433594 L 162.171875 63.433594 C 162.898438 63.433594 163.589844 63.726562 164.097656 64.269531 C 164.605469 64.796875 164.898438 65.523438 164.898438 66.277344 L 164.898438 70.304688 C 164.898438 71.058594 164.621094 71.78125 164.097656 72.3125 C 163.589844 72.84375 162.898438 73.148438 162.171875 73.148438 L 158.847656 73.148438 C 158.128906 73.148438 157.429688 72.855469 156.925781 72.3125 C 156.417969 71.78125 156.125 71.058594 156.125 70.304688 Z M 158.449219 66.277344 L 158.449219 70.304688 C 158.449219 70.417969 158.484375 70.515625 158.570312 70.597656 C 158.632812 70.667969 158.742188 70.722656 158.847656 70.722656 L 162.171875 70.722656 C 162.28125 70.722656 162.375 70.679688 162.457031 70.597656 C 162.523438 70.527344 162.5625 70.417969 162.5625 70.304688 L 162.5625 66.277344 C 162.5625 66.164062 162.523438 66.066406 162.457031 65.984375 C 162.386719 65.914062 162.28125 65.871094 162.171875 65.871094 L 158.847656 65.871094 C 158.742188 65.871094 158.648438 65.914062 158.570312 65.984375 C 158.5 66.054688 158.449219 66.164062 158.449219 66.277344 Z M 158.449219 66.277344 "/>
<path style=" stroke:none;fill-rule:evenodd;fill:rgb(62.352941%,64.313725%,100%);fill-opacity:1;" d="M 144.835938 52.625 C 144.835938 51.875 145.113281 51.148438 145.632812 50.621094 C 146.140625 50.089844 146.839844 49.78125 147.558594 49.78125 L 150.882812 49.78125 C 151.609375 49.78125 152.300781 50.074219 152.808594 50.621094 C 153.316406 51.148438 153.613281 51.875 153.613281 52.625 L 153.613281 56.65625 C 153.613281 57.410156 153.328125 58.132812 152.808594 58.664062 C 152.300781 59.191406 151.609375 59.5 150.882812 59.5 L 147.558594 59.5 C 146.839844 59.5 146.140625 59.207031 145.632812 58.664062 C 145.128906 58.132812 144.835938 57.410156 144.835938 56.65625 Z M 147.160156 52.625 L 147.160156 56.65625 C 147.160156 56.765625 147.195312 56.863281 147.265625 56.949219 C 147.332031 57.019531 147.4375 57.058594 147.546875 57.058594 L 150.875 57.058594 C 150.976562 57.058594 151.074219 57.019531 151.152344 56.949219 C 151.21875 56.878906 151.261719 56.765625 151.261719 56.65625 L 151.261719 52.625 C 151.261719 52.515625 151.21875 52.417969 151.152344 52.335938 C 151.085938 52.265625 150.976562 52.222656 150.875 52.222656 L 147.546875 52.222656 C 147.4375 52.222656 147.34375 52.265625 147.265625 52.335938 C 147.195312 52.402344 147.160156 52.515625 147.160156 52.625 Z M 147.160156 52.625 "/>
<path style=" stroke:none;fill-rule:evenodd;fill:rgb(62.352941%,64.313725%,100%);fill-opacity:1;" d="M 144.835938 66.277344 C 144.835938 65.523438 145.113281 64.796875 145.632812 64.269531 C 146.140625 63.738281 146.839844 63.433594 147.558594 63.433594 L 150.882812 63.433594 C 151.609375 63.433594 152.300781 63.726562 152.808594 64.269531 C 153.316406 64.796875 153.613281 65.523438 153.613281 66.277344 L 153.613281 70.304688 C 153.613281 71.058594 153.328125 71.78125 152.808594 72.3125 C 152.300781 72.84375 151.609375 73.148438 150.882812 73.148438 L 147.558594 73.148438 C 146.839844 73.148438 146.140625 72.855469 145.632812 72.3125 C 145.128906 71.78125 144.835938 71.058594 144.835938 70.304688 Z M 147.160156 66.277344 L 147.160156 70.304688 C 147.160156 70.417969 147.195312 70.515625 147.265625 70.597656 C 147.332031 70.667969 147.4375 70.722656 147.546875 70.722656 L 150.875 70.722656 C 150.976562 70.722656 151.074219 70.679688 151.152344 70.597656 C 151.234375 70.515625 151.261719 70.417969 151.261719 70.304688 L 151.261719 66.277344 C 151.261719 66.164062 151.21875 66.066406 151.152344 65.984375 C 151.085938 65.914062 150.976562 65.871094 150.875 65.871094 L 147.546875 65.871094 C 147.4375 65.871094 147.34375 65.914062 147.265625 65.984375 C 147.195312 66.054688 147.160156 66.164062 147.160156 66.277344 Z M 147.160156 66.277344 "/>
<path style=" stroke:none;fill-rule:nonzero;fill:rgb(0%,51.764706%,23.529412%);fill-opacity:1;" d="M 103.226562 94.953125 C 106.179688 89.25 108.441406 83.199219 109.976562 76.925781 C 128.882812 76.105469 131.992188 54.96875 132.03125 54.730469 C 135.398438 26.613281 102.691406 1.296875 101.292969 0.222656 C 100.957031 -0.0273438 100.503906 -0.0703125 100.140625 0.140625 C 99.78125 0.363281 99.566406 0.78125 99.609375 1.210938 C 99.609375 1.324219 100.53125 13.632812 88.960938 29.277344 C 81.582031 39.3125 80.140625 52.011719 85.273438 62.46875 C 86.289062 64.546875 87.570312 66.484375 89.070312 68.226562 C 93.890625 73.691406 100.664062 76.828125 107.785156 76.914062 C 106.300781 82.808594 104.148438 88.496094 101.359375 93.863281 C 101.160156 94.285156 101.210938 94.785156 101.507812 95.132812 C 101.585938 95.230469 101.679688 95.300781 101.773438 95.371094 C 102.277344 95.664062 102.921875 95.496094 103.226562 94.964844 Z M 87.195312 61.507812 C 82.4375 51.820312 83.777344 39.996094 90.710938 30.699219 C 99.941406 18.21875 101.601562 7.863281 101.785156 3.414062 C 108.425781 8.964844 132.738281 31.144531 129.9375 54.425781 C 129.910156 54.621094 127.117188 73.511719 110.480469 74.683594 C 110.949219 72.480469 111.324219 70.289062 111.605469 68.144531 L 111.65625 68.101562 C 111.65625 68.101562 111.621094 68.058594 111.65625 68.003906 C 111.953125 65.84375 112.179688 63.710938 112.339844 61.605469 C 124.644531 52.179688 124.523438 42.757812 124.507812 42.367188 C 124.351562 41.765625 123.75 41.417969 123.160156 41.601562 C 122.789062 41.710938 122.496094 42.03125 122.398438 42.4375 C 122.441406 42.476562 122.398438 50.453125 112.484375 58.734375 C 112.605469 56.027344 112.621094 53.351562 112.542969 50.773438 C 112.554688 50.660156 112.554688 50.550781 112.542969 50.4375 C 112.421875 46.855469 112.15625 43.398438 111.765625 40.148438 C 114.839844 36.09375 117.003906 31.367188 118.082031 26.320312 C 118.058594 25.691406 117.550781 25.203125 116.949219 25.234375 C 116.550781 25.246094 116.171875 25.496094 116.015625 25.886719 C 115.132812 29.859375 113.554688 33.625 111.378906 37.011719 C 111.007812 34.433594 110.589844 32.007812 110.136719 29.75 C 110.136719 29.582031 110.109375 29.429688 110.042969 29.277344 C 108.933594 23.617188 107.382812 18.066406 105.417969 12.671875 C 105.324219 12.058594 104.78125 11.625 104.175781 11.722656 C 103.589844 11.820312 103.175781 12.394531 103.269531 13.019531 C 103.296875 13.203125 103.363281 13.367188 103.46875 13.523438 C 105.109375 18.011719 106.449219 22.613281 107.449219 27.308594 C 105.929688 26.070312 104.617188 24.5625 103.589844 22.863281 C 103.175781 22.417969 102.480469 22.402344 102.050781 22.835938 C 101.773438 23.128906 101.664062 23.546875 101.757812 23.9375 C 102.359375 24.96875 103.042969 25.929688 103.832031 26.808594 C 105.058594 28.230469 106.5 29.441406 108.089844 30.417969 C 109.308594 36.496094 110.054688 42.671875 110.363281 48.875 C 101.933594 44.457031 97.390625 34.53125 97.335938 34.421875 C 96.949219 33.933594 96.265625 33.875 95.816406 34.265625 C 95.503906 34.53125 95.375 34.9375 95.4375 35.339844 C 96.976562 38.53125 98.914062 41.503906 101.222656 44.152344 C 103.789062 47.191406 106.929688 49.628906 110.457031 51.316406 C 110.589844 56.40625 110.351562 61.507812 109.722656 66.554688 C 102.359375 64.476562 97.84375 56.640625 97.804688 56.574219 C 97.5 56.054688 96.855469 55.890625 96.359375 56.183594 C 95.882812 56.503906 95.71875 57.15625 95.988281 57.671875 C 96.84375 59.125 97.828125 60.488281 98.941406 61.746094 C 101.691406 65.0625 105.3125 67.472656 109.359375 68.6875 C 109.066406 70.695312 108.679688 72.730469 108.226562 74.75 C 98.914062 74.640625 91.257812 69.859375 87.15625 61.507812 L 87.195312 61.550781 Z M 87.195312 61.507812 "/>
<path style="fill-rule:nonzero;fill:rgb(0%,51.764706%,23.529412%);fill-opacity:1;stroke-width:0.66;stroke-linecap:butt;stroke-linejoin:miter;stroke:rgb(0%,51.764706%,23.529412%);stroke-opacity:1;stroke-miterlimit:10;" d="M 61.085715 92.420354 C 61.16544 92.551396 62.914709 95.709946 66.136552 99.130579 C 70.066544 103.30583 74.320127 105.92214 78.775368 106.920766 C 89.125597 109.243362 99.194443 102.438245 100.62481 101.421545 C 101.056265 100.969678 100.97654 100.888342 100.78895 100.228616 C 100.27308 99.324882 98.589468 96.61368 95.874116 93.744325 C 92.00978 89.65041 87.807784 87.070249 83.39944 86.067104 C 72.472374 83.617985 61.709449 91.326836 61.263924 91.647662 L 60.82778 91.954931 Z M 61.085715 92.420354 " transform="matrix(0.832937,0,0,0.864469,23.142857,0)"/>
<path style=" stroke:none;fill-rule:nonzero;fill:rgb(6.666667%,11.372549%,66.666667%);fill-opacity:1;" d="M 132.410156 67.433594 C 135.398438 69.105469 137.816406 71.699219 138.246094 75.085938 C 138.488281 76.953125 137.980469 78.890625 137.003906 80.46875 C 136.082031 81.957031 134.785156 83.144531 133.316406 84.023438 C 131.886719 84.871094 130.042969 85.570312 128.4375 84.804688 C 127.078125 84.148438 126.421875 82.613281 126.101562 81.164062 C 125.914062 80.285156 125.835938 79.378906 125.777344 78.472656 C 125.714844 77.429688 125.699219 76.367188 125.671875 75.308594 C 125.632812 73.355469 125.59375 71.378906 125.234375 69.453125 C 125.085938 68.699219 124.898438 67.960938 124.628906 67.238281 C 124.566406 67 125.378906 64.824219 125.714844 64.824219 C 127.117188 64.796875 131.113281 66.734375 132.394531 67.445312 Z M 132.410156 67.433594 "/>
<path style=" stroke:none;fill-rule:nonzero;fill:rgb(100%,77.647059%,59.215686%);fill-opacity:1;" d="M 110.765625 73.96875 C 111.21875 69.214844 113.519531 65.078125 118.644531 64.53125 C 123.21875 64.058594 128.640625 66.011719 131.804688 69.355469 C 133.210938 70.832031 134.34375 72.546875 135.277344 74.359375 C 136.242188 76.214844 137.019531 78.152344 137.695312 80.117188 C 138.445312 82.25 139.167969 84.398438 139.699219 86.585938 C 140.234375 88.777344 140.558594 91.0625 140.292969 93.304688 C 140.078125 95.1875 139.464844 97.058594 138.367188 98.605469 C 137.246094 100.207031 135.628906 101.351562 133.757812 101.910156 C 131.832031 102.480469 129.765625 102.453125 127.824219 101.949219 C 125.757812 101.421875 123.84375 100.390625 122.132812 99.148438 C 120.558594 98.003906 119.117188 96.667969 117.832031 95.203125 C 116.578125 93.765625 115.464844 92.207031 114.53125 90.546875 C 113.582031 88.875 112.796875 87.101562 112.191406 85.277344 C 111.125 82.015625 110.375 77.832031 110.75 73.957031 Z M 110.765625 73.96875 "/>
<path style=" stroke:none;fill-rule:nonzero;fill:rgb(18.431373%,11.764706%,27.058824%);fill-opacity:1;" d="M 127.558594 81.582031 C 128.023438 79.953125 130.363281 78.25 131.328125 78.054688 C 131.820312 77.945312 132.355469 77.945312 132.835938 78.140625 C 133.316406 78.347656 133.714844 78.796875 133.808594 79.367188 C 133.902344 79.964844 133.636719 80.578125 133.25 81 C 132.859375 81.417969 132.355469 81.667969 131.859375 81.917969 C 131.046875 82.324219 130.230469 82.742188 129.414062 83.144531 C 128.894531 83.410156 128.210938 83.632812 127.839844 83.160156 C 127.453125 82.683594 127.398438 82.128906 127.558594 81.582031 Z M 127.558594 81.582031 "/>
<path style=" stroke:none;fill-rule:nonzero;fill:rgb(100%,77.647059%,59.215686%);fill-opacity:1;" d="M 125.03125 91.71875 C 125.03125 91.71875 113.996094 102.035156 114.117188 102.105469 C 114.222656 102.175781 123.203125 109.882812 123.203125 109.882812 L 132.195312 99.511719 L 125.042969 91.71875 Z M 125.03125 91.71875 "/>
<path style=" stroke:none;fill-rule:nonzero;fill:rgb(6.666667%,11.372549%,66.666667%);fill-opacity:1;" d="M 113.449219 65.734375 C 120.851562 60.367188 131.21875 65.496094 135.09375 72.632812 C 135.183594 72.816406 135.277344 72.996094 135.371094 73.191406 C 135.453125 73.359375 135.492188 73.554688 135.46875 73.734375 C 135.46875 73.734375 135.519531 76.371094 129.457031 78.195312 C 123.390625 80.007812 122.160156 83.003906 122.160156 83.003906 C 122.160156 83.003906 122.132812 82.964844 122.078125 82.878906 C 121.878906 83.523438 121.734375 84.21875 121.679688 85.011719 C 121.679688 85.011719 122.347656 86.921875 122.226562 87.605469 C 122.375 87.605469 122.519531 87.703125 122.589844 87.871094 C 123.347656 90.003906 120.890625 90.980469 119.996094 93.058594 C 119.140625 95.007812 119.554688 98.84375 117.113281 98.464844 C 115.84375 98.269531 115.1875 97.210938 114.730469 96.136719 C 112.632812 91.132812 110.644531 85.949219 109.855469 80.566406 C 109.617188 78.949219 109.09375 77.472656 108.796875 75.964844 C 108.011719 71.867188 110.402344 67.992188 113.449219 65.789062 Z M 113.449219 65.734375 "/>
<g clip-path="url(#clip1)" clip-rule="nonzero">
<path style=" stroke:none;fill-rule:nonzero;fill:rgb(62.352941%,64.313725%,100%);fill-opacity:1;" d="M 170.273438 77.652344 L 175.214844 77.21875 C 176.257812 75.742188 177.605469 74.765625 179.089844 74.582031 L 200.828125 70.054688 C 202.964844 66.316406 205.875 63.738281 209.164062 62.972656 L 209.199219 62.972656 C 209.40625 62.929688 209.605469 62.886719 209.804688 62.84375 L 226.945312 59.457031 C 227.585938 59.261719 228.242188 59.136719 228.898438 59.066406 L 228.910156 59.066406 C 229.253906 59.039062 229.605469 59.011719 229.953125 59.011719 C 239.011719 59.011719 246.355469 70.722656 246.355469 85.164062 C 246.355469 99.609375 239.011719 111.320312 229.953125 111.320312 C 229.605469 111.320312 229.253906 111.304688 228.910156 111.261719 L 228.898438 111.261719 C 228.226562 111.191406 227.585938 111.066406 226.945312 110.871094 L 209.804688 107.484375 C 209.605469 107.457031 209.40625 107.414062 209.199219 107.359375 L 209.164062 107.359375 C 205.875 106.59375 202.964844 104.015625 200.828125 100.277344 L 179.089844 95.746094 C 177.605469 95.550781 176.269531 94.589844 175.214844 93.097656 L 170.273438 92.664062 C 167.664062 92.664062 165.566406 89.304688 165.566406 85.164062 C 165.566406 81.023438 167.679688 77.664062 170.273438 77.664062 Z M 170.273438 77.652344 "/>
</g>
<path style=" stroke:none;fill-rule:nonzero;fill:rgb(62.352941%,64.313725%,100%);fill-opacity:1;" d="M 200.90625 70.152344 C 200.050781 71.9375 199.371094 73.804688 198.859375 75.742188 C 198.351562 77.664062 198.03125 79.632812 197.871094 81.625 C 197.710938 83.632812 197.710938 85.640625 197.871094 87.648438 C 198.03125 89.65625 198.339844 91.648438 198.808594 93.601562 C 199.265625 95.550781 199.875 97.460938 200.613281 99.316406 C 200.707031 99.539062 200.796875 99.777344 200.890625 100 C 201 100.25 200.652344 100.460938 200.546875 100.207031 C 199.757812 98.355469 199.101562 96.429688 198.59375 94.464844 C 198.085938 92.484375 197.726562 90.464844 197.523438 88.414062 C 197.324219 86.394531 197.285156 84.34375 197.402344 82.320312 C 197.523438 80.300781 197.816406 78.277344 198.289062 76.300781 C 198.757812 74.347656 199.394531 72.4375 200.226562 70.613281 C 200.332031 70.386719 200.441406 70.164062 200.546875 69.941406 C 200.664062 69.707031 201.011719 69.914062 200.890625 70.152344 Z M 200.90625 70.152344 "/>
<path style=" stroke:none;fill-rule:nonzero;fill:rgb(62.352941%,64.313725%,100%);fill-opacity:1;" d="M 175.121094 77.734375 C 174.238281 79.546875 173.703125 81.542969 173.53125 83.5625 C 173.355469 85.597656 173.519531 87.648438 174.039062 89.628906 C 174.332031 90.730469 174.730469 91.789062 175.238281 92.804688 C 175.359375 93.042969 175.015625 93.253906 174.894531 93.015625 C 173.960938 91.160156 173.382812 89.125 173.167969 87.035156 C 172.957031 84.957031 173.089844 82.839844 173.597656 80.816406 C 173.875 79.671875 174.28125 78.570312 174.785156 77.527344 C 174.90625 77.289062 175.253906 77.5 175.132812 77.734375 Z M 175.121094 77.734375 "/>
<path style=" stroke:none;fill-rule:nonzero;fill:rgb(6.666667%,11.372549%,66.666667%);fill-opacity:1;" d="M 229.964844 109.296875 C 238.332031 109.296875 245.113281 98.488281 245.113281 85.152344 C 245.113281 71.816406 238.332031 61.003906 229.964844 61.003906 C 221.597656 61.003906 214.8125 71.816406 214.8125 85.152344 C 214.8125 98.488281 221.597656 109.296875 229.964844 109.296875 Z M 229.964844 109.296875 "/>
<path style=" stroke:none;fill-rule:nonzero;fill:rgb(100%,77.647059%,59.215686%);fill-opacity:1;" d="M 225.246094 165.046875 C 221.453125 171.808594 207.746094 177.804688 190.621094 171.253906 C 173.492188 164.6875 144.125 141.765625 144.125 141.765625 L 177.699219 104.628906 L 225.234375 165.046875 Z M 225.246094 165.046875 "/>
<path style=" stroke:none;fill-rule:nonzero;fill:rgb(100%,77.647059%,59.215686%);fill-opacity:1;" d="M 152.714844 80.859375 C 152.742188 79.980469 152.929688 78.976562 153.730469 78.503906 C 154.613281 77.988281 155.722656 78.363281 156.417969 79.019531 C 156.789062 79.367188 157.070312 79.785156 157.324219 80.21875 C 157.59375 80.691406 157.835938 81.179688 158.035156 81.667969 C 158.449219 82.683594 158.726562 83.746094 158.925781 84.816406 C 159.089844 85.695312 159.183594 86.589844 159.234375 87.496094 C 159.421875 86.335938 159.648438 85.195312 159.929688 84.050781 C 160.4375 81.960938 161.105469 79.910156 161.90625 77.929688 C 162.707031 75.953125 163.667969 74.042969 164.765625 72.214844 C 165.046875 71.753906 165.324219 71.292969 165.621094 70.847656 C 165.886719 70.445312 166.167969 70.039062 166.53125 69.71875 C 166.851562 69.425781 167.25 69.203125 167.679688 69.175781 C 168.054688 69.132812 168.453125 69.21875 168.761719 69.453125 C 169.160156 69.59375 169.480469 69.914062 169.644531 70.332031 C 169.882812 70.933594 169.882812 71.617188 169.804688 72.242188 C 169.789062 72.394531 169.761719 72.550781 169.738281 72.6875 C 169.804688 72.5625 169.859375 72.453125 169.910156 72.328125 C 170.246094 71.699219 170.59375 71.070312 170.980469 70.472656 C 171.3125 69.96875 171.6875 69.46875 172.167969 69.105469 C 172.605469 68.757812 173.15625 68.519531 173.730469 68.578125 C 174.28125 68.617188 174.761719 68.9375 175.109375 69.355469 C 175.722656 70.109375 175.816406 71.015625 175.707031 71.921875 C 176.1875 71.167969 176.84375 70.554688 177.777344 70.613281 C 178.460938 70.652344 179.089844 71.085938 179.488281 71.617188 C 179.972656 72.242188 180.128906 73.039062 180.144531 73.816406 C 180.15625 74.683594 180.023438 75.546875 179.917969 76.410156 C 179.796875 77.316406 179.664062 78.222656 179.515625 79.128906 C 179.222656 80.957031 178.875 82.753906 178.488281 84.566406 C 178.113281 86.363281 177.699219 88.148438 177.257812 89.933594 C 177.097656 90.601562 176.921875 91.285156 176.765625 91.957031 C 179.835938 94.214844 182.839844 96.570312 185.78125 98.980469 C 189.75 102.246094 193.609375 105.660156 197.339844 109.199219 C 201.117188 112.785156 204.765625 116.503906 208.28125 120.339844 C 217.644531 130.601562 231.058594 145.238281 227.265625 160.585938 C 226.742188 162.691406 225.808594 164.753906 224.273438 166.316406 C 222.722656 167.894531 220.640625 168.796875 218.460938 169.078125 C 213.542969 169.71875 208.988281 167.265625 205.097656 164.519531 C 201.238281 161.785156 197.6875 158.609375 194.535156 155.066406 C 192.488281 152.78125 190.621094 150.339844 188.921875 147.777344 C 188.84375 147.691406 188.761719 147.609375 188.679688 147.511719 C 184.644531 143.230469 180.625 138.953125 176.589844 134.671875 C 172.757812 130.601562 168.839844 126.585938 165.125 122.402344 C 161.664062 118.511719 158.40625 114.34375 156.109375 109.632812 C 153.996094 105.28125 152.648438 100.417969 152.902344 95.539062 C 152.851562 93.140625 152.835938 90.742188 152.792969 88.359375 C 152.78125 87.078125 152.757812 85.78125 152.742188 84.496094 C 152.742188 83.855469 152.730469 83.214844 152.714844 82.585938 C 152.714844 82.015625 152.6875 81.429688 152.703125 80.84375 Z M 152.714844 80.859375 "/>
<path style=" stroke:none;fill-rule:nonzero;fill:rgb(62.352941%,64.313725%,100%);fill-opacity:1;" d="M 135.054688 77.652344 L 139.996094 77.21875 C 141.039062 75.742188 142.386719 74.765625 143.871094 74.582031 L 165.609375 70.054688 C 167.746094 66.316406 170.660156 63.738281 173.945312 62.972656 L 173.984375 62.972656 C 174.183594 62.929688 174.386719 62.886719 174.585938 62.84375 L 191.726562 59.457031 C 192.367188 59.261719 193.023438 59.136719 193.679688 59.066406 L 193.691406 59.066406 C 194.039062 59.039062 194.386719 59.011719 194.734375 59.011719 C 203.792969 59.011719 211.140625 70.722656 211.140625 85.164062 C 211.140625 99.609375 203.792969 111.320312 194.734375 111.320312 C 194.386719 111.320312 194.039062 111.304688 193.691406 111.261719 L 193.679688 111.261719 C 193.011719 111.191406 192.367188 111.066406 191.726562 110.871094 L 174.585938 107.484375 C 174.386719 107.457031 174.183594 107.414062 173.984375 107.359375 L 173.945312 107.359375 C 170.660156 106.59375 167.746094 104.015625 165.609375 100.277344 L 143.871094 95.746094 C 142.386719 95.550781 141.054688 94.589844 139.996094 93.097656 L 135.054688 92.664062 C 132.445312 92.664062 130.351562 89.304688 130.351562 85.164062 C 130.351562 81.023438 132.460938 77.664062 135.054688 77.664062 Z M 135.054688 77.652344 "/>
<path style="fill-rule:nonzero;fill:rgb(18.431373%,11.764706%,27.058824%);fill-opacity:1;stroke-width:0.25;stroke-linecap:butt;stroke-linejoin:miter;stroke:rgb(0%,0%,0%);stroke-opacity:1;stroke-miterlimit:10;" d="M 171.134868 81.150792 C 170.107817 83.215824 169.291805 85.375748 168.67745 87.617008 C 168.072476 89.840194 167.687918 92.117603 167.495639 94.422125 C 167.29867 96.744721 167.29867 99.067318 167.495639 101.389914 C 167.687918 103.71251 168.053717 106.017032 168.616484 108.276367 C 169.165182 110.531183 169.901469 112.740813 170.783138 114.887181 C 170.895692 115.144745 171.008245 115.420384 171.116109 115.677948 C 171.247421 115.967143 170.830036 116.211151 170.698723 115.917437 C 169.756088 113.775588 168.968214 111.547884 168.358549 109.274993 C 167.753574 106.984027 167.317429 104.647875 167.078253 102.275573 C 166.839077 99.939421 166.78749 97.567119 166.932872 95.226448 C 167.078253 92.890296 167.429983 90.549625 167.99275 88.263178 C 168.550828 86.003843 169.319943 83.794214 170.314165 81.683995 C 170.445478 81.421912 170.5721 81.164348 170.698723 80.906784 C 170.844105 80.635663 171.26618 80.875153 171.116109 81.150792 Z M 171.134868 81.150792 " transform="matrix(0.832937,0,0,0.864469,23.142857,0)"/>
<path style="fill-rule:nonzero;fill:rgb(18.431373%,11.764706%,27.058824%);fill-opacity:1;stroke-width:0.25;stroke-linecap:butt;stroke-linejoin:miter;stroke:rgb(0%,0%,0%);stroke-opacity:1;stroke-miterlimit:10;" d="M 140.177974 89.92153 C 139.118096 92.018193 138.480293 94.327233 138.269255 96.663385 C 138.058217 99.017612 138.255186 101.389914 138.87892 103.68088 C 139.230649 104.955144 139.713691 106.179704 140.318666 107.354558 C 140.464048 107.630197 140.051352 107.874205 139.90597 107.598566 C 138.785125 105.452198 138.091046 103.097971 137.8378 100.680483 C 137.579865 98.27655 137.739316 95.827431 138.348981 93.48676 C 138.686641 92.16279 139.164993 90.888525 139.779348 89.68204 C 139.924729 89.406402 140.337425 89.65041 140.192044 89.92153 Z M 140.177974 89.92153 " transform="matrix(0.832937,0,0,0.864469,23.142857,0)"/>
<path style=" stroke:none;fill-rule:nonzero;fill:rgb(6.666667%,11.372549%,66.666667%);fill-opacity:1;" d="M 194.75 109.296875 C 203.113281 109.296875 209.898438 98.488281 209.898438 85.152344 C 209.898438 71.816406 203.113281 61.003906 194.75 61.003906 C 186.378906 61.003906 179.59375 71.816406 179.59375 85.152344 C 179.59375 98.488281 186.378906 109.296875 194.75 109.296875 Z M 194.75 109.296875 "/>
<path style=" stroke:none;fill-rule:nonzero;fill:rgb(18.431373%,11.764706%,27.058824%);fill-opacity:1;" d="M 195.589844 81.582031 C 195.484375 80.761719 195.164062 79.964844 194.667969 79.324219 C 194.601562 79.242188 194.585938 79.117188 194.667969 79.03125 C 194.734375 78.960938 194.878906 78.949219 194.949219 79.03125 C 195.507812 79.769531 195.871094 80.648438 195.992188 81.582031 C 196.003906 81.695312 195.882812 81.792969 195.789062 81.792969 C 195.671875 81.792969 195.601562 81.695312 195.589844 81.582031 Z M 195.589844 81.582031 "/>
<path style=" stroke:none;fill-rule:nonzero;fill:rgb(100%,77.647059%,59.215686%);fill-opacity:1;" d="M 204.433594 176.898438 C 197.523438 184.929688 185.394531 187.214844 168.277344 180.648438 C 151.152344 174.082031 124.257812 152.445312 124.257812 152.445312 L 157.835938 115.308594 L 204.421875 176.898438 Z M 204.433594 176.898438 "/>
<path style=" stroke:none;fill-rule:nonzero;fill:rgb(18.431373%,11.764706%,27.058824%);fill-opacity:1;" d="M 155.265625 138.351562 C 153.878906 140.429688 152.449219 142.460938 150.964844 144.457031 C 149.484375 146.449219 147.945312 148.402344 146.367188 150.296875 C 144.777344 152.207031 143.148438 154.074219 141.480469 155.890625 C 139.808594 157.699219 138.101562 159.457031 136.335938 161.171875 C 134.585938 162.886719 132.78125 164.546875 130.9375 166.148438 C 130.710938 166.34375 130.484375 166.539062 130.257812 166.75 C 130.058594 166.914062 129.777344 166.621094 129.976562 166.457031 C 131.832031 164.851562 133.636719 163.207031 135.398438 161.507812 C 137.164062 159.804688 138.886719 158.0625 140.554688 156.277344 C 142.238281 154.480469 143.871094 152.640625 145.449219 150.757812 C 147.039062 148.863281 148.585938 146.925781 150.082031 144.945312 C 151.582031 142.964844 153.023438 140.957031 154.414062 138.894531 C 154.585938 138.644531 154.761719 138.378906 154.917969 138.128906 C 155.066406 137.90625 155.414062 138.128906 155.265625 138.335938 Z M 155.265625 138.351562 "/>
<g clip-path="url(#clip2)" clip-rule="nonzero">
<path style=" stroke:none;fill-rule:nonzero;fill:rgb(62.352941%,64.313725%,100%);fill-opacity:1;" d="M 62.121094 168.351562 C 68.652344 160.503906 75.050781 152.515625 81.304688 144.429688 C 87.878906 135.925781 94.304688 127.296875 100.582031 118.542969 C 102.105469 116.40625 103.605469 114.246094 105.152344 112.140625 C 106.5 110.316406 107.933594 108.53125 109.628906 107.039062 C 111.445312 105.464844 113.542969 104.320312 115.878906 103.890625 C 118.433594 103.429688 121.050781 103.777344 123.523438 104.472656 C 128.175781 105.785156 132.609375 108.167969 136.777344 110.648438 C 140.851562 113.074219 144.753906 115.835938 148.492188 118.792969 C 155.5625 124.367188 162.082031 130.628906 168.5625 136.914062 C 168.5625 136.914062 159.835938 155.441406 138.074219 174.097656 L 131.675781 168.226562 C 130.257812 169.789062 110.910156 185.652344 101.453125 193.585938 C 98.539062 196.023438 94.382812 195.96875 91.523438 193.472656 L 63.054688 168.535156 "/>
</g>
<path style=" stroke:none;fill-rule:nonzero;fill:rgb(100%,77.647059%,59.215686%);fill-opacity:1;" d="M 132.847656 88.402344 C 132.875 87.496094 133.0625 86.464844 133.863281 85.960938 C 134.742188 85.417969 135.855469 85.820312 136.546875 86.503906 C 136.925781 86.867188 137.203125 87.300781 137.457031 87.761719 C 137.722656 88.246094 137.964844 88.75 138.164062 89.265625 C 138.578125 90.3125 138.859375 91.414062 139.0625 92.527344 C 139.222656 93.449219 139.3125 94.367188 139.371094 95.289062 C 139.554688 94.089844 139.785156 92.902344 140.0625 91.71875 C 140.570312 89.558594 141.238281 87.4375 142.039062 85.375 C 142.84375 83.328125 143.804688 81.347656 144.898438 79.449219 C 145.179688 78.976562 145.460938 78.503906 145.753906 78.027344 C 146.023438 77.609375 146.300781 77.191406 146.660156 76.859375 C 146.980469 76.550781 147.386719 76.328125 147.8125 76.285156 C 148.1875 76.246094 148.585938 76.328125 148.894531 76.566406 C 149.292969 76.703125 149.613281 77.054688 149.777344 77.484375 C 150.015625 78.097656 150.015625 78.808594 149.933594 79.464844 C 149.921875 79.617188 149.898438 79.769531 149.871094 79.9375 C 149.933594 79.8125 149.988281 79.6875 150.042969 79.5625 C 150.375 78.90625 150.722656 78.265625 151.109375 77.652344 C 151.445312 77.121094 151.820312 76.621094 152.300781 76.230469 C 152.742188 75.867188 153.289062 75.632812 153.863281 75.671875 C 154.414062 75.714844 154.890625 76.050781 155.238281 76.480469 C 155.855469 77.261719 155.945312 78.195312 155.839844 79.128906 C 156.324219 78.347656 156.976562 77.707031 157.914062 77.777344 C 158.59375 77.820312 159.21875 78.265625 159.625 78.824219 C 160.105469 79.480469 160.261719 80.300781 160.277344 81.097656 C 160.289062 81.988281 160.15625 82.894531 160.046875 83.785156 C 159.929688 84.734375 159.796875 85.667969 159.648438 86.601562 C 159.355469 88.484375 159.007812 90.367188 158.621094 92.234375 C 158.246094 94.101562 157.835938 95.957031 157.390625 97.796875 C 157.230469 98.492188 157.058594 99.191406 156.894531 99.886719 C 159.96875 102.230469 162.976562 104.65625 165.914062 107.164062 C 169.882812 110.554688 173.746094 114.082031 177.472656 117.746094 C 181.25 121.457031 184.902344 125.304688 188.414062 129.289062 C 197.78125 139.914062 211.195312 155.066406 207.402344 170.972656 C 206.875 173.164062 205.941406 175.28125 204.40625 176.898438 C 202.855469 178.53125 200.769531 179.476562 198.59375 179.757812 C 193.679688 180.410156 189.121094 177.890625 185.234375 175.03125 C 181.371094 172.199219 177.820312 168.894531 174.667969 165.242188 C 172.621094 162.875 170.75 160.351562 169.054688 157.703125 C 168.976562 157.617188 168.894531 157.519531 168.8125 157.4375 C 164.78125 153.003906 160.757812 148.570312 156.722656 144.152344 C 152.886719 139.941406 148.976562 135.785156 145.261719 131.449219 C 141.800781 127.421875 138.539062 123.101562 136.242188 118.222656 C 134.128906 113.71875 132.78125 108.671875 133.039062 103.625 C 132.980469 101.144531 132.96875 98.660156 132.929688 96.179688 C 132.914062 94.839844 132.886719 93.515625 132.875 92.179688 C 132.875 91.523438 132.859375 90.855469 132.847656 90.199219 C 132.847656 89.597656 132.824219 89 132.835938 88.402344 Z M 132.847656 88.402344 "/>
<path style="fill-rule:nonzero;fill:rgb(18.431373%,11.764706%,27.058824%);fill-opacity:1;stroke-width:0.25;stroke-linecap:butt;stroke-linejoin:miter;stroke:rgb(0%,0%,0%);stroke-opacity:1;stroke-miterlimit:10;" d="M 186.052892 191.117141 C 183.131192 188.970773 180.293906 186.734031 177.550415 184.36173 C 174.825684 182.007503 172.194746 179.553865 169.643534 176.991779 C 168.199098 175.541286 166.801559 174.054644 165.422779 172.554445 C 165.216431 172.33303 165.554092 171.976056 165.76044 172.220064 C 168.180339 174.877042 170.698723 177.457202 173.33435 179.924396 C 175.946529 182.396108 178.67126 184.763891 181.480407 187.023226 C 183.051466 188.279416 184.655353 189.522051 186.273309 190.696905 C 186.390552 190.778241 186.43745 190.909282 186.357724 191.035805 C 186.292068 191.135216 186.137307 191.198477 186.020064 191.117141 Z M 186.052892 191.117141 " transform="matrix(0.832937,0,0,0.864469,23.142857,0)"/>
<path style="fill-rule:nonzero;fill:rgb(18.431373%,11.764706%,27.058824%);fill-opacity:1;stroke-width:0.25;stroke-linecap:butt;stroke-linejoin:miter;stroke:rgb(0%,0%,0%);stroke-opacity:1;stroke-miterlimit:10;" d="M 220.02528 200.005365 C 222.323247 193.005945 221.694823 185.360356 219.368718 178.442272 C 217.075442 171.605525 213.159519 165.428503 208.863728 159.703348 C 204.727388 154.204127 200.136145 149.093511 195.21193 144.285647 C 190.142335 139.351259 184.753837 134.724141 179.18713 130.350069 C 173.718908 126.048295 168.072476 121.981492 162.280662 118.095436 C 161.605341 117.643569 160.920641 117.191702 160.226561 116.739835 C 159.973316 116.563607 160.212492 116.143371 160.465737 116.324118 C 166.290379 120.160468 171.969639 124.177566 177.503518 128.434153 C 183.182779 132.821781 188.697899 137.430825 193.912876 142.383287 C 198.930885 147.141446 203.681579 152.220431 207.930472 157.701578 C 212.310678 163.363471 216.371982 169.37782 219.016989 176.06997 C 221.680754 182.8299 222.815668 190.376079 221.216471 197.538171 C 221.019503 198.405755 220.780327 199.277859 220.489563 200.131887 C 220.395769 200.421082 219.931486 200.294559 220.02528 200.005365 Z M 220.02528 200.005365 " transform="matrix(0.832937,0,0,0.864469,23.142857,0)"/>
<path style="fill-rule:nonzero;fill:rgb(18.431373%,11.764706%,27.058824%);fill-opacity:1;stroke-width:0.25;stroke-linecap:butt;stroke-linejoin:miter;stroke:rgb(0%,0%,0%);stroke-opacity:1;stroke-miterlimit:10;" d="M 159.602827 91.277131 C 158.608605 93.581652 157.675349 95.922323 156.826508 98.27655 C 155.977668 100.630777 155.175724 103.003079 154.453506 105.407011 C 154.054879 106.758094 153.651563 108.131769 153.299833 109.500926 C 153.220108 109.808196 152.751135 109.677154 152.83555 109.369885 C 153.492112 106.93884 154.200261 104.516833 154.988135 102.112901 C 155.76663 99.713487 156.62016 97.341186 157.548726 94.986959 C 158.078666 93.662988 158.608605 92.343537 159.185441 91.019567 C 159.232339 90.9066 159.410548 90.874969 159.523102 90.938231 C 159.654414 91.019567 159.668483 91.150608 159.602827 91.277131 Z M 159.602827 91.277131 " transform="matrix(0.832937,0,0,0.864469,23.142857,0)"/>
<path style="fill-rule:nonzero;fill:rgb(18.431373%,11.764706%,27.058824%);fill-opacity:1;stroke-width:0.25;stroke-linecap:butt;stroke-linejoin:miter;stroke:rgb(0%,0%,0%);stroke-opacity:1;stroke-miterlimit:10;" d="M 152.530718 91.855521 C 151.63029 93.938627 150.781449 96.017215 149.979506 98.131953 C 149.172872 100.242172 148.436585 102.370465 147.733126 104.534908 C 147.329809 105.759468 146.964011 106.965953 146.593522 108.208587 C 146.513797 108.497782 146.049514 108.384815 146.129239 108.082064 C 146.767042 105.88599 147.479881 103.726066 148.216168 101.566142 C 148.966524 99.406218 149.773158 97.277924 150.621998 95.163187 C 151.100351 93.970258 151.597462 92.790885 152.108642 91.616031 C 152.160229 91.503064 152.333749 91.471434 152.450992 91.534695 C 152.577615 91.597956 152.591684 91.742554 152.530718 91.873595 Z M 152.530718 91.855521 " transform="matrix(0.832937,0,0,0.864469,23.142857,0)"/>
<path style="fill-rule:nonzero;fill:rgb(18.431373%,11.764706%,27.058824%);fill-opacity:1;stroke-width:0.25;stroke-linecap:butt;stroke-linejoin:miter;stroke:rgb(0%,0%,0%);stroke-opacity:1;stroke-miterlimit:10;" d="M 140.098249 107.4856 C 139.183752 110.047685 138.592846 112.722738 138.334911 115.43394 C 138.255186 116.211151 138.222358 116.983844 138.18953 117.756536 C 138.18953 118.063806 137.692419 118.063806 137.706488 117.756536 C 137.786213 115.000147 138.18953 112.257315 138.925817 109.595818 C 139.136855 108.8412 139.376031 108.09562 139.633966 107.354558 C 139.727761 107.065363 140.192044 107.191886 140.098249 107.4856 Z M 140.098249 107.4856 " transform="matrix(0.832937,0,0,0.864469,23.142857,0)"/>
<path style=" stroke:none;fill-rule:nonzero;fill:rgb(18.431373%,11.764706%,27.058824%);fill-opacity:1;" d="M 205.632812 65.171875 C 207.304688 67.433594 208.550781 70.011719 209.46875 72.6875 C 210.390625 75.351562 211.019531 78.140625 211.339844 80.953125 C 211.644531 83.507812 211.660156 86.070312 211.410156 88.636719 C 211.125 91.425781 210.578125 94.199219 209.734375 96.875 C 208.894531 99.566406 207.746094 102.1875 206.167969 104.5 C 205.984375 104.78125 205.796875 105.046875 205.597656 105.308594 C 205.433594 105.519531 205.15625 105.226562 205.3125 105.015625 C 206.960938 102.816406 208.160156 100.277344 209.070312 97.671875 C 209.976562 95.035156 210.589844 92.304688 210.925781 89.527344 C 211.234375 87.019531 211.289062 84.480469 211.058594 81.972656 C 210.804688 79.210938 210.257812 76.480469 209.429688 73.84375 C 208.585938 71.167969 207.4375 68.5625 205.890625 66.246094 C 205.703125 65.96875 205.503906 65.691406 205.300781 65.425781 C 205.140625 65.214844 205.488281 65.007812 205.648438 65.214844 Z M 205.632812 65.171875 "/>
<path style="fill-rule:nonzero;fill:rgb(18.431373%,11.764706%,27.058824%);fill-opacity:1;stroke-width:0.25;stroke-linecap:butt;stroke-linejoin:miter;stroke:rgb(0%,0%,0%);stroke-opacity:1;stroke-miterlimit:10;" d="M 161.305198 114.466944 C 161.075402 115.176376 160.869054 115.867732 160.643947 116.581682 C 160.550152 116.870877 160.081179 116.75791 160.184353 116.450641 C 160.404771 115.741209 160.611119 115.049853 160.836226 114.335903 C 160.93471 114.046708 161.398993 114.159675 161.305198 114.466944 Z M 161.305198 114.466944 " transform="matrix(0.832937,0,0,0.864469,23.142857,0)"/>
<path style="fill-rule:nonzero;fill:rgb(18.431373%,11.764706%,27.058824%);fill-opacity:1;stroke-width:0.25;stroke-linecap:butt;stroke-linejoin:miter;stroke:rgb(0%,0%,0%);stroke-opacity:1;stroke-miterlimit:10;" d="M 131.947502 106.26104 C 131.999089 109.293067 132.064745 112.325095 132.106953 115.357122 C 132.106953 116.211151 132.144471 117.06518 132.15854 117.919208 C 132.15854 118.226478 131.680188 118.226478 131.680188 117.919208 C 131.628601 114.887181 131.567634 111.855153 131.516047 108.823126 C 131.516047 107.969097 131.483219 107.115069 131.46915 106.26104 C 131.46915 105.95377 131.947502 105.95377 131.947502 106.26104 Z M 131.947502 106.26104 " transform="matrix(0.832937,0,0,0.864469,23.142857,0)"/>
<path style="fill-rule:nonzero;fill:rgb(18.431373%,11.764706%,27.058824%);fill-opacity:1;stroke-width:0.25;stroke-linecap:butt;stroke-linejoin:miter;stroke:rgb(0%,0%,0%);stroke-opacity:1;stroke-miterlimit:10;" d="M 127.862749 118.547303 C 126.207275 118.194847 124.603388 117.580308 123.144883 116.726279 C 122.872879 116.563607 123.112055 116.143371 123.384059 116.306043 C 124.814426 117.141997 126.371416 117.74298 127.989372 118.08188 C 128.289514 118.145142 128.162892 118.610565 127.862749 118.547303 Z M 127.862749 118.547303 " transform="matrix(0.832937,0,0,0.864469,23.142857,0)"/>
<g clip-path="url(#clip3)" clip-rule="nonzero">
<path style=" stroke:none;fill-rule:nonzero;fill:rgb(6.666667%,11.372549%,66.666667%);fill-opacity:1;" d="M 47.875 124.4375 C 51.644531 117.148438 57.65625 111.445312 65.019531 108.222656 C 76.441406 103.246094 89.363281 104.113281 99.476562 95.566406 C 104.953125 90.9375 107.648438 84.816406 109.109375 77.734375 C 109.203125 77.304688 109.332031 75.5625 109.507812 73.75 C 107.261719 76.828125 101.851562 77.277344 96.855469 74.640625 C 91.445312 71.78125 88.128906 67.097656 90.402344 62.582031 C 92.542969 58.328125 98.140625 58.023438 103.546875 60.882812 C 107.199219 62.804688 109.695312 65.886719 110.375 68.855469 C 111.535156 67.558594 112.832031 66.402344 114.289062 65.496094 C 114.917969 65.636719 115.535156 65.96875 116.015625 66.414062 C 116.589844 66.945312 117.027344 67.601562 117.40625 68.285156 C 117.511719 68.480469 117.617188 68.675781 117.761719 68.855469 C 118.230469 69.414062 118.902344 69.761719 119.367188 70.332031 C 119.851562 70.917969 120.234375 71.601562 120.527344 72.3125 C 121.132812 73.75 118.082031 75.15625 118.339844 76.691406 C 119.835938 85.695312 122.148438 95.066406 121.449219 104.097656 C 121.449219 104.097656 121.503906 108.195312 119.621094 113.496094 C 117.296875 121.871094 113.703125 129.832031 109.027344 137.070312 C 103.777344 145.210938 97.1875 152.417969 89.667969 158.300781 C 82.039062 164.28125 72.902344 169.382812 63.054688 168.503906 C 58.632812 168.101562 54.25 166.5 50.855469 163.472656 C 47.621094 160.585938 45.472656 156.613281 44.308594 152.390625 C 41.742188 143.132812 43.535156 132.804688 47.863281 124.4375 Z M 47.875 124.4375 "/>
</g>
<path style=" stroke:none;fill-rule:nonzero;fill:rgb(18.431373%,11.764706%,27.058824%);fill-opacity:1;" d="M 190.941406 59.933594 C 187.933594 61.089844 185.488281 63.488281 183.683594 66.191406 C 181.492188 69.46875 180.101562 73.300781 179.316406 77.191406 C 178.417969 81.652344 178.296875 86.308594 178.929688 90.8125 C 179.503906 94.910156 180.707031 98.953125 182.722656 102.523438 C 184.378906 105.464844 186.648438 108.152344 189.589844 109.730469 C 189.910156 109.910156 190.242188 110.0625 190.578125 110.203125 C 190.820312 110.300781 190.710938 110.703125 190.46875 110.609375 C 187.410156 109.3125 184.964844 106.828125 183.136719 104 C 180.921875 100.570312 179.53125 96.570312 178.796875 92.511719 C 177.96875 87.953125 177.914062 83.226562 178.632812 78.640625 C 179.289062 74.542969 180.570312 70.5 182.695312 66.972656 C 184.429688 64.058594 186.8125 61.421875 189.816406 59.945312 C 190.152344 59.777344 190.5 59.640625 190.832031 59.5 C 191.070312 59.402344 191.179688 59.804688 190.941406 59.902344 Z M 190.941406 59.933594 "/>
<path style=" stroke:none;fill-rule:nonzero;fill:rgb(18.431373%,11.764706%,27.058824%);fill-opacity:1;" d="M 225.980469 60.003906 C 223.003906 61.214844 220.585938 63.628906 218.796875 66.34375 C 216.617188 69.664062 215.242188 73.511719 214.480469 77.429688 C 213.613281 81.875 213.507812 86.519531 214.15625 91.007812 C 214.75 95.050781 215.949219 99.050781 217.953125 102.578125 C 219.609375 105.492188 221.867188 108.167969 224.78125 109.746094 C 225.101562 109.925781 225.4375 110.078125 225.769531 110.21875 C 226.007812 110.316406 225.902344 110.71875 225.660156 110.621094 C 222.628906 109.324219 220.199219 106.859375 218.371094 104.054688 C 216.160156 100.65625 214.777344 96.695312 214.027344 92.664062 C 213.183594 88.136719 213.117188 83.449219 213.8125 78.890625 C 214.441406 74.78125 215.710938 70.710938 217.808594 67.140625 C 219.53125 64.226562 221.867188 61.5625 224.847656 60.042969 C 225.183594 59.875 225.515625 59.722656 225.863281 59.585938 C 226.101562 59.488281 226.210938 59.890625 225.96875 59.988281 Z M 225.980469 60.003906 "/>
<path style=" stroke:none;fill-rule:nonzero;fill:rgb(100%,77.647059%,59.215686%);fill-opacity:1;" d="M 117.941406 85.167969 C 118.582031 83.589844 120.289062 82.710938 121.890625 82.921875 C 124.992188 83.339844 128.253906 89.011719 125.902344 91.773438 C 125.207031 92.582031 124.136719 92.945312 123.109375 92.902344 C 120.023438 92.761719 116.640625 88.359375 117.925781 85.167969 Z M 117.941406 85.167969 "/>
<path style="fill-rule:nonzero;fill:rgb(18.431373%,11.764706%,27.058824%);fill-opacity:1;stroke-width:0.25;stroke-linecap:butt;stroke-linejoin:miter;stroke:rgb(0%,0%,0%);stroke-opacity:1;stroke-miterlimit:10;" d="M 116.490159 98.972426 C 116.147809 99.90779 116.147809 100.956122 116.551126 101.855337 C 116.902855 102.664179 117.526589 103.30583 118.300394 103.71251 C 118.572398 103.857108 118.333222 104.277344 118.056528 104.132747 C 117.207688 103.68088 116.499539 102.935299 116.119671 102.04964 C 115.669457 101.032939 115.636629 99.871641 116.021186 98.823309 C 116.072773 98.696787 116.180637 98.615451 116.31195 98.647081 C 116.424503 98.678712 116.518298 98.823309 116.490159 98.936276 Z M 116.490159 98.972426 " transform="matrix(0.832937,0,0,0.864469,23.142857,0)"/>
<path style=" stroke:none;fill-rule:nonzero;fill:rgb(94.901961%,79.215686%,3.137255%);fill-opacity:1;" d="M 122.089844 95.425781 C 123.289062 95.132812 124.035156 93.878906 123.753906 92.628906 C 123.46875 91.375 122.269531 90.601562 121.066406 90.894531 C 119.867188 91.1875 119.125 92.441406 119.40625 93.695312 C 119.6875 94.945312 120.890625 95.722656 122.089844 95.425781 Z M 122.089844 95.425781 "/>
<path style=" stroke:none;fill-rule:nonzero;fill:rgb(98.431373%,87.45098%,76.862745%);fill-opacity:1;" d="M 244.941406 84.300781 C 244.941406 85.332031 244.902344 86.351562 244.835938 87.367188 C 242.136719 92.011719 236.484375 100.179688 229.964844 100.613281 C 223.433594 101.03125 217.792969 93.597656 215.097656 89.304688 C 215.027344 88.316406 214.988281 87.296875 214.988281 86.265625 C 214.988281 85.234375 215.027344 84.21875 215.097656 83.214844 C 217.792969 78.570312 223.445312 70.386719 229.964844 69.96875 C 236.484375 69.550781 242.136719 76.980469 244.835938 81.277344 C 244.902344 82.28125 244.941406 83.285156 244.941406 84.328125 Z M 244.941406 84.300781 "/>
<path style=" stroke:none;fill-rule:nonzero;fill:rgb(23.137255%,52.941176%,100%);fill-opacity:1;" d="M 237.53125 85.511719 C 237.75 78.894531 234.867188 73.421875 231.101562 73.285156 C 227.332031 73.152344 224.101562 78.40625 223.882812 85.027344 C 223.664062 91.644531 226.546875 97.117188 230.3125 97.25 C 234.085938 97.386719 237.3125 92.128906 237.53125 85.511719 Z M 237.53125 85.511719 "/>
<path style=" stroke:none;fill-rule:nonzero;fill:rgb(98.431373%,87.45098%,76.862745%);fill-opacity:1;" d="M 209.726562 84.300781 C 209.726562 85.332031 209.683594 86.351562 209.617188 87.367188 C 206.917969 92.011719 201.269531 100.179688 194.75 100.613281 C 188.210938 101.03125 182.574219 93.597656 179.875 89.304688 C 179.808594 88.316406 179.773438 87.296875 179.773438 86.265625 C 179.773438 85.234375 179.808594 84.21875 179.875 83.214844 C 182.574219 78.570312 188.226562 70.386719 194.75 69.96875 C 201.269531 69.550781 206.917969 76.980469 209.617188 81.277344 C 209.683594 82.28125 209.726562 83.285156 209.726562 84.328125 Z M 209.726562 84.300781 "/>
<path style=" stroke:none;fill-rule:nonzero;fill:rgb(23.137255%,52.941176%,100%);fill-opacity:1;" d="M 202.3125 85.519531 C 202.53125 78.902344 199.648438 73.429688 195.882812 73.292969 C 192.109375 73.160156 188.882812 78.414062 188.664062 85.03125 C 188.445312 91.648438 191.328125 97.125 195.09375 97.257812 C 198.863281 97.394531 202.09375 92.136719 202.3125 85.519531 Z M 202.3125 85.519531 "/>
<path style="fill:none;stroke-width:0.75;stroke-linecap:round;stroke-linejoin:miter;stroke:rgb(18.431373%,11.764706%,27.058824%);stroke-opacity:1;stroke-miterlimit:10;" d="M 114.947239 179.748168 L 130.052852 193.534629 " transform="matrix(0.832937,0,0,0.864469,23.142857,0)"/>
<path style="fill:none;stroke-width:1;stroke-linecap:round;stroke-linejoin:round;stroke:rgb(31.764706%,41.960784%,92.941176%);stroke-opacity:1;stroke-miterlimit:4;" d="M 32.600308 181.749938 C 32.600308 181.749938 40.680709 202.115583 66.314761 185.64955 " transform="matrix(0.832937,0,0,0.864469,23.142857,0)"/>
<path style="fill:none;stroke-width:1;stroke-linecap:round;stroke-linejoin:round;stroke:rgb(31.764706%,41.960784%,92.941176%);stroke-opacity:1;stroke-miterlimit:4;" d="M 86.138241 80.554327 C 86.138241 80.554327 81.307821 78.16847 83.155574 72.619543 " transform="matrix(0.832937,0,0,0.864469,23.142857,0)"/>
<path style=" stroke:none;fill-rule:evenodd;fill:rgb(41.568627%,72.941176%,45.490196%);fill-opacity:1;" d="M 63.203125 50.144531 C 63.203125 50.144531 49.558594 48.570312 47.261719 58.246094 C 47.261719 58.246094 49.625 70.515625 64.628906 60.949219 L 69.214844 54.21875 Z M 63.203125 50.144531 "/>
<path style=" stroke:none;fill-rule:evenodd;fill:rgb(41.568627%,72.941176%,45.490196%);fill-opacity:1;" d="M 81.238281 43.886719 C 81.238281 43.886719 90.402344 33.222656 84.191406 25.652344 C 84.191406 25.652344 73.25 20.523438 71.980469 38.828125 L 74.570312 46.632812 Z M 81.238281 43.886719 "/>
<path style=" stroke:none;fill-rule:evenodd;fill:rgb(0%,51.764706%,23.529412%);fill-opacity:1;" d="M 54.367188 42.3125 C 57.203125 45.351562 63 47.734375 67.503906 46.367188 L 72.511719 51.722656 L 69.933594 52.40625 C 66.539062 48.949219 59.957031 48.054688 55.707031 49.242188 C 39.738281 53.703125 43.734375 69.261719 59.699219 64.800781 C 63.988281 63.601562 69.34375 59.304688 70.546875 54.46875 L 74.171875 53.507812 L 87.128906 65.398438 C 87.421875 65.71875 87.621094 65.761719 88.050781 65.328125 C 88.476562 64.894531 88.277344 64.296875 88.050781 64.03125 L 75.652344 52.015625 L 76.667969 48.265625 C 81.34375 47.121094 85.582031 41.644531 86.835938 37.195312 C 91.496094 20.660156 76.695312 16.101562 72.03125 32.652344 C 70.789062 37.054688 71.484375 43.941406 74.71875 47.566406 L 73.996094 50.246094 L 68.984375 44.890625 C 70.398438 40.234375 68.265625 34.128906 65.417969 31.089844 C 54.835938 19.769531 43.804688 31.019531 54.382812 42.324219 Z M 60.300781 35.578125 L 61.71875 30.335938 C 62.519531 30.851562 63.335938 31.523438 64.152344 32.371094 C 64.324219 32.554688 64.496094 32.75 64.65625 32.972656 L 63.132812 38.589844 L 60.316406 35.578125 Z M 66.113281 35.425781 C 67.183594 37.738281 67.757812 40.582031 67.183594 42.9375 L 64.777344 40.375 Z M 65.726562 44.457031 C 63.453125 45.015625 60.726562 44.332031 58.523438 43.148438 L 63.308594 41.867188 Z M 56.214844 41.558594 C 56.011719 41.378906 55.828125 41.195312 55.652344 41.015625 C 54.835938 40.164062 54.210938 39.300781 53.730469 38.449219 L 58.816406 37.085938 L 61.640625 40.09375 L 56.199219 41.558594 Z M 52.875 36.46875 C 52.269531 34.449219 52.539062 32.621094 53.394531 31.285156 L 57.175781 35.328125 Z M 54.878906 29.792969 C 56.1875 28.96875 57.925781 28.734375 59.835938 29.402344 L 58.644531 33.808594 C 56.667969 31.6875 56.277344 31.285156 54.878906 29.792969 Z M 57.109375 55.875 L 53.632812 52.167969 C 54.394531 51.804688 55.265625 51.484375 56.214844 51.21875 C 56.585938 51.121094 56.976562 51.039062 57.402344 50.96875 L 61.023438 54.84375 L 57.109375 55.890625 Z M 60.128906 50.800781 C 62.734375 50.886719 65.527344 51.609375 67.246094 53.171875 L 63.335938 54.21875 L 60.140625 50.800781 Z M 67.71875 55.277344 C 66.925781 57.589844 64.777344 59.78125 62.519531 61.242188 L 63.84375 56.308594 L 67.730469 55.277344 Z M 60.035156 62.527344 C 59.753906 62.636719 59.472656 62.734375 59.195312 62.804688 C 58.109375 63.113281 57.109375 63.277344 56.171875 63.363281 L 57.605469 57.96875 L 61.519531 56.921875 L 60.023438 62.527344 Z M 54.0625 63.335938 C 51.511719 63.054688 49.789062 61.84375 49.054688 60.253906 L 55.332031 58.582031 L 54.074219 63.222656 C 54.074219 63.222656 54.0625 63.292969 54.0625 63.320312 Z M 48.652344 58.148438 C 48.746094 56.476562 49.746094 54.691406 51.765625 53.242188 L 54.808594 56.488281 C 51.671875 57.328125 51.429688 57.394531 48.652344 58.136719 Z M 78.273438 34.324219 L 77.175781 38.378906 L 73.59375 34.574219 C 73.671875 34.085938 73.769531 33.625 73.886719 33.207031 C 74.15625 32.261719 74.464844 31.410156 74.8125 30.644531 L 78.257812 34.324219 Z M 73.410156 37.433594 L 76.53125 40.777344 L 75.464844 44.75 C 74.0625 42.953125 73.449219 40.109375 73.410156 37.445312 Z M 77.429688 45.363281 L 78.511719 41.351562 L 83.308594 40.082031 C 81.839844 42.410156 79.675781 44.613281 77.429688 45.351562 Z M 84.617188 37.53125 L 79.15625 38.964844 L 80.25 34.910156 L 85.511719 33.527344 C 85.417969 34.476562 85.21875 35.507812 84.910156 36.597656 C 84.832031 36.890625 84.726562 37.210938 84.605469 37.53125 Z M 85.566406 31.339844 C 85.566406 31.339844 85.445312 31.339844 85.390625 31.339844 L 80.902344 32.539062 L 82.679688 25.929688 C 84.21875 26.738281 85.367188 28.59375 85.566406 31.328125 Z M 80.664062 25.5 C 79.863281 28.441406 79.792969 28.675781 78.914062 31.953125 L 75.882812 28.71875 C 77.308594 26.601562 79.046875 25.570312 80.664062 25.5 Z M 80.664062 25.5 "/>
</g>
</svg>
