<svg width="308" height="241" viewBox="0 0 308 241" fill="none" xmlns="http://www.w3.org/2000/svg">
<g clip-path="url(#clip0_1241_90399)">
<path d="M120.831 230.49C120.831 230.49 229.069 258.357 269.756 223.33C269.756 223.33 323.998 190.975 279.397 117.737C279.397 117.737 241.507 34.4501 175.172 6.13788C175.172 6.13788 96.3667 -32.2221 53.3938 83.0064C53.3938 83.0064 50.9095 89.2925 47.6849 96.882C42.9796 107.887 36.8759 118.232 29.7192 127.818C17.8737 143.657 -0.750136 175.532 24.8658 193.483C24.8658 193.483 44.9539 215.493 120.847 230.507L120.831 230.49Z" fill="#E3E3FD"/>
</g>
<g clip-path="url(#clip1_1241_90399)">
<path d="M1.99928 117.747C0.402991 116.555 -0.252328 115.06 0.0837332 112.978C0.268567 111.82 0.974295 110.913 1.91527 110.291C1.91527 110.291 1.91527 110.275 1.91527 110.258C2.1001 109.049 2.87304 108.092 3.89803 107.47C4.8558 106.883 5.9648 106.597 7.0738 106.396C8.50206 106.127 9.94713 105.925 11.3922 105.791C16.8868 105.237 22.3814 105.489 27.8424 106.093C27.2711 105.237 26.6998 104.397 26.1285 103.541C25.4059 102.466 24.717 101.341 24.381 100.048C23.4064 96.3875 27.3215 95.1112 30.0268 96.5722C32.312 97.798 34.4124 99.5276 36.4623 101.123C38.6131 102.802 40.7639 104.465 42.7971 106.261C51.165 113.599 56.6092 121.139 59.4153 127.873C59.4993 128.058 58.844 133.179 56.1387 136.387C57.3149 137.596 58.4912 138.805 59.6338 140.047C57.819 142.264 55.1641 145.387 52.5429 148.359C50.4257 144.833 45.8553 154.388 43.1164 151.298C42.5282 149.014 30.6317 127.487 30.6317 127.487C13.879 125.153 3.89803 125.404 1.91527 123.188C1.09192 122.264 1.0247 120.719 1.20954 119.477C1.31036 118.822 1.59601 118.234 1.98248 117.747H1.99928Z" fill="#FFA585"/>
<path d="M20.1298 115.95C13.9295 114.556 7.59472 115.009 1.64644 117.259C1.09194 117.461 1.32718 118.368 1.89849 118.149C7.67874 115.966 13.8455 115.479 19.8778 116.84C20.4659 116.974 20.7011 116.084 20.1298 115.95Z" fill="#1F233C"/>
<path d="M23.995 109.081C21.1889 111.953 19.4413 115.697 19.0045 119.677C18.9373 120.265 19.8614 120.265 19.9286 119.677C20.3319 115.949 22.029 112.423 24.6335 109.736C25.0536 109.316 24.3983 108.645 23.9782 109.081H23.995Z" fill="#1F233C"/>
<path d="M22.987 110.374C16.249 108.41 8.75483 108.376 2.03361 110.425C1.46231 110.593 1.71435 111.499 2.28566 111.315C8.85565 109.3 16.165 109.35 22.7518 111.264C23.3231 111.432 23.5751 110.542 23.0038 110.374H22.987Z" fill="#1F233C"/>
<path d="M27.1871 106.262C28.3297 107.236 29.5563 108.126 30.8333 108.915C31.3374 109.234 31.8079 108.428 31.3038 108.109C30.094 107.353 28.9346 106.514 27.8424 105.607C27.6576 105.439 27.3719 105.422 27.1871 105.607C27.0191 105.775 27.0023 106.094 27.1871 106.262Z" fill="#1F233C"/>
<path d="M30.5482 108.661C30.0945 112.675 32.2117 116.789 35.7067 118.787C36.2276 119.089 36.6981 118.283 36.1772 117.981C32.9342 116.134 31.0523 112.356 31.4724 108.661C31.5396 108.074 30.6154 108.074 30.5482 108.661Z" fill="#1F233C"/>
<path d="M197.335 102.198C195.302 100.183 192.849 98.5539 190.261 97.4288C189.303 97.009 172.904 90.7287 173.441 90.1074C173.139 90.4769 167.963 107.706 166.989 109.536C165.947 111.484 165.913 113.717 165.947 115.867C165.981 117.999 166.485 120.115 168.316 121.425C170.047 122.668 172.265 123.205 174.315 123.658C178.768 124.632 183.338 124.699 187.875 124.733C189.203 124.733 190.53 124.767 191.807 124.38C192.983 124.028 193.941 123.289 194.815 122.449C196.562 120.787 198.259 119.074 199.973 117.378C200.696 117.899 201.956 117.563 202.191 116.488C203.401 110.947 201.116 105.909 197.335 102.164V102.198Z" fill="#111DAA"/>
<path d="M147.564 100.904C146.287 96.9747 143.935 93.5155 142.557 89.6365C141.028 85.3545 142.288 81.5762 142.019 77.3278C141.616 70.7956 137.146 75.0608 136.978 77.8316C136.659 83.1883 133.399 87.2688 128.812 89.3846C123.519 91.8195 117.705 89.7037 112.177 89.7708C107.001 89.838 101.843 90.6608 97.138 92.9446C88.6525 97.0586 83.0403 105.253 81.9313 114.573C79.2764 136.991 111.908 132.91 123.536 130.777C127.568 130.039 131.567 129.182 135.55 128.191C137.381 127.738 139.28 127.352 140.994 126.546C142.775 125.723 144.136 124.447 145.212 122.818C147.228 119.745 148.337 115.933 148.723 112.306C149.127 108.477 148.774 104.565 147.581 100.887L147.564 100.904Z" fill="#111DAA"/>
<path d="M306 112.441C307.597 111.248 308.252 109.754 307.916 107.672C307.731 106.513 307.025 105.606 306.084 104.985C306.084 104.985 306.084 104.968 306.084 104.951C305.899 103.742 305.126 102.785 304.101 102.164C303.144 101.576 302.035 101.29 300.926 101.089C299.497 100.82 298.052 100.619 296.607 100.484C291.113 99.9303 285.618 100.182 280.157 100.787C280.728 99.9303 281.3 99.0907 281.871 98.2343C282.594 97.1596 283.282 96.0345 283.619 94.7415C284.593 91.0808 280.678 89.8046 277.973 91.2655C275.688 92.4914 273.587 94.221 271.537 95.8162C269.386 97.4954 267.236 99.1579 265.202 100.955C256.834 108.293 254.381 111.399 247.24 125.169C247.139 125.354 249.155 127.873 251.861 131.08C250.685 132.289 249.508 133.498 248.366 134.741C250.18 136.957 252.835 140.081 255.457 143.053C257.574 139.526 262.144 149.081 264.883 145.991C265.471 143.708 277.368 122.18 277.368 122.18C294.12 119.846 304.101 120.098 306.084 117.881C306.908 116.958 306.975 115.413 306.79 114.17C306.689 113.515 306.403 112.927 306.017 112.441H306Z" fill="#FFA585"/>
<path d="M276.058 144.513C275.99 144.732 275.923 144.95 275.856 145.168C272.966 154.874 269.689 164.513 265.875 173.883C264.01 178.467 261.993 183.001 259.725 187.384C257.574 191.532 255.07 195.545 251.626 198.752C248.416 201.724 244.3 203.941 239.897 204.361C235.327 204.797 231.009 203.135 227.261 200.633C223.548 198.148 220.355 194.89 217.331 191.632C214.256 188.324 211.383 184.815 208.761 181.137C205.636 176.771 202.863 172.153 200.494 167.334L200.729 197.157C200.763 201.036 197.621 204.21 193.723 204.21H125.452C119.655 204.21 114.866 199.709 114.513 193.933C114.009 185.688 113.303 174.32 112.799 166.931C108.279 175.042 103.776 182.615 98.7181 190.407C90.451 203.135 84.0322 217.912 65.8849 213.042C56.1055 210.423 45.1667 192.892 40.3611 179.609C37.0341 170.424 34.4464 161.02 32.5645 151.465C35.589 148.493 38.6472 145.555 41.8229 142.75C49.1323 136.285 52.0728 134.304 59.4661 127.906C60.3567 129.753 61.2473 131.583 62.121 133.431C64.7927 139.039 67.5148 144.614 70.2873 150.189C72.791 145.185 75.345 140.198 78.252 135.412C82.2511 128.846 87.1072 122.7 93.4923 118.284C96.4329 116.235 99.6927 114.573 103.137 113.532C106.985 112.373 110.968 112.054 114.967 112.423C129.568 113.784 151.093 117.411 167.879 116.957C190.211 116.353 190.832 104.749 202.897 108.293C209.954 110.375 215.785 114.64 219.717 120.249C224.539 127.1 233.529 142.683 234.806 145.638C236.621 142.297 238.486 138.989 240.401 135.697C242.166 132.658 243.98 129.652 245.846 126.68C247.005 124.833 248.148 122.935 249.357 121.105C254.012 125.572 259.019 129.686 263.993 133.817C268.126 137.276 272.109 140.92 276.125 144.53L276.058 144.513Z" fill="#9FA4FF"/>
<path d="M219.834 172.154C223.85 165.504 227.849 158.838 231.865 152.188C233.008 150.307 234.134 148.41 235.276 146.529C235.579 146.009 234.789 145.555 234.47 146.059C230.454 152.709 226.455 159.375 222.439 166.025C221.296 167.906 220.17 169.803 219.028 171.684C218.725 172.204 219.515 172.658 219.834 172.154Z" fill="#1F233C"/>
<path d="M202.208 148.763C201.57 153.75 200.931 158.738 200.293 163.725C200.225 164.313 201.15 164.313 201.217 163.725C201.855 158.738 202.494 153.75 203.132 148.763C203.199 148.175 202.275 148.175 202.208 148.763Z" fill="#1F233C"/>
<path d="M70.0015 150.61C73.1773 157.797 76.3699 164.984 79.5457 172.171C80.453 174.22 81.3604 176.252 82.2509 178.3C82.4862 178.838 83.2927 178.367 83.0575 177.83C79.8817 170.643 76.6891 163.456 73.5134 156.269C72.606 154.22 71.6986 152.188 70.8081 150.14C70.5728 149.602 69.7663 150.072 70.0015 150.61Z" fill="#1F233C"/>
<path d="M36.1434 165.336C43.688 158.771 51.2158 152.222 58.7603 145.656C60.8775 143.809 63.0115 141.962 65.1287 140.114C65.5824 139.728 64.9271 139.073 64.4734 139.46C56.9288 146.025 49.401 152.574 41.8565 159.14C39.7393 160.987 37.6053 162.834 35.4881 164.681C35.0344 165.068 35.6897 165.723 36.1434 165.336Z" fill="#1F233C"/>
<path d="M243.073 131.113C250.332 137.847 257.591 144.564 264.833 151.297C266.9 153.212 268.949 155.126 271.016 157.024C271.453 157.427 272.108 156.772 271.672 156.369C264.413 149.635 257.154 142.918 249.912 136.184C247.845 134.27 245.795 132.356 243.728 130.458C243.291 130.055 242.636 130.71 243.073 131.113Z" fill="#1F233C"/>
<path d="M110.884 151.582C111.589 156.671 112.295 161.775 112.984 166.863C113.068 167.451 113.958 167.199 113.874 166.612C113.169 161.523 112.463 156.419 111.774 151.331C111.69 150.743 110.799 150.995 110.884 151.582Z" fill="#1F233C"/>
<path d="M153.412 122.348C154.084 132.389 154.756 142.448 155.445 152.49C156.151 162.968 156.857 173.446 157.562 183.925C157.932 189.416 158.302 194.89 158.671 200.381C158.705 200.969 159.646 200.985 159.596 200.381C158.924 190.339 158.251 180.281 157.562 170.239C156.857 159.761 156.151 149.282 155.445 138.804C155.076 133.313 154.706 127.839 154.336 122.348C154.303 121.76 153.362 121.743 153.412 122.348Z" fill="#1F233C"/>
<path d="M151.042 90.2422L147.362 108.176C147.362 108.176 146.102 123.054 158.856 124.549C164.115 125.17 167.408 122.299 167.442 121.912C167.476 121.526 168.265 105.842 168.265 105.842L151.026 90.259L151.042 90.2422Z" fill="#FFA585"/>
<path d="M148.556 112.827C148.556 112.827 160.671 123.591 167.812 116.958L167.577 121.072C167.543 121.677 167.493 122.281 167.409 122.886C166.569 129.233 161.545 166.058 157.747 166.058C151.967 166.058 147.665 122.499 146.758 116.118C145.918 110.207 148.556 112.844 148.556 112.844V112.827Z" fill="white"/>
<path d="M138.894 70.292C139.129 69.4692 139.431 68.6632 139.818 67.8908C144.405 58.8398 156.47 59.1252 164.72 62.4669C170.971 64.9857 174.046 68.9487 174.264 74.8427C174.398 78.2516 173.256 85.5394 173.256 85.5394C173.256 85.5394 174.936 95.43 174.936 98.7381C174.936 105.035 172.55 110.812 164.3 110.761C156.671 110.711 149.95 104.33 145.447 98.4022C140.019 91.2655 137.432 83.6754 138.137 74.742C138.255 73.2475 138.473 71.7362 138.877 70.3088L138.894 70.292Z" fill="#FFA585"/>
<path d="M175.979 67.6063C174.416 65.0203 171.392 62.4008 168.182 62.6694C165.594 62.8877 166.653 65.9103 166.922 67.0186C167.644 69.9741 168.888 73.5004 170.602 76.12C171.526 77.5473 172.87 78.706 174.433 79.3777C175.273 79.7303 176.466 80.0326 177.39 79.7807C178.701 79.4281 178.684 78.2526 178.667 77.094C178.667 73.8698 177.625 70.3771 175.962 67.6231L175.979 67.6063Z" fill="#111DAA"/>
<path d="M167.644 63.4251C167.93 62.9381 167.913 62.2832 167.359 61.8131C165.275 60.0667 162.452 59.2103 159.797 58.8744C157.193 58.5386 154.521 58.7233 151.967 59.3446C146.556 60.6544 141.045 63.9793 138.659 69.1848C135.954 75.0957 137.382 81.5943 137.13 87.841C136.928 92.9122 135.214 98.4369 129.821 99.9818C126.863 100.838 123.687 100.704 120.797 101.879C119.571 102.383 118.294 103.273 117.386 104.365C116.933 104.079 116.294 104.113 115.874 104.415C112.228 107.034 122.864 115.128 124.628 116.405C127.737 118.655 131.299 120.284 135.063 121.039C137.483 121.526 140.037 121.644 142.406 120.888C144.607 120.183 146.523 118.655 147.985 116.892C150.892 113.365 152.219 108.714 152.404 104.197C152.639 98.8735 151.631 93.6175 150.69 88.3783C154.202 87.0518 157.361 84.8688 160.116 82.3331C163.746 78.9915 167.241 75.0285 168.249 70.058C168.686 67.8918 168.585 65.4402 167.644 63.4083V63.4251Z" fill="#111DAA"/>
<path d="M101.877 104.683C105.977 102.584 110.782 102.081 115.235 103.29C115.807 103.441 116.059 102.551 115.487 102.4C110.799 101.14 105.742 101.678 101.406 103.894C100.869 104.163 101.339 104.969 101.877 104.7V104.683Z" fill="#516BED"/>
<path d="M108.631 107.538C112.815 106.749 117.134 106.984 121.2 108.243C121.771 108.411 122.024 107.521 121.452 107.353C117.218 106.06 112.731 105.825 108.396 106.648C107.808 106.765 108.06 107.655 108.648 107.538H108.631Z" fill="#516BED"/>
<path d="M165.275 89.8221C165.779 90.4938 166.283 91.1655 166.787 91.8204C167.308 92.5256 167.946 93.1973 168.35 93.9866C168.518 94.3056 168.618 94.6918 168.383 94.9941C168.148 95.2795 167.745 95.4139 167.392 95.5146C166.417 95.7833 165.409 95.7161 164.451 95.3803C163.779 95.1452 163.493 96.2031 164.166 96.4382C165.291 96.8412 166.535 96.8916 167.694 96.5725C168.702 96.2871 169.744 95.5986 169.627 94.4064C169.509 93.2981 168.602 92.3913 167.963 91.5517C167.392 90.796 166.821 90.0404 166.249 89.2847C166.064 89.0496 165.779 88.9321 165.493 89.0832C165.258 89.2176 165.123 89.6038 165.291 89.8389L165.275 89.8221Z" fill="#1F233C"/>
<path d="M156.386 117.612C154 116.957 151.782 115.294 150.572 113.128C150.287 112.608 149.531 113.145 149.816 113.666C151.161 116.05 153.631 117.813 156.252 118.535C156.823 118.703 156.974 117.78 156.403 117.612H156.386Z" fill="#1F233C"/>
<path d="M171.61 79.8135C175.155 80.8378 177.407 82.7185 177.289 83.7261C177.188 84.5657 175.508 84.2298 173.072 83.1048C170.433 81.8789 168.131 82.2148 167.661 80.6867C167.291 79.4608 168.283 78.8563 171.593 79.8135H171.61Z" fill="#1F233C"/>
<path d="M158.184 79.8132C154.656 80.8543 152.37 82.6343 152.454 83.5579C152.522 84.3303 154.202 83.9609 156.638 82.8526C159.293 81.6436 161.545 81.8787 162.066 80.4849C162.469 79.3598 161.494 78.8393 158.201 79.8132H158.184Z" fill="#1F233C"/>
<path d="M157.511 92.0552C158.335 95.4137 156.268 98.8057 152.907 99.6285C149.547 100.451 146.153 98.3859 145.329 95.0274C144.506 91.669 146.573 88.277 149.933 87.4541C153.294 86.6313 156.688 88.6968 157.511 92.0552Z" fill="#FFA585"/>
<path d="M158.621 87.6388C156.571 87.7563 156.89 90.3087 157.276 91.3163C157.528 91.9712 158.049 92.7268 158.973 92.6764C160.335 92.5757 160.385 90.9804 160.318 90.124C160.234 89.1669 159.965 87.5716 158.621 87.6388Z" fill="#1F233C"/>
<path d="M171.022 87.4531C168.888 87.5875 169.224 90.2238 169.627 91.265C169.896 91.9534 170.433 92.7427 171.391 92.6755C172.803 92.5747 172.853 90.9123 172.786 90.0391C172.702 89.0484 172.416 87.386 171.022 87.4699V87.4531Z" fill="#1F233C"/>
<path d="M150.959 89.8719C149.514 89.939 148.27 91.0977 148.018 92.5082C147.733 94.0195 148.472 95.5644 149.665 96.488C149.9 96.6727 150.22 96.7231 150.438 96.488C150.623 96.3033 150.673 95.9003 150.438 95.7155C149.581 95.0439 148.909 93.9692 149.06 92.8441C149.195 91.9037 149.984 91.0137 150.942 90.9633C151.648 90.9298 151.648 89.8383 150.942 89.8719H150.959Z" fill="#1F233C"/>
<path d="M161.393 101.527C163.242 102.971 165.779 103.323 167.963 102.517C168.249 102.417 168.333 102.03 168.215 101.778C168.081 101.493 167.762 101.426 167.476 101.527C165.644 102.198 163.544 101.812 162.015 100.62C161.46 100.183 160.839 101.09 161.393 101.527Z" fill="#1F233C"/>
<path d="M160.671 119.309C160.537 119.309 160.386 119.309 160.251 119.359C159.31 119.644 158.823 120.618 158.336 121.324C158.084 121.693 156.924 123.272 156.958 123.591C157.092 124.632 157.26 125.018 157.714 125.992C157.949 126.496 158.201 126.966 158.52 127.419C158.789 127.822 159.092 128.376 159.646 128.46C160.251 128.561 160.604 128.074 160.923 127.688C161.293 127.235 161.646 126.764 161.982 126.294C162.62 125.421 163.225 124.514 163.797 123.607C162.704 122.197 161.663 120.77 160.654 119.309H160.671Z" fill="#111DAA"/>
<path d="M164.72 141.944C162.536 157.51 159.595 167.737 156.352 166.41C156.352 166.41 153.781 162.33 152.319 153.615C153.126 148.426 156.991 128.023 159.612 127.704C161.259 127.503 163.258 137.528 164.703 141.961L164.72 141.944Z" fill="#111DAA"/>
<path d="M149.429 82.45C154.52 79.5282 157.948 74.205 158.553 68.3781C158.62 67.6729 157.528 67.6897 157.461 68.3781C156.89 73.802 153.613 78.7893 148.875 81.4929C148.253 81.8455 148.807 82.7859 149.429 82.4332V82.45Z" fill="#516BED"/>
<path d="M149.093 73.9524C151.681 71.4839 153.546 68.2934 154.42 64.8174C154.588 64.1289 153.529 63.8435 153.361 64.5319C152.521 67.8232 150.773 70.829 148.32 73.1799C147.816 73.6669 148.589 74.4394 149.093 73.9524Z" fill="#516BED"/>
<path d="M288.105 111.551C294.154 110.19 300.304 110.677 306.085 112.86C306.639 113.079 306.891 112.172 306.337 111.97C300.388 109.72 294.054 109.267 287.853 110.661C287.265 110.795 287.517 111.685 288.105 111.551Z" fill="#1F233C"/>
<path d="M283.35 104.447C285.971 107.134 287.652 110.66 288.055 114.388C288.122 114.976 289.046 114.976 288.979 114.388C288.542 110.408 286.795 106.664 283.989 103.792C283.569 103.356 282.913 104.027 283.333 104.447H283.35Z" fill="#1F233C"/>
<path d="M285.248 105.96C291.835 104.045 299.144 103.995 305.714 106.01C306.286 106.178 306.538 105.288 305.966 105.12C299.245 103.071 291.751 103.105 285.013 105.07C284.442 105.238 284.677 106.128 285.265 105.96H285.248Z" fill="#1F233C"/>
<path d="M280.157 100.3C279.065 101.224 277.905 102.063 276.695 102.802C276.191 103.121 276.662 103.927 277.166 103.608C278.443 102.819 279.653 101.929 280.812 100.955C280.997 100.787 280.98 100.468 280.812 100.3C280.627 100.116 280.342 100.132 280.157 100.3Z" fill="#1F233C"/>
<path d="M276.511 103.357C276.931 107.068 275.049 110.829 271.806 112.676C271.285 112.979 271.755 113.768 272.276 113.483C275.788 111.484 277.905 107.37 277.435 103.357C277.368 102.769 276.443 102.769 276.511 103.357Z" fill="#1F233C"/>
<path d="M157.747 166.041C151.379 163.976 146.019 159.324 141.6 154.455C137.012 149.417 133.08 143.674 130.106 137.545C128.947 135.16 127.888 132.658 127.267 130.055C131.165 130.055 135.046 130.089 138.945 130.106C139.482 130.106 139.566 129.35 139.062 129.199C136.374 128.359 133.837 127.05 131.35 125.757C129.938 125.018 128.544 124.262 127.166 123.473C127.267 122.062 127.401 120.652 127.586 119.224C127.3 119.107 127.015 118.956 126.712 118.805C126.477 120.45 126.309 122.096 126.208 123.725C126.208 123.893 126.309 124.044 126.443 124.128C127.939 125.001 129.468 125.824 131.014 126.63C132.744 127.537 134.509 128.427 136.323 129.182C133.114 129.182 129.905 129.165 126.695 129.149C126.376 129.149 126.191 129.451 126.242 129.736C126.763 132.255 127.737 134.673 128.812 137.007C130.19 139.996 131.837 142.868 133.635 145.639C137.533 151.617 142.238 157.242 147.884 161.642C150.791 163.892 153.983 165.823 157.495 166.965C158.067 167.149 158.302 166.259 157.747 166.075V166.041Z" fill="#1F233C"/>
<path d="M167.829 111.652L173.29 116.539L167.661 119.797L167.829 111.652Z" fill="#9FA4FF"/>
<path d="M157.864 166.897C163.409 164.311 167.644 159.29 170.988 154.303C174.634 148.879 177.558 142.868 179.608 136.654C180.498 133.934 181.254 131.13 181.557 128.258C181.573 128.023 181.321 127.788 181.086 127.788C177.02 128.023 172.937 128.258 168.87 128.493C168.904 128.796 168.954 129.098 168.988 129.4C171.592 128.426 174.046 126.965 176.415 125.521C177.86 124.648 179.305 123.741 180.7 122.784C180.868 122.667 180.969 122.465 180.918 122.264C179.591 117.898 170.03 114.606 168.181 110.425C167.946 109.888 167.577 111.08 167.812 111.617C169.627 115.715 177.978 117.763 180.011 122.499C180.078 122.331 180.145 122.146 180.229 121.978C178.868 122.902 177.474 123.775 176.062 124.631C173.726 126.059 171.307 127.52 168.736 128.493C168.282 128.661 168.299 129.434 168.854 129.4C172.92 129.165 177.003 128.93 181.069 128.695C180.918 128.544 180.767 128.393 180.599 128.225C180.347 130.643 179.742 133.027 179.019 135.345C178.112 138.283 176.969 141.155 175.676 143.942C172.937 149.836 169.509 155.579 165.006 160.298C162.804 162.615 160.284 164.697 157.377 166.041C156.839 166.293 157.31 167.099 157.848 166.847L157.864 166.897Z" fill="#1F233C"/>
<path d="M89.6614 12.3094C90.3671 12.1918 90.8376 11.5369 90.7368 10.8317L89.1741 1.09218C89.0565 0.38691 88.4012 -0.0832719 87.6954 0.0174814C86.9897 0.118235 86.5192 0.789923 86.62 1.4952L88.1827 11.2347C88.3003 11.94 88.9557 12.4269 89.6614 12.3094Z" fill="#F2CA08"/>
<path d="M76.4711 16.4739C76.7567 16.8937 77.244 17.112 77.7481 17.0281C77.9329 16.9945 78.1178 16.9273 78.269 16.8266C78.5547 16.6251 78.7563 16.3396 78.8067 16.0038C78.8739 15.6679 78.8067 15.3153 78.6051 15.0298L73.0769 6.85199C72.7912 6.43219 72.3039 6.23068 71.7998 6.29785C71.615 6.33144 71.447 6.3986 71.2789 6.49936C70.9933 6.70086 70.7916 6.98633 70.7244 7.32218C70.6572 7.65802 70.7244 8.01066 70.9261 8.29612L76.4543 16.4739H76.4711Z" fill="#F2CA08"/>
<path d="M68.0521 26.1781C68.3209 26.3293 68.6234 26.3964 68.9259 26.3461C69.2955 26.2789 69.6316 26.0606 69.8332 25.7415C70.0181 25.4393 70.0685 25.1034 69.9844 24.7676C69.9004 24.4318 69.6988 24.1463 69.3963 23.9784L60.9276 18.9071C60.6755 18.756 60.3563 18.6888 60.0538 18.7392C59.6674 18.8064 59.3481 19.0247 59.1465 19.3437C58.7768 19.9482 58.9784 20.7543 59.5834 21.1069L68.0521 26.1781Z" fill="#F2CA08"/>
<path d="M54.7103 37.4977L64.5401 38.5221C64.6409 38.5221 64.7586 38.5221 64.8762 38.5221C65.4475 38.4381 65.9012 37.9679 65.9516 37.3802C66.0188 36.6749 65.5147 36.0368 64.7922 35.9528L54.9624 34.9453C54.8448 34.9453 54.7271 34.9453 54.6263 34.9453C54.055 35.0293 53.6181 35.4995 53.5509 36.0872C53.4837 36.7925 53.9878 37.4306 54.7103 37.4977Z" fill="#F2CA08"/>
<path d="M67.3637 49.537C67.1621 48.9493 66.5572 48.5798 65.9523 48.6806C65.8683 48.6806 65.8011 48.7142 65.717 48.7477L56.3913 51.9719C56.0721 52.0894 55.8032 52.3245 55.652 52.6268C55.5008 52.929 55.484 53.2816 55.6016 53.6175C55.8032 54.2052 56.4081 54.5746 57.0299 54.4739C57.1139 54.4739 57.1811 54.4403 57.2483 54.4235L66.574 51.1994C67.2461 50.9643 67.599 50.2255 67.3637 49.5538V49.537Z" fill="#F2CA08"/>
<path d="M72.6565 59.5951C72.3877 59.6287 72.1524 59.763 71.9676 59.9477L64.8767 66.8157C64.6247 67.0508 64.4902 67.3699 64.4902 67.7225C64.4902 68.0751 64.6079 68.3942 64.8599 68.6461C65.1455 68.9483 65.5824 69.0827 65.9857 69.0155C66.2546 68.9819 66.4898 68.8476 66.6746 68.6629L73.7655 61.7949C74.0176 61.5598 74.152 61.2407 74.152 60.8881C74.152 60.5354 74.0344 60.2164 73.7823 59.9645C73.4967 59.6622 73.0598 59.5279 72.6565 59.5951Z" fill="#F2CA08"/>
<path d="M101.91 13.0473C102.095 13.0977 102.28 13.1145 102.465 13.0809C102.952 12.997 103.372 12.6443 103.507 12.1574L106.212 2.66975C106.313 2.33391 106.262 1.98127 106.094 1.69581C105.926 1.39355 105.657 1.17525 105.321 1.07449C105.137 1.02412 104.952 1.00733 104.767 1.04091C104.28 1.12487 103.859 1.47751 103.725 1.96448L101.02 11.4521C100.818 12.1406 101.221 12.8458 101.91 13.0473Z" fill="#F2CA08"/>
<path d="M113.74 19.177C114.042 19.1266 114.311 18.9755 114.513 18.7404L120.982 11.2847C121.452 10.7473 121.385 9.92449 120.848 9.4711C120.562 9.21922 120.175 9.11847 119.806 9.16884C119.503 9.21922 119.234 9.37035 119.033 9.60544L112.564 17.0612C112.093 17.5985 112.16 18.4214 112.698 18.8747C112.984 19.1266 113.37 19.2274 113.757 19.177H113.74Z" fill="#F2CA08"/>
<path d="M119.974 27.7399C119.856 28.0589 119.856 28.4116 120.008 28.7306C120.243 29.268 120.814 29.5702 121.386 29.4863C121.503 29.4695 121.604 29.4359 121.705 29.3855L130.728 25.3554C131.047 25.2211 131.283 24.9524 131.4 24.6333C131.518 24.3143 131.518 23.9616 131.367 23.6426C131.131 23.1052 130.56 22.803 129.989 22.8869C129.871 22.9037 129.77 22.9373 129.653 22.9877L120.646 27.0178C120.327 27.1522 120.092 27.4208 119.957 27.7399H119.974Z" fill="#F2CA08"/>
<path d="M134.559 40.0159C134.324 39.764 134.005 39.6296 133.652 39.6296L123.772 39.4785C123.772 39.4785 123.62 39.4785 123.536 39.4785C122.915 39.5793 122.461 40.0998 122.461 40.7379C122.461 41.4432 123.015 42.0309 123.738 42.0477L133.618 42.1989C133.618 42.1989 133.769 42.1989 133.837 42.1989C134.458 42.0981 134.912 41.5775 134.929 40.9394C134.929 40.6036 134.811 40.2677 134.559 40.0159Z" fill="#F2CA08"/>
<path d="M130.24 56.3713L121.351 52.0557C121.116 51.9381 120.847 51.9045 120.578 51.9381C120.158 52.0053 119.805 52.274 119.621 52.6434C119.301 53.2815 119.57 54.0539 120.226 54.373L129.114 58.6886C129.35 58.8061 129.618 58.8397 129.887 58.8061C130.307 58.739 130.66 58.4703 130.845 58.1009C131.164 57.4628 130.896 56.6903 130.24 56.3713Z" fill="#F2CA08"/>
<path d="M109.959 18.4539C104.112 14.2223 96.9873 12.5262 89.8964 13.6513C75.2105 16.0022 65.1791 29.839 67.5315 44.5154C69.3967 56.1524 78.4703 65.153 90.1316 66.9162C93.0218 67.4536 94.1644 70.9296 94.7693 72.8103L94.9541 73.3644C95.475 74.8589 96.8025 75.8329 98.2139 75.7154C98.2811 75.7154 98.3483 75.7154 98.3988 75.6986C99.743 75.4803 100.701 74.3216 100.986 72.6088C101.121 71.8364 101.171 71.0303 101.238 70.2579C101.272 69.922 101.306 69.5022 101.339 69.116C101.743 70.2075 102.079 72.0882 102.314 73.4484C102.919 76.9076 103.406 79.6279 105.372 79.9974C105.607 80.0477 105.859 80.0477 106.078 79.9974C106.531 79.9302 106.851 79.6951 107.036 79.5272C107.976 78.6204 107.758 77.0419 107.405 74.4391C107.304 73.6667 107.17 72.7095 107.069 71.7356V71.6852C106.935 70.409 106.699 68.1085 106.666 66.4125C106.699 66.4628 106.716 66.5132 106.75 66.5636L106.767 66.614C108.128 68.8473 109.287 70.7952 110.9 70.5266C111.018 70.5098 111.119 70.4762 111.236 70.4426C112.597 69.9556 112.597 68.3268 112.581 65.8751C112.581 63.3899 112.547 59.9978 113.958 58.5537C113.975 58.5369 113.992 58.5033 114.009 58.4865C119.604 52.3742 122.057 44.1964 120.747 36.0353C119.604 28.9322 115.773 22.7023 109.926 18.4707L109.959 18.4539Z" fill="#F2CA08"/>
<path d="M301.631 106.916C296.658 97.663 282.526 96.051 275.738 103.507C274.746 104.598 274.982 106.328 276.192 107.151C278.863 108.981 284.727 116.218 299.817 110.156C301.278 109.569 302.371 108.309 301.631 106.916Z" fill="#8E6524"/>
<path d="M287.92 98.8044V90.6938L296.221 82.3984" stroke="#00A95F" stroke-width="1.8" stroke-linecap="round" stroke-linejoin="round"/>
<path d="M287.921 90.6938L279.805 82.4824" stroke="#00A95F" stroke-width="1.8" stroke-linecap="round" stroke-linejoin="round"/>
<path d="M292.121 86.5975C285.534 68.4619 302.438 74.3896 307.109 69.2344C307.109 69.2344 310.638 91.9375 292.121 86.5975Z" fill="#00A95F"/>
<path d="M283.904 86.5971C288.391 65.8923 273.218 74.7586 267.673 70.4766C267.673 70.4766 266.715 92.3232 283.904 86.5971Z" fill="#00A95F"/>
<path d="M160.251 119.359L153.916 127.839" stroke="#111DAA" stroke-width="0.48" stroke-miterlimit="10" stroke-linecap="round"/>
<path d="M160.385 119.359L166.72 127.839" stroke="#111DAA" stroke-width="0.48" stroke-miterlimit="10" stroke-linecap="round"/>
</g>
<defs>
<clipPath id="clip0_1241_90399">
<rect width="285" height="241" fill="white" transform="translate(12)"/>
</clipPath>
<clipPath id="clip1_1241_90399">
<rect width="308" height="214" fill="white"/>
</clipPath>
</defs>
</svg>
