<svg width="12" height="12" viewBox="0 0 12 12" fill="none" xmlns="http://www.w3.org/2000/svg">
<path fill="#18753C" d="M6.64195 0.464844C6.56695 0.464844 5.9107 0.584141 5.9107 0.584141C5.88023 1.55938 5.1982 2.42352 3.7943 2.57352L3.4943 2.03281L2.90602 2.09094L3.17086 3.4993L0.503906 3.38445L0.789844 4.35711C3.66305 5.28289 3.5318 7.93133 2.90602 10.2985C4.00758 11.5407 6.22945 11.4188 7.26539 11.3087C7.33805 9.85086 8.49352 9.79695 10.4505 10.554C10.7154 10.1415 10.8912 9.71023 11.4959 9.3657L10.4037 6.09617L9.75914 6.24148C10.017 5.74695 10.5138 5.07195 10.9404 4.75555L11.306 2.71883C9.22945 2.57117 7.87477 1.63227 6.64195 0.464844Z"/>
</svg>
