<svg width="134" height="134" viewBox="0 0 134 134" fill="none" xmlns="http://www.w3.org/2000/svg">
<rect width="134" height="134" rx="20" fill="#6A6AF4"/>
<g clip-path="url(#clip0_2791_80466)">
<path d="M101.096 46.3098C102.808 44.8193 103.902 42.6164 103.902 40.1697C103.902 35.6794 100.254 32.0234 95.7736 32.0234C91.293 32.0234 87.6449 35.6794 87.6449 40.1697C87.6449 44.66 91.293 48.3159 95.7736 48.3159C98.2899 48.3159 106.493 48.7096 106.493 53.753C106.493 55.8809 105.277 58.3183 95.7736 58.3183C86.2698 58.3183 85.0538 55.8809 85.0538 53.753C85.0538 51.625 86.6066 49.9658 89.6654 49.0659C90.3295 48.869 90.713 48.1753 90.5166 47.5097C90.3201 46.8442 89.6279 46.4598 88.9638 46.6567C84.8293 47.8659 82.5469 50.3876 82.5469 53.753C82.5469 60.8306 92.1536 60.8306 95.7736 60.8306C99.3936 60.8306 109 60.8306 109 53.753C109 49.9658 106.129 47.3504 101.105 46.3098H101.096ZM90.1424 40.1697C90.1424 37.0574 92.668 34.5264 95.7736 34.5264C98.8792 34.5264 101.405 37.0574 101.405 40.1697C101.405 43.2819 98.8792 45.813 95.7736 45.813C92.668 45.813 90.1424 43.2819 90.1424 40.1697Z" fill="#E8EDFF"/>
<path d="M72.0605 92.47C73.7723 90.9701 74.8574 88.7765 74.8574 86.3298C74.8574 81.8396 71.2093 78.1836 66.7287 78.1836C62.2481 78.1836 58.5906 81.8396 58.5906 86.3298C58.5906 90.8201 62.2387 94.4761 66.7287 94.4761C69.2449 94.4761 77.4485 94.8698 77.4485 99.9131C77.4485 102.041 76.2325 104.488 66.7287 104.488C57.2249 104.488 55.9995 102.041 55.9995 99.9131C55.9995 97.7852 57.5523 96.1259 60.6204 95.226C61.2846 95.0292 61.6681 94.3355 61.4717 93.6699C61.2752 93.0043 60.5924 92.6293 59.9189 92.8168C55.7844 94.0355 53.502 96.5478 53.502 99.9131C53.502 107 63.1086 107 66.7287 107C70.3487 107 79.9554 107 79.9554 99.9131C79.9554 96.1259 77.0837 93.5105 72.0605 92.47ZM61.0975 86.3298C61.0975 83.2176 63.6231 80.6865 66.7287 80.6865C69.8342 80.6865 72.3599 83.2176 72.3599 86.3298C72.3599 89.4421 69.8342 91.9731 66.7287 91.9731C63.6231 91.9731 61.0975 89.4421 61.0975 86.3298Z" fill="#E8EDFF"/>
<path d="M43.559 46.3098C45.2708 44.8099 46.3652 42.6164 46.3652 40.1697C46.3652 35.6794 42.7171 32.0234 38.2365 32.0234C33.7559 32.0234 30.1078 35.6794 30.1078 40.1697C30.1078 44.66 33.7559 48.3159 38.2365 48.3159C40.7527 48.3159 48.9563 48.7096 48.9563 53.753C48.9563 55.8809 47.7403 58.3183 38.2365 58.3183C28.7327 58.3183 27.5167 55.8809 27.5167 53.753C27.5167 51.625 29.0695 49.9658 32.1283 49.0659C32.7924 48.869 33.1759 48.1753 32.9795 47.5097C32.783 46.8442 32.0908 46.4598 31.4267 46.6567C27.2922 47.8659 25.0098 50.3876 25.0098 53.753C25.0098 60.8306 34.6164 60.8306 38.2365 60.8306C41.8565 60.8306 51.4632 60.8306 51.4632 53.753C51.4632 49.9658 48.5915 47.3504 43.5683 46.3098H43.559ZM32.596 40.1697C32.596 37.0574 35.1216 34.5264 38.2271 34.5264C41.3327 34.5264 43.8583 37.0574 43.8583 40.1697C43.8583 43.2819 41.3327 45.813 38.2271 45.813C35.1216 45.813 32.596 43.2819 32.596 40.1697Z" fill="#E8EDFF"/>
<path d="M48.3384 96.5099C48.1232 96.5099 47.9081 96.4536 47.7116 96.3411C36.2528 89.6948 29.125 77.3489 29.125 64.1312C29.125 63.4375 29.6862 62.875 30.3785 62.875C31.0707 62.875 31.6319 63.4375 31.6319 64.1312C31.6319 76.4583 38.2733 87.9605 48.9651 94.1663C49.5638 94.5132 49.7695 95.2818 49.4234 95.8818C49.1896 96.2849 48.7687 96.5099 48.3384 96.5099Z" fill="#E8EDFF"/>
<path d="M84.2121 96.5099C83.7818 96.5099 83.3609 96.2849 83.127 95.8818C82.7809 95.2818 82.9867 94.5132 83.5854 94.1663C94.2772 87.9699 100.919 76.4583 100.919 64.1312C100.919 63.4375 101.48 62.875 102.172 62.875C102.864 62.875 103.425 63.4375 103.425 64.1312C103.425 77.3489 96.307 89.6948 84.8388 96.3411C84.6424 96.4536 84.4273 96.5099 84.2121 96.5099Z" fill="#E8EDFF"/>
<path d="M84.6603 34.5279C84.4452 34.5279 84.2207 34.4717 84.0149 34.3498C73.5289 28.0597 59.9655 27.891 49.4047 33.8155C48.7967 34.153 48.039 33.9374 47.7022 33.328C47.3655 32.7187 47.5806 31.9594 48.1793 31.6219C59.5165 25.2662 74.0528 25.4443 85.2964 32.1844C85.8857 32.5406 86.0822 33.3093 85.7267 33.9092C85.4929 34.303 85.0813 34.5186 84.651 34.5186L84.6603 34.5279Z" fill="#E8EDFF"/>
</g>
<defs>
<clipPath id="clip0_2791_80466">
<rect width="84" height="80" fill="white" transform="translate(25 27)"/>
</clipPath>
</defs>
</svg>
