<svg width="332" height="280" viewBox="0 0 332 280" fill="none" xmlns="http://www.w3.org/2000/svg">
<g clip-path="url(#clip0_2791_80228)">
<path d="M256.562 0.355469H50.1133V143.157H256.562V0.355469Z" fill="#E3E3FD" stroke="#000091" stroke-miterlimit="10"/>
<path d="M256.201 0.730469H50.5098V8.64344H256.201V0.730469Z" fill="#9FA4FF"/>
<path d="M56.0039 4.34155C56.0039 5.04288 55.4375 5.61669 54.7295 5.61669C54.0215 5.61669 53.4551 5.04996 53.4551 4.34155C53.4551 3.63314 54.0215 3.06641 54.7295 3.06641C55.4375 3.06641 56.0039 3.63314 56.0039 4.34155Z" fill="white"/>
<path d="M60.5918 4.34155C60.5918 5.04288 60.0254 5.61669 59.3174 5.61669C58.6094 5.61669 58.043 5.04996 58.043 4.34155C58.043 3.63314 58.6094 3.06641 59.3174 3.06641C60.0254 3.06641 60.5918 3.63314 60.5918 4.34155Z" fill="white"/>
<path d="M65.1797 4.34155C65.1797 5.04288 64.6133 5.61669 63.9053 5.61669C63.1973 5.61669 62.6309 5.04996 62.6309 4.34155C62.6309 3.63314 63.1973 3.06641 63.9053 3.06641C64.6133 3.06641 65.1797 3.63314 65.1797 4.34155Z" fill="white"/>
<path d="M112.884 18.5391H72.0957C69.0614 18.5391 66.6016 21.0003 66.6016 24.0363V64.848C66.6016 67.884 69.0614 70.3453 72.0957 70.3453H112.884C115.919 70.3453 118.378 67.884 118.378 64.848V24.0363C118.378 21.0003 115.919 18.5391 112.884 18.5391Z" fill="white"/>
<mask id="mask0_2791_80228" style="mask-type:luminance" maskUnits="userSpaceOnUse" x="66" y="18" width="53" height="53">
<path d="M112.884 18.5391H72.0957C69.0614 18.5391 66.6016 21.0003 66.6016 24.0363V64.848C66.6016 67.884 69.0614 70.3453 72.0957 70.3453H112.884C115.919 70.3453 118.378 67.884 118.378 64.848V24.0363C118.378 21.0003 115.919 18.5391 112.884 18.5391Z" fill="white"/>
</mask>
<g mask="url(#mask0_2791_80228)">
<path d="M119.986 18.0352H64.7891V43.538H119.986V18.0352Z" fill="#6A6AEC"/>
</g>
<path d="M112.884 77.293H72.0957C69.0614 77.293 66.6016 79.7542 66.6016 82.7903V123.602C66.6016 126.638 69.0614 129.099 72.0957 129.099H112.884C115.919 129.099 118.378 126.638 118.378 123.602V82.7903C118.378 79.7542 115.919 77.293 112.884 77.293Z" fill="white"/>
<mask id="mask1_2791_80228" style="mask-type:luminance" maskUnits="userSpaceOnUse" x="66" y="77" width="53" height="53">
<path d="M112.884 77.293H72.0957C69.0614 77.293 66.6016 79.7542 66.6016 82.7903V123.602C66.6016 126.638 69.0614 129.099 72.0957 129.099H112.884C115.919 129.099 118.378 126.638 118.378 123.602V82.7903C118.378 79.7542 115.919 77.293 112.884 77.293Z" fill="white"/>
</mask>
<g mask="url(#mask1_2791_80228)">
<path d="M119.986 76.7969H64.7891V102.3H119.986V76.7969Z" fill="#B3BAFF"/>
</g>
<path d="M172.726 77.293H131.938C128.903 77.293 126.443 79.7542 126.443 82.7903V123.602C126.443 126.638 128.903 129.099 131.938 129.099H172.726C175.76 129.099 178.22 126.638 178.22 123.602V82.7903C178.22 79.7542 175.76 77.293 172.726 77.293Z" fill="white"/>
<mask id="mask2_2791_80228" style="mask-type:luminance" maskUnits="userSpaceOnUse" x="126" y="77" width="53" height="53">
<path d="M172.726 77.293H131.938C128.903 77.293 126.443 79.7542 126.443 82.7903V123.602C126.443 126.638 128.903 129.099 131.938 129.099H172.726C175.76 129.099 178.22 126.638 178.22 123.602V82.7903C178.22 79.7542 175.76 77.293 172.726 77.293Z" fill="white"/>
</mask>
<g mask="url(#mask2_2791_80228)">
<path d="M179.835 76.7969H124.639V102.3H179.835V76.7969Z" fill="#B3BAFF"/>
</g>
<path d="M231.3 77.293H190.512C187.477 77.293 185.018 79.7542 185.018 82.7903V123.602C185.018 126.638 187.477 129.099 190.512 129.099H231.3C234.335 129.099 236.794 126.638 236.794 123.602V82.7903C236.794 79.7542 234.335 77.293 231.3 77.293Z" fill="white"/>
<mask id="mask3_2791_80228" style="mask-type:luminance" maskUnits="userSpaceOnUse" x="185" y="77" width="52" height="53">
<path d="M231.3 77.293H190.512C187.477 77.293 185.018 79.7542 185.018 82.7903V123.602C185.018 126.638 187.477 129.099 190.512 129.099H231.3C234.335 129.099 236.794 126.638 236.794 123.602V82.7903C236.794 79.7542 234.335 77.293 231.3 77.293Z" fill="white"/>
</mask>
<g mask="url(#mask3_2791_80228)">
<path d="M238.402 76.7969H183.205V102.3H238.402V76.7969Z" fill="#B3BAFF"/>
</g>
<path d="M114.201 63.8203H72.2305V65.3717H114.201V63.8203Z" fill="#CCF2E0"/>
<path d="M106.512 63.8203H72.2305V65.3717H106.512V63.8203Z" fill="#00A95F"/>
<path d="M172.726 18.5391H131.938C128.903 18.5391 126.443 21.0003 126.443 24.0363V64.848C126.443 67.884 128.903 70.3453 131.938 70.3453H172.726C175.76 70.3453 178.22 67.884 178.22 64.848V24.0363C178.22 21.0003 175.76 18.5391 172.726 18.5391Z" fill="white"/>
<mask id="mask4_2791_80228" style="mask-type:luminance" maskUnits="userSpaceOnUse" x="126" y="18" width="53" height="53">
<path d="M172.726 18.5391H131.938C128.903 18.5391 126.443 21.0003 126.443 24.0363V64.848C126.443 67.884 128.903 70.3453 131.938 70.3453H172.726C175.76 70.3453 178.22 67.884 178.22 64.848V24.0363C178.22 21.0003 175.76 18.5391 172.726 18.5391Z" fill="white"/>
</mask>
<g mask="url(#mask4_2791_80228)">
<path d="M179.835 18.0352H124.639V43.538H179.835V18.0352Z" fill="#6A6AEC"/>
</g>
<path d="M174.051 63.8203H132.08V65.3717H174.051V63.8203Z" fill="#CCF2E0"/>
<path d="M144.661 63.8203H132.08V65.3717H144.661V63.8203Z" fill="#00A95F"/>
<path d="M231.859 18.5391H191.07C188.036 18.5391 185.576 21.0003 185.576 24.0363V64.848C185.576 67.884 188.036 70.3453 191.07 70.3453H231.859C234.893 70.3453 237.353 67.884 237.353 64.848V24.0363C237.353 21.0003 234.893 18.5391 231.859 18.5391Z" fill="white"/>
<mask id="mask5_2791_80228" style="mask-type:luminance" maskUnits="userSpaceOnUse" x="185" y="18" width="53" height="53">
<path d="M231.859 18.5391H191.07C188.036 18.5391 185.576 21.0003 185.576 24.0363V64.848C185.576 67.884 188.036 70.3453 191.07 70.3453H231.859C234.893 70.3453 237.353 67.884 237.353 64.848V24.0363C237.353 21.0003 234.893 18.5391 231.859 18.5391Z" fill="white"/>
</mask>
<g mask="url(#mask5_2791_80228)">
<path d="M238.96 18.0352H183.764V43.538H238.96V18.0352Z" fill="#6A6AEC"/>
</g>
<path d="M233.176 63.8203H191.205V65.3717H233.176V63.8203Z" fill="#CCF2E0"/>
<path d="M210.902 63.8203H191.205V65.3717H210.902V63.8203Z" fill="#00A95F"/>
<path d="M152.731 50.2054C158.534 50.2054 163.238 45.4986 163.238 39.6925C163.238 33.8864 158.534 29.1797 152.731 29.1797C146.929 29.1797 142.225 33.8864 142.225 39.6925C142.225 45.4986 146.929 50.2054 152.731 50.2054Z" fill="white"/>
<path d="M152.335 28.3516C146.231 28.3516 141.275 33.3175 141.275 39.417C141.275 45.5164 146.239 50.4824 152.335 50.4824C158.43 50.4824 163.394 45.5164 163.394 39.417C163.394 33.3175 158.43 28.3516 152.335 28.3516ZM156.845 37.6105L152.101 42.3569C151.945 42.5056 151.747 42.5836 151.542 42.5836C151.336 42.5836 151.138 42.5056 150.982 42.3569L148.61 39.9837C148.299 39.672 148.299 39.169 148.61 38.8644C148.922 38.5598 149.425 38.5527 149.729 38.8644L151.542 40.685L155.719 36.4983C156.03 36.1866 156.533 36.1866 156.837 36.4983C157.142 36.81 157.149 37.313 156.837 37.6176L156.845 37.6105Z" fill="#00A95F"/>
<path d="M210.952 47.5765C216.755 47.5765 221.459 42.8697 221.459 37.0636C221.459 31.2575 216.755 26.5508 210.952 26.5508C205.149 26.5508 200.445 31.2575 200.445 37.0636C200.445 42.8697 205.149 47.5765 210.952 47.5765Z" fill="white"/>
<path d="M210.555 25.7227C204.452 25.7227 199.496 30.6886 199.496 36.7881C199.496 42.8875 204.459 47.8535 210.555 47.8535C216.651 47.8535 221.614 42.8875 221.614 36.7881C221.614 30.6886 216.651 25.7227 210.555 25.7227ZM215.065 34.9816L210.322 39.728C210.166 39.8767 209.968 39.9547 209.762 39.9547C209.557 39.9547 209.359 39.8767 209.203 39.728L206.831 37.3548C206.52 37.0431 206.52 36.5401 206.831 36.2355C207.143 35.9309 207.645 35.9238 207.95 36.2355L209.762 38.0561L213.94 33.8694C214.251 33.5577 214.754 33.5577 215.058 33.8694C215.363 34.1811 215.37 34.6841 215.058 34.9887L215.065 34.9816Z" fill="#00A95F"/>
<path d="M221.302 258.867C269.042 258.867 307.743 220.144 307.743 172.377C307.743 124.61 269.042 85.8867 221.302 85.8867C173.562 85.8867 134.861 124.61 134.861 172.377C134.861 220.144 173.562 258.867 221.302 258.867Z" fill="white" stroke="#000091" stroke-miterlimit="10"/>
<path d="M264.201 274.27L259.805 277.054L264.293 279.696" stroke="#000091" stroke-miterlimit="10"/>
<path d="M331.703 215.966L328.913 211.566L326.279 216.058" stroke="#000091" stroke-miterlimit="10"/>
<path d="M328.913 276.98H260.441" stroke="#000091" stroke-miterlimit="10"/>
<path d="M328.912 211.898V277.15" stroke="#000091" stroke-miterlimit="10"/>
<path d="M290.885 113.844H220.977V242.279H290.885V113.844Z" fill="#9FA4FF"/>
<path d="M209.33 162.367H197.619V242.276H209.33V162.367Z" fill="#9FA4FF"/>
<path d="M198.002 181.992H186.291V242.278H198.002V181.992Z" fill="#9FA4FF"/>
<path d="M186.242 199.277H174.531V242.278H186.242V199.277Z" fill="#9FA4FF"/>
<path d="M151.507 226.867H139.797V242.275H151.507V226.867Z" fill="#9FA4FF"/>
<path d="M221.253 124.609H209.273V242.277H221.253V124.609Z" fill="#9FA4FF"/>
<path d="M266.007 151.571C265.964 151.571 265.929 151.556 265.893 151.528C265.83 151.464 265.83 151.365 265.893 151.309L285.123 132.075C285.187 132.011 285.286 132.011 285.343 132.075C285.399 132.139 285.406 132.238 285.343 132.295L266.113 151.528C266.113 151.528 266.042 151.571 266 151.571H266.007Z" fill="#E3E3FD"/>
<path d="M229.331 188.259C229.289 188.259 229.253 188.245 229.218 188.217C229.154 188.153 229.154 188.054 229.218 187.997L259.79 157.415C259.853 157.351 259.952 157.351 260.009 157.415C260.066 157.479 260.073 157.578 260.009 157.635L229.437 188.217C229.437 188.217 229.366 188.259 229.324 188.259H229.331Z" fill="#E3E3FD"/>
<path d="M273.376 160.299C273.333 160.299 273.298 160.285 273.263 160.256C273.199 160.193 273.199 160.093 273.263 160.037L279.939 153.356C280.003 153.293 280.102 153.293 280.159 153.356C280.222 153.42 280.222 153.519 280.159 153.576L273.482 160.256C273.482 160.256 273.411 160.299 273.369 160.299H273.376Z" fill="#E3E3FD"/>
<path d="M253.446 180.241C253.404 180.241 253.368 180.226 253.333 180.198C253.269 180.134 253.269 180.035 253.333 179.978L267.798 165.513C267.861 165.449 267.96 165.449 268.017 165.513C268.074 165.576 268.081 165.676 268.017 165.732L253.552 180.198C253.552 180.198 253.482 180.241 253.439 180.241H253.446Z" fill="#E3E3FD"/>
<path d="M242.253 191.427C242.21 191.427 242.175 191.413 242.14 191.385C242.076 191.321 242.076 191.222 242.14 191.165L250.303 182.997C250.367 182.933 250.466 182.933 250.522 182.997C250.586 183.061 250.586 183.16 250.522 183.217L242.359 191.385C242.359 191.385 242.288 191.427 242.246 191.427H242.253Z" fill="#E3E3FD"/>
<path d="M260.448 135.945H251.414V150.758H260.448V135.945Z" fill="#E3E3FD"/>
<path d="M232.786 156.488H223.752V171.301H232.786V156.488Z" fill="#E3E3FD"/>
<path d="M294.496 115.16H217.365V108.26L294.496 89.6289V115.16Z" fill="#9FA4FF"/>
<path d="M234.875 212.758C234.79 212.758 234.719 212.688 234.719 212.603V118.625C234.719 118.54 234.79 118.469 234.875 118.469C234.959 118.469 235.03 118.54 235.03 118.625V212.603C235.03 212.688 234.959 212.758 234.875 212.758Z" fill="#E3E3FD"/>
<path d="M248.916 212.758C248.831 212.758 248.76 212.688 248.76 212.603V118.625C248.76 118.54 248.831 118.469 248.916 118.469C249 118.469 249.071 118.54 249.071 118.625V212.603C249.071 212.688 249 212.758 248.916 212.758Z" fill="#E3E3FD"/>
<path d="M262.949 212.758C262.864 212.758 262.793 212.688 262.793 212.603V118.625C262.793 118.54 262.864 118.469 262.949 118.469C263.034 118.469 263.104 118.54 263.104 118.625V212.603C263.104 212.688 263.034 212.758 262.949 212.758Z" fill="#E3E3FD"/>
<path d="M276.98 212.758C276.895 212.758 276.824 212.688 276.824 212.603V118.625C276.824 118.54 276.895 118.469 276.98 118.469C277.065 118.469 277.136 118.54 277.136 118.625V212.603C277.136 212.688 277.065 212.758 276.98 212.758Z" fill="#E3E3FD"/>
<path d="M288.564 133.331H223.292C223.208 133.331 223.137 133.26 223.137 133.175C223.137 133.09 223.208 133.02 223.292 133.02H288.564C288.649 133.02 288.72 133.09 288.72 133.175C288.72 133.26 288.649 133.331 288.564 133.331Z" fill="#E3E3FD"/>
<path d="M288.564 153.612H223.292C223.208 153.612 223.137 153.542 223.137 153.457C223.137 153.372 223.208 153.301 223.292 153.301H288.564C288.649 153.301 288.72 153.372 288.72 153.457C288.72 153.542 288.649 153.612 288.564 153.612Z" fill="#E3E3FD"/>
<path d="M288.564 173.902H223.292C223.208 173.902 223.137 173.831 223.137 173.746C223.137 173.661 223.208 173.59 223.292 173.59H288.564C288.649 173.59 288.72 173.661 288.72 173.746C288.72 173.831 288.649 173.902 288.564 173.902Z" fill="#E3E3FD"/>
<path d="M288.564 194.191H223.292C223.208 194.191 223.137 194.12 223.137 194.035C223.137 193.95 223.208 193.879 223.292 193.879H288.564C288.649 193.879 288.72 193.95 288.72 194.035C288.72 194.12 288.649 194.191 288.564 194.191Z" fill="#E3E3FD"/>
<path d="M275.615 211.461H236.242V236.581H275.615V211.461Z" fill="#9FA4FF"/>
<path d="M232.794 236.737C232.709 236.737 232.639 236.666 232.639 236.581V211.461C232.639 211.376 232.709 211.305 232.794 211.305C232.879 211.305 232.95 211.376 232.95 211.461V236.581C232.95 236.666 232.879 236.737 232.794 236.737Z" fill="#E3E3FD"/>
<path d="M239.689 236.737C239.604 236.737 239.533 236.666 239.533 236.581V211.461C239.533 211.376 239.604 211.305 239.689 211.305C239.774 211.305 239.845 211.376 239.845 211.461V236.581C239.845 236.666 239.774 236.737 239.689 236.737Z" fill="#E3E3FD"/>
<path d="M272.166 236.737C272.081 236.737 272.01 236.666 272.01 236.581V211.461C272.01 211.376 272.081 211.305 272.166 211.305C272.25 211.305 272.321 211.376 272.321 211.461V236.581C272.321 236.666 272.25 236.737 272.166 236.737Z" fill="#E3E3FD"/>
<path d="M279.07 236.737C278.985 236.737 278.914 236.666 278.914 236.581V211.461C278.914 211.376 278.985 211.305 279.07 211.305C279.155 211.305 279.226 211.376 279.226 211.461V236.581C279.226 236.666 279.155 236.737 279.07 236.737Z" fill="#E3E3FD"/>
<path d="M280.945 208.707H230.91V214.226H280.945V208.707Z" fill="#E3E3FD"/>
<path d="M285.257 240.301C285.172 240.301 285.101 240.23 285.101 240.145V236.737H226.761V240.145C226.761 240.23 226.69 240.301 226.605 240.301C226.52 240.301 226.449 240.23 226.449 240.145V236.582C226.449 236.497 226.52 236.426 226.605 236.426H285.257C285.341 236.426 285.412 236.497 285.412 236.582V240.145C285.412 240.23 285.341 240.301 285.257 240.301Z" fill="#E3E3FD"/>
<path d="M209.458 162.367C209.458 162.281 209.388 162.211 209.302 162.211C209.216 162.211 209.146 162.281 209.146 162.367V242.276C209.146 242.362 209.216 242.432 209.302 242.432C209.388 242.432 209.458 242.362 209.458 242.276V162.367Z" fill="#E3E3FD"/>
<path d="M198.001 242.434C197.917 242.434 197.846 242.363 197.846 242.278V181.992C197.846 181.907 197.917 181.836 198.001 181.836C198.086 181.836 198.157 181.907 198.157 181.992V242.278C198.157 242.363 198.086 242.434 198.001 242.434Z" fill="#E3E3FD"/>
<path d="M186.242 242.433C186.157 242.433 186.086 242.363 186.086 242.278V199.277C186.086 199.192 186.157 199.121 186.242 199.121C186.327 199.121 186.397 199.192 186.397 199.277V242.278C186.397 242.363 186.327 242.433 186.242 242.433Z" fill="#E3E3FD"/>
<path d="M174.531 242.432C174.446 242.432 174.375 242.361 174.375 242.276V211.461C174.375 211.376 174.446 211.305 174.531 211.305C174.616 211.305 174.687 211.376 174.687 211.461V242.276C174.687 242.361 174.616 242.432 174.531 242.432Z" fill="#E3E3FD"/>
<path d="M151.5 242.435C151.415 242.435 151.344 242.364 151.344 242.279V226.871C151.344 226.786 151.415 226.715 151.5 226.715C151.584 226.715 151.655 226.786 151.655 226.871V242.279C151.655 242.364 151.584 242.435 151.5 242.435Z" fill="#E3E3FD"/>
<path d="M221.253 242.432C221.168 242.432 221.098 242.361 221.098 242.276V124.609C221.098 124.524 221.168 124.453 221.253 124.453C221.338 124.453 221.409 124.524 221.409 124.609V242.276C221.409 242.361 221.338 242.432 221.253 242.432Z" fill="#E3E3FD"/>
<path d="M241.473 97.8669C240.411 100.474 242.754 103.308 245.742 103.881C246.542 104.037 247.335 104.023 248.086 103.867C247.732 105.695 247.271 107.154 249.261 107.544C251.038 107.891 252.95 108.033 253.636 106.552C254.366 107.516 256.801 108.238 258.168 108.245C261.056 108.259 262.94 107.211 264.016 105.426C266.636 105.688 269.099 104.087 269.652 101.664C270.239 99.0854 268.448 96.5493 265.644 96.0109C265.212 95.9259 264.781 95.8976 264.356 95.9117C264.122 94.5374 262.989 93.3756 261.425 93.071C261.375 93.0639 261.325 93.0568 261.276 93.0497C260.929 91.4275 259.563 90.0744 257.693 89.7131C256.256 89.4368 251.088 89.6848 250.38 95.345C249.856 94.6153 243.392 93.1702 241.48 97.8811L241.473 97.8669ZM257.729 98.6108C257.729 98.6108 257.658 98.632 257.623 98.6462C257.63 98.6037 257.637 98.5541 257.644 98.5116C257.672 98.547 257.7 98.5754 257.729 98.6108Z" fill="#00A95F"/>
<path d="M264.902 98.5208C264.102 99.1229 266.608 99.3354 266.268 100.356C265.383 103.026 266.835 105.91 269.504 106.795C270.828 107.234 272.201 107.1 273.355 106.526C273.993 108.261 275.387 109.7 277.278 110.323C279.742 111.138 282.354 110.344 283.968 108.509C286.255 109.359 288.415 108.552 289.71 106.958C290.192 107.27 290.723 107.525 291.296 107.709C294.992 108.934 298.978 106.93 300.203 103.232C301.35 99.7605 299.651 96.0271 296.38 94.5749C296.444 91.5641 295.445 89.2831 292.436 88.2842C290.666 87.6962 286.659 88.4046 285.682 91.2524C285.965 88.8934 282.227 85.3514 278.276 86.2865C275.586 86.924 274.417 88.3834 273.476 90.9691C270.467 88.7234 266.127 89.616 264.732 92.0671C263.663 93.9515 262.806 96.0413 264.895 98.5137L264.902 98.5208ZM283.777 99.045C283.799 98.9812 283.827 98.9246 283.848 98.8608C283.876 98.9033 283.912 98.9387 283.94 98.9812C283.883 99.0025 283.827 99.0237 283.77 99.0521L283.777 99.045Z" fill="#00A95F"/>
<path d="M256.364 108.558C256.838 104.966 253.886 101.721 249.765 101.303C248.661 101.19 247.585 101.303 246.594 101.58C246.827 99.1924 244.845 97.0601 242.098 96.7838C239.648 96.5359 237.404 97.8535 236.667 99.83C235.549 98.6753 233.948 97.8819 232.093 97.6906C228.943 97.3718 226.04 98.9232 224.829 101.332C221.247 101.282 218.139 103.613 217.721 106.78C217.275 110.159 220.05 113.205 223.916 113.594C224.511 113.651 225.098 113.644 225.672 113.58C226.182 115.316 227.867 116.683 230.026 116.903C230.09 116.903 230.161 116.917 230.224 116.917C230.918 118.957 232.95 120.544 235.534 120.806C237.51 121.004 239.379 120.374 240.689 119.241C241.496 120.119 242.685 120.728 244.073 120.87C246.87 121.153 249.397 119.396 249.716 116.959C249.836 116.024 249.617 115.125 249.142 114.352C252.796 114.246 255.911 111.823 256.343 108.558H256.364ZM234.281 109.386C234.324 109.365 234.373 109.351 234.416 109.33C234.416 109.386 234.409 109.443 234.402 109.507C234.359 109.464 234.317 109.429 234.274 109.394L234.281 109.386Z" fill="#00A95F"/>
<path d="M140.079 224.554C141.446 228.387 142.727 229.69 143.612 229.371C144.497 229.053 144.66 227.232 143.294 223.407C141.927 219.574 138.656 215.508 138.656 215.508C138.656 215.508 138.713 220.729 140.079 224.554Z" fill="#00A95F"/>
<path d="M143.272 222.698C142.805 226.736 143.372 228.472 144.313 228.578C145.255 228.684 146.197 227.126 146.664 223.088C147.131 219.05 145.998 213.949 145.998 213.949C145.998 213.949 143.74 218.653 143.272 222.691V222.698Z" fill="#00A95F"/>
<path d="M146.141 224.496C145.022 228.86 145.306 230.829 146.219 231.063C147.132 231.297 148.329 229.71 149.448 225.346C150.566 220.983 150.269 215.266 150.269 215.266C150.269 215.266 147.26 220.132 146.141 224.496Z" fill="#00A95F"/>
<path d="M149.957 223.697C148.647 226.261 148.796 227.65 149.631 228.082C150.467 228.514 151.685 227.813 152.994 225.255C154.304 222.691 154.375 218.809 154.375 218.809C154.375 218.809 151.267 221.139 149.957 223.704V223.697Z" fill="#00A95F"/>
<path d="M137.546 225.884C138.508 228.59 139.627 229.433 140.512 229.114C141.397 228.796 141.723 227.436 140.76 224.736C139.797 222.03 137.015 219.324 137.015 219.324C137.015 219.324 136.583 223.178 137.546 225.884Z" fill="#00A95F"/>
<path d="M211.107 121.948C212.198 125.83 213.316 127.183 214.152 126.906C214.987 126.63 215.214 124.817 214.124 120.935C213.033 117.052 210.201 112.852 210.201 112.852C210.201 112.852 210.017 118.073 211.107 121.948Z" fill="#00A95F"/>
<path d="M213.876 120.581C213.38 124.52 214.116 126.262 215.284 126.432C216.453 126.602 217.6 125.136 218.095 121.197C218.591 117.258 217.083 112.172 217.083 112.172C217.083 112.172 214.371 116.642 213.868 120.581H213.876Z" fill="#00A95F"/>
<path d="M217.791 121.296C216.899 124.746 217.147 126.333 217.89 126.56C218.634 126.786 219.611 125.561 220.503 122.111C221.395 118.661 221.119 114.07 221.119 114.07C221.119 114.07 218.683 117.853 217.791 121.303V121.296Z" fill="#00A95F"/>
<path d="M219.76 122.129C218.556 124.694 218.634 126.054 219.328 126.436C220.022 126.819 221.077 126.089 222.28 123.525C223.484 120.96 223.675 117.156 223.675 117.156C223.675 117.156 220.956 119.572 219.76 122.136V122.129Z" fill="#00A95F"/>
<path d="M208.226 123.463C210.045 126.055 211.348 126.672 212.042 126.133C212.736 125.595 212.552 124.093 210.725 121.507C208.906 118.915 205.443 116.754 205.443 116.754C205.443 116.754 206.399 120.877 208.226 123.47V123.463Z" fill="#00A95F"/>
<path d="M185.909 179.093C187.276 182.926 188.557 184.229 189.442 183.911C190.327 183.592 190.49 181.771 189.124 177.946C187.757 174.113 184.486 170.047 184.486 170.047C184.486 170.047 184.543 175.268 185.909 179.093Z" fill="#00A95F"/>
<path d="M189.103 177.237C188.635 181.275 189.202 183.011 190.143 183.117C191.078 183.223 192.027 181.665 192.494 177.627C192.961 173.589 191.828 168.488 191.828 168.488C191.828 168.488 189.57 173.192 189.103 177.23V177.237Z" fill="#00A95F"/>
<path d="M192.254 177.944C191.263 181.812 191.595 183.583 192.509 183.817C193.422 184.051 194.569 182.662 195.56 178.794C196.551 174.927 196.105 169.805 196.105 169.805C196.105 169.805 193.252 174.076 192.261 177.951L192.254 177.944Z" fill="#00A95F"/>
<path d="M195.785 178.236C194.475 180.8 194.624 182.189 195.459 182.621C196.295 183.053 197.513 182.352 198.822 179.794C200.132 177.237 200.203 173.348 200.203 173.348C200.203 173.348 197.095 175.678 195.785 178.243V178.236Z" fill="#00A95F"/>
<path d="M183.381 180.427C184.344 183.133 185.463 183.976 186.348 183.657C187.233 183.339 187.559 181.979 186.596 179.279C185.633 176.573 182.85 173.867 182.85 173.867C182.85 173.867 182.419 177.721 183.381 180.427Z" fill="#00A95F"/>
<path d="M199.022 159.194C200.388 163.019 201.776 164.28 202.803 163.912C203.829 163.544 204.106 161.688 202.739 157.862C201.373 154.037 197.854 150.062 197.854 150.062C197.854 150.062 197.656 155.369 199.022 159.187V159.194Z" fill="#00A95F"/>
<path d="M203.368 157.581C202.901 161.619 203.467 163.354 204.409 163.461C205.344 163.567 206.292 162.009 206.76 157.971C207.227 153.933 206.094 148.832 206.094 148.832C206.094 148.832 203.835 153.536 203.368 157.574V157.581Z" fill="#00A95F"/>
<path d="M206.781 159.392C205.471 161.956 205.62 163.345 206.456 163.777C207.298 164.209 208.509 163.508 209.819 160.95C211.128 158.386 211.199 154.504 211.199 154.504C211.199 154.504 208.091 156.835 206.781 159.399V159.392Z" fill="#00A95F"/>
<path d="M196.783 160.939C198.079 163.503 199.29 164.197 200.132 163.772C200.975 163.347 201.124 161.959 199.835 159.394C198.539 156.83 195.445 154.492 195.445 154.492C195.445 154.492 195.495 158.374 196.791 160.932L196.783 160.939Z" fill="#00A95F"/>
<path d="M207.009 232.154C207.355 231.793 207.844 231.765 208.517 231.942C208.517 231.715 208.517 231.474 208.517 231.241C207.971 230.546 207.447 229.682 207.823 229.158C207.879 229.073 208.113 228.782 208.658 228.832C208.736 228.031 208.842 227.259 208.977 226.501C208.212 224.022 208.113 222.796 208.729 222.47C208.984 222.336 209.345 222.322 209.89 222.662C209.94 222.513 209.982 222.364 210.032 222.215C209.593 221.124 209.076 219.566 209.791 219.035C209.947 218.921 210.435 218.666 211.221 219.198C211.299 219.027 211.384 218.865 211.462 218.702C211.002 217.108 211.193 216.279 211.603 216.088C211.858 215.967 212.311 215.932 212.843 216.392C214.082 214.657 215.391 213.672 216.482 213.672C217.685 213.672 218.967 214.734 220.17 216.633C220.447 216.371 220.73 216.236 220.999 216.328C221.615 216.534 221.65 218.114 221.572 219.332C221.7 219.63 221.827 219.934 221.955 220.253C222.5 219.764 222.783 219.778 223.031 219.885C223.434 220.055 223.406 221.521 222.946 223.2C222.988 223.356 223.038 223.519 223.08 223.682C223.76 222.91 223.972 223.073 224.192 223.15C224.857 223.37 224.475 225.871 224.043 227.975C224.107 228.315 224.164 228.662 224.22 229.016C224.688 232.006 224.567 234.379 224.064 236.235C224.702 236.121 224.985 236.185 225.084 236.32C225.353 236.717 224.341 238.126 222.613 239.267C220.97 241.42 218.521 242.221 216.283 242.221C213.133 242.221 210.563 240.549 209.324 237.021C207.334 235.108 206.35 232.87 207.016 232.161L207.009 232.154Z" fill="#00A95F"/>
<path d="M222.952 232.949C222.952 232.949 222.938 232.949 222.931 232.949C222.846 232.935 222.789 232.857 222.796 232.772C222.988 231.461 222.945 230.54 222.669 230.179C222.598 230.087 222.513 230.03 222.407 230.016C221.826 229.938 221.076 231.312 220.856 231.801C220.821 231.872 220.743 231.915 220.665 231.886C220.587 231.865 220.545 231.787 220.559 231.702C220.694 231.072 220.764 230.292 220.389 230.179C220.007 230.066 219.221 230.597 218.662 231.568C218.619 231.645 218.52 231.667 218.449 231.624C218.371 231.582 218.35 231.482 218.393 231.412C219.001 230.363 219.901 229.704 220.488 229.881C220.892 230.002 220.991 230.448 220.984 230.894C221.338 230.307 221.883 229.634 222.45 229.704C222.641 229.733 222.796 229.825 222.924 229.988C223.257 230.427 223.32 231.383 223.108 232.814C223.094 232.892 223.03 232.949 222.952 232.949Z" fill="#00A95F"/>
<path d="M211.44 238.133C211.362 238.133 211.299 238.076 211.285 237.998C211.108 236.78 211.164 235.972 211.447 235.597C211.554 235.455 211.695 235.37 211.858 235.349C212.325 235.285 212.764 235.809 213.069 236.291C213.076 235.937 213.175 235.597 213.508 235.498C214.01 235.349 214.782 235.902 215.299 236.794C215.341 236.872 215.32 236.964 215.242 237.007C215.164 237.049 215.072 237.028 215.03 236.95C214.563 236.142 213.911 235.703 213.6 235.795C213.302 235.887 213.366 236.525 213.479 237.049C213.494 237.127 213.451 237.205 213.373 237.233C213.295 237.255 213.217 237.219 213.182 237.148C212.955 236.638 212.347 235.597 211.901 235.654C211.816 235.668 211.752 235.703 211.695 235.781C211.561 235.958 211.377 236.468 211.589 237.949C211.603 238.034 211.539 238.112 211.454 238.126C211.447 238.126 211.44 238.126 211.433 238.126L211.44 238.133Z" fill="#00A95F"/>
<path d="M212.516 225.664C212.439 225.664 212.375 225.608 212.361 225.53C212.184 224.311 212.24 223.504 212.524 223.128C212.63 222.987 212.771 222.902 212.934 222.88C213.394 222.817 213.84 223.341 214.145 223.815C214.145 223.447 214.258 223.128 214.584 223.029C215.087 222.88 215.858 223.433 216.375 224.325C216.418 224.403 216.396 224.495 216.318 224.538C216.241 224.58 216.149 224.559 216.106 224.481C215.639 223.674 214.987 223.227 214.676 223.327C214.379 223.419 214.442 224.056 214.556 224.58C214.57 224.658 214.527 224.736 214.449 224.765C214.371 224.786 214.294 224.751 214.258 224.68C214.032 224.17 213.43 223.128 212.977 223.185C212.892 223.199 212.828 223.235 212.771 223.312C212.637 223.49 212.453 224 212.665 225.48C212.679 225.565 212.616 225.643 212.531 225.657C212.524 225.657 212.516 225.657 212.509 225.657L212.516 225.664Z" fill="#00A95F"/>
<path d="M21.2764 266.546L6.23828 266.319L10.72 246.93L26.0413 249.48L21.2764 266.546Z" fill="#D6A23E"/>
<path d="M42.2831 276.535H3.34961L6.93214 261.645H22.1898L33.2205 265.009C38.6297 266.476 42.3397 271.194 42.2902 276.535H42.2831Z" fill="#111DAA"/>
<path d="M91.46 269.45L76.4219 269.223L76.8892 246.93L92.2105 249.48L91.46 269.45Z" fill="#D6A23E"/>
<path d="M112.169 276.535H73.2285L76.5845 261.645H92.0687L103.099 265.009C108.509 266.476 112.219 271.194 112.169 276.535Z" fill="#111DAA"/>
<path d="M41.1349 119.426C41.1349 119.426 31.8458 140.097 25.5799 165.182C19.314 190.267 8.16992 253.21 8.16992 253.21H25.3533C25.3533 253.21 57.5253 207.46 60.5414 154.28L72.7121 119.199L41.1349 119.433V119.426Z" fill="#1F233C"/>
<path d="M55.0618 169.126C55.0618 169.126 72.7054 194.672 74.1002 251.812H93.8324C93.8324 251.812 108.226 219.764 100.098 186.086C91.9703 152.408 78.7376 116.18 78.7376 116.18H57.6106L55.0547 169.134L55.0618 169.126Z" fill="#1F233C"/>
<path d="M60.726 175.537C60.726 175.537 60.6977 175.537 60.6906 175.537C60.5915 175.515 60.5278 175.416 60.549 175.317L64.0961 158.174L69.3 154.653C69.385 154.596 69.4983 154.617 69.5549 154.702C69.6115 154.787 69.5903 154.901 69.5053 154.957L64.4289 158.393L60.9101 175.395C60.8889 175.48 60.8181 175.544 60.7331 175.544L60.726 175.537Z" fill="#1F233C"/>
<path d="M67.6074 93.8802C76.5496 95.7433 102.038 102.707 104.842 91.9675C107.164 83.084 82.0437 77.4025 73.2786 74.9727C71.3882 81.2704 69.4978 87.5753 67.6074 93.8731V93.8802Z" fill="#D6A23E"/>
<path d="M89.0461 84.2092C89.0461 84.2092 109.139 72.1591 116.043 68.5957C123.293 64.8624 134.543 60.3994 135.145 61.9792C135.492 62.8789 134.083 63.8069 130.153 66.0313C130.465 66.1163 131.343 66.6122 131.527 67.4977C131.796 68.8154 130.79 69.3183 130.727 69.4104C130.833 69.4317 132.051 69.7363 132.376 70.5793C132.745 71.5357 132.376 72.322 131.796 72.8887C132.065 72.9454 133.148 73.3917 133.424 74.2205C133.778 75.3044 132.95 76.2466 132.107 76.6646C130.564 77.4296 126.295 79.4203 124.171 80.7663C119.993 83.4086 106.399 94.7716 99.3477 96.9889C99.5601 90.592 89.0391 84.2092 89.0391 84.2092H89.0461Z" fill="#D6A23E"/>
<path d="M120.304 76.567C120.262 76.567 120.212 76.5528 120.177 76.5174C120.106 76.4465 120.099 76.3332 120.177 76.2553C121.38 74.9872 121.784 73.62 122.11 72.5219C122.45 71.3814 122.719 70.4817 123.745 70.3967C124.404 70.3471 125.175 69.9504 125.983 69.2561C126.195 69.072 126.202 68.8169 126.138 68.6469C126.075 68.4698 125.898 68.2785 125.614 68.2785H120.311C120.212 68.2785 120.127 68.1935 120.127 68.0943C120.127 67.9952 120.212 67.9102 120.311 67.9102H125.614C126.004 67.9102 126.351 68.151 126.485 68.5194C126.62 68.8878 126.521 69.2845 126.223 69.5395C125.345 70.2975 124.524 70.7084 123.774 70.7651C123.03 70.8217 122.811 71.4451 122.464 72.6282C122.124 73.7616 121.706 75.1785 120.439 76.5103C120.403 76.5457 120.354 76.567 120.304 76.567Z" fill="#1F233C"/>
<path d="M129.006 77.2601C128.935 77.2601 128.872 77.2247 128.843 77.161C128.256 75.985 128.567 74.5611 129.544 73.7322L129.027 73.9023C128.164 74.1927 127.222 73.8173 126.783 73.0238C126.535 72.5775 126.486 72.0604 126.634 71.5716C126.783 71.0828 127.116 70.6861 127.569 70.4452L128.256 70.091C127.696 70.0414 127.18 69.6943 126.953 69.1417C126.656 68.4192 126.953 67.5832 127.633 67.2078L129.332 66.2727C129.424 66.2231 129.53 66.2585 129.58 66.3435C129.629 66.4356 129.594 66.5419 129.509 66.5914L127.81 67.5266C127.286 67.817 127.066 68.4475 127.293 69.0001C127.534 69.588 128.206 69.8785 128.801 69.6447L130.047 69.1559C130.139 69.1205 130.238 69.1559 130.281 69.2551C130.323 69.3472 130.281 69.4463 130.196 69.4959L127.739 70.7711C127.371 70.9624 127.109 71.2811 126.988 71.6708C126.868 72.0604 126.911 72.4784 127.109 72.8396C127.463 73.4772 128.22 73.7747 128.907 73.5481L130.882 72.8892C130.975 72.8609 131.067 72.9034 131.109 72.9884C131.152 73.0734 131.116 73.1726 131.038 73.2222L130.125 73.7606C129.013 74.4194 128.596 75.8362 129.176 76.9839C129.219 77.076 129.183 77.1893 129.091 77.2318C129.063 77.246 129.035 77.2531 129.006 77.2531V77.2601Z" fill="#1F233C"/>
<path d="M15.2291 98.2344C10.0464 105.765 -6.24488 126.571 2.56984 133.315C9.85526 138.89 24.8226 117.928 30.4583 110.787C25.3819 106.601 20.3126 102.421 15.2361 98.2344H15.2291Z" fill="#D6A23E"/>
<path d="M10.125 100.295C10.125 100.295 30.629 79.3334 46.8566 75.2175C59.5795 71.9942 70.2988 71.8596 86.5122 77.3498L82.5969 99.2539L78.986 97.9221C82.4694 105.948 84.5581 111.984 86.6467 118.955L30.1688 123.8L30.7493 113.429L24.8516 121.201L10.125 100.295Z" fill="#F2CA08"/>
<path d="M17.2474 123.398C23.4283 128.336 38.5585 139.253 39.9957 140.379C42.6791 142.483 48.5202 146.797 47.4865 148.901C47.1466 149.603 46.3395 150.042 45.4049 150.091C45.6881 151.048 45.3837 152.068 44.6473 152.677C43.6774 153.471 42.4737 153.109 42.3888 153.081C42.7074 153.789 42.6507 154.59 42.2259 155.149C41.6383 155.922 40.4064 156.134 39.4081 155.511C39.3868 155.73 39.2877 156.503 38.6505 157.069C37.9425 157.693 36.8592 157.806 35.9105 157.346C33.5245 155.482 29.3331 153.18 24.4903 150.127C13.1126 142.951 8.33351 139.267 3.46948 134.804C1.5791 133.075 -1.15382 128.995 0.587884 123.568C6.18824 123.505 11.6541 123.469 17.2544 123.406L17.2474 123.398Z" fill="#D6A23E"/>
<path d="M19.5911 125.411C19.5911 125.411 19.5274 125.404 19.4991 125.376C17.8989 124.129 16.9431 123.378 16.398 122.946C16.3342 122.896 16.3201 122.797 16.3696 122.726C16.4192 122.662 16.5183 122.648 16.5891 122.698C17.1343 123.13 18.0901 123.881 19.6902 125.128C19.761 125.177 19.7681 125.276 19.7185 125.347C19.6902 125.39 19.6407 125.404 19.5982 125.404L19.5911 125.411Z" fill="#D6A23E"/>
<path d="M43.0338 146.93C42.9984 146.93 42.963 146.916 42.9276 146.888C42.8638 146.831 42.8568 146.732 42.9134 146.668L43.9117 145.549C43.9683 145.485 44.0675 145.478 44.1312 145.535C44.1949 145.591 44.202 145.69 44.1453 145.754L43.147 146.873C43.147 146.873 43.0762 146.923 43.0338 146.923V146.93Z" fill="#1F233C"/>
<path d="M40.4986 149.774C40.4632 149.774 40.4278 149.76 40.3924 149.731C40.3287 149.675 40.3216 149.575 40.3782 149.512L41.3765 148.392C41.4332 148.329 41.5323 148.322 41.596 148.378C41.6597 148.435 41.6668 148.534 41.6102 148.598L40.6119 149.717C40.6119 149.717 40.5411 149.767 40.4986 149.767V149.774Z" fill="#1F233C"/>
<path d="M37.9498 152.692C37.9144 152.692 37.879 152.678 37.8436 152.649C37.7799 152.593 37.7728 152.493 37.8294 152.43L38.8277 151.31C38.8844 151.247 38.9835 151.24 39.0472 151.296C39.1109 151.353 39.118 151.452 39.0614 151.516L38.0631 152.635C38.0631 152.635 37.9923 152.685 37.9498 152.685V152.692Z" fill="#1F233C"/>
<path d="M35.5845 155.289C35.5491 155.289 35.5137 155.275 35.4783 155.247C35.4146 155.19 35.4075 155.091 35.4642 155.027L36.4625 153.908C36.5191 153.844 36.6182 153.837 36.682 153.894C36.7457 153.951 36.7528 154.05 36.6961 154.114L35.6978 155.233C35.6978 155.233 35.627 155.282 35.5845 155.282V155.289Z" fill="#1F233C"/>
<path d="M56.3154 76.1983C56.9456 78.3094 53.4905 81.2068 48.6052 82.659C43.7199 84.1184 39.2453 83.587 38.6152 81.476C37.985 79.3649 41.4401 76.4675 46.3254 75.0153C51.2107 73.5559 55.6853 74.0872 56.3154 76.1983Z" fill="#D6A23E"/>
<path d="M54.3958 68.588C52.3496 71.2091 43.5208 68.3896 43.5208 68.3896L36.7097 60.8592C35.3716 56.375 37.9204 51.664 42.4021 50.3251C46.8838 48.9862 51.5991 51.5365 52.9302 56.0208C52.9302 56.0208 56.4773 65.9244 54.3958 68.588Z" fill="#D6A23E"/>
<path d="M46.519 57.8331L36.6875 60.7656L42.8001 81.2816L52.6316 78.349L46.519 57.8331Z" fill="#D6A23E"/>
<path d="M52.6406 58.4297C52.6406 58.4297 55.6284 60.137 55.6922 60.8029C55.77 61.5963 53.377 62.8148 53.377 62.8148C53.377 62.8148 52.7043 58.4226 52.6406 58.4368V58.4297Z" fill="#D6A23E"/>
<path d="M51.4448 65.7261C51.3174 65.7261 51.19 65.7049 51.0625 65.6694C50.5669 65.5207 50.1846 65.0956 50.0996 64.5856C50.0855 64.4864 50.1492 64.3872 50.2483 64.3731C50.3474 64.3589 50.4465 64.4226 50.4607 64.5218C50.5244 64.8973 50.8005 65.209 51.1687 65.3152C51.544 65.4286 51.9546 65.3011 52.2166 65.0035C52.2803 64.9256 52.4007 64.9185 52.4785 64.9823C52.5564 65.0461 52.5635 65.1665 52.4998 65.2444C52.2307 65.5561 51.8484 65.7261 51.4519 65.7261H51.4448Z" fill="#000091"/>
<path d="M50.9342 70.0267C47.6986 70.0267 43.6983 68.7586 43.5072 68.702C43.4081 68.6736 43.3585 68.5674 43.3868 68.4682C43.4151 68.369 43.5213 68.3194 43.6205 68.3478C43.67 68.3619 48.7535 69.97 52.0175 69.6016C52.1166 69.5875 52.2086 69.6654 52.2228 69.7646C52.2369 69.8638 52.1591 69.9558 52.0599 69.97C51.6988 70.0125 51.3236 70.0267 50.9342 70.0267Z" fill="#D6A23E"/>
<path d="M36.2861 66.0009C33.8718 64.8391 33.1283 59.1435 34.6081 55.488C36.5197 50.7771 42.0776 48.0001 46.5593 48.3827C47.6638 48.4748 50.1843 49.0132 51.0197 50.5858C51.6711 51.8114 50.4321 54.3546 48.3222 55.0843C45.3628 56.1114 41.2209 55.4314 42.7502 58.8034C47.3947 69.0258 38.934 67.276 36.279 66.0009H36.2861Z" fill="#000091"/>
<path d="M20.8226 79.0105C30.6333 79.0105 38.5865 71.056 38.5865 61.2435C38.5865 51.4311 30.6333 43.4766 20.8226 43.4766C11.0118 43.4766 3.05859 51.4311 3.05859 61.2435C3.05859 71.056 11.0118 79.0105 20.8226 79.0105Z" fill="#000091"/>
<path d="M49.7799 63.6174C49.1073 63.6174 48.4418 63.3623 47.8754 62.8735C47.1957 62.2855 46.7284 61.4355 46.5655 60.4791C46.4027 59.5157 46.5655 58.5593 47.0187 57.7871C47.4789 57.0008 48.1798 56.4907 49.0011 56.349C50.6791 56.0657 52.3146 57.4613 52.6544 59.4519C52.8173 60.4153 52.6544 61.3717 52.2013 62.1439C51.7411 62.9302 51.0402 63.4403 50.2189 63.5819C50.0702 63.6032 49.9215 63.6174 49.7799 63.6174ZM49.4401 56.682C49.3126 56.682 49.1923 56.6891 49.0648 56.7103C48.3568 56.8308 47.7408 57.2771 47.3373 57.9713C46.9266 58.6726 46.785 59.544 46.9266 60.4153C47.0753 61.2938 47.493 62.0659 48.109 62.5972C48.7179 63.1215 49.4401 63.3411 50.1481 63.2206C50.8561 63.1002 51.472 62.6539 51.8756 61.9597C52.2863 61.2583 52.4279 60.387 52.2863 59.5157C52.0101 57.8721 50.7711 56.682 49.433 56.682H49.4401Z" fill="white"/>
<path d="M42.0627 61.772C41.9777 61.772 41.9069 61.7154 41.8857 61.6374C41.8573 61.5383 41.9211 61.4391 42.0202 61.4107L46.4311 60.2489C46.5302 60.2206 46.6293 60.2844 46.6577 60.3835C46.686 60.4827 46.6222 60.5819 46.5231 60.6102L42.1122 61.772C42.1122 61.772 42.0839 61.772 42.0627 61.772Z" fill="white"/>
<path d="M52.5139 58.9876C52.4785 58.9876 52.4431 58.9734 52.4077 58.9522C52.3227 58.8955 52.3015 58.7822 52.3652 58.6971C52.6271 58.3217 53.3564 57.7833 54.2485 58.3925C54.3334 58.4492 54.3547 58.5625 54.298 58.6476C54.2414 58.7326 54.1281 58.7538 54.0432 58.6971C53.2289 58.1375 52.6979 58.8743 52.6767 58.9097C52.6413 58.9593 52.5847 58.9876 52.528 58.9876H52.5139Z" fill="white"/>
<path d="M22.7915 69.6709C15.0105 69.6709 8.67383 63.3377 8.67383 55.5523C8.67383 47.7668 15.0034 41.4336 22.7915 41.4336C30.5797 41.4336 36.9093 47.7668 36.9093 55.5523C36.9093 63.3377 30.5797 69.6709 22.7915 69.6709ZM22.7915 41.802C15.2088 41.802 9.04199 47.9722 9.04199 55.5523C9.04199 63.1323 15.2088 69.3025 22.7915 69.3025C30.3743 69.3025 36.534 63.1323 36.534 55.5523C36.534 47.9722 30.3673 41.802 22.7915 41.802Z" fill="#000091"/>
<path d="M24.5316 76.638C19.5826 76.638 15.023 73.7405 12.9131 69.2634C12.8707 69.1713 12.9132 69.0579 12.9981 69.0154C13.0902 68.9729 13.2034 69.0154 13.2459 69.1004C15.2991 73.4501 19.7242 76.2625 24.5316 76.2625C30.0258 76.2625 34.8119 72.7417 36.4403 67.4994C36.4686 67.4003 36.5748 67.3507 36.674 67.379C36.7731 67.4073 36.8226 67.5136 36.7943 67.6128C35.1163 73.0109 30.1886 76.638 24.5316 76.638Z" fill="white"/>
<path d="M50.9563 57.8058C49.9368 57.8696 50.0996 59.1306 50.2908 59.6335C50.4182 59.9594 50.6731 60.3349 51.1333 60.3065C51.8059 60.2569 51.8342 59.4635 51.7988 59.0385C51.7634 58.5638 51.6218 57.7704 50.9563 57.8058Z" fill="#000091"/>
<path d="M92.8838 50.4749C98.6866 50.4749 103.391 45.7681 103.391 39.9621C103.391 34.156 98.6866 29.4492 92.8838 29.4492C87.081 29.4492 82.377 34.156 82.377 39.9621C82.377 45.7681 87.081 50.4749 92.8838 50.4749Z" fill="white"/>
<path d="M92.4947 28.6211C86.3916 28.6211 81.4355 33.5871 81.4355 39.6865C81.4355 45.7859 86.3987 50.7519 92.4947 50.7519C98.5906 50.7519 103.554 45.7859 103.554 39.6865C103.554 33.5871 98.5906 28.6211 92.4947 28.6211ZM97.0047 37.88L92.261 42.6264C92.1053 42.7752 91.907 42.8531 91.7017 42.8531C91.4964 42.8531 91.2981 42.7752 91.1424 42.6264L88.7705 40.2532C88.459 39.9415 88.459 39.4386 88.7705 39.1339C89.0821 38.8293 89.5847 38.8222 89.8892 39.1339L91.7017 40.9546L95.879 36.7678C96.1905 36.4561 96.6932 36.4561 96.9976 36.7678C97.3021 37.0795 97.3091 37.5825 96.9976 37.8871L97.0047 37.88Z" fill="#00A95F"/>
<path d="M174.539 211.461H162.828V242.277H174.539V211.461Z" fill="#9FA4FF"/>
<path d="M163.21 211.461H151.5V242.277H163.21V211.461Z" fill="#9FA4FF"/>
<path d="M287.679 139.323C303.441 139.323 316.218 126.538 316.218 110.767C316.218 94.9959 303.441 82.2109 287.679 82.2109C271.916 82.2109 259.139 94.9959 259.139 110.767C259.139 126.538 271.916 139.323 287.679 139.323Z" fill="white" stroke="#000091" stroke-miterlimit="10"/>
<path d="M289.101 95.3398C286.736 95.354 285.15 96.452 285.136 98.6481V113.504C283.472 114.637 282.375 116.472 282.375 118.526C282.375 121.969 285.398 124.767 289.115 124.767C292.832 124.767 295.856 121.969 295.856 118.526C295.856 116.458 294.758 114.623 293.08 113.489C293.038 106.547 293.144 105.215 293.066 98.6481C293.08 96.452 291.494 95.354 289.108 95.3398H289.101ZM289.087 96.0766C290.694 96.0908 292.28 96.8204 292.273 98.6481C292.301 105.456 292.287 106.752 292.287 113.666C292.287 113.787 292.351 113.9 292.464 113.964C294.036 114.956 295.063 116.635 295.063 118.533C295.063 121.579 292.408 124.038 289.115 124.038C285.823 124.038 283.168 121.572 283.168 118.533C283.168 116.642 284.195 114.97 285.759 113.978C285.865 113.914 285.929 113.801 285.936 113.681V98.6552C285.95 96.8275 287.536 96.0978 289.094 96.0837L289.087 96.0766Z" fill="#000091"/>
<path d="M277.661 102.379V108.067H275.494C276.691 110.016 277.908 111.425 278.942 113.104C280.181 111.05 281.264 109.895 282.376 108.067H280.217V102.379H277.654H277.661Z" fill="#000091"/>
<path d="M289.031 97.9719C288.818 97.9932 288.649 98.1915 288.67 98.3828C288.691 98.5741 288.903 98.7229 289.116 98.7016H290.702C290.914 98.7016 291.098 98.5316 291.098 98.3332C291.098 98.1349 290.914 97.9648 290.702 97.9648H289.031V97.9719Z" fill="#000091"/>
<path d="M287.445 99.4407C287.232 99.4619 287.063 99.6603 287.084 99.8516C287.105 100.043 287.317 100.192 287.53 100.17H290.702C290.914 100.17 291.098 100 291.098 99.802C291.098 99.6036 290.914 99.4336 290.702 99.4336H287.445V99.4407Z" fill="#000091"/>
<path d="M289.031 100.913C288.818 100.935 288.649 101.133 288.67 101.324C288.691 101.515 288.903 101.664 289.116 101.643H290.702C290.914 101.643 291.098 101.473 291.098 101.275C291.098 101.076 290.914 100.906 290.702 100.906H289.031V100.913Z" fill="#000091"/>
<path d="M287.445 102.378C287.232 102.399 287.063 102.598 287.084 102.789C287.105 102.98 287.317 103.129 287.53 103.108H290.702C290.914 103.108 291.098 102.938 291.098 102.739C291.098 102.541 290.914 102.371 290.702 102.371H287.445V102.378Z" fill="#000091"/>
<path d="M289.031 103.847C288.818 103.868 288.649 104.067 288.67 104.258C288.691 104.449 288.903 104.598 289.116 104.577H290.702C290.914 104.577 291.098 104.407 291.098 104.208C291.098 104.01 290.914 103.84 290.702 103.84H289.031V103.847Z" fill="#000091"/>
<path d="M287.445 105.32C287.232 105.341 287.063 105.539 287.084 105.73C287.105 105.922 287.317 106.07 287.53 106.049H290.702C290.914 106.049 291.098 105.879 291.098 105.681C291.098 105.483 290.914 105.312 290.702 105.312H287.445V105.32Z" fill="#000091"/>
<path d="M287.692 107.438C287.536 107.579 287.529 107.749 287.529 107.884V115.584C286.368 116.13 285.547 117.228 285.547 118.51C285.547 120.331 287.147 121.818 289.115 121.818C291.084 121.818 292.684 120.331 292.684 118.51C292.684 117.221 291.869 116.13 290.701 115.584V107.884C290.701 107.615 290.326 107.423 290.085 107.572C289.377 107.877 288.782 107.494 288.202 107.31C288.004 107.268 287.827 107.381 287.692 107.438Z" fill="#000091"/>
<path d="M177.746 206.546C174.405 212.17 172.21 214.119 171.19 213.686C170.171 213.254 170.709 210.612 174.051 204.987C177.392 199.362 183.304 193.312 183.304 193.312C183.304 193.312 181.095 200.921 177.746 206.546Z" fill="#00A95F"/>
<path d="M160.392 205.186C162.466 211.901 162.417 214.834 161.312 215.075C160.208 215.316 158.466 212.773 156.391 206.064C154.317 199.348 153.793 190.77 153.793 190.77C153.793 190.77 158.31 198.477 160.392 205.193V205.186Z" fill="#00A95F"/>
<path d="M156.513 205.412C159.282 210.47 159.572 212.857 158.538 213.261C157.505 213.665 155.529 211.929 152.761 206.864C149.993 201.806 148.506 194.941 148.506 194.941C148.506 194.941 153.745 200.354 156.513 205.412Z" fill="#00A95F"/>
<path d="M172.315 203.832C170.325 210.561 168.619 213.119 167.507 212.892C166.403 212.658 166.311 209.725 168.3 202.996C170.29 196.266 174.708 188.516 174.708 188.516C174.708 188.516 174.297 197.102 172.308 203.839L172.315 203.832Z" fill="#00A95F"/>
<path d="M164.577 203.364C165.172 210.285 164.492 213.161 163.352 213.232C162.212 213.303 161.051 210.533 160.456 203.619C159.862 196.698 161.207 188.176 161.207 188.176C161.207 188.176 163.989 196.443 164.584 203.364H164.577Z" fill="#00A95F"/>
<path d="M168.555 204.81C167.812 211.717 166.594 214.466 165.454 214.381C164.314 214.295 163.698 211.405 164.442 204.498C165.185 197.591 168.138 189.359 168.138 189.359C168.138 189.359 169.299 197.896 168.555 204.81Z" fill="#00A95F"/>
<path d="M173.916 207.786C172.26 211.689 170.709 213.021 169.64 212.695C168.564 212.369 168.373 210.52 170.029 206.617C171.686 202.714 175.644 198.562 175.644 198.562C175.644 198.562 175.58 203.883 173.924 207.786H173.916Z" fill="#00A95F"/>
<path d="M153.376 207.609C156.57 211.923 156.987 214.148 155.89 214.721C154.793 215.295 152.605 213.999 149.412 209.685C146.219 205.37 144.328 199.094 144.328 199.094C144.328 199.094 150.183 203.295 153.376 207.609Z" fill="#00A95F"/>
<path d="M178.992 135.066H116.73C114.067 135.066 111.908 137.226 111.908 139.891V187.043C111.908 189.707 114.067 191.867 116.73 191.867H178.992C181.655 191.867 183.814 189.707 183.814 187.043V139.891C183.814 137.226 181.655 135.066 178.992 135.066Z" fill="white" stroke="#000091" stroke-miterlimit="10"/>
<path d="M178.992 135.066H116.73C114.067 135.066 111.908 137.226 111.908 139.891V187.043C111.908 189.707 114.067 191.867 116.73 191.867H178.992C181.655 191.867 183.814 189.707 183.814 187.043V139.891C183.814 137.226 181.655 135.066 178.992 135.066Z" fill="white"/>
<path d="M178.992 135.066H116.73C114.067 135.066 111.908 137.226 111.908 139.891V187.043C111.908 189.707 114.067 191.867 116.73 191.867H178.992C181.655 191.867 183.814 189.707 183.814 187.043V139.891C183.814 137.226 181.655 135.066 178.992 135.066Z" stroke="#000091" stroke-miterlimit="10"/>
<path d="M164.336 179.695H147.832V191.037H164.336V179.695Z" fill="#9FA4FF"/>
<path d="M148.371 179.695H131.867V191.037H148.371V179.695Z" fill="#9FA4FF"/>
<path d="M169.922 171.253C164.619 180.172 161.143 183.261 159.529 182.581C157.907 181.901 158.764 177.707 164.06 168.788C169.363 159.869 178.73 150.277 178.73 150.277C178.73 150.277 175.225 162.335 169.922 171.261V171.253Z" fill="#00A95F"/>
<path d="M142.409 169.091C145.701 179.731 145.624 184.386 143.875 184.768C142.126 185.151 139.365 181.12 136.073 170.479C132.78 159.839 131.959 146.23 131.959 146.23C131.959 146.23 139.124 158.451 142.416 169.091H142.409Z" fill="#00A95F"/>
<path d="M136.256 169.446C140.646 177.465 141.106 181.255 139.464 181.893C137.821 182.53 134.699 179.774 130.302 171.755C125.912 163.736 123.555 152.848 123.555 152.848C123.555 152.848 131.86 161.427 136.256 169.446Z" fill="#00A95F"/>
<path d="M161.313 166.945C158.163 177.613 155.451 181.672 153.695 181.304C151.939 180.936 151.805 176.281 154.956 165.613C158.106 154.944 165.115 142.66 165.115 142.66C165.115 142.66 164.471 156.276 161.313 166.945Z" fill="#00A95F"/>
<path d="M149.044 166.208C149.986 177.174 148.902 181.743 147.097 181.85C145.291 181.956 143.444 177.571 142.502 166.605C141.56 155.638 143.691 142.129 143.691 142.129C143.691 142.129 148.102 155.242 149.044 166.208Z" fill="#00A95F"/>
<path d="M155.344 168.498C154.168 179.45 152.228 183.806 150.43 183.672C148.625 183.537 147.648 178.954 148.823 168.002C149.998 157.05 154.685 144.008 154.685 144.008C154.685 144.008 156.526 157.546 155.351 168.498H155.344Z" fill="#00A95F"/>
<path d="M163.848 173.208C161.221 179.392 158.771 181.503 157.065 180.993C155.359 180.483 155.054 177.543 157.681 171.352C160.308 165.167 166.581 158.586 166.581 158.586C166.581 158.586 166.482 167.023 163.855 173.208H163.848Z" fill="#00A95F"/>
<path d="M131.28 172.929C136.342 179.772 137.001 183.3 135.266 184.207C133.531 185.114 130.055 183.066 125 176.223C119.938 169.38 116.936 159.434 116.936 159.434C116.936 159.434 126.218 166.086 131.28 172.929Z" fill="#00A95F"/>
</g>
<defs>
<clipPath id="clip0_2791_80228">
<rect width="332" height="280" fill="white"/>
</clipPath>
</defs>
</svg>
