<svg width="134" height="134" viewBox="0 0 134 134" fill="none" xmlns="http://www.w3.org/2000/svg">
<rect width="134" height="134" rx="20" fill="#6A6AF4"/>
<g clip-path="url(#clip0_2791_80422)">
<path d="M90.1861 28H40.8199C34.3091 28 29 33.328 29 39.862V73.84C29 80.38 34.3091 85.702 40.8199 85.702H48.9629C49.6923 85.702 50.2782 85.114 50.2782 84.382C50.2782 83.65 49.6923 83.062 48.9629 83.062H40.8199C35.75 83.062 31.6247 78.922 31.6247 73.834V39.862C31.6247 34.774 35.75 30.634 40.8199 30.634H90.1741C95.2441 30.634 99.3694 34.774 99.3694 39.862V73.84C99.3694 76.996 97.7731 79.906 95.1066 81.616C94.4908 82.012 94.3174 82.822 94.706 83.434C95.0946 84.046 95.9137 84.226 96.5175 83.836C99.9493 81.628 102 77.896 102 73.834V39.862C102.006 33.322 96.7029 28 90.1861 28ZM90.7541 36.988H38.7812C38.0518 36.988 37.4658 37.576 37.4658 38.308C37.4658 39.04 38.0518 39.628 38.7812 39.628H90.7541C91.4835 39.628 92.0694 39.04 92.0694 38.308C92.0694 37.576 91.4835 36.988 90.7541 36.988ZM90.7541 46.324H68.3997C67.6703 46.324 67.0844 46.912 67.0844 47.644C67.0844 48.376 67.6703 48.964 68.3997 48.964H90.7541C91.4835 48.964 92.0694 48.376 92.0694 47.644C92.0694 46.912 91.4835 46.324 90.7541 46.324ZM90.7541 53.656H68.3997C67.6703 53.656 67.0844 54.244 67.0844 54.976C67.0844 55.708 67.6703 56.296 68.3997 56.296H90.7541C91.4835 56.296 92.0694 55.708 92.0694 54.976C92.0694 54.244 91.4835 53.656 90.7541 53.656ZM90.7541 60.982H68.3997C67.6703 60.982 67.0844 61.57 67.0844 62.302C67.0844 63.034 67.6703 63.622 68.3997 63.622H90.7541C91.4835 63.622 92.0694 63.034 92.0694 62.302C92.0694 61.57 91.4835 60.982 90.7541 60.982ZM90.7541 68.824H80.656C79.9266 68.824 79.3407 69.412 79.3407 70.144C79.3407 70.876 79.9266 71.464 80.656 71.464H90.7541C91.4835 71.464 92.0694 70.876 92.0694 70.144C92.0694 69.412 91.4835 68.824 90.7541 68.824ZM91.902 86.986C90.9932 86.986 90.1502 87.256 89.4328 87.706V87.364C89.4328 84.772 87.3283 82.66 84.7395 82.66C83.7829 82.66 82.8921 82.948 82.1567 83.452C81.6903 81.34 79.819 79.75 77.583 79.75C76.6742 79.75 75.8312 80.02 75.1138 80.47V70.504C75.1138 67.81 72.8419 65.638 70.1096 65.812C67.6165 65.974 65.7332 68.158 65.7332 70.666V93.136L62.4509 87.616C61.1355 85.384 58.2478 84.646 56.0238 85.966C53.7997 87.292 53.0643 90.184 54.3796 92.416L65.6256 111.442C65.8348 111.796 66.2055 111.988 66.5821 111.988C66.7735 111.988 66.9648 111.934 67.1441 111.832C67.6703 111.514 67.8437 110.836 67.5268 110.314L56.2808 91.288C55.5873 90.112 55.9759 88.582 57.1478 87.886C58.3196 87.19 59.8441 87.58 60.5377 88.762L65.8767 97.744C65.9006 97.786 65.9365 97.804 65.9663 97.84C66.0082 97.9 66.056 97.954 66.1158 98.008C66.1696 98.062 66.2294 98.098 66.2892 98.134C66.349 98.17 66.4028 98.194 66.4745 98.224C66.5523 98.248 66.624 98.26 66.7017 98.266C66.7436 98.272 66.7794 98.29 66.8273 98.29C66.8512 98.29 66.8691 98.284 66.899 98.272C66.9767 98.266 67.0485 98.248 67.1262 98.23C67.198 98.212 67.2637 98.194 67.3295 98.158C67.3534 98.152 67.3833 98.152 67.4012 98.134C67.4431 98.11 67.461 98.074 67.4969 98.044C67.5567 98.002 67.6105 97.954 67.6643 97.894C67.7061 97.84 67.754 97.78 67.7898 97.72C67.8257 97.66 67.8496 97.594 67.8795 97.534C67.9034 97.462 67.9154 97.384 67.9214 97.306C67.9274 97.264 67.9453 97.228 67.9453 97.18V70.51C67.9453 69.142 69.0573 68.032 70.4145 68.032C71.7717 68.032 72.8837 69.148 72.8837 70.51V97.174C72.8837 97.792 73.3799 98.29 73.9957 98.29C74.6116 98.29 75.1078 97.792 75.1078 97.174V94.108V84.46C75.1078 83.002 76.3633 81.844 77.8341 81.994C79.1135 82.126 80.0462 83.284 80.0462 84.574V87.37V94.12V96.352C80.0462 96.91 80.4229 97.426 80.9729 97.516C81.6664 97.63 82.2763 97.09 82.2763 96.418V94.126V87.484C82.2763 86.188 83.2209 85.03 84.5123 84.91C85.9831 84.772 87.2147 85.936 87.2147 87.376V91.702V98.326V100.564C87.2147 101.122 87.5913 101.638 88.1414 101.728C88.8349 101.842 89.4447 101.302 89.4447 100.63V91.702C89.4447 90.334 90.5568 89.224 91.9139 89.224C93.2711 89.224 94.3831 90.34 94.3831 91.702V107.698L93.4265 110.38C93.1455 110.926 93.3488 111.592 93.8929 111.88C94.0603 111.97 94.2337 112.006 94.4071 112.006C94.8076 112.006 95.1962 111.784 95.3876 111.406L96.4637 108.478C96.5414 108.322 96.5893 108.142 96.5893 107.962V91.702C96.6132 89.11 94.5027 86.998 91.9199 86.998L91.902 86.986Z" fill="#F5F5FE"/>
<path d="M50.164 46.0543C50.9233 46.0543 51.4315 45.5443 51.4315 44.7823V43.5103C51.4315 42.7483 50.9233 42.2383 50.164 42.2383C49.4047 42.2383 48.8965 42.7483 48.8965 43.5103V44.7823C48.8965 45.5443 49.4047 46.0543 50.164 46.0543Z" fill="#F5F5FE"/>
<path d="M50.164 63.8906C49.4047 63.8906 48.8965 64.4006 48.8965 65.1626V66.4346C48.8965 67.1966 49.4047 67.7066 50.164 67.7066C50.9233 67.7066 51.4315 67.1966 51.4315 66.4346V65.1626C51.4315 64.4006 50.9233 63.8906 50.164 63.8906Z" fill="#F5F5FE"/>
<path d="M61.5955 53.6992H60.328C59.5687 53.6992 59.0605 54.2092 59.0605 54.9712C59.0605 55.7332 59.5687 56.2432 60.328 56.2432H61.5955C62.3548 56.2432 62.863 55.7332 62.863 54.9712C62.863 54.2092 62.3548 53.6992 61.5955 53.6992Z" fill="#F5F5FE"/>
<path d="M41.281 54.9712C41.281 54.2092 40.7728 53.6992 40.0135 53.6992H38.746C37.9867 53.6992 37.4785 54.2092 37.4785 54.9712C37.4785 55.7332 37.9867 56.2432 38.746 56.2432H40.0135C40.7728 56.2432 41.281 55.7332 41.281 54.9712Z" fill="#F5F5FE"/>
<path d="M57.4047 48.9816C57.7873 48.9816 58.0384 48.8556 58.2955 48.5976L59.1863 47.7036C59.6945 47.1936 59.6945 46.4316 59.1863 45.9216C58.6781 45.4116 57.9188 45.4116 57.4106 45.9216L56.5198 46.8156C56.0116 47.3256 56.0116 48.0876 56.5198 48.5976C56.6454 48.8496 57.028 48.9816 57.4106 48.9816H57.4047Z" fill="#F5F5FE"/>
<path d="M42.0395 61.3434L41.1487 62.2374C40.6405 62.7474 40.6405 63.5094 41.1487 64.0194C41.3998 64.2714 41.7825 64.4034 42.0395 64.4034C42.2966 64.4034 42.6733 64.2774 42.9304 64.0194L43.8212 63.1254C44.3294 62.6154 44.3294 61.8534 43.8212 61.3434C43.313 60.8334 42.5537 60.8334 42.0455 61.3434H42.0395Z" fill="#F5F5FE"/>
<path d="M58.2955 61.3434C57.7873 60.8334 57.028 60.8334 56.5198 61.3434C56.0116 61.8534 56.0116 62.6154 56.5198 63.1254L57.4106 64.0194C57.6617 64.2714 58.0444 64.4034 58.3015 64.4034C58.5586 64.4034 58.9352 64.2774 59.1923 64.0194C59.7005 63.5094 59.7005 62.7474 59.1923 62.2374L58.3015 61.3434H58.2955Z" fill="#F5F5FE"/>
<path d="M42.0394 48.5976C42.2905 48.8496 42.6732 48.9816 42.9303 48.9816C43.1873 48.9816 43.6896 48.8556 43.9466 48.5976C44.4548 48.0876 44.4548 47.3256 43.9466 46.8156L42.9303 45.9216C42.4221 45.4116 41.6628 45.4116 41.1546 45.9216C40.6464 46.4316 40.6464 47.1936 41.1546 47.7036L42.0454 48.5976H42.0394Z" fill="#F5F5FE"/>
<path d="M50.1638 48.5977C46.6065 48.5977 43.8145 51.3997 43.8145 54.9697C43.8145 58.5397 46.6065 61.3417 50.1638 61.3417C53.7212 61.3417 56.5132 58.5397 56.5132 54.9697C56.5132 51.3997 53.7212 48.5977 50.1638 48.5977ZM50.1638 58.7917C48.0055 58.7917 46.3554 57.1357 46.3554 54.9697C46.3554 52.8037 48.0055 51.1477 50.1638 51.1477C52.3222 51.1477 53.9723 52.8037 53.9723 54.9697C53.9723 57.1357 52.3222 58.7917 50.1638 58.7917Z" fill="#F5F5FE"/>
</g>
<defs>
<clipPath id="clip0_2791_80422">
<rect width="73" height="84" fill="white" transform="translate(29 28)"/>
</clipPath>
</defs>
</svg>
