<svg width="134" height="134" viewBox="0 0 134 134" fill="none" xmlns="http://www.w3.org/2000/svg">
<rect width="134" height="134" rx="20" fill="#6A6AF4"/>
<g clip-path="url(#clip0_30578_23698)">
<path d="M96.0625 27H52.125C48.2978 27 45.1875 30.0263 45.1875 33.75V42.75H34.7812C31.59 42.75 29 45.27 29 48.375V79.875C29 82.98 31.59 85.5 34.7812 85.5H45.1875V88.875H38.25C37.6141 88.875 37.0938 89.3812 37.0938 90C37.0938 94.9725 41.2331 99 46.3438 99H82.1875C87.2981 99 91.4375 94.9725 91.4375 90V33.75C91.4375 31.2637 93.5072 29.25 96.0625 29.25C98.6178 29.25 100.688 31.2637 100.688 33.75V45H93.75V47.25H101.844C102.48 47.25 103 46.7438 103 46.125V33.75C103 30.0263 99.8897 27 96.0625 27ZM31.3125 79.875V48.375C31.3125 46.5075 32.8619 45 34.7812 45H55.5938C57.5131 45 59.0625 46.5075 59.0625 48.375V79.875C59.0625 81.7425 57.5131 83.25 55.5938 83.25H34.7812C32.8619 83.25 31.3125 81.7425 31.3125 79.875ZM46.3438 96.75C42.9559 96.75 40.0653 94.3763 39.4987 91.125H73.03C73.3075 93.2962 74.4059 95.2988 76.0941 96.75H46.3438ZM89.125 33.75V90C89.125 93.7237 86.0147 96.75 82.1875 96.75C78.3603 96.75 75.25 93.7237 75.25 90C75.25 89.3812 74.7297 88.875 74.0938 88.875H47.5V85.5H55.5938C58.785 85.5 61.375 82.98 61.375 79.875V48.375C61.375 45.27 58.785 42.75 55.5938 42.75H47.5V33.75C47.5 31.2637 49.5697 29.25 52.125 29.25H90.9056C89.7609 30.4875 89.125 32.085 89.125 33.75Z" fill="#F5F5FE"/>
<path d="M84.5 36H52.125V38.25H84.5V36Z" fill="#F5F5FE"/>
<path d="M84.5 52.875H66V55.125H84.5V52.875Z" fill="#F5F5FE"/>
<path d="M84.5 47.25H66V49.5H84.5V47.25Z" fill="#F5F5FE"/>
<path d="M84.5 41.625H66V43.875H84.5V41.625Z" fill="#F5F5FE"/>
<path d="M84.5 58.5H66V60.75H84.5V58.5Z" fill="#F5F5FE"/>
<path d="M84.5 64.125H66V66.375H84.5V64.125Z" fill="#F5F5FE"/>
<path d="M53.2812 56.25C55.2006 56.25 56.75 54.7425 56.75 52.875V50.625C56.75 48.7575 55.2006 47.25 53.2812 47.25H37.0938C35.1744 47.25 33.625 48.7575 33.625 50.625V52.875C33.625 54.7425 35.1744 56.25 37.0938 56.25H53.2812ZM35.9375 52.875V50.625C35.9375 50.0062 36.4578 49.5 37.0938 49.5H53.2812C53.9172 49.5 54.4375 50.0062 54.4375 50.625V52.875C54.4375 53.4938 53.9172 54 53.2812 54H37.0938C36.4578 54 35.9375 53.4938 35.9375 52.875Z" fill="#F5F5FE"/>
<path d="M39.4062 59.625H34.7812V61.875H39.4062V59.625Z" fill="#F5F5FE"/>
<path d="M47.5 59.625H42.875V61.875H47.5V59.625Z" fill="#F5F5FE"/>
<path d="M55.5938 59.625H50.9688V61.875H55.5938V59.625Z" fill="#F5F5FE"/>
<path d="M39.4062 65.25H34.7812V67.5H39.4062V65.25Z" fill="#F5F5FE"/>
<path d="M47.5 65.25H42.875V67.5H47.5V65.25Z" fill="#F5F5FE"/>
<path d="M55.5938 65.25H50.9688V67.5H55.5938V65.25Z" fill="#F5F5FE"/>
<path d="M39.4062 70.875H34.7812V73.125H39.4062V70.875Z" fill="#F5F5FE"/>
<path d="M47.5 70.875H42.875V73.125H47.5V70.875Z" fill="#F5F5FE"/>
<path d="M55.5938 70.875H50.9688V73.125H55.5938V70.875Z" fill="#F5F5FE"/>
<path d="M39.4062 76.5H34.7812V78.75H39.4062V76.5Z" fill="#F5F5FE"/>
<path d="M47.5 76.5H42.875V78.75H47.5V76.5Z" fill="#F5F5FE"/>
<path d="M55.5938 76.5H50.9688V78.75H55.5938V76.5Z" fill="#F5F5FE"/>
<path d="M79.3192 72.4721C79.747 72.6296 80.2327 72.4271 80.4061 71.9996C80.568 71.5834 80.3598 71.1109 79.9205 70.9421C76.128 69.5246 71.873 71.3584 70.4161 75.0371C70.3352 75.2509 70.2542 75.4646 70.1964 75.6784H68.7973C68.3348 75.6784 67.9648 76.0384 67.9648 76.4884C67.9648 76.9384 68.3348 77.2984 68.7973 77.2984H69.9305C69.9073 77.7034 69.9305 78.1196 69.9883 78.5246H68.7973C68.3348 78.5246 67.9648 78.8846 67.9648 79.3346C67.9648 79.7846 68.3348 80.1446 68.7973 80.1446H70.4045C71.8498 83.8346 76.1048 85.6909 79.8973 84.2846C79.8973 84.2846 79.9089 84.2846 79.9205 84.2846C80.3483 84.1271 80.568 83.6546 80.4061 83.2271C80.2442 82.7996 79.7586 82.5971 79.3192 82.7546C76.6136 83.7671 73.5727 82.6421 72.2314 80.1446H77.8045C78.267 80.1446 78.637 79.7846 78.637 79.3346C78.637 78.8846 78.267 78.5246 77.8045 78.5246H71.6764C71.6186 78.2209 71.5955 77.9171 71.5955 77.6021C71.5955 77.5009 71.5955 77.3996 71.5955 77.2984H78.4289C78.8914 77.2984 79.2614 76.9384 79.2614 76.4884C79.2614 76.0384 78.8914 75.6784 78.4289 75.6784H71.9423C73.0408 72.8209 76.3245 71.3696 79.2614 72.4384C79.273 72.4384 79.2961 72.4496 79.3077 72.4609L79.3192 72.4721Z" fill="#F5F5FE"/>
</g>
<defs>
<clipPath id="clip0_30578_23698">
<rect width="74" height="72" fill="white" transform="translate(29 27)"/>
</clipPath>
</defs>
</svg>
