<svg width="134" height="134" viewBox="0 0 134 134" fill="none" xmlns="http://www.w3.org/2000/svg">
<rect width="134" height="134" rx="20" fill="#6A6AF4"/>
<g clip-path="url(#clip0_2791_80457)">
<path d="M67.7601 48.5944C59.7226 48.5944 53.1742 55.2528 53.1742 63.4487C53.1742 71.6445 59.7124 78.303 67.7601 78.303C75.8078 78.303 82.346 71.6445 82.346 63.4487C82.346 55.2528 75.8078 48.5944 67.7601 48.5944ZM67.7601 76.0177C60.9568 76.0177 55.4182 70.3772 55.4182 63.4487C55.4182 56.5201 60.9568 50.8797 67.7601 50.8797C74.5634 50.8797 80.102 56.5201 80.102 63.4487C80.102 70.3772 74.5634 76.0177 67.7601 76.0177ZM71.9421 59.4183C71.9421 60.0519 72.4419 60.5609 73.0641 60.5609C73.6863 60.5609 74.186 60.0519 74.186 59.4183C74.186 56.8733 71.8911 54.7646 68.8821 54.3387V53.4558C68.8821 52.8221 68.3823 52.3131 67.7601 52.3131C67.1379 52.3131 66.6381 52.8221 66.6381 53.4558V54.3387C63.6291 54.7646 61.3342 56.8837 61.3342 59.4183C61.3342 61.9529 63.6291 64.0719 66.6381 64.4978V70.2318C64.8939 69.8786 63.5679 68.7672 63.5679 67.4687C63.5679 66.8351 63.0681 66.3261 62.4459 66.3261C61.8237 66.3261 61.3239 66.8351 61.3239 67.4687C61.3239 70.0137 63.6189 72.1224 66.6279 72.5483V73.4312C66.6279 74.0648 67.1277 74.5738 67.7499 74.5738C68.3721 74.5738 68.8719 74.0648 68.8719 73.4312V72.5483C71.8809 72.1224 74.1758 70.0033 74.1758 67.4687C74.1758 64.9341 71.8809 62.815 68.8719 62.3891V56.6552C70.6161 57.0084 71.9421 58.1198 71.9421 59.4183ZM63.5679 59.4183C63.5679 58.1198 64.8939 56.998 66.6381 56.6552V62.1814C64.8939 61.8282 63.5679 60.7167 63.5679 59.4183ZM71.9421 67.4687C71.9421 68.7672 70.6161 69.889 68.8719 70.2318V64.6952C70.6161 65.0484 71.9421 66.1599 71.9421 67.4583V67.4687ZM103.878 77.8979H94.6675C94.0453 77.8979 93.5455 78.4069 93.5455 79.0405V80.0377C90.2815 77.8667 86.9563 75.945 83.672 76.0904C81.0302 76.2151 78.5822 77.6797 76.4096 78.9678C75.41 79.5703 74.4614 80.1312 73.5639 80.5363C71.1261 81.627 68.8923 81.5751 66.5667 81.3985C66.5565 81.3985 66.5463 81.3881 66.5361 81.3881C66.3219 81.357 66.1077 81.3466 65.8935 81.3466C65.8935 81.3466 65.8527 81.3466 65.8323 81.3466C65.8221 81.3466 65.8119 81.3466 65.8017 81.3466H57.3664C54.4798 81.3466 52.1236 83.7461 52.1236 86.6858C52.1236 87.1948 52.2154 87.683 52.348 88.1505L38.4251 83.2995C35.4366 82.2607 32.0604 83.715 30.9078 86.5508C30.357 87.9012 30.3876 89.3762 30.9792 90.7058C31.6014 92.1186 32.8356 93.2197 34.335 93.739L54.6634 100.761C54.6634 100.761 54.694 100.782 54.7144 100.792L58.0192 101.873C61.4259 102.984 67.6785 105.02 71.9931 105.02C72.1461 105.02 72.2889 105.02 72.4317 105.02C75.3182 104.916 77.1134 103.815 78.8576 102.735C79.8164 102.143 80.7344 101.571 81.8462 101.166C84.7226 100.117 89.1391 100.044 93.5455 100.044V102.35C93.5455 102.984 94.0453 103.493 94.6675 103.493H103.878C104.5 103.493 105 102.984 105 102.35V79.0509C105 78.4173 104.5 77.9083 103.878 77.9083V77.8979ZM81.0914 99.0056C79.7654 99.4938 78.7148 100.138 77.6948 100.771C76.073 101.779 74.6654 102.641 72.3603 102.724C68.4333 102.859 61.8645 100.72 58.7026 99.6912L56.1832 98.8705C56.1832 98.8705 56.1322 98.8394 56.1016 98.829C55.9996 98.7978 55.8976 98.7667 55.7956 98.7355L35.049 91.568C34.1208 91.246 33.3762 90.5916 33.009 89.7502C32.6724 89.0023 32.6622 88.1713 32.9682 87.413C33.6618 85.699 35.8242 84.7953 37.6907 85.4497L55.2958 91.5784C55.9282 91.8589 56.6218 92.0147 57.3562 92.0147H65.8935C66.0975 92.0147 66.3015 92.0043 66.5055 91.9731C67.1175 91.9004 67.5561 91.3291 67.4847 90.7058C67.4133 90.0826 66.8523 89.6359 66.2403 89.7086C66.1281 89.719 66.0057 89.7294 65.8833 89.7294H57.346C55.6936 89.7294 54.3472 88.3582 54.3472 86.6754C54.3472 84.9926 55.6936 83.6215 57.346 83.6215H65.8017C66.7605 83.6942 67.7295 83.7669 68.7189 83.7669C70.5345 83.7669 72.4215 83.528 74.4512 82.6139C75.4712 82.1568 76.4708 81.5647 77.5316 80.9311C79.5716 79.7157 81.6728 78.4588 83.7638 78.3653C86.7421 78.2303 90.1795 80.474 93.5353 82.7697V97.7591C88.9351 97.7591 84.2942 97.8318 81.071 99.016L81.0914 99.0056ZM102.756 101.197H95.7895V80.1832H102.756V101.197ZM40.3223 50.1006C40.9445 50.1006 41.4443 49.5916 41.4443 48.9579V47.9607C44.5859 50.059 47.7989 51.908 50.9506 51.908C51.073 51.908 51.1954 51.908 51.3076 51.908C53.9494 51.7834 56.3974 50.3187 58.57 49.0307C59.5696 48.4282 60.5182 47.8672 61.4157 47.4621C63.8535 46.3714 66.0873 46.4234 68.4129 46.5999C68.4231 46.5999 68.4333 46.5999 68.4435 46.6103C68.6577 46.6415 68.8719 46.6519 69.0861 46.6519C69.0861 46.6519 69.1269 46.6519 69.1473 46.6519C69.1575 46.6519 69.1677 46.6519 69.1779 46.6519H77.6132C80.4998 46.6519 82.856 44.2627 82.856 41.3126C82.856 40.7933 82.7642 40.305 82.6214 39.8272L96.5443 44.6886C97.1971 44.9171 97.8805 45.0314 98.5434 45.0314C100.91 45.0314 103.164 43.6602 104.062 41.4477C104.612 40.0973 104.582 38.6222 103.99 37.2926C103.368 35.8799 102.134 34.7788 100.634 34.2594L80.306 27.2374C80.306 27.2374 80.2754 27.2166 80.255 27.2062L76.9502 26.1363C73.4415 24.9937 66.8727 22.8538 62.5581 22.9992C59.6716 23.1031 57.8764 24.2042 56.1322 25.2845C55.1734 25.8766 54.2554 26.4479 53.1436 26.8531C50.2774 27.9022 45.8507 27.9749 41.4443 27.9749V25.6689C41.4443 25.0352 40.9445 24.5262 40.3223 24.5262H31.122C30.4998 24.5262 30 25.0352 30 25.6689V48.9683C30 49.602 30.4998 50.111 31.122 50.111H40.3325L40.3223 50.1006ZM41.8319 30.2602C46.3097 30.2602 50.7772 30.1563 53.9086 29.0033C55.2346 28.5151 56.2852 27.871 57.3052 27.2374C58.927 26.2298 60.3346 25.3676 62.6397 25.2845C66.5667 25.1495 73.1355 27.2893 76.2974 28.3177L78.8168 29.1383C78.8168 29.1383 78.8678 29.1695 78.8984 29.1799C79.0004 29.2007 79.1024 29.2422 79.2044 29.2734L99.951 36.4408C100.879 36.7629 101.624 37.4173 101.991 38.2587C102.328 39.0066 102.338 39.8376 102.032 40.5959C101.338 42.3099 99.1758 43.2136 97.3093 42.5592L79.388 36.3058C79.388 36.3058 79.3064 36.3058 79.2656 36.2954C78.7556 36.1188 78.215 36.0046 77.6438 36.0046H69.1065C68.9025 36.0046 68.6985 36.0149 68.4945 36.0357C67.8825 36.1084 67.4439 36.6798 67.5153 37.303C67.5867 37.9263 68.1477 38.3729 68.7597 38.3002C68.8719 38.2898 68.9943 38.2794 69.1167 38.2794H77.654C79.3064 38.2794 80.6528 39.6506 80.6528 41.3334C80.6528 43.0162 79.3064 44.3874 77.654 44.3874H69.2085C66.5055 44.1692 63.7005 43.9823 60.5386 45.395C59.5186 45.852 58.519 46.4441 57.4582 47.0778C55.4182 48.2931 53.317 49.55 51.226 49.6435C48.2477 49.7786 44.8103 47.5348 41.4545 45.2392V30.2602H41.8421H41.8319ZM32.2338 26.8115H39.2105V47.8257H32.2338V26.8115Z" fill="#F5F5FE"/>
</g>
<defs>
<clipPath id="clip0_2791_80457">
<rect width="75" height="82" fill="white" transform="translate(30 23)"/>
</clipPath>
</defs>
</svg>
