<svg width="134" height="134" viewBox="0 0 134 134" fill="none" xmlns="http://www.w3.org/2000/svg">
<rect width="134" height="134" rx="20" fill="#6A6AF4"/>
<g clip-path="url(#clip0_2791_80436)">
<path d="M53.3891 22H50.9204C49.3408 22 48.0545 23.2683 48.0545 24.8257V32.2864H42.3888C39.9674 32.2864 38 34.2262 38 36.6136V100.673C38 103.06 39.9674 105 42.3888 105H91.6112C94.0326 105 96 103.06 96 100.673V36.6136C96 34.2262 94.0326 32.2864 91.6112 32.2864H85.9455V24.8257C85.9455 23.2683 84.6592 22.0093 83.0796 22H80.6109C79.0313 22 77.7449 23.2683 77.7449 24.8257V32.2864H56.2551V24.8257C56.2551 23.2683 54.9687 22 53.3891 22ZM67 34.1516H77.7449V36.2312C77.7449 37.7887 79.0313 39.057 80.6109 39.057H84.9997C85.5199 39.057 85.9455 38.6373 85.9455 38.1244C85.9455 37.6115 85.5199 37.1918 84.9997 37.1918H80.6109C80.0718 37.1918 79.6367 36.7628 79.6367 36.2312V24.8257C79.6367 24.2942 80.0718 23.8652 80.6109 23.8652H83.0796C83.6187 23.8652 84.0538 24.2942 84.0538 24.8257V33.2097C84.0538 33.7319 84.4795 34.1516 84.9997 34.1516H91.6112C92.9922 34.1516 94.1083 35.252 94.1083 36.6136V100.673C94.1083 102.034 92.9922 103.135 91.6112 103.135H42.3888C41.0078 103.135 39.8917 102.034 39.8917 100.673V36.6136C39.8917 35.252 41.0078 34.1516 42.3888 34.1516H49.0003C49.5205 34.1516 49.9462 33.7319 49.9462 33.219V24.8257C49.9462 24.2942 50.3813 23.8652 50.9204 23.8652H53.3891C53.9282 23.8652 54.3633 24.2942 54.3633 24.8257V36.2312C54.3633 36.7628 53.9282 37.1918 53.3891 37.1918H49.0003C48.4801 37.1918 48.0545 37.6115 48.0545 38.1244C48.0545 38.6373 48.4801 39.057 49.0003 39.057H53.3891C54.9687 39.057 56.2551 37.7887 56.2551 36.2312V34.1516H67Z" fill="#E8EDFF"/>
<path d="M44.8008 43.124V56.1242C44.8008 56.6371 45.2264 57.0568 45.7466 57.0568H58.9319C59.4521 57.0568 59.8778 56.6371 59.8778 56.1242V49.2324L65.3448 43.8421C65.7042 43.469 65.6948 42.8815 65.3259 42.5271C64.957 42.1821 64.38 42.1821 64.0112 42.5271L59.8778 46.6025V43.124C59.8778 42.6111 59.4521 42.1914 58.9319 42.1914H45.7466C45.2264 42.1914 44.8008 42.6111 44.8008 43.124ZM46.6925 44.0566H57.986V48.4677L55.1485 51.2655L52.8217 48.9713C52.4339 48.6262 51.8285 48.6635 51.488 49.0552C51.1759 49.4096 51.1759 49.9412 51.488 50.2862L54.4864 53.2425C54.8552 53.6062 55.4511 53.6062 55.82 53.2425L57.986 51.1069V55.201H46.6925V44.0659V44.0566Z" fill="#E8EDFF"/>
<path d="M69.2408 46.4355H84.2043C84.7245 46.4355 85.1501 46.0158 85.1501 45.5029C85.1501 44.99 84.7245 44.5703 84.2043 44.5703H69.2408C68.7206 44.5703 68.2949 44.99 68.2949 45.5029C68.2949 46.0158 68.7206 46.4355 69.2408 46.4355Z" fill="#E8EDFF"/>
<path d="M69.2408 50.5566H87.3161C87.8363 50.5566 88.262 50.1369 88.262 49.624C88.262 49.1111 87.8363 48.6914 87.3161 48.6914H69.2408C68.7206 48.6914 68.2949 49.1111 68.2949 49.624C68.2949 50.1369 68.7206 50.5566 69.2408 50.5566Z" fill="#E8EDFF"/>
<path d="M69.2408 54.6777H87.3161C87.8363 54.6777 88.262 54.258 88.262 53.7451C88.262 53.2322 87.8363 52.8125 87.3161 52.8125H69.2408C68.7206 52.8125 68.2949 53.2322 68.2949 53.7451C68.2949 54.258 68.7206 54.6777 69.2408 54.6777Z" fill="#E8EDFF"/>
<path d="M64.0112 63.6756L59.8778 67.751V64.2724C59.8778 63.7595 59.4521 63.3398 58.9319 63.3398H45.7466C45.2264 63.3398 44.8008 63.7595 44.8008 64.2724V77.2727C44.8008 77.7856 45.2264 78.2052 45.7466 78.2052H58.9319C59.4521 78.2052 59.8778 77.7856 59.8778 77.2727V70.3809L65.3448 64.9905C65.7042 64.6175 65.6948 64.03 65.3259 63.6756C64.957 63.3305 64.38 63.3305 64.0112 63.6756ZM57.986 76.3401H46.6925V65.205H57.986V69.6161L55.1485 72.4139L52.8217 70.1197C52.4717 69.7374 51.8758 69.7001 51.488 70.0358C51.1002 70.3715 51.0624 70.9684 51.4029 71.3507C51.4312 71.3787 51.4596 71.4067 51.488 71.4347L54.4864 74.391C54.8552 74.7547 55.4511 74.7547 55.82 74.391L57.986 72.2553V76.3494V76.3401Z" fill="#E8EDFF"/>
<path d="M69.2408 67.5761H84.2043C84.7245 67.5761 85.1501 67.1564 85.1501 66.6435C85.1501 66.1306 84.7245 65.7109 84.2043 65.7109H69.2408C68.7206 65.7109 68.2949 66.1306 68.2949 66.6435C68.2949 67.1564 68.7206 67.5761 69.2408 67.5761Z" fill="#E8EDFF"/>
<path d="M69.2408 71.705H87.3161C87.8363 71.705 88.262 71.2853 88.262 70.7724C88.262 70.2595 87.8363 69.8398 87.3161 69.8398H69.2408C68.7206 69.8398 68.2949 70.2595 68.2949 70.7724C68.2949 71.2853 68.7206 71.705 69.2408 71.705Z" fill="#E8EDFF"/>
<path d="M69.2408 75.83H87.3161C87.8363 75.83 88.262 75.4103 88.262 74.8974C88.262 74.3845 87.8363 73.9648 87.3161 73.9648H69.2408C68.7206 73.9648 68.2949 74.3845 68.2949 74.8974C68.2949 75.4103 68.7206 75.83 69.2408 75.83Z" fill="#E8EDFF"/>
<path d="M64.0112 84.8201L59.8778 88.8955V85.417C59.8778 84.904 59.4521 84.4844 58.9319 84.4844H45.7466C45.2264 84.4844 44.8008 84.904 44.8008 85.417V98.4265C44.8008 98.9394 45.2264 99.3591 45.7466 99.3591H58.9319C59.4521 99.3591 59.8778 98.9394 59.8778 98.4265V91.5347L65.3448 86.1444C65.7042 85.7713 65.6948 85.1838 65.3259 84.8294C64.957 84.4844 64.38 84.4844 64.0112 84.8294V84.8201ZM57.986 97.4939H46.6925V86.3495H57.986V90.7607L55.1485 93.5584L52.8217 91.2643C52.4622 90.8912 51.8663 90.8726 51.488 91.227C51.1097 91.5813 51.0907 92.1689 51.4502 92.5419C51.4596 92.5606 51.4785 92.5699 51.488 92.5792L54.4864 95.5355C54.8552 95.8992 55.4511 95.8992 55.82 95.5355L57.986 93.3999V97.4939Z" fill="#E8EDFF"/>
<path d="M69.2408 88.7245H84.2043C84.7245 88.7245 85.1501 88.3049 85.1501 87.792C85.1501 87.279 84.7245 86.8594 84.2043 86.8594H69.2408C68.7206 86.8594 68.2949 87.279 68.2949 87.792C68.2949 88.3049 68.7206 88.7245 69.2408 88.7245Z" fill="#E8EDFF"/>
<path d="M69.2408 92.8574H87.3161C87.8363 92.8574 88.262 92.4377 88.262 91.9248C88.262 91.4119 87.8363 90.9922 87.3161 90.9922H69.2408C68.7206 90.9922 68.2949 91.4119 68.2949 91.9248C68.2949 92.4377 68.7206 92.8574 69.2408 92.8574Z" fill="#E8EDFF"/>
<path d="M69.2408 96.9784H87.3161C87.8363 96.9784 88.262 96.5588 88.262 96.0459C88.262 95.5329 87.8363 95.1133 87.3161 95.1133H69.2408C68.7206 95.1133 68.2949 95.5329 68.2949 96.0459C68.2949 96.5588 68.7206 96.9784 69.2408 96.9784Z" fill="#E8EDFF"/>
</g>
<defs>
<clipPath id="clip0_2791_80436">
<rect width="58" height="83" fill="white" transform="translate(38 22)"/>
</clipPath>
</defs>
</svg>
