<svg width="134" height="134" viewBox="0 0 134 134" fill="none" xmlns="http://www.w3.org/2000/svg">
<rect width="134" height="134" rx="20" fill="#6A6AF4"/>
<path d="M41.4915 26.9019V21.9891C41.4915 21.4396 41.941 21 42.5028 21C43.0647 21 43.5141 21.4396 43.5141 21.9891V26.8909C43.5141 27.4404 43.0647 27.88 42.5028 27.88C41.941 27.88 41.4915 27.4404 41.4915 26.9019ZM52.442 31.9135C52.7004 31.9135 52.9589 31.8201 53.1555 31.6277L56.7008 28.1603C57.0997 27.7701 57.0997 27.1491 56.7008 26.759C56.3019 26.3688 55.667 26.3688 55.2681 26.759L51.7228 30.2265C51.3239 30.6166 51.3239 31.2376 51.7228 31.6277C51.9195 31.8146 52.1779 31.9135 52.4364 31.9135H52.442ZM31.8501 31.6167C32.0467 31.8091 32.3052 31.9025 32.5636 31.9025C32.8221 31.9025 33.0805 31.8091 33.2772 31.6167C33.6761 31.2266 33.6761 30.6056 33.2772 30.2155L29.7319 26.748C29.333 26.3578 28.6981 26.3578 28.2992 26.748C27.9003 27.1381 27.9003 27.7591 28.2992 28.1493L31.8445 31.6167H31.8501ZM31.5579 40.6399C31.5579 34.7325 36.4685 29.9297 42.5084 29.9297C48.5483 29.9297 53.4589 34.7325 53.4589 40.6399C53.4589 44.2173 52.279 45.6295 51.1385 46.9868C49.8855 48.487 48.5821 50.0312 48.5821 55.3835V58.0597C48.5821 61.3348 45.8571 64 42.5084 64C39.1598 64 36.4348 61.3348 36.4348 58.0597V55.3835C36.4348 50.0312 35.1425 48.4815 33.8784 46.9868C32.7322 45.6295 31.5579 44.2173 31.5579 40.6399ZM38.4462 55.3945V57.0815H46.5594V55.3945C46.5594 54.9384 46.5706 54.5153 46.5875 54.1031H38.4125C38.4406 54.5098 38.4462 54.9384 38.4462 55.3945ZM46.4189 59.0598H38.5923C39.0418 60.7633 40.6206 62.0382 42.5084 62.0382C44.3963 62.0382 45.9582 60.7633 46.4189 59.0598ZM33.575 40.6399C33.575 43.5084 34.3953 44.4975 35.4403 45.7394C36.5528 47.0748 37.7889 48.5585 38.2552 52.1304H46.756C47.2224 48.5695 48.4584 47.0858 49.5709 45.7394C50.616 44.4975 51.4363 43.5139 51.4363 40.6399C51.4363 35.8316 47.4303 31.9135 42.514 31.9135C37.5978 31.9135 33.5806 35.8316 33.5806 40.6399H33.575ZM39.7834 45.2064C39.9632 45.3987 40.2161 45.5196 40.4801 45.5251H40.5251C40.7779 45.5251 41.0195 45.4317 41.2049 45.2613L48.436 38.7935C48.8517 38.4198 48.8742 37.7989 48.4978 37.4032C48.1157 36.9966 47.4808 36.9746 47.0763 37.3427L40.6038 43.1512L37.4686 39.7661C37.0978 39.3595 36.4573 39.3265 36.0471 39.7002C35.6314 40.0629 35.5976 40.6893 35.9797 41.0905L39.7834 45.2009V45.2064Z" fill="#F5F5FE"/>
<path d="M90.4885 26.9019V21.9891C90.4885 21.4396 90.938 21 91.5 21C92.062 21 92.5115 21.4396 92.5115 21.9891V26.8909C92.5115 27.4404 92.062 27.88 91.5 27.88C90.938 27.88 90.4885 27.4404 90.4885 26.9019ZM101.441 31.9135C101.7 31.9135 101.958 31.8201 102.155 31.6277L105.701 28.1603C106.1 27.7701 106.1 27.1491 105.701 26.759C105.302 26.3688 104.667 26.3688 104.268 26.759L100.722 30.2265C100.323 30.6166 100.323 31.2376 100.722 31.6277C100.918 31.8146 101.177 31.9135 101.435 31.9135H101.441ZM80.8508 31.6167C81.0475 31.8091 81.306 31.9025 81.5645 31.9025C81.823 31.9025 82.0815 31.8091 82.2782 31.6167C82.6772 31.2266 82.6772 30.6056 82.2782 30.2155L78.7322 26.748C78.3333 26.3578 77.6982 26.3578 77.2992 26.748C76.9003 27.1381 76.9003 27.7591 77.2992 28.1493L80.8452 31.6167H80.8508ZM80.553 40.6399C80.553 34.7325 85.4645 29.9297 91.5056 29.9297C97.5467 29.9297 102.458 34.7325 102.458 40.6399C102.458 44.2173 101.278 45.6295 100.137 46.9868C98.8842 48.487 97.5804 50.0312 97.5804 55.3835V58.0597C97.5804 61.3348 94.8549 64 91.5056 64C88.1563 64 85.4308 61.3348 85.4308 58.0597V55.3835C85.4308 50.0312 84.1383 48.4815 82.8739 46.9868C81.7275 45.6295 80.553 44.2173 80.553 40.6399ZM87.4426 55.3945V57.0815H95.5574V55.3945C95.5574 54.9384 95.5686 54.5153 95.5855 54.1031H87.4089C87.437 54.5098 87.4426 54.9384 87.4426 55.3945ZM95.4169 59.0598H87.5888C88.0383 60.7633 89.6174 62.0382 91.5056 62.0382C93.3938 62.0382 94.9561 60.7633 95.4169 59.0598ZM82.5761 40.6399C82.5761 43.5084 83.3965 44.4975 84.4418 45.7394C85.5545 47.0748 86.7908 48.5585 87.2572 52.1304H95.7597C96.2261 48.5695 97.4624 47.0858 98.5751 45.7394C99.6203 44.4975 100.441 43.5139 100.441 40.6399C100.441 35.8316 96.434 31.9135 91.5169 31.9135C86.5997 31.9135 82.5817 35.8316 82.5817 40.6399H82.5761ZM88.7801 45.2064C88.9599 45.3987 89.2128 45.5196 89.4769 45.5251H89.5219C89.7748 45.5251 90.0164 45.4317 90.2019 45.2613L97.4343 38.7935C97.8502 38.4198 97.8726 37.7989 97.4961 37.4032C97.114 36.9966 96.479 36.9746 96.0744 37.3427L89.6006 43.1512L86.4648 39.7661C86.0939 39.3595 85.4533 39.3265 85.0431 39.7002C84.6272 40.0629 84.5935 40.6893 84.9756 41.0905L88.7801 45.2009V45.2064Z" fill="#F5F5FE"/>
<path d="M62 52H72" stroke="#E3E3FD" stroke-width="2" stroke-miterlimit="10" stroke-linecap="round"/>
<path d="M67 47V57" stroke="#E3E3FD" stroke-width="2" stroke-miterlimit="10" stroke-linecap="round"/>
<path d="M65.4915 73.9019V68.9891C65.4915 68.4396 65.941 68 66.5028 68C67.0647 68 67.5141 68.4396 67.5141 68.9891V73.8909C67.5141 74.4404 67.0647 74.88 66.5028 74.88C65.941 74.88 65.4915 74.4404 65.4915 73.9019ZM76.442 78.9135C76.7004 78.9135 76.9589 78.8201 77.1555 78.6277L80.7008 75.1603C81.0997 74.7701 81.0997 74.1491 80.7008 73.759C80.3019 73.3688 79.667 73.3688 79.2681 73.759L75.7228 77.2265C75.3239 77.6166 75.3239 78.2376 75.7228 78.6277C75.9195 78.8146 76.1779 78.9135 76.4364 78.9135H76.442ZM55.8501 78.6167C56.0467 78.8091 56.3052 78.9025 56.5636 78.9025C56.8221 78.9025 57.0805 78.8091 57.2772 78.6167C57.6761 78.2266 57.6761 77.6056 57.2772 77.2155L53.7319 73.748C53.333 73.3578 52.6981 73.3578 52.2992 73.748C51.9003 74.1381 51.9003 74.7591 52.2992 75.1493L55.8445 78.6167H55.8501ZM55.5579 87.6399C55.5579 81.7325 60.4685 76.9297 66.5084 76.9297C72.5483 76.9297 77.4589 81.7325 77.4589 87.6399C77.4589 91.2173 76.279 92.6295 75.1385 93.9868C73.8855 95.487 72.582 97.0312 72.582 102.384V105.06C72.582 108.335 69.8571 111 66.5084 111C63.1598 111 60.4348 108.335 60.4348 105.06V102.384C60.4348 97.0312 59.1425 95.4815 57.8784 93.9868C56.7322 92.6295 55.5579 91.2173 55.5579 87.6399ZM62.4406 102.395V104.082H70.5538V102.395C70.5538 101.938 70.565 101.515 70.5819 101.103H62.4069C62.435 101.51 62.4406 101.938 62.4406 102.395ZM70.4189 106.06H62.5923C63.0418 107.763 64.6206 109.038 66.5084 109.038C68.3962 109.038 69.9582 107.763 70.4189 106.06ZM57.575 87.6399C57.575 90.5084 58.3953 91.4975 59.4403 92.7394C60.5528 94.0748 61.7889 95.5585 62.2552 99.1304H70.756C71.2224 95.5695 72.4584 94.0858 73.5709 92.7394C74.616 91.4975 75.4363 90.5139 75.4363 87.6399C75.4363 82.8316 71.4303 78.9135 66.514 78.9135C61.5978 78.9135 57.5806 82.8316 57.5806 87.6399H57.575ZM63.7834 92.2064C63.9632 92.3987 64.2161 92.5196 64.4801 92.5251H64.5251C64.7779 92.5251 65.0195 92.4317 65.2049 92.2613L72.436 85.7935C72.8517 85.4198 72.8742 84.7989 72.4978 84.4032C72.1157 83.9966 71.4808 83.9746 71.0763 84.3427L64.6037 90.1512L61.4686 86.7661C61.0978 86.3595 60.4573 86.3265 60.0471 86.7002C59.6314 87.0629 59.5976 87.6893 59.9797 88.0905L63.7834 92.2009V92.2064Z" fill="#F5F5FE"/>
</svg>
