<svg width="134" height="134" viewBox="0 0 134 134" fill="none" xmlns="http://www.w3.org/2000/svg">
<rect width="134" height="134" rx="20" fill="#6A6AF4"/>
<g clip-path="url(#clip0_3481_57367)">
<path d="M69.8617 107.992C62.3211 107.992 54.7806 107.992 47.2318 107.992C45.1548 107.992 43.2613 107.403 41.6098 106.144C39.6079 104.619 38.4484 102.589 38.0981 100.12C37.9813 99.3327 37.9646 98.5289 37.9146 97.7251C37.8895 97.3274 37.8645 96.938 37.8562 96.5402C37.8562 96.2833 37.7227 96.2088 37.4892 96.1756C36.9637 96.0928 36.4215 96.0182 35.9127 95.8607C33.8857 95.2393 32.5094 93.9881 32.0924 91.842C31.5502 89.0412 33.3519 86.3234 36.1462 85.7102C36.58 85.6108 37.0304 85.5776 37.4725 85.5196C37.8562 85.4699 37.8895 85.445 37.8895 85.0639C37.8895 81.0036 37.8895 76.9351 37.8895 72.8749C37.8895 72.4606 37.8562 72.4357 37.4308 72.3943C36.3631 72.2783 35.3288 72.0131 34.4112 71.4331C32.5928 70.2896 31.8505 68.5992 32.0507 66.4945C32.2592 64.3153 33.5437 62.9563 35.5456 62.2272C36.1629 62.0034 36.8302 61.8709 37.4725 61.7217C37.9062 61.6223 37.9146 61.6388 37.9146 61.1831C37.9146 58.1089 37.9146 55.0348 37.9146 51.9606C37.9146 51.0574 37.9146 50.1625 37.9146 49.2593C37.9146 48.7621 37.9062 48.7621 37.4224 48.671C36.263 48.4555 35.1369 48.1407 34.1443 47.4612C32.4927 46.326 31.8922 44.7268 32.0256 42.8044C32.1007 41.7189 32.4844 40.7411 33.2351 39.9373C33.8023 39.3242 34.4946 38.8684 35.2787 38.5784C36.0044 38.3133 36.7551 38.1144 37.5058 37.9155C37.9479 37.7995 37.9646 37.8078 37.9646 37.3521C37.9646 36.5814 37.9396 35.8108 37.9813 35.0402C38.0814 33.1013 38.6319 31.3114 39.8497 29.7536C40.9258 28.3864 42.1269 27.6821 42.8359 27.2844C43.3864 26.9778 44.4541 26.3895 45.9389 26.1574C46.6896 26.0414 47.2651 26.058 47.4487 26.0663C56.6407 26.2983 65.8328 26 75.0333 26C78.937 26 82.8324 26.0331 86.7361 26.058C88.7964 26.0663 90.8567 26.0414 92.917 26.1243C95.069 26.2154 97.0459 26.87 98.6975 28.2953C100.599 29.9359 101.642 32.0406 101.992 34.5016C102.017 34.6673 102.009 34.8331 102.001 35.0071C101.984 43.5087 101.959 52.0103 101.942 60.5119C101.942 63.7933 101.942 67.0746 101.942 70.3559C101.926 77.5649 101.909 84.7656 101.892 91.9745C101.892 94.3195 101.859 96.6562 101.901 99.0012C101.917 100.045 101.734 101.023 101.367 101.984C100.432 104.429 98.8476 106.268 96.3786 107.279C95.2358 107.743 94.0347 107.992 92.8002 107.992C88.6379 108.008 84.4839 108 80.3216 108C76.835 108 73.3567 108 69.87 108L69.8617 107.992ZM40.7756 61.6388C40.834 61.6803 40.8841 61.6886 41.2261 61.7549C41.5681 61.8211 41.7349 61.8543 41.7682 61.8626C42.2604 61.9454 42.8192 62.1692 43.0194 62.2437C44.0037 62.6 44.8629 63.1469 45.4968 63.9838C46.3643 65.1273 46.6145 66.4365 46.4143 67.8286C46.1724 69.5439 45.2716 70.8365 43.7535 71.69C42.911 72.1623 41.9935 72.3446 41.0342 72.4026C40.6589 72.4274 40.6171 72.4606 40.6171 72.8169C40.6171 76.902 40.6171 80.9788 40.6171 85.0639C40.6171 85.3207 40.6755 85.4616 40.9675 85.4947C41.7933 85.5942 42.5857 85.8013 43.3531 86.1245C44.3707 86.5554 45.1882 87.2183 45.7721 88.1629C46.1975 88.8506 46.3976 89.613 46.456 90.4167C46.5395 91.5768 46.3393 92.6871 45.6886 93.6815C45.013 94.7173 44.0287 95.347 42.8776 95.7282C42.227 95.9436 41.5514 96.0845 40.8924 96.2502C40.6839 96.2999 40.517 96.3579 40.517 96.6231C40.517 97.7417 40.4587 98.8604 40.6839 99.9624C41.2344 102.647 42.8026 104.412 45.4801 105.158C46.3059 105.39 47.1484 105.415 47.9908 105.415C62.8133 105.415 77.6441 105.415 92.4665 105.415C92.9253 105.415 93.3841 105.373 93.8345 105.29C95.8948 104.918 97.5047 103.89 98.5306 102.034C99.1813 100.849 99.4065 99.573 99.4065 98.2306C99.4065 77.5483 99.4065 56.8743 99.3981 36.192C99.3981 35.5954 99.3648 34.9822 99.2814 34.3939C99.0395 32.7118 98.2804 31.3032 96.9291 30.2342C95.5695 29.1653 93.9846 28.7427 92.2747 28.7427C77.4439 28.7427 62.6048 28.7427 47.774 28.7427C47.3652 28.7427 46.9565 28.7427 46.5561 28.8007C45.2799 28.9499 44.1789 29.3559 43.253 30.0188C42.8776 30.2922 41.9017 31.0629 41.2678 32.3804C40.9425 33.0598 40.8007 33.6896 40.7256 34.021C40.6171 34.5099 40.5838 34.9242 40.5087 35.7528C40.4837 35.9931 40.4837 36.2997 40.4837 36.9212C40.4837 37.4681 40.4837 37.6587 40.6338 37.8078C40.7756 37.9487 40.9341 37.9321 41.3845 38.0067C41.7099 38.0564 42.0268 38.1558 42.3521 38.2138C42.9777 38.3381 44.4458 38.8353 45.4384 40.1196C46.3226 41.2631 46.5812 42.5724 46.431 43.981C46.2642 45.5388 45.5302 46.7403 44.1789 47.5606C43.2113 48.149 42.1519 48.4638 41.0509 48.6627C40.8173 48.7041 40.7006 48.729 40.6422 48.8036C40.517 48.9527 40.5754 49.1681 40.5838 49.2179C40.6589 49.6156 40.6338 54.1233 40.5588 60.8434C40.517 61.4068 40.7172 61.5726 40.784 61.6223L40.7756 61.6388ZM39.2242 93.4992C39.9498 93.4992 40.6755 93.5323 41.4012 93.4992C42.7859 93.4246 43.8702 92.2894 43.8869 90.9388C43.9036 89.5053 42.911 88.3783 41.4846 88.254C40.8257 88.196 40.15 88.1878 39.4911 88.196C38.6486 88.196 37.7978 88.1878 36.9553 88.2706C35.896 88.3783 35.1453 88.9667 34.7699 89.961C34.161 91.6017 35.2704 93.3418 37.0471 93.4992C37.7644 93.5655 38.4985 93.5075 39.2242 93.5075V93.4992ZM39.2325 69.8007C39.9582 69.7759 40.6839 69.7593 41.4012 69.7179C42.7108 69.635 43.7201 68.6738 43.8702 67.3895C44.0204 66.1134 43.2446 64.945 41.9935 64.5722C41.7265 64.4976 41.4513 64.423 41.176 64.423C39.783 64.423 38.39 64.3899 37.0054 64.4727C35.6291 64.5556 34.5781 65.7819 34.6031 67.116C34.6198 68.5081 35.6708 69.6101 37.0888 69.7096C37.8061 69.7593 38.5151 69.7676 39.2408 69.7924L39.2325 69.8007ZM39.4077 40.6665C39.2492 40.6665 39.2659 40.6665 39.1741 40.6665C37.7394 40.6665 37.5309 40.6334 37.1221 40.6831C36.7718 40.7245 36.4548 40.766 36.1045 40.9317C35.3371 41.2963 34.7782 42.0338 34.6281 42.9535C34.4363 44.1219 35.1453 45.3234 36.2964 45.7625C37.0638 46.0525 37.8562 46.0028 38.6486 45.9697C38.8154 45.9697 38.9823 45.9697 39.1491 45.9697C39.9832 45.9531 40.8257 46.0194 41.6431 45.9117C42.9861 45.7294 43.8786 44.6273 43.8702 43.3098C43.8702 42.6055 43.6117 41.9675 43.1696 41.5034C42.6107 40.9151 41.9017 40.7825 41.6264 40.7245C41.3428 40.6665 40.6922 40.6665 39.391 40.6665H39.4077Z" fill="#F5F5FE"/>
<path d="M67.5927 57.4129C67.5927 57.5289 67.5927 57.8106 67.4759 58.1918C67.2841 58.8132 66.9504 59.327 66.5084 59.7661C65.8661 60.4125 65.1738 61.0091 64.4981 61.614C64.0977 61.9703 63.7474 62.3431 63.7974 62.9149C63.8141 63.1469 63.8642 63.3955 63.9893 63.5944C64.9902 65.2184 65.8828 66.9171 67.0923 68.4086C69.2109 71.0436 71.6883 73.2477 74.7495 74.7641C74.9664 74.8718 75.1833 74.963 75.4085 75.0293C76.3761 75.311 77.1518 75.0541 77.7274 74.2255C78.2445 73.4963 78.8618 72.8749 79.5291 72.3031C80.6468 71.3502 81.873 71.2094 83.1909 71.8474C85.3763 72.8997 87.5534 73.9521 89.7388 75.0127C89.9724 75.1287 90.1976 75.253 90.4228 75.369C91.5822 75.9656 92.2579 77.3411 92.0243 78.6089C91.7157 80.291 91.2402 81.9151 90.3394 83.3983C89.0465 85.5279 87.0863 86.6631 84.6673 87.0277C81.9898 87.4337 79.3539 87.1354 76.7681 86.3648C74.3408 85.6439 72.1054 84.5087 69.9616 83.1746C66.7252 81.1528 63.7724 78.7995 61.1366 76.0485C58.8928 73.7118 56.9743 71.1348 55.4061 68.3092C54.3968 66.4945 53.4709 64.6301 52.812 62.6497C52.2865 61.0754 51.9695 59.4678 51.8694 57.8023C51.7777 56.3274 51.8194 54.8607 52.1947 53.4189C52.8537 50.8999 54.4219 49.1433 56.7741 48.0495C57.8668 47.544 59.0096 47.2292 60.1857 47.0054C61.7288 46.7071 63.1135 47.5275 63.7057 48.7124C64.7984 50.8999 65.8577 53.1041 66.9254 55.2999C67.1423 55.7556 67.2424 55.9711 67.3925 56.4185C67.5594 56.8991 67.5927 57.156 67.6011 57.3963L67.5927 57.4129ZM64.4397 56.2859C64.2646 55.9131 64.1144 55.5982 63.9643 55.2916C63.2136 53.7421 62.4545 52.2009 61.7121 50.6431C61.3952 49.9885 60.928 49.657 60.2107 49.715C57.8418 49.9222 56.1402 51.1319 55.0641 53.2035C54.5219 54.2393 54.4469 55.391 54.4219 56.5262C54.3718 58.7469 54.8556 60.8682 55.6897 62.9066C57.7333 67.8866 60.7195 72.2203 64.6816 75.8993C66.7753 77.8466 69.0525 79.5452 71.4881 81.0368C74.1823 82.694 77.0351 83.9121 80.1964 84.3761C81.5143 84.5667 82.8406 84.6992 84.1752 84.4672C85.8184 84.1772 87.1697 83.4315 88.1123 82.0311C88.7212 81.1445 89.0882 80.1584 89.3218 79.1144C89.5136 78.2775 89.23 77.7306 88.4543 77.3494C87.3782 76.8191 86.2939 76.2971 85.2178 75.7585C84.367 75.3276 83.5246 74.8801 82.6738 74.4492C81.9397 74.0847 81.3225 74.2007 80.7553 74.7973C80.6969 74.8636 80.6385 74.9298 80.5801 74.9961C79.7793 75.8496 78.9786 76.7031 78.1695 77.54C77.9526 77.7637 77.7024 77.9129 77.4354 77.9874C77.2102 78.0454 77.0017 78.004 76.5846 77.9377C76.3844 77.9046 76.1592 77.8714 75.8589 77.7969C74.1657 77.366 72.7059 76.6036 72.7059 76.6036C71.7884 76.1231 71.1628 75.6756 70.5622 75.2613C69.3944 74.4492 68.3101 73.546 67.2841 72.5434C65.7743 71.0685 64.4397 69.4527 63.2386 67.7209C62.1709 66.1796 61.3535 64.539 61.0448 62.6746C60.8947 61.7797 61.1282 61.0422 61.8539 60.4539C62.4128 59.9982 62.9383 59.4927 63.4805 59.0121C63.639 58.8712 63.8058 58.7304 63.9893 58.5729C64.1061 58.4984 64.3813 58.2912 64.5482 57.9017C64.6983 57.5454 64.6816 57.2306 64.6566 57.0897C64.5815 56.8163 64.5148 56.5428 64.4397 56.2694V56.2859Z" fill="#F5F5FE"/>
</g>
<defs>
<clipPath id="clip0_3481_57367">
<rect width="70" height="82" fill="white" transform="translate(32 26)"/>
</clipPath>
</defs>
</svg>
