<svg width="46" height="35" viewBox="0 0 46 35" fill="none" xmlns="http://www.w3.org/2000/svg">
<path fill-rule="evenodd" clip-rule="evenodd" d="M41.9371 12.8713C41.6076 12.6514 41.5187 12.2073 41.7382 11.8773L43.9886 8.48523C44.2081 8.15519 44.6587 8.06478 44.9882 8.28464C45.3178 8.50449 45.4081 8.95568 45.1885 9.28572L42.9368 12.6707C42.7173 13.0007 42.2737 13.0897 41.9442 12.8699L41.9371 12.8713Z" fill="#000091"/>
<path fill-rule="evenodd" clip-rule="evenodd" d="M44.9893 21.0223C44.8959 20.8137 44.7667 20.5909 44.6159 20.3464C44.3072 19.8575 43.862 19.2607 43.2948 18.6064C42.1676 17.2906 40.5377 15.6801 38.5058 14.1199C34.4635 11.0066 28.7483 8.03711 22.1859 8.03711C18.6462 8.03711 15.3004 8.79925 12.2992 9.96403C12.0335 10.0647 11.7679 10.1725 11.4878 10.2948C11.3658 10.3451 11.2509 10.4026 11.136 10.4529C7.84045 12.0348 5.19825 14.1558 3.32429 16.1043C2.28321 17.19 1.47188 18.2325 0.911847 19.1097C0.631831 19.5483 0.416434 19.9509 0.258476 20.3104C0.114878 20.6484 0 21.0151 0 21.3386C0 21.5903 0.0933387 21.8347 0.172318 22.0145C0.265656 22.2158 0.394895 22.4459 0.545672 22.6903C0.854408 23.1793 1.29956 23.776 1.86677 24.4303C2.99402 25.7461 4.62386 27.3566 6.64859 28.9169C10.6981 32.0301 16.4133 34.9996 22.9757 34.9996C26.5154 34.9996 29.8612 34.2375 32.8624 33.0727L33.6737 32.742L34.0327 32.5982V32.5838C37.3211 31.002 39.9633 28.8809 41.8373 26.9324C42.8784 25.8467 43.6897 24.8042 44.2497 23.927C44.5297 23.4884 44.7523 23.0858 44.9031 22.7263C45.0467 22.3884 45.1616 22.0217 45.1616 21.6981C45.1616 21.4465 45.0682 21.202 44.9893 21.0223ZM43.7256 21.7341C43.7256 21.7341 43.7184 21.7916 43.7041 21.8347C43.6825 21.921 43.6394 22.0289 43.582 22.1655C43.4671 22.4315 43.2876 22.7694 43.0363 23.1649C42.5409 23.9486 41.787 24.9192 40.7962 25.9474C38.9725 27.8528 36.359 29.9307 33.1065 31.4334C30.0479 32.7132 26.6087 33.576 22.9757 33.576C16.844 33.576 11.4304 30.7935 7.52454 27.7952C5.57878 26.2997 4.02074 24.7611 2.95812 23.5172C2.42681 22.8917 2.02473 22.3524 1.75908 21.9426C1.62984 21.7341 1.5365 21.5687 1.47906 21.4465C1.45034 21.3889 1.44316 21.353 1.43598 21.3314C1.43598 21.3314 1.43598 21.3314 1.43598 21.3242C1.43598 21.3027 1.44316 21.2667 1.45752 21.2236C1.47906 21.1373 1.52214 21.0294 1.57958 20.8928C1.69446 20.6268 1.87395 20.2889 2.12525 19.8934C2.62066 19.1097 3.37455 18.1391 4.36538 17.1109C6.18907 15.2055 8.80256 13.1276 12.0551 11.6249C15.1137 10.3451 18.5529 9.4823 22.1859 9.4823C28.3175 9.4823 33.7312 12.2648 37.637 15.2631C39.5828 16.7586 41.1408 18.2972 42.2035 19.5411C42.7348 20.1666 43.1368 20.7059 43.4025 21.1157C43.5317 21.3242 43.6251 21.4896 43.6825 21.6118C43.7112 21.6694 43.7184 21.7053 43.7256 21.7269C43.7256 21.7269 43.7256 21.7269 43.7256 21.7341Z" fill="#000091"/>
<path fill-rule="evenodd" clip-rule="evenodd" d="M22.5808 14.4873C18.7037 14.4873 15.5589 17.6365 15.5589 21.5191C15.5589 25.4017 18.7037 28.5509 22.5808 28.5509C26.458 28.5509 29.6028 25.4017 29.6028 21.5191C29.6028 17.6365 26.458 14.4873 22.5808 14.4873ZM22.5808 27.2208C19.436 27.2208 16.8872 24.6683 16.8872 21.5191C16.8872 18.3699 19.436 15.8175 22.5808 15.8175C25.7256 15.8175 28.2745 18.3699 28.2745 21.5191C28.2745 24.6683 25.7256 27.2208 22.5808 27.2208Z" fill="#E1000F"/>
<path fill-rule="evenodd" clip-rule="evenodd" d="M4.80017 12.0312C4.47887 12.263 4.03239 12.1904 3.80091 11.8686L1.41964 8.56744C1.18816 8.24569 1.26186 7.79148 1.58316 7.55967C1.90446 7.32787 2.35802 7.40167 2.58951 7.72342L4.96369 11.0234C5.19517 11.3452 5.12263 11.7923 4.80133 12.0241L4.80017 12.0312Z" fill="#000091"/>
<path fill-rule="evenodd" clip-rule="evenodd" d="M13.0476 7.12733C12.6684 7.24189 12.2698 7.02778 12.1554 6.64813L10.9758 2.75087C10.8614 2.37122 11.0786 1.96571 11.4577 1.85114C11.8368 1.73658 12.2417 1.95409 12.3561 2.33374L13.5295 6.2276C13.6439 6.60726 13.4301 7.00643 13.051 7.12099L13.0476 7.12733Z" fill="#000091"/>
<path fill-rule="evenodd" clip-rule="evenodd" d="M33.2459 7.58422C32.8846 7.42181 32.7238 6.99843 32.886 6.63665L34.5469 2.91942C34.7091 2.55765 35.1386 2.39407 35.4999 2.55649C35.8611 2.7189 36.0245 3.14901 35.8623 3.51078L34.1988 7.22129C34.0367 7.58306 33.6139 7.74408 33.2526 7.58167L33.2459 7.58422Z" fill="#000091"/>
<path fill-rule="evenodd" clip-rule="evenodd" d="M23.1127 5.80546C22.7169 5.81846 22.3868 5.50884 22.3738 5.11249L22.2354 1.04248C22.2224 0.646136 22.5365 0.310261 22.9323 0.29726C23.3281 0.284259 23.6635 0.598799 23.6765 0.995146L23.8096 5.06024C23.8226 5.45659 23.5134 5.78721 23.1176 5.80021L23.1127 5.80546Z" fill="#000091"/>
</svg>
