<svg width="436" height="180" viewBox="0 0 436 180" fill="none" xmlns="http://www.w3.org/2000/svg">
<path d="M99.2677 68.3902C101.936 85.6634 118.784 98.2679 138.844 98.7961C151.647 99.1334 164.675 101.812 176.111 93.3586C182.269 88.8036 182.35 79.2978 189.224 75.2916C199.206 69.4744 210.232 72.9127 220.767 72.0748C234.588 70.9772 246.889 66.9567 254.899 54.444C266.709 35.9981 264.995 23.7675 247.419 2.01123L206.231 2.43988C202.897 5.64812 199.681 9.03545 195.914 11.5573C176.074 24.8397 153.038 25.4638 130.591 28.0192C110.161 30.3451 96.1275 48.0701 99.2674 68.3872L99.2677 68.3902ZM385.793 41.9135C379.16 50.9108 370.119 56.8789 358.515 53.6248C346.897 50.366 342.131 41.31 342.591 29.3189C343.013 18.4155 349.501 10.0446 354.133 0.902752L342.529 1.02368C340.805 6.03517 339.279 11.1395 337.078 15.9204C329.509 32.3715 333.75 50.6998 347.355 58.9118C361.827 67.6446 380.418 62.5028 391.216 48.2554C402.611 33.2234 415.424 19.7363 436.106 21.692L435.974 8.16093C414.402 11.5385 398.76 24.3143 385.793 41.9105L385.793 41.9135ZM419.461 80.9486C420.369 79.5476 421.007 77.9653 421.773 76.4666C420.563 77.4508 419.327 78.4038 418.147 79.4221C415.299 81.8797 412.493 84.3887 409.637 86.8347C380.417 111.847 348.428 110.375 321.096 83.3568C298.383 60.9056 292.956 30.912 285.749 1.61283L264.986 1.82957C274.67 31.6139 295.176 54.6958 311.758 80.1787C339.789 123.26 391.897 123.511 419.464 80.9453L419.461 80.9486ZM17.8606 66.5097C26.4913 71.7221 37.3977 68.7477 45.5375 61.3152C56.1749 51.602 58.8588 37.1065 65.6027 25.0392C70.1765 16.8553 76.1684 10.0545 82.7667 3.72653L28.9092 4.28587C37.0339 20.0242 30.3572 33.2035 21.5 46.6905C17.8313 52.2764 6.76561 59.8062 17.8633 66.5064L17.8606 66.5097ZM409.379 50.2214C388.801 74.4896 367.779 87.4191 339.212 67.8566C323.781 57.2887 318.317 33.3426 325.84 9.65374C326.722 6.88058 327.344 4.01992 328.018 1.17616L302.259 1.4432C304.448 13.0097 306.433 24.6213 308.952 36.1104C315.573 66.3215 337.467 89.2864 366.225 91.4172C389.86 93.1694 405.027 76.9193 417.03 57.5587C420.378 52.1593 423.718 44.3693 432.03 47.4651C434.626 48.4317 435.884 50.2502 436.403 52.4165L436.244 35.974C423.996 33.3529 416.381 41.9588 409.376 50.2186L409.379 50.2214ZM407.577 111.826C384.752 134.749 334.13 130.349 315.649 103.748C305.382 88.9705 294.505 74.6126 283.347 60.5293C280.059 56.379 273.492 52.5549 269.525 57.513C265.415 62.6484 272.762 64.7068 275.814 67.7078C281.374 73.1766 287.675 78.1445 292.105 84.4716C309.204 108.905 327.813 130.886 358.741 136.656C364.202 137.675 369.893 140.056 368.111 147.202C366.733 152.736 361.265 153.108 356.541 152.161C330.693 146.978 313.158 129.536 297.216 109.658C288.122 98.3189 281.096 84.4922 266.53 79.1793C254.516 74.797 242.932 81.3272 231.063 82.0208C221.247 82.5949 210.37 80.7655 202.129 87.434C195.987 92.4031 192.581 101.014 186.334 105.754C169.564 118.478 150.473 114.39 132.386 109.861C112.473 104.876 93.0571 100.45 72.4118 105.556C53.1329 110.323 33.7583 110.252 15.266 101.311C12.0503 99.7568 9.05001 97.3103 9.86095 93.1627C10.702 88.8751 14.3928 88.281 18.0265 88.2599C32.9566 88.1781 47.553 92.6271 62.7018 90.8954C76.9258 89.2681 87.3086 79.3875 84.6248 68.2762C79.9592 48.9676 89.5608 27.5057 107.509 20.4252C125.319 13.3963 144.888 17.0151 163.265 12.6646C171.929 10.6142 180.847 9.20454 187.524 2.64071L159.178 2.93601C149.687 6.63405 139.574 7.60647 129.629 7.91983C98.3116 8.90592 78.244 23.6863 69.0377 54.8815C63.1452 74.8467 50.1879 81.746 23.9362 80.7821C14.6011 80.438 3.56218 77.3978 1.09037 90.3447C-1.19398 102.313 9.63125 105.393 17.9303 108.842C29.6598 113.71 39.3852 121.185 48.6718 129.908C58.0905 138.757 64.7856 129.254 71.5467 124.225C93.9652 107.552 118.466 109.752 141.093 120.29C167.228 132.464 186.498 126.897 206.31 107.365C226.373 87.5881 258.088 84.8114 277.614 99.4079C292.863 110.804 301.693 128.732 315.179 142.067C331.24 157.947 345.971 176.684 370.051 179.369C387.259 181.29 394.113 167.774 398.667 153.761C406.414 129.94 421.636 110.133 431.559 87.5195C433.325 83.491 434.977 79.4112 436.625 75.3286L436.463 58.5596C436.346 59.4248 436.199 60.2775 436.052 61.0935C432.371 81.3836 421.809 97.5378 407.575 111.832L407.577 111.826Z" fill="#ECECFE"/>
</svg>
