<svg width="65" height="55" viewBox="0 0 65 55" fill="none" xmlns="http://www.w3.org/2000/svg">
<path d="M64.0628 44.5437L38.4082 3.30516C36.3946 0.0340179 32.1181 -0.980668 28.8563 1.03864C27.9448 1.60348 27.1752 2.37239 26.6091 3.28504L0.912971 44.5911C-0.985938 47.9312 0.174905 52.1811 3.50409 54.0854C4.52018 54.6661 5.66526 54.9808 6.8347 54.9981H58.1669C62.0005 54.9363 65.0603 51.7701 64.9986 47.9255C64.98 46.7354 64.6575 45.5713 64.0628 44.5422V44.5437Z" fill="#E3E3FD"/>
<path d="M30.4083 33.4398L29.7977 24.2961C29.6788 22.4565 29.0525 19.4828 30.4541 17.9881C31.5204 16.8383 34.0456 16.64 34.8109 18.2339C35.4615 20.1066 35.6063 22.1187 35.2279 24.0662L34.411 33.4786C34.3766 34.3639 34.1831 35.2363 33.8406 36.0541C33.4322 36.8547 32.4548 37.1723 31.6565 36.7627C31.3627 36.6118 31.122 36.3761 30.9658 36.0843C30.6433 35.2378 30.4556 34.3452 30.4083 33.4398ZM32.5193 46.0026C30.9486 45.994 29.6831 44.7106 29.6917 43.1354C29.7003 41.6996 30.7723 40.4937 32.1939 40.3213C33.7532 40.1315 35.1691 41.2454 35.3583 42.8091C35.5475 44.3728 34.4368 45.7928 32.8776 45.9825C32.7586 45.9969 32.6397 46.0041 32.5207 46.0026H32.5193Z" fill="#000091"/>
</svg>
