<svg width="32" height="39" viewBox="0 0 32 39" fill="none" xmlns="http://www.w3.org/2000/svg">
<g clip-path="url(#clip0_29177_136803)">
<path d="M27.3754 15.6848C26.8653 10.1237 22.3777 5.66127 16.9364 5.30497C15.9323 5.23984 14.9312 5.3089 13.9592 5.51138C13.6479 5.57652 13.446 5.88887 13.5095 6.20828C13.5722 6.52848 13.8789 6.7341 14.1878 6.66975C15.0612 6.48767 15.9629 6.42567 16.863 6.48453C21.7445 6.80395 25.771 10.8072 26.2291 15.7954C26.5357 19.1395 25.3136 22.3266 22.8756 24.5397C21.7361 25.5741 21.0386 26.9875 20.9201 28.4724H18.1623V23.284C18.1623 22.9575 17.9046 22.6931 17.5865 22.6931C17.2683 22.6931 17.0106 22.9575 17.0106 23.284V28.4724H15.3954V19.2721H17.0106V21.26C17.0106 21.5865 17.2683 21.851 17.5865 21.851C17.9046 21.851 18.1623 21.5865 18.1623 21.26V19.2721H19.0403C20.14 19.2721 21.0348 18.3555 21.0348 17.2293C21.0348 16.6854 20.8298 16.1721 20.4497 15.7758C19.6941 15.013 18.4017 15.002 17.6278 15.7829C17.2545 16.1721 17.0496 16.6854 17.0496 17.2293V18.0902H15.3595V17.2293C15.3595 16.6854 15.1545 16.1721 14.7744 15.7758C14.0142 15.0083 12.7195 15.0075 11.9524 15.7821C11.5792 16.1714 11.3735 16.6846 11.3735 17.2293C11.3735 18.3555 12.2691 19.2721 13.3688 19.2721H14.2437V28.4724H11.4882C11.3689 26.9899 10.6669 25.5733 9.52203 24.5295C7.36922 22.5683 6.13412 19.7508 6.13412 16.7992C6.13412 12.7049 8.49342 8.99119 12.1436 7.33761C12.4342 7.20577 12.5658 6.85653 12.4381 6.5583C12.3104 6.26008 11.9716 6.12509 11.6787 6.25615C7.61165 8.09887 4.98315 12.2371 4.98315 16.7992C4.98315 20.0891 6.35896 23.2283 8.75803 25.4132C9.77363 26.3377 10.3556 27.6169 10.3556 28.9228V29.0625C10.3556 29.389 10.6133 29.6535 10.9315 29.6535H11.1701V31.0245H10.5315C10.2134 31.0245 9.95565 31.289 9.95565 31.6155C9.95565 31.942 10.2134 32.2064 10.5315 32.2064H11.1701V33.4582H10.5315C10.2134 33.4582 9.95565 33.7227 9.95565 34.0492C9.95565 34.3756 10.2134 34.6401 10.5315 34.6401H11.1701V34.7186C11.1701 35.8652 12.0733 36.7975 13.1875 36.8093C13.6349 38.1027 14.8325 39.0005 16.2038 39.0005C17.575 39.0005 18.7726 38.1019 19.22 36.8093C20.3343 36.7968 21.2374 35.8644 21.2374 34.7186V34.6401H21.876C22.1942 34.6401 22.4519 34.3756 22.4519 34.0492C22.4519 33.7227 22.1942 33.4582 21.876 33.4582H21.2374V32.2064H21.876C22.1942 32.2064 22.4519 31.942 22.4519 31.6155C22.4519 31.289 22.1942 31.0245 21.876 31.0245H21.2374V29.6535H21.4776C21.7957 29.6535 22.0534 29.389 22.0534 29.0625V28.9221C22.0534 27.6138 22.6308 26.3393 23.6388 25.425C26.3545 22.9583 27.7165 19.4087 27.3747 15.6848H27.3754ZM18.2021 17.2293C18.2021 16.9318 18.3367 16.7286 18.443 16.6179C18.7703 16.2883 19.3278 16.2993 19.6368 16.6108C19.75 16.7286 19.8846 16.9318 19.8846 17.2293C19.8846 17.7041 19.5068 18.0902 19.0418 18.0902H18.2029V17.2293H18.2021ZM14.2085 18.0902H13.3703C12.9053 18.0902 12.5268 17.7041 12.5268 17.2293C12.5268 16.9318 12.6614 16.7294 12.7684 16.6179C12.9306 16.4547 13.1439 16.3644 13.3703 16.3644C13.5967 16.3644 13.8055 16.4547 13.9615 16.6116C14.0747 16.7294 14.2093 16.9326 14.2093 17.2301V18.091L14.2085 18.0902ZM16.2045 37.8194C15.4727 37.8194 14.8165 37.4222 14.4517 36.8125H17.9566C17.5918 37.423 16.9356 37.8194 16.2045 37.8194ZM19.1986 35.6305H13.2105C12.721 35.6305 12.3226 35.2217 12.3226 34.7194V34.6409H20.0872C20.0872 35.2735 19.6643 35.6313 19.1986 35.6313V35.6305ZM20.0865 33.4582H12.3218V32.2064H20.0865V33.4582ZM20.0865 31.0253H12.3218V29.6543H20.0865V31.0253Z" fill="#000091"/>
<path d="M2.27974 9.30275L4.2949 10.4964C4.56792 10.6581 4.92124 10.5639 5.08184 10.2798C5.24091 9.9973 5.14684 9.63551 4.87076 9.47227L2.85561 8.27858C2.5803 8.11534 2.22774 8.21187 2.06867 8.49519C1.9096 8.77772 2.00366 9.13951 2.27974 9.30275Z" fill="#000091"/>
<path d="M3.47891 16.841C3.47891 16.5145 3.22118 16.25 2.90304 16.25H0.575867C0.257725 16.25 0 16.5145 0 16.841C0 17.1674 0.257725 17.4319 0.575867 17.4319H2.90304C3.22118 17.4319 3.47891 17.1674 3.47891 16.841Z" fill="#000091"/>
<path d="M4.49993 23.1257L2.48478 24.3194C2.20946 24.4826 2.11463 24.8437 2.2737 25.127C2.43354 25.4111 2.78686 25.5052 3.06064 25.3436L5.0758 24.1499C5.35111 23.9866 5.44594 23.6256 5.28687 23.3423C5.12704 23.0598 4.77372 22.9633 4.49993 23.1257Z" fill="#000091"/>
<path d="M8.87817 5.20894C9.038 5.49304 9.39132 5.58722 9.66511 5.42555C9.92589 5.27094 10.0169 4.94054 9.89148 4.66586C9.87618 4.4312 8.77798 2.55709 8.65715 2.34284C8.49731 2.05953 8.14476 1.963 7.87021 2.12624C7.60942 2.28084 7.51842 2.61125 7.64384 2.88593C7.65913 3.12058 8.75733 4.99469 8.87817 5.20894Z" fill="#000091"/>
<path d="M16.0004 3.57164C16.3186 3.57164 16.5763 3.30716 16.5763 2.98068V0.590957C16.5763 0.264479 16.3186 0 16.0004 0C15.6823 0 15.4246 0.264479 15.4246 0.590957V2.98068C15.4246 3.30716 15.6823 3.57164 16.0004 3.57164Z" fill="#000091"/>
<path d="M22.3364 5.42635C22.6094 5.58802 22.9627 5.49385 23.1233 5.20975C23.2457 4.99236 24.3431 3.12139 24.3569 2.88281C24.4831 2.60812 24.3921 2.27694 24.1305 2.12233C23.8552 1.95909 23.5027 2.05562 23.3436 2.33894C23.2212 2.55633 22.1238 4.4273 22.11 4.66588C21.9838 4.94056 22.0748 5.27175 22.3364 5.42635Z" fill="#000091"/>
<path d="M27.7059 10.5002L29.7211 9.30648C29.9964 9.14325 30.0912 8.78224 29.9321 8.49892C29.7723 8.21639 29.419 8.11908 29.1452 8.28232L27.13 9.476C26.8547 9.63924 26.7599 10.0003 26.919 10.2836C27.0788 10.5677 27.4321 10.6618 27.7059 10.5002Z" fill="#000091"/>
<path d="M31.4242 16.25H29.097C28.7788 16.25 28.5211 16.5145 28.5211 16.841C28.5211 17.1674 28.7788 17.4319 29.097 17.4319H31.4242C31.7423 17.4319 32 17.1674 32 16.841C32 16.5145 31.7423 16.25 31.4242 16.25Z" fill="#000091"/>
<path d="M29.516 24.3199L27.5009 23.1262C27.2256 22.963 26.873 23.0595 26.7139 23.3428C26.5549 23.6254 26.6489 23.9872 26.925 24.1504L28.9402 25.3441C29.2132 25.5058 29.5665 25.4116 29.7271 25.1275C29.8862 24.845 29.7921 24.4832 29.516 24.3199Z" fill="#000091"/>
</g>
<defs>
<clipPath id="clip0_29177_136803">
<rect width="32" height="39" fill="white"/>
</clipPath>
</defs>
</svg>
