<svg width="637" height="233" viewBox="0 0 637 233" fill="none" xmlns="http://www.w3.org/2000/svg">
<g clip-path="url(#clip0_29177_135502)">
<ellipse cx="270.546" cy="140.576" rx="97.8432" ry="84.5172" fill="url(#paint0_radial_29177_135502)"/>
<path d="M294.617 117.045L277.887 100.738L263.862 116.927V178.808H231.222V133.037L201.788 157.616V150.338H179.334V160.197H165.106V183.892V183.805H142.053V216.253L138.701 216.395L130.223 222.599V231.423L315.289 230.91V136.92H294.617V117.045Z" fill="#CACAEA"/>
<path d="M329.176 231.891V121.309V108.246H354.189V126.747H376.652V134.025H406.086V179.797H438.726L439.431 199.64L444.71 200.587L445.812 231.401H130.223" fill="#CACAEA"/>
<path d="M298.511 218.789H293.386V228.158H298.511V218.789Z" fill="white" stroke="#78719E" stroke-width="1.5" stroke-miterlimit="10"/>
<path d="M293.386 223.469H298.511" stroke="#78719E" stroke-width="1.5" stroke-miterlimit="10"/>
<path d="M277.92 127.086V231.424H317.055V127.228L277.92 127.086Z" fill="white" stroke="#78719E" stroke-width="1.5" stroke-miterlimit="10"/>
<path d="M283.305 132.445H281.143V137.789H283.305V132.445Z" fill="white" stroke="#78719E" stroke-width="1.5" stroke-miterlimit="10"/>
<path d="M289.402 132.445H287.24V137.789H289.402V132.445Z" fill="white" stroke="#78719E" stroke-width="1.5" stroke-miterlimit="10"/>
<path d="M295.491 132.445H293.329V137.789H295.491V132.445Z" fill="white" stroke="#78719E" stroke-width="1.5" stroke-miterlimit="10"/>
<path d="M301.589 132.445H299.427V137.789H301.589V132.445Z" fill="white" stroke="#78719E" stroke-width="1.5" stroke-miterlimit="10"/>
<path d="M307.678 132.445H305.516V137.789H307.678V132.445Z" fill="white" stroke="#78719E" stroke-width="1.5" stroke-miterlimit="10"/>
<path d="M313.832 132.445H311.67V137.789H313.832V132.445Z" fill="white" stroke="#78719E" stroke-width="1.5" stroke-miterlimit="10"/>
<path d="M283.305 141.633H281.143V146.976H283.305V141.633Z" fill="white" stroke="#78719E" stroke-width="1.5" stroke-miterlimit="10"/>
<path d="M289.402 141.633H287.24V146.976H289.402V141.633Z" fill="white" stroke="#78719E" stroke-width="1.5" stroke-miterlimit="10"/>
<path d="M295.491 141.633H293.329V146.976H295.491V141.633Z" fill="white" stroke="#78719E" stroke-width="1.5" stroke-miterlimit="10"/>
<path d="M301.589 141.633H299.427V146.976H301.589V141.633Z" fill="white" stroke="#78719E" stroke-width="1.5" stroke-miterlimit="10"/>
<path d="M307.678 141.633H305.516V146.976H307.678V141.633Z" fill="white" stroke="#78719E" stroke-width="1.5" stroke-miterlimit="10"/>
<path d="M313.832 141.633H311.67V146.976H313.832V141.633Z" fill="white" stroke="#78719E" stroke-width="1.5" stroke-miterlimit="10"/>
<path d="M283.305 150.812H281.143V156.156H283.305V150.812Z" fill="white" stroke="#78719E" stroke-width="1.5" stroke-miterlimit="10"/>
<path d="M289.402 150.812H287.24V156.156H289.402V150.812Z" fill="white" stroke="#78719E" stroke-width="1.5" stroke-miterlimit="10"/>
<path d="M295.491 150.812H293.329V156.156H295.491V150.812Z" fill="white" stroke="#78719E" stroke-width="1.5" stroke-miterlimit="10"/>
<path d="M301.589 150.812H299.427V156.156H301.589V150.812Z" fill="white" stroke="#78719E" stroke-width="1.5" stroke-miterlimit="10"/>
<path d="M307.678 150.812H305.516V156.156H307.678V150.812Z" fill="white" stroke="#78719E" stroke-width="1.5" stroke-miterlimit="10"/>
<path d="M313.832 150.812H311.67V156.156H313.832V150.812Z" fill="white" stroke="#78719E" stroke-width="1.5" stroke-miterlimit="10"/>
<path d="M283.305 159.992H281.143V165.336H283.305V159.992Z" fill="white" stroke="#78719E" stroke-width="1.5" stroke-miterlimit="10"/>
<path d="M289.402 159.992H287.24V165.336H289.402V159.992Z" fill="white" stroke="#78719E" stroke-width="1.5" stroke-miterlimit="10"/>
<path d="M295.491 159.992H293.329V165.336H295.491V159.992Z" fill="white" stroke="#78719E" stroke-width="1.5" stroke-miterlimit="10"/>
<path d="M301.589 159.992H299.427V165.336H301.589V159.992Z" fill="white" stroke="#78719E" stroke-width="1.5" stroke-miterlimit="10"/>
<path d="M307.678 159.992H305.516V165.336H307.678V159.992Z" fill="white" stroke="#78719E" stroke-width="1.5" stroke-miterlimit="10"/>
<path d="M313.832 159.992H311.67V165.336H313.832V159.992Z" fill="white" stroke="#78719E" stroke-width="1.5" stroke-miterlimit="10"/>
<path d="M283.305 169.172H281.143V174.515H283.305V169.172Z" fill="white" stroke="#78719E" stroke-width="1.5" stroke-miterlimit="10"/>
<path d="M289.402 169.172H287.24V174.515H289.402V169.172Z" fill="white" stroke="#78719E" stroke-width="1.5" stroke-miterlimit="10"/>
<path d="M295.491 169.172H293.329V174.515H295.491V169.172Z" fill="white" stroke="#78719E" stroke-width="1.5" stroke-miterlimit="10"/>
<path d="M301.589 169.172H299.427V174.515H301.589V169.172Z" fill="white" stroke="#78719E" stroke-width="1.5" stroke-miterlimit="10"/>
<path d="M307.678 169.172H305.516V174.515H307.678V169.172Z" fill="white" stroke="#78719E" stroke-width="1.5" stroke-miterlimit="10"/>
<path d="M313.832 169.172H311.67V174.515H313.832V169.172Z" fill="white" stroke="#78719E" stroke-width="1.5" stroke-miterlimit="10"/>
<path d="M283.305 178.352H281.143V183.695H283.305V178.352Z" fill="white" stroke="#78719E" stroke-width="1.5" stroke-miterlimit="10"/>
<path d="M289.402 178.352H287.24V183.695H289.402V178.352Z" fill="white" stroke="#78719E" stroke-width="1.5" stroke-miterlimit="10"/>
<path d="M295.491 178.352H293.329V183.695H295.491V178.352Z" fill="white" stroke="#78719E" stroke-width="1.5" stroke-miterlimit="10"/>
<path d="M301.589 178.352H299.427V183.695H301.589V178.352Z" fill="white" stroke="#78719E" stroke-width="1.5" stroke-miterlimit="10"/>
<path d="M307.678 178.352H305.516V183.695H307.678V178.352Z" fill="white" stroke="#78719E" stroke-width="1.5" stroke-miterlimit="10"/>
<path d="M313.832 178.352H311.67V183.695H313.832V178.352Z" fill="white" stroke="#78719E" stroke-width="1.5" stroke-miterlimit="10"/>
<path d="M283.305 187.539H281.143V192.883H283.305V187.539Z" fill="white" stroke="#78719E" stroke-width="1.5" stroke-miterlimit="10"/>
<path d="M289.402 187.539H287.24V192.883H289.402V187.539Z" fill="white" stroke="#78719E" stroke-width="1.5" stroke-miterlimit="10"/>
<path d="M295.491 187.539H293.329V192.883H295.491V187.539Z" fill="white" stroke="#78719E" stroke-width="1.5" stroke-miterlimit="10"/>
<path d="M301.589 187.539H299.427V192.883H301.589V187.539Z" fill="white" stroke="#78719E" stroke-width="1.5" stroke-miterlimit="10"/>
<path d="M307.678 187.539H305.516V192.883H307.678V187.539Z" fill="white" stroke="#78719E" stroke-width="1.5" stroke-miterlimit="10"/>
<path d="M313.832 187.539H311.67V192.883H313.832V187.539Z" fill="white" stroke="#78719E" stroke-width="1.5" stroke-miterlimit="10"/>
<path d="M283.305 196.719H281.143V202.062H283.305V196.719Z" fill="white" stroke="#78719E" stroke-width="1.5" stroke-miterlimit="10"/>
<path d="M289.402 196.719H287.24V202.062H289.402V196.719Z" fill="white" stroke="#78719E" stroke-width="1.5" stroke-miterlimit="10"/>
<path d="M295.491 196.719H293.329V202.062H295.491V196.719Z" fill="white" stroke="#78719E" stroke-width="1.5" stroke-miterlimit="10"/>
<path d="M301.589 196.719H299.427V202.062H301.589V196.719Z" fill="white" stroke="#78719E" stroke-width="1.5" stroke-miterlimit="10"/>
<path d="M307.678 196.719H305.516V202.062H307.678V196.719Z" fill="white" stroke="#78719E" stroke-width="1.5" stroke-miterlimit="10"/>
<path d="M313.832 196.719H311.67V202.062H313.832V196.719Z" fill="white" stroke="#78719E" stroke-width="1.5" stroke-miterlimit="10"/>
<path d="M283.305 205.898H281.143V211.242H283.305V205.898Z" fill="white" stroke="#78719E" stroke-width="1.5" stroke-miterlimit="10"/>
<path d="M289.402 205.898H287.24V211.242H289.402V205.898Z" fill="white" stroke="#78719E" stroke-width="1.5" stroke-miterlimit="10"/>
<path d="M295.491 205.898H293.329V211.242H295.491V205.898Z" fill="white" stroke="#78719E" stroke-width="1.5" stroke-miterlimit="10"/>
<path d="M301.589 205.898H299.427V211.242H301.589V205.898Z" fill="white" stroke="#78719E" stroke-width="1.5" stroke-miterlimit="10"/>
<path d="M307.678 205.898H305.516V211.242H307.678V205.898Z" fill="white" stroke="#78719E" stroke-width="1.5" stroke-miterlimit="10"/>
<path d="M313.832 205.898H311.67V211.242H313.832V205.898Z" fill="white" stroke="#78719E" stroke-width="1.5" stroke-miterlimit="10"/>
<path d="M521.717 208.394C528.859 208.22 541.855 195.907 548.973 196.641C554.147 197.178 557.807 203.153 562.965 203.824C566.374 204.266 569.88 202.277 573.176 203.326C577.144 204.589 579.249 209.751 583.16 211.243C586.771 212.624 590.772 210.477 594.521 211.267C600.27 212.482 603.549 220.075 609.29 221.362C611.436 221.843 613.679 221.362 615.849 221.725C620.254 222.483 623.809 227.211 623.68 232.16H524.041L521.717 208.394Z" fill="#CACAEA"/>
<path d="M-8.47247e-06 231.442C-0.0971776 226.501 2.72882 221.765 6.22691 221.007C7.95166 220.636 9.725 221.117 11.4336 220.644C15.9924 219.365 18.5998 211.772 23.1667 210.549C26.1466 209.751 29.3289 211.906 32.1954 210.525C35.2967 209.025 36.9728 203.871 40.1227 202.608C42.7463 201.558 45.5237 203.548 48.2363 203.106C52.3336 202.435 55.2649 196.665 59.3541 195.923C70.9334 193.831 69.8484 204.479 74.1805 206.949C75.5813 207.747 77.5247 205.521 81.7597 205.521C85.9946 205.521 86.5048 212.672 91.2499 211.938C95.6711 211.251 98.2703 213.453 99.7036 215.513C100.594 216.792 101.064 218.402 101.25 220.068C101.469 222.025 102.57 225.419 107.542 226.28C114.643 227.503 115.963 231.449 115.963 231.449H-8.47247e-06V231.442Z" fill="#CACAEA"/>
<path d="M385.729 231.669H361.841V168.801H384.757H387.518V231.669H385.729Z" fill="white" stroke="#78719E" stroke-width="1.5" stroke-miterlimit="10"/>
<path d="M383.575 172.723H365.234V176.259H383.575V172.723Z" fill="white" stroke="#78719E" stroke-width="1.5" stroke-miterlimit="10"/>
<path d="M383.575 179.859H365.234V183.395H383.575V179.859Z" fill="white" stroke="#78719E" stroke-width="1.5" stroke-miterlimit="10"/>
<path d="M383.575 186.996H365.234V190.532H383.575V186.996Z" fill="white" stroke="#78719E" stroke-width="1.5" stroke-miterlimit="10"/>
<path d="M383.575 194.129H365.234V197.665H383.575V194.129Z" fill="white" stroke="#78719E" stroke-width="1.5" stroke-miterlimit="10"/>
<path d="M383.575 201.266H365.234V204.802H383.575V201.266Z" fill="white" stroke="#78719E" stroke-width="1.5" stroke-miterlimit="10"/>
<path d="M383.575 208.402H365.234V211.938H383.575V208.402Z" fill="white" stroke="#78719E" stroke-width="1.5" stroke-miterlimit="10"/>
<path d="M383.575 215.535H365.234V219.071H383.575V215.535Z" fill="white" stroke="#78719E" stroke-width="1.5" stroke-miterlimit="10"/>
<path d="M383.915 224.914H365.574V231.678H383.915V224.914Z" fill="white" stroke="#78719E" stroke-width="1.5" stroke-miterlimit="10"/>
<path d="M352.594 231.526H345.039H310.52V155.516H345.039H352.594V231.526Z" fill="white" stroke="#78719E" stroke-width="1.5" stroke-miterlimit="10"/>
<path d="M326.367 231.525V217.57H332.642V231.525" fill="white"/>
<path d="M326.367 231.525V217.57H332.642V231.525" stroke="#78719E" stroke-width="1.5" stroke-miterlimit="10"/>
<path d="M320.731 212.496H315.313V222.528H320.731V212.496Z" fill="white" stroke="#78719E" stroke-width="1.5" stroke-miterlimit="10"/>
<path d="M313.403 222.527H315.314H322.407V225.29H313.403V222.527Z" fill="white" stroke="#78719E" stroke-width="1.5" stroke-miterlimit="10"/>
<path d="M320.731 195.574H315.313V205.606H320.731V195.574Z" fill="white" stroke="#78719E" stroke-width="1.5" stroke-miterlimit="10"/>
<path d="M313.403 205.605H315.314H322.407V208.36H313.403V205.605Z" fill="white" stroke="#78719E" stroke-width="1.5" stroke-miterlimit="10"/>
<path d="M320.731 178.645H315.313V188.677H320.731V178.645Z" fill="white" stroke="#78719E" stroke-width="1.5" stroke-miterlimit="10"/>
<path d="M313.403 188.676H315.314H322.407V191.438H313.403V188.676Z" fill="white" stroke="#78719E" stroke-width="1.5" stroke-miterlimit="10"/>
<path d="M320.731 161.723H315.313V171.755H320.731V161.723Z" fill="white" stroke="#78719E" stroke-width="1.5" stroke-miterlimit="10"/>
<path d="M313.403 171.754H315.314H322.407V174.516H313.403V171.754Z" fill="white" stroke="#78719E" stroke-width="1.5" stroke-miterlimit="10"/>
<path d="M332.747 161.723H327.33V171.755H332.747V161.723Z" fill="white" stroke="#78719E" stroke-width="1.5" stroke-miterlimit="10"/>
<path d="M325.419 171.754H327.33H334.424V174.516H325.419V171.754Z" fill="white" stroke="#78719E" stroke-width="1.5" stroke-miterlimit="10"/>
<path d="M344.764 161.723H339.347V171.755H344.764V161.723Z" fill="white" stroke="#78719E" stroke-width="1.5" stroke-miterlimit="10"/>
<path d="M337.436 171.754H339.347H346.44V174.516H337.436V171.754Z" fill="white" stroke="#78719E" stroke-width="1.5" stroke-miterlimit="10"/>
<path d="M332.747 178.645H327.33V188.677H332.747V178.645Z" fill="white" stroke="#78719E" stroke-width="1.5" stroke-miterlimit="10"/>
<path d="M325.419 188.676H327.33H334.424V191.438H325.419V188.676Z" fill="white" stroke="#78719E" stroke-width="1.5" stroke-miterlimit="10"/>
<path d="M344.764 178.645H339.347V188.677H344.764V178.645Z" fill="white" stroke="#78719E" stroke-width="1.5" stroke-miterlimit="10"/>
<path d="M337.436 188.676H339.347H346.44V191.438H337.436V188.676Z" fill="white" stroke="#78719E" stroke-width="1.5" stroke-miterlimit="10"/>
<path d="M332.747 195.574H327.33V205.606H332.747V195.574Z" fill="white" stroke="#78719E" stroke-width="1.5" stroke-miterlimit="10"/>
<path d="M325.419 205.605H327.33H334.424V208.36H325.419V205.605Z" fill="white" stroke="#78719E" stroke-width="1.5" stroke-miterlimit="10"/>
<path d="M344.764 195.574H339.347V205.606H344.764V195.574Z" fill="white" stroke="#78719E" stroke-width="1.5" stroke-miterlimit="10"/>
<path d="M337.436 205.605H339.347H346.44V208.36H337.436V205.605Z" fill="white" stroke="#78719E" stroke-width="1.5" stroke-miterlimit="10"/>
<path d="M344.764 212.496H339.347V222.528H344.764V212.496Z" fill="white" stroke="#78719E" stroke-width="1.5" stroke-miterlimit="10"/>
<path d="M337.436 222.527H339.347H346.44V225.29H337.436V222.527Z" fill="white" stroke="#78719E" stroke-width="1.5" stroke-miterlimit="10"/>
<path d="M355.995 151.734H307.832V155.515H355.995V151.734Z" fill="white" stroke="#78719E" stroke-width="1.5" stroke-miterlimit="10"/>
<path d="M357.534 147.934H304.844V152.377H357.534V147.934Z" fill="white" stroke="#78719E" stroke-width="1.5" stroke-miterlimit="10"/>
<path d="M310.099 147.934V138.352H344.845H352.335V147.934H310.099Z" fill="white" stroke="#78719E" stroke-width="1.5" stroke-miterlimit="10"/>
<path d="M283.685 204.145H302.253L306.358 214.926H283.685L304.52 215.1V231.423H283.58" fill="white"/>
<path d="M283.685 204.145H302.253L306.358 214.926H283.685L304.52 215.1V231.423H283.58" stroke="#78719E" stroke-width="1.5" stroke-miterlimit="10"/>
<path d="M265.79 180.137L275.134 155.195L284.228 180.137H265.79Z" fill="white" stroke="#78719E" stroke-width="1.5" stroke-miterlimit="10"/>
<path d="M266.737 231.426V180.452L283.58 180.137V231.426H266.737Z" fill="white" stroke="#78719E" stroke-width="1.5" stroke-miterlimit="10"/>
<path d="M266.883 196.898H283.393" stroke="#78719E" stroke-width="1.5" stroke-miterlimit="10"/>
<path d="M266.64 195.395H283.531" stroke="#78719E" stroke-width="1.5" stroke-miterlimit="10"/>
<path d="M273.742 187.532V193.546H276.009V187.532C276.009 187.532 276.041 186.127 274.875 185.977C274.875 185.977 273.742 185.961 273.742 187.532Z" fill="white" stroke="#78719E" stroke-width="1.5" stroke-miterlimit="10"/>
<path d="M303.305 206.902H283.685" stroke="#78719E" stroke-width="1.5" stroke-miterlimit="10"/>
<path d="M304.18 209.812H283.685" stroke="#78719E" stroke-width="1.5" stroke-miterlimit="10"/>
<path d="M305.483 212.727H283.685" stroke="#78719E" stroke-width="1.5" stroke-miterlimit="10"/>
<path d="M266.883 144.086H240.186V231.525H266.883V144.086Z" fill="white" stroke="#78719E" stroke-width="1.5" stroke-miterlimit="10"/>
<path d="M258.348 218.715H248.947V231.525H258.348V218.715Z" fill="white" stroke="#78719E" stroke-width="1.5" stroke-miterlimit="10"/>
<path d="M250.016 200.508H244.89V209.877H250.016V200.508Z" fill="white" stroke="#78719E" stroke-width="1.5" stroke-miterlimit="10"/>
<path d="M251.506 213.198H242.866V209.875H251.433L251.506 213.198Z" fill="white" stroke="#78719E" stroke-width="1.5" stroke-miterlimit="10"/>
<path d="M244.89 205.188H250.016" stroke="#78719E" stroke-width="1.5" stroke-miterlimit="10"/>
<path d="M262.583 200.508H257.458V209.877H262.583V200.508Z" fill="white" stroke="#78719E" stroke-width="1.5" stroke-miterlimit="10"/>
<path d="M264.081 213.198H255.433V209.875H264.008L264.081 213.198Z" fill="white" stroke="#78719E" stroke-width="1.5" stroke-miterlimit="10"/>
<path d="M257.458 205.188H262.583" stroke="#78719E" stroke-width="1.5" stroke-miterlimit="10"/>
<path d="M250.016 183.125H244.89V192.494H250.016V183.125Z" fill="white" stroke="#78719E" stroke-width="1.5" stroke-miterlimit="10"/>
<path d="M251.506 195.827H242.866V192.496H251.433L251.506 195.827Z" fill="white" stroke="#78719E" stroke-width="1.5" stroke-miterlimit="10"/>
<path d="M244.89 187.816H250.016" stroke="#78719E" stroke-width="1.5" stroke-miterlimit="10"/>
<path d="M262.583 183.125H257.458V192.494H262.583V183.125Z" fill="white" stroke="#78719E" stroke-width="1.5" stroke-miterlimit="10"/>
<path d="M264.081 195.827H255.433V192.496H264.008L264.081 195.827Z" fill="white" stroke="#78719E" stroke-width="1.5" stroke-miterlimit="10"/>
<path d="M257.458 187.816H262.583" stroke="#78719E" stroke-width="1.5" stroke-miterlimit="10"/>
<path d="M250.016 165.754H244.89V175.123H250.016V165.754Z" fill="white" stroke="#78719E" stroke-width="1.5" stroke-miterlimit="10"/>
<path d="M251.506 178.448H242.866V175.125H251.433L251.506 178.448Z" fill="white" stroke="#78719E" stroke-width="1.5" stroke-miterlimit="10"/>
<path d="M244.89 170.434H250.016" stroke="#78719E" stroke-width="1.5" stroke-miterlimit="10"/>
<path d="M262.583 165.754H257.458V175.123H262.583V165.754Z" fill="white" stroke="#78719E" stroke-width="1.5" stroke-miterlimit="10"/>
<path d="M264.081 178.448H255.433V175.125H264.008L264.081 178.448Z" fill="white" stroke="#78719E" stroke-width="1.5" stroke-miterlimit="10"/>
<path d="M257.458 170.434H262.583" stroke="#78719E" stroke-width="1.5" stroke-miterlimit="10"/>
<path d="M250.016 148.809H244.89V158.178H250.016V148.809Z" fill="white" stroke="#78719E" stroke-width="1.5" stroke-miterlimit="10"/>
<path d="M251.506 161.507H242.866V158.176H251.433L251.506 161.507Z" fill="white" stroke="#78719E" stroke-width="1.5" stroke-miterlimit="10"/>
<path d="M244.89 153.496H250.016" stroke="#78719E" stroke-width="1.5" stroke-miterlimit="10"/>
<path d="M262.583 148.809H257.458V158.178H262.583V148.809Z" fill="white" stroke="#78719E" stroke-width="1.5" stroke-miterlimit="10"/>
<path d="M264.081 161.507H255.433V158.176H264.008L264.081 161.507Z" fill="white" stroke="#78719E" stroke-width="1.5" stroke-miterlimit="10"/>
<path d="M257.458 153.496H262.583" stroke="#78719E" stroke-width="1.5" stroke-miterlimit="10"/>
<path d="M243.781 139.193V126.816H250.016V139.193" fill="white"/>
<path d="M243.781 139.193V126.816H250.016V139.193" stroke="#78719E" stroke-width="1.5" stroke-miterlimit="10"/>
<path d="M252.138 139.777V130.219H256.648V139.777" fill="white"/>
<path d="M252.138 139.777V130.219H256.648V139.777" stroke="#78719E" stroke-width="1.5" stroke-miterlimit="10"/>
<path d="M267.652 143.731V139.422H238.162V143.731H240.955H267.652Z" fill="white" stroke="#78719E" stroke-width="1.5" stroke-miterlimit="10"/>
<path d="M193.917 111.562H225.003H240.04V231.45H193.917V111.562Z" fill="white" stroke="#78719E" stroke-width="1.5" stroke-miterlimit="10"/>
<path d="M225.667 231.45V111.562" stroke="#78719E" stroke-width="1.5" stroke-miterlimit="10"/>
<path d="M221.011 118.355H198.144V121.749H221.011V118.355Z" fill="white" stroke="#78719E" stroke-width="1.5" stroke-miterlimit="10"/>
<path d="M221.011 127.188H198.144V130.582H221.011V127.188Z" fill="white" stroke="#78719E" stroke-width="1.5" stroke-miterlimit="10"/>
<path d="M221.011 136.027H198.144V139.421H221.011V136.027Z" fill="white" stroke="#78719E" stroke-width="1.5" stroke-miterlimit="10"/>
<path d="M221.011 144.863H198.144V148.257H221.011V144.863Z" fill="white" stroke="#78719E" stroke-width="1.5" stroke-miterlimit="10"/>
<path d="M221.011 153.695H198.144V157.089H221.011V153.695Z" fill="white" stroke="#78719E" stroke-width="1.5" stroke-miterlimit="10"/>
<path d="M221.011 162.527H198.144V165.921H221.011V162.527Z" fill="white" stroke="#78719E" stroke-width="1.5" stroke-miterlimit="10"/>
<path d="M221.011 171.367H198.144V174.761H221.011V171.367Z" fill="white" stroke="#78719E" stroke-width="1.5" stroke-miterlimit="10"/>
<path d="M221.011 180.199H198.144V183.593H221.011V180.199Z" fill="white" stroke="#78719E" stroke-width="1.5" stroke-miterlimit="10"/>
<path d="M221.011 189.031H198.144V192.425H221.011V189.031Z" fill="white" stroke="#78719E" stroke-width="1.5" stroke-miterlimit="10"/>
<path d="M221.011 197.863H198.144V201.257H221.011V197.863Z" fill="white" stroke="#78719E" stroke-width="1.5" stroke-miterlimit="10"/>
<path d="M221.011 206.703H198.144V210.097H221.011V206.703Z" fill="white" stroke="#78719E" stroke-width="1.5" stroke-miterlimit="10"/>
<path d="M221.011 215.535H198.144V218.929H221.011V215.535Z" fill="white" stroke="#78719E" stroke-width="1.5" stroke-miterlimit="10"/>
<path d="M239.91 215.535H229.23V218.929H239.91V215.535Z" fill="white" stroke="#78719E" stroke-width="1.5" stroke-miterlimit="10"/>
<path d="M239.91 206.703H229.23V210.097H239.91V206.703Z" fill="white" stroke="#78719E" stroke-width="1.5" stroke-miterlimit="10"/>
<path d="M239.91 197.863H229.23V201.257H239.91V197.863Z" fill="white" stroke="#78719E" stroke-width="1.5" stroke-miterlimit="10"/>
<path d="M239.91 189.031H229.23V192.425H239.91V189.031Z" fill="white" stroke="#78719E" stroke-width="1.5" stroke-miterlimit="10"/>
<path d="M239.91 180.199H229.23V183.593H239.91V180.199Z" fill="white" stroke="#78719E" stroke-width="1.5" stroke-miterlimit="10"/>
<path d="M239.91 171.367H229.23V174.761H239.91V171.367Z" fill="white" stroke="#78719E" stroke-width="1.5" stroke-miterlimit="10"/>
<path d="M239.91 162.527H229.23V165.921H239.91V162.527Z" fill="white" stroke="#78719E" stroke-width="1.5" stroke-miterlimit="10"/>
<path d="M239.91 153.695H229.23V157.089H239.91V153.695Z" fill="white" stroke="#78719E" stroke-width="1.5" stroke-miterlimit="10"/>
<path d="M239.91 144.863H229.23V148.257H239.91V144.863Z" fill="white" stroke="#78719E" stroke-width="1.5" stroke-miterlimit="10"/>
<path d="M239.91 136.027H229.23V139.421H239.91V136.027Z" fill="white" stroke="#78719E" stroke-width="1.5" stroke-miterlimit="10"/>
<path d="M239.91 127.188H229.23V130.582H239.91V127.188Z" fill="white" stroke="#78719E" stroke-width="1.5" stroke-miterlimit="10"/>
<path d="M239.91 118.355H229.23V121.749H239.91V118.355Z" fill="white" stroke="#78719E" stroke-width="1.5" stroke-miterlimit="10"/>
<path d="M279.863 218.543H270.462V231.353H279.863V218.543Z" fill="white" stroke="#78719E" stroke-width="1.5" stroke-miterlimit="10"/>
<path d="M474.841 207.728C474.841 207.728 472.355 206.536 470.063 208.691C467.772 210.846 469.391 213.308 469.391 213.308C469.391 213.308 466.654 214.445 466.905 216.9C467.221 219.97 471.011 221.43 474.841 220.239C474.841 220.239 476.226 221.936 478.752 221.936C481.278 221.936 482.857 220.625 483.036 220.278C483.036 220.278 485.108 221.975 487.36 221.123C489.611 220.278 489.214 218.194 489.214 218.194C489.214 218.194 492.137 219.039 493.084 216.616C494.032 214.192 492.728 211.73 491.586 211.225C491.586 211.225 491.983 208.715 490.202 207.397C488.428 206.07 485.465 207.033 485.465 207.033C485.465 207.033 484.266 202.542 479.829 202.787C475.4 203.032 474.841 207.728 474.841 207.728Z" fill="#CACAEA"/>
<path d="M478.857 205.385C479.092 205.543 479.278 205.756 479.489 205.938C479.659 206.08 479.918 205.835 479.74 205.693C479.497 205.496 479.294 205.267 479.035 205.085C478.849 204.959 478.671 205.259 478.857 205.385Z" fill="#CACAEA"/>
<path d="M481.683 208.383C481.975 208.194 482.275 208.028 482.55 207.815C482.728 207.673 482.477 207.428 482.299 207.57C482.056 207.768 481.773 207.91 481.505 208.083C481.311 208.202 481.489 208.509 481.683 208.383Z" fill="#CACAEA"/>
<path d="M478.023 208.314C478.056 208.661 477.991 209.009 477.983 209.356C477.983 209.577 478.331 209.577 478.339 209.356C478.339 209.009 478.412 208.661 478.38 208.314C478.364 208.093 478.007 208.093 478.023 208.314Z" fill="#CACAEA"/>
<path d="M473.926 209.823C474.331 209.902 474.752 209.941 475.149 210.052C475.367 210.115 475.464 209.776 475.246 209.72C474.841 209.61 474.428 209.563 474.023 209.492C473.796 209.452 473.707 209.784 473.926 209.823Z" fill="#CACAEA"/>
<path d="M474.039 212.127C474.08 212.371 474.144 212.6 474.152 212.853C474.152 213.074 474.509 213.074 474.509 212.853C474.509 212.577 474.436 212.308 474.387 212.04C474.347 211.819 474.007 211.914 474.047 212.135L474.039 212.127Z" fill="#CACAEA"/>
<path d="M470.63 212.039C470.938 211.889 471.246 211.739 471.578 211.636C471.796 211.565 471.699 211.226 471.48 211.305C471.124 211.423 470.784 211.581 470.452 211.747C470.25 211.849 470.428 212.149 470.63 212.047V212.039Z" fill="#CACAEA"/>
<path d="M471.861 214.857C471.813 215.228 471.707 215.591 471.699 215.97C471.699 216.191 472.047 216.191 472.055 215.97C472.055 215.591 472.169 215.228 472.217 214.857C472.25 214.636 471.894 214.636 471.861 214.857Z" fill="#CACAEA"/>
<path d="M469.861 217.479C470.136 217.756 470.331 218.087 470.541 218.403C470.671 218.584 470.978 218.419 470.849 218.229C470.614 217.89 470.403 217.527 470.112 217.235C469.95 217.077 469.699 217.321 469.861 217.479Z" fill="#CACAEA"/>
<path d="M475.327 218.503C475.748 218.306 476.08 217.974 476.469 217.729C476.663 217.611 476.485 217.311 476.291 217.43C475.894 217.666 475.57 217.998 475.149 218.203C474.938 218.298 475.125 218.598 475.327 218.503Z" fill="#CACAEA"/>
<path d="M478.291 212.522C478.777 212.435 479.222 212.222 479.716 212.136C479.943 212.096 479.845 211.765 479.619 211.804C479.133 211.891 478.679 212.096 478.194 212.191C477.967 212.23 478.064 212.57 478.291 212.522Z" fill="#CACAEA"/>
<path d="M482.023 211.423C482.315 211.573 482.558 211.794 482.752 212.054C482.882 212.236 483.198 212.054 483.06 211.88C482.833 211.573 482.558 211.304 482.21 211.123C482.007 211.02 481.829 211.32 482.032 211.423H482.023Z" fill="#CACAEA"/>
<path d="M485.967 209.166C486.04 209.616 486.089 210.074 486.202 210.516C486.259 210.729 486.599 210.642 486.542 210.421C486.429 209.979 486.38 209.521 486.307 209.071C486.275 208.85 485.927 208.945 485.967 209.166Z" fill="#CACAEA"/>
<path d="M488.752 211.611C489.1 211.437 489.432 211.224 489.781 211.035C489.983 210.924 489.805 210.624 489.602 210.735C489.254 210.924 488.93 211.138 488.574 211.311C488.372 211.414 488.55 211.714 488.752 211.611Z" fill="#CACAEA"/>
<path d="M486.914 213.861C486.995 214.193 487.109 214.508 487.23 214.824C487.311 215.029 487.651 214.942 487.57 214.729C487.449 214.414 487.335 214.098 487.254 213.766C487.206 213.545 486.858 213.64 486.914 213.861Z" fill="#CACAEA"/>
<path d="M490.129 215.023C490.518 214.889 490.866 214.668 491.198 214.431C491.376 214.297 491.198 213.997 491.02 214.131C490.712 214.352 490.396 214.566 490.032 214.692C489.821 214.763 489.91 215.102 490.129 215.023Z" fill="#CACAEA"/>
<path d="M482.744 216.49C483.149 216.483 483.538 216.372 483.934 216.293C484.161 216.246 484.064 215.914 483.837 215.962C483.473 216.033 483.117 216.143 482.736 216.151C482.509 216.151 482.509 216.498 482.736 216.498L482.744 216.49Z" fill="#CACAEA"/>
<path d="M484.695 218.045C484.695 218.368 484.655 218.684 484.614 219.008C484.59 219.229 484.938 219.229 484.971 219.008C485.011 218.684 485.044 218.368 485.052 218.045C485.052 217.824 484.695 217.824 484.695 218.045Z" fill="#CACAEA"/>
<path d="M487.489 217.369C487.919 217.25 488.331 217.108 488.753 216.982C488.971 216.919 488.874 216.579 488.655 216.65C488.234 216.777 487.813 216.919 487.392 217.037C487.173 217.1 487.263 217.432 487.489 217.369Z" fill="#CACAEA"/>
<path d="M485.109 221.244L484.323 220.755L481.133 224.259L480.955 220.526L482.153 218.718L481.368 218.229L480.874 218.726L480.631 213.777H478.898L478.744 217.061L477.359 215.68L476.566 216.161L478.631 219.287L478.339 225.514L477.635 224.812L476.841 225.293L478.242 227.417L478.032 231.979H481.505L481.254 226.698L485.109 221.244Z" fill="#CACAEA"/>
<path d="M485.109 221.244L484.323 220.755L481.133 224.259L480.955 220.526L482.153 218.718L481.368 218.229L480.874 218.726L480.631 213.777H478.898L478.744 217.061L477.359 215.68L476.566 216.161L478.631 219.287L478.339 225.514L477.635 224.812L476.841 225.293L478.242 227.417L478.032 231.979H481.505L481.254 226.698L485.109 221.244Z" fill="#CACAEA"/>
<mask id="mask0_29177_135502" style="mask-type:luminance" maskUnits="userSpaceOnUse" x="476" y="213" width="10" height="19">
<path d="M485.109 221.244L484.323 220.755L481.133 224.259L480.955 220.526L482.153 218.718L481.368 218.229L480.874 218.726L480.631 213.777H478.898L478.744 217.061L477.359 215.68L476.566 216.161L478.631 219.287L478.339 225.514L477.635 224.812L476.841 225.293L478.242 227.417L478.032 231.979H481.505L481.254 226.698L485.109 221.244Z" fill="white"/>
</mask>
<g mask="url(#mask0_29177_135502)">
<path d="M483.336 221.125C483.141 221.741 483.651 223.398 484.364 223.627L483.336 221.125Z" fill="#CACAEA"/>
</g>
<path d="M482.501 214.271C482.501 214.271 482.582 211.074 486.331 210.767C490.08 210.459 490.712 212.732 490.947 214.074C490.947 214.074 492.963 213.805 494.105 214.918C495.247 216.031 495.214 217.689 494.502 218.383C494.502 218.383 495.49 220.23 494.145 221.888C492.801 223.545 489.408 222.969 488.542 222.117C488.542 222.117 487.141 223.427 484.558 222.946C481.975 222.456 481.716 221.114 481.716 221.114C481.716 221.114 479.392 220.38 479.036 218.115C478.671 215.85 481.044 214.5 482.509 214.263L482.501 214.271Z" fill="#CACAEA"/>
<path d="M484.396 213.288C484.639 213.525 484.89 213.746 485.076 214.022C485.198 214.211 485.505 214.038 485.384 213.848C485.181 213.54 484.906 213.296 484.647 213.043C484.485 212.885 484.234 213.13 484.396 213.288Z" fill="#CACAEA"/>
<path d="M486.687 213.177C487.068 213.209 487.432 213.138 487.797 213.059C488.023 213.011 487.926 212.68 487.7 212.727C487.359 212.798 487.028 212.861 486.679 212.838C486.453 212.822 486.453 213.169 486.679 213.185L486.687 213.177Z" fill="#CACAEA"/>
<path d="M486.42 215.908C486.647 216.247 486.809 216.626 487.012 216.989C487.125 217.187 487.425 217.013 487.319 216.816C487.117 216.46 486.955 216.081 486.728 215.734C486.607 215.545 486.299 215.718 486.42 215.908Z" fill="#CACAEA"/>
<path d="M489.489 216.025C489.919 215.986 490.34 215.946 490.761 215.867C490.987 215.828 490.89 215.488 490.664 215.536C490.275 215.607 489.878 215.646 489.489 215.686C489.263 215.709 489.263 216.057 489.489 216.033V216.025Z" fill="#CACAEA"/>
<path d="M493.667 216.152C493.408 216.42 493.246 216.76 493.044 217.075C492.923 217.265 493.23 217.438 493.352 217.249C493.53 216.965 493.676 216.641 493.918 216.397C494.08 216.239 493.829 215.986 493.667 216.152Z" fill="#CACAEA"/>
<path d="M490.777 218.244C490.817 218.536 490.858 218.836 490.898 219.128C490.922 219.349 491.279 219.349 491.254 219.128C491.214 218.836 491.173 218.536 491.133 218.244C491.109 218.023 490.752 218.023 490.777 218.244Z" fill="#CACAEA"/>
<path d="M490.364 221.566C490.736 221.566 491.101 221.527 491.473 221.527C491.7 221.527 491.7 221.18 491.473 221.18C491.101 221.18 490.736 221.219 490.364 221.219C490.137 221.219 490.137 221.566 490.364 221.566Z" fill="#CACAEA"/>
<path d="M492.761 219.901C492.963 220.058 493.149 220.24 493.352 220.398C493.425 220.461 493.53 220.469 493.603 220.398C493.668 220.335 493.676 220.216 493.603 220.153C493.4 219.995 493.214 219.814 493.012 219.656C492.939 219.593 492.834 219.585 492.761 219.656C492.696 219.719 492.688 219.837 492.761 219.901Z" fill="#CACAEA"/>
<path d="M488.064 219.926C487.813 220.131 487.619 220.391 487.392 220.62C487.23 220.778 487.481 221.023 487.643 220.865C487.87 220.636 488.064 220.376 488.315 220.17C488.493 220.028 488.234 219.784 488.064 219.926Z" fill="#CACAEA"/>
<path d="M485.141 218.213C485.392 218.411 485.643 218.616 485.927 218.782C486.121 218.892 486.307 218.592 486.105 218.482C485.846 218.332 485.619 218.15 485.392 217.969C485.214 217.827 484.963 218.071 485.141 218.213Z" fill="#CACAEA"/>
<path d="M483.497 216.46C483.295 216.728 482.995 216.941 482.696 217.091C482.493 217.194 482.671 217.494 482.874 217.391C483.238 217.21 483.562 216.957 483.805 216.633C483.943 216.452 483.635 216.278 483.497 216.46Z" fill="#CACAEA"/>
<path d="M480.711 216.94C480.825 217.327 480.898 217.721 480.906 218.124C480.906 218.345 481.262 218.345 481.262 218.124C481.262 217.69 481.181 217.263 481.06 216.845C480.995 216.632 480.655 216.719 480.72 216.94H480.711Z" fill="#CACAEA"/>
<path d="M482.347 220.224C482.769 220.224 483.157 220.13 483.546 219.972C483.756 219.885 483.578 219.585 483.368 219.672C483.044 219.806 482.704 219.877 482.356 219.877C482.129 219.877 482.129 220.224 482.356 220.224H482.347Z" fill="#CACAEA"/>
<path d="M485.052 220.549V221.472C485.052 221.693 485.408 221.693 485.408 221.472V220.549C485.408 220.328 485.052 220.328 485.052 220.549Z" fill="#CACAEA"/>
<path d="M114.692 207.193C114.692 207.193 112.206 206.001 109.915 208.156C107.623 210.311 109.242 212.773 109.242 212.773C109.242 212.773 106.505 213.91 106.757 216.365C107.072 219.435 110.862 220.895 114.692 219.703C114.692 219.703 116.077 221.4 118.603 221.4C121.129 221.4 122.708 220.09 122.887 219.743C122.887 219.743 124.96 221.44 127.211 220.587C129.462 219.743 129.065 217.659 129.065 217.659C129.065 217.659 131.988 218.504 132.935 216.08C133.883 213.657 132.579 211.195 131.437 210.69C131.437 210.69 131.834 208.18 130.053 206.861C128.279 205.535 125.316 206.498 125.316 206.498C125.316 206.498 124.117 202.007 119.68 202.252C115.251 202.497 114.692 207.193 114.692 207.193Z" fill="#CACAEA"/>
<path d="M118.708 204.842C118.943 205 119.129 205.213 119.34 205.395C119.51 205.537 119.769 205.292 119.591 205.15C119.348 204.953 119.146 204.724 118.886 204.542C118.7 204.416 118.522 204.716 118.708 204.842Z" fill="#CACAEA"/>
<path d="M121.534 207.848C121.826 207.659 122.125 207.493 122.401 207.28C122.579 207.138 122.328 206.893 122.15 207.035C121.907 207.232 121.623 207.374 121.356 207.548C121.162 207.667 121.34 207.974 121.534 207.848Z" fill="#CACAEA"/>
<path d="M117.874 207.767C117.906 208.115 117.842 208.462 117.833 208.809C117.833 209.03 118.182 209.03 118.19 208.809C118.19 208.462 118.263 208.115 118.23 207.767C118.214 207.546 117.858 207.546 117.874 207.767Z" fill="#CACAEA"/>
<path d="M113.777 209.284C114.182 209.363 114.603 209.402 115 209.513C115.218 209.576 115.315 209.237 115.097 209.181C114.692 209.071 114.279 209.024 113.874 208.952C113.647 208.913 113.558 209.245 113.777 209.284Z" fill="#CACAEA"/>
<path d="M113.89 211.588C113.931 211.832 113.995 212.061 114.004 212.314C114.004 212.535 114.36 212.535 114.36 212.314C114.36 212.038 114.287 211.769 114.238 211.501C114.198 211.28 113.858 211.374 113.898 211.596L113.89 211.588Z" fill="#CACAEA"/>
<path d="M110.481 211.504C110.789 211.354 111.097 211.204 111.429 211.101C111.647 211.03 111.55 210.691 111.331 210.77C110.975 210.888 110.635 211.046 110.303 211.212C110.101 211.314 110.279 211.614 110.481 211.512V211.504Z" fill="#CACAEA"/>
<path d="M111.712 214.314C111.664 214.685 111.558 215.048 111.55 215.427C111.55 215.648 111.898 215.648 111.907 215.427C111.907 215.048 112.02 214.685 112.069 214.314C112.101 214.093 111.745 214.093 111.712 214.314Z" fill="#CACAEA"/>
<path d="M109.712 216.94C109.987 217.216 110.182 217.548 110.392 217.864C110.522 218.045 110.829 217.879 110.7 217.69C110.465 217.351 110.255 216.988 109.963 216.696C109.801 216.538 109.55 216.782 109.712 216.94Z" fill="#CACAEA"/>
<path d="M115.178 217.968C115.599 217.77 115.931 217.439 116.319 217.194C116.514 217.076 116.336 216.776 116.141 216.894C115.744 217.131 115.421 217.463 114.999 217.668C114.789 217.763 114.975 218.063 115.178 217.968Z" fill="#CACAEA"/>
<path d="M118.133 211.983C118.619 211.896 119.065 211.683 119.559 211.596C119.785 211.557 119.688 211.226 119.461 211.265C118.976 211.352 118.522 211.557 118.036 211.652C117.81 211.691 117.907 212.031 118.133 211.983Z" fill="#CACAEA"/>
<path d="M121.866 210.887C122.158 211.037 122.401 211.258 122.595 211.519C122.725 211.7 123.04 211.519 122.903 211.345C122.676 211.037 122.401 210.769 122.052 210.587C121.85 210.485 121.672 210.785 121.874 210.887H121.866Z" fill="#CACAEA"/>
<path d="M125.818 208.631C125.891 209.081 125.939 209.538 126.053 209.98C126.109 210.193 126.449 210.107 126.393 209.886C126.279 209.444 126.231 208.986 126.158 208.536C126.125 208.315 125.777 208.41 125.818 208.631Z" fill="#CACAEA"/>
<path d="M128.603 211.076C128.951 210.902 129.283 210.689 129.632 210.5C129.834 210.389 129.656 210.089 129.453 210.2C129.105 210.389 128.781 210.602 128.425 210.776C128.223 210.879 128.401 211.179 128.603 211.076Z" fill="#CACAEA"/>
<path d="M126.765 213.326C126.846 213.657 126.959 213.973 127.081 214.289C127.162 214.494 127.502 214.407 127.421 214.194C127.299 213.878 127.186 213.563 127.105 213.231C127.057 213.01 126.708 213.105 126.765 213.326Z" fill="#CACAEA"/>
<path d="M129.98 214.484C130.368 214.35 130.716 214.129 131.048 213.892C131.227 213.758 131.048 213.458 130.87 213.592C130.563 213.813 130.247 214.026 129.882 214.153C129.672 214.224 129.761 214.563 129.98 214.484Z" fill="#CACAEA"/>
<path d="M122.587 215.955C122.992 215.947 123.38 215.837 123.777 215.758C124.004 215.711 123.907 215.379 123.68 215.426C123.316 215.498 122.959 215.608 122.579 215.616C122.352 215.616 122.352 215.963 122.579 215.963L122.587 215.955Z" fill="#CACAEA"/>
<path d="M124.547 217.51C124.547 217.833 124.506 218.149 124.466 218.472C124.441 218.693 124.789 218.693 124.822 218.472C124.862 218.149 124.895 217.833 124.903 217.51C124.903 217.288 124.547 217.288 124.547 217.51Z" fill="#CACAEA"/>
<path d="M127.332 216.83C127.761 216.711 128.174 216.569 128.595 216.443C128.814 216.38 128.717 216.04 128.498 216.111C128.077 216.238 127.656 216.38 127.235 216.498C127.016 216.561 127.105 216.893 127.332 216.83Z" fill="#CACAEA"/>
<path d="M124.959 220.705L124.166 220.216L120.983 223.72L120.805 219.987L122.004 218.171L121.218 217.69L120.716 218.179L120.481 213.238H118.749L118.587 216.522L117.202 215.133L116.417 215.622L118.481 218.748L118.182 224.967L117.485 224.265L116.692 224.754L118.093 226.877L117.874 231.44H121.348L121.097 226.159L124.959 220.705Z" fill="#CACAEA"/>
<path d="M124.959 220.705L124.166 220.216L120.983 223.72L120.805 219.987L122.004 218.171L121.218 217.69L120.716 218.179L120.481 213.238H118.749L118.587 216.522L117.202 215.133L116.417 215.622L118.481 218.748L118.182 224.967L117.485 224.265L116.692 224.754L118.093 226.877L117.874 231.44H121.348L121.097 226.159L124.959 220.705Z" fill="#CACAEA"/>
<mask id="mask1_29177_135502" style="mask-type:luminance" maskUnits="userSpaceOnUse" x="116" y="213" width="9" height="19">
<path d="M124.959 220.705L124.166 220.216L120.983 223.72L120.805 219.987L122.004 218.171L121.218 217.69L120.716 218.179L120.481 213.238H118.749L118.587 216.522L117.202 215.133L116.417 215.622L118.481 218.748L118.182 224.967L117.485 224.265L116.692 224.754L118.093 226.877L117.874 231.44H121.348L121.097 226.159L124.959 220.705Z" fill="white"/>
</mask>
<g mask="url(#mask1_29177_135502)">
<path d="M123.186 220.586C122.992 221.202 123.502 222.859 124.215 223.088L123.186 220.586Z" fill="#CACAEA"/>
</g>
<path d="M122.352 213.736C122.352 213.736 122.433 210.539 126.182 210.231C129.931 209.924 130.563 212.197 130.797 213.539C130.797 213.539 132.814 213.27 133.955 214.383C135.097 215.496 135.065 217.154 134.352 217.848C134.352 217.848 135.34 219.695 133.996 221.353C132.652 223.01 129.259 222.434 128.393 221.582C128.393 221.582 126.992 222.892 124.409 222.41C121.826 221.921 121.566 220.579 121.566 220.579C121.566 220.579 119.242 219.845 118.886 217.58C118.522 215.315 120.894 213.965 122.36 213.728L122.352 213.736Z" fill="#CACAEA"/>
<path d="M124.239 212.741C124.482 212.978 124.733 213.199 124.919 213.475C125.04 213.664 125.348 213.491 125.227 213.301C125.024 212.994 124.749 212.749 124.49 212.496C124.328 212.338 124.077 212.583 124.239 212.741Z" fill="#CACAEA"/>
<path d="M126.539 212.638C126.919 212.67 127.283 212.599 127.648 212.52C127.875 212.472 127.777 212.141 127.551 212.188C127.211 212.259 126.879 212.322 126.53 212.299C126.304 212.283 126.304 212.63 126.53 212.646L126.539 212.638Z" fill="#CACAEA"/>
<path d="M126.263 215.361C126.49 215.7 126.652 216.079 126.854 216.442C126.968 216.64 127.267 216.466 127.162 216.269C126.96 215.913 126.798 215.535 126.571 215.187C126.449 214.998 126.142 215.172 126.263 215.361Z" fill="#CACAEA"/>
<path d="M129.34 215.49C129.769 215.451 130.19 215.411 130.611 215.332C130.838 215.293 130.741 214.953 130.514 215.001C130.125 215.072 129.729 215.111 129.34 215.151C129.113 215.174 129.113 215.522 129.34 215.498V215.49Z" fill="#CACAEA"/>
<path d="M133.519 215.613C133.259 215.881 133.097 216.221 132.895 216.536C132.774 216.726 133.081 216.899 133.203 216.71C133.381 216.426 133.527 216.102 133.77 215.858C133.932 215.7 133.681 215.447 133.519 215.613Z" fill="#CACAEA"/>
<path d="M130.628 217.697C130.668 217.989 130.709 218.289 130.749 218.581C130.773 218.802 131.13 218.802 131.105 218.581C131.065 218.289 131.024 217.989 130.984 217.697C130.96 217.476 130.603 217.476 130.628 217.697Z" fill="#CACAEA"/>
<path d="M130.207 221.027C130.579 221.027 130.944 220.988 131.316 220.988C131.543 220.988 131.543 220.641 131.316 220.641C130.944 220.641 130.579 220.68 130.207 220.68C129.98 220.68 129.98 221.027 130.207 221.027Z" fill="#CACAEA"/>
<path d="M132.612 219.365C132.814 219.523 133 219.705 133.203 219.863C133.276 219.926 133.381 219.934 133.454 219.863C133.519 219.799 133.527 219.681 133.454 219.618C133.251 219.46 133.065 219.279 132.863 219.121C132.79 219.058 132.685 219.05 132.612 219.121C132.547 219.184 132.539 219.302 132.612 219.365Z" fill="#CACAEA"/>
<path d="M127.915 219.387C127.664 219.592 127.469 219.852 127.243 220.081C127.081 220.239 127.332 220.484 127.494 220.326C127.72 220.097 127.915 219.837 128.166 219.631C128.344 219.489 128.085 219.245 127.915 219.387Z" fill="#CACAEA"/>
<path d="M124.992 217.666C125.243 217.864 125.494 218.069 125.777 218.235C125.972 218.345 126.158 218.045 125.955 217.935C125.696 217.785 125.469 217.603 125.243 217.422C125.065 217.28 124.814 217.524 124.992 217.666Z" fill="#CACAEA"/>
<path d="M123.348 215.921C123.145 216.189 122.846 216.402 122.546 216.552C122.344 216.655 122.522 216.955 122.724 216.852C123.089 216.67 123.413 216.418 123.656 216.094C123.793 215.913 123.485 215.739 123.348 215.921Z" fill="#CACAEA"/>
<path d="M120.563 216.405C120.676 216.791 120.749 217.186 120.757 217.589C120.757 217.81 121.113 217.81 121.113 217.589C121.113 217.154 121.032 216.728 120.911 216.31C120.846 216.097 120.506 216.184 120.571 216.405H120.563Z" fill="#CACAEA"/>
<path d="M122.198 219.689C122.619 219.689 123.008 219.594 123.397 219.437C123.607 219.35 123.429 219.05 123.218 219.137C122.894 219.271 122.554 219.342 122.206 219.342C121.979 219.342 121.979 219.689 122.206 219.689H122.198Z" fill="#CACAEA"/>
<path d="M124.903 220.01V220.933C124.903 221.154 125.259 221.154 125.259 220.933V220.01C125.259 219.788 124.903 219.788 124.903 220.01Z" fill="#CACAEA"/>
<path d="M77.1035 183.68L59.4106 200.847H94.4482L77.1035 183.68Z" fill="white" stroke="#78719E" stroke-width="1.5" stroke-miterlimit="10"/>
<path d="M92.691 200.848H50.8921V231.323H92.691V200.848Z" fill="white" stroke="#78719E" stroke-width="1.5" stroke-miterlimit="10"/>
<path d="M81.9377 222.426H77.8647V231.416H81.9377V222.426Z" fill="white" stroke="#78719E" stroke-width="1.5" stroke-miterlimit="10"/>
<path opacity="0.3" d="M65.0788 200.848H50.8921V231.425H65.0788V200.848Z" fill="white" stroke="#78719E" stroke-width="1.5" stroke-miterlimit="10"/>
<path d="M77.1035 183.68H65.9291L48.2119 200.847H61.686L77.1035 183.68Z" fill="white" stroke="#78719E" stroke-width="1.5" stroke-miterlimit="10"/>
<path d="M73.9133 214.605H72.1724V219.696H73.9133V214.605Z" fill="white" stroke="#78719E" stroke-width="1.5" stroke-miterlimit="10"/>
<path d="M86.9016 214.605H85.1606V219.696H86.9016V214.605Z" fill="white" stroke="#78719E" stroke-width="1.5" stroke-miterlimit="10"/>
<path d="M73.9133 204.359H72.1724V209.45H73.9133V204.359Z" fill="white" stroke="#78719E" stroke-width="1.5" stroke-miterlimit="10"/>
<path d="M59.2165 214.605H57.4756V219.696H59.2165V214.605Z" fill="white" stroke="#78719E" stroke-width="1.5" stroke-miterlimit="10"/>
<path d="M59.2165 204.359H57.4756V209.45H59.2165V204.359Z" fill="white" stroke="#78719E" stroke-width="1.5" stroke-miterlimit="10"/>
<path d="M86.9016 204.359H85.1606V209.45H86.9016V204.359Z" fill="white" stroke="#78719E" stroke-width="1.5" stroke-miterlimit="10"/>
<path d="M92.6912 231.313C92.6912 231.313 92.675 231.21 92.675 231.005C92.675 230.784 92.6669 230.492 92.6588 230.121C92.6507 229.356 92.6426 228.243 92.6426 226.877C92.6426 224.138 92.6912 220.35 92.764 216.166C92.8288 211.991 92.8936 208.21 92.9422 205.455C92.9584 204.098 92.9827 202.993 92.9908 202.211C92.9989 201.84 93.007 201.548 93.007 201.327C93.007 201.122 93.0232 201.02 93.0232 201.02C93.0232 201.02 93.0394 201.122 93.0394 201.327C93.0394 201.548 93.0474 201.84 93.0555 202.211C93.0636 202.977 93.0717 204.09 93.0717 205.455C93.0717 208.194 93.0232 211.983 92.9503 216.166C92.8855 220.342 92.8207 224.122 92.7721 226.877C92.7559 228.235 92.7316 229.34 92.7236 230.121C92.7155 230.492 92.7074 230.784 92.7074 231.005C92.7074 231.21 92.6912 231.313 92.6912 231.313Z" fill="white" stroke="#78719E" stroke-width="1.5" stroke-miterlimit="10"/>
<path d="M50.8919 231.424C50.8354 231.424 50.7707 224.605 50.7384 216.191C50.706 207.777 50.7303 200.957 50.7788 200.957C50.8354 200.957 50.9 207.777 50.9243 216.191C50.9566 224.605 50.9324 231.424 50.8839 231.424H50.8919Z" fill="white" stroke="#78719E" stroke-width="1.5" stroke-miterlimit="10"/>
<path d="M65.0301 231.534C64.9735 231.534 64.9331 224.707 64.9331 216.277C64.9331 207.847 64.9735 201.02 65.0301 201.02C65.0867 201.02 65.1271 207.847 65.1271 216.277C65.1271 224.707 65.0867 231.534 65.0301 231.534Z" fill="white" stroke="#78719E" stroke-width="1.5" stroke-miterlimit="10"/>
<path d="M0 231.699H115.834H541.475H623.542" fill="white"/>
<path d="M0 231.699H115.834H541.475H623.542" stroke="#BF6740" stroke-width="1.5" stroke-miterlimit="10"/>
<path d="M3.31982 173.536H52.459H101.598C101.598 173.536 115.728 173.449 121.623 163.859C121.623 163.859 127.016 154.679 143.583 155.082C143.583 155.082 166.944 158.997 170.912 139.959L214.12 48.715C214.12 48.715 229.74 4.19823 267.652 1.54616C267.652 1.54616 295.313 0.29117 309.054 31.153C309.054 31.153 313.135 40.38 314.172 47.6258C314.172 47.6258 319.808 69.7579 334.043 70.0894C334.043 70.0894 358.44 69.1659 364.109 88.3065C364.109 88.3065 367.833 106.042 367.833 116.319C367.833 116.319 374.23 203.798 441.763 193.702L636.992 194.618" stroke="url(#paint1_linear_29177_135502)" stroke-width="4" stroke-miterlimit="10"/>
<path d="M555.783 208.269L547.366 195.227L520.423 195.261L528.826 207.823L528.769 231.372H555.711L555.783 208.269Z" fill="white" stroke="#78719E" stroke-width="1.5" stroke-miterlimit="10"/>
<path d="M529.032 231.544L529.089 207.929L520.841 195.398L511.545 207.244V231.421H516.9H529.032H555.478L555.548 208.375" fill="white"/>
<path d="M529.032 231.544L529.089 207.929L520.841 195.398L511.545 207.244V231.421H516.9H529.032H555.478L555.548 208.375" stroke="#78719E" stroke-width="1.5" stroke-miterlimit="10"/>
<path d="M528.591 208.299L536.506 208.334L542.199 199.846L547.648 208.757H555.548L547.131 195.398L520.188 195.434L528.591 208.299Z" fill="white" stroke="#78719E" stroke-width="1.5" stroke-miterlimit="10"/>
<path d="M536.488 207.971L531.189 200.602L542.19 200.113L536.488 207.971Z" fill="white" stroke="#78719E" stroke-width="1.5" stroke-miterlimit="10"/>
<path d="M542.976 204.828H541.404V208.757H542.976V204.828Z" fill="white" stroke="#78719E" stroke-width="1.5" stroke-miterlimit="10"/>
<path d="M535.118 212.684H534.332V216.612H535.118V212.684Z" fill="white" stroke="#78719E" stroke-width="1.5" stroke-miterlimit="10"/>
<path d="M520.974 203.254H519.402V207.183H520.974V203.254Z" fill="white" stroke="#78719E" stroke-width="1.5" stroke-miterlimit="10"/>
<path d="M520.974 227.613H517.831V231.542H520.974V227.613Z" fill="white" stroke="#78719E" stroke-width="1.5" stroke-miterlimit="10"/>
<path d="M524.117 212.684H522.545V215.827H524.117V212.684Z" fill="white" stroke="#78719E" stroke-width="1.5" stroke-miterlimit="10"/>
<path d="M524.117 221.328H522.545V225.257H524.117V221.328Z" fill="white" stroke="#78719E" stroke-width="1.5" stroke-miterlimit="10"/>
<path d="M517.045 212.684H515.474V215.827H517.045V212.684Z" fill="white" stroke="#78719E" stroke-width="1.5" stroke-miterlimit="10"/>
<path d="M517.045 221.328H515.474V225.257H517.045V221.328Z" fill="white" stroke="#78719E" stroke-width="1.5" stroke-miterlimit="10"/>
<path d="M542.976 212.684H541.404V215.827H542.976V212.684Z" fill="white" stroke="#78719E" stroke-width="1.5" stroke-miterlimit="10"/>
<path d="M550.048 212.684H548.476V215.827H550.048V212.684Z" fill="white" stroke="#78719E" stroke-width="1.5" stroke-miterlimit="10"/>
<path d="M535.118 222.113H534.332V226.042H535.118V222.113Z" fill="white" stroke="#78719E" stroke-width="1.5" stroke-miterlimit="10"/>
<path d="M542.976 222.113H541.404V226.042H542.976V222.113Z" fill="white" stroke="#78719E" stroke-width="1.5" stroke-miterlimit="10"/>
<path d="M550.048 222.113H548.476V226.042H550.048V222.113Z" fill="white" stroke="#78719E" stroke-width="1.5" stroke-miterlimit="10"/>
</g>
<defs>
<radialGradient id="paint0_radial_29177_135502" cx="0" cy="0" r="1" gradientUnits="userSpaceOnUse" gradientTransform="translate(278.933 145.808) rotate(96.0381) scale(79.7275 92.039)">
<stop stop-color="#E94301" stop-opacity="0.5"/>
<stop offset="0.325" stop-color="#E9CA01" stop-opacity="0.7"/>
<stop offset="1" stop-color="white" stop-opacity="0"/>
</radialGradient>
<linearGradient id="paint1_linear_29177_135502" x1="3.31982" y1="98.0781" x2="637" y2="98.0781" gradientUnits="userSpaceOnUse">
<stop offset="0.09" stop-color="#CACAEA"/>
<stop offset="0.265" stop-color="#FFE018"/>
<stop offset="0.395" stop-color="#FF3317"/>
<stop offset="0.59" stop-color="#FFE018"/>
<stop offset="0.89" stop-color="#D5D5ED"/>
</linearGradient>
<clipPath id="clip0_29177_135502">
<rect width="637" height="231.803" fill="white" transform="translate(0 0.355469)"/>
</clipPath>
</defs>
</svg>
