<svg width="37" height="31" viewBox="0 0 37 31" fill="none" xmlns="http://www.w3.org/2000/svg">
<g clip-path="url(#clip0_29177_136819)">
<path d="M36.9171 15.6586L32.5682 8.96048C32.4692 8.80812 32.2958 8.71517 32.1093 8.71517H28.108V5.09981C29.3191 4.85729 30.2318 3.81804 30.2318 2.57681C30.2318 1.15597 29.0359 0 27.566 0C26.0961 0 24.9015 1.15597 24.9015 2.57681C24.9015 3.81804 25.8135 4.85659 27.024 5.09981V8.71517H17.4892C17.1901 8.71517 16.9473 8.95 16.9473 9.23934C16.9473 9.52868 17.1901 9.7635 17.4892 9.7635H21.2868L25.2954 15.9375L21.2868 22.1136H18.0276V19.3334C18.0276 19.0441 17.7848 18.8092 17.4856 18.8092C17.1865 18.8092 16.9436 19.0441 16.9436 19.3334V22.1136H12.044L15.8719 16.2164C15.9825 16.0458 15.9825 15.8292 15.8719 15.6586L12.044 9.7635H14.9889C15.288 9.7635 15.5308 9.52868 15.5308 9.23934C15.5308 8.95 15.288 8.71517 14.9889 8.71517H6.32059V5.09981C7.53032 4.85729 8.44304 3.81804 8.44304 2.57681C8.44231 1.15597 7.24704 0 5.77788 0C4.30872 0 3.11345 1.15597 3.11345 2.57681C3.11345 3.81804 4.02544 4.85659 5.23589 5.09981V8.71517H0.542235C0.344949 8.71517 0.163563 8.8186 0.068172 8.98564C-0.0272187 9.15267 -0.0214374 9.35605 0.0833478 9.51819L4.24946 15.9382L0.0833478 22.3596C-0.0214374 22.5211 -0.0272187 22.7251 0.068172 22.8922C0.163563 23.0592 0.344949 23.1626 0.542235 23.1626H3.54704C3.84622 23.1626 4.08903 22.9278 4.08903 22.6385C4.08903 22.3491 3.84622 22.1143 3.54704 22.1143H1.52216L5.34862 16.2164C5.45919 16.0458 5.45919 15.8292 5.34862 15.6593L1.52288 9.7635H5.23661V11.6666C5.23661 11.9559 5.47942 12.1908 5.7786 12.1908C6.07778 12.1908 6.32059 11.9559 6.32059 11.6666V9.7635H10.7642L14.7728 15.9375L10.7642 22.1136H6.04888C5.7497 22.1136 5.50688 22.3484 5.50688 22.6378C5.50688 22.9271 5.7497 23.1619 6.04888 23.1619H16.9436V25.8981C15.7339 26.1413 14.8212 27.1806 14.8212 28.4232C14.8212 29.844 16.0165 31 17.4856 31C18.9548 31 20.1501 29.844 20.1501 28.4232C20.1501 27.1813 19.2381 26.1413 18.0276 25.8981V23.1619H32.11C32.2965 23.1619 32.4699 23.069 32.5689 22.9166L36.9179 16.2164C37.0284 16.0458 37.0284 15.8292 36.9179 15.6586H36.9171ZM25.9855 2.57681C25.9855 1.73395 26.6944 1.04834 27.566 1.04834C28.4375 1.04834 29.1479 1.73395 29.1479 2.57681C29.1479 3.41967 28.4382 4.10528 27.566 4.10528C26.6944 4.10528 25.9855 3.41967 25.9855 2.57681ZM4.19815 2.57681C4.19815 1.73395 4.90708 1.04834 5.7786 1.04834C6.65013 1.04834 7.35905 1.73395 7.35905 2.57681C7.35905 3.41967 6.65013 4.10528 5.7786 4.10528C4.90708 4.10528 4.19815 3.41967 4.19815 2.57681ZM19.0654 28.4232C19.0654 29.2661 18.3564 29.9517 17.4849 29.9517C16.6134 29.9517 15.9045 29.2661 15.9045 28.4232C15.9045 27.5803 16.6134 26.8926 17.4849 26.8926C18.3564 26.8926 19.0654 27.5789 19.0654 28.4232ZM31.8094 22.1136H22.5659L26.3938 16.2164C26.5044 16.0458 26.5044 15.8292 26.3938 15.6586L22.5659 9.7635H27.0233V11.6666C27.0233 11.9559 27.2661 12.1908 27.5652 12.1908C27.8644 12.1908 28.1072 11.9559 28.1072 11.6666V9.7635H31.8094L35.818 15.9375L31.8094 22.1136Z" fill="#000091"/>
</g>
<defs>
<clipPath id="clip0_29177_136819">
<rect width="37" height="31" fill="white"/>
</clipPath>
</defs>
</svg>
