<svg width="602" height="259" viewBox="0 0 602 259" fill="none" xmlns="http://www.w3.org/2000/svg">
<g clip-path="url(#clip0_29177_135975)">
<path d="M30.5081 146.213C46.9133 146.213 60.2124 132.914 60.2124 116.509C60.2124 100.104 46.9133 86.8047 30.5081 86.8047C14.1028 86.8047 0.803711 100.104 0.803711 116.509C0.803711 132.914 14.1028 146.213 30.5081 146.213Z" fill="white" stroke="#BF6740" stroke-width="2" stroke-miterlimit="10"/>
<path d="M45.7459 110.334L30.4918 128.417L14.8521 107.875" stroke="#BF6740" stroke-width="1.2" stroke-miterlimit="10" stroke-linecap="round"/>
<path d="M22.5356 110.32C22.4391 110.578 22.1659 110.69 21.9087 110.61L14.9809 108.054L15.5917 115.4C15.6078 115.673 15.4149 115.898 15.1577 115.914C14.9005 115.93 14.6594 115.737 14.6434 115.48L13.9683 107.379C13.9683 107.218 14.0326 107.057 14.1611 106.961C14.2897 106.865 14.4666 106.832 14.6273 106.897L22.2623 109.71C22.3588 109.742 22.4231 109.806 22.4713 109.87C22.5677 109.999 22.5999 110.176 22.5356 110.337V110.32Z" fill="#BF6740"/>
</g>
<g clip-path="url(#clip1_29177_135975)">
<path d="M56.5081 233.213C72.9133 233.213 86.2124 219.914 86.2124 203.509C86.2124 187.104 72.9133 173.805 56.5081 173.805C40.1028 173.805 26.8037 187.104 26.8037 203.509C26.8037 219.914 40.1028 233.213 56.5081 233.213Z" fill="white" stroke="#BF6740" stroke-width="2" stroke-miterlimit="10"/>
<path d="M62.2784 191.63C61.8284 191.63 61.4426 191.26 61.4426 190.794C61.4426 190.328 61.8123 189.958 62.2784 189.958H66.6987C67.1488 189.958 67.5346 190.328 67.5346 190.794C67.5346 191.26 67.1649 191.63 66.6987 191.63H62.2784ZM50.416 188.592C50.416 186.004 52.5216 183.898 55.1095 183.898C57.6974 183.898 59.8031 186.004 59.8031 188.592V211.127C61.2015 212.413 62.0052 214.23 62.0052 216.191C62.0052 220 58.919 223.086 55.1095 223.086C51.3 223.086 48.2139 220 48.2139 216.191C48.2139 214.246 49.0336 212.429 50.416 211.127V188.592ZM52.0716 211.899L51.7662 212.14C50.5606 213.137 49.8534 214.599 49.8534 216.191C49.8534 219.084 52.2002 221.431 55.0934 221.431C57.9867 221.431 60.3335 219.084 60.3335 216.191C60.3335 214.599 59.6263 213.137 58.4207 212.14L58.1153 211.899V188.592C58.1153 186.92 56.749 185.554 55.0774 185.554C53.4057 185.554 52.0394 186.92 52.0394 188.592V211.899H52.0716ZM62.2784 208.186C61.8284 208.186 61.4426 207.816 61.4426 207.35C61.4426 206.884 61.8123 206.514 62.2784 206.514H66.6987C67.1488 206.514 67.5346 206.884 67.5346 207.35C67.5346 207.816 67.1649 208.186 66.6987 208.186H62.2784ZM62.2784 202.673C61.8284 202.673 61.4426 202.303 61.4426 201.837C61.4426 201.371 61.8123 201.001 62.2784 201.001H66.6987C67.1488 201.001 67.5346 201.371 67.5346 201.837C67.5346 202.303 67.1649 202.673 66.6987 202.673H62.2784ZM62.2784 197.159C61.8284 197.159 61.4426 196.79 61.4426 196.323C61.4426 195.857 61.8123 195.488 62.2784 195.488H66.6987C67.1488 195.488 67.5346 195.857 67.5346 196.323C67.5346 196.79 67.1649 197.159 66.6987 197.159H62.2784ZM54.2737 212.703V201.515C54.2737 201.065 54.6434 200.679 55.1095 200.679C55.5757 200.679 55.9454 201.049 55.9454 201.515V212.703C57.5206 213.072 58.71 214.503 58.71 216.191C58.71 218.168 57.1027 219.775 55.1256 219.775C53.1485 219.775 51.5411 218.168 51.5411 216.191C51.5411 214.487 52.7145 213.072 54.3058 212.703H54.2737ZM55.1095 218.12C56.1704 218.12 57.0384 217.252 57.0384 216.191C57.0384 215.13 56.1704 214.262 55.1095 214.262C54.0487 214.262 53.1807 215.13 53.1807 216.191C53.1807 217.252 54.0487 218.12 55.1095 218.12Z" fill="#BF6740"/>
</g>
<g clip-path="url(#clip2_29177_135975)">
<path d="M177.508 119.213C193.913 119.213 207.212 105.914 207.212 89.509C207.212 73.1038 193.913 59.8047 177.508 59.8047C161.103 59.8047 147.804 73.1038 147.804 89.509C147.804 105.914 161.103 119.213 177.508 119.213Z" fill="white" stroke="#BF6740" stroke-width="2" stroke-miterlimit="10"/>
<path d="M177.508 80.4922C172.429 80.4922 168.298 84.6231 168.298 89.7025C168.298 94.7818 172.429 98.9127 177.508 98.9127C182.587 98.9127 186.718 94.7818 186.718 89.7025C186.718 84.6231 182.587 80.4922 177.508 80.4922ZM177.508 97.0803C173.441 97.0803 170.146 93.7852 170.146 89.7185C170.146 85.6519 173.441 82.3567 177.508 82.3567C181.575 82.3567 184.87 85.6519 184.87 89.7185C184.87 93.7852 181.575 97.0803 177.508 97.0803Z" fill="#BF6740"/>
<path d="M177.508 78.643C178.022 78.643 178.424 78.2251 178.424 77.7268V72.1975C178.424 71.6831 178.006 71.2812 177.508 71.2812C177.01 71.2812 176.592 71.6992 176.592 72.1975V77.7268C176.592 78.2412 177.01 78.643 177.508 78.643Z" fill="#BF6740"/>
<path d="M168.555 82.0645C168.732 82.2413 168.973 82.3378 169.214 82.3378C169.455 82.3378 169.68 82.2413 169.873 82.0645C170.227 81.7109 170.227 81.1161 169.873 80.7625L166.192 77.0816C165.839 76.728 165.244 76.728 164.89 77.0816C164.537 77.4352 164.537 78.03 164.89 78.3836L168.571 82.0645H168.555Z" fill="#BF6740"/>
<path d="M166.449 89.7014C166.449 89.187 166.031 88.7852 165.533 88.7852H160.004C159.489 88.7852 159.087 89.2031 159.087 89.7014C159.087 90.1996 159.505 90.6176 160.004 90.6176H165.533C166.047 90.6176 166.449 90.1996 166.449 89.7014Z" fill="#BF6740"/>
<path d="M168.555 97.3355L164.874 101.016C164.52 101.37 164.52 101.965 164.874 102.318C165.051 102.495 165.292 102.592 165.533 102.592C165.774 102.592 165.999 102.495 166.192 102.318L169.873 98.6375C170.227 98.2839 170.227 97.6892 169.873 97.3355C169.519 96.9819 168.925 96.9819 168.571 97.3355H168.555Z" fill="#BF6740"/>
<path d="M177.508 100.758C176.994 100.758 176.592 101.176 176.592 101.674V107.203C176.592 107.718 177.01 108.12 177.508 108.12C178.006 108.12 178.424 107.702 178.424 107.203V101.674C178.424 101.16 178.006 100.758 177.508 100.758Z" fill="#BF6740"/>
<path d="M186.445 97.3355C186.092 96.9819 185.497 96.9819 185.143 97.3355C184.79 97.6892 184.79 98.2839 185.143 98.6375L188.824 102.318C189.001 102.495 189.242 102.592 189.483 102.592C189.724 102.592 189.949 102.495 190.142 102.318C190.496 101.965 190.496 101.37 190.142 101.016L186.461 97.3355H186.445Z" fill="#BF6740"/>
<path d="M194.996 88.7852H189.467C188.953 88.7852 188.551 89.2031 188.551 89.7014C188.551 90.1996 188.969 90.6176 189.467 90.6176H194.996C195.511 90.6176 195.913 90.1996 195.913 89.7014C195.913 89.2031 195.495 88.7852 194.996 88.7852Z" fill="#BF6740"/>
<path d="M185.786 82.3378C186.027 82.3378 186.252 82.2413 186.445 82.0645L190.126 78.3836C190.48 78.03 190.48 77.4352 190.126 77.0816C189.772 76.728 189.178 76.728 188.824 77.0816L185.143 80.7625C184.79 81.1161 184.79 81.7109 185.143 82.0645C185.32 82.2413 185.561 82.3378 185.802 82.3378H185.786Z" fill="#BF6740"/>
</g>
<g clip-path="url(#clip3_29177_135975)">
<path d="M110.508 159.213C126.913 159.213 140.212 145.914 140.212 129.509C140.212 113.104 126.913 99.8047 110.508 99.8047C94.1028 99.8047 80.8037 113.104 80.8037 129.509C80.8037 145.914 94.1028 159.213 110.508 159.213Z" fill="white" stroke="#BF6740" stroke-width="2" stroke-miterlimit="10"/>
<path d="M104.239 131.438C95.1737 131.438 89.5318 127.966 89.3068 127.821C88.9853 127.628 88.8889 127.211 89.0978 126.889C89.2907 126.568 89.7086 126.471 90.0301 126.68C90.0783 126.712 95.6077 130.088 104.255 130.088C108.242 130.088 111.456 128.898 113.578 126.648C115.475 124.639 116.423 121.81 116.23 118.724C116.23 118.499 116.134 114.335 110.347 114.335C110.138 114.335 105.091 114.416 105.091 119.704C105.091 119.736 105.059 121.472 106.216 122.662C106.972 123.433 108.097 123.835 109.544 123.835C109.817 123.835 112.341 123.69 112.341 120.492C112.341 120.267 112.228 118.257 109.785 118.257C109.624 118.257 107.824 118.483 107.872 120.588C107.872 120.958 107.583 121.263 107.213 121.279H107.197C106.827 121.279 106.538 120.99 106.522 120.62C106.458 117.856 108.595 116.988 109.737 116.907C112.855 116.907 113.675 119.254 113.691 120.476C113.691 124.173 110.974 125.169 109.544 125.169C107.711 125.169 106.265 124.639 105.236 123.578C103.677 121.971 103.741 119.752 103.741 119.656C103.741 113.033 110.283 112.953 110.347 112.953C112.791 112.953 114.671 113.612 115.957 114.882C117.581 116.505 117.581 118.563 117.581 118.643C117.79 122.067 116.713 125.25 114.559 127.532C112.18 130.056 108.611 131.39 104.255 131.39L104.239 131.438ZM128.559 136.389C129.813 136.389 130.825 135.987 131.581 135.183C133.027 133.688 132.947 131.342 132.947 131.261C132.947 127.146 129.507 126.037 127.675 126.021C123.431 126.021 120.024 127.837 116.391 129.766C112.646 131.759 108.788 133.817 103.773 133.817C90.7695 133.817 85.9795 130.072 85.9152 130.023C85.6259 129.782 85.208 129.831 84.9669 130.12C84.7258 130.409 84.774 130.827 85.0633 131.068C85.2723 131.229 90.1748 135.183 103.773 135.183C109.126 135.183 113.144 133.045 117.034 130.972C120.49 129.123 123.769 127.387 127.675 127.387C127.836 127.387 131.597 127.468 131.597 131.309C131.597 131.325 131.645 133.19 130.6 134.267C130.086 134.797 129.411 135.038 128.527 135.038H128.463C128.463 135.038 127.177 135.135 126.389 134.412C125.939 133.994 125.714 133.367 125.714 132.563C125.714 132.37 125.842 130.666 128.077 130.666C128.446 130.666 128.752 130.361 128.752 129.991C128.752 129.622 128.446 129.316 128.077 129.316C125.232 129.316 124.412 131.406 124.364 132.547C124.364 133.785 124.749 134.749 125.489 135.424C126.453 136.308 127.755 136.405 128.318 136.405C128.43 136.405 128.511 136.405 128.559 136.405V136.389ZM118.866 148.942C121.615 148.942 124.09 147.287 125.151 144.763C126.26 142.127 125.569 139.153 123.287 136.823C119.847 133.286 115.121 134.813 110.556 136.292C108.21 137.048 105.782 137.835 103.693 137.835C97.7777 137.835 94.5468 136.212 94.4986 136.196C94.1611 136.019 93.7592 136.148 93.5824 136.485C93.4056 136.823 93.5342 137.225 93.8717 137.401C94.0164 137.482 97.3919 139.202 103.693 139.202C106.007 139.202 108.531 138.382 110.974 137.594C115.346 136.18 119.461 134.846 122.322 137.787C124.235 139.748 124.814 142.111 123.898 144.265C123.046 146.306 121.053 147.608 118.834 147.608H118.77C118.77 147.608 117.034 147.769 115.78 146.628C114.912 145.84 114.462 144.57 114.462 142.882C114.462 142.882 114.462 141.693 115.25 140.873C115.796 140.327 116.6 140.054 117.661 140.054C117.661 140.037 118.866 140.054 119.574 140.745C119.959 141.13 120.152 141.645 120.152 142.352C120.152 142.69 120.04 143.638 119.461 144.072C119.027 144.393 118.384 144.41 117.516 144.136C117.163 144.024 116.777 144.217 116.664 144.586C116.552 144.94 116.745 145.326 117.114 145.438C118.432 145.84 119.493 145.76 120.281 145.149C121.535 144.217 121.503 142.4 121.503 142.336C121.503 141.275 121.165 140.407 120.522 139.78C119.381 138.671 117.693 138.703 117.645 138.703C116.214 138.703 115.073 139.121 114.269 139.941C113.08 141.163 113.112 142.834 113.112 142.899C113.112 144.972 113.707 146.563 114.864 147.624C116.182 148.83 117.854 148.974 118.561 148.974C118.706 148.974 118.802 148.974 118.85 148.974L118.866 148.942Z" fill="#BF6740"/>
</g>
<g clip-path="url(#clip4_29177_135975)">
<path d="M174.508 225.213C190.913 225.213 204.212 211.914 204.212 195.509C204.212 179.104 190.913 165.805 174.508 165.805C158.103 165.805 144.804 179.104 144.804 195.509C144.804 211.914 158.103 225.213 174.508 225.213Z" fill="white" stroke="#BF6740" stroke-width="2" stroke-miterlimit="10"/>
<path d="M192.238 193.32C192.238 190.346 189.875 187.903 186.917 187.807C186.612 184.865 184.136 182.583 181.115 182.583C180.488 182.583 179.861 182.695 179.266 182.888C177.546 180.397 174.765 178.918 171.727 178.918C166.761 178.918 162.71 182.904 162.565 187.855C161.376 188.016 160.267 188.562 159.399 189.43C158.354 190.475 157.792 191.857 157.792 193.336C157.792 195.892 159.511 198.046 161.89 198.657L161.649 199.123C160.91 200.521 161.167 202.225 162.292 203.35C162.999 204.057 163.916 204.395 164.832 204.395C165.748 204.395 166.68 204.041 167.371 203.35C168.497 202.225 168.754 200.521 168.014 199.123L167.87 198.833H182.175L182.031 199.123C181.291 200.521 181.549 202.225 182.674 203.35C183.349 204.025 184.249 204.411 185.213 204.411C186.178 204.411 187.078 204.041 187.753 203.35C188.878 202.225 189.135 200.521 188.396 199.123L188.139 198.657C189.071 198.415 189.939 197.917 190.63 197.226C191.659 196.181 192.222 194.799 192.222 193.336L192.238 193.32ZM166.52 202.482C165.603 203.414 164.092 203.414 163.16 202.482C162.421 201.743 162.244 200.618 162.742 199.685L164.832 195.699L166.921 199.685C167.404 200.618 167.243 201.743 166.503 202.482H166.52ZM186.885 202.482C185.985 203.382 184.426 203.382 183.526 202.482C182.786 201.743 182.609 200.618 183.108 199.685L185.197 195.699L187.287 199.685C187.785 200.618 187.608 201.743 186.869 202.482H186.885ZM187.528 197.515L185.728 194.108C185.519 193.706 184.86 193.706 184.651 194.108L182.802 197.596H167.211L165.362 194.108C165.153 193.706 164.494 193.706 164.285 194.108L162.485 197.531C160.476 197.162 159.013 195.41 159.013 193.32C159.013 192.179 159.463 191.102 160.267 190.282C161.038 189.511 162.083 189.061 163.192 189.028C163.53 189.028 163.787 188.739 163.787 188.402V188.08C163.787 183.692 167.339 180.124 171.727 180.124C174.508 180.124 177.048 181.554 178.495 183.933C179.25 185.187 179.652 186.617 179.652 188.08C179.652 188.418 179.925 188.691 180.263 188.691C180.6 188.691 180.873 188.418 180.873 188.08C180.873 186.633 180.536 185.235 179.893 183.965C180.295 183.853 180.697 183.804 181.098 183.804C183.638 183.804 185.712 185.878 185.712 188.418C185.712 188.755 185.985 189.028 186.322 189.028H186.708C189.071 189.028 191 190.957 191 193.32C191 194.461 190.55 195.538 189.746 196.358C189.135 196.969 188.364 197.371 187.528 197.531V197.515Z" fill="#BF6740"/>
<path d="M175.569 201.149C175.36 200.747 174.701 200.747 174.492 201.149L171.856 206.148C171.116 207.546 171.374 209.25 172.499 210.375C173.174 211.05 174.074 211.436 175.038 211.436C176.003 211.436 176.903 211.067 177.578 210.375C178.703 209.25 178.96 207.546 178.221 206.148L175.585 201.149H175.569ZM176.694 209.507C175.794 210.408 174.235 210.408 173.335 209.507C172.595 208.768 172.418 207.643 172.917 206.711L175.006 202.74L177.096 206.727C177.594 207.643 177.417 208.784 176.678 209.507H176.694Z" fill="#BF6740"/>
</g>
<g clip-path="url(#clip5_29177_135975)">
<path d="M524.008 238.224C540.144 238.224 553.225 225.143 553.225 209.006C553.225 192.87 540.144 179.789 524.008 179.789C507.872 179.789 494.791 192.87 494.791 209.006C494.791 225.143 507.872 238.224 524.008 238.224Z" fill="white" stroke="#78719E" stroke-width="2" stroke-miterlimit="10"/>
<path d="M518.506 198.098C516.419 198.098 514.332 198.904 512.735 200.501C509.541 203.71 509.541 208.896 512.735 212.106L513.067 212.438L523.407 222.825C523.565 222.983 523.786 223.078 524.008 223.078C524.229 223.078 524.451 222.983 524.609 222.825L534.949 212.438L535.281 212.106C538.474 208.896 538.474 203.71 535.281 200.501C533.684 198.904 531.597 198.098 529.51 198.098C527.534 198.098 525.573 198.809 524.008 200.232C522.458 198.809 520.482 198.082 518.506 198.082V198.098ZM529.494 199.79C531.138 199.79 532.783 200.422 534.063 201.703C536.609 204.264 536.609 208.343 534.063 210.888L533.747 211.205L524.008 220.991L514.269 211.205L513.952 210.888C511.423 208.327 511.423 204.248 513.952 201.703C515.217 200.422 516.862 199.805 518.522 199.805C520.182 199.805 521.81 200.438 523.091 201.703L523.423 202.035C523.581 202.193 523.802 202.288 524.024 202.288C524.245 202.288 524.466 202.193 524.624 202.035L524.956 201.703C526.221 200.422 527.881 199.79 529.526 199.79H529.494Z" fill="#78719E"/>
</g>
<g clip-path="url(#clip6_29177_135975)">
<path d="M485.508 164.213C501.913 164.213 515.212 150.914 515.212 134.509C515.212 118.104 501.913 104.805 485.508 104.805C469.103 104.805 455.804 118.104 455.804 134.509C455.804 150.914 469.103 164.213 485.508 164.213Z" fill="white" stroke="#78719E" stroke-width="2" stroke-miterlimit="10"/>
<path fill-rule="evenodd" clip-rule="evenodd" d="M480.413 117.471C480.75 120.846 483.065 122.888 485.492 122.92C487.919 122.888 490.234 120.846 490.571 117.471L494.059 118.58C496.117 119.239 497.017 120.155 498.608 121.618L504.684 127.211L500.328 132.532L497.499 129.928V126.504C497.547 125.588 496.133 125.588 496.181 126.504V151.499H474.787V126.504C474.787 126.134 474.497 125.829 474.112 125.829C473.742 125.829 473.453 126.134 473.469 126.504V129.928L470.64 132.532L466.284 127.211L472.36 121.618C473.967 120.139 474.867 119.223 476.909 118.564L480.397 117.455L480.413 117.471ZM481.715 117.39C482.968 117.664 484.19 117.776 485.492 117.776C486.794 117.776 488.016 117.664 489.269 117.39C488.98 120.187 487.18 121.586 485.492 121.602C483.804 121.586 482.004 120.187 481.715 117.39ZM489.993 115.895C489.864 115.895 489.751 115.928 489.639 115.992C488.257 116.345 486.955 116.458 485.476 116.458C483.981 116.458 482.663 116.329 481.248 115.96C481.168 115.928 481.088 115.912 481.007 115.912C480.911 115.912 480.814 115.944 480.718 115.976L476.523 117.31C474.224 118.033 473.051 119.174 471.476 120.637L464.95 126.665C464.692 126.906 464.66 127.292 464.885 127.565L470.077 133.914C470.318 134.203 470.752 134.236 471.042 133.978L473.501 131.712V152.158C473.501 152.528 473.79 152.817 474.16 152.817H496.856C497.226 152.817 497.515 152.528 497.515 152.158V131.712L499.974 133.978C500.248 134.236 500.698 134.203 500.939 133.914L506.131 127.565C506.356 127.292 506.324 126.906 506.066 126.665L499.54 120.637C497.949 119.174 496.792 118.033 494.493 117.294L490.394 115.992C490.282 115.912 490.153 115.879 490.025 115.863L489.993 115.895Z" fill="#78719E"/>
</g>
<g clip-path="url(#clip7_29177_135975)">
<path d="M572.008 159.224C588.144 159.224 601.225 146.143 601.225 130.006C601.225 113.87 588.144 100.789 572.008 100.789C555.872 100.789 542.791 113.87 542.791 130.006C542.791 146.143 555.872 159.224 572.008 159.224Z" fill="white" stroke="#78719E" stroke-width="2" stroke-miterlimit="10"/>
<path d="M575.881 112.427C575.881 110.34 574.174 108.633 572.087 108.633C570 108.633 568.292 110.34 568.292 112.427C568.292 114.514 570 116.222 572.087 116.222C574.174 116.222 575.881 114.514 575.881 112.427ZM574.917 112.427C574.917 113.992 573.652 115.257 572.087 115.257C570.522 115.257 569.257 113.992 569.257 112.427C569.257 110.862 570.522 109.597 572.087 109.597C573.652 109.597 574.917 110.862 574.917 112.427Z" fill="#78719E" stroke="#78719E" stroke-width="0.15" stroke-miterlimit="10"/>
<path d="M561.067 147.098C561.067 147.968 561.526 148.774 562.284 149.201C562.664 149.422 563.091 149.533 563.502 149.533C564.34 149.533 565.162 149.09 565.605 148.315L572.118 137.027L575.613 141.138L577.257 147.715C577.526 148.806 578.49 149.564 579.613 149.564C579.818 149.564 580.008 149.533 580.198 149.485C581.494 149.153 582.284 147.841 581.968 146.545L580.213 139.493C580.087 139.082 579.945 138.908 579.865 138.782L575.122 133.059C575.186 132.821 575.201 132.553 575.201 132.3V129.169L576.087 130.149C576.514 130.608 577.099 130.845 577.684 130.845C578.205 130.845 578.727 130.655 579.138 130.276C579.597 129.865 579.834 129.296 579.834 128.679C579.834 128.062 579.628 127.636 579.281 127.24L575.201 122.766V121.138C575.201 120.047 574.822 119.035 574.111 118.292C573.478 117.644 572.656 117.201 571.786 117.074C571.486 117.027 571.154 117.074 570.885 117.122C570.775 117.122 570.49 117.232 570.032 117.422C568.53 118.134 564.292 120.379 564.118 120.474C563.186 120.964 562.901 122.086 562.964 122.972L563.012 127.509C563.012 128.695 563.976 129.659 565.162 129.659C565.731 129.659 566.284 129.438 566.68 129.027C567.091 128.616 567.312 128.078 567.312 127.509V123.683L568.229 123.209V132.173C568.229 132.647 568.324 133.106 568.498 133.533L561.367 145.881C561.162 146.244 561.051 146.671 561.051 147.098H561.067ZM575.201 127.715V124.205L578.553 127.889C578.743 128.11 578.854 128.379 578.854 128.679C578.854 129.011 578.711 129.327 578.458 129.549C577.984 129.991 577.225 129.96 576.798 129.47L575.186 127.699L575.201 127.715ZM571.502 134.798L571.328 134.766C570.553 134.64 569.873 134.118 569.51 133.375C569.32 133.011 569.225 132.6 569.225 132.173V121.612L566.364 123.098V127.509C566.364 127.825 566.237 128.126 566.016 128.347C565.794 128.568 565.494 128.695 565.178 128.695C564.53 128.695 564.008 128.157 564.008 127.509L563.96 122.94C563.929 122.323 564.103 121.596 564.593 121.343C564.64 121.311 568.988 119.003 570.458 118.308C570.727 118.181 570.949 118.102 571.012 118.086C571.012 118.086 571.043 118.086 571.059 118.086C571.265 118.055 571.423 118.039 571.549 118.039C571.597 118.039 571.628 118.039 571.66 118.039C572.308 118.134 572.941 118.466 573.415 118.956C573.937 119.509 574.237 120.3 574.237 121.138V132.284C574.237 132.537 574.205 132.79 574.126 133.011L574.047 133.264L579.107 139.367C579.107 139.367 579.217 139.525 579.296 139.762L581.051 146.782C581.241 147.557 580.767 148.347 579.992 148.553C579.881 148.584 579.755 148.6 579.644 148.6C578.964 148.6 578.395 148.142 578.237 147.493L576.53 140.695L571.518 134.813L571.502 134.798ZM562.047 147.098C562.047 146.845 562.111 146.592 562.237 146.371L569.083 134.497C569.573 135.098 570.237 135.509 570.964 135.683L571.439 136.236L564.751 147.825C564.356 148.521 563.454 148.758 562.759 148.363C562.3 148.094 562.032 147.636 562.032 147.098H562.047Z" fill="#78719E" stroke="#78719E" stroke-width="0.15" stroke-miterlimit="10"/>
</g>
<ellipse cx="328" cy="129.323" rx="134.278" ry="127.214" fill="white"/>
<ellipse cx="326.909" cy="114.517" rx="89.0909" ry="84.4038" fill="url(#paint0_radial_29177_135975)"/>
<path d="M446.852 180.43H400.741" stroke="#78719E" stroke-miterlimit="10"/>
<path d="M348.933 227.317L379.076 189.98H368.766L366.786 192.692L340.562 210.763L337.293 208.616L329.343 209.156L265.732 200.404L276.693 189.993L265.935 190.212L233.214 209.747L228.968 212.896C229.117 217.652 253.889 233.537 253.889 233.537C279.094 254.499 327.987 254.975 327.987 254.975L348.919 227.342L348.933 227.317Z" fill="#CACAEA"/>
<path d="M403.143 201.65L398.856 199.465L348.932 227.316L328 254.949C328 254.949 364.791 252.417 370.408 246.646C376.024 240.875 418.92 199.465 418.92 199.465L403.143 201.65Z" fill="#CACAEA"/>
<path d="M382.983 157.375L378.846 151.347H399.629L399.317 142.878L380.243 142.389L379.687 137.03L399.168 137.171V127.969L370.191 128.264L362.146 128.097L359.948 129.511L362.282 135.076C366.066 135.475 369.282 138.212 369.282 138.212L368.766 158.519L276.422 158.673L276.503 151.861H310.866V142.903L276.15 142.453L276.693 137.621L316.293 137.685L309.74 127.969H250.687V137.878L265.84 138.135L266.193 143.533L250.687 142.71V152.375L266.193 151.874V158.699L250.429 158.724V164.624L266.112 165.074L265.949 190.2L276.707 189.981V164.752H368.766V189.981H379.076V164.752L399.48 164.495L399.168 157.195L382.983 157.375Z" fill="white" stroke="#78719E" stroke-width="1.5" stroke-miterlimit="10"/>
<path d="M346.518 194.028L344.279 199.221C344.279 199.221 343.248 200.57 341.254 200.686C341.254 200.686 333.169 202.601 336.289 207.562L338.744 209.426L341.051 211.084L344.795 216.122L346.83 218.641C346.83 218.641 349.814 221.931 353.342 221.096L352.053 215.967C352.053 215.967 349.204 214.489 349.258 210.659L350.357 203.873L352.663 195.879L352.324 194.016H346.545L346.518 194.028Z" fill="white"/>
<path d="M337.727 108.457L354.02 110.411" stroke="#BF6740" stroke-width="2" stroke-linecap="round" stroke-linejoin="round"/>
<path d="M385.778 44.2852C379.741 44.2852 374.816 48.9377 374.816 54.6699C374.816 60.402 379.727 65.0546 385.778 65.0546C391.828 65.0546 396.739 60.402 396.739 54.6699C396.739 48.9377 391.828 44.2852 385.778 44.2852ZM385.778 62.9725C380.935 62.9725 377.014 59.2582 377.014 54.6699C377.014 50.0816 380.935 46.3672 385.778 46.3672C390.621 46.3672 394.542 50.0816 394.542 54.6699C394.542 59.2582 390.621 62.9725 385.778 62.9725Z" fill="#BF6740"/>
<path d="M385.778 42.2178C386.389 42.2178 386.877 41.7551 386.877 41.1768V34.9434C386.877 34.365 386.389 33.9023 385.778 33.9023C385.168 33.9023 384.679 34.365 384.679 34.9434V41.1768C384.679 41.7551 385.168 42.2178 385.778 42.2178Z" fill="#BF6740"/>
<path d="M375.129 46.0578C375.346 46.2634 375.631 46.3662 375.902 46.3662C376.173 46.3662 376.458 46.2634 376.675 46.0578C377.109 45.6465 377.109 44.991 376.675 44.5926L372.293 40.4413C371.859 40.03 371.167 40.03 370.747 40.4413C370.326 40.8525 370.313 41.508 370.747 41.9064L375.129 46.0578Z" fill="#BF6740"/>
<path d="M372.619 54.67C372.619 54.0916 372.131 53.6289 371.52 53.6289H364.941C364.33 53.6289 363.842 54.0916 363.842 54.67C363.842 55.2483 364.33 55.711 364.941 55.711H371.52C372.131 55.711 372.619 55.2483 372.619 54.67Z" fill="#BF6740"/>
<path d="M375.128 63.2802L370.746 67.4315C370.312 67.8428 370.312 68.4983 370.746 68.8967C370.964 69.1023 371.248 69.2052 371.52 69.2052C371.791 69.2052 372.076 69.1023 372.293 68.8967L376.675 64.7454C377.109 64.3341 377.109 63.6786 376.675 63.2802C376.241 62.8818 375.549 62.8689 375.128 63.2802Z" fill="#BF6740"/>
<path d="M385.778 67.125C385.168 67.125 384.679 67.5877 384.679 68.166V74.3994C384.679 74.9778 385.168 75.4405 385.778 75.4405C386.389 75.4405 386.877 74.9778 386.877 74.3994V68.166C386.877 67.5877 386.389 67.125 385.778 67.125Z" fill="#BF6740"/>
<path d="M396.414 63.2811C395.98 62.8698 395.288 62.8698 394.867 63.2811C394.447 63.6924 394.433 64.3479 394.867 64.7463L399.249 68.8976C399.466 69.1032 399.751 69.2061 400.023 69.2061C400.294 69.2061 400.579 69.1032 400.796 68.8976C401.23 68.4863 401.23 67.8309 400.796 67.4324L396.414 63.2811Z" fill="#BF6740"/>
<path d="M406.602 53.6289H400.022C399.412 53.6289 398.923 54.0916 398.923 54.67C398.923 55.2483 399.412 55.711 400.022 55.711H406.602C407.212 55.711 407.701 55.2483 407.701 54.67C407.701 54.0916 407.212 53.6289 406.602 53.6289Z" fill="#BF6740"/>
<path d="M395.64 46.3692C395.925 46.3692 396.197 46.2664 396.414 46.0608L400.795 41.9095C401.23 41.4982 401.23 40.8427 400.795 40.4443C400.361 40.0459 399.669 40.033 399.249 40.4443L394.867 44.5956C394.433 45.0069 394.433 45.6623 394.867 46.0608C395.084 46.2664 395.369 46.3692 395.64 46.3692Z" fill="#BF6740"/>
<path d="M328 254.963C401.238 254.963 460.609 198.716 460.609 129.331C460.609 59.9466 401.238 3.69922 328 3.69922C254.762 3.69922 195.392 59.9466 195.392 129.331C195.392 198.716 254.762 254.963 328 254.963Z" stroke="url(#paint1_linear_29177_135975)" stroke-width="3" stroke-miterlimit="10" stroke-linecap="round"/>
<path d="M420.548 196.226L418.052 195.827C418.052 195.827 410.604 196.894 404.173 189.414L403.237 187.396L396.576 174.261L388.613 161.177L384.204 153.286L374.002 138.275C374.002 138.275 368.847 132.054 367.721 129.972C366.595 127.89 359.772 126.373 359.772 126.373L359.324 123.661L357.113 119.973L358.442 119.202L359.324 117.762L362.159 111.966L364.438 106.439L362.729 104.961L355.105 110.051L354.711 107.467L352.134 95.4761L348.837 80.0275C348.837 80.0275 347.956 77.2643 346.952 74.9637C345.961 72.6631 344.401 72.5603 344.401 72.5603L333.318 67.9335L332.463 66.4683L333.521 66.3269C335.475 66.404 337.686 64.1035 337.686 64.1035C340.793 58.6669 341.227 54.5541 341.227 54.5541C343.655 54.1943 344.076 50.3386 344.13 48.5392C344.144 47.9866 344.13 47.6267 344.13 47.6267C344.13 47.6267 344.13 47.7038 344.13 47.8323C344.13 47.7552 344.13 47.7038 344.13 47.6267C344.157 41.766 338.921 41.5475 338.921 41.5475C338.921 41.5475 338.893 40.3137 337.93 39.1441C333.562 33.849 328.407 35.0571 328.407 35.0571C328.407 35.0571 314.176 32.3324 313.321 44.9277L312.06 52.1765C312.06 52.1765 311.219 58.8725 309.631 60.3249C309.631 60.3249 295.821 67.7407 299.131 75.5421C299.131 75.5421 300.895 79.1407 302.523 79.5392L301.437 83.8704L297.788 98.792C297.788 98.792 292.09 118.392 295.319 124.985C295.319 124.985 296.432 127.877 298.127 128.391C298.127 128.391 295.36 135.987 298.738 140.755C298.738 140.755 301.085 158.735 316.645 157.784C316.645 157.784 330.686 158.568 353.979 149.957C351.89 156.705 343.791 183.746 345.31 193.116C345.31 193.116 349.692 196.444 354.25 195.583L367.789 163.337C374.749 171.704 385.059 182.962 394.962 189.555C394.962 189.555 399.168 190.391 399.168 193.797C399.168 193.797 399.29 198.257 399.168 199.555C399.045 200.84 402.708 201.945 405.028 201.405L412.422 200.107L419.774 199.182C419.774 199.182 421.267 197.588 420.534 196.239L420.548 196.226Z" fill="white"/>
<path d="M336.94 43.4894C336.94 43.4894 339.436 44.6204 340.236 47.4608C340.236 47.4608 340.413 48.4504 340.589 49.8128C340.983 52.9616 340.589 56.1619 339.395 59.1436C338.202 62.1254 336.234 65.8783 333.833 66.3152C333.833 66.3152 329.004 67.4462 325.124 63.0893C325.124 63.0893 320.946 58.5395 322.139 52.3833C322.139 52.3833 333.331 50.9566 336.926 43.4766L336.94 43.4894Z" stroke="#BF6740" stroke-width="1.5" stroke-linecap="round" stroke-linejoin="round"/>
<path d="M322.845 59.2333C323.631 62.1893 319.155 66.9704 319.155 66.9704L317.757 67.7287C303.567 69.4381 301.668 79.8485 301.668 79.8485C300.868 79.5658 299.172 77.7664 299.172 77.7664C293.678 68.577 306.565 62.4207 306.565 62.4207C310.961 60.4286 311.164 53.1413 311.164 53.1413C311.368 48.3216 312.765 44.2346 312.765 44.2346C315.261 30.5982 328.352 35.6235 328.352 35.6235C336.546 34.4925 339.341 41.3942 339.341 41.3942C339.341 41.3942 343.641 42.718 343.438 48.026C343.438 48.026 343.641 53.0513 341.335 54.555L340.521 54.9535" stroke="#BF6740" stroke-width="1.5" stroke-linecap="round" stroke-linejoin="round"/>
<path d="M331.839 66.4414L331.323 69.3332C331.323 69.3332 330.835 71.8908 325.531 70.9397C325.531 70.9397 319.439 69.5131 319.127 66.9684" stroke="#BF6740" stroke-width="1.5" stroke-linecap="round" stroke-linejoin="round"/>
<path d="M332.137 68.1992C332.137 68.1992 342.855 71.4123 344.686 73.2759C344.686 73.2759 347.291 74.5226 349.502 86.3725L354.413 110.445L344.333 109.16L341.769 104.404L342.068 108.838L337.333 108.491L331.337 119.994C331.337 119.994 336.248 119.879 336.248 121.511C336.248 121.511 337.089 126.163 331.337 126.395H328.149L327.539 128.605L345.337 130.006L352.704 126.279C352.704 126.279 350.004 122.436 351.849 120.585C351.849 120.585 355.403 118.491 357.126 120.007L363.76 106.872L362.051 105.394L354.427 110.484" stroke="#BF6740" stroke-width="1.5" stroke-linecap="round" stroke-linejoin="round"/>
<path d="M336.492 110.563L354.481 112.633L363 107.055" stroke="#BF6740" stroke-width="1.5" stroke-linecap="round" stroke-linejoin="round"/>
<path d="M357.113 120L359.324 123.689C360.111 125.514 358.619 126.58 358.619 126.58H354.332L352.677 126.285" stroke="#BF6740" stroke-width="1.5" stroke-linecap="round" stroke-linejoin="round"/>
<path d="M328.149 126.384C328.149 126.384 327.959 122.349 326.128 122.593L330.496 117.953H332.07" stroke="#BF6740" stroke-width="1.5" stroke-linecap="round" stroke-linejoin="round"/>
<path d="M311.693 101.051L305.426 119.995C305.426 119.995 322.695 121.358 326.128 122.604" stroke="#BF6740" stroke-width="1.5" stroke-linecap="round" stroke-linejoin="round"/>
<path d="M301.655 79.8477L297.259 97.4169C297.259 97.4169 292.172 122.158 296.16 126.579C296.16 126.579 298.765 129.059 305.426 129.998C305.426 129.998 322.777 129.586 327.539 128.597" stroke="#BF6740" stroke-width="1.5" stroke-linecap="round" stroke-linejoin="round"/>
<path d="M297.802 128.789C295.998 131.398 297.802 140.112 297.802 140.112C297.802 140.112 298.182 140.433 299.308 140.626C301.302 140.96 305.657 140.857 314.447 137.773C314.447 137.773 323.74 132.825 327.552 132.953C327.552 132.953 335.76 132.568 337.266 132.568C338.771 132.568 341.39 131.527 341.485 130.614" stroke="#BF6740" stroke-width="1.5" stroke-linecap="round" stroke-linejoin="round"/>
<path d="M299.308 140.623C298.602 149.466 306.878 155.995 306.878 155.995C306.878 155.995 315.262 160.943 335.19 155.995L353.599 150.134L357.601 149.401C357.601 149.401 358.971 149.556 360.206 153.167C360.206 153.167 362.811 161.431 383.702 180.324L394.976 189.539C394.976 189.539 400.891 191.197 404.187 188.306L385.222 154.774L369.729 132.038C369.729 132.038 366.853 126.498 359.785 126.383" stroke="#BF6740" stroke-width="1.5" stroke-linecap="round" stroke-linejoin="round"/>
<path d="M367.152 163.502L354.264 195.582C350.587 196.61 345.27 193.679 345.27 193.679C345.27 193.679 348.39 160.687 353.613 150.148" stroke="#BF6740" stroke-width="1.5" stroke-linecap="round" stroke-linejoin="round"/>
<path d="M335.828 204.667C335.828 206.107 336.33 207.508 337.306 208.613C337.795 209.153 338.853 209.5 339.897 210.117C341.078 210.811 343.777 214.808 343.777 214.808C343.777 214.808 347.4 222.069 353.653 221.067L351.985 216.183C351.985 216.183 348.756 214.512 349.217 207.675L352.636 195.799C352.636 195.799 347.4 195.324 346.07 194.09C346.07 194.09 344.415 200.04 343.384 200.4C343.384 200.4 341.213 200.593 339.192 201.339C337.496 201.968 335.909 203.009 335.828 204.667Z" stroke="#BF6740" stroke-width="1.5" stroke-linecap="round" stroke-linejoin="round"/>
<path d="M398.855 196.742L407.144 198.052C407.144 198.052 413.995 198.682 415.013 195.996C415.013 195.996 421.253 196.33 420.968 196.742C420.968 196.742 421.633 198.322 418.92 199.479L407.226 201.06L403.142 201.651C403.142 201.651 398.855 202.204 398.855 199.466V196.729V196.742Z" stroke="#BF6740" stroke-width="1.5" stroke-linecap="round" stroke-linejoin="round"/>
<path d="M404.187 189.43C404.187 189.43 411.024 195.689 415.026 195.997" stroke="#BF6740" stroke-width="1.5" stroke-linecap="round" stroke-linejoin="round"/>
<path d="M396.631 190.402C396.631 190.402 399.724 192.844 398.842 196.739" stroke="#BF6740" stroke-width="1.5" stroke-linecap="round" stroke-linejoin="round"/>
<path d="M351.998 216.182C351.998 216.182 343.126 214.267 343.397 200.387" stroke="#BF6740" stroke-width="1.5" stroke-linecap="round" stroke-linejoin="round"/>
<path d="M334.946 51.4688V57.2138C334.946 57.6893 334.539 58.0749 334.037 58.0749L332.138 56.8925" stroke="#BF6740" stroke-width="1.5" stroke-linecap="round" stroke-linejoin="round"/>
<path d="M329.343 60.8512C329.343 60.8512 332.137 60.3372 333.535 62.0208" stroke="#BF6740" stroke-width="1.5" stroke-linecap="round" stroke-linejoin="round"/>
<path d="M332.304 52.6778C332.779 52.6778 333.164 52.3127 333.164 51.8623C333.164 51.412 332.779 51.0469 332.304 51.0469C331.828 51.0469 331.443 51.412 331.443 51.8623C331.443 52.3127 331.828 52.6778 332.304 52.6778Z" fill="#BF6740"/>
<path d="M337.468 53.4903C337.944 53.4903 338.329 53.1252 338.329 52.6748C338.329 52.2245 337.944 51.8594 337.468 51.8594C336.993 51.8594 336.607 52.2245 336.607 52.6748C336.607 53.1252 336.993 53.4903 337.468 53.4903Z" fill="#BF6740"/>
<path d="M354.683 113.02L345.215 129.737" stroke="#BF6740" stroke-width="1.5"/>
<defs>
<radialGradient id="paint0_radial_29177_135975" cx="0" cy="0" r="1" gradientUnits="userSpaceOnUse" gradientTransform="translate(327.541 105.538) rotate(90.3877) scale(93.3851 98.5704)">
<stop offset="0.145" stop-color="#E94301" stop-opacity="0.5"/>
<stop offset="0.255" stop-color="#E9CA01" stop-opacity="0.7"/>
<stop offset="1" stop-color="white" stop-opacity="0"/>
</radialGradient>
<linearGradient id="paint1_linear_29177_135975" x1="192" y1="129.331" x2="464" y2="129.331" gradientUnits="userSpaceOnUse">
<stop offset="0.13" stop-color="#E9CA00"/>
<stop offset="0.42" stop-color="#FF725E"/>
<stop offset="0.58" stop-color="#FE735C"/>
<stop offset="0.64" stop-color="#FC7A55"/>
<stop offset="0.68" stop-color="#FA8549"/>
<stop offset="0.71" stop-color="#F69538"/>
<stop offset="0.74" stop-color="#EFB11B"/>
</linearGradient>
<clipPath id="clip0_29177_135975">
<rect width="61" height="61" fill="white" transform="translate(0 86)"/>
</clipPath>
<clipPath id="clip1_29177_135975">
<rect width="61" height="61" fill="white" transform="translate(26 173)"/>
</clipPath>
<clipPath id="clip2_29177_135975">
<rect width="61" height="61" fill="white" transform="translate(147 59)"/>
</clipPath>
<clipPath id="clip3_29177_135975">
<rect width="61" height="61" fill="white" transform="translate(80 99)"/>
</clipPath>
<clipPath id="clip4_29177_135975">
<rect width="61" height="61" fill="white" transform="translate(144 165)"/>
</clipPath>
<clipPath id="clip5_29177_135975">
<rect width="60" height="60" fill="white" transform="translate(494 179)"/>
</clipPath>
<clipPath id="clip6_29177_135975">
<rect width="61" height="61" fill="white" transform="translate(455 104)"/>
</clipPath>
<clipPath id="clip7_29177_135975">
<rect width="60" height="60" fill="white" transform="translate(542 100)"/>
</clipPath>
</defs>
</svg>
