<svg width="38" height="35" viewBox="0 0 38 35" fill="none" xmlns="http://www.w3.org/2000/svg">
<g clip-path="url(#clip0_29177_136826)">
<path d="M3.99742 17.8965C4.72996 13.5846 7.39516 9.83606 11.3087 7.61263C11.5915 7.45186 11.9552 7.54373 12.1214 7.81717C12.2877 8.09061 12.1927 8.44229 11.9099 8.60305C8.30137 10.6535 5.84398 14.1085 5.16934 18.0831C5.12184 18.3645 4.86949 18.564 4.58375 18.564C4.55184 18.564 4.51918 18.5611 4.48652 18.5561C4.16293 18.5044 3.94398 18.2094 3.99668 17.8965H3.99742ZM26.0894 8.60305C29.6979 10.6535 32.1553 14.1085 32.8299 18.0831C32.8774 18.3645 33.1298 18.564 33.4155 18.564C33.4474 18.564 33.4801 18.5611 33.5127 18.5561C33.8363 18.5044 34.0553 18.2094 34.0026 17.8965C33.27 13.5846 30.6048 9.83606 26.6913 7.61263C26.4085 7.45186 26.0448 7.54373 25.8786 7.81717C25.7123 8.09061 25.8073 8.44229 26.0894 8.60305ZM24.035 32.9502C22.4296 33.5481 20.736 33.851 19 33.851C17.264 33.851 15.5704 33.5481 13.965 32.9502C13.6592 32.8361 13.3156 32.984 13.1976 33.2797C13.0796 33.5754 13.2325 33.9077 13.5382 34.0218C15.2802 34.6706 17.1178 34.9993 19 34.9993C20.8822 34.9993 22.7198 34.6706 24.4618 34.0218C24.7675 33.9077 24.9204 33.5754 24.8024 33.2797C24.6844 32.984 24.3408 32.8361 24.035 32.9502ZM25.3464 11.7631C25.3464 12.0803 25.0807 12.3372 24.7527 12.3372H13.2466C12.9185 12.3372 12.6528 12.0803 12.6528 11.7631C12.6528 9.13056 14.3754 6.88129 16.7875 6.01072C16.0008 5.3892 15.4969 4.44399 15.4969 3.38682C15.4969 1.51937 17.0681 0 18.9993 0C20.9304 0 22.5016 1.51937 22.5016 3.38682C22.5016 4.44399 21.9977 5.3892 21.211 6.01072C23.6231 6.88057 25.3457 9.13056 25.3457 11.7631H25.3464ZM16.6851 3.38682C16.6851 4.62126 17.7234 5.62532 19 5.62532C20.2766 5.62532 21.3149 4.62126 21.3149 3.38682C21.3149 2.15238 20.2766 1.14832 19 1.14832C17.7234 1.14832 16.6851 2.15238 16.6851 3.38682ZM24.1255 11.1889C23.8302 8.70712 21.6444 6.77435 19 6.77435C16.3556 6.77435 14.1698 8.70783 13.8745 11.1889H24.1248H24.1255ZM38 31.0483C38 31.3656 37.7343 31.6225 37.4062 31.6225H25.9001C25.5721 31.6225 25.3064 31.3656 25.3064 31.0483C25.3064 28.4165 27.029 26.1666 29.4411 25.296C28.6544 24.6745 28.1504 23.7293 28.1504 22.6721C28.1504 20.8046 29.7216 19.2853 31.6528 19.2853C33.584 19.2853 35.1552 20.8046 35.1552 22.6721C35.1552 23.7293 34.6512 24.6745 33.8645 25.296C36.2766 26.1658 37.9993 28.4158 37.9993 31.0483H38ZM31.6536 24.9113C32.9301 24.9113 33.9684 23.9072 33.9684 22.6728C33.9684 21.4384 32.9301 20.4343 31.6536 20.4343C30.377 20.4343 29.3387 21.4384 29.3387 22.6728C29.3387 23.9072 30.377 24.9113 31.6536 24.9113ZM36.7784 30.4742C36.483 27.9924 34.2972 26.0596 31.6528 26.0596C29.0084 26.0596 26.8227 27.9931 26.5273 30.4742H36.7784ZM12.6936 31.0483C12.6936 31.3656 12.4279 31.6225 12.0999 31.6225H0.59375C0.265703 31.6225 0 31.3656 0 31.0483C0 28.4158 1.72262 26.1666 4.13473 25.296C3.34801 24.6745 2.84406 23.7293 2.84406 22.6721C2.84406 20.8046 4.41527 19.2853 6.34645 19.2853C8.27762 19.2853 9.84883 20.8046 9.84883 22.6721C9.84883 23.7293 9.34488 24.6745 8.55816 25.296C10.9703 26.1658 12.6929 28.4158 12.6929 31.0483H12.6936ZM4.03156 22.6721C4.03156 23.9065 5.06988 24.9106 6.34645 24.9106C7.62301 24.9106 8.66133 23.9065 8.66133 22.6721C8.66133 21.4376 7.62301 20.4336 6.34645 20.4336C5.06988 20.4336 4.03156 21.4376 4.03156 22.6721ZM11.472 30.4742C11.1766 27.9924 8.99086 26.0596 6.34645 26.0596C3.70203 26.0596 1.51629 27.9931 1.2209 30.4742H11.4712H11.472Z" fill="#000091"/>
</g>
<defs>
<clipPath id="clip0_29177_136826">
<rect width="38" height="35" fill="white"/>
</clipPath>
</defs>
</svg>
