<svg width="44" height="37" viewBox="0 0 44 37" fill="none" xmlns="http://www.w3.org/2000/svg">
<g clip-path="url(#clip0_29177_137187)">
<path fill-rule="evenodd" clip-rule="evenodd" d="M14.7357 9.23872H16.6893C17.1162 9.23872 17.5214 9.07447 17.818 8.77453C18.1147 8.47459 18.2883 8.07468 18.2883 7.66048V5.41809C18.2883 4.99675 18.1219 4.59683 17.818 4.30403C17.5142 4.01124 17.109 3.83984 16.6893 3.83984H14.7357C14.3089 3.83984 13.9037 4.0041 13.607 4.30403C13.3104 4.59683 13.1367 5.00389 13.1367 5.41809V7.66048C13.1367 8.08182 13.3031 8.48174 13.607 8.77453C13.9037 9.06733 14.3161 9.23872 14.7357 9.23872ZM14.5114 5.41809C14.5114 5.36096 14.5332 5.30383 14.5766 5.26098C14.62 5.21813 14.6779 5.1967 14.7357 5.1967H16.6893C16.7472 5.1967 16.8051 5.21813 16.8485 5.26098C16.8919 5.30383 16.9136 5.36096 16.9136 5.41809V7.66048C16.9136 7.71761 16.8919 7.77474 16.8485 7.81759C16.8051 7.86044 16.7472 7.88186 16.6893 7.88186H14.7357C14.6779 7.88186 14.62 7.86044 14.5766 7.81759C14.5332 7.77474 14.5114 7.71761 14.5114 7.66048V5.41809Z" fill="#000091"/>
<path fill-rule="evenodd" clip-rule="evenodd" d="M13.1367 15.2464C13.1367 15.6678 13.3031 16.0677 13.607 16.3605C13.9037 16.6533 14.3161 16.8247 14.7357 16.8247H16.6893C17.1162 16.8247 17.5214 16.6604 17.818 16.3605C18.1147 16.0605 18.2883 15.6606 18.2883 15.2464V13.004C18.2883 12.5827 18.1219 12.1828 17.818 11.89C17.5142 11.5972 17.109 11.4258 16.6893 11.4258H14.7357C14.3089 11.4258 13.9037 11.59 13.607 11.89C13.3104 12.1828 13.1367 12.5898 13.1367 13.004V15.2464ZM14.5114 13.004C14.5114 12.9469 14.5332 12.8898 14.5766 12.8469C14.62 12.8041 14.6779 12.7826 14.7357 12.7826H16.6893C16.7472 12.7826 16.8051 12.8041 16.8485 12.8469C16.8919 12.8898 16.9136 12.9469 16.9136 13.004V15.2464C16.9136 15.3035 16.8919 15.3607 16.8485 15.4035C16.8051 15.4464 16.7472 15.4678 16.6893 15.4678H14.7357C14.6779 15.4678 14.62 15.4464 14.5766 15.4035C14.5332 15.3607 14.5114 15.3035 14.5114 15.2464V13.004Z" fill="#000091"/>
<path fill-rule="evenodd" clip-rule="evenodd" d="M21.3783 9.23872H23.3319C23.7588 9.23872 24.164 9.07447 24.4606 8.77453C24.7573 8.48174 24.9309 8.07468 24.9309 7.66048V5.41809C24.9309 4.99675 24.7645 4.59683 24.4606 4.30403C24.164 4.01124 23.7515 3.83984 23.3319 3.83984H21.3783C20.9514 3.83984 20.5463 4.0041 20.2496 4.30403C19.9529 4.59683 19.7793 5.00389 19.7793 5.41809V7.66048C19.7793 8.08182 19.9457 8.48174 20.2496 8.77453C20.5463 9.06733 20.9587 9.23872 21.3783 9.23872ZM21.1468 5.41809C21.1468 5.36096 21.1685 5.30383 21.2119 5.26098C21.2553 5.21813 21.3132 5.1967 21.3711 5.1967H23.3247C23.3825 5.1967 23.4404 5.21813 23.4838 5.26098C23.5272 5.30383 23.549 5.36096 23.549 5.41809V7.66048C23.549 7.71761 23.5272 7.77474 23.4838 7.81759C23.4404 7.86044 23.3825 7.88186 23.3247 7.88186H21.3711C21.3132 7.88186 21.2553 7.86044 21.2119 7.81759C21.1685 7.77474 21.1468 7.71761 21.1468 7.66048V5.41809Z" fill="#000091"/>
<path fill-rule="evenodd" clip-rule="evenodd" d="M19.7793 15.2464C19.7793 15.6678 19.9457 16.0677 20.2496 16.3605C20.5463 16.6533 20.9587 16.8247 21.3783 16.8247H23.3319C23.7588 16.8247 24.164 16.6604 24.4606 16.3605C24.7573 16.0677 24.9309 15.6606 24.9309 15.2464V13.004C24.9309 12.5827 24.7645 12.1828 24.4606 11.89C24.164 11.5972 23.7515 11.4258 23.3319 11.4258H21.3783C20.9514 11.4258 20.5463 11.59 20.2496 11.89C19.9529 12.1828 19.7793 12.5898 19.7793 13.004V15.2464ZM21.1468 13.004C21.1468 12.9469 21.1685 12.8898 21.2119 12.8469C21.2553 12.8041 21.3132 12.7826 21.3711 12.7826H23.3247C23.3825 12.7826 23.4404 12.8041 23.4838 12.8469C23.5272 12.8898 23.549 12.9469 23.549 13.004V15.2464C23.549 15.3035 23.5272 15.3607 23.4838 15.4035C23.4404 15.4464 23.3825 15.4678 23.3247 15.4678H21.3711C21.3132 15.4678 21.2553 15.4464 21.2119 15.4035C21.1685 15.3607 21.1468 15.3035 21.1468 15.2464V13.004Z" fill="#000091"/>
<path fill-rule="evenodd" clip-rule="evenodd" d="M43.8152 18.8379C43.8152 18.0166 43.3159 17.2811 42.549 16.9668C41.659 16.6026 40.1758 15.9956 38.7287 15.4029V12.3678C38.7287 11.5465 38.2294 10.811 37.4625 10.4967L28.7727 6.94749C28.7727 6.94749 28.7076 6.92606 28.6714 6.91892V2.80549C28.6714 1.6843 27.7525 0.777344 26.6166 0.777344H11.4511C10.3151 0.777344 9.39625 1.6843 9.39625 2.80549V13.5461C9.39625 13.9175 9.70014 14.2245 10.0836 14.2245C10.4671 14.2245 10.771 13.9246 10.771 13.5461V2.80549C10.771 2.43414 11.0749 2.12706 11.4583 2.12706H26.6166C26.9928 2.12706 27.3039 2.427 27.3039 2.80549V16.3598C26.7323 16.5955 26.2186 16.8026 25.8207 16.9668C25.0537 17.2811 24.5545 18.0166 24.5545 18.8379V35.0202H18.9904V33.8419C20.8065 33.4348 22.2536 31.4567 22.2536 29C22.2536 27.9574 21.9931 26.9933 21.559 26.2078C21.2985 25.7364 21.1972 25.1437 21.2696 24.5724C21.2913 24.3867 21.3058 24.1939 21.3058 24.0011C21.3058 21.9229 19.9021 20.309 18.3031 20.309C16.704 20.309 15.3004 21.9158 15.3004 24.0011C15.3004 24.1939 15.3148 24.3867 15.3365 24.5724C15.4089 25.1437 15.3076 25.7364 15.0471 26.2078C14.613 26.9933 14.3525 27.9574 14.3525 29C14.3525 31.4567 15.7996 33.4348 17.6157 33.8419V35.0202H8.31093V32.9135C10.8216 32.4922 12.8331 29.7785 12.8331 26.4149C12.8331 25.0152 12.4858 23.7226 11.9069 22.6656C11.5235 21.9658 11.3715 21.0945 11.4801 20.2447C11.509 19.9948 11.5235 19.7448 11.5235 19.4877C11.5235 16.7669 9.72184 14.6316 7.62357 14.6316C5.52529 14.6316 3.72367 16.7597 3.72367 19.4877C3.72367 19.7448 3.73814 20.0019 3.77432 20.2447C3.88285 21.0945 3.73091 21.9658 3.34743 22.6728C2.76859 23.7297 2.42129 25.0223 2.42129 26.422C2.42129 29.7856 4.43274 32.4993 6.94344 32.9207V35.0274H0.872913C0.49667 35.0274 0.185547 35.3273 0.185547 35.7058C0.185547 36.0843 0.489435 36.3842 0.872913 36.3842H41.7676C42.9035 36.3842 43.8224 35.4773 43.8224 34.3561V18.8522L43.8152 18.8379ZM16.8487 31.9423C16.1541 31.2781 15.72 30.2069 15.72 29.0072C15.72 28.2073 15.9154 27.4646 16.2482 26.8576C16.6389 26.1506 16.8053 25.2651 16.6896 24.4081C16.6751 24.2796 16.6606 24.1439 16.6606 24.0082C16.6606 23.2084 16.9428 22.5014 17.3986 22.0586C17.6519 21.8158 17.9558 21.6659 18.2886 21.6659C18.6214 21.6659 18.9325 21.8158 19.1785 22.0586C19.6344 22.4943 19.9166 23.2084 19.9166 24.0082C19.9166 24.1439 19.9093 24.2796 19.8949 24.4153C19.7863 25.2722 19.9455 26.1578 20.3362 26.8648C20.669 27.4718 20.8644 28.2145 20.8644 29.0143C20.8644 30.2141 20.4303 31.2924 19.7357 31.9494C19.5041 32.1708 19.2509 32.3351 18.9687 32.4422V26.5934C18.9687 26.222 18.6648 25.915 18.2814 25.915C17.8979 25.915 17.594 26.2149 17.594 26.5934V32.4422C17.319 32.3351 17.0586 32.1637 16.827 31.9494M3.78879 26.4149C3.78879 25.258 4.07097 24.1868 4.54851 23.3155C5.06223 22.38 5.27929 21.2088 5.13458 20.0733C5.10564 19.8805 5.0984 19.6877 5.0984 19.4877C5.0984 18.3023 5.52529 17.2525 6.20542 16.6026C6.60337 16.2241 7.09538 15.9885 7.62357 15.9885C8.15175 15.9885 8.64376 16.2241 9.04171 16.6026C9.72184 17.2525 10.1487 18.3094 10.1487 19.4877C10.1487 19.6877 10.1343 19.8877 10.1126 20.0805C9.96785 21.2159 10.1777 22.38 10.6986 23.3155C11.1762 24.1868 11.4583 25.258 11.4583 26.4149C11.4583 28.9429 10.1343 31.0996 8.3037 31.5352V23.0727C8.3037 22.7014 7.99981 22.3943 7.61633 22.3943C7.23285 22.3943 6.92897 22.6942 6.92897 23.0727V31.5352C5.0984 31.0996 3.77432 28.9358 3.77432 26.4149M28.6714 8.36862L36.9343 11.7465C37.1875 11.8536 37.3539 12.0964 37.3539 12.3678V14.8387C36.3627 14.4316 35.4944 14.0817 34.9663 13.8603C34.4598 13.6532 33.8954 13.6532 33.3962 13.8603C32.47 14.2388 30.4803 15.0529 28.6642 15.7885V8.35434L28.6714 8.36862ZM42.4477 34.3418C42.4477 34.7131 42.1438 35.0202 41.7603 35.0202H25.9147V18.8379C25.9147 18.5665 26.0811 18.3166 26.3344 18.2166L28.2373 17.4382C28.2373 17.4382 28.2373 17.4382 28.2445 17.4382L33.9099 15.1244C34.0763 15.0529 34.2644 15.0529 34.4308 15.1244C35.1182 15.4029 36.3989 15.9313 37.7591 16.4812C39.3364 17.1239 41.0223 17.8167 42.0063 18.2166C42.2596 18.3237 42.426 18.5665 42.426 18.8379V34.3418H42.4477Z" fill="#000091"/>
<path fill-rule="evenodd" clip-rule="evenodd" d="M31.8407 19.5742H29.8871C29.4602 19.5742 29.055 19.7385 28.7584 20.0384C28.4617 20.3312 28.2881 20.7383 28.2881 21.1525V23.3949C28.2881 23.8162 28.4545 24.2161 28.7584 24.5089C29.0623 24.8017 29.4675 24.9731 29.8871 24.9731H31.8407C32.2676 24.9731 32.6728 24.8088 32.9694 24.5089C33.2661 24.2161 33.4397 23.8091 33.4397 23.3949V21.1525C33.4397 20.7311 33.2733 20.3312 32.9694 20.0384C32.6728 19.7456 32.2603 19.5742 31.8407 19.5742ZM32.0722 23.3949C32.0722 23.452 32.0505 23.5091 32.0071 23.552C31.9637 23.5948 31.9058 23.6162 31.8479 23.6162H29.8944C29.8365 23.6162 29.7786 23.5948 29.7352 23.552C29.6918 23.5091 29.6701 23.452 29.6701 23.3949V21.1525C29.6701 21.0953 29.6918 21.0382 29.7352 20.9954C29.7786 20.9525 29.8365 20.9311 29.8944 20.9311H31.8479C31.9058 20.9311 31.9637 20.9525 32.0071 20.9954C32.0505 21.0382 32.0722 21.0953 32.0722 21.1525V23.3949Z" fill="#000091"/>
<path fill-rule="evenodd" clip-rule="evenodd" d="M31.8407 27.1641H29.8871C29.4602 27.1641 29.055 27.3283 28.7584 27.6282C28.4617 27.921 28.2881 28.3281 28.2881 28.7423V30.9847C28.2881 31.406 28.4545 31.806 28.7584 32.0987C29.055 32.3915 29.4675 32.5629 29.8871 32.5629H31.8407C32.2676 32.5629 32.6728 32.3987 32.9694 32.0987C33.2661 31.806 33.4397 31.3989 33.4397 30.9847V28.7423C33.4397 28.321 33.2733 27.921 32.9694 27.6282C32.6728 27.3355 32.2603 27.1641 31.8407 27.1641ZM32.0722 30.9847C32.0722 31.0418 32.0505 31.099 32.0071 31.1418C31.9637 31.1847 31.9058 31.2061 31.8479 31.2061H29.8944C29.8365 31.2061 29.7786 31.1847 29.7352 31.1418C29.6918 31.099 29.6701 31.0418 29.6701 30.9847V28.7423C29.6701 28.6852 29.6918 28.628 29.7352 28.5852C29.7786 28.5423 29.8365 28.5209 29.8944 28.5209H31.8479C31.9058 28.5209 31.9637 28.5423 32.0071 28.5852C32.0505 28.628 32.0722 28.6852 32.0722 28.7423V30.9847Z" fill="#000091"/>
<path fill-rule="evenodd" clip-rule="evenodd" d="M38.4823 19.5742H36.5287C36.1018 19.5742 35.6966 19.7385 35.4 20.0384C35.1033 20.3312 34.9297 20.7383 34.9297 21.1525V23.3949C34.9297 23.8162 35.0961 24.2161 35.4 24.5089C35.6966 24.8017 36.1091 24.9731 36.5287 24.9731H38.4823C38.9092 24.9731 39.3144 24.8088 39.611 24.5089C39.9077 24.2161 40.0813 23.8091 40.0813 23.3949V21.1525C40.0813 20.7311 39.9149 20.3312 39.611 20.0384C39.3144 19.7456 38.9019 19.5742 38.4823 19.5742ZM38.7066 23.3949C38.7066 23.452 38.6849 23.5091 38.6415 23.552C38.5981 23.5948 38.5402 23.6162 38.4823 23.6162H36.5287C36.4708 23.6162 36.4129 23.5948 36.3695 23.552C36.3261 23.5091 36.3044 23.452 36.3044 23.3949V21.1525C36.3044 21.0953 36.3261 21.0382 36.3695 20.9954C36.4129 20.9525 36.4708 20.9311 36.5287 20.9311H38.4823C38.5402 20.9311 38.5981 20.9525 38.6415 20.9954C38.6849 21.0382 38.7066 21.0953 38.7066 21.1525V23.3949Z" fill="#000091"/>
<path fill-rule="evenodd" clip-rule="evenodd" d="M38.4823 27.1641H36.5287C36.1018 27.1641 35.6966 27.3283 35.4 27.6282C35.1033 27.921 34.9297 28.3281 34.9297 28.7423V30.9847C34.9297 31.406 35.0961 31.806 35.4 32.0987C35.6966 32.3915 36.1091 32.5629 36.5287 32.5629H38.4823C38.9092 32.5629 39.3144 32.3987 39.611 32.0987C39.9077 31.806 40.0813 31.3989 40.0813 30.9847V28.7423C40.0813 28.321 39.9149 27.921 39.611 27.6282C39.3144 27.3355 38.9019 27.1641 38.4823 27.1641ZM38.7066 30.9847C38.7066 31.0418 38.6849 31.099 38.6415 31.1418C38.5981 31.1847 38.5402 31.2061 38.4823 31.2061H36.5287C36.4708 31.2061 36.4129 31.1847 36.3695 31.1418C36.3261 31.099 36.3044 31.0418 36.3044 30.9847V28.7423C36.3044 28.6852 36.3261 28.628 36.3695 28.5852C36.4129 28.5423 36.4708 28.5209 36.5287 28.5209H38.4823C38.5402 28.5209 38.5981 28.5423 38.6415 28.5852C38.6849 28.628 38.7066 28.6852 38.7066 28.7423V30.9847Z" fill="#000091"/>
</g>
<defs>
<clipPath id="clip0_29177_137187">
<rect width="43.6296" height="35.5926" fill="white" transform="translate(0.185547 0.777344)"/>
</clipPath>
</defs>
</svg>
