<svg width="36" height="46" viewBox="0 0 36 46" fill="none" xmlns="http://www.w3.org/2000/svg">
<g clip-path="url(#clip0_29177_137203)">
<path d="M25.4106 41.1763C26.101 40.7455 25.539 39.6401 24.8003 39.9896C24.7602 40.0058 24.7201 40.0302 24.6799 40.0465L24.5595 40.1115V36.0312C27.8594 33.8528 30.0433 30.0895 30.0433 25.8141V25.3183H31.1673C33.4074 25.3183 35.222 23.4732 35.222 21.2055C35.222 19.4092 34.0819 17.8811 32.4921 17.3203C32.6929 13.2725 32.2994 10.5739 31.3279 9.28969C29.682 7.11948 27.6185 6.42859 26.7675 6.22539C26.1091 5.10371 23.7004 1.56798 19.3246 1.47857C17.9195 1.44606 16.8436 1.49483 15.9845 1.53547C13.7605 1.63301 12.6444 1.68178 9.39268 0.381278C9.07152 0.251228 8.70219 0.365021 8.50146 0.665762C7.77083 1.77118 8.35694 3.17735 9.09561 4.14459C8.373 4.51849 7.36135 5.11997 6.37378 6.01406C3.95705 8.20052 2.84904 11.0291 3.16218 14.2153L3.46728 17.3365C1.89359 17.9055 0.769531 19.4254 0.769531 21.2055C0.769531 23.4732 2.59212 25.3183 4.82418 25.3183H5.94824V25.8141C5.94824 30.0895 8.13213 33.8528 11.4321 36.0312V40.1115L11.3116 40.0465C11.3116 40.0465 11.2795 40.0302 11.2634 40.0221C10.4365 39.5994 9.77005 40.8349 10.581 41.2982C10.6131 41.3145 10.6532 41.3388 10.6934 41.3551L17.8151 44.9559C17.8151 44.9559 18.3049 45.3054 18.9633 44.9152L25.3704 41.1844C25.3704 41.1844 25.3784 41.1844 25.4025 41.1682L25.4106 41.1763ZM33.7447 21.2055C33.7447 22.6442 32.5885 23.8146 31.1673 23.8146H30.0433V20.9698C30.0433 20.1732 30.0433 19.3767 30.0272 18.5964H31.1673C32.5885 18.5964 33.7447 19.7668 33.7447 21.2055ZM7.33726 7.16825C8.91897 5.72958 10.6131 5.10371 10.6292 5.09558C10.8861 5.00617 11.0707 4.77046 11.1109 4.50223C11.151 4.234 11.0386 3.95765 10.8218 3.78696C10.3481 3.42932 9.81822 2.68966 9.68173 2.10444C12.6284 3.1936 13.9612 3.13671 16.0487 3.03917C16.9319 2.99853 17.9436 2.95789 19.2924 2.98227C23.4836 3.06356 25.6033 7.19264 25.6193 7.23328C25.7317 7.45274 25.9405 7.60717 26.1894 7.63968C26.2135 7.63968 28.4295 7.94855 30.1396 10.2C30.8542 11.1429 31.1674 13.6301 31.0068 17.0927H29.9469C29.7703 14.4267 29.2324 12.0858 27.5142 10.9072C25.9244 9.81802 23.6121 9.90743 20.4486 11.1917C18.329 12.0451 17.5983 11.4274 16.5947 10.5739C15.6393 9.76112 14.451 8.75323 12.0824 9.18402C8.93503 9.76112 6.95187 12.4678 6.24531 17.0927H4.93659L4.63951 14.0609C4.37456 11.3542 5.2738 9.02959 7.32923 7.16012L7.33726 7.16825ZM4.83221 23.8146C3.41107 23.8146 2.2549 22.6442 2.2549 21.2055C2.2549 19.7668 3.41107 18.5964 4.83221 18.5964H6.06868C6.06868 18.5964 6.06868 18.6126 6.06868 18.6208C6.05262 18.8077 6.03656 18.9947 6.02853 19.1816C6.02853 19.206 6.02853 19.2385 6.02853 19.2629C6.0205 19.4498 6.00444 19.6449 5.99641 19.84C5.99641 19.8725 5.99641 19.8969 5.99641 19.9294C5.99641 20.1163 5.98036 20.3114 5.98036 20.5065C5.98036 20.539 5.98036 20.5796 5.98036 20.6122C5.98036 20.8397 5.98036 21.0755 5.98036 21.303V23.8065H4.8563L4.83221 23.8146ZM7.44164 25.8141V21.3112C7.44164 21.1649 7.44164 21.0186 7.44164 20.8723C7.44164 20.8397 7.44164 20.8072 7.44164 20.7666C7.44164 20.6528 7.44164 20.539 7.44164 20.4252C7.44164 20.4008 7.44164 20.3683 7.44164 20.3439C7.44164 20.222 7.44164 20.1001 7.45769 19.9863C7.45769 19.9863 7.45769 19.97 7.45769 19.9619C7.48981 19.2466 7.53798 18.572 7.61827 17.9299C7.61827 17.9299 7.61827 17.9136 7.61827 17.9055C8.04381 14.4429 9.28028 11.2079 12.3393 10.6552C12.6444 10.5983 12.9174 10.5739 13.1743 10.5739C14.2904 10.5739 14.9086 11.0941 15.6393 11.72C16.7151 12.6303 18.048 13.7683 20.9946 12.5816C23.6361 11.5168 25.547 11.3705 26.6791 12.1508C28.0119 13.0693 28.3973 15.2964 28.5017 17.8486C28.5017 17.8567 28.5017 17.8648 28.5017 17.8811C28.5419 18.9134 28.5419 20.0188 28.5419 21.0836V24.5705V25.8223C28.5419 31.7152 23.8048 36.5107 17.9837 36.5107C12.1627 36.5107 7.42558 31.7152 7.42558 25.8223L7.44164 25.8141ZM12.9254 36.8602C14.467 37.5918 16.1852 37.9982 17.9998 37.9982C19.8143 37.9982 21.5325 37.5918 23.0741 36.8602V40.9081L18.5056 43.6066C18.3852 43.6797 18.2407 43.6797 18.1202 43.6147L12.9254 40.9081V36.8521V36.8602ZM13.1904 21.5957V21.8151C13.1904 22.2296 12.8612 22.5629 12.4517 22.5629C12.0423 22.5629 11.7131 22.2296 11.7131 21.8151V21.5957C11.7131 21.1811 12.0423 20.8479 12.4517 20.8479C12.8612 20.8479 13.1904 21.1811 13.1904 21.5957ZM24.3588 21.5957V21.8151C24.3588 22.2296 24.0296 22.5629 23.6201 22.5629C23.2106 22.5629 22.8814 22.2296 22.8814 21.8151V21.5957C22.8814 21.1811 23.2106 20.8479 23.6201 20.8479C24.0296 20.8479 24.3588 21.1811 24.3588 21.5957ZM19.2924 21.8883C19.9829 22.8799 20.9304 24.9038 18.1042 25.8385C17.8472 25.9279 17.5582 25.806 17.4297 25.5622C17.1889 25.1314 17.3253 24.5868 17.7348 24.3186L17.9918 24.1479C18.626 23.9366 18.5618 23.3676 18.6501 22.7011L18.7384 22.0183C18.7706 21.742 19.1238 21.6525 19.2844 21.8883H19.2924Z" fill="#000091"/>
<path d="M17.9998 32.797C15.9283 32.797 14.2422 31.0901 14.2422 28.9931C14.2422 28.3672 14.74 27.8633 15.3582 27.8633H20.6413C21.2595 27.8633 21.7573 28.3672 21.7573 28.9931C21.7573 31.0901 20.0712 32.797 17.9998 32.797ZM15.3582 28.985C15.3582 30.4643 16.5385 31.6672 17.9998 31.6672C19.461 31.6672 20.6493 30.4643 20.6493 28.985H15.3582Z" fill="#000091"/>
</g>
<defs>
<clipPath id="clip0_29177_137203">
<rect width="34.4444" height="44.7778" fill="white" transform="translate(0.777344 0.332031)"/>
</clipPath>
</defs>
</svg>
