<svg width="42" height="37" viewBox="0 0 42 37" fill="none" xmlns="http://www.w3.org/2000/svg">
<path fill-rule="evenodd" clip-rule="evenodd" d="M37.4905 33.4449C37.7878 33.4449 38.1912 33.3812 38.4531 33.4874V35.5402H37.5259C37.4127 35.25 37.4834 33.8696 37.4834 33.4449H37.4905ZM41.1496 30.6276C41.1496 33.367 41.553 33.4449 39.6633 33.4449V35.5402H40.5056C41.4044 35.5402 41.2841 36.7436 40.6259 36.7436H1.44462C0.786408 36.7436 0.66609 35.5402 1.56494 35.5402H9.329V27.3289C9.329 27.1519 8.31691 27.1448 7.56669 26.9254C2.301 25.3752 -0.430928 19.8325 1.52247 14.9341C2.4284 12.6689 3.65281 12.2583 3.65281 10.9134C3.65281 9.56842 2.32223 7.56515 3.80144 4.62749C6.80939 -1.35401 15.7625 -0.0798478 16.7038 6.80065C17.0789 9.55427 15.26 10.4603 16.9232 12.4919C18.2113 14.0634 18.6572 16.0525 18.7846 16.1445C19.188 14.4173 18.3458 15.0544 18.4661 12.2796C18.544 10.4391 19.825 8.77561 21.3325 7.86953C25.5507 5.33536 30.7244 9.27112 29.8114 13.8935C29.6274 14.8421 29.0399 15.6844 29.8963 16.6542C30.873 17.7585 31.7365 19.7405 31.7365 21.2129H36.2803C36.2803 20.413 36.0962 19.3583 36.8819 19.3583C39.9677 19.3583 39.6562 19.0397 39.6562 21.2129C40.2649 21.2129 41.1425 21.0713 41.1425 21.8146V28.4544C41.1425 29.141 40.0809 28.9782 39.6562 28.9782V30.1037C40.0809 30.1037 41.1425 29.9409 41.1425 30.6276H41.1496ZM24.7793 33.4449H36.2803V35.5402H24.7793V33.4449ZM19.9878 33.4449H23.569V35.5402H19.9878V33.4449ZM17.815 33.4449H18.7775V35.5402H17.815V33.4449ZM16.2862 31.3142H39.9393V32.2415H16.2862V31.3142ZM37.4834 28.9782H38.446V30.1037H37.4834V28.9782ZM24.7793 28.9782H36.2803V30.1037H24.7793V28.9782ZM19.9878 28.9782H23.569V30.1037H19.9878V28.9782ZM17.815 28.9782C19.0606 28.9782 18.7775 28.8225 18.7775 30.1037H17.815V28.9782ZM15.0406 30.8328C15.0406 31.8663 14.8212 33.2042 15.4652 33.4236C15.7908 33.5298 16.2438 33.367 16.5693 33.4874V35.5402H10.5746C10.4472 35.2216 10.5463 28.7163 10.5322 27.4917C10.5322 27.159 10.4685 27.2439 11.0984 27.1732C12.8324 26.982 13.6746 26.4087 15.0406 25.6866C15.0406 28.9004 14.6159 28.9853 16.5693 28.9853V30.1108C15.7342 30.1108 15.0406 29.9763 15.0406 30.8328ZM16.2862 25.722H39.9393V27.7748H16.2862V25.722ZM16.2862 22.4587H39.9393V24.5116H16.2862V22.4587ZM37.4834 20.5687H38.446V21.2129H37.4834V20.5687ZM17.815 20.5687H18.7775V21.2129H17.815V20.5687ZM19.6693 13.0087C19.6693 10.2692 21.8633 8.23055 24.1352 8.30134C27.1432 8.40044 29.4646 11.2673 28.4808 14.1767C27.3767 17.4541 30.4838 17.6806 30.4838 21.2129H24.7722C24.7722 20.1511 24.6519 20.505 25.3879 19.7759C25.6427 19.5211 26.5416 18.707 26.6194 18.431C26.7397 17.9638 26.3505 17.6806 26.1452 17.6806C25.395 17.6806 25.3101 18.2894 24.7793 18.6433V14.4173C24.7793 13.8581 24.7156 13.5325 24.0927 13.5325C23.4699 13.5325 23.569 14.4244 23.569 14.7359V19.9246C23.116 19.6202 22.7834 18.9194 22.2809 18.9194C21.8209 18.9194 21.6793 19.2309 21.6793 19.606C21.6793 20.0024 22.7834 20.7598 23.0877 21.2129H19.9878C19.9878 19.8255 20.2638 19.3653 18.9049 19.3653C19.0818 16.8453 19.0535 18.4876 19.8675 16.6684C20.5398 15.1748 19.6693 14.3961 19.6693 13.0087ZM14.9627 10.7152C14.9627 13.4051 18.0344 13.9431 17.7088 19.0964C17.6734 19.6839 17.2275 19.1671 16.8241 19.4998C16.4561 19.8042 16.5693 20.505 16.5693 21.22C14.6655 21.22 15.0406 21.4111 15.0406 24.1576C13.9789 24.8655 13.3986 25.3893 11.9123 25.7786C11.6009 25.8565 10.9073 26.0122 10.5322 26.0122V22.3101C10.5322 21.9066 12.7828 20.4484 12.7828 19.698C12.7828 19.422 12.4927 19.1317 12.2166 19.1317C11.5867 19.1317 10.9427 20.3847 10.5251 20.4979C10.5251 15.6419 10.0226 17.2842 12.0822 15.1394C12.3228 14.8916 12.7758 14.5448 12.7758 14.1837C12.7758 13.7236 12.4643 13.582 12.0892 13.582C11.6434 13.582 10.9002 14.7005 10.518 14.9482C10.518 14.2191 10.6242 9.26404 10.4614 8.88887C10.3765 8.69066 10.1783 8.55617 9.90935 8.55617C9.17329 8.55617 9.30776 9.36314 9.30776 10.0852V16.5197C8.61417 16.0525 7.94888 14.6651 7.2482 15.3022C6.66076 15.8331 7.52422 16.4418 7.99134 16.909L9.07421 17.9992C9.37854 18.3035 9.30776 18.1761 9.30776 18.8557V22.1119C8.92558 21.857 8.15413 20.7032 7.70116 20.7032C7.36852 20.7032 7.05711 20.9793 7.05711 21.3049C7.05711 22.0057 9.30776 23.4851 9.30776 23.8816V26.0122C7.55961 26.0122 5.52128 24.8513 4.28979 23.6267C1.85512 21.2058 1.33846 17.0365 3.25647 14.1271C3.60327 13.5962 4.14824 12.952 4.30394 12.6831C6.03794 9.82326 2.96629 8.67651 5.09663 4.74075C7.03587 1.15893 12.4856 1.03859 14.7221 4.74075C16.3853 7.48728 14.9415 9.24988 14.9415 10.7152H14.9627Z" fill="#000091"/>
</svg>
