<svg width="40" height="35" viewBox="0 0 40 35" fill="none" xmlns="http://www.w3.org/2000/svg">
<g clip-path="url(#clip0_29177_137208)">
<path d="M15.3957 35.0002H11.6651C11.4904 35.0002 11.3213 34.9149 11.2142 34.7728L9.60816 32.6127C8.6276 32.931 6.98207 33.022 5.67466 31.6975C5.65211 31.6747 5.62957 31.6463 5.61267 31.6179L0.845126 24.7225C0.822585 24.694 0.805678 24.6599 0.794408 24.6258C0.60844 24.1995 -0.992011 20.4079 0.969105 18.9242L5.32526 14.9279L5.71974 10.7554C5.73664 10.5735 5.83808 10.4144 5.99024 10.3234L13.0119 6.07702L13.3895 3.21199C13.4233 2.96187 13.6093 2.76859 13.8572 2.7288L17.5879 2.1035C17.8302 2.0637 18.0725 2.18308 18.1852 2.40478L19.2898 4.59334C19.4306 4.87189 19.7011 5.04243 20.0111 5.04243C20.321 5.04243 20.5915 4.87757 20.7324 4.59903L21.3185 3.45074C21.3636 3.36547 21.4256 3.29726 21.5045 3.24041L26.0635 0.0968358C26.1987 0.000197844 26.3734 -0.0282251 26.5312 0.0172516C26.689 0.0627283 26.8243 0.17642 26.8919 0.324219L27.9852 2.71175H31.1466C31.2424 2.71175 31.3326 2.73448 31.4171 2.77996L33.6938 4.03625C33.6938 4.03625 33.7502 4.07036 33.7727 4.08742L38.7488 8.06094C38.884 8.16895 38.9629 8.3338 38.9629 8.50434V14.0866L39.9885 18.8332C40.0505 19.1118 39.8927 19.396 39.6279 19.487L37.0018 20.4306L35.6268 25.5808C35.5817 25.7571 35.4464 25.9049 35.2774 25.9674L30.2337 27.8376L25.3929 30.3332L19.7688 32.8571L15.6493 34.9377C15.5704 34.9775 15.4859 35.0002 15.3957 35.0002ZM11.9468 33.8633H15.2605L19.2841 31.8339L24.9026 29.3156L29.7434 26.8201C29.7434 26.8201 29.7829 26.803 29.8054 26.7917L34.6067 25.0124L35.9818 19.8621C36.0325 19.6802 36.1621 19.5381 36.3368 19.4756L38.7713 18.6002L37.8415 14.2799C37.8302 14.2401 37.8302 14.2003 37.8302 14.1605V8.79425L33.1077 5.02537L30.9945 3.86572H27.6132C27.3934 3.86572 27.1962 3.73497 27.1004 3.53601L26.1368 1.42703L22.2483 4.10447L21.7242 5.1277C21.3918 5.78142 20.7268 6.18503 19.9998 6.18503C19.2672 6.18503 18.6079 5.77574 18.2754 5.11633L17.3568 3.29726L14.4433 3.78613L14.0827 6.50336C14.0601 6.6739 13.9587 6.82739 13.8122 6.91834L6.80173 11.159L6.41289 15.2633C6.40162 15.4054 6.334 15.5362 6.23256 15.6328L1.67353 19.811C0.597169 20.6296 1.39739 23.2104 1.78624 24.1313L6.49179 30.9414C7.82737 32.2489 9.47291 31.4587 9.54053 31.4246C9.78286 31.3052 10.0815 31.3734 10.2393 31.5951L11.9356 33.8747L11.9468 33.8633Z" fill="#000091"/>
<path d="M27.9518 27.5803C27.9518 27.5803 27.1346 25.9829 25.568 24.4026C24.0014 22.8223 22.3107 21.4012 22.2938 21.3898L15.6046 15.6768L11.6204 13.619C11.519 13.5678 11.4344 13.4825 11.3781 13.3802L9.6142 10.0377C9.6142 10.0377 9.58603 9.9865 9.58039 9.95808L9.21973 8.90075L10.2848 8.53125L10.6286 9.54879L12.2854 12.6981L16.1682 14.7047C16.2076 14.7218 16.2414 14.7502 16.2752 14.7786L23.0095 20.5257C23.0715 20.5769 24.7001 21.9355 26.3569 23.6068C28.0138 25.278 28.9154 27.0062 28.9492 27.0744L27.9461 27.586L27.9518 27.5803Z" fill="#000091"/>
<path d="M35.0632 24.3978L33.7727 23.0448L29.6589 19.725L26.8806 17.1329L21.9666 14.3417L15.9311 10.4592C15.8747 10.4251 15.824 10.3796 15.7845 10.3227L13.0908 6.76987L13.9868 6.08203L16.6186 9.55531L22.5414 13.3697L27.4892 16.1779C27.5287 16.2006 27.5625 16.2233 27.5963 16.2574L30.3915 18.8724L34.5053 22.1922C34.5053 22.1922 34.5448 22.2263 34.5617 22.2433L35.8803 23.6247L35.0688 24.4148L35.0632 24.3978Z" fill="#000091"/>
<path d="M36.1115 20.3831L31.9075 15.6365L27.9628 12.8681L24.2603 11.1116C24.2096 11.0888 24.1645 11.0547 24.1194 11.0149L22.0625 9.12195L18.377 5.23369L19.1941 4.44922L22.8515 8.30905L24.8182 10.1168L28.4868 11.8562C28.515 11.8676 28.5432 11.8847 28.5714 11.9017L32.6119 14.7326C32.6458 14.7554 32.6796 14.7895 32.7078 14.8236L36.9568 19.6214L36.1172 20.3774L36.1115 20.3831Z" fill="#000091"/>
<path d="M19.2278 32.817L17.0525 31.356C17.0018 31.3219 16.9623 31.2821 16.9229 31.2366L14.1277 27.6838L9.33766 22.3801C9.30948 22.3516 9.28694 22.3175 9.2644 22.2834L5.37598 15.4903L6.3509 14.9219L10.2111 21.6638L14.9843 26.9505L17.7513 30.4635L19.8533 31.879L19.2278 32.8226V32.817Z" fill="#000091"/>
<path d="M2.57019 26.1495L1.85449 25.274L7.06159 20.931L10.9669 17.0939C11.0064 17.0541 11.0571 17.02 11.1078 16.9916L15.571 14.7405L20.7838 8.86265C20.7838 8.86265 20.8119 8.83423 20.8288 8.81717L25.0779 4.95165L27.2419 2.87109L28.0196 3.69536L25.8443 5.78729L21.6065 9.64712L16.3431 15.5818C16.298 15.633 16.236 15.6785 16.174 15.7126L11.6939 17.975L7.81673 21.778L2.57582 26.1552L2.57019 26.1495Z" fill="#000091"/>
<path d="M5.06586 29.959L4.53613 28.9585L8.44146 26.8609L14.5446 21.3696L20.5801 14.8323L26.6269 9.35234L33.0737 4.10547L33.7838 4.99226L27.3595 10.2164L21.3747 15.6395L15.3335 22.1768L9.14588 27.7533C9.11207 27.7818 9.07826 27.8102 9.03317 27.8329L5.06586 29.9647V29.959Z" fill="#000091"/>
<path d="M38.1122 14.6439L36.8781 13.9106L27.3261 8.00996C27.2923 7.98722 27.2641 7.96448 27.2359 7.93606L22.7783 3.69536L23.5504 2.87109L27.9629 7.072L38.6814 13.6661L38.1122 14.6439Z" fill="#000091"/>
<path d="M9.79984 32.4914C9.76039 32.4914 9.71531 32.4914 9.67586 32.4743C9.52934 32.4402 9.39972 32.3436 9.32083 32.2129L6.00722 26.6704C6.00722 26.6704 5.98468 26.6306 5.97341 26.6079L2.28223 18.2401L3.3135 17.7797L6.99341 26.1133L9.99144 31.1214L15.6945 27.381L20.6423 23.3222L25.5 19.1497L29.7998 15.3296L32.9782 10.9866C32.9782 10.9866 33.012 10.9411 33.0289 10.9241L36.7708 7.12109L37.571 7.92262L33.8573 11.6972L30.6677 16.0516C30.6451 16.0857 30.617 16.1141 30.5888 16.1425L26.2383 20.0081L21.358 24.1976L16.3763 28.2791C16.3763 28.2791 16.3425 28.3019 16.3256 28.3132L10.1098 32.3891C10.0196 32.4516 9.91254 32.48 9.80547 32.48L9.79984 32.4914Z" fill="#000091"/>
</g>
<defs>
<clipPath id="clip0_29177_137208">
<rect width="40" height="35" fill="white"/>
</clipPath>
</defs>
</svg>
