<?xml version="1.0" encoding="utf-8"?>
<!-- Generator: Adobe Illustrator 23.1.0, SVG Export Plug-In . SVG Version: 6.00 Build 0)  -->
<svg version="1.1" id="Calque_1" xmlns="http://www.w3.org/2000/svg" xmlns:xlink="http://www.w3.org/1999/xlink" x="0px" y="0px"
	 viewBox="0 0 165.2 150.9" style="enable-background:new 0 0 165.2 150.9;" xml:space="preserve">
<style type="text/css">
	.st0{fill:#2A3D4D;}
	.st1{fill:#FBBF0D;}
	.st2{fill:#EA6409;}
	.st3{fill:#F49D54;}
	.st4{fill:#64C6F1;}
	.st5{fill:#7E97CE;}
	.st6{fill:#73B0A5;}
	.st7{fill:#60B467;}
	.st8{fill:#C6CD2C;}
	.st9{fill:#B0CC4E;}
	.st10{fill:#FDEB7D;}
	.st11{fill:#EF7757;}
	.st12{fill:#5A71B4;}
	.st13{fill:#448D60;}
	.st14{fill:#96AB5B;}
	.st15{fill:#F7D05C;}
	.st16{fill:#405678;}
</style>
<path class="st1" d="M77.8,23.5c6.2-7,8.2-17.8,8.5-23.5H70.9c0,0,0,0.1,0,0.1h1.4C72.3,7.1,74.3,15.5,77.8,23.5"/>
<path class="st2" d="M130.7,15.8L130.7,15.8l0.4,1.4c-9.3,3.3-16.2,7.6-21.4,12.6c3.9,1.7,8.1,2.6,12.3,2.6c4.2,0,8.3,0.2,13.6-1.9
	L130.7,15.8z"/>
<path class="st3" d="M107.3,14.9c-6.8-4.1-10.2-12.8-10.4-14.8c-0.5,0-8.2,0-8.2,0c0,5.7,5.4,19.6,16.2,27c0.7,0.5,1.4,0.9,2.2,1.3
	c4.8-4.8,10.4-8.6,16.6-11.3C117.6,17.6,110.4,16.7,107.3,14.9"/>
<path class="st3" d="M135.6,30.5l-4.9-14.8c-22.5,8-31.1,21-36.5,39.4c5.7,0.3,11.2,1.3,16.7,2.9C114.1,43.6,118.5,36.6,135.6,30.5"
	/>
<path class="st4" d="M116.9,63.2c1,7.6,4.8,16.9,14.4,27.6l10.2-9.2C134.9,73.6,126.5,67.3,116.9,63.2"/>
<path class="st5" d="M130.4,48.8c1.2-3.9,4.3-6.8,8.2-7.9l-2.4-8.2c-8.9,2.6-15.9,9.6-18.5,18.5c-0.8,2.9-1.1,5.8-1,8.8
	c7.6,3.1,14.6,7.5,20.6,13.1C132.1,64.3,129.1,53.8,130.4,48.8"/>
<path class="st5" d="M131.3,90.8l11.4-10.2c-16.1-18.8-36.2-24.7-55.6-24.3c1.6,5.4,2.9,10.9,3.8,16.4
	C101.9,71.8,117.9,75.2,131.3,90.8"/>
<path class="st6" d="M89.2,81c-12.2,5.8-13.1,17.8-14,24.9l13,2.3C89.9,100.3,90.2,90.9,89.2,81"/>
<path class="st7" d="M92.3,99.5c1.6-3.2,3.8-5.9,6.9-7.2c8.4-3.5,18-1.1,23.7,6l5.8-5.2c-8.1-10.1-22.2-17.8-35.6-13.7
	c-0.5,0.1-0.9,0.3-1.3,0.5C92.7,86.4,92.8,93,92.3,99.5"/>
<path class="st7" d="M83.5,49.9c-5,2.3-10.4,3.7-15.9,3.8c7.1,12.5,10.6,28.8,7.6,52.2l14.4,2.6C93.5,90.8,90.1,68.1,83.5,49.9"/>
<path class="st8" d="M27,26.7l-6.5,12.4C34.6,46.5,47,50.4,58.3,51C53,42.8,43.9,34.3,27,26.7"/>
<path class="st9" d="M55.5,69.2c4.8,12.7-4.3,26.6-7.2,31.9l7.3,1.5c5.1-9.6,14.3-24.5,8.1-41c-1-2.7-2.2-5.3-3.6-7.8
	c-8.5-0.3-16.9-2-24.9-5.1C44.4,54.7,52.6,61.7,55.5,69.2"/>
<path class="st9" d="M78.8,31.8c-12.3,8.3-29.3,6.6-51.8-5.2l-7.2,13.7c15.4,8.1,29.1,12.1,41.3,12.1c10.2,0,19.6-1,27.5-7.7
	C84.8,40.9,81.5,36.5,78.8,31.8"/>
<path class="st10" d="M61.4,20.3c-9.3,4.7-24-0.6-29.1-3.6l-4.1,7.6c6,3.5,16.6,6.7,27.9,6.7c4.5,0,8.9-0.6,13.2-1.8
	c2.3-0.7,4.5-1.9,6.3-3.5c-2.7-5.7-4.6-11.8-5.6-18C68.5,13.5,65.3,18.4,61.4,20.3"/>
<path class="st10" d="M86.3,0H70.9C71,16,81.3,39.5,95.2,47.9c1.8-5,4.3-9.8,7.4-14.2C92.9,24.9,86.3,10.9,86.3,0"/>
<path class="st11" d="M130.7,15.9L130.7,15.9l0.4,1.4c-9.3,3.3-16.2,7.5-21.4,12.6c3.9,1.7,8.1,2.6,12.3,2.6c4.2,0,8.3,0.2,13.6-1.8
	L130.7,15.9z"/>
<path class="st12" d="M117,63.1c1,7.6,4.8,16.9,14.4,27.6l10.2-9.2C134.9,73.5,126.5,67.2,117,63.1"/>
<path class="st13" d="M89.3,81c-12.2,5.8-13.1,17.8-14,24.9l13,2.3C90,100.3,90.3,90.9,89.3,81"/>
<path class="st14" d="M27,26.8l-6.5,12.4C34.6,46.6,47,50.5,58.4,51.1C53,42.9,43.9,34.4,27,26.8"/>
<path class="st15" d="M77.7,23.5c6.2-6.9,8.2-17.8,8.5-23.5H70.7v0.1h1.4C72.1,7.1,74.2,15.5,77.7,23.5"/>
<path class="st11" d="M40,129.5l3.9,3c-2.4,3.2-6.3,5.1-10.3,5c-7.2,0-13-5.8-13-13c0-7.2,5.8-13,13-13c4,0,7.8,1.9,10.3,5.1l-3.9,3
	c-1.4-2.1-3.8-3.4-6.4-3.4c-4.6,0-7.9,3.6-7.9,8.3s3.3,8.3,7.9,8.3C36.2,132.8,38.6,131.6,40,129.5z"/>
<path class="st11" d="M54.8,137.5c-6.3,0-9.8-4.4-9.8-9.5s3.3-9.5,9.1-9.5c4.9,0,8.1,3.3,8.1,7.9c0,0.8-0.1,1.7-0.3,2.5H49.5
	c0.4,3.3,2.4,4.6,5.2,4.6c1.8,0,3.4-0.7,4.6-2.1l3.2,2.5C60.6,136.3,57.8,137.6,54.8,137.5z M49.7,125.7h8.1c-0.1-2-1.8-3.6-3.8-3.6
	c0,0,0,0-0.1,0C51.8,122,49.9,123.5,49.7,125.7z"/>
<path class="st11" d="M65.5,119.2h4.4v1.8c1.2-1.3,2.9-2.1,4.6-2.1c0.5,0,1,0.1,1.5,0.3v4.4c-0.7-0.2-1.3-0.2-2-0.2
	c-1.7,0-3.3,0.8-4.2,2.3v11.3h-4.4V119.2z"/>
<path class="st11" d="M86.4,137.5c-6.3,0-9.8-4.4-9.8-9.5s3.3-9.5,9.1-9.5c4.9,0,8.1,3.3,8.1,7.9c0,0.8-0.1,1.7-0.3,2.5H81.2
	c0.4,3.3,2.4,4.6,5.2,4.6c1.8,0,3.4-0.7,4.6-2.1l3.2,2.5C92.3,136.3,89.4,137.6,86.4,137.5z M81.3,125.7h8.2c-0.1-2-1.8-3.6-3.8-3.6
	c0,0,0,0-0.1,0C83.5,122,81.6,123.5,81.3,125.7L81.3,125.7z"/>
<path class="st11" d="M97.1,119.2h4.4v1.3c1.3-1.3,3-2,4.9-2c2.2-0.1,4.2,1,5.4,2.9c1.4-1.9,3.6-2.9,5.9-2.9c3.6,0,6.5,2.5,6.5,7.5
	v10.9h-4.5v-10.7c0-2.1-1.1-3.5-3.1-3.5c-1.6,0.1-3,1.1-3.7,2.5c0,0.3,0,0.5,0,0.8v10.9h-4.4v-10.7c0-2.1-1.2-3.5-3.1-3.5
	s-3.1,1.5-3.8,2.6v11.5h-4.4L97.1,119.2z"/>
<path class="st11" d="M127.2,132c0-2.7,2.1-4.6,5.9-5.3l5.4-0.9v-0.5c0-1.9-1.4-3-3.4-3c-1.6,0-3.1,0.8-4,2.1l-3.3-2.5
	c1.7-2.3,4.5-3.6,7.4-3.5c5.1,0,7.7,3.1,7.7,6.9v11.4h-4.4v-1.7c-1.4,1.5-3.3,2.3-5.3,2.2C129.6,137.3,127.2,135.3,127.2,132z
	 M134.1,133.8c1.8,0.1,3.4-0.8,4.4-2.3V129l-4.2,0.7c-1.9,0.3-2.6,1.1-2.6,2.2S132.6,133.8,134.1,133.8z"/>
<path class="st16" d="M4.8,149.2l0.6,0.5c-0.6,0.8-1.5,1.2-2.4,1.2c-1.7,0-3-1.4-2.9-3.1s1.4-3,3.1-2.9c0.9,0,1.7,0.4,2.3,1.1
	l-0.6,0.5c-0.4-0.6-1.1-0.9-1.8-0.9c-1.3,0-2.3,1-2.3,2.3c0,1.3,1,2.3,2.3,2.3C3.7,150.1,4.4,149.8,4.8,149.2z"/>
<path class="st16" d="M7.5,145h0.8v5h2.3v0.7H7.5V145z"/>
<path class="st16" d="M12.6,145h0.8v5.7h-0.8V145z"/>
<path class="st16" d="M16,145h1l1.8,2.9l1.8-2.9h1v5.7h-0.8V146l-1.7,2.7h-0.6l-1.7-2.7v4.7H16L16,145z"/>
<path class="st16" d="M25.7,145h1l2.3,5.7h-0.8l-0.7-1.7h-2.6l-0.7,1.7h-0.8L25.7,145z M27.3,148.4l-1.1-2.7l-1.1,2.7H27.3z"/>
<path class="st16" d="M29.8,145h4.6v0.7h-1.9v5h-0.8v-5h-1.9V145z"/>
<path class="st16" d="M43.5,150.7l-0.6-0.6c-0.5,0.5-1.1,0.8-1.8,0.8c-1,0.1-1.9-0.6-2-1.6c0-0.1,0-0.1,0-0.2c0-0.7,0.5-1.3,1.1-1.6
	c-0.4-0.3-0.6-0.8-0.6-1.3c0-0.8,0.7-1.4,1.4-1.4c0,0,0.1,0,0.1,0c0.8-0.1,1.4,0.5,1.5,1.3c0,0,0,0.1,0,0.1c0,0.7-0.6,1.4-1.3,1.5
	l1.4,1.4c0.3-0.5,0.5-1,0.6-1.5h0.7c-0.2,0.7-0.4,1.4-0.8,2l1.1,1.1L43.5,150.7z M41.1,150.2c0.5,0,1-0.2,1.3-0.6l-1.7-1.6l0,0
	c-0.5,0.2-0.8,0.6-0.8,1.1C39.8,149.8,40.4,150.2,41.1,150.2L41.1,150.2z M40.9,147.2c0.7-0.2,1-0.5,1-1.1c0-0.5-0.5-0.8-0.9-0.7
	c-0.4,0-0.7,0.3-0.7,0.7C40.3,146.7,40.5,146.9,40.9,147.2L40.9,147.2z"/>
<path class="st16" d="M48.7,145h4.6v0.7h-1.9v5h-0.8v-5h-1.9V145z"/>
<path class="st16" d="M55.3,145h3.1v0.7h-2.3v1.8h2v0.7h-2v1.9h2.3v0.7h-3.1L55.3,145z"/>
<path class="st16" d="M60.7,145h1.5c1.2,0,1.9,0.6,1.9,1.6c0,0.7-0.4,1.2-1,1.4l1.8,2.7h-0.9l-1.6-2.5h-1v2.5h-0.8L60.7,145z
	 M61.5,145.6v1.9h0.8c0.5,0.2,1.1-0.1,1.3-0.7s-0.1-1.1-0.7-1.3c-0.2-0.1-0.4-0.1-0.6,0H61.5z"/>
<path class="st16" d="M66.8,145h1.5c1.1,0,1.9,0.6,1.9,1.6c0,0.7-0.4,1.2-1,1.4l1.9,2.7h-0.9l-1.7-2.5h-0.9v2.5h-0.8L66.8,145z
	 M67.6,145.6v1.9h0.8c0.5,0.2,1.1-0.1,1.3-0.7s-0.1-1.1-0.7-1.3c-0.2-0.1-0.4-0.1-0.6,0H67.6z"/>
<path class="st16" d="M72.9,145h0.8v5.7h-0.8V145z"/>
<path class="st16" d="M75.7,145h4.6v0.7h-1.9v5h-0.8v-5h-1.9L75.7,145z"/>
<path class="st16" d="M87.5,147.8c0,1.7-1.3,3-3,3s-3-1.3-3-3s1.3-3,3-3S87.5,146.2,87.5,147.8L87.5,147.8z M86.7,147.8
	c0-1.2-1.1-2.2-2.3-2.2c-1.2,0-2.2,1.1-2.2,2.3c0,1.2,1,2.2,2.2,2.2C85.7,150.1,86.7,149.1,86.7,147.8
	C86.7,147.9,86.7,147.8,86.7,147.8L86.7,147.8z"/>
<path class="st16" d="M89.6,145h0.8v5.7h-0.8V145z"/>
<path class="st16" d="M93,145h1.5c1.2,0,1.9,0.6,1.9,1.6c0,0.7-0.4,1.2-1,1.4l1.9,2.7h-0.9l-1.7-2.5h-0.9v2.5H93L93,145z
	 M93.8,145.6v1.9h0.8c0.5,0.2,1.1-0.1,1.3-0.7s-0.1-1.1-0.7-1.3c-0.2-0.1-0.4-0.1-0.6,0H93.8z"/>
<path class="st16" d="M99.1,145h3.1v0.7h-2.3v1.8h2v0.7h-2v1.9h2.3v0.7h-3.1L99.1,145z"/>
<path class="st16" d="M104.7,149.4c0.3,0.5,0.8,0.8,1.4,0.8c0.5,0,0.9-0.3,1-0.8c0,0,0-0.1,0-0.1c0-1.3-2.7-1-2.7-2.9
	c0-0.9,0.8-1.6,1.6-1.6c0,0,0,0,0.1,0c0.7,0,1.4,0.3,1.8,0.9l-0.6,0.5c-0.3-0.4-0.7-0.7-1.2-0.8c-0.5,0-0.9,0.3-0.9,0.8
	c0,0,0,0.1,0,0.1c0,1.3,2.7,1,2.7,2.9c0,0.9-0.7,1.6-1.6,1.6c0,0-0.1,0-0.1,0c-0.8,0-1.5-0.3-2-0.9L104.7,149.4z"/>
<path class="st16" d="M113.2,145h2.2c1.6,0,2.9,1.3,2.9,2.9c0,1.6-1.3,2.9-2.9,2.9h-2.2V145z M114,145.7v4.3h1.4
	c1.2,0,2.2-1,2.2-2.2s-1-2.2-2.2-2.2H114z"/>
<path class="st16" d="M120.6,145h3.1v0.7h-2.3v1.8h2v0.7h-2v1.9h2.3v0.7h-3.1V145z"/>
<path class="st16" d="M129,145h2.2c1.6,0,2.9,1.3,2.9,2.9c0,1.6-1.3,2.9-2.9,2.9l0,0H129V145z M129.8,145.7v4.3h1.4
	c1.2,0,2.2-1,2.2-2.2s-1-2.2-2.2-2.2H129.8z"/>
<path class="st16" d="M136.4,145h3.1v0.7h-2.3v1.8h2v0.7h-2v1.9h2.3v0.7h-3.1V145z"/>
<path class="st16" d="M141.8,145h1l1.8,2.9l1.8-2.9h1v5.7h-0.8V146l-1.7,2.7h-0.6l-1.7-2.7v4.7h-0.8L141.8,145z"/>
<path class="st16" d="M151.5,145h1l2.3,5.7h-0.8l-0.7-1.7h-2.6l-0.7,1.7h-0.8L151.5,145z M153.1,148.4l-1.1-2.7l-1.1,2.7H153.1z"/>
<path class="st16" d="M156.8,145h0.8v5.7h-0.8V145z"/>
<path class="st16" d="M160.2,145h1l3.3,4.8V145h0.8v5.7h-1l-3.2-4.8v4.8h-0.8L160.2,145z"/>
</svg>
