<svg width="174" height="73" viewBox="0 0 174 73" fill="none" xmlns="http://www.w3.org/2000/svg">
    <g clip-path="url(#clip0_542_51808)">
        <path d="M86.585 1.42676H91.8837C95.5069 1.42676 97.7267 3.3388 97.7267 6.37809C97.7267 9.41738 95.5069 11.3294 91.8837 11.3294H89.3919V18.5923H86.585V1.42676ZM89.3919 3.80967V8.96077H91.9983C93.7455 8.96077 94.7766 7.97621 94.7766 6.33528C94.7766 4.79423 93.7455 3.80967 91.9983 3.80967H89.3919Z" fill="#111DAA"/>
        <path d="M100.476 0.200195H103.01V18.6072H100.476V0.200195Z" fill="#111DAA"/>
        <path d="M115.571 6.23535H118.134V13.1843C118.134 16.8943 115.986 19.0917 112.52 19.0917C109.055 19.0917 106.878 16.88 106.878 13.1843V6.23535H109.441V13.2985C109.441 15.4388 110.573 16.7088 112.52 16.7088C114.468 16.7088 115.571 15.4388 115.571 13.2985V6.23535Z" fill="#111DAA"/>
        <path d="M122.445 15.3387C123.261 16.3661 124.249 17.0367 125.481 17.0367C126.712 17.0367 127.357 16.2948 127.357 15.3673C127.357 12.8702 121.27 13.7692 121.27 9.40285C121.27 7.36239 122.989 5.75 125.481 5.75C127.3 5.75 128.904 6.63467 129.791 7.80473L128.073 9.30297C127.414 8.4183 126.541 7.80473 125.509 7.80473C124.321 7.80473 123.734 8.48964 123.734 9.33151C123.734 11.8143 129.82 10.9724 129.82 15.2246C129.791 17.6503 127.829 19.1057 125.509 19.1057C123.419 19.1057 121.858 18.2781 120.712 16.8798L122.459 15.353L122.445 15.3387Z" fill="#111DAA"/>
        <path d="M86.3838 31.8629V30.7357C86.3838 28.1102 88.1596 25.8271 91.5537 25.8271C92.685 25.8271 93.6732 26.0697 94.5611 26.4835L92.9142 29.7511C92.6421 29.5371 92.1981 29.3088 91.6396 29.3088C90.8233 29.3088 90.3364 29.851 90.3364 30.6073V31.8629H93.7305V35.3445H90.3364V44.2341H86.3981V35.3445H84.0781V31.8629H86.3981H86.3838Z" fill="#111DAA"/>
        <path d="M95.5928 31.8627H99.5024V32.8758C100.261 32.1623 101.221 31.6201 102.51 31.6201C102.954 31.6201 103.34 31.6915 103.641 31.7913V35.644C103.226 35.5441 102.753 35.4727 102.109 35.4727C100.677 35.4727 99.7459 36.3003 99.5024 36.7284V44.2339H95.5928V31.8627Z" fill="#111DAA"/>
        <path d="M104.472 40.752C104.472 38.8685 105.918 37.4131 108.639 36.9708L112.133 36.3857C112.105 35.4583 111.303 34.7448 110.143 34.7448C109.112 34.7448 108.338 35.23 107.78 36.0433L104.93 33.8887C106.061 32.3191 107.966 31.3916 110.272 31.3916C114.21 31.3916 116.029 33.746 116.029 36.4428V44.2479H112.133V43.3205C111.446 44.0767 110.043 44.6189 108.739 44.6189C106.233 44.6189 104.486 43.1778 104.486 40.7663L104.472 40.752ZM109.599 41.5796C110.859 41.5796 111.647 40.9946 112.133 40.2526V39.0255L109.699 39.4393C108.682 39.6105 108.338 39.9815 108.338 40.538C108.338 41.1801 108.825 41.5654 109.599 41.5654V41.5796Z" fill="#111DAA"/>
        <path d="M119.094 31.8623H123.003V44.2335H119.094V31.8623Z" fill="#111DAA"/>
        <path d="M134.617 39.9393L137.667 42.2509C136.507 43.7777 134.66 44.7337 132.369 44.7337C127.986 44.7337 125.466 41.6659 125.466 38.0558C125.466 34.4458 127.972 31.3779 132.369 31.3779C134.66 31.3779 136.507 32.3339 137.667 33.8607L134.617 36.1723C134.173 35.5302 133.414 35.0451 132.326 35.0451C130.722 35.0451 129.547 36.2436 129.547 38.0701C129.547 39.8965 130.736 41.0951 132.397 41.0951C133.385 41.0951 134.173 40.6099 134.617 39.9678V39.9393Z" fill="#111DAA"/>
        <path d="M139.587 25.8268H143.497V32.5474C144.313 31.8625 145.344 31.3631 146.79 31.3631C149.425 31.3631 151.588 33.2038 151.588 36.9566V44.2195H147.65V37.1278C147.65 35.8721 146.991 35.016 145.731 35.016C144.356 35.016 143.74 36.1004 143.497 36.5142V44.2195H139.587V25.8125V25.8268Z" fill="#111DAA"/>
        <path d="M160.925 44.719C156.37 44.719 153.95 41.6512 153.95 38.0412C153.95 34.4311 156.184 31.3633 160.409 31.3633C163.932 31.3633 166.252 33.6891 166.252 37.0566C166.252 37.8842 166.123 38.6833 166.008 39.1113H157.974C158.347 40.7808 159.421 41.2231 160.91 41.2231C162.099 41.2231 163.13 40.7523 163.688 40.0388L166.452 42.222C165.264 43.763 163.33 44.7048 160.939 44.7048L160.925 44.719ZM157.989 36.3717H162.443C162.4 35.5441 161.755 34.5025 160.294 34.5025C159.034 34.5025 158.275 35.116 157.974 36.3717H157.989Z" fill="#111DAA"/>
        <path d="M85.9971 55.3348H88.5319V56.4905C89.4198 55.5345 90.5798 54.8496 92.2267 54.8496C93.8736 54.8496 95.3487 55.6059 96.1363 57.0756C97.0958 55.8484 98.3274 54.8496 100.476 54.8496C103.068 54.8496 105.058 56.619 105.058 60.0292V67.7059H102.495V60.1291C102.495 58.317 101.478 57.2325 99.8884 57.2325C98.4134 57.2325 97.4539 58.16 96.7808 59.3443C96.8094 59.5584 96.8094 59.7867 96.8094 60.0292V67.7059H94.246V60.1291C94.246 58.317 93.2578 57.2325 91.6395 57.2325C90.0213 57.2325 89.1334 58.317 88.5319 59.3729V67.7202H85.9971V55.349V55.3348Z" fill="#111DAA"/>
        <path d="M108.281 64.4812C108.281 62.6119 109.728 61.2706 112.363 60.8283L116.373 60.1719V59.5298C116.373 58.0031 115.241 57.0756 113.637 57.0756C112.277 57.0756 111.217 57.6891 110.515 58.7022L108.625 57.2611C109.728 55.7914 111.503 54.8496 113.723 54.8496C117.074 54.8496 118.922 56.8187 118.922 59.5298V67.7059H116.387V66.3076C115.499 67.392 113.952 68.0769 112.42 68.0769C109.957 68.0769 108.281 66.6786 108.281 64.4954V64.4812ZM112.893 66.0079C114.439 66.0079 115.657 65.2659 116.387 64.0959V61.9556L113.036 62.5263C111.489 62.7974 110.845 63.4538 110.845 64.3955C110.845 65.3373 111.604 66.0222 112.893 66.0222V66.0079Z" fill="#111DAA"/>
        <path d="M130.45 55.335L134.088 64.9522L137.711 55.335H140.475L135.778 67.7062H132.398L127.715 55.335H130.45Z" fill="#111DAA"/>
        <path d="M142.322 50.8685C142.322 49.941 143.11 49.1562 144.041 49.1562C144.972 49.1562 145.759 49.941 145.759 50.8685C145.759 51.796 144.972 52.5808 144.041 52.5808C143.11 52.5808 142.322 51.796 142.322 50.8685ZM142.766 55.3347H145.301V67.7059H142.766V55.3347Z" fill="#111DAA"/>
        <path d="M149.439 49.2988H151.974V67.7058H149.439V49.2988Z" fill="#111DAA"/>
        <path d="M156.113 49.2988H158.648V67.7058H156.113V49.2988Z" fill="#111DAA"/>
        <path d="M168.629 68.1917C164.347 68.1917 161.812 65.1239 161.812 61.5138C161.812 57.9038 164.175 54.8359 168.114 54.8359C171.536 54.8359 173.756 57.1618 173.756 60.3009C173.756 60.8717 173.685 61.4282 173.584 61.7992H164.419C164.591 64.496 166.238 65.8944 168.629 65.8944C170.133 65.8944 171.393 65.238 172.152 64.1964L174 65.6661C172.84 67.2071 170.949 68.1631 168.629 68.1631V68.1917ZM164.548 59.93H171.221C171.178 58.3889 170.061 56.962 168.071 56.962C166.223 56.962 164.949 58.0179 164.548 59.93Z" fill="#111DAA"/>
        <path d="M116.702 27.2678C115.083 29.2655 115.627 29.9504 117.89 28.709C118.835 28.1953 119.909 27.8957 121.055 27.8957C122.201 27.8957 123.289 28.1953 124.22 28.709C126.483 29.9504 127.027 29.2798 125.409 27.2678C124.392 25.9979 122.817 25.1846 121.055 25.1846C119.294 25.1846 117.733 25.9979 116.702 27.2678Z" fill="#111DAA"/>
        <path d="M28.1837 32.7762V28.9521H7.16049C3.2079 28.9521 0 32.1484 0 36.0866C0 40.0249 3.2079 43.2211 7.16049 43.2211H22.6844C26.637 43.2211 29.8449 46.4174 29.8449 50.3556V65.8659C29.8449 69.8042 33.0528 73.0004 37.0054 73.0004C40.958 73.0004 44.1659 69.8042 44.1659 65.8659V44.0059H39.4686C33.239 44.0059 28.1837 38.969 28.1837 32.762V32.7762Z" fill="url(#paint0_linear_542_51808)"/>
        <path d="M65.232 29.7365H49.6651C45.7125 29.7365 42.5046 26.5403 42.5046 22.602V7.13448C42.5046 3.19625 39.2967 0 35.3441 0C31.3915 0 28.1836 3.19625 28.1836 7.13448V28.9517H32.8809C39.1105 28.9517 44.1658 33.9887 44.1658 40.1957V44.0197H65.232C69.1846 44.0197 72.3925 40.8235 72.3925 36.8853C72.3925 32.947 69.1846 29.7508 65.232 29.7508V29.7365Z" fill="url(#paint1_linear_542_51808)"/>
        <path d="M32.8955 28.9521H28.1982V32.7762C28.1982 38.9832 33.2535 44.0202 39.4832 44.0202H44.1805V40.1961C44.1805 33.9891 39.1252 28.9521 32.8955 28.9521Z" fill="url(#paint2_linear_542_51808)"/>
        <path d="M32.8955 28.9521H28.1982V32.7762C28.1982 38.9832 33.2535 44.0202 39.4832 44.0202H44.1805V40.1961C44.1805 33.9891 39.1252 28.9521 32.8955 28.9521Z" fill="#111DAA"/>
    </g>
    <defs>
        <linearGradient id="paint0_linear_542_51808" x1="46.8153" y1="66.1799" x2="6.96232" y2="26.1959" gradientUnits="userSpaceOnUse">
            <stop stop-color="#FFFB1D"/>
            <stop offset="1" stop-color="#EF385C"/>
        </linearGradient>
        <linearGradient id="paint1_linear_542_51808" x1="25.5772" y1="6.79202" x2="65.4158" y2="46.776" gradientUnits="userSpaceOnUse">
            <stop stop-color="#111DAA"/>
            <stop offset="1" stop-color="#C6C6F7"/>
        </linearGradient>
        <linearGradient id="paint2_linear_542_51808" x1="56.3963" y1="56.6339" x2="16.5576" y2="16.6357" gradientUnits="userSpaceOnUse">
            <stop stop-color="#FFFB1D"/>
            <stop offset="1" stop-color="#EF385C"/>
        </linearGradient>
        <clipPath id="clip0_542_51808">
            <rect width="174" height="73" fill="white"/>
        </clipPath>
    </defs>
</svg>
