<?xml version="1.0" encoding="utf-8"?>
<!-- Generator: Adobe Illustrator 18.0.0, SVG Export Plug-In . SVG Version: 6.00 Build 0)  -->
<!DOCTYPE svg PUBLIC "-//W3C//DTD SVG 1.1//EN" "http://www.w3.org/Graphics/SVG/1.1/DTD/svg11.dtd">
<svg version="1.1" id="Calque_1" xmlns="http://www.w3.org/2000/svg" xmlns:xlink="http://www.w3.org/1999/xlink" x="0px" y="0px"
	 viewBox="60.2 102.6 339.7 307.7" enable-background="new 60.2 102.6 339.7 307.7" xml:space="preserve">
<g id="Calque_1_1_">
	<path id="Devise_Républicaine" d="M192.8,396.1c1,0,1.9,1,1.5,3.1l-5.2,1.2C190,398,191.5,396.1,192.8,396.1 M195.5,404.6h-1
		c-1.3,1.3-2.7,2.7-4,2.7s-2.1-1-2.1-2.7c0-0.8,0-1.5,0.2-2.3l8.2-2.7c1.7-3.8-0.2-5.6-2.5-5.6c-2.3,0-8.4,6.5-8.4,12.3
		c0,2.5,1.3,4,3.1,4C190.7,410.3,193.6,408,195.5,404.6 M194,392.5l5.8-5.4v-0.8h-3.1l-3.6,6.1H194z M176.2,396.3h2.7l-4.4,11.9
		c-0.4,0.8,0,1.7,0.8,1.9c0.2,0,0.2,0,0.4,0.2c3.5-0.6,6.5-2.7,8.1-5.9h-1c-1.3,1.5-3.1,2.7-5,3.1l4-11.1h4l0.6-1.7h-4l1.5-4.2h-1.5
		l-2.9,4.2l-3.3,0.4V396.3z M172.3,395.7c0.4-1.2-0.4-1.7-1-1.7c-2.9,0.4-5.4,2.3-6.3,5.2h0.8c0.8-1.2,1.9-2.1,3.3-2.5l-4.6,11.9
		c-0.2,0.8,0.2,1.5,1,1.7h0.2c2.1,0,4.8-2.3,5.9-5.2h-0.8c-0.8,1.2-1.9,1.9-3.3,2.5L172.3,395.7z M173.3,389.8
		c1.2-0.2,1.9-1,1.9-2.1c0-1-1-1.9-1.9-1.9c-1.2,0-1.9,0.8-2.1,1.9C171.2,388.8,172.1,389.8,173.3,389.8L173.3,389.8 M146.8,408
		c-0.4,0.8-0.2,1.7,0.6,2.1c0.2,0.2,0.6,0.2,0.8,0.2c1,0,1.2-0.2,1.5-1.2l3.3-8.4c1.5-1.7,3.5-3.1,5.6-3.6c1,0,0.8,0.8,0.2,1.7
		l-4.8,9.4c-0.4,0.6-0.2,1.5,0.4,1.9c0.2,0.2,0.6,0.2,0.8,0.2c2.9-0.4,5.4-2.5,6.3-5.2h-0.8c-0.8,1.2-1.9,1.9-3.3,2.5l4.2-8.4
		c0.4-1,0.8-1.9,0.8-2.9c0.2-1.2-0.8-2.1-1.9-2.3c-0.2,0-0.2,0-0.4,0c-1.9,0-4,2.3-6.5,5.2v-2.3c0-1.5-0.6-2.9-1.9-2.9
		c-1.2,0.2-2.1,1-2.7,1.9l0,0c1.5,0,2.3,2.3,1.2,4.8L146.8,408z M146.8,397.7c0.6-1.9,0.2-3.6-1.2-3.6s-2.3,1.3-4,5.2v-2.3
		c0-1.5-0.6-2.9-1.9-2.9s-3.3,2.5-4.4,5.2h0.8c0.8-1.2,1.5-1.9,2.1-1.9s1.2,1.2,0,3.6l-3.3,7.1c-0.4,0.8-0.2,1.7,0.6,2.1
		c0.2,0.2,0.6,0.2,0.8,0.2c1,0,1.2-0.2,1.5-1.2l3.3-8.4c0.8-1.2,1.7-2.1,2.7-3.1H146.8z M128.4,396.1c1.2,0,2.1,1,1.7,3.1l-5.2,1.2
		C125.7,398,127.3,396.1,128.4,396.1 M131.3,404.6h-1c-1.3,1.3-2.7,2.7-4,2.7c-1.3,0-2.1-1-2.1-2.7c0-0.8,0-1.5,0.2-2.3l8.2-2.7
		c1.7-3.8-0.2-5.6-2.5-5.6c-2.3,0-8.4,6.5-8.4,12.3c0,2.5,1.2,4,3.1,4S129.4,408,131.3,404.6 M111.9,396.3h2.7l-4.4,11.9
		c-0.4,0.8,0,1.7,0.8,1.9c0.2,0,0.2,0,0.4,0.2c3.5-0.4,6.5-2.7,7.9-5.9h-0.8c-1.3,1.5-3.1,2.7-5,3.1l4-11.1h4l0.6-1.7h-4l1.5-4.2
		h-1.5l-2.9,4.2l-3.3,0.4V396.3z M96.8,405.5c0-3.6,4-8.6,6.3-8.6h1.3l-2.3,6.3c-1.3,1.7-3.5,3.8-4.4,3.8S96.8,406.5,96.8,405.5
		 M109.3,393.1h-1.2l-1.3,1.3h-0.4c-6.9,0-12.7,7.7-12.7,13.2c-0.2,1.3,0.8,2.3,2.1,2.5c0.2,0,0.2,0,0.4,0c1.7,0,3.5-2.5,5.4-5.2
		v0.8c-0.2,2.9,0.8,4.4,2.1,4.4s3.3-2.7,4.4-5.2h-0.8c-0.8,1.2-1.5,1.7-2.1,1.7s-1.2-1.2,0-3.5L109.3,393.1z M94.9,397.5
		c0.6-1.9,0.2-3.6-1.3-3.6c-1.5,0-2.1,1.3-4,5.2v-2.3c0-1.5-0.4-2.9-1.9-2.9s-3.1,2.5-4.2,5.2h0.8c0.8-1.2,1.5-1.9,2.1-1.9
		s1.2,1.2,0,3.6l-3.3,7.1c-0.6,1.3,0,2.3,1.3,2.3s1.2-0.2,1.5-1.2l3.1-8.4c0.8-1.2,1.7-2.1,2.9-3.1L94.9,397.5z M71.9,409.4l0.4-0.8
		c-4-0.8-4.4-0.8-2.9-5.2l1.5-4.2h4.4c1.9,0,2.1,0.8,1.7,2.9h1.2l2.7-7.1h-1.2c-1,1.7-1.7,2.9-4,2.9h-4.2l2.3-6.3
		c0.6-1.9,1.2-2.3,3.8-2.3h1.9c2.7,0,3.1,0.8,3.1,3.5h1.2l0.8-4.8H68v1c3.3,0.6,3.5,1,1.9,5l-3.5,9.8c-1.5,4.2-2.1,4.4-5.9,5.2v0.8
		L71.9,409.4z M152.8,358.9c1.2,0,2.1,0.8,1.5,2.9l-5.2,1.2C150.1,360.7,151.6,358.9,152.8,358.9 M155.7,367.2h-1.2
		c-0.8,1.5-2.3,2.5-4,2.7c-1.3,0-2.1-0.8-2.1-2.7c0-0.8,0.2-1.5,0.4-2.3l8.2-2.7c1.5-3.8-0.4-5.6-2.7-5.6c-2.3,0-8.2,6.5-8.2,12.3
		c0,2.7,1.2,4,3.1,4S153.7,370.8,155.7,367.2 M153.9,355.1l5.9-5.4v-0.6h-3.3l-3.6,5.9H153.9z M136.1,358.9h2.7l-4.2,11.9
		c-0.4,1.2,0,2.1,1.2,2.1c3.5-0.4,6.3-2.7,7.9-5.8h-0.8c-1.3,1.3-3.1,2.5-5,3.1l3.8-11.3h4.2l0.4-1.7h-3.8l1.5-4.2h-1.7l-2.7,4.2
		l-3.5,0.6L136.1,358.9z M132.5,358.4c0.2-1.2-0.4-1.7-1-1.7c-3.1,0.4-5.6,2.3-6.5,5.2h0.8c0.8-1.3,2.1-2.1,3.5-2.5l-4.6,11.9
		c-0.4,1.2,0.4,1.7,1,1.7c2.9-0.4,5.2-2.5,6.1-5.2h-0.8c-0.8,1.3-2.1,2.1-3.5,2.5L132.5,358.4z M133.2,352.4c1,0.2,1.7-0.6,1.9-1.5
		c0-0.2,0-0.2,0-0.4c0-1.2-0.8-1.9-1.9-1.9s-1.9,0.8-1.9,1.9c-0.2,1,0.6,1.7,1.5,1.9C133,352.4,133,352.4,133.2,352.4 M117.3,370.2
		l8.4-21.9h-0.4l-5.2,0.6v0.6l1,0.8c1,0.8,0.8,1.3-0.2,3.6l-6.5,17.1c-0.4,0.8,0,1.7,0.8,1.9c0.2,0,0.2,0,0.4,0.2
		c2.9-0.4,5.4-2.3,6.1-5.2H121c-0.8,1.3-2.1,2.1-3.6,2.5 M101.6,368.5c0-3.8,4-8.8,6.3-8.8h1.3l-2.3,6.5c-1.3,1.5-3.5,3.6-4.6,3.6
		s-0.8-0.6-0.8-1.5 M114.1,356.1h-1.2l-1.5,1.3h-0.2c-6.9,0-12.7,7.7-12.7,13.2c-0.2,1.3,0.8,2.3,2.1,2.5h0.2c1.9,0,3.6-2.5,5.6-5.2
		v1c-0.2,2.7,0.6,4.2,2.1,4.2s3.1-2.7,4.4-5.2h-0.8c-1,1.2-1.7,1.9-2.3,1.9s-1-1.2,0-3.6L114.1,356.1z M83.8,375.8
		c0-1.5,1.5-2.5,3.6-3.5l3.3,1.2c2.3,0.8,3.1,1.2,3.1,1.9c0,0.8-2.5,2.5-5.8,2.5S83.8,377.3,83.8,375.8 M89.9,366.2
		c-1,0-1.3-1-1.3-1.9c0-1,1.3-6.5,3.6-6.5c2.3,0,1.3,0.8,1.3,1.7C93.5,360.5,92.2,366.2,89.9,366.2 M96.4,374.3
		c0-1.9-1.7-2.5-4.6-3.5c-2.9-1-3.5-0.8-3.5-1.5c0-1,0.6-1.7,1.5-1.9c3.6-0.2,6.3-3.1,6.5-6.7c0-0.6-0.2-1.2-0.4-1.7h3.3l0.6-1.7
		h-5.2l-2.1-0.6c-3.6,0-6.7,3.1-6.9,6.7c-0.2,1.9,1.2,3.5,3.1,3.8c-1.9,1-2.9,1.9-2.9,3.1c0,0.6,0.2,1.3,0.8,1.7
		c-4.4,1.3-6.3,2.7-6.3,4.8s2.7,3.1,5.9,3.1S96.4,376.8,96.4,374.3 M75.5,361.6c1.9,0,1.9,0.8,1.7,2.9h1.2l2.5-7.1h-1.2
		c-1,1.5-1.7,2.9-3.8,2.9h-4.4l2.3-5.9c0.6-2.1,1.2-2.5,3.8-2.5h1.9c2.7,0,3.1,0.8,3.1,3.6h1.2l0.8-5H68v1c3.3,0.6,3.5,1,1.9,5
		l-3.5,9.8c-1.5,4.2-2.1,4.6-5.9,5.2v1h18l3.3-5.2h-1.3c-2.1,2.3-5.2,3.6-8.4,3.8c-4.8,0-4.4-0.2-2.7-4.8l1.7-4.6H75.5z M77.8,349
		l5.9-3.8v-0.8h-3.6l-3.3,4.6H77.8z M150.9,321.6c1.2,0,2.1,0.8,1.5,2.9l-5.2,1.3C148.2,323.3,149.7,321.6,150.9,321.6 M153.7,329.8
		h-1.2c-1,1.5-2.3,2.5-4,2.7c-1.3,0-2.1-0.8-2.1-2.7c0-1.9,0.2-1.5,0.2-2.3l8.4-2.7c1.5-3.8-0.4-5.6-2.7-5.6
		c-2.3,0-8.4,6.7-8.4,12.3c0,5.6,1.3,4,3.3,4S151.8,333.4,153.7,329.8 M152,317.7l5.8-5.4v-0.6h-3.1l-3.6,5.9H152z M134.9,321.6h2.1
		l-4.4,12.1c-0.4,0.6,0,1.5,0.6,1.7c0.2,0.2,0.4,0.2,0.8,0.2c3.5-0.6,6.3-2.7,7.9-5.8h-0.8c-1.3,1.5-3.3,2.5-5.2,3.1l4-11.3h4.2
		l0.4-1.5h-3.8l1.3-4.4h-1.5l-2.9,4.4l-2.7,0.4L134.9,321.6z M132.8,322.9c0.6-1.9,0.2-3.6-1.3-3.6c-1.5,0-2.1,1.3-4,5.4v-2.3
		c0-1.5-0.4-3.1-1.9-3.1s-3.3,2.7-4.4,5.2h0.8c1-1.2,1.7-1.7,2.3-1.7c0.6,0,1,1,0,3.5l-3.3,7.3c-0.6,1.3,0,2.1,1.3,2.1
		c0.8,0.2,1.3-0.4,1.5-1l3.1-8.4l2.7-3.3L132.8,322.9z M114.4,321.6c1.2,0,2.1,0.8,1.5,2.9l-5.2,1.3
		C111.8,323.3,113.3,321.6,114.4,321.6 M117.3,329.8h-1.2c-0.8,1.5-2.3,2.5-4,2.7c-1.3,0-2.1-0.8-2.1-2.7c0-0.8,0.2-1.5,0.4-2.3
		l8.2-2.7c1.5-3.8-0.4-5.6-2.7-5.6s-8.2,6.7-8.2,12.3c0,5.6,1.2,4,3.1,4S115.4,333.4,117.3,329.8 M97,333.3c-0.8,0-1.9-0.8-1.9-1.5
		c0-0.8,0.4-1.2,0.8-2.3l1.3-3.5c1.3-1.7,3.6-3.6,4.8-3.6c1.2,0,1.3,0.6,1.3,1.7S100.3,333.3,97,333.3 M106.4,322.7
		c0-2.5-1-3.5-2.5-3.5c-1.5,0-4.2,2.3-6.1,5l5-13v-0.4l-5.4,0.6v0.6l1.2,0.8c1,0.8,0.6,1.5-0.2,3.6l-5.6,13.8c-0.4,1-0.8,1.7-1,2.7
		c0,1.3,1.9,2.7,3.6,2.7C97.2,335.6,106.4,328.3,106.4,322.7 M90.1,321c0.4-0.6,0.2-1.3-0.4-1.5c-0.2,0-0.4-0.2-0.6-0.2
		c-2.9,0.4-5.4,2.5-6.3,5.2h0.8c0.8-1.2,1.9-1.9,3.3-2.5l-4.6,11.9c-0.2,0.8,0.2,1.5,1,1.7h0.2c2.9-0.4,5.2-2.5,5.9-5.2h-0.8
		c-0.8,1.2-1.9,2.1-3.3,2.5L90.1,321z M91.1,315c1.2,0,1.9-0.8,1.9-1.9c0-1.2-0.8-1.9-1.9-1.9c-1.2,0-1.9,0.8-1.9,1.9
		C89.1,314.3,89.9,315,91.1,315 M79,313.1H68v1c3.1,0.8,3.5,1,1.9,5.2l-3.5,9.8c-1.5,4-2.1,4.4-5.9,5v1h16.1l3.6-6.3H79
		c-1.9,2.1-4.4,5-8.1,5c-3.6,0-3.1-0.4-1.5-4.6l3.5-9.8c1.5-4.2,2.1-4.4,5.8-5.2L79,313.1z"/>
	<path d="M60.2,223.8v-39.5h12.1c3.6-0.2,7.3,0.8,10.4,3.1c2.5,2.1,4,5.4,3.8,8.6c0,2.3-0.6,4.4-1.7,6.3c-1.2,1.7-2.7,3.1-4.6,4
		l12.3,17.4h-9.6l-10.5-15.9h-4v15.9H60.2z M72.6,191h-4.4v10h4.4c1.5,0.2,2.9-0.4,4-1.3c1-1,1.5-2.3,1.5-3.6c0-1.3-0.6-2.7-1.5-3.6
		C75.5,191.4,74.2,191,72.6,191z"/>
	<path d="M97.4,223.8v-39.5h23.2v6.7h-15.1v9.2h12.8v6.9h-12.8v9.8h15.1v6.9H97.4z M112.5,180.9h-7.3l6.3-7.7h8.4L112.5,180.9z"/>
	<path d="M129.8,223.8v-39.5H143c3.6-0.2,7.3,1,10.2,3.1c4.8,4.4,5.2,11.7,0.8,16.5c-0.2,0.2-0.4,0.6-0.8,0.8
		c-2.9,2.3-6.5,3.5-10.2,3.3h-5.2v15.9H129.8z M143.2,191h-5.4v10h5.4c1.5,0.2,2.9-0.4,4-1.3c1-1,1.5-2.3,1.5-3.6
		c0-1.3-0.6-2.7-1.5-3.6C146.1,191.4,144.7,191,143.2,191z"/>
	<path d="M186.9,209v-24.7h8.1v24c0.2,4.6-1.3,8.8-4.4,12.3c-6.7,5.9-16.7,5.9-23.4,0c-2.9-3.5-4.4-7.9-4.2-12.3v-24h8.1V209
		c-0.2,2.3,0.6,4.4,2.1,6.1c1.5,1.5,3.6,2.5,5.8,2.3c2.3,0.2,4.4-0.8,5.9-2.3C186.3,213.4,187.1,211.3,186.9,209z"/>
	<path d="M204.9,223.8v-39.5h11.3c3.5-0.2,6.9,0.8,9.6,2.9c2.5,1.9,3.8,4.8,3.6,7.9c0,1.5-0.4,3.1-1.2,4.4c-0.8,1.3-1.7,2.5-3.1,3.3
		c1.9,0.8,3.6,2.3,4.8,4c1.2,1.5,1.7,3.5,1.7,5.4c0.2,3.5-1.3,6.5-4,8.6c-3.1,2.3-6.9,3.3-10.7,3.1H204.9z M216.2,191H213v8.8h3.3
		c1.3,0,2.7-0.4,3.6-1.2c1.7-1.7,1.7-4.8,0-6.5l0,0C218.9,191.4,217.6,191,216.2,191z M217.4,206.7H213v10.2h4.4
		c1.5,0.2,3.3-0.4,4.4-1.3c1.2-1,1.7-2.3,1.7-3.8c0-1.5-0.6-2.9-1.7-3.8C220.4,207.1,218.9,206.5,217.4,206.7z"/>
	<path d="M239.8,223.8v-39.5h8.1v32.2H263v7.3H239.8z"/>
	<path d="M270.1,223.8v-39.5h8.1v39.5H270.1z"/>
	<path d="M322.4,222.8c1.2,1.2,2.7,2.1,4.2,2.9c1.3,0.6,2.7,1,4,1h1.3l1.5-0.4v6.9l-1.9,0.6h-2.3c-2.1,0-4.4-0.6-6.3-1.3
		c-2.3-1-4.2-2.3-6.1-4l-4.6-4l-2.7,0.4h-2.9c-2.9,0-5.8-0.6-8.4-1.7c-2.5-1.2-4.8-2.5-6.7-4.4c-3.6-4-5.8-9.2-5.8-14.8
		s2.1-10.7,5.8-14.8c1.9-1.9,4.2-3.5,6.7-4.4c2.7-1.2,5.6-1.7,8.4-1.7s5.9,0.6,8.6,1.7c2.5,1.2,4.8,2.5,6.7,4.4
		c3.6,4,5.8,9.2,5.8,14.8c0,3.3-0.8,6.3-2.1,9.2c-1.3,2.9-3.3,5.4-5.8,7.3L322.4,222.8z M306.7,217.5c3.5,0,6.7-1.5,9.2-3.8
		c1.2-1.3,1.9-2.7,2.7-4.2c1.3-3.5,1.3-7.3,0-10.7c-0.6-1.5-1.5-2.9-2.7-4.2c-1.2-1.2-2.5-2.1-4-2.9c-1.7-0.6-3.5-1-5.2-1
		s-3.5,0.4-5,1s-2.9,1.5-4,2.9c-1.2,1.2-2.1,2.7-2.7,4.2c-1.3,3.5-1.3,7.3,0,10.7c0.6,1.5,1.5,3.1,2.7,4.2c1.2,1.3,2.5,2.1,4,2.7
		C303.3,217.1,305,217.5,306.7,217.5z"/>
	<path d="M358.8,209v-24.7h8.1v24c0.2,4.6-1.3,8.8-4.4,12.3c-6.7,5.9-16.7,5.9-23.4,0c-3.1-3.5-4.6-7.7-4.4-12.3v-24h8.1V209
		c-0.2,2.3,0.8,4.6,2.3,6.1s3.6,2.5,5.8,2.3c2.3,0.2,4.4-0.8,5.9-2.3C358.3,213.4,359,211.3,358.8,209z"/>
	<path d="M376.9,223.8v-39.5h23v6.7h-15v9.2h12.7v6.9h-12.7v9.8h15v6.9H376.9z"/>
	<path d="M60.2,283.6v-39.5h23v6.7h-15v9.2h12.8v6.9H68.2v16.7H60.2z"/>
	<path d="M90.3,283.6v-39.5h12.1c3.6-0.2,7.3,0.8,10.4,3.1c2.5,2.1,4,5.4,3.8,8.6c0,2.3-0.6,4.4-1.7,6.3c-1.2,1.7-2.7,3.1-4.6,4
		l12.5,17.4h-9.6l-10.5-15.9h-4.2v15.9H90.3z M102.9,250.8h-4.6v10h4.6c1.3,0.2,2.9-0.4,3.8-1.3s1.5-2.3,1.5-3.6s-0.6-2.7-1.5-3.6
		C105.6,251.2,104.3,250.8,102.9,250.8z"/>
	<path d="M124.4,283.6l15-39.5h10.5l15,39.5h-8.6l-3.8-10.4h-15.7l-3.8,10.4H124.4z M139.2,266.5h10.7l-5.4-15L139.2,266.5z"/>
	<path d="M171,283.6v-39.5h10.2l17.8,28.2v-28.2h8.1v39.5h-10.4l-17.8-28.4v28.4H171z"/>
	<path d="M235.6,277.3c2.1,0,4.2-0.6,6.1-1.5c1.7-1,3.1-2.3,4.2-3.8l6.3,4.8c-1.5,2.1-3.5,3.8-5.8,5.2c-2.3,1.3-5,2.3-7.7,2.7
		l-5,8.2h-7.1l5-8.4c-2.5-0.4-5-1.2-7.1-2.5c-1.9-1.3-3.8-2.9-5.4-4.6c-1.5-1.9-2.7-4-3.5-6.3s-1.2-4.6-1.2-7.1
		c0-5.6,2.1-10.7,5.8-14.8c1.9-1.9,4.2-3.5,6.7-4.4c2.7-1.2,5.6-1.7,8.4-1.7c3.5,0,6.7,0.8,9.8,2.1c2.7,1.3,5.2,3.5,6.9,5.9
		l-6.3,4.8c-1.2-1.5-2.5-2.9-4.2-3.8c-1.9-1-4-1.5-6.1-1.5c-1.7,0-3.5,0.4-5,1c-1.5,0.8-3.1,1.7-4.2,2.9c-1,1.3-1.9,2.7-2.5,4.2
		c-1.3,3.5-1.3,7.3,0,10.7c0.6,1.5,1.5,2.9,2.5,4.2c1.2,1.2,2.7,2.1,4.2,2.7C232.1,276.9,233.9,277.3,235.6,277.3z"/>
	<path d="M254,283.6l15-39.5h10.5l15,39.5H286l-3.8-10.4h-15.7l-3.8,10.4H254z M268.9,266.5h10.7l-5.4-15L268.9,266.5z"/>
	<path d="M300.6,283.6v-39.5h8.1v39.5H300.6z"/>
	<path d="M316.1,278.2l5.9-5.4c1.2,1.3,2.5,2.5,4,3.5c1.3,1,3.1,1.3,4.8,1.3c1.3,0,2.7-0.4,3.6-1.2c1-1,1.3-2.1,1.3-3.5
		c0-1.7-1.2-3.5-2.9-4l-6.1-3.1c-2.3-1-4.4-2.5-6.3-4c-1.9-2.1-2.9-4.8-2.7-7.5c0-1.5,0.2-3.1,1-4.4c0.6-1.5,1.3-2.7,2.5-3.8
		c1.2-1,2.5-1.7,4-2.3c1.5-0.8,3.5-1,5.2-1c2.7,0,5.4,0.6,7.9,1.7c2.3,1.3,4.2,2.9,5.9,5l-5.9,5.2c-1-1.3-2.3-2.7-3.6-3.6
		c-1.3-0.8-2.7-1.3-4.2-1.3c-1.2,0-2.5,0.4-3.3,1.3c-1,0.8-1.3,1.7-1.3,2.9c0,1.7,1.2,3.5,2.9,4l6.1,3.1c2.3,1,4.4,2.5,6.3,4.2
		c1.9,1.9,3.1,4.6,2.9,7.5c-0.2,1.7-0.6,3.5-1.2,5c-0.8,1.3-1.7,2.7-2.9,3.8c-1.2,1-2.5,1.7-4,2.3c-1.7,0.6-3.5,0.8-5.2,0.8
		c-2.9,0-5.8-0.6-8.4-1.7C319.9,281.9,317.8,280.2,316.1,278.2z"/>
	<path d="M352.5,283.6v-39.5h23v6.7h-15.1v9.2h12.8v6.9h-12.8v9.8h15.1v6.9H352.5z"/>
	<g id="Marianne">
		<path id="Fond-2" fill="#FFFFFF" d="M121.9,150.6l1.7-1.7l0,0c1-1.2,2.3-2.5,3.5-3.5l1.2-1c0.2-0.2,0.2-0.2,0.2-0.4l-1.3,0.8
			c0,0-0.2,0,0-0.2l1-0.8h-0.2c-1.3,0-2.5,0.6-3.3,1.5h-0.4c-1.5,0.6-2.7,1.9-4.2,2.5l0,0l-1.9,0.8c-0.8,0.2-1.7,0.2-2.5,0l-3.8,0.8
			l0,0l-1.9,0.8h-0.2c0,0.2,0,0.2-0.2,0.2l-0.6,0.6c-0.6,0.4-1.2,0.8-1.7,1.3H107l-1.7,1.7H105c0.2,0,0.2-0.2,0.4-0.4
			c0-0.2,0-0.2,0.2-0.4c0.2-0.2,0.4-0.6,0.4-0.8l0,0l1.7-1.2l0,0c-0.2,0-0.2,0-0.2-0.2h-0.4c-0.2,0.4-0.4,0.8-0.8,0.8l0,0
			c0-0.2,0-0.2,0.2-0.2l0,0l0.8-0.6l0,0l1.2-0.8h0.2l-1.7,0.8h-0.2c0,0,0,0.2-0.2,0l0,0l0.6-0.6h0.2c3.3-2.5,7.9-1.9,11.7-3.3l1-0.6
			c0.4-0.2,0.8-0.8,1.5-1c0.8-0.6,1.3-1.5,1.7-2.5h-0.2c-1.3,0.6-2.9,1-4.4,1c-2.1,0.8-4.6,1.2-6.9,1.2h0.6c0-0.2,0.2-0.4,0.4-0.6
			h0.4c0-0.2,0-0.2,0.2-0.2h0.4c-0.4-0.4-1,0.4-1.5,0c-0.6-0.4,0.2-0.4,0.4-0.6h0.4c0-0.2,0-0.2,0.2-0.4c1.5-1,3.1-1.5,4.4-2.5
			c1.3-1-0.4,0.4-0.8,0.2c-0.4-0.2,0-0.4,0.2-0.4c1.2-0.4,2.3-0.8,3.3-1.3c-0.4,0-0.8,0.4-1.2,0h0.6v-0.4c0-0.2,0-0.2,0.2-0.2h-0.2
			l0.6-0.4H120c0.4-0.4,0.8-0.6,1.3-0.6c-0.2-0.2-0.6,0-0.6-0.2c0-0.2,0.2-0.2,0.4-0.2h-0.4c-0.2,0-0.2,0-0.2-0.2s0-0.2,0.2-0.2l0,0
			c0.4-0.8,0.8-1.7,1-2.5h-0.2c-1.2,1-2.7,1.7-4.2,2.1h-0.6c-0.6,0.2-1.2,0.2-1.7-0.2l-1-0.8l-2.7-1.3c-2.5-1-5.2-1.7-7.9-1.9
			c1.2-0.4,2.5-0.8,3.6-1c1.7-0.8,3.5-1,5.2-1c-0.4-0.2-0.8,0-1,0c-1.5,0-3.1,0.2-4.4,0.6l-3.1,0.8c-0.6,0.2-1,1-1.5,0.8v-0.4
			c1-1.3,2.3-2.3,3.8-2.5c1.7-0.2,3.6-0.2,5.4,0.2l4,0.8c0.4,0,0.6,0.8,1,1s1.2,0,1.9,0.4s-0.2-0.4,0-0.6c0.2-0.2,0.8,0,1.3-0.2
			c0.6-0.2-0.8-1.3-1.2-2.1l0,0c0.8,0.8,1.5,1.3,2.5,1.9c0.6,0.4,1.7,0.6,1.5,0c-0.6-1.2-1.3-2.1-2.3-3.1V128H120v-1
			c-0.4-0.2-0.2-0.6-0.6-0.8c-0.4-0.2,0-1.3-0.2-1.9c-0.2-0.6-0.4-1.2-0.4-1.7c-0.4-1.7-0.8-3.3-1-5c-0.2-1.9,1.2-3.5,2.1-5.2
			c0.6-1.3,1.5-2.5,2.9-3.3c0.4-1.2,1-2.3,1.9-3.3c0.8-1,1.9-1.7,3.1-2.1l2.9-1.2h20.5l0.4,0.4l1.5,0.8c0.8,0.4,1.3,1,1.9,1.5
			c0.2,0.4,0.6,1,0.4,1.3c-0.2,0.4-0.4,1.3-0.8,1.5c-0.8,0.4-1.5,0.4-2.3,0.4l-1.2-0.4c1.5,0.6,3.1,1.5,4,2.9l1,0.4l0,0
			c-0.2,0.2-0.4,0.4-0.2,0.6h0.2c0.6-0.2,0.4-1.2,1.2-0.8c0.6,0.2,0.8,0.8,0.6,1.2c0,0.2-0.2,0.2-0.2,0.4l-1.2,1
			c-0.2,0.2-0.2,0.6,0,0.8l0.6,1.2l0.6,2.3c0.6,1.5,0.8,3.1,0.8,4.6c0,0.8-0.4,1.5-0.2,2.3c0.4,0.8,0.8,1.5,1.2,2.3
			c0.6,0.4,1,1,1.2,1.5c0.6,1,1.7,2.1,1.3,3.3c-0.4,1.2-1.5,0.6-2.3,1.2c-0.8,0.6,0,1.3,0.4,1.7c0.4,0.4-0.8,1.5-1.3,1.9
			c-0.6,0.4,0.6,0.2,0.6,0.4s0.8,0.8,0.4,1.3c-0.4,0.6-1.7,1-1,1.9c0.8,1,0,1.5-0.2,2.1c-0.4,0.8-1,1.3-1.9,1.5
			c-0.6,0.4-1.3,0.4-1.9,0.2h-0.6c-1.7-0.4-3.5-0.6-5.2-0.8l-1.5,0.4l-1.2,1.2h-0.6l-0.8,1.2l0,0c0,0.2,0,0.2-0.2,0.2l-0.8,1.9
			c-0.6,2.3-0.4,4.4,0.2,4.8s3.5,1.2,5.6,2.3l2.5,1.2H110c2.1-1.3,4.4-2.5,6.7-3.5c1.9-0.8,3.6-1.7,5.2-3.1 M106.2,142.7
			c-0.2,0-0.6,0.2-0.6,0c0-0.2,0.8-0.6,1.3-0.8c0.6-0.2,0.4-0.4,0.6-0.2l0.8,0.4C107.7,142.7,107,142.5,106.2,142.7 M90.5,140.4
			L90.5,140.4c1.2-1.5,2.3-3.3,3.3-5.2c1.2-0.8,2.3-1.5,3.5-2.5c1.5-1.9,3.6-3.5,5.8-4.6c1-0.2,1.9-0.2,2.7,0.2
			c-0.4,0.4-1,0.4-1.3,0.6h-0.2v-0.4c-1,1.2-2.5,1.7-3.3,3.1c-0.8,1.3-1,2.3-2.3,2.5c-1.3,0.2,0-0.2-0.2-0.2
			c-2.9,2.1-5.6,4.4-7.9,7.1 M98.9,134.3c0,0.2-0.2,0.2-0.2,0.4c0,0.2-0.2,0.4-0.4,0.4h-0.2C98.1,134.7,98.5,134.1,98.9,134.3
			L98.9,134.3 M103.7,149.4c0,0.2-0.2,0.2-0.2,0.4s0.2,0,0.2,0.2l-0.8,0.4c-0.2,0-0.2,0-0.2,0.2h-0.4c-0.2,0.2-0.8,0.2-0.6,0
			l0.8-0.8c0.2-0.2,0.4-0.2,0.4-0.4H103.7 M102,148.7L102,148.7l-1.3,0.8l-1.3,0.6h-0.2l-1,0.8h-0.6c0,0.2,0,0.2-0.2,0.2h-0.2
			c0,0.2,0,0.2-0.2,0.2h-0.2c-0.2,0.2-0.4,0.2-0.4,0.4l-0.6,0.6h-0.6l0.4-0.4H96c0-0.2,0.2-0.4,0.4-0.4l0,0l0,0c0-0.2,0-0.2,0.2-0.2
			l0,0c0.2-0.2,0.2-0.2,0.2-0.4l0,0c0.2-0.2,0.4-0.4,0.4-0.6l0,0l-0.4,0.4c-0.2,0-0.2,0-0.2-0.2c0.2,0,0.2,0,0.2-0.2H97l0.4-0.6h0.4
			v-0.4l0,0c1.2-1,2.7-0.8,4-1.5s1.2,0.2,1.5,0h1l-2.5,1.7 M103.9,142.3c-0.2-0.2,0.2,0,0.4-0.4h-0.8l-1.7,0.6l-2.1,0.8
			c-1,0.6-2.1,1.2-3.3,1.7c-0.2,0-0.2,0-0.2-0.2l0.8-0.6l0,0c0.8-1,1.7-1.9,2.9-2.7v-0.4c0.4-0.4,0.8-0.8,1.2-1.2
			c0.2-0.4,0.6-0.8,1-1h-0.4c-0.4,0-0.8,0.2-1.2-0.2l0.6-0.4h-0.2c-0.2-0.4,0.2-0.6,0.6-0.6l1.2-0.4c-0.8-0.2-1.5,0.2-2.3-0.2
			c0.4-1.3,1.3-2.5,2.7-3.1h0.2c0,0.6-0.2,1-0.8,1l2.5,0.8c0,0.2,0,0.2-0.2,0.2c-0.2,0-0.2,0-0.2-0.2c0.4,0.4,1.2,0.2,1.5,0.6
			s-0.6,0-0.8,0c3.1,1,6.5,1.5,9.2,3.6c-2.3,0.8-4.6,1-7.1,1h-1c-0.4,0-0.8,0-1,0.4h-1.3"/>
		<path id="Rouge" fill="#000091" d="M121.9,150.6l1.7-1.7l0,0c1-1.2,2.3-2.5,3.5-3.5l1.2-1c0.2-0.2,0.2-0.2,0.2-0.4l-1.3,0.8
			c0,0-0.2,0,0-0.2l1-0.8h-0.2c-1.3,0-2.5,0.6-3.3,1.5h-0.4c-1.5,0.6-2.7,1.9-4.2,2.5l0,0l-1.9,0.8c-0.8,0.2-1.7,0.2-2.5,0l-3.8,0.8
			l0,0l-1.9,0.8h-0.2c0,0.2,0,0.2-0.2,0.2l-0.6,0.6l-1.7,1.3c-0.2,0-0.2,0-0.2,0.2l-1.7,1.5H105c0.2,0,0.2-0.2,0.4-0.4
			c0-0.2,0-0.2,0.2-0.4c0.2-0.2,0.4-0.6,0.4-0.8l0,0l1.7-1.2l0,0c-0.2,0-0.2,0-0.2-0.2h-0.4c-0.2,0.4-0.4,0.8-0.8,0.8l0,0
			c0-0.2,0-0.2,0.2-0.2l0,0l0.8-0.6l0,0l1.2-0.8h0.2l-1.7,0.8h-0.2c0,0,0,0.2-0.2,0l0,0l0.6-0.6h0.2c3.3-2.5,7.9-1.9,11.7-3.3l1-0.6
			c0.4-0.2,0.8-0.8,1.5-1c0.8-0.6,1.3-1.5,1.7-2.5h-0.2c-1.3,0.6-2.9,1-4.4,1c-2.1,0.8-4.6,1.2-6.9,1.2h0.6c0-0.2,0.2-0.4,0.4-0.6
			h0.4c0-0.2,0-0.2,0.2-0.2h0.4c-0.4-0.4-1,0.4-1.5,0c-0.6-0.4,0.2-0.4,0.4-0.6h0.4c0-0.2,0-0.2,0.2-0.4c1.5-1,3.1-1.5,4.4-2.5
			c1.3-1-0.4,0.4-0.8,0.2c-0.4-0.2,0-0.4,0.2-0.4c1.2-0.4,2.3-0.8,3.3-1.3c-0.4,0-0.8,0.4-1.2,0h0.6v-0.4c0-0.2,0-0.2,0.2-0.2h-0.2
			l0.6-0.4H120c0.4-0.4,0.8-0.6,1.3-0.6c-0.2-0.2-0.6,0-0.6-0.2c0-0.2,0.2-0.2,0.4-0.2h-0.4c-0.2,0-0.2,0-0.2-0.2
			c0-0.2,0-0.2,0.2-0.2l0,0c0.4-0.8,0.8-1.7,1-2.5h-0.2c-1.2,1-2.7,1.7-4.2,2.1h-0.6c-0.6,0.2-1.2,0.2-1.7-0.2l-1-0.8l-2.7-1.3
			c-2.5-1-5.2-1.7-7.9-1.9c1.2-0.4,2.5-0.8,3.6-1c1.7-0.8,3.5-1,5.2-1c-0.4-0.2-0.8,0-1,0c-1.5,0-3.1,0.2-4.4,0.6l-3.1,0.8
			c-0.6,0.2-1,1-1.5,0.8v-0.4c1-1.3,2.3-2.3,3.8-2.5c1.7-0.2,3.6-0.2,5.4,0.2l4,0.8c0.4,0,0.6,0.8,1,1s1.2,0,1.9,0.4s-0.2-0.4,0-0.6
			c0.2-0.2,0.8,0,1.3-0.2c0.6-0.2-0.8-1.3-1.2-2.1l0,0c1,0.6,1.5,1.5,2.5,1.9s1.7,0.6,1.5,0c-0.6-1.2-1.3-2.1-2.3-3.1V128H120v-1
			c-0.4-0.2-0.2-0.6-0.4-0.8c-0.2-0.2-0.2-1.3-0.4-1.9s-0.4-1.2-0.4-1.7c-0.4-1.7-0.8-3.3-1-5c-0.2-1.9,1.2-3.5,2.1-5.2
			c0.6-1.3,1.5-2.5,2.9-3.3c0.4-1.2,1-2.3,1.9-3.3c0.8-1,1.9-1.7,3.1-2.1l2.9-1.2H60.2v54.4H110c2.1-1.3,4.4-2.5,6.7-3.5
			C118.7,152.9,120.4,151.9,121.9,150.6 M106.2,143.3c-0.2,0-0.6,0.2-0.6,0s0.8-0.6,1.3-0.8s0.4-0.4,0.6-0.2l0.8,0.4
			C107.7,143.3,107,143.1,106.2,143.3 M90.5,141L90.5,141c1.2-1.5,2.3-3.3,3.3-5.2c1.3-0.8,2.5-1.9,3.5-3.1c1.5-1.9,3.6-3.5,5.8-4.6
			c1-0.2,1.9-0.2,2.7,0.2c-0.4,0.4-1,0.4-1.3,0.6h-0.2v-0.4c-1,1.2-2.5,1.7-3.3,3.1c-0.8,1.3-1,2.3-2.3,2.5c-1.3,0.2,0-0.2-0.2-0.2
			C95.5,136,92.8,138.3,90.5,141 M98.9,134.3c0,0.2-0.2,0.2-0.2,0.4c0,0.2-0.2,0.4-0.4,0.4h-0.2C98.1,134.7,98.5,134.1,98.9,134.3
			L98.9,134.3 M103.7,149.4c0,0.2-0.2,0.2-0.2,0.4s0.2,0,0.2,0.2l-0.8,0.4h-0.6c-0.2,0.2-0.8,0.2-0.6,0l0.8-0.8
			c0.2-0.2,0.4-0.2,0.4-0.4c0.2,0,0.2,0,0.2-0.2h0.6 M102,148.3L102,148.3l-1.3,0.8l-1.3,0.6h-0.2l-1,0.8h-0.6c0,0.2,0,0.2-0.2,0.2
			h-0.2c0,0.2,0,0.2-0.2,0.2h-0.2c-0.2,0.2-0.4,0.2-0.4,0.4l-0.6,0.6h-0.6l0.4-0.4H96c0-0.2,0.2-0.4,0.4-0.4l0,0l0,0
			c0-0.2,0-0.2,0.2-0.2l0,0c0.2-0.2,0.2-0.2,0.2-0.4l0,0c0.2-0.2,0.4-0.4,0.4-0.6l0,0l-0.4,0.4c-0.2,0-0.2,0-0.2-0.2
			c0.2,0,0.2,0,0.2-0.2H97l0.4-0.6h0.4v-0.4l0,0c1.2-1,2.7-0.8,4-1.5c1.3-0.8,1.2,0.2,1.5,0h1l-2.5,1.7 M103.9,141.9
			c-0.2-0.2,0.2,0,0.4-0.4h-0.8l-1.7,0.6l-2.1,0.8c-1,0.6-2.1,1.2-3.3,1.7c-0.2,0-0.2,0-0.2-0.2l0.8-0.6l0,0c0.8-1,1.7-1.9,2.9-2.7
			v-0.4c0.4-0.4,0.8-0.8,1.2-1.2c0.2-0.4,0.6-0.8,1-1h-0.4c-0.4,0-0.8,0.2-1.2-0.2l0.6-0.4h-0.2c-0.2-0.4,0.2-0.6,0.6-0.6l1.2-0.4
			c-0.8-0.2-1.5,0.2-2.3-0.2c0.4-1.3,1.3-2.5,2.7-3.1h0.2c0,0.6-0.2,1-0.8,1l2.5,0.8c0,0.2,0,0.2-0.2,0.2c-0.2,0-0.2,0-0.2-0.2
			c0.4,0.4,1.2,0.2,1.5,0.6c0.4,0.4-0.6,0-0.8,0c3.1,1,6.5,1.5,9.2,3.6c-2.3,0.8-4.6,1.3-7.1,1.3h-1c-0.4,0-0.8,0-1,0.4h-1.3"/>
		<path id="Bleu" fill="#E1000F" d="M209.5,102.6h-58.3l0.4,0.4l1.5,0.8c0.8,0.4,1.3,1,1.9,1.5c0.2,0.4,0.6,1,0.4,1.3
			c-0.2,0.4-0.4,1.3-0.8,1.5c-0.8,0.4-1.5,0.4-2.3,0.4l-1.2-0.4c1.5,0.6,3.1,1.5,4,2.9l1,0.4l0,0c-0.2,0.2-0.4,0.4-0.2,0.6h0.2
			c0.6-0.2,0.4-1.2,1.2-0.8c0.6,0.2,0.8,0.8,0.6,1.2c0,0.2-0.2,0.2-0.2,0.4l-1.2,1c-0.2,0.2-0.2,0.6,0,0.8l0.6,1.2l0.6,2.3
			c0.6,1.5,0.8,3.1,0.8,4.6c0,0.8-0.4,1.5,0,2.3c0.2,0.8,0.6,1.5,1,2.3c0.6,0.4,1,1,1.2,1.5c0.8,1,1.7,2.1,1.3,3.3
			c-0.4,1.2-1.5,0.6-2.3,1.2c-0.8,0.6,0,1.3,0.4,1.7c0.4,0.4-0.8,1.5-1.3,1.9c-0.6,0.4,0.6,0.2,0.6,0.4s0.8,0.8,0.4,1.3
			c-0.4,0.6-1.7,1-1,1.9c0.8,1,0,1.5-0.2,2.1c-0.4,0.8-1,1.3-1.9,1.5c-0.6,0.4-1.3,0.4-1.9,0.2h-0.6c-1.7-0.4-3.5-0.6-5.2-0.8
			l-1.5,0.4l-1.2,1.2h-0.6l-0.8,1.2l0,0c0,0.2,0,0.2-0.2,0.2l-0.8,1.9c-0.6,2.3-0.4,4.4,0.2,4.8s3.5,1.2,5.6,2.3l2.5,1.2h57.3V102.6
			z"/>
		<path id="Yeux" fill="#9C9B9B" d="M154.7,122.6h1c-0.2,1-1.3,1.2-2.1,1.9h-0.2c-0.4,0.2-0.2,0.8-0.6,0.8c-0.4,0-0.6,0-1,0
			c0.4,0.6,1,0.8,1.5,0.8l0.4,0.4h0.4v0.6c-0.4,0.4-0.8,0.2-1.2,0.4h2.3c0.6-0.4,0-1.3,0.4-1.9c0.4-0.6,0-0.2-0.2-0.2
			c-0.2,0,0.4-0.6,0.6-0.6c0.2,0,0.6-0.2,0.6-0.4c0-0.2-0.4-0.4-0.2-0.6c0.2-0.2,1.2-1,1-1.5c-0.2-0.6-1-0.4-1.5-0.6
			c-0.6-0.2-1.2,0-1.7,0.2l-1.5,0.4l-1.9,1c0.8-0.4,1.5-0.6,2.3-0.6C153.5,122.4,154.1,122.4,154.7,122.6"/>
	</g>
</g>
</svg>
