<?xml version="1.0" encoding="UTF-8"?>
<svg xmlns="http://www.w3.org/2000/svg" version="1.1" width="640px" height="360px" style="shape-rendering:geometricPrecision; text-rendering:geometricPrecision; image-rendering:optimizeQuality; fill-rule:evenodd; clip-rule:evenodd" xmlns:xlink="http://www.w3.org/1999/xlink">
<g><path style="opacity:1" fill="#f1f1f8" d="M -0.5,-0.5 C 212.833,-0.5 426.167,-0.5 639.5,-0.5C 639.5,119.5 639.5,239.5 639.5,359.5C 426.167,359.5 212.833,359.5 -0.5,359.5C -0.5,239.5 -0.5,119.5 -0.5,-0.5 Z"/></g>
<g><path style="opacity:1" fill="#bfbfe3" d="M 384.5,215.5 C 361.831,215.667 339.164,215.5 316.5,215C 312.186,209.532 308.52,203.698 305.5,197.5C 317.225,180.404 328.725,163.07 340,145.5C 355.094,168.692 369.927,192.026 384.5,215.5 Z"/></g>
<g><path style="opacity:1" fill="#8181c9" d="M 298.5,149.5 C 304.093,148.451 307.426,150.617 308.5,156C 307.306,162.149 303.639,164.149 297.5,162C 293.223,157.328 293.557,153.161 298.5,149.5 Z"/></g>
<g><path style="opacity:1" fill="#e5e5f3" d="M 305.5,197.5 C 308.52,203.698 312.186,209.532 316.5,215C 339.164,215.5 361.831,215.667 384.5,215.5C 343.659,216.758 302.659,216.592 261.5,215C 270.293,200.578 279.46,186.411 289,172.5C 294.027,181.241 299.527,189.575 305.5,197.5 Z"/></g>
</svg>
