<svg width="13" height="16" viewBox="0 0 13 16" fill="none" xmlns="http://www.w3.org/2000/svg">
<g id="Calque_1" clip-path="url(#clip0_860_32973)">
<path id="Vector" d="M4.39267 12.3538C3.83049 12.3538 3.36523 11.9248 3.36523 11.4063V2.53928C3.36523 2.02085 3.83049 1.5918 4.39267 1.5918C4.95486 1.5918 5.42011 2.02085 5.42011 2.53928V11.4242C5.40072 11.9426 4.95486 12.3538 4.39267 12.3538Z" fill="#D6A23E"/>
<path id="Vector_2" d="M6.9122 12.3531C6.35002 12.3531 5.88477 11.924 5.88477 11.4056V0.947486C5.88477 0.42905 6.35002 0 6.9122 0C7.47439 0 7.93964 0.42905 7.93964 0.947486V11.4235C7.93964 11.9419 7.47439 12.3531 6.9122 12.3531Z" fill="#D6A23E"/>
<path id="Vector_3" d="M9.45322 12.3538C8.89104 12.3538 8.42578 11.9248 8.42578 11.4063V2.53928C8.42578 2.02085 8.89104 1.5918 9.45322 1.5918C10.0154 1.5918 10.4807 2.02085 10.4807 2.53928V11.4242C10.4613 11.9426 10.0154 12.3538 9.45322 12.3538Z" fill="#D6A23E"/>
<path id="Vector_4" d="M11.9728 12.3526C11.4106 12.3526 10.9453 11.9235 10.9453 11.4051V4.12913C10.9453 3.61069 11.4106 3.18164 11.9728 3.18164C12.5349 3.18164 13.0002 3.61069 13.0002 4.12913V11.423C13.0002 11.9414 12.5349 12.3526 11.9728 12.3526Z" fill="#D6A23E"/>
<path id="Vector_5" d="M5.86663 14.2832C5.34322 14.6586 4.5678 14.5514 4.1607 14.0687L0.244801 9.38487C-0.162297 8.90219 -0.0459836 8.18711 0.477428 7.81169C1.00084 7.43627 1.77627 7.54353 2.18336 8.02621L6.09926 12.71C6.50636 13.2106 6.40943 13.9078 5.86663 14.2832Z" fill="#D6A23E"/>
<path id="Vector_6" d="M8.1924 15.9999C10.8476 15.9999 13 14.0149 13 11.5663C13 9.11777 10.8476 7.13281 8.1924 7.13281C5.53722 7.13281 3.38477 9.11777 3.38477 11.5663C3.38477 14.0149 5.53722 15.9999 8.1924 15.9999Z" fill="#D6A23E"/>
</g>
<defs>
<clipPath id="clip0_860_32973">
<rect width="13" height="16" fill="white"/>
</clipPath>
</defs>
</svg>
