<svg width="64" height="77" viewBox="0 0 64 77" fill="none" xmlns="http://www.w3.org/2000/svg">
<g clip-path="url(#clip0_2860_19186)">
<path d="M30.2347 71.7703L32 73.5305L33.7652 71.7703L52.8572 52.7324L52.8572 52.7323C64.3809 41.2408 64.3809 22.6069 52.8572 11.1156L52.8572 11.1156C41.3371 -0.37184 22.6627 -0.37187 11.1428 11.1156C-0.380957 22.6069 -0.380928 41.2408 11.1428 52.7323L11.1428 52.7324L30.2347 71.7703ZM35.5 31.9239C35.5 33.841 33.9397 35.407 32 35.407C30.0602 35.407 28.5 33.841 28.5 31.9239C28.5 30.0069 30.0602 28.4408 32 28.4408C33.9397 28.4408 35.5 30.0069 35.5 31.9239Z" fill="#000091" stroke="white" stroke-width="5"/>
<circle cx="32" cy="32" r="21" fill="white"/>
<g clip-path="url(#clip1_2860_19186)">
<path d="M31.5722 40.1464V42.0513H23.9462C23.4236 42.0513 23 41.6176 23 41.1066V23.9466C23 23.4249 23.4262 23.002 23.951 23.002H35.3821L40.1442 27.7643V34.4316H38.2395V28.7168H34.4296V24.9069H24.9049V40.1464H31.5722ZM33.9196 39.6365L37.2871 43.0039L42.0015 38.2895L40.6545 36.9424L37.2871 40.31L35.2666 38.2895L33.9196 39.6365Z" fill="#000091"/>
</g>
</g>
<defs>
<clipPath id="clip0_2860_19186">
<rect width="64" height="77" fill="white"/>
</clipPath>
<clipPath id="clip1_2860_19186">
<rect width="24.0024" height="24.0024" fill="white" transform="translate(20 21.002)"/>
</clipPath>
</defs>
</svg>
