<svg width="16" height="16" viewBox="0 0 16 16" fill="none" xmlns="http://www.w3.org/2000/svg">
<path d="M1.33203 13.3333H14.6654V14.6666H1.33203V13.3333ZM2.66536 7.99992H3.9987V12.6666H2.66536V7.99992ZM5.9987 7.99992H7.33203V12.6666H5.9987V7.99992ZM8.66536 7.99992H9.9987V12.6666H8.66536V7.99992ZM11.9987 7.99992H13.332V12.6666H11.9987V7.99992ZM1.33203 4.66659L7.9987 1.33325L14.6654 4.66659V7.33325H1.33203V4.66659ZM7.9987 5.33325C8.3669 5.33325 8.66536 5.03477 8.66536 4.66659C8.66536 4.2984 8.3669 3.99992 7.9987 3.99992C7.6305 3.99992 7.33203 4.2984 7.33203 4.66659C7.33203 5.03477 7.6305 5.33325 7.9987 5.33325Z" fill="#000091"/>
</svg>
