<svg width="114" height="125" viewBox="0 0 114 125" fill="none" xmlns="http://www.w3.org/2000/svg">
<g filter="url(#filter0_d_2534_135620)">
<path d="M66.0919 65.9621L47 85L27.9081 65.9621C17.364 55.4474 17.364 38.4003 27.9081 27.8858C38.4523 17.3714 55.5476 17.3714 66.0919 27.8858C76.636 38.4003 76.636 55.4474 66.0919 65.9621ZM47 52.907C50.3138 52.907 53 50.2284 53 46.9239C53 43.6195 50.3138 40.9408 47 40.9408C43.6862 40.9408 41 43.6195 41 46.9239C41 50.2284 43.6862 52.907 47 52.907Z" fill="#FF292F"/>
</g>
<circle cx="47" cy="47" r="21" fill="white"/>
<path d="M54 56.0001H40C39.4477 56.0001 39 55.5524 39 55.0001V46.0001H36L46.3273 36.6116C46.7087 36.2649 47.2913 36.2649 47.6727 36.6116L58 46.0001H55V55.0001C55 55.5524 54.5523 56.0001 54 56.0001ZM41 54.0001H53V44.1576L47 38.703L41 44.1576V54.0001ZM47 50.0001C45.6193 50.0001 44.5 48.8808 44.5 47.5001C44.5 46.1194 45.6193 45.0001 47 45.0001C48.3807 45.0001 49.5 46.1194 49.5 47.5001C49.5 48.8808 48.3807 50.0001 47 50.0001Z" fill="#FF292F"/>
<defs>
<filter id="filter0_d_2534_135620" x="0" y="0" width="114" height="125" filterUnits="userSpaceOnUse" color-interpolation-filters="sRGB">
<feFlood flood-opacity="0" result="BackgroundImageFix"/>
<feColorMatrix in="SourceAlpha" type="matrix" values="0 0 0 0 0 0 0 0 0 0 0 0 0 0 0 0 0 0 127 0" result="hardAlpha"/>
<feOffset dx="10" dy="10"/>
<feGaussianBlur stdDeviation="15"/>
<feColorMatrix type="matrix" values="0 0 0 0 0 0 0 0 0 0 0 0 0 0 0.0705882 0 0 0 0.4 0"/>
<feBlend mode="normal" in2="BackgroundImageFix" result="effect1_dropShadow_2534_135620"/>
<feBlend mode="normal" in="SourceGraphic" in2="effect1_dropShadow_2534_135620" result="shape"/>
</filter>
</defs>
</svg>
