<svg width="64" height="77" viewBox="0 0 64 77" fill="none" xmlns="http://www.w3.org/2000/svg">
<path d="M51.0919 50.9621L32 70L12.9081 50.9621C2.36396 40.4474 2.36396 23.4003 12.9081 12.8858C23.4523 2.37139 40.5476 2.37139 51.0919 12.8858C61.636 23.4003 61.636 40.4474 51.0919 50.9621ZM32 37.907C35.3138 37.907 38 35.2284 38 31.9239C38 28.6195 35.3138 25.9408 32 25.9408C28.6862 25.9408 26 28.6195 26 31.9239C26 35.2284 28.6862 37.907 32 37.907Z" fill="#FF292F"/>
<circle cx="32" cy="32" r="21" fill="white"/>
<path d="M39 41.0001H25C24.4477 41.0001 24 40.5524 24 40.0001V31.0001H21L31.3273 21.6116C31.7087 21.2649 32.2913 21.2649 32.6727 21.6116L43 31.0001H40V40.0001C40 40.5524 39.5523 41.0001 39 41.0001ZM26 39.0001H38V29.1576L32 23.703L26 29.1576V39.0001ZM32 35.0001C30.6193 35.0001 29.5 33.8808 29.5 32.5001C29.5 31.1194 30.6193 30.0001 32 30.0001C33.3807 30.0001 34.5 31.1194 34.5 32.5001C34.5 33.8808 33.3807 35.0001 32 35.0001Z" fill="#FF292F"/>
</svg>
