<svg width="64" height="77" viewBox="0 0 64 77" fill="none" xmlns="http://www.w3.org/2000/svg">
<g clip-path="url(#clip0_2860_19194)">
<path d="M30.2347 71.7703L32 73.5305L33.7652 71.7703L52.8572 52.7324L52.8572 52.7323C64.3809 41.2408 64.3809 22.6069 52.8572 11.1156L52.8572 11.1156C41.3371 -0.37184 22.6627 -0.37187 11.1428 11.1156C-0.380957 22.6069 -0.380928 41.2408 11.1428 52.7323L11.1428 52.7324L30.2347 71.7703ZM35.5 31.9239C35.5 33.841 33.9397 35.407 32 35.407C30.0602 35.407 28.5 33.841 28.5 31.9239C28.5 30.0069 30.0602 28.4408 32 28.4408C33.9397 28.4408 35.5 30.0069 35.5 31.9239Z" fill="#6A6AF4" stroke="white" stroke-width="5"/>
<circle cx="32" cy="32" r="21" fill="white"/>
<g clip-path="url(#clip1_2860_19194)">
<path d="M36 22L40.9997 27L41 40.9925C41 41.5489 40.5551 42 40.0066 42H23.9934C23.4448 42 23 41.5447 23 41.0082V22.9918C23 22.4441 23.4475 22 23.9985 22H36ZM35 24H25V40H39V28H35V24ZM33 29V33H36V35H31V29H33Z" fill="#6A6AF4"/>
</g>
</g>
<defs>
<clipPath id="clip0_2860_19194">
<rect width="64" height="77" fill="white"/>
</clipPath>
<clipPath id="clip1_2860_19194">
<rect width="24" height="24" fill="white" transform="translate(20 20)"/>
</clipPath>
</defs>
</svg>
