<svg width="64" height="77" viewBox="0 0 64 77" fill="none" xmlns="http://www.w3.org/2000/svg">
<g clip-path="url(#clip0_2860_19185)">
<path d="M30.2347 71.7703L32 73.5305L33.7652 71.7703L52.8572 52.7324L52.8572 52.7323C64.3809 41.2408 64.3809 22.6069 52.8572 11.1156L52.8572 11.1156C41.3371 -0.37184 22.6627 -0.37187 11.1428 11.1156C-0.380957 22.6069 -0.380928 41.2408 11.1428 52.7323L11.1428 52.7324L30.2347 71.7703ZM35.5 31.9239C35.5 33.841 33.9397 35.407 32 35.407C30.0602 35.407 28.5 33.841 28.5 31.9239C28.5 30.0069 30.0603 28.4408 32 28.4408C33.9397 28.4408 35.5 30.0069 35.5 31.9239Z" fill="#FF292F" stroke="white" stroke-width="5"/>
<circle cx="32" cy="32" r="21" fill="white"/>
<path d="M39 41.0001H25C24.4477 41.0001 24 40.5524 24 40.0001V31.0001H21L31.3273 21.6116C31.7087 21.2649 32.2913 21.2649 32.6727 21.6116L43 31.0001H40V40.0001C40 40.5524 39.5523 41.0001 39 41.0001ZM26 39.0001H38V29.1576L32 23.703L26 29.1576V39.0001ZM32 35.0001C30.6193 35.0001 29.5 33.8808 29.5 32.5001C29.5 31.1194 30.6193 30.0001 32 30.0001C33.3807 30.0001 34.5 31.1194 34.5 32.5001C34.5 33.8808 33.3807 35.0001 32 35.0001Z" fill="#FF292F"/>
</g>
<defs>
<clipPath id="clip0_2860_19185">
<rect width="64" height="77" fill="white"/>
</clipPath>
</defs>
</svg>
