<svg width="64" height="77" viewBox="0 0 64 77" fill="none" xmlns="http://www.w3.org/2000/svg">
<path d="M51.0919 50.9621L32 70L12.9081 50.9621C2.36396 40.4474 2.36396 23.4003 12.9081 12.8858C23.4523 2.37139 40.5475 2.37139 51.0919 12.8858C61.636 23.4003 61.636 40.4474 51.0919 50.9621ZM32 37.907C35.3138 37.907 38 35.2284 38 31.9239C38 28.6195 35.3138 25.9408 32 25.9408C28.6862 25.9408 26 28.6195 26 31.9239C26 35.2284 28.6862 37.907 32 37.907Z" fill="#000091"/>
<circle cx="32" cy="32" r="21" fill="white"/>
<g clip-path="url(#clip0_2860_19209)">
<path d="M31.5722 40.1464V42.0513H23.9462C23.4236 42.0513 23 41.6176 23 41.1066V23.9466C23 23.4249 23.4262 23.002 23.951 23.002H35.3821L40.1442 27.7643V34.4316H38.2395V28.7168H34.4296V24.9069H24.9049V40.1464H31.5722ZM33.9196 39.6365L37.2871 43.0039L42.0015 38.2895L40.6545 36.9424L37.2871 40.31L35.2666 38.2895L33.9196 39.6365Z" fill="#000091"/>
</g>
<defs>
<clipPath id="clip0_2860_19209">
<rect width="24.0024" height="24.0024" fill="white" transform="translate(20 21.002)"/>
</clipPath>
</defs>
</svg>
