<svg width="64" height="77" viewBox="0 0 64 77" fill="none" xmlns="http://www.w3.org/2000/svg">
<path d="M51.0919 50.9621L32 70L12.9081 50.9621C2.36396 40.4474 2.36396 23.4003 12.9081 12.8858C23.4523 2.37139 40.5476 2.37139 51.0919 12.8858C61.636 23.4003 61.636 40.4474 51.0919 50.9621ZM32 37.907C35.3138 37.907 38 35.2284 38 31.9239C38 28.6195 35.3138 25.9408 32 25.9408C28.6862 25.9408 26 28.6195 26 31.9239C26 35.2284 28.6862 37.907 32 37.907Z" fill="#6A6AF4"/>
<circle cx="32" cy="32" r="21" fill="white"/>
<g clip-path="url(#clip0_2860_19216)">
<path d="M36 22L40.9997 27L41 40.9925C41 41.5489 40.5551 42 40.0066 42H23.9934C23.4448 42 23 41.5447 23 41.0082V22.9918C23 22.4441 23.4475 22 23.9985 22H36ZM35 24H25V40H39V28H35V24ZM33 29V33H36V35H31V29H33Z" fill="#6A6AF4"/>
</g>
<defs>
<clipPath id="clip0_2860_19216">
<rect width="24" height="24" fill="white" transform="translate(20 20)"/>
</clipPath>
</defs>
</svg>
