<svg width="40" height="40" viewBox="0 0 40 40" fill="none" xmlns="http://www.w3.org/2000/svg">
<path d="M19.9987 40C18.9633 40 18.0755 39.2755 17.2166 38.572C16.5712 38.0451 15.9626 37.5471 15.3408 37.3811C14.6796 37.2046 13.8444 37.339 13.0356 37.4681C11.9634 37.6393 10.8542 37.8185 9.99802 37.3231C9.126 36.8173 8.72291 35.7581 8.33564 34.7332C8.04847 33.9744 7.75077 33.1919 7.27919 32.7203C6.80761 32.2487 6.02252 31.951 5.26642 31.6638C4.24159 31.2765 3.18251 30.8734 2.67668 30.0013C2.18139 29.145 2.3579 28.0358 2.53178 26.9635C2.66087 26.1547 2.79523 25.3168 2.61872 24.6581C2.45274 24.0337 1.95482 23.4251 1.42791 22.7822C0.727129 21.9233 0 21.0381 0 20C0 18.9619 0.724494 18.0767 1.42791 17.2178C1.95482 16.5723 2.45274 15.9636 2.61872 15.3419C2.79523 14.6805 2.66087 13.8453 2.53178 13.0365C2.36053 11.9642 2.18139 10.855 2.67668 9.99868C3.18251 9.1266 4.24159 8.72349 5.26642 8.33619C6.02516 8.04901 6.80761 7.75128 7.27919 7.27967C7.75077 6.80806 8.04847 6.02292 8.33564 5.26676C8.72291 4.24187 9.126 3.18272 9.99802 2.67685C10.8542 2.18153 11.9634 2.35806 13.0356 2.53195C13.8444 2.66105 14.6822 2.79542 15.3408 2.61889C15.9652 2.4529 16.5738 1.95495 17.2166 1.42801C18.0755 0.727177 18.9607 0 19.9987 0C21.0367 0 21.9219 0.724542 22.7807 1.42801C23.4262 1.95495 24.0348 2.4529 24.6592 2.61889C25.3204 2.79542 26.1556 2.66105 26.9644 2.53195C28.0366 2.36069 29.1458 2.18153 30.002 2.67685C30.874 3.18272 31.2771 4.24187 31.6644 5.26676C31.9515 6.02556 32.2492 6.80806 32.7208 7.27967C33.1924 7.75128 33.9748 8.04901 34.7336 8.33619C35.7584 8.72349 36.8175 9.1266 37.3233 9.99868C37.8186 10.855 37.6421 11.9642 37.4682 13.0365C37.3391 13.8453 37.2048 14.6832 37.3813 15.3419C37.5473 15.9663 38.0452 16.5749 38.5721 17.2178C39.2729 18.0767 40 18.9619 40 20C40 21.0381 39.2755 21.9233 38.5721 22.7822C38.0452 23.4277 37.5473 24.0364 37.3813 24.6581C37.2048 25.3195 37.3391 26.1547 37.4682 26.9635C37.6395 28.0358 37.8186 29.145 37.3233 30.0013C36.8175 30.8734 35.7584 31.2765 34.7336 31.6638C33.9748 31.951 33.1924 32.2487 32.7208 32.7203C32.2492 33.1919 31.9515 33.9744 31.6644 34.7332C31.2771 35.7581 30.874 36.8173 30.002 37.3231C29.1458 37.8185 28.0366 37.6419 26.9644 37.4681C26.1556 37.339 25.3178 37.2046 24.6592 37.3811C24.0348 37.5471 23.4262 38.0451 22.7834 38.572C21.9245 39.2728 21.0393 40 20.0013 40H19.9987ZM29.7253 36.8463L17.567 38.1478Z" fill="#C7C7F5"/>
<path d="M21.8438 25.5847C21.7839 27.493 21.724 29.3887 21.6635 31.3138C21.3535 31.2964 21.0778 31.2814 20.802 31.2658C20.802 31.2583 20.802 31.2508 20.8014 31.2433C21.0428 31.2321 21.2836 31.2209 21.5406 31.2084C21.5406 31.0418 21.5444 30.8965 21.5406 30.7518C21.4664 28.4412 21.3647 26.1312 21.3229 23.8206C21.2437 19.4857 21.1994 15.1496 21.1408 10.8147C21.1339 10.312 20.9062 10.0524 20.4864 10.0631C20.1564 10.0712 19.8963 10.3095 19.8632 10.6407C19.8532 10.7411 19.8582 10.8428 19.857 10.9439C19.8108 14.9057 19.7852 18.8682 19.711 22.83C19.6611 25.4831 19.5419 28.1355 19.454 30.7879C19.4496 30.919 19.454 31.0506 19.454 31.2065C19.7104 31.2196 19.9562 31.2321 20.2026 31.2446C20.2026 31.2508 20.2026 31.2571 20.2026 31.2633C19.9337 31.2808 19.6648 31.2976 19.3498 31.3182C19.2038 28.0369 19.1265 24.7669 19.0703 21.52C18.7135 21.52 18.3673 21.51 18.0217 21.5218C16.8552 21.5611 15.6893 21.6079 14.5228 21.651C14.0561 21.6684 13.5895 21.6766 13.1229 21.7003C12.8329 21.7152 12.5858 21.6148 12.3719 21.4376C11.7181 20.8974 11.0643 20.3566 10.4224 19.8026C9.84729 19.3073 9.86413 18.4502 10.4443 17.963C11.0637 17.4421 11.685 16.9237 12.3032 16.4016C12.5509 16.192 12.8266 16.0828 13.1566 16.0934C15.0773 16.1546 16.998 16.2095 18.9188 16.2669C18.9481 16.2675 18.9774 16.2637 19.0242 16.2612C19.0242 16.1309 19.0248 16.008 19.0242 15.8851C19.0111 14.0792 18.9924 12.2732 18.988 10.4673C18.9836 9.63699 19.6561 8.99197 20.4833 9.00008C21.293 9.00756 22.0079 9.70186 22.0135 10.4916C22.0185 11.2152 22.0166 11.9395 22.0185 12.6637C22.0185 12.6781 22.0266 12.6924 22.0372 12.7292C22.19 12.7292 22.3503 12.7342 22.51 12.7286C24.2361 12.6631 25.9622 12.6007 27.6883 12.5265C28.067 12.5103 28.382 12.6126 28.6752 12.854C29.3052 13.3724 29.9515 13.8702 30.5878 14.3811C31.0831 14.7791 31.1523 15.6586 30.6757 16.0903C29.9846 16.7166 29.2622 17.3105 28.5292 17.8875C28.3614 18.0198 28.095 18.089 27.8767 18.0834C26.4145 18.0485 24.9529 17.9873 23.4907 17.9318C23.0097 17.9137 22.5288 17.8881 22.0079 17.8638V20.3865C22.2381 20.3865 22.4913 20.394 22.7446 20.3853C24.4239 20.326 26.1038 20.2686 27.7831 20.1987C28.1487 20.1838 28.4475 20.2948 28.7213 20.5281C29.3314 21.0478 29.9502 21.5568 30.5622 22.0752C31.1299 22.5561 31.1473 23.412 30.5853 23.8998C29.9509 24.4506 29.3009 24.9834 28.6565 25.5224C28.4144 25.7251 28.135 25.8205 27.8168 25.8074C25.9042 25.732 23.9916 25.6583 22.079 25.5854C22.0035 25.5822 21.928 25.5854 21.8444 25.5854L21.8438 25.5847ZM18.993 20.9966V16.6642C18.7965 16.6642 18.6349 16.6586 18.4734 16.6655C17.8595 16.6911 17.2457 16.7235 16.6319 16.7472C15.466 16.7921 14.2994 16.832 13.1335 16.8794C13.0549 16.8826 12.9614 16.9119 12.9027 16.9624C12.307 17.4752 11.7156 17.9917 11.1273 18.5126C10.9009 18.7134 10.9053 18.8931 11.133 19.0996C11.6919 19.6067 12.249 20.1158 12.8185 20.6111C12.9196 20.699 13.0749 20.7639 13.2084 20.7708C14.335 20.8244 15.4628 20.8612 16.5894 20.9043C17.3898 20.9348 18.1901 20.9667 18.9924 20.9978L18.993 20.9966ZM21.938 20.8668C21.9068 22.2442 21.875 23.6484 21.8426 25.052C22.0004 25.052 22.1395 25.057 22.2786 25.0514C22.8694 25.0264 23.4595 24.994 24.0502 24.9715C25.3253 24.9235 26.6004 24.8817 27.8754 24.8305C27.9597 24.8274 28.0582 24.7856 28.1225 24.7301C28.6833 24.2485 29.2391 23.762 29.7937 23.2735C30.0538 23.0446 30.0563 22.8693 29.7949 22.6385C29.3464 22.2411 28.8654 21.8774 28.4475 21.4507C28.1063 21.1033 27.7313 20.9978 27.2629 20.9904C26.0109 20.9704 24.7595 20.9055 23.5075 20.8693C22.9891 20.8544 22.4695 20.8668 21.9374 20.8668H21.938ZM21.9985 13.2445V17.4409C22.5119 17.414 23.0241 17.3804 23.5362 17.3616C24.9579 17.3099 26.3802 17.2662 27.8025 17.2132C27.8885 17.2101 27.9896 17.1758 28.0545 17.1215C28.639 16.633 29.2191 16.1396 29.7962 15.6418C30.0588 15.4154 30.0569 15.2463 29.7912 15.0099C29.2329 14.5139 28.6739 14.0193 28.1056 13.5352C28.0127 13.456 27.8723 13.3973 27.7519 13.3923C26.2679 13.3362 24.7832 13.2888 23.2992 13.2457C22.8812 13.2339 22.4626 13.2439 21.9998 13.2439L21.9985 13.2445Z" fill="#000091"/>
<path d="M19.5 21V31H21.5V25.5H28L30.5 23L28 20.5H21.5V17.5H28L30 16L30.5 15L28 13H22L21 10L20 9.5L19.5 10.5V16.5H13L11 18L10.5 19L13 21H19.5Z" fill="white"/>
</svg>
