<svg width="40" height="40" viewBox="0 0 40 40" fill="none" xmlns="http://www.w3.org/2000/svg">
<path d="M19.9987 40C18.9633 40 18.0755 39.2755 17.2166 38.572C16.5712 38.0451 15.9626 37.5471 15.3408 37.3811C14.6796 37.2046 13.8444 37.339 13.0356 37.4681C11.9634 37.6393 10.8542 37.8185 9.99802 37.3231C9.126 36.8173 8.72291 35.7581 8.33564 34.7332C8.04847 33.9744 7.75077 33.1919 7.27919 32.7203C6.80761 32.2487 6.02252 31.951 5.26642 31.6638C4.24159 31.2765 3.18251 30.8734 2.67668 30.0013C2.18139 29.145 2.3579 28.0358 2.53178 26.9635C2.66087 26.1547 2.79523 25.3168 2.61872 24.6581C2.45274 24.0337 1.95482 23.4251 1.42791 22.7822C0.727129 21.9233 0 21.0381 0 20C0 18.9619 0.724494 18.0767 1.42791 17.2178C1.95482 16.5723 2.45274 15.9636 2.61872 15.3419C2.79523 14.6805 2.66087 13.8453 2.53178 13.0365C2.36053 11.9642 2.18139 10.855 2.67668 9.99868C3.18251 9.1266 4.24159 8.72349 5.26642 8.33619C6.02516 8.04901 6.80761 7.75128 7.27919 7.27967C7.75077 6.80806 8.04847 6.02292 8.33564 5.26676C8.72291 4.24187 9.126 3.18272 9.99802 2.67685C10.8542 2.18153 11.9634 2.35806 13.0356 2.53195C13.8444 2.66105 14.6822 2.79542 15.3408 2.61889C15.9652 2.4529 16.5738 1.95495 17.2166 1.42801C18.0755 0.727177 18.9607 0 19.9987 0C21.0367 0 21.9219 0.724542 22.7807 1.42801C23.4262 1.95495 24.0348 2.4529 24.6592 2.61889C25.3204 2.79542 26.1556 2.66105 26.9644 2.53195C28.0366 2.36069 29.1458 2.18153 30.002 2.67685C30.874 3.18272 31.2771 4.24187 31.6644 5.26676C31.9515 6.02556 32.2492 6.80806 32.7208 7.27967C33.1924 7.75128 33.9748 8.04901 34.7336 8.33619C35.7584 8.72349 36.8175 9.1266 37.3233 9.99868C37.8186 10.855 37.6421 11.9642 37.4682 13.0365C37.3391 13.8453 37.2048 14.6832 37.3813 15.3419C37.5473 15.9663 38.0452 16.5749 38.5721 17.2178C39.2729 18.0767 40 18.9619 40 20C40 21.0381 39.2755 21.9233 38.5721 22.7822C38.0452 23.4277 37.5473 24.0364 37.3813 24.6581C37.2048 25.3195 37.3391 26.1547 37.4682 26.9635C37.6395 28.0358 37.8186 29.145 37.3233 30.0013C36.8175 30.8734 35.7584 31.2765 34.7336 31.6638C33.9748 31.951 33.1924 32.2487 32.7208 32.7203C32.2492 33.1919 31.9515 33.9744 31.6644 34.7332C31.2771 35.7581 30.874 36.8173 30.002 37.3231C29.1458 37.8185 28.0366 37.6419 26.9644 37.4681C26.1556 37.339 25.3178 37.2046 24.6592 37.3811C24.0348 37.5471 23.4262 38.0451 22.7834 38.572C21.9245 39.2728 21.0393 40 20.0013 40H19.9987ZM29.7253 36.8463L17.567 38.1478Z" fill="#C7C7F5"/>
<g clip-path="url(#clip0_2512_134883)">
<path d="M15.8446 24.6224L16.7681 27.8545L16.3063 27.3928L16.7681 28.778L17.2298 30.1632L18.615 30.6249L19.0767 31.5484L20.0002 32.0101L20.9237 31.0866V30.6249L22.7706 28.778L23.2323 25.0841L24.1558 23.6989L26.0027 21.3903L26.4644 18.6199L25.541 14.926L21.8471 12.1556H18.615L14.9211 13.5408L13.0742 16.773V20.4668L15.8446 24.6224Z" fill="white"/>
<path d="M16.4925 26.9383C16.4825 27.0343 16.471 27.137 16.4603 27.2396C16.4415 27.2416 16.4227 27.2443 16.4039 27.2463C16.3476 26.9269 16.2892 26.6082 16.2355 26.2881C16.0416 25.1387 15.6605 24.0826 14.8311 23.2156C14.4567 22.8244 14.1272 22.3856 13.8132 21.9427C13.2039 21.0832 12.745 20.1518 12.5665 19.099C12.3404 17.7651 12.6155 16.5204 13.2502 15.3495C14.3111 13.3922 15.9879 12.2488 18.1351 11.7999C20.0347 11.4027 21.8558 11.6872 23.5159 12.7044C24.9431 13.5787 25.8322 14.906 26.3743 16.4647C26.838 17.798 26.9601 19.1521 26.483 20.5182C26.2213 21.2677 25.7557 21.8857 25.2538 22.4842C24.9693 22.8238 24.6888 23.168 24.4163 23.5176C23.8796 24.2067 23.6601 25.0106 23.5608 25.8634C23.4582 26.7417 23.385 27.6295 23.2005 28.4917C23.0012 29.421 22.4993 30.1846 21.6183 30.6443C21.5612 30.6738 21.5203 30.7664 21.5035 30.8368C21.3519 31.4844 20.752 31.9936 19.9844 32.1164C19.41 32.2084 18.7196 31.8742 18.4042 31.3441C18.3411 31.2374 18.2566 31.1126 18.2633 31.0012C18.2814 30.6966 18.0949 30.5966 17.8681 30.4805C16.936 30.0035 16.5435 29.1781 16.4375 28.183C16.4086 27.914 16.4073 27.6422 16.4402 27.3564C16.6468 28.7433 17.0629 29.9552 18.5954 30.3906C19.5945 30.6745 20.5527 30.6637 21.4935 30.1316C21.2969 30.0692 21.111 30.0363 20.954 29.9505C20.8621 29.8995 20.8171 29.7632 20.7514 29.666C20.8419 29.6203 20.9305 29.5666 21.0244 29.5297C21.4727 29.3533 21.9457 29.2224 22.3611 28.9889C22.5362 28.8903 22.5919 28.5796 22.7019 28.3656C22.6811 28.3508 22.6603 28.3354 22.6395 28.3206C22.5785 28.3528 22.5174 28.3843 22.457 28.4165C21.9813 28.6722 21.4794 28.7433 20.9533 28.6232C20.8735 28.6051 20.7896 28.5776 20.7225 28.532C20.6588 28.4883 20.5735 28.4145 20.5742 28.3548C20.5742 28.2958 20.6608 28.2079 20.7272 28.1844C20.9386 28.1106 21.156 28.0462 21.3767 28.0052C21.8263 27.922 22.2792 27.8569 22.7744 27.7771C22.7945 27.6093 22.82 27.3986 22.8482 27.1638C20.6889 27.9113 18.578 27.8704 16.4918 26.9397L16.4925 26.9383ZM22.8583 26.8397C22.867 26.7645 22.8724 26.7156 22.8777 26.6659C22.9475 26.0768 22.9898 25.4836 23.0925 24.8998C23.2676 23.9007 23.8648 23.123 24.4808 22.3541C24.8874 21.8468 25.3088 21.3348 25.6148 20.7665C26.2113 19.658 26.1925 18.465 25.8758 17.2766C25.4443 15.6582 24.6311 14.2672 23.1971 13.3493C20.6762 11.7362 17.0266 12.0408 14.811 14.2987C13.1093 16.0326 12.4578 18.471 13.7314 20.8799C14.1601 21.6911 14.6956 22.4259 15.2807 23.1271C15.7947 23.7437 16.1369 24.4415 16.2845 25.2293C16.3738 25.703 16.4328 26.1828 16.5059 26.6639C17.0421 26.7223 17.5795 26.7813 18.1358 26.8417C18.117 25.0877 18.0224 23.3579 17.6889 21.6723C17.338 21.6938 16.9985 21.7408 16.6609 21.7307C15.7249 21.7032 15.1264 20.9544 15.2814 20.0317C15.4129 19.2494 16.1047 18.6253 16.8468 18.62C17.5769 18.6146 18.1526 19.1554 18.2962 19.9881C18.3264 20.1639 18.3398 20.3424 18.3713 20.6007C18.835 20.2545 19.257 19.9452 19.6724 19.6271C20.2132 19.2131 20.801 18.9877 21.4948 19.1259C22.7503 19.3755 23.1347 20.6732 22.5637 21.4637C22.5302 21.5099 22.5087 21.5663 22.4892 21.6213C22.2497 22.287 22.0262 22.9593 21.7686 23.6189C21.3532 24.6824 21.2835 25.7748 21.4385 26.9175C21.9102 26.8914 22.3745 26.8659 22.859 26.839L22.8583 26.8397ZM21.8766 20.1203C21.884 20.0982 21.8914 20.076 21.8988 20.0546C21.7216 19.9787 21.5512 19.8741 21.3667 19.8318C20.8782 19.7197 20.4783 19.9217 20.0911 20.2055C19.5939 20.5699 19.0866 20.9235 18.5579 21.2389C18.3371 21.3711 18.2593 21.4938 18.2794 21.7435C18.3586 22.7265 18.4512 23.7095 18.4747 24.6945C18.4914 25.4091 18.4082 26.1264 18.3659 26.9034H21.2372C21.2284 26.8598 21.2231 26.8202 21.2137 26.7813C20.8681 25.4454 20.9922 24.1503 21.5411 22.8882C21.6485 22.6413 21.7142 22.3755 21.8035 22.1051C21.2204 22.181 20.8842 22.0602 20.6574 21.6925C20.4299 21.3254 20.4232 20.9436 20.6554 20.5799C20.9412 20.1324 21.3673 20.0089 21.8773 20.1203H21.8766ZM17.7983 20.4967C17.707 20.2163 17.6547 19.915 17.5165 19.66C17.3024 19.2648 16.8904 19.1655 16.508 19.3721C16.1382 19.5721 15.9597 19.9036 15.941 20.3115C15.9255 20.6437 16.1335 20.9322 16.463 20.9785C16.7616 21.0208 17.0763 21.0154 17.3756 20.9711C17.7459 20.9168 17.7419 20.8899 17.799 20.4967H17.7983ZM18.7659 30.8657C19.2054 31.5414 20.3622 31.5682 20.8775 30.916C20.1615 31.0932 19.4718 31.0509 18.7659 30.8657ZM21.5686 20.7081C21.3163 20.7094 21.1338 20.8893 21.1399 21.1295C21.1452 21.3201 21.3002 21.4918 21.4593 21.4824C21.6424 21.4717 21.9511 21.2154 21.9484 21.0751C21.9444 20.8343 21.8122 20.7068 21.568 20.7081H21.5686Z" fill="#000091"/>
<path d="M27.4837 15.0189C27.4327 14.9948 27.3488 14.9552 27.2656 14.9163C27.3126 14.8324 27.3414 14.7271 27.4092 14.668C27.9749 14.1782 28.6492 13.8883 29.3497 13.6555C29.5464 13.5904 29.753 13.5474 29.9583 13.5199C30.0469 13.5079 30.1442 13.5615 30.2375 13.585C30.1999 13.6716 30.1858 13.791 30.1201 13.8387C29.8302 14.0487 29.539 14.2621 29.2243 14.4298C28.6935 14.713 28.1352 14.9357 27.483 15.0189H27.4837Z" fill="#000091"/>
<path d="M26.0137 9.53319C25.956 9.6882 25.9311 9.78616 25.8855 9.87272C25.5399 10.5323 25.038 11.0436 24.3972 11.4194C24.3261 11.461 24.2456 11.4892 24.1664 11.5113C23.9953 11.5596 23.9195 11.4878 23.9671 11.3187C23.996 11.2167 24.0456 11.1161 24.1053 11.0275C24.4878 10.4625 24.9535 9.97673 25.5077 9.57882C25.5943 9.51709 25.6943 9.45804 25.7956 9.43925C25.858 9.42785 25.9345 9.49629 26.0137 9.53252V9.53319Z" fill="#000091"/>
<path d="M29.5595 19.3773C29.9192 19.4102 30.2922 19.4437 30.6653 19.4786C30.6982 19.482 30.7364 19.4793 30.7633 19.4954C30.872 19.5612 30.9773 19.633 31.0833 19.7021C30.9887 19.7873 30.9075 19.9114 30.7968 19.9524C30.101 20.208 29.4072 20.1859 28.7328 19.8725C28.6389 19.8289 28.5772 19.7155 28.5 19.6343C28.5986 19.5699 28.6899 19.4692 28.7966 19.4498C29.0415 19.4055 29.2931 19.4008 29.5595 19.3787V19.3773Z" fill="#000091"/>
<path d="M10.1247 24.7708C10.0999 24.7581 9.99789 24.736 9.9838 24.6883C9.96434 24.6219 9.98514 24.5078 10.0341 24.4642C10.3804 24.1529 10.7239 23.8348 11.099 23.5604C11.3016 23.4121 11.5573 23.3248 11.8015 23.2497C11.978 23.1953 12.0464 23.3067 11.9887 23.4825C11.821 23.9979 10.7212 24.7789 10.1254 24.7708H10.1247Z" fill="#000091"/>
<path d="M9.84236 18.0724C10.2141 18.1616 10.6435 18.2529 11.0643 18.3743C11.1629 18.4032 11.2313 18.5347 11.3139 18.6193C11.2172 18.6864 11.1293 18.793 11.0233 18.8145C10.3939 18.944 9.77929 18.8715 9.18545 18.6273C9.12439 18.6025 9.06601 18.5656 9.01569 18.524C8.86874 18.4025 8.89021 18.2791 9.06199 18.2287C9.2908 18.1616 9.53169 18.1328 9.84303 18.0731L9.84236 18.0724Z" fill="#000091"/>
<path d="M19.8819 9.10916C19.8323 9.42453 19.786 9.79492 19.7095 10.1599C19.6893 10.2546 19.5753 10.329 19.5041 10.4129C19.4337 10.3371 19.331 10.2727 19.2975 10.1828C19.0539 9.52116 19.0747 8.85955 19.3572 8.21405C19.3968 8.12413 19.5182 8.07045 19.6014 8C19.6612 8.08455 19.7551 8.16238 19.7732 8.25565C19.8235 8.516 19.843 8.78239 19.8819 9.10916Z" fill="#000091"/>
<path d="M15.3224 11.0254C15.3164 11.2214 15.2164 11.2818 15.0574 11.2187C14.9587 11.1798 14.8661 11.1147 14.7856 11.0442C14.4213 10.7255 14.1549 10.3356 13.9797 9.88474C13.9529 9.81562 13.9261 9.73913 13.9301 9.66733C13.9355 9.58346 13.9522 9.4761 14.0073 9.42846C14.0475 9.39356 14.1582 9.43315 14.2347 9.45127C14.273 9.45999 14.3079 9.49086 14.3401 9.51703C14.7984 9.87735 15.1218 10.3316 15.2895 10.8932C15.3036 10.9409 15.3137 10.9899 15.3217 11.0254H15.3224Z" fill="#000091"/>
<path d="M29.3454 25.3561C28.8576 25.3621 27.9484 24.718 27.8021 24.253C27.7793 24.1805 27.7753 24.0678 27.8169 24.0201C27.8565 23.9738 27.9752 23.9584 28.0423 23.9799C28.6469 24.1738 29.1441 24.5281 29.5158 25.0414C29.6588 25.2387 29.5836 25.3534 29.3454 25.3561Z" fill="#000091"/>
<path d="M11.2939 14.7742C10.9027 14.7641 10.1297 14.2099 9.9955 13.869C9.92773 13.6979 9.9908 13.6147 10.1612 13.5899C10.6148 13.5235 11.4012 14.0817 11.4898 14.5313C11.5267 14.7185 11.4207 14.7682 11.2946 14.7742H11.2939Z" fill="#000091"/>
<path d="M19.3965 13.7135C19.5683 13.6759 19.7394 13.6108 19.9119 13.6048C21.7148 13.543 23.1333 14.2865 24.2069 15.7083C24.7035 16.3659 25.0168 17.1101 25.0953 17.9394C25.1108 18.1051 25.0846 18.2742 25.0772 18.442C25.045 18.448 25.0128 18.4547 24.9799 18.4608C24.9122 18.3252 24.8363 18.1937 24.778 18.0548C24.4264 17.2161 23.9889 16.4323 23.3548 15.7681C22.4006 14.7683 21.2076 14.2315 19.879 13.9483C19.7153 13.9134 19.5556 13.857 19.3945 13.8107C19.3945 13.7785 19.3952 13.7457 19.3959 13.7135H19.3965Z" fill="#000091"/>
</g>
<defs>
<clipPath id="clip0_2512_134883">
<rect width="22.1631" height="24.1312" fill="white" transform="translate(8.91797 8)"/>
</clipPath>
</defs>
</svg>
