<svg width="40" height="40" viewBox="0 0 40 40" fill="none" xmlns="http://www.w3.org/2000/svg">
<path d="M19.9987 40C18.9633 40 18.0755 39.2755 17.2166 38.572C16.5712 38.0451 15.9626 37.5471 15.3408 37.3811C14.6796 37.2046 13.8444 37.339 13.0356 37.4681C11.9634 37.6393 10.8542 37.8185 9.99802 37.3231C9.126 36.8173 8.72291 35.7581 8.33564 34.7332C8.04847 33.9744 7.75077 33.1919 7.27919 32.7203C6.80761 32.2487 6.02252 31.951 5.26642 31.6638C4.24159 31.2765 3.18251 30.8734 2.67668 30.0013C2.18139 29.145 2.3579 28.0358 2.53178 26.9635C2.66087 26.1547 2.79523 25.3168 2.61872 24.6581C2.45274 24.0337 1.95482 23.4251 1.42791 22.7822C0.727129 21.9233 0 21.0381 0 20C0 18.9619 0.724494 18.0767 1.42791 17.2178C1.95482 16.5723 2.45274 15.9636 2.61872 15.3419C2.79523 14.6805 2.66087 13.8453 2.53178 13.0365C2.36053 11.9642 2.18139 10.855 2.67668 9.99868C3.18251 9.1266 4.24159 8.72349 5.26642 8.33619C6.02516 8.04901 6.80761 7.75128 7.27919 7.27967C7.75077 6.80806 8.04847 6.02292 8.33564 5.26676C8.72291 4.24187 9.126 3.18272 9.99802 2.67685C10.8542 2.18153 11.9634 2.35806 13.0356 2.53195C13.8444 2.66105 14.6822 2.79542 15.3408 2.61889C15.9652 2.4529 16.5738 1.95495 17.2166 1.42801C18.0755 0.727177 18.9607 0 19.9987 0C21.0367 0 21.9219 0.724542 22.7807 1.42801C23.4262 1.95495 24.0348 2.4529 24.6592 2.61889C25.3204 2.79542 26.1556 2.66105 26.9644 2.53195C28.0366 2.36069 29.1458 2.18153 30.002 2.67685C30.874 3.18272 31.2771 4.24187 31.6644 5.26676C31.9515 6.02556 32.2492 6.80806 32.7208 7.27967C33.1924 7.75128 33.9748 8.04901 34.7336 8.33619C35.7584 8.72349 36.8175 9.1266 37.3233 9.99868C37.8186 10.855 37.6421 11.9642 37.4682 13.0365C37.3391 13.8453 37.2048 14.6832 37.3813 15.3419C37.5473 15.9663 38.0452 16.5749 38.5721 17.2178C39.2729 18.0767 40 18.9619 40 20C40 21.0381 39.2755 21.9233 38.5721 22.7822C38.0452 23.4277 37.5473 24.0364 37.3813 24.6581C37.2048 25.3195 37.3391 26.1547 37.4682 26.9635C37.6395 28.0358 37.8186 29.145 37.3233 30.0013C36.8175 30.8734 35.7584 31.2765 34.7336 31.6638C33.9748 31.951 33.1924 32.2487 32.7208 32.7203C32.2492 33.1919 31.9515 33.9744 31.6644 34.7332C31.2771 35.7581 30.874 36.8173 30.002 37.3231C29.1458 37.8185 28.0366 37.6419 26.9644 37.4681C26.1556 37.339 25.3178 37.2046 24.6592 37.3811C24.0348 37.5471 23.4262 38.0451 22.7834 38.572C21.9245 39.2728 21.0393 40 20.0013 40H19.9987ZM29.7253 36.8463L17.567 38.1478Z" fill="#C7C7F5"/>
<g clip-path="url(#clip0_2512_134882)">
<path d="M11.9453 12.2792V27.625L12.737 28.4167L15.5078 29.6042H16.2995L16.6953 28.8125H20.2578L26.5911 28.4167L26.987 28.0209V22.875L28.1745 21.6875L28.9661 19.7084L28.5703 18.125L27.3828 16.5417L25.7995 15.75V12.2792L25.4036 11.3959H24.2161H12.3411L11.9453 12.2792Z" fill="white"/>
<path d="M27.1417 28.3798C27.3004 28.3798 27.4838 28.3724 27.6662 28.3824C27.797 28.3892 27.9426 28.406 27.9584 28.581C27.9726 28.7455 27.8811 28.857 27.734 28.9132C27.663 28.94 27.5805 28.9442 27.5033 28.9452C25.5172 28.9647 23.5312 28.9841 21.5446 28.9988C20.0237 29.0104 18.5028 29.0157 16.9819 29.0235C16.9304 29.0235 16.8789 29.0235 16.8169 29.0235C16.8037 29.1723 16.8011 29.3084 16.7774 29.4408C16.7039 29.8539 16.2713 30.1083 15.8856 29.9559C14.9133 29.5712 13.929 29.2117 12.9783 28.7781C12.0722 28.3645 11.5562 27.6093 11.553 26.606C11.5362 21.7153 11.5451 16.8246 11.5472 11.9339C11.5472 11.8666 11.5546 11.782 11.594 11.7347C11.7574 11.5392 11.9987 11.4031 12.0307 11.1104C12.0349 11.0715 12.1264 11.031 12.1842 11.0131C12.2383 10.9963 12.3009 11.0084 12.3602 11.0084C16.4837 11.0084 20.6076 11.0158 24.731 11C25.3333 10.9979 25.9082 11.4173 25.9004 12.1646C25.8883 13.3177 25.8972 14.4712 25.8972 15.6306C26.0328 15.6653 26.119 15.6873 26.2052 15.7089C27.724 16.0889 28.8728 17.3249 29.0447 18.8879C29.2202 20.484 28.7378 21.8493 27.4045 22.8379C27.302 22.9141 27.2741 22.9882 27.2747 23.1128C27.2804 24.6925 27.2831 26.2729 27.2736 27.8526C27.2726 28.0266 27.189 28.2 27.1422 28.3808L27.1417 28.3798ZM13.4697 11.5177C13.5164 11.5555 13.5248 11.565 13.5354 11.5713C14.8114 12.2771 16.0879 12.9829 17.3645 13.6887C17.6125 13.8259 17.7896 14.0182 17.8322 14.3067C17.8548 14.4618 17.8685 14.62 17.869 14.7766C17.8716 15.8061 17.869 16.8351 17.869 17.8647C17.869 19.9626 17.8664 22.0606 17.8716 24.1586C17.8727 24.5028 17.777 24.784 17.4938 24.9974C17.3266 25.123 17.1879 25.288 17.0171 25.4073C16.8179 25.546 16.7753 25.7284 16.779 25.9507C16.7916 26.6717 16.7953 27.3928 16.8027 28.1138C16.8027 28.1511 16.8095 28.1885 16.8148 28.2421H17.0586C20.1267 28.2421 23.1954 28.2421 26.2635 28.2421C26.6971 28.2421 26.8253 28.1154 26.8253 27.6834C26.8258 26.2608 26.8253 24.8381 26.8253 23.4155V23.2163C23.7835 24.3252 21.8468 22.5446 21.3534 20.7089C21.0638 19.6315 21.222 18.5983 21.7953 17.6476C22.6278 16.2665 23.8865 15.6327 25.4941 15.6427C25.4941 15.5659 25.4941 15.5081 25.4941 15.4503C25.4862 14.3751 25.4773 13.2998 25.4699 12.2245C25.4668 11.7458 25.2398 11.5192 24.7568 11.5192C21.0722 11.5192 17.3876 11.5192 13.703 11.5192C13.6384 11.5192 13.5742 11.5192 13.4691 11.5192L13.4697 11.5177ZM12.458 11.607C12.4522 11.6869 12.4464 11.7321 12.4464 11.7773C12.4464 16.9686 12.4459 22.1599 12.447 27.3513C12.447 27.8137 12.6792 28.1475 13.1091 28.3204C14.0488 28.6977 14.989 29.074 15.9292 29.4503C16.2177 29.5659 16.3444 29.4781 16.3444 29.1607C16.3444 28.2231 16.3407 27.2861 16.3454 26.3485C16.3507 25.3821 16.2188 25.4562 17.0759 24.7288C17.0812 24.7246 17.0849 24.7188 17.0907 24.7157C17.3986 24.538 17.4486 24.2532 17.448 23.9273C17.4433 20.8272 17.4428 17.7264 17.4501 14.6263C17.4507 14.2952 17.3203 14.0991 17.0313 13.9452C16.327 13.5704 15.6412 13.161 14.9401 12.78C14.3431 12.4558 13.7387 12.1436 13.1296 11.8425C12.9226 11.74 12.6919 11.6869 12.4575 11.6065L12.458 11.607ZM21.9162 19.2468C21.9194 21.195 23.4193 22.7333 25.3149 22.7328C27.1317 22.7323 28.629 21.2239 28.6295 19.3929C28.63 17.5572 27.1259 16.0463 25.2965 16.0458C23.3583 16.0452 21.9136 17.4132 21.9162 19.2468Z" fill="#000091"/>
<path d="M25.7735 19.7428V20.9243H24.7934V19.7528H23.6719V18.768H24.7839V17.678H25.7693V18.7553H26.9082V19.7428H25.773H25.7735Z" fill="#000091"/>
</g>
<defs>
<clipPath id="clip0_2512_134882">
<rect width="17.5358" height="19" fill="white" transform="translate(11.5469 11)"/>
</clipPath>
</defs>
</svg>
