<svg width="24" height="25" viewBox="0 0 24 25" fill="none" xmlns="http://www.w3.org/2000/svg">
<path d="M10.6164 18.7166C10.279 19.4892 9.20971 19.4892 8.87235 18.7166L7.9947 16.7064C7.21366 14.9176 5.80784 13.4936 4.05425 12.7152L1.63853 11.6429C0.870489 11.302 0.87049 10.1847 1.63853 9.84378L3.9788 8.80496C5.77748 8.00654 7.20852 6.52983 7.97622 4.67994L8.86525 2.53775C9.19514 1.74279 10.2936 1.74279 10.6235 2.53775L11.5125 4.67996C12.2802 6.52983 13.7112 8.00654 15.5099 8.80496L17.8502 9.84378C18.6182 10.1847 18.6182 11.302 17.8502 11.6429L15.4345 12.7152C13.6809 13.4936 12.2751 14.9176 11.494 16.7064L10.6164 18.7166ZM4.54151 10.7434C6.82735 11.758 8.68597 13.4258 9.74433 15.7206C10.8028 13.4258 12.6614 11.758 14.9472 10.7434C12.6341 9.71659 10.7696 7.96749 9.74434 5.6319C8.71914 7.9675 6.85462 9.71659 4.54151 10.7434ZM19.4034 23.6109L19.6502 23.0452C20.0902 22.0366 20.8827 21.2335 21.8715 20.7942L22.6319 20.4563C23.0432 20.2736 23.0432 19.6759 22.6319 19.4932L21.9141 19.1742C20.8998 18.7236 20.0931 17.8908 19.6606 16.8479L19.4072 16.2366C19.2305 15.8106 18.6415 15.8106 18.4648 16.2366L18.2114 16.8479C17.779 17.8908 16.9723 18.7236 15.958 19.1742L15.2401 19.4932C14.8289 19.6759 14.8289 20.2736 15.2401 20.4563L16.0005 20.7942C16.9894 21.2335 17.7818 22.0366 18.2218 23.0452L18.4687 23.6109C18.6493 24.025 19.2227 24.025 19.4034 23.6109ZM18.3765 19.9679L18.939 19.4093L19.4898 19.9679L18.939 20.5108L18.3765 19.9679Z" fill="black"/>
</svg>
