<svg width="24" height="24" viewBox="0 0 24 24" fill="none" xmlns="http://www.w3.org/2000/svg">
<path d="M12 2C17.523 2 22 6.477 22 12C22 17.523 17.523 22 12 22C10.3822 22.0021 8.78829 21.6102 7.35601 20.858L3.06601 21.975C2.92266 22.0123 2.77205 22.0116 2.6291 21.9728C2.48615 21.934 2.35582 21.8585 2.25102 21.7538C2.14623 21.6491 2.07062 21.5188 2.03168 21.3759C1.99273 21.233 1.99181 21.0824 2.02901 20.939L3.14501 16.65C2.39085 15.2162 1.99782 13.6201 2.00001 12C2.00001 6.477 6.47701 2 12 2ZM12 15.5C11.7348 15.5 11.4804 15.6054 11.2929 15.7929C11.1054 15.9804 11 16.2348 11 16.5C11 16.7652 11.1054 17.0196 11.2929 17.2071C11.4804 17.3946 11.7348 17.5 12 17.5C12.2652 17.5 12.5196 17.3946 12.7071 17.2071C12.8947 17.0196 13 16.7652 13 16.5C13 16.2348 12.8947 15.9804 12.7071 15.7929C12.5196 15.6054 12.2652 15.5 12 15.5ZM12 6.75C11.2707 6.75 10.5712 7.03973 10.0555 7.55546C9.53974 8.07118 9.25001 8.77065 9.25001 9.5C9.25007 9.69002 9.32225 9.87294 9.45198 10.0118C9.58171 10.1506 9.75931 10.2351 9.94889 10.248C10.1385 10.261 10.3259 10.2015 10.4733 10.0816C10.6207 9.96165 10.7171 9.79025 10.743 9.602L10.757 9.372C10.7908 9.05406 10.9451 8.76115 11.1882 8.55351C11.4314 8.34587 11.7448 8.23929 12.0641 8.25568C12.3834 8.27208 12.6843 8.4102 12.9049 8.64165C13.1255 8.8731 13.249 9.18028 13.25 9.5C13.25 10.039 13.115 10.305 12.605 10.832L12.301 11.142C11.547 11.926 11.25 12.489 11.25 13.5C11.25 13.6989 11.329 13.8897 11.4697 14.0303C11.6103 14.171 11.8011 14.25 12 14.25C12.1989 14.25 12.3897 14.171 12.5303 14.0303C12.671 13.8897 12.75 13.6989 12.75 13.5C12.75 12.961 12.885 12.695 13.395 12.168L13.699 11.858C14.453 11.074 14.75 10.511 14.75 9.5C14.75 8.77065 14.4603 8.07118 13.9446 7.55546C13.4288 7.03973 12.7294 6.75 12 6.75Z" fill="white"/>
</svg>
