<svg width="84" height="99" viewBox="0 0 84 99" fill="none" xmlns="http://www.w3.org/2000/svg">
<g clip-path="url(#clip0_3481_57447)">
<path d="M45.3915 98.95C36.3515 98.95 27.3115 98.95 18.2615 98.95C15.7715 98.95 13.5015 98.24 11.5215 96.72C9.1215 94.88 7.7315 92.43 7.3115 89.45C7.1715 88.5 7.1515 87.53 7.0915 86.56C7.0615 86.08 7.0315 85.61 7.0215 85.13C7.0215 84.82 6.8615 84.73 6.5815 84.69C5.9515 84.59 5.3015 84.5 4.6915 84.31C2.2615 83.56 0.611501 82.05 0.111501 79.46C-0.538499 76.08 1.6215 72.8 4.9715 72.06C5.4915 71.94 6.0315 71.9 6.5615 71.83C7.0215 71.77 7.0615 71.74 7.0615 71.28C7.0615 66.38 7.0615 61.47 7.0615 56.57C7.0615 56.07 7.0215 56.04 6.5115 55.99C5.2315 55.85 3.9915 55.53 2.8915 54.83C0.711501 53.45 -0.178499 51.41 0.0615014 48.87C0.311501 46.24 1.8515 44.6 4.2515 43.72C4.9915 43.45 5.7915 43.29 6.5615 43.11C7.0815 42.99 7.0915 43.01 7.0915 42.46C7.0915 38.75 7.0915 35.04 7.0915 31.33C7.0915 30.24 7.0915 29.16 7.0915 28.07C7.0915 27.47 7.0815 27.47 6.5015 27.36C5.1115 27.1 3.7615 26.72 2.5715 25.9C0.591501 24.53 -0.128499 22.6 0.0315014 20.28C0.121501 18.97 0.581501 17.79 1.4815 16.82C2.1615 16.08 2.9915 15.53 3.9315 15.18C4.8015 14.86 5.7015 14.62 6.6015 14.38C7.1315 14.24 7.1515 14.25 7.1515 13.7C7.1515 12.77 7.1215 11.84 7.1715 10.91C7.2915 8.57 7.9515 6.41 9.4115 4.53C10.7015 2.88 12.1415 2.03 12.9915 1.55C13.6515 1.18 14.9315 0.47 16.7115 0.19C17.6115 0.05 18.3015 0.07 18.5215 0.08C29.5415 0.36 40.5615 0 51.5915 0C56.2715 0 60.9415 0.04 65.6215 0.07C68.0915 0.08 70.5615 0.05 73.0315 0.15C75.6115 0.26 77.9815 1.05 79.9615 2.77C82.2415 4.75 83.4915 7.29 83.9115 10.26C83.9415 10.46 83.9315 10.66 83.9215 10.87C83.9015 21.13 83.8715 31.39 83.8515 41.65C83.8515 45.61 83.8515 49.57 83.8515 53.53C83.8315 62.23 83.8115 70.92 83.7915 79.62C83.7915 82.45 83.7515 85.27 83.8015 88.1C83.8215 89.36 83.6015 90.54 83.1615 91.7C82.0415 94.65 80.1415 96.87 77.1815 98.09C75.8115 98.65 74.3715 98.95 72.8915 98.95C67.9015 98.97 62.9215 98.96 57.9315 98.96C53.7515 98.96 49.5815 98.96 45.4015 98.96L45.3915 98.95ZM10.5215 43.01C10.5915 43.06 10.6515 43.07 11.0615 43.15C11.4715 43.23 11.6715 43.27 11.7115 43.28C12.3015 43.38 12.9715 43.65 13.2115 43.74C14.3915 44.17 15.4215 44.83 16.1815 45.84C17.2215 47.22 17.5215 48.8 17.2815 50.48C16.9915 52.55 15.9115 54.11 14.0915 55.14C13.0815 55.71 11.9815 55.93 10.8315 56C10.3815 56.03 10.3315 56.07 10.3315 56.5C10.3315 61.43 10.3315 66.35 10.3315 71.28C10.3315 71.59 10.4015 71.76 10.7515 71.8C11.7415 71.92 12.6915 72.17 13.6115 72.56C14.8315 73.08 15.8115 73.88 16.5115 75.02C17.0215 75.85 17.2615 76.77 17.3315 77.74C17.4315 79.14 17.1915 80.48 16.4115 81.68C15.6015 82.93 14.4215 83.69 13.0415 84.15C12.2615 84.41 11.4515 84.58 10.6615 84.78C10.4115 84.84 10.2115 84.91 10.2115 85.23C10.2115 86.58 10.1415 87.93 10.4115 89.26C11.0715 92.5 12.9515 94.63 16.1615 95.53C17.1515 95.81 18.1615 95.84 19.1715 95.84C36.9415 95.84 54.7215 95.84 72.4915 95.84C73.0415 95.84 73.5915 95.79 74.1315 95.69C76.6015 95.24 78.5315 94 79.7615 91.76C80.5415 90.33 80.8115 88.79 80.8115 87.17C80.8115 62.21 80.8115 37.26 80.8015 12.3C80.8015 11.58 80.7615 10.84 80.6615 10.13C80.3715 8.1 79.4615 6.4 77.8415 5.11C76.2115 3.82 74.3115 3.31 72.2615 3.31C54.4815 3.31 36.6915 3.31 18.9115 3.31C18.4215 3.31 17.9315 3.31 17.4515 3.38C15.9215 3.56 14.6015 4.05 13.4915 4.85C13.0415 5.18 11.8715 6.11 11.1115 7.7C10.7215 8.52 10.5515 9.28 10.4615 9.68C10.3315 10.27 10.2915 10.77 10.2015 11.77C10.1715 12.06 10.1715 12.43 10.1715 13.18C10.1715 13.84 10.1715 14.07 10.3515 14.25C10.5215 14.42 10.7115 14.4 11.2515 14.49C11.6415 14.55 12.0215 14.67 12.4115 14.74C13.1615 14.89 14.9215 15.49 16.1115 17.04C17.1715 18.42 17.4815 20 17.3015 21.7C17.1015 23.58 16.2215 25.03 14.6015 26.02C13.4415 26.73 12.1715 27.11 10.8515 27.35C10.5715 27.4 10.4315 27.43 10.3615 27.52C10.2115 27.7 10.2815 27.96 10.2915 28.02C10.3815 28.5 10.3515 33.94 10.2615 42.05C10.2115 42.73 10.4515 42.93 10.5315 42.99L10.5215 43.01ZM8.6615 81.46C9.5315 81.46 10.4015 81.5 11.2715 81.46C12.9315 81.37 14.2315 80 14.2515 78.37C14.2715 76.64 13.0815 75.28 11.3715 75.13C10.5815 75.06 9.7715 75.05 8.9815 75.06C7.9715 75.06 6.9515 75.05 5.9415 75.15C4.6715 75.28 3.7715 75.99 3.3215 77.19C2.5915 79.17 3.9215 81.27 6.0515 81.46C6.9115 81.54 7.7915 81.47 8.6615 81.47V81.46ZM8.6715 52.86C9.5415 52.83 10.4115 52.81 11.2715 52.76C12.8415 52.66 14.0515 51.5 14.2315 49.95C14.4115 48.41 13.4815 47 11.9815 46.55C11.6615 46.46 11.3315 46.37 11.0015 46.37C9.3315 46.37 7.6615 46.33 6.0015 46.43C4.3515 46.53 3.0915 48.01 3.1215 49.62C3.1415 51.3 4.4015 52.63 6.1015 52.75C6.9615 52.81 7.8115 52.82 8.6815 52.85L8.6715 52.86ZM8.8815 17.7C8.6915 17.7 8.7115 17.7 8.6015 17.7C6.8815 17.7 6.6315 17.66 6.1415 17.72C5.7215 17.77 5.3415 17.82 4.9215 18.02C4.0015 18.46 3.3315 19.35 3.1515 20.46C2.9215 21.87 3.7715 23.32 5.1515 23.85C6.0715 24.2 7.0215 24.14 7.9715 24.1C8.1715 24.1 8.3715 24.1 8.5715 24.1C9.5715 24.08 10.5815 24.16 11.5615 24.03C13.1715 23.81 14.2415 22.48 14.2315 20.89C14.2315 20.04 13.9215 19.27 13.3915 18.71C12.7215 18 11.8715 17.84 11.5415 17.77C11.2015 17.7 10.4215 17.7 8.8615 17.7H8.8815Z" fill="#E3E3FD"/>
<path d="M42.669 37.91C42.669 38.05 42.669 38.3899 42.529 38.8499C42.299 39.5999 41.899 40.22 41.369 40.75C40.599 41.53 39.769 42.25 38.959 42.98C38.479 43.41 38.059 43.86 38.119 44.55C38.139 44.83 38.199 45.13 38.349 45.37C39.549 47.33 40.619 49.38 42.069 51.18C44.609 54.36 47.579 57.0199 51.249 58.8499C51.509 58.9799 51.769 59.0899 52.039 59.1699C53.199 59.5099 54.129 59.2 54.819 58.2C55.439 57.32 56.179 56.57 56.979 55.88C58.319 54.73 59.789 54.56 61.369 55.33C63.989 56.6 66.599 57.87 69.219 59.15C69.499 59.29 69.769 59.44 70.039 59.58C71.429 60.3 72.239 61.96 71.959 63.49C71.589 65.52 71.019 67.4799 69.939 69.2699C68.389 71.8399 66.039 73.21 63.139 73.65C59.929 74.14 56.769 73.7799 53.669 72.8499C50.759 71.9799 48.079 70.61 45.509 69C41.629 66.56 38.089 63.72 34.929 60.4C32.239 57.58 29.939 54.47 28.059 51.06C26.849 48.87 25.739 46.62 24.949 44.23C24.319 42.33 23.939 40.39 23.819 38.38C23.709 36.6 23.759 34.83 24.209 33.09C24.999 30.05 26.879 27.93 29.699 26.61C31.009 26 32.379 25.62 33.789 25.35C35.639 24.99 37.299 25.98 38.009 27.41C39.319 30.05 40.589 32.71 41.869 35.36C42.129 35.91 42.249 36.17 42.429 36.71C42.629 37.29 42.669 37.6 42.679 37.89L42.669 37.91ZM38.889 36.55C38.679 36.1 38.499 35.7199 38.319 35.3499C37.419 33.4799 36.509 31.62 35.619 29.74C35.239 28.95 34.679 28.55 33.819 28.62C30.979 28.87 28.939 30.33 27.649 32.83C26.999 34.08 26.909 35.47 26.879 36.84C26.819 39.52 27.399 42.08 28.399 44.54C30.849 50.55 34.429 55.78 39.179 60.22C41.689 62.57 44.419 64.6199 47.339 66.4199C50.569 68.4199 53.989 69.8899 57.779 70.4499C59.359 70.6799 60.949 70.8399 62.549 70.5599C64.519 70.2099 66.139 69.31 67.269 67.62C67.999 66.55 68.439 65.3599 68.719 64.0999C68.949 63.09 68.609 62.43 67.679 61.97C66.389 61.33 65.089 60.7 63.799 60.0499C62.779 59.5299 61.769 58.99 60.749 58.47C59.869 58.03 59.129 58.1699 58.449 58.8899C58.379 58.97 58.309 59.0499 58.239 59.13C57.279 60.16 56.319 61.19 55.349 62.2C55.089 62.47 54.789 62.65 54.469 62.74C54.199 62.81 53.949 62.76 53.449 62.68C53.209 62.6399 52.939 62.5999 52.579 62.5099C50.549 61.9899 48.799 61.07 48.799 61.07C47.699 60.4899 46.949 59.95 46.229 59.45C44.829 58.47 43.529 57.38 42.299 56.17C40.489 54.3899 38.889 52.44 37.449 50.35C36.169 48.49 35.189 46.51 34.819 44.26C34.639 43.18 34.919 42.29 35.789 41.58C36.459 41.03 37.089 40.42 37.739 39.84C37.929 39.67 38.129 39.5 38.349 39.31C38.489 39.22 38.819 38.97 39.019 38.5C39.199 38.07 39.179 37.69 39.149 37.52C39.059 37.19 38.979 36.86 38.889 36.53V36.55Z" fill="#E3E3FD"/>
</g>
<defs>
<clipPath id="clip0_3481_57447">
<rect width="83.92" height="98.96" fill="white"/>
</clipPath>
</defs>
</svg>
