<svg width="105" height="121" viewBox="0 0 105 121" xmlns="http://www.w3.org/2000/svg">
<path d="M88.0064 0H17.0003C7.63539 0 -0.000976562 7.67486 -0.000976562 17.0869V66.0314C-0.000976562 75.4522 7.63539 83.1184 17.0003 83.1184H28.7128C29.7619 83.1184 30.6047 82.2714 30.6047 81.2169C30.6047 80.1625 29.7619 79.3155 28.7128 79.3155H17.0003C9.70787 79.3155 3.77421 73.3519 3.77421 66.0228V17.0869C3.77421 9.75779 9.70787 3.79421 17.0003 3.79421H87.9892C95.2816 3.79421 101.215 9.75779 101.215 17.0869V66.0314C101.215 70.5776 98.9192 74.7694 95.0838 77.2326C94.198 77.803 93.9487 78.9698 94.5076 79.8514C95.0666 80.7329 96.2447 80.9922 97.1133 80.4304C102.049 77.2499 104.999 71.874 104.999 66.0228V17.0869C105.008 7.66622 97.3799 0 88.0064 0ZM88.8233 12.947H14.0678C13.0187 12.947 12.1759 13.794 12.1759 14.8484C12.1759 15.9029 13.0187 16.7499 14.0678 16.7499H88.8233C89.8725 16.7499 90.7152 15.9029 90.7152 14.8484C90.7152 13.794 89.8725 12.947 88.8233 12.947ZM88.8233 26.3953H56.6698C55.6206 26.3953 54.7779 27.2423 54.7779 28.2967C54.7779 29.3511 55.6206 30.1981 56.6698 30.1981H88.8233C89.8725 30.1981 90.7152 29.3511 90.7152 28.2967C90.7152 27.2423 89.8725 26.3953 88.8233 26.3953ZM88.8233 36.9569H56.6698C55.6206 36.9569 54.7779 37.8039 54.7779 38.8583C54.7779 39.9127 55.6206 40.7597 56.6698 40.7597H88.8233C89.8725 40.7597 90.7152 39.9127 90.7152 38.8583C90.7152 37.8039 89.8725 36.9569 88.8233 36.9569ZM88.8233 47.5098H56.6698C55.6206 47.5098 54.7779 48.3568 54.7779 49.4112C54.7779 50.4656 55.6206 51.3126 56.6698 51.3126H88.8233C89.8725 51.3126 90.7152 50.4656 90.7152 49.4112C90.7152 48.3568 89.8725 47.5098 88.8233 47.5098ZM88.8233 58.806H74.2988C73.2496 58.806 72.4069 59.653 72.4069 60.7074C72.4069 61.7619 73.2496 62.6089 74.2988 62.6089H88.8233C89.8725 62.6089 90.7152 61.7619 90.7152 60.7074C90.7152 59.653 89.8725 58.806 88.8233 58.806ZM90.4745 84.9679C89.1673 84.9679 87.9548 85.3569 86.9229 86.0051V85.5124C86.9229 81.7787 83.8958 78.7364 80.1722 78.7364C78.7963 78.7364 77.515 79.1513 76.4573 79.8773C75.7865 76.835 73.0948 74.5447 69.8786 74.5447C68.5715 74.5447 67.359 74.9336 66.327 75.5818V61.226C66.327 57.3454 63.0592 54.2167 59.1292 54.4673C55.5433 54.7006 52.8344 57.8466 52.8344 61.4594V93.8269L48.1133 85.8754C46.2214 82.6603 42.0678 81.5972 38.8688 83.4987C35.6698 85.4087 34.612 89.5746 36.5039 92.7897L52.6796 120.196C52.9806 120.706 53.5138 120.983 54.0555 120.983C54.3307 120.983 54.6059 120.905 54.8639 120.758C55.6206 120.3 55.87 119.323 55.4143 118.571L39.2386 91.1649C38.241 89.4709 38.8 87.2669 40.4855 86.2644C42.171 85.2618 44.3639 85.8236 45.3614 87.5262L53.0408 100.465C53.0752 100.525 53.1268 100.551 53.1698 100.603C53.23 100.689 53.2988 100.767 53.3848 100.845C53.4622 100.923 53.5482 100.975 53.6342 101.026C53.7202 101.078 53.7976 101.113 53.9007 101.156C54.0125 101.191 54.1157 101.208 54.2275 101.217C54.2877 101.225 54.3393 101.251 54.4081 101.251C54.4425 101.251 54.4683 101.242 54.5113 101.225C54.6231 101.217 54.7263 101.191 54.8381 101.165C54.9413 101.139 55.0359 101.113 55.1305 101.061C55.1649 101.052 55.2079 101.052 55.2337 101.026C55.2939 100.992 55.3197 100.94 55.3713 100.897C55.4573 100.836 55.5347 100.767 55.612 100.681C55.6722 100.603 55.741 100.516 55.7926 100.43C55.8442 100.344 55.8786 100.249 55.9216 100.162C55.956 100.058 55.9732 99.946 55.9818 99.8337C55.9904 99.7732 56.0162 99.7213 56.0162 99.6522V61.2346C56.0162 59.2641 57.6157 57.6651 59.5678 57.6651C61.5199 57.6651 63.1194 59.2727 63.1194 61.2346V99.6435C63.1194 100.534 63.8332 101.251 64.7189 101.251C65.6047 101.251 66.3184 100.534 66.3184 99.6435V95.227V81.3293C66.3184 79.2291 68.1243 77.561 70.2398 77.7771C72.0801 77.9672 73.4216 79.6353 73.4216 81.4935V85.5211V95.2443V98.4594C73.4216 99.2632 73.9634 100.007 74.7546 100.136C75.7521 100.3 76.6292 99.5225 76.6292 98.5545V95.2529V85.6853C76.6292 83.8184 77.988 82.1504 79.8455 81.9775C81.9609 81.7787 83.7324 83.4554 83.7324 85.5297V91.7612V101.303V104.527C83.7324 105.331 84.2742 106.074 85.0654 106.203C86.0629 106.368 86.9401 105.59 86.9401 104.622V91.7612C86.9401 89.7906 88.5396 88.1917 90.4917 88.1917C92.4437 88.1917 94.0433 89.7993 94.0433 91.7612V114.803L92.6673 118.666C92.2632 119.453 92.5555 120.412 93.3381 120.827C93.5789 120.957 93.8283 121.009 94.0777 121.009C94.6538 121.009 95.2128 120.689 95.488 120.144L97.0359 115.927C97.1477 115.702 97.2165 115.443 97.2165 115.183V91.7612C97.2509 88.0275 94.2152 84.9852 90.5003 84.9852L90.4745 84.9679Z" fill="#C4C4C4"/>
</svg>
