<svg width="106" height="121" viewBox="0 0 106 121" fill="none" xmlns="http://www.w3.org/2000/svg">
<g clip-path="url(#clip0_3168_97005)">
<path d="M88.1158 0H17.1096C7.74476 0 0.108398 7.67486 0.108398 17.0869V66.0314C0.108398 75.4522 7.74476 83.1184 17.1096 83.1184H28.8222C29.8713 83.1184 30.7141 82.2714 30.7141 81.2169C30.7141 80.1625 29.8713 79.3155 28.8222 79.3155H17.1096C9.81724 79.3155 3.88358 73.3519 3.88358 66.0228V17.0869C3.88358 9.75779 9.81724 3.79421 17.1096 3.79421H88.0986C95.391 3.79421 101.325 9.75779 101.325 17.0869V66.0314C101.325 70.5776 99.0286 74.7694 95.1932 77.2326C94.3074 77.803 94.058 78.9698 94.617 79.8514C95.176 80.7329 96.3541 80.9922 97.2227 80.4304C102.159 77.2499 105.108 71.874 105.108 66.0228V17.0869C105.117 7.66622 97.4892 0 88.1158 0ZM88.9327 12.947H14.1772C13.1281 12.947 12.2853 13.794 12.2853 14.8484C12.2853 15.9029 13.1281 16.7499 14.1772 16.7499H88.9327C89.9819 16.7499 90.8246 15.9029 90.8246 14.8484C90.8246 13.794 89.9819 12.947 88.9327 12.947ZM88.9327 26.3953H56.7792C55.73 26.3953 54.8873 27.2423 54.8873 28.2967C54.8873 29.3511 55.73 30.1981 56.7792 30.1981H88.9327C89.9819 30.1981 90.8246 29.3511 90.8246 28.2967C90.8246 27.2423 89.9819 26.3953 88.9327 26.3953ZM88.9327 36.9569H56.7792C55.73 36.9569 54.8873 37.8039 54.8873 38.8583C54.8873 39.9127 55.73 40.7597 56.7792 40.7597H88.9327C89.9819 40.7597 90.8246 39.9127 90.8246 38.8583C90.8246 37.8039 89.9819 36.9569 88.9327 36.9569ZM88.9327 47.5098H56.7792C55.73 47.5098 54.8873 48.3568 54.8873 49.4112C54.8873 50.4656 55.73 51.3126 56.7792 51.3126H88.9327C89.9819 51.3126 90.8246 50.4656 90.8246 49.4112C90.8246 48.3568 89.9819 47.5098 88.9327 47.5098ZM88.9327 58.806H74.4082C73.359 58.806 72.5163 59.653 72.5163 60.7074C72.5163 61.7619 73.359 62.6089 74.4082 62.6089H88.9327C89.9819 62.6089 90.8246 61.7619 90.8246 60.7074C90.8246 59.653 89.9819 58.806 88.9327 58.806ZM90.5838 84.9679C89.2767 84.9679 88.0642 85.3569 87.0322 86.0051V85.5124C87.0322 81.7787 84.0052 78.7364 80.2816 78.7364C78.9057 78.7364 77.6244 79.1513 76.5666 79.8773C75.8959 76.835 73.2042 74.5447 69.988 74.5447C68.6809 74.5447 67.4684 74.9336 66.4364 75.5818V61.226C66.4364 57.3454 63.1686 54.2167 59.2386 54.4673C55.6526 54.7007 52.9438 57.8467 52.9438 61.4594V93.8269L48.2227 85.8754C46.3308 82.6603 42.1772 81.5972 38.9782 83.4987C35.7792 85.4087 34.7214 89.5746 36.6133 92.7897L52.789 120.196C53.09 120.706 53.6231 120.983 54.1649 120.983C54.4401 120.983 54.7153 120.905 54.9733 120.758C55.73 120.3 55.9794 119.323 55.5236 118.571L39.348 91.1649C38.3504 89.4709 38.9094 87.2669 40.5949 86.2644C42.2804 85.2618 44.4733 85.8236 45.4708 87.5262L53.1502 100.465C53.1846 100.525 53.2362 100.551 53.2792 100.603C53.3394 100.689 53.4082 100.767 53.4942 100.845C53.5715 100.923 53.6575 100.975 53.7435 101.026C53.8295 101.078 53.9069 101.113 54.0101 101.156C54.1219 101.191 54.2251 101.208 54.3369 101.217C54.3971 101.225 54.4487 101.251 54.5175 101.251C54.5519 101.251 54.5777 101.242 54.6207 101.225C54.7325 101.217 54.8357 101.191 54.9475 101.165C55.0507 101.139 55.1453 101.113 55.2399 101.061C55.2742 101.052 55.3172 101.052 55.343 101.026C55.4032 100.992 55.429 100.94 55.4806 100.897C55.5666 100.836 55.644 100.767 55.7214 100.681C55.7816 100.603 55.8504 100.516 55.902 100.43C55.9536 100.344 55.988 100.249 56.031 100.162C56.0654 100.058 56.0826 99.946 56.0912 99.8337C56.0998 99.7732 56.1256 99.7213 56.1256 99.6522V61.2346C56.1256 59.2641 57.7251 57.6652 59.6772 57.6652C61.6293 57.6652 63.2288 59.2727 63.2288 61.2346V99.6435C63.2288 100.534 63.9426 101.251 64.8283 101.251C65.7141 101.251 66.4278 100.534 66.4278 99.6435V95.227V81.3293C66.4278 79.2291 68.2337 77.561 70.3492 77.7771C72.1895 77.9672 73.531 79.6353 73.531 81.4935V85.5211V95.2443V98.4594C73.531 99.2632 74.0728 100.007 74.8639 100.136C75.8615 100.3 76.7386 99.5225 76.7386 98.5545V95.2529V85.6853C76.7386 83.8184 78.0973 82.1504 79.9548 81.9775C82.0703 81.7787 83.8418 83.4554 83.8418 85.5297V91.7612V101.303V104.527C83.8418 105.331 84.3836 106.074 85.1747 106.203C86.1723 106.368 87.0494 105.59 87.0494 104.622V91.7612C87.0494 89.7907 88.6489 88.1917 90.601 88.1917C92.5531 88.1917 94.1526 89.7993 94.1526 91.7612V114.803L92.7767 118.666C92.3725 119.453 92.6649 120.412 93.4475 120.827C93.6883 120.957 93.9376 121.009 94.187 121.009C94.7632 121.009 95.3222 120.689 95.5973 120.144L97.1453 115.927C97.257 115.702 97.3259 115.443 97.3259 115.183V91.7612C97.3602 88.0275 94.3246 84.9852 90.6096 84.9852L90.5838 84.9679Z" fill="#E3E3FD"/>
<path d="M30.5506 26.0066C31.6428 26.0066 32.3737 25.272 32.3737 24.1743V22.3421C32.3737 21.2444 31.6428 20.5098 30.5506 20.5098C29.4585 20.5098 28.7275 21.2444 28.7275 22.3421V24.1743C28.7275 25.272 29.4585 26.0066 30.5506 26.0066Z" fill="#E3E3FD"/>
<path d="M30.5506 51.7012C29.4585 51.7012 28.7275 52.4358 28.7275 53.5335V55.3657C28.7275 56.4634 29.4585 57.198 30.5506 57.198C31.6428 57.198 32.3737 56.4634 32.3737 55.3657V53.5335C32.3737 52.4358 31.6428 51.7012 30.5506 51.7012Z" fill="#E3E3FD"/>
<path d="M46.9929 37.0176H45.1698C44.0776 37.0176 43.3467 37.7522 43.3467 38.8499C43.3467 39.9475 44.0776 40.6821 45.1698 40.6821H46.9929C48.085 40.6821 48.816 39.9475 48.816 38.8499C48.816 37.7522 48.085 37.0176 46.9929 37.0176Z" fill="#E3E3FD"/>
<path d="M17.772 38.8499C17.772 37.7522 17.0411 37.0176 15.9489 37.0176H14.1258C13.0337 37.0176 12.3027 37.7522 12.3027 38.8499C12.3027 39.9475 13.0337 40.6821 14.1258 40.6821H15.9489C17.0411 40.6821 17.772 39.9475 17.772 38.8499Z" fill="#E3E3FD"/>
<path d="M40.9645 30.2245C41.5149 30.2245 41.876 30.043 42.2458 29.6713L43.5272 28.3835C44.2581 27.6489 44.2581 26.5512 43.5272 25.8166C42.7962 25.082 41.7041 25.082 40.9731 25.8166L39.6918 27.1044C38.9608 27.839 38.9608 28.9367 39.6918 29.6713C39.8724 30.0343 40.4227 30.2245 40.9731 30.2245H40.9645Z" fill="#E3E3FD"/>
<path d="M18.8637 48.0275L17.5824 49.3153C16.8514 50.05 16.8514 51.1476 17.5824 51.8823C17.9436 52.2453 18.4939 52.4354 18.8637 52.4354C19.2335 52.4354 19.7753 52.2539 20.1451 51.8823L21.4264 50.5945C22.1573 49.8598 22.1573 48.7622 21.4264 48.0275C20.6954 47.2929 19.6033 47.2929 18.8723 48.0275H18.8637Z" fill="#E3E3FD"/>
<path d="M42.2458 48.0275C41.5149 47.2929 40.4227 47.2929 39.6918 48.0275C38.9608 48.7622 38.9608 49.8598 39.6918 50.5945L40.9731 51.8823C41.3343 52.2453 41.8846 52.4354 42.2544 52.4354C42.6242 52.4354 43.166 52.2539 43.5358 51.8823C44.2667 51.1476 44.2667 50.05 43.5358 49.3153L42.2544 48.0275H42.2458Z" fill="#E3E3FD"/>
<path d="M18.8639 29.6713C19.2251 30.0343 19.7755 30.2245 20.1452 30.2245C20.515 30.2245 21.2374 30.043 21.6072 29.6713C22.3381 28.9367 22.3381 27.839 21.6072 27.1044L20.1452 25.8166C19.4143 25.082 18.3221 25.082 17.5912 25.8166C16.8602 26.5512 16.8602 27.6489 17.5912 28.3835L18.8725 29.6713H18.8639Z" fill="#E3E3FD"/>
<path d="M30.5506 29.6719C25.4339 29.6719 21.418 33.7081 21.418 38.8506C21.418 43.9931 25.4339 48.0293 30.5506 48.0293C35.6674 48.0293 39.6833 43.9931 39.6833 38.8506C39.6833 33.7081 35.6674 29.6719 30.5506 29.6719ZM30.5506 44.3561C27.4462 44.3561 25.0728 41.9707 25.0728 38.8506C25.0728 35.7305 27.4462 33.3451 30.5506 33.3451C33.6551 33.3451 36.0285 35.7305 36.0285 38.8506C36.0285 41.9707 33.6551 44.3561 30.5506 44.3561Z" fill="#E3E3FD"/>
</g>
<defs>
<clipPath id="clip0_3168_97005">
<rect width="105" height="121" fill="white" transform="translate(0.108398)"/>
</clipPath>
</defs>
</svg>
