<svg width="106" height="104" viewBox="0 0 106 104" fill="none" xmlns="http://www.w3.org/2000/svg">
<g clip-path="url(#clip0_1_11247)">
<path d="M96.0625 0H33.125C27.6428 0 23.1875 4.33178 23.1875 9.66196V22.5446H8.28125C3.71 22.5446 0 26.1517 0 30.5962V75.6853C0 80.1298 3.71 83.737 8.28125 83.737H23.1875V88.5679H13.25C12.3391 88.5679 11.5938 89.2926 11.5938 90.1783C11.5938 97.2959 17.5231 103.061 24.8438 103.061H76.1875C83.5081 103.061 89.4375 97.2959 89.4375 90.1783V9.66196C89.4375 6.10314 92.4022 3.22065 96.0625 3.22065C99.7228 3.22065 102.688 6.10314 102.688 9.66196V25.7652H92.75V28.9859H104.344C105.255 28.9859 106 28.2612 106 27.3755V9.66196C106 4.33178 101.545 0 96.0625 0ZM3.3125 75.6853V30.5962C3.3125 27.9231 5.53188 25.7652 8.28125 25.7652H38.0938C40.8431 25.7652 43.0625 27.9231 43.0625 30.5962V75.6853C43.0625 78.3585 40.8431 80.5163 38.0938 80.5163H8.28125C5.53188 80.5163 3.3125 78.3585 3.3125 75.6853ZM24.8438 99.8402C19.9909 99.8402 15.8503 96.4424 15.0387 91.7886H63.07C63.4675 94.8965 65.0409 97.7629 67.4591 99.8402H24.8438ZM86.125 9.66196V90.1783C86.125 95.5085 81.6697 99.8402 76.1875 99.8402C70.7053 99.8402 66.25 95.5085 66.25 90.1783C66.25 89.2926 65.5047 88.5679 64.5938 88.5679H26.5V83.737H38.0938C42.665 83.737 46.375 80.1298 46.375 75.6853V30.5962C46.375 26.1517 42.665 22.5446 38.0938 22.5446H26.5V9.66196C26.5 6.10314 29.4647 3.22065 33.125 3.22065H88.6756C87.0359 4.99201 86.125 7.27867 86.125 9.66196Z" fill="#CACAFB"/>
<path d="M79.5 12.8826H33.125V16.1032H79.5V12.8826Z" fill="#CACAFB"/>
<path d="M79.5 37.0376H53V40.2583H79.5V37.0376Z" fill="#CACAFB"/>
<path d="M79.5 28.9858H53V32.2065H79.5V28.9858Z" fill="#CACAFB"/>
<path d="M79.5 20.9343H53V24.155H79.5V20.9343Z" fill="#CACAFB"/>
<path d="M79.5 45.0891H53V48.3098H79.5V45.0891Z" fill="#CACAFB"/>
<path d="M79.5 53.1409H53V56.3615H79.5V53.1409Z" fill="#CACAFB"/>
<path d="M34.7812 41.8685C37.5306 41.8685 39.75 39.7106 39.75 37.0375V33.8168C39.75 31.1437 37.5306 28.9858 34.7812 28.9858H11.5938C8.84438 28.9858 6.625 31.1437 6.625 33.8168V37.0375C6.625 39.7106 8.84438 41.8685 11.5938 41.8685H34.7812ZM9.9375 37.0375V33.8168C9.9375 32.9311 10.6828 32.2065 11.5938 32.2065H34.7812C35.6922 32.2065 36.4375 32.9311 36.4375 33.8168V37.0375C36.4375 37.9232 35.6922 38.6478 34.7812 38.6478H11.5938C10.6828 38.6478 9.9375 37.9232 9.9375 37.0375Z" fill="#CACAFB"/>
<path d="M14.9062 46.6995H8.28125V49.9201H14.9062V46.6995Z" fill="#CACAFB"/>
<path d="M26.5 46.6995H19.875V49.9201H26.5V46.6995Z" fill="#CACAFB"/>
<path d="M38.0938 46.6995H31.4688V49.9201H38.0938V46.6995Z" fill="#CACAFB"/>
<path d="M14.9062 54.751H8.28125V57.9716H14.9062V54.751Z" fill="#CACAFB"/>
<path d="M26.5 54.751H19.875V57.9716H26.5V54.751Z" fill="#CACAFB"/>
<path d="M38.0938 54.751H31.4688V57.9716H38.0938V54.751Z" fill="#CACAFB"/>
<path d="M14.9062 62.8027H8.28125V66.0234H14.9062V62.8027Z" fill="#CACAFB"/>
<path d="M26.5 62.8027H19.875V66.0234H26.5V62.8027Z" fill="#CACAFB"/>
<path d="M38.0938 62.8027H31.4688V66.0234H38.0938V62.8027Z" fill="#CACAFB"/>
<path d="M14.9062 70.8542H8.28125V74.0749H14.9062V70.8542Z" fill="#CACAFB"/>
<path d="M26.5 70.8542H19.875V74.0749H26.5V70.8542Z" fill="#CACAFB"/>
<path d="M38.0938 70.8542H31.4688V74.0749H38.0938V70.8542Z" fill="#CACAFB"/>
<path d="M72.0798 65.0894C72.6926 65.3148 73.3882 65.025 73.6367 64.413C73.8685 63.8172 73.5704 63.1409 72.9411 62.8993C67.5086 60.8703 61.4136 63.4951 59.3267 68.7609C59.2107 69.0669 59.0948 69.3728 59.012 69.6788H57.0079C56.3454 69.6788 55.8154 70.1941 55.8154 70.8382C55.8154 71.4824 56.3454 71.9977 57.0079 71.9977H58.6311C58.5979 72.5774 58.6311 73.1732 58.7139 73.7529H57.0079C56.3454 73.7529 55.8154 74.2682 55.8154 74.9124C55.8154 75.5565 56.3454 76.0718 57.0079 76.0718H59.3101C61.3804 81.3537 67.4754 84.0107 72.9079 81.9978C72.9079 81.9978 72.9245 81.9978 72.9411 81.9978C73.5539 81.7723 73.8685 81.096 73.6367 80.4841C73.4048 79.8722 72.7092 79.5823 72.0798 79.8078C68.2042 81.257 63.8482 79.6467 61.927 76.0718H69.9101C70.5726 76.0718 71.1026 75.5565 71.1026 74.9124C71.1026 74.2682 70.5726 73.7529 69.9101 73.7529H61.132C61.0492 73.3181 61.0161 72.8833 61.0161 72.4325C61.0161 72.2875 61.0161 72.1426 61.0161 71.9977H70.8045C71.467 71.9977 71.997 71.4824 71.997 70.8382C71.997 70.1941 71.467 69.6788 70.8045 69.6788H61.5129C63.0864 65.5886 67.7901 63.5112 71.997 65.0411C72.0136 65.0411 72.0467 65.0572 72.0632 65.0733L72.0798 65.0894Z" fill="#CACAFB"/>
</g>
<defs>
<clipPath id="clip0_1_11247">
<rect width="106" height="103.061" fill="white"/>
</clipPath>
</defs>
</svg>
