<svg width="109" height="118" viewBox="0 0 109 118" fill="none" xmlns="http://www.w3.org/2000/svg">
<g clip-path="url(#clip0_1_11351)">
<path d="M54.878 36.8322C43.1968 36.8322 33.6799 46.4139 33.6799 58.2079C33.6799 70.0019 43.182 79.5836 54.878 79.5836C66.5741 79.5836 76.0762 70.0019 76.0762 58.2079C76.0762 46.4139 66.5741 36.8322 54.878 36.8322ZM54.878 76.295C44.9905 76.295 36.9411 68.1782 36.9411 58.2079C36.9411 48.2375 44.9905 40.1207 54.878 40.1207C64.7655 40.1207 72.8149 48.2375 72.8149 58.2079C72.8149 68.1782 64.7655 76.295 54.878 76.295ZM60.9558 52.408C60.9558 53.3199 61.6822 54.0523 62.5864 54.0523C63.4907 54.0523 64.2171 53.3199 64.2171 52.408C64.2171 48.7458 60.8817 45.7113 56.5086 45.0984V43.8278C56.5086 42.916 55.7823 42.1836 54.878 42.1836C53.9738 42.1836 53.2474 42.916 53.2474 43.8278V45.0984C48.8743 45.7113 45.539 48.7607 45.539 52.408C45.539 56.0554 48.8743 59.1048 53.2474 59.7176V67.969C50.7125 67.4607 48.7854 65.8613 48.7854 63.9928C48.7854 63.081 48.059 62.3485 47.1548 62.3485C46.2505 62.3485 45.5241 63.081 45.5241 63.9928C45.5241 67.6551 48.8595 70.6895 53.2326 71.3024V72.573C53.2326 73.4848 53.9589 74.2173 54.8632 74.2173C55.7674 74.2173 56.4938 73.4848 56.4938 72.573V71.3024C60.8669 70.6895 64.2022 67.6401 64.2022 63.9928C64.2022 60.3455 60.8669 57.296 56.4938 56.6832V48.4319C59.0287 48.9401 60.9558 50.5395 60.9558 52.408ZM48.7854 52.408C48.7854 50.5395 50.7125 48.9251 53.2474 48.4319V56.3842C50.7125 55.876 48.7854 54.2765 48.7854 52.408ZM60.9558 63.9928C60.9558 65.8613 59.0287 67.4757 56.4938 67.969V60.0016C59.0287 60.5099 60.9558 62.1093 60.9558 63.9778V63.9928ZM107.369 79.0006H93.9834C93.0792 79.0006 92.3528 79.7331 92.3528 80.6449V82.0799C87.6091 78.9558 82.7766 76.1904 78.0033 76.3997C74.1639 76.579 70.6061 78.6867 67.4487 80.5403C65.9959 81.4073 64.6173 82.2145 63.3128 82.7974C59.7699 84.367 56.5235 84.2923 53.1436 84.0381C53.1288 84.0381 53.114 84.0232 53.0991 84.0232C52.7878 83.9783 52.4765 83.9634 52.1652 83.9634C52.1652 83.9634 52.1059 83.9634 52.0763 83.9634C52.0615 83.9634 52.0466 83.9634 52.0318 83.9634H39.7725C35.5773 83.9634 32.153 87.4164 32.153 91.6467C32.153 92.3792 32.2864 93.0817 32.4791 93.7544L12.2445 86.7736C7.90113 85.2788 2.99442 87.3716 1.31933 91.4524C0.518836 93.3956 0.563307 95.5182 1.42309 97.4316C2.32735 99.4645 4.12104 101.049 6.30015 101.796L35.8441 111.901C35.8441 111.901 35.8886 111.931 35.9183 111.946L40.7212 113.501C45.6724 115.1 54.7594 118.03 61.0299 118.03C61.2523 118.03 61.4598 118.03 61.6673 118.03C65.8625 117.881 68.4715 116.296 71.0064 114.741C72.3998 113.889 73.734 113.067 75.3498 112.484C79.5301 110.975 85.9489 110.87 92.3528 110.87V114.188C92.3528 115.1 93.0792 115.833 93.9834 115.833H107.369C108.274 115.833 109 115.1 109 114.188V80.6599C109 79.748 108.274 79.0156 107.369 79.0156V79.0006ZM74.2528 109.375C72.3257 110.078 70.7989 111.004 69.3165 111.916C66.9595 113.366 64.9138 114.607 61.5636 114.727C55.8564 114.921 46.3098 111.842 41.7144 110.362L38.0529 109.181C38.0529 109.181 37.9788 109.136 37.9343 109.121C37.7861 109.076 37.6378 109.031 37.4896 108.986L7.33782 98.6723C5.98885 98.2089 4.9067 97.2672 4.37304 96.0564C3.88386 94.9801 3.86903 93.7843 4.31375 92.6931C5.32177 90.2266 8.46444 88.9261 11.1772 89.8679L36.7632 98.6872C37.6823 99.0908 38.6903 99.3151 39.7576 99.3151H52.1652C52.4617 99.3151 52.7582 99.3001 53.0547 99.2553C53.9441 99.1506 54.5815 98.3285 54.4778 97.4316C54.374 96.5347 53.5587 95.892 52.6693 95.9966C52.5062 96.0115 52.3283 96.0265 52.1504 96.0265H39.7428C37.3414 96.0265 35.3846 94.0533 35.3846 91.6317C35.3846 89.2102 37.3414 87.237 39.7428 87.237H52.0318C53.4253 87.3417 54.8335 87.4463 56.2715 87.4463C58.9101 87.4463 61.6525 87.1025 64.6025 85.7871C66.0849 85.1293 67.5376 84.2773 69.0793 83.3655C72.0441 81.6165 75.0978 79.8078 78.1367 79.6733C82.4652 79.479 87.4609 82.7078 92.338 86.0113V107.581C85.6524 107.581 78.9075 107.686 74.2232 109.39L74.2528 109.375ZM105.739 112.529H95.614V82.2892H105.739V112.529ZM15.0018 38.9996C15.906 38.9996 16.6324 38.2672 16.6324 37.3553V35.9203C21.1982 38.9398 25.8677 41.6006 30.4483 41.6006C30.6261 41.6006 30.804 41.6006 30.9671 41.6006C34.8065 41.4212 38.3642 39.3135 41.5217 37.46C42.9744 36.593 44.3531 35.7858 45.6576 35.2028C49.2005 33.6333 52.4469 33.708 55.8267 33.9621C55.8416 33.9621 55.8564 33.9621 55.8712 33.9771C56.1825 34.0219 56.4938 34.0369 56.8051 34.0369C56.8051 34.0369 56.8644 34.0369 56.8941 34.0369C56.9089 34.0369 56.9237 34.0369 56.9385 34.0369H69.1979C73.393 34.0369 76.8174 30.5988 76.8174 26.3536C76.8174 25.6062 76.6839 24.9036 76.4764 24.216L96.711 31.2117C97.6597 31.5405 98.6529 31.705 99.6165 31.705C103.056 31.705 106.332 29.7318 107.636 26.5479C108.437 24.6046 108.392 22.482 107.532 20.5687C106.628 18.5357 104.834 16.9512 102.655 16.2038L73.1114 6.09894C73.1114 6.09894 73.0669 6.06905 73.0373 6.0541L68.2343 4.51445C63.1349 2.87016 53.5883 -0.209137 47.3178 0.000135884C43.1227 0.149616 40.5137 1.73411 37.9788 3.28871C36.5853 4.14075 35.2512 4.96289 33.6354 5.54587C29.4699 7.05562 23.0363 7.16026 16.6324 7.16026V3.84179C16.6324 2.92996 15.906 2.1975 15.0018 2.1975H1.63063C0.72637 2.1975 0 2.92996 0 3.84179V37.3703C0 38.2821 0.72637 39.0146 1.63063 39.0146H15.0166L15.0018 38.9996ZM17.1957 10.4488C23.7034 10.4488 30.1962 10.2993 34.7472 8.64011C36.6743 7.93756 38.2011 7.01078 39.6835 6.09894C42.0405 4.64898 44.0862 3.40829 47.4364 3.28871C53.1436 3.09438 62.6902 6.17368 67.2856 7.65354L70.9471 8.83444C70.9471 8.83444 71.0212 8.87928 71.0657 8.89423C71.2139 8.92413 71.3622 8.98392 71.5104 9.02876L101.662 19.3429C103.011 19.8063 104.093 20.748 104.627 21.9588C105.116 23.0351 105.131 24.2309 104.686 25.3221C103.678 27.7886 100.536 29.0891 97.8228 28.1473L71.7772 19.1486C71.7772 19.1486 71.6586 19.1486 71.5993 19.1337C70.8582 18.8795 70.0725 18.7151 69.2423 18.7151H56.8348C56.5383 18.7151 56.2418 18.7301 55.9453 18.76C55.0559 18.8646 54.4185 19.6867 54.5222 20.5836C54.626 21.4805 55.4413 22.1233 56.3307 22.0186C56.4938 22.0037 56.6717 21.9887 56.8496 21.9887H69.2572C71.6586 21.9887 73.6154 23.9619 73.6154 26.3835C73.6154 28.805 71.6586 30.7782 69.2572 30.7782H56.983C53.0547 30.4643 48.9781 30.1952 44.3827 32.2282C42.9003 32.8859 41.4476 33.7379 39.9059 34.6497C36.9411 36.3987 33.8874 38.2074 30.8485 38.3419C26.5199 38.5362 21.5243 35.3075 16.6472 32.0039V10.4488H17.2105H17.1957ZM3.24643 5.48607H13.386V35.726H3.24643V5.48607Z" fill="#E3E3FD"/>
</g>
<defs>
<clipPath id="clip0_1_11351">
<rect width="109" height="118" fill="white"/>
</clipPath>
</defs>
</svg>
