<svg width="118" height="112" viewBox="0 0 118 112" fill="none" xmlns="http://www.w3.org/2000/svg">
<g clip-path="url(#clip0_1_11282)">
<path fill-rule="evenodd" clip-rule="evenodd" d="M49.3007 26.4368H53.9132C54.9111 26.4368 55.8725 26.0388 56.5845 25.3223C57.2903 24.6119 57.6919 23.6444 57.6919 22.6339V17.2326C57.6919 16.2283 57.2964 15.2607 56.5845 14.5442C55.8786 13.8339 54.9172 13.4297 53.9132 13.4297H49.3007C48.3028 13.4297 47.3414 13.8277 46.6294 14.5442C45.9236 15.2546 45.522 16.2222 45.522 17.2326V22.6339C45.522 23.6382 45.9175 24.6058 46.6294 25.3223C47.3353 26.0327 48.2967 26.4368 49.3007 26.4368ZM48.7653 17.2326C48.7653 17.0857 48.82 16.9509 48.9235 16.8468C49.0269 16.7427 49.1608 16.6876 49.3068 16.6876H53.9193C54.0653 16.6876 54.1992 16.7427 54.3026 16.8468C54.406 16.9509 54.4608 17.0857 54.4608 17.2326V22.6339C54.4608 22.7748 54.406 22.9156 54.3026 23.0197C54.2052 23.1238 54.0653 23.1789 53.9193 23.1789H49.3068C49.1669 23.1789 49.0269 23.1238 48.9235 23.0197C48.82 22.9156 48.7653 22.7809 48.7653 22.6339V17.2326Z" fill="#E3E3FD"/>
<path fill-rule="evenodd" clip-rule="evenodd" d="M45.5278 40.9076C45.5278 41.9119 45.9234 42.8795 46.6353 43.596C47.3412 44.3064 48.3026 44.7105 49.3066 44.7105H53.919C54.917 44.7105 55.8784 44.3125 56.5903 43.596C57.2962 42.8856 57.6978 41.918 57.6978 40.9076V35.5063C57.6978 34.502 57.3023 33.5344 56.5903 32.8179C55.8845 32.1075 54.923 31.7034 53.919 31.7034H49.3066C48.3087 31.7034 47.3472 32.1014 46.6353 32.8179C45.9294 33.5283 45.5278 34.4959 45.5278 35.5063V40.9076ZM48.765 35.5063C48.765 35.3593 48.8198 35.2246 48.9233 35.1205C49.0267 35.0225 49.1606 34.9613 49.3066 34.9613H53.919C54.0651 34.9613 54.1989 35.0164 54.3024 35.1205C54.4058 35.2246 54.4606 35.3593 54.4606 35.5063V40.9076C54.4606 41.0484 54.4058 41.1893 54.3024 41.2934C54.205 41.3975 54.0651 41.4526 53.919 41.4526H49.3066C49.1667 41.4526 49.0267 41.3975 48.9233 41.2934C48.8198 41.1954 48.765 41.0546 48.765 40.9076V35.5063Z" fill="#E3E3FD"/>
<path fill-rule="evenodd" clip-rule="evenodd" d="M64.9878 26.4368H69.6002C70.6042 26.4368 71.5595 26.0388 72.2715 25.3223C72.9773 24.6119 73.379 23.6444 73.379 22.6339V17.2326C73.379 16.2283 72.9834 15.2607 72.2715 14.5442C71.5656 13.8339 70.6042 13.4297 69.6002 13.4297H64.9878C63.9898 13.4297 63.0284 13.8277 62.3165 14.5442C61.6106 15.2546 61.209 16.2222 61.209 17.2326V22.6339C61.209 23.6382 61.6045 24.6058 62.3165 25.3223C63.0223 26.0327 63.9837 26.4368 64.9878 26.4368ZM64.4462 17.2326C64.4462 17.0857 64.501 16.9509 64.6044 16.8468C64.7079 16.7427 64.8417 16.6876 64.9878 16.6876H69.6002C69.7462 16.6876 69.8801 16.7427 69.9835 16.8468C70.087 16.9509 70.1417 17.0857 70.1417 17.2326V22.6339C70.1417 22.7748 70.087 22.9156 69.9835 23.0197C69.8801 23.1238 69.7462 23.1789 69.6002 23.1789H64.9878C64.8417 23.1789 64.7079 23.1238 64.6044 23.0197C64.507 22.9156 64.4462 22.7809 64.4462 22.6339V17.2326Z" fill="#E3E3FD"/>
<path fill-rule="evenodd" clip-rule="evenodd" d="M61.2148 40.9076C61.2148 41.9119 61.6104 42.8795 62.3223 43.596C63.0282 44.3064 63.9896 44.7105 64.9936 44.7105H69.606C70.6101 44.7105 71.5654 44.3125 72.2773 43.596C72.9832 42.8856 73.3848 41.918 73.3848 40.9076V35.5063C73.3848 34.502 72.9893 33.5344 72.2773 32.8179C71.5715 32.1075 70.6101 31.7034 69.606 31.7034H64.9936C63.9957 31.7034 63.0343 32.1014 62.3223 32.8179C61.6165 33.5283 61.2148 34.4959 61.2148 35.5063V40.9076ZM64.446 35.5063C64.446 35.3593 64.5007 35.2246 64.6042 35.1205C64.7076 35.0225 64.8415 34.9613 64.9875 34.9613H69.5999C69.746 34.9613 69.8799 35.0164 69.9833 35.1205C70.0868 35.2246 70.1415 35.3593 70.1415 35.5063V40.9076C70.1415 41.0484 70.0868 41.1893 69.9833 41.2934C69.8799 41.3975 69.746 41.4526 69.5999 41.4526H64.9875C64.8415 41.4526 64.7076 41.3975 64.6042 41.2934C64.5068 41.1954 64.446 41.0546 64.446 40.9076V35.5063Z" fill="#E3E3FD"/>
<path fill-rule="evenodd" clip-rule="evenodd" d="M118 49.5545C118 47.5765 116.82 45.7944 115 45.0412C112.889 44.1593 109.396 42.708 105.97 41.2811V33.9753C105.97 31.9973 104.79 30.2152 102.97 29.462L82.4455 20.913C82.3664 20.8824 82.2873 20.8579 82.2082 20.8395V10.9372C82.2082 8.23653 80.0358 6.05029 77.3523 6.05029H41.5361C38.8587 6.05029 36.6803 8.23653 36.6803 10.9372V36.8045C36.6803 37.7047 37.4044 38.4335 38.2989 38.4335C39.1934 38.4335 39.9175 37.7047 39.9175 36.8045V10.9372C39.9175 10.037 40.6416 9.30821 41.5361 9.30821H77.3523C78.2468 9.30821 78.9709 10.037 78.9709 10.9372V43.5837C77.614 44.1471 76.4092 44.6492 75.4721 45.0412C73.6588 45.7944 72.4722 47.5765 72.4722 49.5545V88.5331H59.3347V85.6977C63.6185 84.724 67.0444 79.9535 67.0444 74.0317C67.0444 71.5209 66.4298 69.2 65.4136 67.3015C64.799 66.1625 64.5617 64.7479 64.7321 63.3639C64.7869 62.9107 64.8173 62.4575 64.8173 61.986C64.8173 56.9705 61.501 53.0941 57.7222 53.0941C53.9434 53.0941 50.6271 56.9705 50.6271 61.986C50.6271 62.4514 50.6575 62.9107 50.7123 63.3577C50.8827 64.7417 50.6514 66.1625 50.0308 67.3015C49.0024 69.2 48.3939 71.5209 48.3939 74.0317C48.3939 79.9474 51.8137 84.7179 56.1036 85.6977V88.5331H34.1124V83.4625C40.0392 82.4398 44.7916 75.9056 44.7916 67.8098C44.7916 64.4417 43.9762 61.3307 42.601 58.7832C41.6883 57.0991 41.3292 54.9925 41.5909 52.9471C41.5909 52.9471 41.5909 52.9471 41.5909 52.941C41.6639 52.347 41.7004 51.7407 41.7004 51.1222C41.7004 44.5635 37.4409 39.4255 32.4938 39.4255C27.5468 39.4255 23.2873 44.5574 23.2873 51.1222C23.2873 51.7468 23.3238 52.3531 23.4029 52.9471C23.6584 54.9986 23.3055 57.0991 22.3867 58.7893C21.0115 61.3307 20.1961 64.4478 20.1961 67.8159C20.1961 75.9117 24.9545 82.4459 30.8752 83.4686V88.5392H16.539C15.6445 88.5392 14.9204 89.268 14.9204 90.1682C14.9204 91.0684 15.6445 91.7971 16.539 91.7971H113.138C115.816 91.7971 117.994 89.6109 117.994 86.9103V49.5606L118 49.5545ZM54.2963 81.1171C52.6595 79.5248 51.6311 76.9344 51.6311 74.0378C51.6311 72.1088 52.0875 70.3206 52.8725 68.8631C53.7974 67.1546 54.1807 65.0296 53.9191 62.9536C53.9191 62.9536 53.9191 62.9536 53.9191 62.9474C53.8765 62.6351 53.8582 62.3167 53.8582 61.9921C53.8582 60.0753 54.5215 58.3545 55.6046 57.3012C56.2009 56.7256 56.919 56.3581 57.7161 56.3581C58.5132 56.3581 59.2313 56.7256 59.8215 57.3012C60.9046 58.3545 61.5679 60.0692 61.5679 61.9921C61.5679 62.3228 61.5496 62.6474 61.507 62.9658C61.2454 65.0357 61.6287 67.1546 62.5537 68.8631C63.3386 70.3206 63.795 72.1088 63.795 74.0378C63.795 76.9344 62.7727 79.5248 61.1298 81.1171C60.5882 81.6437 59.9797 82.0479 59.3225 82.3112V68.2324C59.3225 67.3322 58.5984 66.6034 57.7039 66.6034C56.8094 66.6034 56.0853 67.3322 56.0853 68.2324V82.3112C55.4281 82.0479 54.8196 81.6437 54.2781 81.1171H54.2963ZM23.4333 67.8098C23.4333 65.0235 24.0966 62.4453 25.2345 60.3387C26.4575 58.0789 26.9626 55.2742 26.6158 52.5307C26.6158 52.5307 26.6158 52.5307 26.6158 52.5246C26.5549 52.0653 26.5245 51.5937 26.5245 51.1161C26.5245 48.2685 27.5285 45.727 29.141 44.1654C30.0842 43.2469 31.2403 42.6773 32.4999 42.6773C33.7595 42.6773 34.9157 43.2469 35.8588 44.1654C37.4653 45.7332 38.4754 48.2685 38.4754 51.1161C38.4754 51.5999 38.445 52.0775 38.3902 52.5368C38.0494 55.2681 38.5484 58.0789 39.7715 60.3325C40.9033 62.4392 41.5666 65.0173 41.5666 67.8037C41.5666 73.8847 38.445 79.09 34.1185 80.1434V59.7569C34.1185 58.8567 33.3944 58.1279 32.4999 58.1279C31.6054 58.1279 30.8813 58.8567 30.8813 59.7569V80.1434C26.561 79.09 23.4333 73.8847 23.4333 67.8037V67.8098ZM82.2142 24.3363L101.741 32.4688C102.343 32.7199 102.739 33.3139 102.739 33.9753V39.9338C100.402 38.9601 98.3395 38.1028 97.0981 37.5823C95.9115 37.0862 94.5728 37.0862 93.3863 37.5823C91.2079 38.4886 86.5042 40.4482 82.2142 42.2364V24.3363ZM114.763 86.9041C114.763 87.8044 114.039 88.5331 113.144 88.5331H75.7155V49.5545C75.7155 48.8931 76.111 48.3052 76.7134 48.048L81.2102 46.1741C81.2102 46.1741 81.2224 46.1741 81.2346 46.1618L94.6215 40.5891C95.0171 40.4237 95.4613 40.4237 95.8568 40.5891C97.4815 41.2627 100.506 42.5242 103.719 43.8654C103.719 43.8654 103.731 43.8654 103.737 43.8715C107.473 45.427 111.453 47.0865 113.765 48.048C114.367 48.2991 114.763 48.8931 114.763 49.5545V86.9041Z" fill="#E3E3FD"/>
<path fill-rule="evenodd" clip-rule="evenodd" d="M89.7047 51.3367H85.0922C84.0943 51.3367 83.1329 51.7347 82.4209 52.4512C81.7151 53.1616 81.3135 54.1292 81.3135 55.1396V60.5409C81.3135 61.5513 81.709 62.5128 82.4209 63.2293C83.1268 63.9397 84.0882 64.3438 85.0922 64.3438H89.7047C90.7026 64.3438 91.664 63.9458 92.376 63.2293C93.0818 62.5189 93.4834 61.5513 93.4834 60.5409V55.1396C93.4834 54.1292 93.0879 53.1677 92.376 52.4512C91.6701 51.7408 90.7087 51.3367 89.7047 51.3367ZM90.2462 60.5348C90.2462 60.6817 90.1915 60.8165 90.088 60.9206C89.9846 61.0247 89.8507 61.0798 89.7047 61.0798H85.0922C84.9462 61.0798 84.8123 61.0247 84.7089 60.9206C84.6115 60.8165 84.5507 60.6817 84.5507 60.5348V55.1335C84.5507 54.9865 84.6055 54.8518 84.7089 54.7477C84.8123 54.6436 84.9462 54.5885 85.0922 54.5885H89.7047C89.8446 54.5885 89.9846 54.6436 90.088 54.7477C90.1915 54.8518 90.2462 54.9865 90.2462 55.1335V60.5348Z" fill="#E3E3FD"/>
<path fill-rule="evenodd" clip-rule="evenodd" d="M89.7047 69.6104H85.0922C84.0943 69.6104 83.1329 70.0084 82.4209 70.7249C81.7151 71.4353 81.3135 72.4028 81.3135 73.4133V78.8146C81.3135 79.8189 81.709 80.7865 82.4209 81.503C83.1268 82.2133 84.0882 82.6175 85.0922 82.6175H89.7047C90.7026 82.6175 91.664 82.2195 92.376 81.503C93.0818 80.7926 93.4834 79.825 93.4834 78.8146V73.4133C93.4834 72.4028 93.0879 71.4414 92.376 70.7249C91.6701 70.0145 90.7087 69.6104 89.7047 69.6104ZM90.2462 78.8146C90.2462 78.9554 90.1915 79.0963 90.088 79.2004C89.9846 79.3045 89.8507 79.3596 89.7047 79.3596H85.0922C84.9462 79.3596 84.8123 79.3045 84.7089 79.2004C84.6115 79.0963 84.5507 78.9615 84.5507 78.8146V73.4133C84.5507 73.2663 84.6055 73.1316 84.7089 73.0275C84.8123 72.9234 84.9462 72.8683 85.0922 72.8683H89.7047C89.8446 72.8683 89.9846 72.9234 90.088 73.0275C90.1915 73.1316 90.2462 73.2663 90.2462 73.4133V78.8146Z" fill="#E3E3FD"/>
<path fill-rule="evenodd" clip-rule="evenodd" d="M105.386 51.3367H100.773C99.7694 51.3367 98.814 51.7347 98.1021 52.4512C97.3962 53.1616 96.9946 54.1292 96.9946 55.1396V60.5409C96.9946 61.5513 97.3902 62.5128 98.1021 63.2293C98.808 63.9397 99.7694 64.3438 100.773 64.3438H105.386C106.384 64.3438 107.345 63.9458 108.057 63.2293C108.763 62.5189 109.165 61.5513 109.165 60.5409V55.1396C109.165 54.1292 108.769 53.1677 108.057 52.4512C107.351 51.7408 106.39 51.3367 105.386 51.3367ZM105.927 60.5348C105.927 60.6817 105.873 60.8165 105.769 60.9206C105.666 61.0247 105.532 61.0798 105.386 61.0798H100.773C100.627 61.0798 100.493 61.0247 100.39 60.9206C100.287 60.8165 100.232 60.6817 100.232 60.5348V55.1335C100.232 54.9865 100.287 54.8518 100.39 54.7477C100.493 54.6436 100.627 54.5885 100.773 54.5885H105.386C105.532 54.5885 105.666 54.6436 105.769 54.7477C105.867 54.8518 105.927 54.9865 105.927 55.1335V60.5348Z" fill="#E3E3FD"/>
<path fill-rule="evenodd" clip-rule="evenodd" d="M105.386 69.6104H100.773C99.7694 69.6104 98.814 70.0084 98.1021 70.7249C97.3962 71.4353 96.9946 72.4028 96.9946 73.4133V78.8146C96.9946 79.8189 97.3902 80.7865 98.1021 81.503C98.808 82.2133 99.7694 82.6175 100.773 82.6175H105.386C106.384 82.6175 107.345 82.2195 108.057 81.503C108.763 80.7926 109.165 79.825 109.165 78.8146V73.4133C109.165 72.4028 108.769 71.4414 108.057 70.7249C107.351 70.0145 106.39 69.6104 105.386 69.6104ZM105.927 78.8146C105.927 78.9554 105.873 79.0963 105.769 79.2004C105.666 79.3045 105.532 79.3596 105.386 79.3596H100.773C100.627 79.3596 100.493 79.3045 100.39 79.2004C100.287 79.0963 100.232 78.9615 100.232 78.8146V73.4133C100.232 73.2663 100.287 73.1316 100.39 73.0275C100.493 72.9234 100.627 72.8683 100.773 72.8683H105.386C105.532 72.8683 105.666 72.9234 105.769 73.0275C105.867 73.1316 105.927 73.2663 105.927 73.4133V78.8146Z" fill="#E3E3FD"/>
<path d="M5.81714 94.3631C4.97742 94.3631 4.2959 93.6773 4.2959 92.8322V4.24997C4.2959 3.40487 4.97742 2.71899 5.81714 2.71899C6.65687 2.71899 7.33839 3.40487 7.33839 4.24997V92.8322C7.33839 93.6773 6.65687 94.3631 5.81714 94.3631Z" fill="#E3E3FD"/>
<path d="M10.107 7.27519C9.79666 7.27519 9.48633 7.15271 9.24901 6.91388L5.81708 3.46L2.38515 6.91388C1.91052 7.39155 1.13773 7.39155 0.6631 6.91388C0.188472 6.43622 0.188472 5.65848 0.6631 5.18082L5.81708 0L10.9711 5.18694C11.4457 5.66461 11.4457 6.44234 10.9711 6.92001C10.7337 7.15884 10.4234 7.28132 10.1131 7.28132L10.107 7.27519Z" fill="#E3E3FD"/>
<path d="M5.81713 96.0534L0.450176 90.6521C-0.146152 90.052 -0.146152 89.0844 0.450176 88.4843C1.0465 87.8841 2.00793 87.8841 2.60426 88.4843L5.82322 91.7238L9.04217 88.4843C9.6385 87.8841 10.5999 87.8841 11.1963 88.4843C11.7926 89.0844 11.7926 90.052 11.1963 90.6521L5.8293 96.0534H5.81713Z" fill="#E3E3FD"/>
<path d="M112.852 107.983H13.2229C12.3832 107.983 11.7017 107.297 11.7017 106.452C11.7017 105.607 12.3832 104.921 13.2229 104.921H112.852C113.692 104.921 114.374 105.607 114.374 106.452C114.374 107.297 113.692 107.983 112.852 107.983Z" fill="#E3E3FD"/>
<path d="M110.704 112C110.394 112 110.084 111.877 109.846 111.639C109.372 111.161 109.372 110.383 109.846 109.906L113.278 106.452L109.846 102.998C109.372 102.52 109.372 101.742 109.846 101.265C110.321 100.787 111.094 100.787 111.568 101.265L116.722 106.452L111.568 111.639C111.331 111.877 111.021 112 110.71 112H110.704Z" fill="#E3E3FD"/>
<path d="M16.4719 112C16.1616 112 15.8513 111.877 15.6139 111.639L10.46 106.452L15.6139 101.265C16.0886 100.787 16.8614 100.787 17.336 101.265C17.8106 101.742 17.8106 102.52 17.336 102.998L13.9041 106.452L17.336 109.906C17.8106 110.383 17.8106 111.161 17.336 111.639C17.0987 111.877 16.7883 112 16.478 112H16.4719Z" fill="#E3E3FD"/>
</g>
<defs>
<clipPath id="clip0_1_11282">
<rect width="118" height="112" fill="white"/>
</clipPath>
</defs>
</svg>
