<svg width="178" height="73" viewBox="0 0 178 73" fill="none" xmlns="http://www.w3.org/2000/svg">
<g clip-path="url(#clip0_1_11305)">
<path d="M22.5103 10.0181V1.67902C22.5103 0.74623 23.2606 0 24.1985 0C25.1365 0 25.8868 0.74623 25.8868 1.67902V9.99949C25.8868 10.9323 25.1365 11.6785 24.1985 11.6785C23.2606 11.6785 22.5103 10.9323 22.5103 10.0181ZM40.7905 18.5252C41.2219 18.5252 41.6534 18.3666 41.9817 18.0401L47.9 12.1542C48.5659 11.492 48.5659 10.4379 47.9 9.77562C47.2341 9.11334 46.1742 9.11334 45.5083 9.77562L39.59 15.6615C38.924 16.3238 38.924 17.3778 39.59 18.0401C39.9182 18.3573 40.3497 18.5252 40.7811 18.5252H40.7905ZM6.41543 18.0215C6.74371 18.3479 7.17515 18.5065 7.6066 18.5065C8.03805 18.5065 8.4695 18.3479 8.79777 18.0215C9.4637 17.3592 9.4637 16.3051 8.79777 15.6429L2.87944 9.75696C2.21352 9.09468 1.15366 9.09468 0.487728 9.75696C-0.178201 10.4192 -0.178201 11.4733 0.487728 12.1356L6.40605 18.0215H6.41543ZM5.92771 33.3378C5.92771 23.3104 14.1252 15.1578 24.2079 15.1578C34.2907 15.1578 42.4881 23.3104 42.4881 33.3378C42.4881 39.4103 40.5185 41.8076 38.6145 44.1116C36.5229 46.6581 34.3469 49.2792 34.3469 58.3646V62.9072C34.3469 68.4667 29.798 72.9907 24.2079 72.9907C18.6179 72.9907 14.0689 68.4667 14.0689 62.9072V58.3646C14.0689 49.2792 11.9117 46.6487 9.80135 44.1116C7.88798 41.8076 5.92771 39.4103 5.92771 33.3378ZM17.4267 58.3832V61.2469H30.9704V58.3832C30.9704 57.609 30.9891 56.8908 31.0173 56.1912H17.3704C17.4173 56.8814 17.4267 57.609 17.4267 58.3832ZM30.7359 64.6049H17.6706C18.4209 67.4966 21.0565 69.6606 24.2079 69.6606C27.3594 69.6606 29.9668 67.4966 30.7359 64.6049ZM9.29487 33.3378C9.29487 38.207 10.6642 39.886 12.4088 41.9941C14.2659 44.2608 16.3293 46.7793 17.1078 52.8424H31.2987C32.0771 46.798 34.1406 44.2795 35.9977 41.9941C37.7422 39.886 39.1116 38.2163 39.1116 33.3378C39.1116 25.176 32.4242 18.5252 24.2173 18.5252C16.0104 18.5252 9.30425 25.176 9.30425 33.3378H9.29487ZM19.659 41.0893C19.9591 41.4158 20.3812 41.621 20.822 41.6303H20.897C21.3191 41.6303 21.7224 41.4718 22.0319 41.1826L34.1031 30.2037C34.7971 29.5694 34.8347 28.5153 34.2062 27.8437C33.5685 27.1535 32.5086 27.1161 31.8333 27.7411L21.0284 37.6007L15.7947 31.8547C15.1757 31.1645 14.1064 31.1085 13.4218 31.7428C12.7277 32.3584 12.6714 33.4218 13.3092 34.1027L19.659 41.08V41.0893Z" fill="#E3E3FD"/>
<path d="M87.6493 10.0181V1.67902C87.6493 0.74623 88.3997 0 89.3376 0C90.2755 0 91.0259 0.74623 91.0259 1.67902V9.99949C91.0259 10.9323 90.2755 11.6785 89.3376 11.6785C88.3997 11.6785 87.6493 10.9323 87.6493 10.0181ZM105.93 18.5252C106.361 18.5252 106.792 18.3666 107.121 18.0401L113.039 12.1542C113.705 11.492 113.705 10.4379 113.039 9.77562C112.373 9.11334 111.313 9.11334 110.647 9.77562L104.729 15.6615C104.063 16.3238 104.063 17.3778 104.729 18.0401C105.057 18.3573 105.489 18.5252 105.92 18.5252H105.93ZM71.5639 18.0215C71.8921 18.3479 72.3236 18.5065 72.755 18.5065C73.1865 18.5065 73.6179 18.3479 73.9462 18.0215C74.6121 17.3592 74.6121 16.3051 73.9462 15.6429L68.0279 9.75696C67.3619 9.09468 66.3021 9.09468 65.6362 9.75696C64.9702 10.4192 64.9702 11.4733 65.6362 12.1356L71.5545 18.0215H71.5639ZM71.0668 33.3378C71.0668 23.3104 79.2643 15.1578 89.347 15.1578C99.4297 15.1578 107.627 23.3104 107.627 33.3378C107.627 39.4103 105.658 41.8076 103.754 44.1116C101.662 46.6581 99.486 49.2792 99.486 58.3646V62.9072C99.486 68.4667 94.937 72.9907 89.347 72.9907C83.7569 72.9907 79.208 68.4667 79.208 62.9072V58.3646C79.208 49.2792 77.0507 46.6487 74.9404 44.1116C73.027 41.8076 71.0668 39.4103 71.0668 33.3378ZM82.5658 58.3832V61.2469H96.1094V58.3832C96.1094 57.609 96.1282 56.8908 96.1563 56.1912H82.5095C82.5564 56.8814 82.5658 57.609 82.5658 58.3832ZM95.875 64.6049H82.8096C83.56 67.4966 86.1955 69.6606 89.347 69.6606C92.4984 69.6606 95.1059 67.4966 95.875 64.6049ZM74.4433 33.3378C74.4433 38.207 75.8127 39.886 77.5572 41.9941C79.4143 44.2608 81.4778 46.7793 82.2562 52.8424H96.4471C97.2256 46.798 99.289 44.2795 101.146 41.9941C102.891 39.886 104.26 38.2163 104.26 33.3378C104.26 25.176 97.5726 18.5252 89.3657 18.5252C81.1589 18.5252 74.4527 25.176 74.4527 33.3378H74.4433ZM84.798 41.0893C85.0982 41.4158 85.5202 41.621 85.9611 41.6303H86.0361C86.4582 41.6303 86.8615 41.4718 87.171 41.1826L99.2421 30.2037C99.9362 29.5694 99.9737 28.5153 99.3453 27.8437C98.7075 27.1535 97.6476 27.1161 96.9723 27.7411L86.1674 37.6007L80.9338 31.8547C80.3147 31.1645 79.2455 31.1085 78.5608 31.7428C77.8667 32.3584 77.8105 33.4218 78.4483 34.1027L84.798 41.08V41.0893Z" fill="#E3E3FD"/>
<path d="M49.0161 52.8425H66.2552" stroke="#E3E3FD" stroke-width="4" stroke-miterlimit="10" stroke-linecap="round"/>
<path d="M57.6357 44.2607V61.4147" stroke="#E3E3FD" stroke-width="4" stroke-miterlimit="10" stroke-linecap="round"/>
<path d="M152.104 10.0181V1.67902C152.104 0.74623 152.854 0 153.792 0C154.73 0 155.48 0.74623 155.48 1.67902V9.99949C155.48 10.9323 154.73 11.6785 153.792 11.6785C152.854 11.6785 152.104 10.9323 152.104 10.0181ZM170.384 18.5252C170.815 18.5252 171.247 18.3666 171.575 18.0401L177.494 12.1542C178.159 11.492 178.159 10.4379 177.494 9.77562C176.828 9.11334 175.768 9.11334 175.102 9.77562L169.183 15.6615C168.518 16.3238 168.518 17.3778 169.183 18.0401C169.512 18.3573 169.943 18.5252 170.375 18.5252H170.384ZM136.009 18.0215C136.337 18.3479 136.769 18.5065 137.2 18.5065C137.632 18.5065 138.063 18.3479 138.391 18.0215C139.057 17.3592 139.057 16.3051 138.391 15.6429L132.473 9.75696C131.807 9.09468 130.747 9.09468 130.081 9.75696C129.415 10.4192 129.415 11.4733 130.081 12.1356L136 18.0215H136.009ZM135.521 33.3378C135.521 23.3104 143.719 15.1578 153.801 15.1578C163.884 15.1578 172.082 23.3104 172.082 33.3378C172.082 39.4103 170.112 41.8076 168.208 44.1116C166.116 46.6581 163.94 49.2792 163.94 58.3646V62.9072C163.94 68.4667 159.391 72.9907 153.801 72.9907C148.211 72.9907 143.662 68.4667 143.662 62.9072V58.3646C143.662 49.2792 141.505 46.6487 139.395 44.1116C137.481 41.8076 135.521 39.4103 135.521 33.3378ZM147.011 58.3832V61.2469H160.555V58.3832C160.555 57.609 160.573 56.8908 160.601 56.1912H146.955C147.001 56.8814 147.011 57.609 147.011 58.3832ZM160.329 64.6049H147.264C148.014 67.4966 150.65 69.6606 153.801 69.6606C156.953 69.6606 159.56 67.4966 160.329 64.6049ZM138.888 33.3378C138.888 38.207 140.258 39.886 142.002 41.9941C143.859 44.2608 145.923 46.7793 146.701 52.8424H160.892C161.671 46.798 163.734 44.2795 165.591 41.9941C167.336 39.886 168.705 38.2163 168.705 33.3378C168.705 25.176 162.018 18.5252 153.811 18.5252C145.604 18.5252 138.898 25.176 138.898 33.3378H138.888ZM149.252 41.0893C149.553 41.4158 149.975 41.621 150.416 41.6303H150.491C150.913 41.6303 151.316 41.4718 151.625 41.1826L163.697 30.2037C164.391 29.5694 164.428 28.5153 163.8 27.8437C163.162 27.1535 162.102 27.1161 161.427 27.7411L150.622 37.6007L145.388 31.8547C144.769 31.1645 143.7 31.1085 143.015 31.7428C142.321 32.3584 142.265 33.4218 142.903 34.1027L149.252 41.08V41.0893Z" fill="#E3E3FD"/>
<path d="M113.461 52.8425H130.71" stroke="#E3E3FD" stroke-width="4" stroke-miterlimit="10" stroke-linecap="round"/>
<path d="M122.09 44.2607V61.4147" stroke="#E3E3FD" stroke-width="4" stroke-miterlimit="10" stroke-linecap="round"/>
</g>
<defs>
<clipPath id="clip0_1_11305">
<rect width="178" height="73" fill="white"/>
</clipPath>
</defs>
</svg>
