<svg width="85" height="100" viewBox="0 0 85 100" fill="none" xmlns="http://www.w3.org/2000/svg">
    <path d="M84.9978 11.0894C84.9467 37.3746 84.8979 63.662 84.8468 89.9472C84.8446 89.9696 84.8424 89.9941 84.8402 90.0164C84.4318 91.8625 83.3974 95.1641 80.5097 97.4634C77.5864 99.7894 74.2081 99.9903 72.5877 99.9903C64.0288 99.9948 55.4699 99.9903 46.9109 99.9903C37.5773 99.9903 28.2437 100.019 18.9101 99.9769C12.997 99.9501 8.17591 95.7847 7.27473 89.9651C7.06164 88.5878 7.08162 87.1725 6.99506 85.7818C2.92201 85.2818 0.236241 82.7079 0.0164959 79.105C-0.090047 77.375 0.360541 75.7968 1.38158 74.3993C2.77773 72.484 4.73768 71.609 7.00837 71.4259V57.271C2.83988 56.7843 0.105282 54.0498 0.00317805 50.3442C-0.103365 46.3863 2.47364 43.6317 7.02613 42.8861V28.8071C2.59128 28.0548 0.040912 25.4586 0.00095841 21.6905C-0.0412148 17.8264 2.40261 15.2637 7.08384 14.3396C7.08384 13.5851 7.06165 12.8127 7.08828 12.0403C7.23478 7.43734 9.28351 3.93488 13.2678 1.69143C13.6917 1.45257 14.2311 1.23381 14.2311 1.23381C14.9392 0.876641 17.0523 0.258296 17.2676 0.209186C19.1143 -0.212717 68.952 0.128823 73.6665 0.160075L75.4245 0.425718C76.5964 0.653412 78.9071 1.27845 81.0246 3.17813C81.4042 3.51967 83.3952 5.33452 84.434 8.46866C84.7825 9.5223 84.9312 10.4398 85 11.0894H84.9978ZM11.845 42.8861C16.191 43.6138 18.6837 46.0627 18.8546 49.6879C18.9367 51.4268 18.4906 52.9939 17.4562 54.3802C16.0645 56.2464 14.1223 57.0969 11.8716 57.2821V71.4125C16.2066 72.042 18.8013 74.6918 18.8591 78.471C18.919 82.4066 16.4374 85.0295 11.785 85.8421C11.785 86.4046 11.7828 86.9917 11.785 87.5766C11.8095 92.2353 14.7771 95.2556 19.3984 95.2579C37.1778 95.269 54.9571 95.269 72.7342 95.2579C77.2867 95.2556 80.2966 92.2264 80.2988 87.6435C80.3099 62.6307 80.3055 37.6201 80.2921 12.6073C80.2921 11.7992 80.2078 10.9666 79.9991 10.1898C79.1113 6.88373 76.3389 4.94834 72.5589 4.94611C54.8905 4.94164 37.2222 4.94611 19.5538 4.94611C19.2586 4.94611 18.9634 4.94611 18.6682 4.96173C14.4997 5.16264 10.8617 8.741 11.9626 14.411C16.1511 15.0026 18.7569 17.6255 18.8546 21.3512C18.9589 25.3425 16.5218 27.9588 11.8428 28.8204V42.8883L11.845 42.8861ZM9.339 23.9674C9.339 23.9674 9.339 23.9719 9.339 23.9764C10.1492 23.9764 10.9638 24.0188 11.7695 23.9674C13.2123 23.8737 14.1756 22.8714 14.1556 21.5566C14.1379 20.2819 13.2056 19.2863 11.8117 19.2261C10.2313 19.1569 8.64203 19.1569 7.05943 19.2261C5.68547 19.2863 4.73324 20.311 4.71992 21.5677C4.7066 22.8245 5.64773 23.8424 7.01725 23.9563C7.78525 24.021 8.56434 23.9674 9.33678 23.9674H9.339ZM9.4522 47.7145C8.67755 47.7145 7.90289 47.6744 7.13045 47.7235C5.69656 47.8128 4.70882 48.8218 4.72214 50.121C4.73546 51.38 5.68325 52.4046 7.05943 52.4649C8.63981 52.5363 10.2291 52.5363 11.8117 52.4649C13.2056 52.4046 14.1356 51.409 14.1556 50.1343C14.1778 48.8218 13.2123 47.8195 11.7717 47.7235C11.0015 47.6721 10.2246 47.7145 9.44998 47.7123L9.4522 47.7145ZM9.41225 80.9935C9.41225 80.9935 9.41225 80.9913 9.41225 80.9891C10.2224 80.9891 11.037 81.0404 11.8428 80.9779C13.2278 80.8708 14.1534 79.8863 14.1578 78.6139C14.1601 77.3415 13.2323 76.3146 11.8516 76.2499C10.2712 76.174 8.68198 76.1807 7.09938 76.241C5.71432 76.2946 4.75987 77.2879 4.72214 78.5492C4.68441 79.8394 5.66993 80.8841 7.0905 80.9846C7.86072 81.0382 8.63759 80.9935 9.41225 80.9935Z" fill="#E3E3FD"/>
    <path d="M23.6154 37.6828C23.5022 29.9814 27.9215 26.3517 34.4073 25.2087C36.3495 24.8672 38.3916 25.903 39.3149 27.7223C40.7733 30.5908 42.1916 33.4838 43.5123 36.4193C44.4223 38.4418 44.0117 40.3504 42.4691 41.9465C41.6722 42.7679 40.8199 43.5425 39.9364 44.2703C39.437 44.681 39.3371 45.1029 39.6523 45.6052C40.8643 47.5383 41.9319 49.5987 43.3636 51.3511C45.8074 54.3424 48.6574 56.914 52.1822 58.6395C53.241 59.1574 53.9801 59.1418 54.6949 58.1038C55.2143 57.3493 55.8912 56.6907 56.5571 56.0523C58.1198 54.55 59.9643 54.0968 61.9464 55.0076C64.8941 56.3581 67.8085 57.7845 70.6896 59.2757C72.5408 60.2334 73.513 62.2759 73.0846 64.3386C72.7628 65.8855 72.3321 67.4481 71.6707 68.8746C69.7352 73.0422 66.2326 74.8459 61.8133 75.0335C56.3241 75.2656 51.321 73.5401 46.7019 70.7653C37.2462 65.0886 29.9259 57.4073 25.5887 47.0896C24.3301 44.0984 23.6154 40.9598 23.6176 37.685L23.6154 37.6828ZM39.204 38.5288C37.9299 35.8188 36.7091 33.2048 35.455 30.6087C35.3396 30.3698 35.0022 30.093 34.7602 30.0841C31.9879 29.9992 29.0424 32.4257 28.5652 35.1759C27.8838 39.1025 28.8338 42.8014 30.4297 46.3083C34.5116 55.271 41.0529 61.9969 49.5009 66.87C52.7904 68.7674 56.333 69.9818 60.1596 70.2541C64.7321 70.58 67.2603 68.7696 68.3102 64.3988C68.4566 63.7849 68.3523 63.4747 67.7663 63.1889C65.4446 62.0594 63.1406 60.8964 60.8566 59.6932C60.244 59.3695 59.8866 59.4744 59.4493 59.9744C58.5504 61.0057 57.5604 61.9567 56.6526 62.9813C55.8935 63.8363 54.9546 64.2604 53.8847 63.9591C52.1978 63.4836 50.422 63.0885 48.9149 62.2424C44.0605 59.5235 40.2539 55.6148 37.1419 51.0118C35.91 49.188 34.9977 47.2147 34.6226 45.0136C34.394 43.6653 34.6781 42.5492 35.7746 41.6339C36.9355 40.6651 38.0209 39.6048 39.2062 38.5221L39.204 38.5288Z" fill="#E3E3FD"/>
</svg>
