<svg width="86" height="123" viewBox="0 0 86 123" fill="none" xmlns="http://www.w3.org/2000/svg">
<g clip-path="url(#clip0_1_11364)">
<path d="M22.8183 0H19.1579C16.8157 0 14.9083 1.87955 14.9083 4.18753V15.2437H6.5075C2.91716 15.2437 0 18.1183 0 21.6563V116.587C0 120.125 2.91716 123 6.5075 123H79.4925C83.0828 123 86 120.125 86 116.587V21.6563C86 18.1183 83.0828 15.2437 79.4925 15.2437H71.0917V4.18753C71.0917 1.87955 69.1843 0.0138202 66.8421 0H63.1817C60.8395 0 58.9322 1.87955 58.9322 4.18753V15.2437H27.0678V4.18753C27.0678 1.87955 25.1605 0 22.8183 0ZM43 18.0078H58.9322V21.0897C58.9322 23.3976 60.8395 25.2772 63.1817 25.2772H69.6892C70.4605 25.2772 71.0917 24.6553 71.0917 23.8952C71.0917 23.1351 70.4605 22.5131 69.6892 22.5131H63.1817C62.3823 22.5131 61.7371 21.8774 61.7371 21.0897V4.18753C61.7371 3.39978 62.3823 2.76405 63.1817 2.76405H66.8421C67.6416 2.76405 68.2867 3.39978 68.2867 4.18753V16.6119C68.2867 17.3858 68.9178 18.0078 69.6892 18.0078H79.4925C81.5401 18.0078 83.195 19.6385 83.195 21.6563V116.587C83.195 118.605 81.5401 120.236 79.4925 120.236H6.5075C4.45988 120.236 2.80496 118.605 2.80496 116.587V21.6563C2.80496 19.6385 4.45988 18.0078 6.5075 18.0078H16.3108C17.0822 18.0078 17.7133 17.3858 17.7133 16.6257V4.18753C17.7133 3.39978 18.3584 2.76405 19.1579 2.76405H22.8183C23.6177 2.76405 24.2629 3.39978 24.2629 4.18753V21.0897C24.2629 21.8774 23.6177 22.5131 22.8183 22.5131H16.3108C15.5395 22.5131 14.9083 23.1351 14.9083 23.8952C14.9083 24.6553 15.5395 25.2772 16.3108 25.2772H22.8183C25.1605 25.2772 27.0678 23.3976 27.0678 21.0897V18.0078H43Z" fill="#C4C4C4"/>
<path d="M10.0837 31.3029V50.5683C10.0837 51.3284 10.7149 51.9503 11.4862 51.9503H31.0368C31.8081 51.9503 32.4393 51.3284 32.4393 50.5683V40.3552L40.5456 32.3671C41.0785 31.8143 41.0645 30.9436 40.5175 30.4184C39.9706 29.9071 39.1151 29.9071 38.5681 30.4184L32.4393 36.4579V31.3029C32.4393 30.5428 31.8081 29.9209 31.0368 29.9209H11.4862C10.7149 29.9209 10.0837 30.5428 10.0837 31.3029ZM12.8887 32.6849H29.6343V39.2219L25.4269 43.368L21.9768 39.9682C21.4017 39.4569 20.5042 39.5121 19.9993 40.0926C19.5364 40.6178 19.5364 41.4055 19.9993 41.9169L24.4451 46.2979C24.9921 46.8369 25.8757 46.8369 26.4226 46.2979L29.6343 43.133V49.2001H12.8887V32.6988V32.6849Z" fill="#C4C4C4"/>
<path d="M46.3239 36.2089H68.5111C69.2824 36.2089 69.9136 35.587 69.9136 34.8268C69.9136 34.0667 69.2824 33.4448 68.5111 33.4448H46.3239C45.5525 33.4448 44.9214 34.0667 44.9214 34.8268C44.9214 35.587 45.5525 36.2089 46.3239 36.2089Z" fill="#C4C4C4"/>
<path d="M46.3239 42.3175H73.1252C73.8966 42.3175 74.5277 41.6956 74.5277 40.9355C74.5277 40.1754 73.8966 39.5535 73.1252 39.5535H46.3239C45.5525 39.5535 44.9214 40.1754 44.9214 40.9355C44.9214 41.6956 45.5525 42.3175 46.3239 42.3175Z" fill="#C4C4C4"/>
<path d="M46.3239 48.4262H73.1252C73.8966 48.4262 74.5277 47.8042 74.5277 47.0441C74.5277 46.284 73.8966 45.6621 73.1252 45.6621H46.3239C45.5525 45.6621 44.9214 46.284 44.9214 47.0441C44.9214 47.8042 45.5525 48.4262 46.3239 48.4262Z" fill="#C4C4C4"/>
<path d="M38.5681 61.7627L32.4393 67.8021V62.6472C32.4393 61.887 31.8081 61.2651 31.0368 61.2651H11.4862C10.7149 61.2651 10.0837 61.887 10.0837 62.6472V81.9126C10.0837 82.6727 10.7149 83.2946 11.4862 83.2946H31.0368C31.8081 83.2946 32.4393 82.6727 32.4393 81.9126V71.6994L40.5456 63.7113C41.0785 63.1585 41.0645 62.2878 40.5175 61.7627C39.9706 61.2513 39.1151 61.2513 38.5681 61.7627ZM29.6343 80.5305H12.8887V64.0292H29.6343V70.5661L25.4269 74.7122L21.9768 71.3124C21.4578 70.7458 20.5743 70.6905 19.9993 71.1881C19.4242 71.6856 19.3681 72.5701 19.873 73.1367C19.9151 73.1782 19.9572 73.2196 19.9993 73.2611L24.4451 77.6421C24.9921 78.1811 25.8757 78.1811 26.4226 77.6421L29.6343 74.4773V80.5443V80.5305Z" fill="#C4C4C4"/>
<path d="M46.3239 67.5394H68.5111C69.2824 67.5394 69.9136 66.9175 69.9136 66.1574C69.9136 65.3973 69.2824 64.7754 68.5111 64.7754H46.3239C45.5525 64.7754 44.9214 65.3973 44.9214 66.1574C44.9214 66.9175 45.5525 67.5394 46.3239 67.5394Z" fill="#C4C4C4"/>
<path d="M46.3239 73.6618H73.1252C73.8966 73.6618 74.5277 73.0398 74.5277 72.2797C74.5277 71.5196 73.8966 70.8977 73.1252 70.8977H46.3239C45.5525 70.8977 44.9214 71.5196 44.9214 72.2797C44.9214 73.0398 45.5525 73.6618 46.3239 73.6618Z" fill="#C4C4C4"/>
<path d="M46.3239 79.7704H73.1252C73.8966 79.7704 74.5277 79.1485 74.5277 78.3884C74.5277 77.6283 73.8966 77.0063 73.1252 77.0063H46.3239C45.5525 77.0063 44.9214 77.6283 44.9214 78.3884C44.9214 79.1485 45.5525 79.7704 46.3239 79.7704Z" fill="#C4C4C4"/>
<path d="M38.5681 93.093L32.4393 99.1324V93.9775C32.4393 93.2174 31.8081 92.5955 31.0368 92.5955H11.4862C10.7149 92.5955 10.0837 93.2174 10.0837 93.9775V113.257C10.0837 114.017 10.7149 114.639 11.4862 114.639H31.0368C31.8081 114.639 32.4393 114.017 32.4393 113.257V103.044L40.5456 95.0555C41.0785 94.5026 41.0645 93.632 40.5175 93.1068C39.9706 92.5955 39.1151 92.5955 38.5681 93.1068V93.093ZM29.6343 111.875H12.8887V95.3595H29.6343V101.896L25.4269 106.043L21.9768 102.643C21.4438 102.09 20.5603 102.062 19.9993 102.587C19.4383 103.113 19.4102 103.983 19.9432 104.536C19.9572 104.564 19.9852 104.578 19.9993 104.591L24.4451 108.972C24.9921 109.511 25.8757 109.511 26.4226 108.972L29.6343 105.808V111.875Z" fill="#C4C4C4"/>
<path d="M46.3239 98.8837H68.5111C69.2824 98.8837 69.9136 98.2618 69.9136 97.5017C69.9136 96.7415 69.2824 96.1196 68.5111 96.1196H46.3239C45.5525 96.1196 44.9214 96.7415 44.9214 97.5017C44.9214 98.2618 45.5525 98.8837 46.3239 98.8837Z" fill="#C4C4C4"/>
<path d="M46.3239 105.006H73.1252C73.8966 105.006 74.5277 104.384 74.5277 103.624C74.5277 102.864 73.8966 102.242 73.1252 102.242H46.3239C45.5525 102.242 44.9214 102.864 44.9214 103.624C44.9214 104.384 45.5525 105.006 46.3239 105.006Z" fill="#C4C4C4"/>
<path d="M46.3239 111.115H73.1252C73.8966 111.115 74.5277 110.493 74.5277 109.733C74.5277 108.972 73.8966 108.351 73.1252 108.351H46.3239C45.5525 108.351 44.9214 108.972 44.9214 109.733C44.9214 110.493 45.5525 111.115 46.3239 111.115Z" fill="#C4C4C4"/>
</g>
<defs>
<clipPath id="clip0_1_11364">
<rect width="86" height="123" fill="white"/>
</clipPath>
</defs>
</svg>
