<?xml version="1.0" encoding="UTF-8"?><svg id="Calque_1" xmlns="http://www.w3.org/2000/svg" viewBox="0 0 50 50"><defs><style>.cls-1{fill:#adadf9;}.cls-1,.cls-2,.cls-3{stroke-width:0px;}.cls-2{fill:#fff;}.cls-3{fill:#000091;}</style></defs><path class="cls-1" d="M25,50c-1.29,0-2.4-.91-3.48-1.78-.81-.66-1.57-1.28-2.34-1.49-.83-.22-1.87-.05-2.88.11-1.34.21-2.73.44-3.8-.18-1.09-.63-1.59-1.96-2.08-3.24-.36-.95-.73-1.93-1.32-2.52-.59-.59-1.57-.96-2.52-1.32-1.28-.48-2.6-.99-3.24-2.08-.62-1.07-.4-2.46-.18-3.8.16-1.01.33-2.06.11-2.88-.21-.78-.83-1.54-1.49-2.34C.91,27.4,0,26.3,0,25s.91-2.4,1.78-3.48c.66-.81,1.28-1.57,1.49-2.34.22-.83.05-1.87-.11-2.88-.21-1.34-.44-2.73.18-3.8.63-1.09,1.96-1.59,3.24-2.08.95-.36,1.93-.73,2.52-1.32.59-.59.96-1.57,1.32-2.52.48-1.28.99-2.6,2.08-3.24,1.07-.62,2.46-.4,3.8-.18,1.01.16,2.06.33,2.88.11.78-.21,1.54-.83,2.34-1.49C22.59.91,23.7,0,25,0s2.4.91,3.48,1.78c.81.66,1.57,1.28,2.35,1.49.83.22,1.87.05,2.88-.11,1.34-.21,2.73-.44,3.8.18,1.09.63,1.59,1.96,2.08,3.24.36.95.73,1.93,1.32,2.52.59.59,1.57.96,2.52,1.32,1.28.48,2.6.99,3.24,2.08.62,1.07.4,2.46.18,3.8-.16,1.01-.33,2.06-.11,2.88.21.78.83,1.54,1.49,2.34.88,1.07,1.78,2.18,1.78,3.48s-.91,2.4-1.78,3.48c-.66.81-1.28,1.57-1.49,2.34-.22.83-.05,1.87.11,2.88.21,1.34.44,2.73-.18,3.8-.63,1.09-1.96,1.59-3.24,2.08-.95.36-1.93.73-2.52,1.32-.59.59-.96,1.57-1.32,2.52-.48,1.28-.99,2.6-2.08,3.24-1.07.62-2.46.4-3.8.18-1.01-.16-2.06-.33-2.88-.11-.78.21-1.54.83-2.34,1.49-1.07.88-2.18,1.78-3.48,1.78h0ZM37.16,46.06l-15.2,1.63,15.2-1.63Z"/><path class="cls-2" d="M26.72,15.95c.73,0,1.32-.59,1.32-1.32s-.59-1.32-1.32-1.32-1.32.59-1.32,1.32.59,1.32,1.32,1.32Z"/><path class="cls-2" d="M26.08,33.77c4.47-.47,7.69-3.76,7.67-7.81-.01-2.04-.81-3.95-2.2-5.37-.34-.35-.39-.88-.14-1.29.48-.81.74-1.73.74-2.69,0-2.89-2.35-5.25-5.25-5.25-1.89,0-3.63,1.03-4.56,2.66-.07.13-.17.23-.3.31-.56.33-2.21,1.32-3.14,1.88-.31.18-.31.63-.01.82l3.33,2.14c.1.06.18.15.25.25v.02c.25.37.14.85-.22,1.1-.52.36-.9.74-.97.82l-10.95,13.05c-.39.46-.06,1.17.55,1.18h5.04c.4.01.76-.19.97-.53l1.52-2.52c.12-.2.34-.34.58-.35h0c.15-.01.31.03.44.11.82.49,1.67.86,2.55,1.12.23.07.33.34.21.54l-.16.26c-.15.25-.42.4-.71.4h-2.24c-.27-.01-.49.21-.49.48h0c0,.27.22.49.49.49h2.61c.41.01.79-.2,1-.55l.62-1.02c.1-.17.29-.26.49-.24.11.01.22.02.33.03.2.01.31.23.21.41l-.11.19c-.32.53.06,1.2.68,1.2h2.64c.27-.01.49-.23.49-.51h0c0-.27-.22-.49-.49-.49h-1.83c-.2,0-.33-.21-.22-.39l.1-.16c.09-.15.25-.25.43-.27.02,0,.05,0,.07,0Z"/><path class="cls-3" d="M26.72,15.95c.73,0,1.32-.59,1.32-1.32s-.59-1.32-1.32-1.32-1.32.59-1.32,1.32.59,1.32,1.32,1.32Z"/><path class="cls-3" d="M26.08,33.77c4.47-.47,7.69-3.76,7.67-7.81-.01-2.04-.81-3.95-2.2-5.37-.34-.35-.39-.88-.14-1.29.48-.81.74-1.73.74-2.69,0-2.89-2.35-5.25-5.25-5.25-1.89,0-3.63,1.03-4.56,2.66-.07.13-.17.23-.3.31-.56.33-2.21,1.32-3.14,1.88-.31.18-.31.63-.01.82l3.33,2.14c.1.06.18.15.25.25v.02c.25.37.14.85-.22,1.1-.52.36-.9.74-.97.82l-10.95,13.05c-.39.46-.06,1.17.55,1.18h5.04c.4.01.76-.19.97-.53l1.52-2.52c.12-.2.34-.34.58-.35h0c.15-.01.31.03.44.11.82.49,1.67.86,2.55,1.12.23.07.33.34.21.54l-.16.26c-.15.25-.42.4-.71.4h-2.24c-.27-.01-.49.21-.49.48h0c0,.27.22.49.49.49h2.61c.41.01.79-.2,1-.55l.62-1.02c.1-.17.29-.26.49-.24.11.01.22.02.33.03.2.01.31.23.21.41l-.11.19c-.32.53.06,1.2.68,1.2h2.64c.27-.01.49-.23.49-.51h0c0-.27-.22-.49-.49-.49h-1.83c-.2,0-.33-.21-.22-.39l.1-.16c.09-.15.25-.25.43-.27.02,0,.05,0,.07,0ZM26.91,12.34c2.35,0,4.26,1.91,4.26,4.26,0,1.09-.41,2.12-1.15,2.91-.4.43-1.16.87-2.17,1.25h0c-.3.07-.61.11-.93.11-1.17,0-2.26-.47-3.07-1.32h0c-.07-.07-.14-.15-.21-.23-.27-.32-.24-.79.06-1.08l1.13-1.13c.28-.28.27-.74-.02-1.01l-1.14-1.06c-.31-.29-.36-.77-.09-1.1.8-1,2.02-1.6,3.33-1.6ZM24.42,22.29h0c.2.22.19.56-.04.74-1.09.88-2.13,1.22-3.68,1.34-.25,0-.42-.21-.28-.41.1-.15.26-.36.26-.36.11-.13.27-.22.44-.24.99-.16,1.89-.53,2.61-1.1.2-.16.5-.15.68.04ZM25.01,24.22h0c.21.2.21.55-.01.74-1.45,1.27-3.58,1.99-5.86,1.99-.06,0-.13,0-.19,0-.43,0-.65-.51-.38-.84h0c.1-.12.25-.18.4-.18,2.09.04,4.04-.58,5.34-1.73.2-.17.5-.17.69.01ZM17.38,28.43c3.01.36,5.91-.44,7.71-2.09.2-.18.49-.18.69,0h0c.21.2.22.54,0,.74-1.71,1.56-4.26,2.45-6.99,2.45-.5,0-1.02-.03-1.53-.09-.14-.02-.27-.04-.41-.06-.39-.06-.58-.52-.32-.83h0c.12-.14.29-.2.47-.17.12.02.25.04.38.05ZM20.65,16.7s-.47-.09.01-.4c.21-.12,1.24-.74,1.24-.74.32-.19.72-.15.99.11l.56.53c.18.16.11.47-.12.53-.03,0-.06.01-.09.02-1.21.2-1.21.19-2.59-.04ZM15.36,34.6h-3.38c-.21,0-.32-.25-.19-.41l1.87-2.23c.16-.19.41-.26.64-.2.81.21,1.65.34,2.51.41.28.02.45.34.3.58l-.79,1.31c-.2.34-.57.54-.97.54ZM21.55,32.22c-.22-.08-.2-.4.03-.46,4.58-1.16,7.97-4.42,7.97-8.15,0-.58-.08-1.15-.23-1.7-.1-.35.05-.73.36-.91,0,0,0,0,.01,0,.3-.18.69-.14.94.1,1.33,1.26,2.11,3,2.12,4.88.02,3.54-2.83,6.41-6.78,6.82-1.54.16-3.02-.03-4.43-.57Z"/></svg>