<?xml version="1.0" encoding="UTF-8"?><svg id="Calque_1" xmlns="http://www.w3.org/2000/svg" viewBox="0 0 50 50"><defs><style>.cls-1{fill:#000091;stroke:#000091;stroke-miterlimit:10;stroke-width:.5px;}.cls-2{fill:#c7c7f5;}.cls-2,.cls-3,.cls-4{stroke-width:0px;}.cls-3{fill:#adadf9;}.cls-4{fill:#fff;}</style></defs><path class="cls-3" d="M25,50c-1.29,0-2.4-.91-3.48-1.78-.81-.66-1.57-1.28-2.34-1.49-.83-.22-1.87-.05-2.88.11-1.34.21-2.73.44-3.8-.18-1.09-.63-1.59-1.96-2.08-3.24-.36-.95-.73-1.93-1.32-2.52-.59-.59-1.57-.96-2.52-1.32-1.28-.48-2.6-.99-3.24-2.08-.62-1.07-.4-2.46-.18-3.8.16-1.01.33-2.06.11-2.88-.21-.78-.83-1.54-1.49-2.34C.91,27.4,0,26.3,0,25s.91-2.4,1.78-3.48c.66-.81,1.28-1.57,1.49-2.34.22-.83.05-1.87-.11-2.88-.21-1.34-.44-2.73.18-3.8.63-1.09,1.96-1.59,3.24-2.08.95-.36,1.93-.73,2.52-1.32.59-.59.96-1.57,1.32-2.52.48-1.28.99-2.6,2.08-3.24,1.07-.62,2.46-.4,3.8-.18,1.01.16,2.06.33,2.88.11.78-.21,1.54-.83,2.34-1.49C22.59.91,23.7,0,25,0s2.4.91,3.48,1.78c.81.66,1.57,1.28,2.35,1.49.83.22,1.87.05,2.88-.11,1.34-.21,2.73-.44,3.8.18,1.09.63,1.59,1.96,2.08,3.24.36.95.73,1.93,1.32,2.52.59.59,1.57.96,2.52,1.32,1.28.48,2.6.99,3.24,2.08.62,1.07.4,2.46.18,3.8-.16,1.01-.33,2.06-.11,2.88.21.78.83,1.54,1.49,2.34.88,1.07,1.78,2.18,1.78,3.48s-.91,2.4-1.78,3.48c-.66.81-1.28,1.57-1.49,2.34-.22.83-.05,1.87.11,2.88.21,1.34.44,2.73-.18,3.8-.63,1.09-1.96,1.59-3.24,2.08-.95.36-1.93.73-2.52,1.32-.59.59-.96,1.57-1.32,2.52-.48,1.28-.99,2.6-2.08,3.24-1.07.62-2.46.4-3.8.18-1.01-.16-2.06-.33-2.88-.11-.78.21-1.54.83-2.34,1.49-1.07.88-2.18,1.78-3.48,1.78h0Z"/><path class="cls-2" d="M37.16,46.06l-15.2,1.63,15.2-1.63Z"/><path class="cls-4" d="M21.56,23.64c5.47.02,10.9-.26,16.31-1.09.73-.11,1.61-.37,1.78-1.11.08-.33-.01-.68-.17-.98-.59-1.13-2.17-1.53-3.19-.81.18-1.95-1.04-3.94-2.81-4.61-1.77-.67-3.93.05-5,1.66-.18-3.57-3.64-6.52-7.07-6.18-3.42.33-6.25,3.71-6.29,7.28-1.57-.73-3.63.04-4.39,1.64-.31.65-.42,1.44-.14,2.11,1.28,3.16,8.25,2.08,10.96,2.09Z"/><path class="cls-1" d="M30.6,32.32c-1.18-.43-1.8-1.7-1.31-2.89.52-1.26,1.99-1.8,3.25-1.53,2.89.62,4.21,4.15,2.88,6.65-1.56,2.92-5.07,2.88-7.84,2.02-1.8-.56-3.55-1.44-5.45-1.64-1.98-.21-4.26.54-4.99,2.55-.1.28-.51.14-.44-.14.55-1.98,2.51-3.01,4.46-3.13,2.44-.14,4.67,1.08,6.96,1.73,2.59.73,6.1.55,6.89-2.61.36-1.45-.22-3.07-1.42-3.97-.71-.53-1.7-.84-2.55-.46-1.05.47-1.46,2.05-.17,2.54.55.21.28,1.07-.28.87Z"/><path class="cls-1" d="M15.8,31.89c3.14,1.7,6.66.51,9.14-1.74,1.58-1.44,2.98-3.23,5.08-3.92,2.2-.72,4.49-.14,6.39,1.07.22.14.46-.18.28-.36-2.01-2.03-5.27-2.43-7.84-1.28-3.11,1.4-4.75,4.95-8.19,5.78-3.45.83-7.8-1.87-6.71-5.82.47-1.7,2.27-3.09,4.06-2.9.97.11,2.03.75,2.33,1.72.36,1.17-.6,2.4-1.85,2.17-.73-.13-1.02.88-.31,1.11,1.32.44,2.66-.36,3.24-1.58.6-1.27.08-2.72-.92-3.62-2.37-2.15-6.06-.79-7.38,1.86-1.35,2.71.08,6.12,2.66,7.52Z"/></svg>