<?xml version="1.0" encoding="UTF-8"?><svg xmlns="http://www.w3.org/2000/svg" viewBox="0 0 50 50"><defs><style>.cls-1{mix-blend-mode:multiply;opacity:.12;}.cls-2,.cls-3,.cls-4,.cls-5{stroke-width:0px;}.cls-6{isolation:isolate;}.cls-3{fill:#adadf9;}.cls-4{fill:#fff;}.cls-5{fill:#000091;}</style></defs><g class="cls-6"><g id="Calque_1"><path class="cls-3" d="M25,50c-1.29,0-2.4-.91-3.48-1.78-.81-.66-1.57-1.28-2.34-1.49-.83-.22-1.87-.05-2.88.11-1.34.21-2.73.44-3.8-.18-1.09-.63-1.59-1.96-2.08-3.24-.36-.95-.73-1.93-1.32-2.52-.59-.59-1.57-.96-2.52-1.32-1.28-.48-2.6-.99-3.24-2.08-.62-1.07-.4-2.46-.18-3.8.16-1.01.33-2.06.11-2.88-.21-.78-.83-1.54-1.49-2.34C.91,27.4,0,26.3,0,25s.91-2.4,1.78-3.48c.66-.81,1.28-1.57,1.49-2.34.22-.83.05-1.87-.11-2.88-.21-1.34-.44-2.73.18-3.8.63-1.09,1.96-1.59,3.24-2.08.95-.36,1.93-.73,2.52-1.32.59-.59.96-1.57,1.32-2.52.48-1.28.99-2.6,2.08-3.24,1.07-.62,2.46-.4,3.8-.18,1.01.16,2.06.33,2.88.11.78-.21,1.54-.83,2.34-1.49C22.59.91,23.7,0,25,0s2.4.91,3.48,1.78c.81.66,1.57,1.28,2.35,1.49.83.22,1.87.05,2.88-.11,1.34-.21,2.73-.44,3.8.18,1.09.63,1.59,1.96,2.08,3.24.36.95.73,1.93,1.32,2.52.59.59,1.57.96,2.52,1.32,1.28.48,2.6.99,3.24,2.08.62,1.07.4,2.46.18,3.8-.16,1.01-.33,2.06-.11,2.88.21.78.83,1.54,1.49,2.34.88,1.07,1.78,2.18,1.78,3.48s-.91,2.4-1.78,3.48c-.66.81-1.28,1.57-1.49,2.34-.22.83-.05,1.87.11,2.88.21,1.34.44,2.73-.18,3.8-.63,1.09-1.96,1.59-3.24,2.08-.95.36-1.93.73-2.52,1.32-.59.59-.96,1.57-1.32,2.52-.48,1.28-.99,2.6-2.08,3.24-1.07.62-2.46.4-3.8.18-1.01-.16-2.06-.33-2.88-.11-.78.21-1.54.83-2.34,1.49-1.07.88-2.18,1.78-3.48,1.78h0Z"/><path class="cls-5" d="M30.77,15.22c-2.07-.27-4.74.72-5.45,2.46-.54-1.8-3.67-3.05-5.76-2.98-5.5.19-7.65,6.21-5.52,10.43,1.15,2.27,2.85,4.29,4.73,6.12,1.57,1.53,5.66,4.82,5.68,4.81.01.01,4.4-2.87,6.11-4.25,2.04-1.64,3.94-3.49,5.29-5.65,2.52-4,.38-10.25-5.08-10.96Z"/><g class="cls-1"><path class="cls-2" d="M34.75,26.65c-1.45,1.59-3.1,3.06-4.88,4.31-1.72,1.21-3.72,2.24-5.88,2.51-1.04.13-2.04.06-2.99-.21,1.68,1.43,3.52,2.9,3.53,2.9.01.01,4.4-2.87,6.11-4.25,2.04-1.64,3.94-3.49,5.29-5.65.44-.7.74-1.46.9-2.25-.61.93-1.32,1.81-2.08,2.64Z"/></g><path class="cls-4" d="M34.75,24.91c-1.44-.03-2.88-.06-4.31-.1-.43-1.91-.86-3.82-1.29-5.73-.06-.28-.47-.27-.57-.03-1.27,3.23-2.54,6.46-3.8,9.68-.07.19-.15.37-.22.56-.65-2.2-1.31-4.39-1.96-6.59-.1-.35-.21-.7-.31-1.06-.06-.21-.4-.31-.53-.09-.6,1.02-1.2,2.05-1.8,3.07-1.61-.08-3.21-.15-4.82-.23-.38-.02-.4.53-.03.55,1.67.08,3.33.16,5,.24.1,0,.21-.04.26-.12.51-.88,1.03-1.75,1.54-2.63.67,2.25,1.34,4.51,2.01,6.76.1.35.21.7.31,1.06.08.26.46.29.57.03,1.27-3.23,2.54-6.46,3.8-9.68.06-.15.12-.31.18-.46.38,1.67.75,3.34,1.13,5.01.03.12.15.21.27.22,1.51.03,3.03.07,4.54.1.38,0,.4-.54.03-.55Z"/></g></g></svg>