<svg xmlns="http://www.w3.org/2000/svg" width="50" height="50" viewBox="0 0 50 50" fill="none">
    <path d="M24.9996 49.9993C23.7055 49.9993 22.5958 49.0937 21.5223 48.2145C20.7155 47.5559 19.9549 46.9335 19.1777 46.7261C18.3512 46.5055 17.3073 46.6734 16.2964 46.8348C14.9562 47.0488 13.5698 47.2727 12.4996 46.6536C11.4097 46.0214 10.9059 44.6976 10.4218 43.4167C10.0629 42.4683 9.69076 41.4903 9.10132 40.9009C8.51189 40.3114 7.53059 39.9393 6.58552 39.5804C5.30456 39.0964 3.9808 38.5925 3.34856 37.5026C2.72948 36.4324 2.95011 35.046 3.16745 33.7058C3.3288 32.6949 3.49674 31.6477 3.27611 30.8245C3.06866 30.0441 2.44629 29.2834 1.7877 28.4799C0.911781 27.4064 0.00292969 26.3 0.00292969 25.0026C0.00292969 23.7051 0.908488 22.5987 1.7877 21.5252C2.44629 20.7185 3.06866 19.9578 3.27611 19.1806C3.49674 18.3541 3.3288 17.3103 3.16745 16.2993C2.9534 14.9591 2.72948 13.5728 3.34856 12.5026C3.9808 11.4126 5.30456 10.9088 6.58552 10.4247C7.53388 10.0658 8.51189 9.69369 9.10132 9.10425C9.69076 8.51482 10.0629 7.53352 10.4218 6.58845C10.9059 5.30749 11.4097 3.98373 12.4996 3.35149C13.5698 2.73241 14.9562 2.95304 16.2964 3.17037C17.3073 3.33173 18.3545 3.49967 19.1777 3.27904C19.9581 3.07159 20.7188 2.44922 21.5223 1.79063C22.5958 0.914711 23.7022 0.00585938 24.9996 0.00585938C26.2971 0.00585938 27.4035 0.911418 28.477 1.79063C29.2838 2.44922 30.0444 3.07159 30.8249 3.27904C31.6514 3.49967 32.6952 3.33173 33.7062 3.17037C35.0464 2.95633 36.4327 2.73241 37.5029 3.35149C38.5929 3.98373 39.0967 5.30749 39.5808 6.58845C39.9397 7.53681 40.3118 8.51482 40.9012 9.10425C41.4907 9.69369 42.4687 10.0658 43.4171 10.4247C44.698 10.9088 46.0218 11.4126 46.654 12.5026C47.2731 13.5728 47.0525 14.9591 46.8351 16.2993C46.6738 17.3103 46.5058 18.3574 46.7265 19.1806C46.9339 19.9611 47.5563 20.7217 48.2149 21.5252C49.0908 22.5987 49.9996 23.7051 49.9996 25.0026C49.9996 26.3 49.0941 27.4064 48.2149 28.4799C47.5563 29.2867 46.9339 30.0474 46.7265 30.8245C46.5058 31.651 46.6738 32.6949 46.8351 33.7058C47.0492 35.046 47.2731 36.4324 46.654 37.5026C46.0218 38.5925 44.698 39.0964 43.4171 39.5804C42.4687 39.9393 41.4907 40.3114 40.9012 40.9009C40.3118 41.4903 39.9397 42.4683 39.5808 43.4167C39.0967 44.6976 38.5929 46.0214 37.5029 46.6536C36.4327 47.2727 35.0464 47.0521 33.7062 46.8348C32.6952 46.6734 31.6481 46.5055 30.8249 46.7261C30.0444 46.9335 29.2838 47.5559 28.4803 48.2145C27.4068 49.0904 26.3004 49.9993 25.0029 49.9993H24.9996ZM37.1572 46.0576L21.9603 47.6843L37.1572 46.0576Z" fill="#C7C7F5"/>
</svg>