<?xml version="1.0" encoding="UTF-8"?><svg id="Calque_1" xmlns="http://www.w3.org/2000/svg" viewBox="0 0 50 50"><defs><style>.cls-1{fill:#adadf9;}.cls-1,.cls-2,.cls-3{stroke-width:0px;}.cls-2{fill:#fff;}.cls-3{fill:#000091;}</style></defs><path class="cls-1" d="M25,50c-1.29,0-2.4-.91-3.48-1.78-.81-.66-1.57-1.28-2.34-1.49-.83-.22-1.87-.05-2.88.11-1.34.21-2.73.44-3.8-.18-1.09-.63-1.59-1.96-2.08-3.24-.36-.95-.73-1.93-1.32-2.52-.59-.59-1.57-.96-2.52-1.32-1.28-.48-2.6-.99-3.24-2.08-.62-1.07-.4-2.46-.18-3.8.16-1.01.33-2.06.11-2.88-.21-.78-.83-1.54-1.49-2.34C.91,27.4,0,26.3,0,25s.91-2.4,1.78-3.48c.66-.81,1.28-1.57,1.49-2.34.22-.83.05-1.87-.11-2.88-.21-1.34-.44-2.73.18-3.8.63-1.09,1.96-1.59,3.24-2.08.95-.36,1.93-.73,2.52-1.32.59-.59.96-1.57,1.32-2.52.48-1.28.99-2.6,2.08-3.24,1.07-.62,2.46-.4,3.8-.18,1.01.16,2.06.33,2.88.11.78-.21,1.54-.83,2.34-1.49C22.59.91,23.7,0,25,0s2.4.91,3.48,1.78c.81.66,1.57,1.28,2.35,1.49.83.22,1.87.05,2.88-.11,1.34-.21,2.73-.44,3.8.18,1.09.63,1.59,1.96,2.08,3.24.36.95.73,1.93,1.32,2.52.59.59,1.57.96,2.52,1.32,1.28.48,2.6.99,3.24,2.08.62,1.07.4,2.46.18,3.8-.16,1.01-.33,2.06-.11,2.88.21.78.83,1.54,1.49,2.34.88,1.07,1.78,2.18,1.78,3.48s-.91,2.4-1.78,3.48c-.66.81-1.28,1.57-1.49,2.34-.22.83-.05,1.87.11,2.88.21,1.34.44,2.73-.18,3.8-.63,1.09-1.96,1.59-3.24,2.08-.95.36-1.93.73-2.52,1.32-.59.59-.96,1.57-1.32,2.52-.48,1.28-.99,2.6-2.08,3.24-1.07.62-2.46.4-3.8.18-1.01-.16-2.06-.33-2.88-.11-.78.21-1.54.83-2.34,1.49-1.07.88-2.18,1.78-3.48,1.78h0Z"/><circle class="cls-2" cx="23.59" cy="11.1" r="3.3"/><path class="cls-3" d="M24.24,16.64c-.48-.33-1.13-.21-1.46.27l-2.37,3.45-2.08.38c-.64-.61-1.54-.93-2.48-.79l-.18.03c-.5.08-.95.27-1.33.56l-1.51-1.24-1.4-3.84c-.2-.54-.8-.82-1.35-.62-.54.2-.82.8-.62,1.34l1.5,4.11c.06.17.17.33.32.45l1.94,1.6c-.06.32-.08.66-.02,1l.62,4.29c.09.6.53,3.83.53,3.83l-3.13,2.2c-.58.41-.72,1.21-.31,1.79.25.36.65.55,1.06.55.26,0,.51-.08.74-.24l3.63-2.55c.31-.22.51-.56.54-.94l.19-2.17s.08,0,.11-.01l.18-.03c.4-.06.78-.2,1.1-.4l1.78,2-.47,3.84c-.09.71.41,1.35,1.12,1.44.05,0,.11,0,.16,0,.64,0,1.2-.48,1.28-1.13l.54-4.42c.05-.37-.07-.74-.31-1.01,0,0-2.69-3.45-2.72-3.67l-.58-4,1.98-.36c.28-.05.52-.21.68-.44l2.62-3.81c.33-.48.21-1.13-.27-1.46Z"/><path class="cls-3" d="M16.02,19.19c1.58,0,2.85-1.28,2.85-2.85s-1.23-2.8-2.76-2.85c-.01-.03-.03-.05-.04-.07-.04-.06-.11-.17-.1-.25.02-.09.13-.11.21-.14.1-.03.21-.08.29-.14.24-.18.34-.61.08-.82-.17-.14-.37-.19-.59-.21-.05,0-.13-.01-.19,0-.09.01-.16.04-.17.15,0,.09.06.16.15.17.1,0,.54.11.47.27-.03.08-.15.1-.22.11-.11.03-.22.06-.31.12-.3.2-.29.56-.18.85-1.34.24-2.35,1.4-2.35,2.81,0,1.58,1.28,2.85,2.85,2.85Z"/><path class="cls-3" d="M42.71,23.8l-2.93-.47-2.62-2.5c-.6-.9-1.68-1.44-2.82-1.29l-.18.02c-.68.09-1.27.4-1.72.85l-1.89-1.22-1.08-3.68c-.16-.56-.74-.87-1.3-.71-.55.16-.87.75-.71,1.3l1.19,4.05c.07.24.23.45.44.58l2.51,1.63c0,.16,0,.32.02.49l.47,3.68-1.23,3.63s.36.37,1.05.72l-1.39,4.96c-.19.68.21,1.4.89,1.59.12.03.23.05.35.05.56,0,1.08-.37,1.24-.94l1.41-5.03c.33,0,.69,0,1.07-.05.13-.02.25-.04.37-.06l.25.98c.04.16.12.31.22.45l2.35,3.13c.25.34.64.51,1.03.51.27,0,.54-.08.77-.26.57-.43.69-1.23.26-1.8l-2.2-2.93-.27-1.06c.96-.66,1.36-1.38,1.36-1.38l-1.52-3.42-.15-1.16.63.61c.15.15.35.24.56.28l3.25.53c.06,0,.11.01.17.01.51,0,.95-.37,1.03-.88.09-.57-.29-1.11-.87-1.2Z"/><path class="cls-3" d="M34.07,18.83c1.56-.04,2.8-1.33,2.78-2.89.63.41,1.11,1.19,1.11,1.19.61-.25.74-1.15.74-1.15-.57-.7-1.38-.87-1.98-.89-.38-1.16-1.49-1.99-2.78-1.96-1.57.04-2.82,1.34-2.78,2.92.04,1.57,1.34,2.82,2.92,2.78Z"/><path class="cls-3" d="M23.59,7.3c-2.09,0-3.8,1.7-3.8,3.8s1.7,3.8,3.8,3.8,3.8-1.7,3.8-3.8-1.7-3.8-3.8-3.8ZM20.78,10.36c.23-.85.83-1.56,1.62-1.91.03.24.1.54.21.87-.31.13-.52.43-.53.79-.55.04-.99.15-1.3.26ZM23.59,14c-1.02,0-1.91-.53-2.43-1.32.39-.96.94-1.61,1.21-1.89.16.15.37.24.6.24.14,0,.26-.03.38-.09.36.56.9,1.54,1.28,2.86-.33.12-.67.2-1.04.2ZM26.48,11.36c-.42-.35-1.2-.8-2.62-1.16,0-.02,0-.04,0-.07,0-.28-.13-.53-.33-.69.16-.29.47-.76.88-1.13,1.2.35,2.08,1.47,2.08,2.78,0,.09,0,.18-.01.26Z"/></svg>