<?xml version="1.0" encoding="UTF-8"?><svg id="Calque_1" xmlns="http://www.w3.org/2000/svg" viewBox="0 0 50 50"><defs><style>.cls-1{fill:#adadf9;}.cls-1,.cls-2,.cls-3{stroke-width:0px;}.cls-2{fill:#fff;}.cls-3{fill:#000091;}</style></defs><path class="cls-1" d="M25,50c-1.29,0-2.4-.91-3.48-1.78-.81-.66-1.57-1.28-2.34-1.49-.83-.22-1.87-.05-2.88.11-1.34.21-2.73.44-3.8-.18-1.09-.63-1.59-1.96-2.08-3.24-.36-.95-.73-1.93-1.32-2.52-.59-.59-1.57-.96-2.52-1.32-1.28-.48-2.6-.99-3.24-2.08-.62-1.07-.4-2.46-.18-3.8.16-1.01.33-2.06.11-2.88-.21-.78-.83-1.54-1.49-2.34C.91,27.4,0,26.3,0,25s.91-2.4,1.78-3.48c.66-.81,1.28-1.57,1.49-2.34.22-.83.05-1.87-.11-2.88-.21-1.34-.44-2.73.18-3.8.63-1.09,1.96-1.59,3.24-2.08.95-.36,1.93-.73,2.52-1.32.59-.59.96-1.57,1.32-2.52.48-1.28.99-2.6,2.08-3.24,1.07-.62,2.46-.4,3.8-.18,1.01.16,2.06.33,2.88.11.78-.21,1.54-.83,2.34-1.49C22.59.91,23.7,0,25,0s2.4.91,3.48,1.78c.81.66,1.57,1.28,2.35,1.49.83.22,1.87.05,2.88-.11,1.34-.21,2.73-.44,3.8.18,1.09.63,1.59,1.96,2.08,3.24.36.95.73,1.93,1.32,2.52.59.59,1.57.96,2.52,1.32,1.28.48,2.6.99,3.24,2.08.62,1.07.4,2.46.18,3.8-.16,1.01-.33,2.06-.11,2.88.21.78.83,1.54,1.49,2.34.88,1.07,1.78,2.18,1.78,3.48s-.91,2.4-1.78,3.48c-.66.81-1.28,1.57-1.49,2.34-.22.83-.05,1.87.11,2.88.21,1.34.44,2.73-.18,3.8-.63,1.09-1.96,1.59-3.24,2.08-.95.36-1.93.73-2.52,1.32-.59.59-.96,1.57-1.32,2.52-.48,1.28-.99,2.6-2.08,3.24-1.07.62-2.46.4-3.8.18-1.01-.16-2.06-.33-2.88-.11-.78.21-1.54.83-2.34,1.49-1.07.88-2.18,1.78-3.48,1.78h0ZM37.16,46.06l-15.2,1.63,15.2-1.63Z"/><path class="cls-3" d="M30.12,11.71c0-.86-.43-1.66-1.14-2.14-.07-.05-.16-.07-.26-.07h-2.34c-.09,0-.18.02-.26.07-.71.48-1.14,1.28-1.14,2.14,0,.92.5,1.79,1.31,2.24,0,0,.01,0,.02.01h2.48s.01,0,.02-.01c.81-.45,1.31-1.31,1.31-2.24Z"/><path class="cls-3" d="M19.12,12.94l5.59-.25c-.11-.31-.16-.64-.16-.97s.06-.67.16-.97l-5.59-.25c-.16,0-.31.08-.39.22-.32.67-.32,1.32,0,1.99.07.15.23.24.39.23Z"/><rect class="cls-3" x="26.27" y="14.4" width="2.56" height="3.43"/><path class="cls-3" d="M35.99,10.49l-5.59.25c.11.31.16.64.16.97s-.06.67-.16.97l5.59.25c.16,0,.31-.08.39-.22.32-.67.32-1.32,0-1.99-.08-.15-.23-.24-.4-.23Z"/><path class="cls-3" d="M20.13,27.07h-5.56c-.4,0-.73.33-.73.73v1.8c0,.4.33.73.73.73h5.56c.4,0,.73-.33.73-.73v-1.8c0-.4-.32-.73-.73-.73Z"/><path class="cls-3" d="M20.17,18.94c-1.02.43-1.94,1.05-2.72,1.84-.79.79-1.4,1.7-1.84,2.72-.42,1-.65,2.05-.67,3.13h4.82c.11-1.97,1.75-3.54,3.75-3.54h13.1v-4.82h-13.1c-1.16,0-2.28.23-3.34.67ZM26.05,21.19h8.02c.12,0,.22.1.22.22s-.1.22-.22.22h-8.02c-.12,0-.22-.1-.22-.22s.1-.22.22-.22Z"/><path class="cls-3" d="M39.98,17.1h-2.73c-.11,0-.19.09-.19.19v7.18c0,.11.09.19.19.19h2.73c.11,0,.19-.09.19-.19v-7.18c0-.11-.09-.19-.19-.19Z"/><path class="cls-2" d="M17.52,31.55c-.04-.06-.11-.09-.18-.09s-.14.04-.18.09c0,0-.59.84-1.16,1.81-.78,1.33-1.18,2.29-1.18,2.86,0,1.39,1.13,2.52,2.52,2.52s2.52-1.13,2.52-2.52c0-.56-.4-1.53-1.18-2.86-.57-.97-1.15-1.8-1.16-1.81ZM17.34,37.61c-.77,0-1.4-.62-1.4-1.4,0-.12.1-.22.22-.22s.22.1.22.22c0,.53.43.96.96.96.12,0,.22.1.22.22,0,.12-.09.22-.21.22Z"/></svg>