<?xml version="1.0" encoding="UTF-8"?><svg id="Calque_1" xmlns="http://www.w3.org/2000/svg" xmlns:xlink="http://www.w3.org/1999/xlink" viewBox="0 0 50 50"><defs><style>.cls-1{letter-spacing:-.01em;}.cls-2{letter-spacing:.03em;}.cls-3{clip-path:url(#clippath);}.cls-4{fill:none;}.cls-4,.cls-5,.cls-6,.cls-7{stroke-width:0px;}.cls-8{letter-spacing:0em;}.cls-9{fill:#bfbebe;font-family:MyriadPro-Regular, 'Myriad Pro';font-size:6px;}.cls-10{letter-spacing:0em;}.cls-5{fill:#adadf9;}.cls-6{fill:#fff;}.cls-7{fill:#000091;}.cls-11{letter-spacing:-.03em;}</style><clipPath id="clippath"><path class="cls-4" d="M25,50c-1.29,0-2.4-.91-3.48-1.78-.81-.66-1.57-1.28-2.34-1.49-.83-.22-1.87-.05-2.88.11-1.34.21-2.73.44-3.8-.18-1.09-.63-1.59-1.96-2.08-3.24-.36-.95-.73-1.93-1.32-2.52-.59-.59-1.57-.96-2.52-1.32-1.28-.48-2.6-.99-3.24-2.08-.62-1.07-.4-2.46-.18-3.8.16-1.01.33-2.06.11-2.88-.21-.78-.83-1.54-1.49-2.34C.91,27.4,0,26.3,0,25s.91-2.4,1.78-3.48c.66-.81,1.28-1.57,1.49-2.34.22-.83.05-1.87-.11-2.88-.21-1.34-.44-2.73.18-3.8.63-1.09,1.96-1.59,3.24-2.08.95-.36,1.93-.73,2.52-1.32.59-.59.96-1.57,1.32-2.52.48-1.28.99-2.6,2.08-3.24,1.07-.62,2.46-.4,3.8-.18,1.01.16,2.06.33,2.88.11.78-.21,1.54-.83,2.34-1.49C22.59.91,23.7,0,25,0s2.4.91,3.48,1.78c.81.66,1.57,1.28,2.35,1.49.83.22,1.87.05,2.88-.11,1.34-.21,2.73-.44,3.8.18,1.09.63,1.59,1.96,2.08,3.24.36.95.73,1.93,1.32,2.52.59.59,1.57.96,2.52,1.32,1.28.48,2.6.99,3.24,2.08.62,1.07.4,2.46.18,3.8-.16,1.01-.33,2.06-.11,2.88.21.78.83,1.54,1.49,2.34.88,1.07,1.78,2.18,1.78,3.48s-.91,2.4-1.78,3.48c-.66.81-1.28,1.57-1.49,2.34-.22.83-.05,1.87.11,2.88.21,1.34.44,2.73-.18,3.8-.63,1.09-1.96,1.59-3.24,2.08-.95.36-1.93.73-2.52,1.32-.59.59-.96,1.57-1.32,2.52-.48,1.28-.99,2.6-2.08,3.24-1.07.62-2.46.4-3.8.18-1.01-.16-2.06-.33-2.88-.11-.78.21-1.54.83-2.34,1.49-1.07.88-2.18,1.78-3.48,1.78h0Z"/></clipPath></defs><path class="cls-5" d="M25,50c-1.29,0-2.4-.91-3.48-1.78-.81-.66-1.57-1.28-2.34-1.49-.83-.22-1.87-.05-2.88.11-1.34.21-2.73.44-3.8-.18-1.09-.63-1.59-1.96-2.08-3.24-.36-.95-.73-1.93-1.32-2.52-.59-.59-1.57-.96-2.52-1.32-1.28-.48-2.6-.99-3.24-2.08-.62-1.07-.4-2.46-.18-3.8.16-1.01.33-2.06.11-2.88-.21-.78-.83-1.54-1.49-2.34C.91,27.4,0,26.3,0,25s.91-2.4,1.78-3.48c.66-.81,1.28-1.57,1.49-2.34.22-.83.05-1.87-.11-2.88-.21-1.34-.44-2.73.18-3.8.63-1.09,1.96-1.59,3.24-2.08.95-.36,1.93-.73,2.52-1.32.59-.59.96-1.57,1.32-2.52.48-1.28.99-2.6,2.08-3.24,1.07-.62,2.46-.4,3.8-.18,1.01.16,2.06.33,2.88.11.78-.21,1.54-.83,2.34-1.49C22.59.91,23.7,0,25,0s2.4.91,3.48,1.78c.81.66,1.57,1.28,2.35,1.49.83.22,1.87.05,2.88-.11,1.34-.21,2.73-.44,3.8.18,1.09.63,1.59,1.96,2.08,3.24.36.95.73,1.93,1.32,2.52.59.59,1.57.96,2.52,1.32,1.28.48,2.6.99,3.24,2.08.62,1.07.4,2.46.18,3.8-.16,1.01-.33,2.06-.11,2.88.21.78.83,1.54,1.49,2.34.88,1.07,1.78,2.18,1.78,3.48s-.91,2.4-1.78,3.48c-.66.81-1.28,1.57-1.49,2.34-.22.83-.05,1.87.11,2.88.21,1.34.44,2.73-.18,3.8-.63,1.09-1.96,1.59-3.24,2.08-.95.36-1.93.73-2.52,1.32-.59.59-.96,1.57-1.32,2.52-.48,1.28-.99,2.6-2.08,3.24-1.07.62-2.46.4-3.8.18-1.01-.16-2.06-.33-2.88-.11-.78.21-1.54.83-2.34,1.49-1.07.88-2.18,1.78-3.48,1.78h0Z"/><g class="cls-3"><path class="cls-7" d="M25.82,50.67c16.55.14,31.18-8.23,39.73-21.03-.97.38-2.09.59-3.29.58-2.92-.03-5.37-1.36-6.15-3.17-.81,1.79-3.29,3.08-6.21,3.06-2.92-.03-5.37-1.36-6.15-3.17-.81,1.79-3.29,3.09-6.21,3.06-2.92-.03-5.37-1.36-6.15-3.17-.81,1.79-3.29,3.08-6.21,3.06-2.92-.03-5.37-1.36-6.15-3.17-.81,1.79-3.29,3.08-6.21,3.06-2.92-.03-5.37-1.36-6.15-3.17-.81,1.79-3.29,3.09-6.21,3.06-2.92-.03-5.37-1.36-6.15-3.17-.81,1.79-3.29,3.08-6.21,3.06-.45,0-.89-.04-1.32-.11,8.38,12.66,22.7,21.06,39.02,21.2Z"/></g><polygon class="cls-7" points="17.78 11.2 20.99 8.43 31.96 22.67 31.52 23.13 17.78 11.2"/><polygon class="cls-7" points="30.06 8.36 32.91 11.5 18.94 22.81 18.47 22.39 30.06 8.36"/><path class="cls-6" d="M22.43,25.92c.64.05,1.26.13,1.85.24,0-.38.1-.98.57-1.21.7-.34,2.4-.07,2.4-.07l-1.08,1.72c.74.22,1.44.48,2.08.76.12-.29.32-.56.69-.7,1.06-.39,3.5.53,3.5.53l-1.53,1.67h0c1.59,1.1,2.7,2.28,3.4,3.15.78-.84,2.19-1.31,3.74-1.12l.9.11v.03c-.19,1.58-.59,2.84-2.8,2.57,2.21.27,2.3,1.58,2.11,3.16v.03s-.91-.11-.91-.11c-1.65-.2-2.98-1.08-3.47-2.18-1.25,1.02-3.33,2.41-6,3.15l.92,2.31s-3.02-.03-3.96-.66c-.52-.35-.88-.8-1.1-1.14,0,0-.01,0-.02,0-6.82-.25-9.86-6.31-9.86-6.31,0,0,2.51-6.42,8.56-5.95Z"/><polygon class="cls-7" points="18.28 31.68 19.6 30.64 20.64 31.97 21.59 31.23 20.55 29.9 21.87 28.86 21.13 27.92 19.8 28.96 18.76 27.63 17.82 28.37 18.86 29.7 17.54 30.74 18.28 31.68"/></svg>