<?xml version="1.0" encoding="UTF-8"?><svg id="Calque_1" xmlns="http://www.w3.org/2000/svg" viewBox="0 0 50 50"><defs><style>.cls-1{fill:#adadf9;}.cls-1,.cls-2,.cls-3{stroke-width:0px;}.cls-2{fill:#fff;}.cls-3{fill:#000091;}</style></defs><path class="cls-1" d="M25,50c-1.29,0-2.4-.91-3.48-1.78-.81-.66-1.57-1.28-2.34-1.49-.83-.22-1.87-.05-2.88.11-1.34.21-2.73.44-3.8-.18-1.09-.63-1.59-1.96-2.08-3.24-.36-.95-.73-1.93-1.32-2.52-.59-.59-1.57-.96-2.52-1.32-1.28-.48-2.6-.99-3.24-2.08-.62-1.07-.4-2.46-.18-3.8.16-1.01.33-2.06.11-2.88-.21-.78-.83-1.54-1.49-2.34C.91,27.4,0,26.3,0,25s.91-2.4,1.78-3.48c.66-.81,1.28-1.57,1.49-2.34.22-.83.05-1.87-.11-2.88-.21-1.34-.44-2.73.18-3.8.63-1.09,1.96-1.59,3.24-2.08.95-.36,1.93-.73,2.52-1.32.59-.59.96-1.57,1.32-2.52.48-1.28.99-2.6,2.08-3.24,1.07-.62,2.46-.4,3.8-.18,1.01.16,2.06.33,2.88.11.78-.21,1.54-.83,2.34-1.49C22.59.91,23.7,0,25,0s2.4.91,3.48,1.78c.81.66,1.57,1.28,2.35,1.49.83.22,1.87.05,2.88-.11,1.34-.21,2.73-.44,3.8.18,1.09.63,1.59,1.96,2.08,3.24.36.95.73,1.93,1.32,2.52.59.59,1.57.96,2.52,1.32,1.28.48,2.6.99,3.24,2.08.62,1.07.4,2.46.18,3.8-.16,1.01-.33,2.06-.11,2.88.21.78.83,1.54,1.49,2.34.88,1.07,1.78,2.18,1.78,3.48s-.91,2.4-1.78,3.48c-.66.81-1.28,1.57-1.49,2.34-.22.83-.05,1.87.11,2.88.21,1.34.44,2.73-.18,3.8-.63,1.09-1.96,1.59-3.24,2.08-.95.36-1.93.73-2.52,1.32-.59.59-.96,1.57-1.32,2.52-.48,1.28-.99,2.6-2.08,3.24-1.07.62-2.46.4-3.8.18-1.01-.16-2.06-.33-2.88-.11-.78.21-1.54.83-2.34,1.49-1.07.88-2.18,1.78-3.48,1.78h0ZM37.16,46.06l-15.2,1.63,15.2-1.63Z"/><path class="cls-2" d="M13.63,17.01c.21,0,.42.02.62.05.11-2.69,2.32-4.84,5.04-4.84.93,0,1.8.26,2.55.69.75-2.19,2.82-3.77,5.27-3.77,2.87,0,5.22,2.16,5.53,4.95.26-.04.52-.06.79-.06,3.19,0,5.78,2.59,5.78,5.78s-2.51,5.7-5.64,5.78h0s-19.86,0-19.86,0h0s-.06,0-.09,0c-2.37,0-4.29-1.92-4.29-4.29s1.92-4.29,4.29-4.29Z"/><path class="cls-3" d="M21.21,35.13h0l-1.13-2.21c-.06-.11-.22-.11-.27,0l-1.13,2.21h0c-.1.19-.16.41-.16.64,0,.78.63,1.42,1.42,1.42s1.42-.63,1.42-1.42c0-.23-.06-.45-.16-.64Z"/><path class="cls-3" d="M21.62,27.93h0l-1.13-2.21c-.06-.11-.22-.11-.27,0l-1.13,2.21h0c-.1.19-.16.41-.16.64,0,.78.63,1.42,1.42,1.42s1.42-.63,1.42-1.42c0-.23-.06-.45-.16-.64Z"/><path class="cls-3" d="M16.52,30.62h0l-1.13-2.21c-.06-.11-.22-.11-.27,0l-1.13,2.21h0c-.1.19-.16.41-.16.64,0,.78.63,1.42,1.42,1.42s1.42-.63,1.42-1.42c0-.23-.06-.45-.16-.64Z"/><path class="cls-3" d="M28.33,27.93h0l-1.13-2.21c-.06-.11-.22-.11-.27,0l-1.13,2.21h0c-.1.19-.16.41-.16.64,0,.78.63,1.42,1.42,1.42s1.42-.63,1.42-1.42c0-.23-.06-.45-.16-.64Z"/><path class="cls-3" d="M29.74,33.35h0l-1.13-2.21c-.06-.11-.22-.11-.27,0l-1.13,2.21h0c-.1.19-.16.41-.16.64,0,.78.63,1.42,1.42,1.42s1.42-.63,1.42-1.42c0-.23-.06-.45-.16-.64Z"/><path class="cls-3" d="M34.23,30.32h0l-1.13-2.21c-.06-.11-.22-.11-.27,0l-1.13,2.21h0c-.1.19-.16.41-.16.64,0,.78.63,1.42,1.42,1.42s1.42-.63,1.42-1.42c0-.23-.06-.45-.16-.64Z"/><path class="cls-3" d="M28.33,38.8h0l-1.13-2.21c-.06-.11-.22-.11-.27,0l-1.13,2.21h0c-.1.19-.16.41-.16.64,0,.78.63,1.42,1.42,1.42s1.42-.63,1.42-1.42c0-.23-.06-.45-.16-.64Z"/></svg>