<?xml version="1.0" encoding="UTF-8"?><svg id="Calque_1" xmlns="http://www.w3.org/2000/svg" xmlns:xlink="http://www.w3.org/1999/xlink" viewBox="0 0 50 50"><defs><style>.cls-1{clip-path:url(#clippath);}.cls-2{fill:none;}.cls-2,.cls-3,.cls-4,.cls-5,.cls-6{stroke-width:0px;}.cls-3{fill:#adadf9;}.cls-4{fill:#f0f1f1;}.cls-5{fill:#fff;}.cls-6{fill:#000091;}</style><clipPath id="clippath"><path class="cls-2" d="M25,50c-1.29,0-2.4-.91-3.48-1.78-.81-.66-1.57-1.28-2.34-1.49-.83-.22-1.87-.05-2.88.11-1.34.21-2.73.44-3.8-.18-1.09-.63-1.59-1.96-2.08-3.24-.36-.95-.73-1.93-1.32-2.52-.59-.59-1.57-.96-2.52-1.32-1.28-.48-2.6-.99-3.24-2.08-.62-1.07-.4-2.46-.18-3.8.16-1.01.33-2.06.11-2.88-.21-.78-.83-1.54-1.49-2.34C.91,27.4,0,26.3,0,25s.91-2.4,1.78-3.48c.66-.81,1.28-1.57,1.49-2.34.22-.83.05-1.87-.11-2.88-.21-1.34-.44-2.73.18-3.8.63-1.09,1.96-1.59,3.24-2.08.95-.36,1.93-.73,2.52-1.32.59-.59.96-1.57,1.32-2.52.48-1.28.99-2.6,2.08-3.24,1.07-.62,2.46-.4,3.8-.18,1.01.16,2.06.33,2.88.11.78-.21,1.54-.83,2.34-1.49C22.59.91,23.7,0,25,0s2.4.91,3.48,1.78c.81.66,1.57,1.28,2.35,1.49.83.22,1.87.05,2.88-.11,1.34-.21,2.73-.44,3.8.18,1.09.63,1.59,1.96,2.08,3.24.36.95.73,1.93,1.32,2.52.59.59,1.57.96,2.52,1.32,1.28.48,2.6.99,3.24,2.08.62,1.07.4,2.46.18,3.8-.16,1.01-.33,2.06-.11,2.88.21.78.83,1.54,1.49,2.34.88,1.07,1.78,2.18,1.78,3.48s-.91,2.4-1.78,3.48c-.66.81-1.28,1.57-1.49,2.34-.22.83-.05,1.87.11,2.88.21,1.34.44,2.73-.18,3.8-.63,1.09-1.96,1.59-3.24,2.08-.95.36-1.93.73-2.52,1.32-.59.59-.96,1.57-1.32,2.52-.48,1.28-.99,2.6-2.08,3.24-1.07.62-2.46.4-3.8.18-1.01-.16-2.06-.33-2.88-.11-.78.21-1.54.83-2.34,1.49-1.07.88-2.18,1.78-3.48,1.78h0Z"/></clipPath></defs><path class="cls-3" d="M25,50c-1.29,0-2.4-.91-3.48-1.78-.81-.66-1.57-1.28-2.34-1.49-.83-.22-1.87-.05-2.88.11-1.34.21-2.73.44-3.8-.18-1.09-.63-1.59-1.96-2.08-3.24-.36-.95-.73-1.93-1.32-2.52-.59-.59-1.57-.96-2.52-1.32-1.28-.48-2.6-.99-3.24-2.08-.62-1.07-.4-2.46-.18-3.8.16-1.01.33-2.06.11-2.88-.21-.78-.83-1.54-1.49-2.34C.91,27.4,0,26.3,0,25s.91-2.4,1.78-3.48c.66-.81,1.28-1.57,1.49-2.34.22-.83.05-1.87-.11-2.88-.21-1.34-.44-2.73.18-3.8.63-1.09,1.96-1.59,3.24-2.08.95-.36,1.93-.73,2.52-1.32.59-.59.96-1.57,1.32-2.52.48-1.28.99-2.6,2.08-3.24,1.07-.62,2.46-.4,3.8-.18,1.01.16,2.06.33,2.88.11.78-.21,1.54-.83,2.34-1.49C22.59.91,23.7,0,25,0s2.4.91,3.48,1.78c.81.66,1.57,1.28,2.35,1.49.83.22,1.87.05,2.88-.11,1.34-.21,2.73-.44,3.8.18,1.09.63,1.59,1.96,2.08,3.24.36.95.73,1.93,1.32,2.52.59.59,1.57.96,2.52,1.32,1.28.48,2.6.99,3.24,2.08.62,1.07.4,2.46.18,3.8-.16,1.01-.33,2.06-.11,2.88.21.78.83,1.54,1.49,2.34.88,1.07,1.78,2.18,1.78,3.48s-.91,2.4-1.78,3.48c-.66.81-1.28,1.57-1.49,2.34-.22.83-.05,1.87.11,2.88.21,1.34.44,2.73-.18,3.8-.63,1.09-1.96,1.59-3.24,2.08-.95.36-1.93.73-2.52,1.32-.59.59-.96,1.57-1.32,2.52-.48,1.28-.99,2.6-2.08,3.24-1.07.62-2.46.4-3.8.18-1.01-.16-2.06-.33-2.88-.11-.78.21-1.54.83-2.34,1.49-1.07.88-2.18,1.78-3.48,1.78h0Z"/><polygon class="cls-6" points="31.38 17.83 34.4 18.64 34.94 13.57 31.59 13.21 31.38 17.83"/><rect class="cls-6" x="12.55" y="14.56" width="15.75" height="2.36" transform="translate(-5.06 11.79) rotate(-28.8)"/><rect class="cls-6" x="30.76" y="9.09" width="2.36" height="15.75" transform="translate(-1.81 29.98) rotate(-49.06)"/><polygon class="cls-6" points="34.81 14.72 34.96 13.37 31.54 13.62 34.81 14.72"/><rect class="cls-6" x="32.49" y="10.67" width="1.63" height="4.63" transform="translate(16.88 44.73) rotate(-83.93)"/><polygon class="cls-5" points="36.29 22.21 36.17 22.19 26.81 12.59 24.98 13.81 15.56 19.69 15.53 20 14.41 30.51 14.41 30.51 14.15 33.03 34.9 35.23 35.17 32.72 35.17 32.72 36.29 22.21"/><rect class="cls-6" x="15.39" y="24.83" width="10.43" height="5.93" transform="translate(-9.21 45.34) rotate(-83.93)"/><rect class="cls-4" x="18.47" y="23.41" width="2.3" height="2.16" transform="translate(-6.81 41.41) rotate(-83.93)"/><rect class="cls-4" x="21.12" y="23.7" width="2.3" height="2.16" transform="translate(-4.72 44.3) rotate(-83.93)"/><rect class="cls-4" x="18.16" y="26.32" width="2.3" height="2.16" transform="translate(-9.97 43.7) rotate(-83.93)"/><rect class="cls-4" x="20.82" y="26.6" width="2.3" height="2.16" transform="translate(-7.88 46.59) rotate(-83.93)"/><rect class="cls-4" x="17.85" y="29.22" width="2.3" height="2.16" transform="translate(-13.14 46) rotate(-83.93)"/><rect class="cls-4" x="20.51" y="29.51" width="2.3" height="2.16" transform="translate(-11.04 48.89) rotate(-83.94)"/><rect class="cls-6" x="12.19" y="27.2" width="10.51" height=".43" transform="translate(-11.65 41.87) rotate(-83.93)"/><rect class="cls-6" x="18.55" y="27.91" width="10.43" height=".43" transform="translate(-6.71 48.8) rotate(-83.95)"/><rect class="cls-6" x="20.94" y="19.13" width=".46" height="6.79" transform="translate(-3.47 41.19) rotate(-83.93)"/><rect class="cls-6" x="26.63" y="22.97" width="6.39" height="6.89" transform="translate(.4 53.28) rotate(-83.93)"/><rect class="cls-4" x="28.78" y="25.33" width="5.2" height="2.61" transform="translate(1.58 55.02) rotate(-83.93)"/><rect class="cls-4" x="25.66" y="25" width="5.2" height="2.61" transform="translate(-.89 51.62) rotate(-83.93)"/><rect class="cls-6" x="29.25" y="25.73" width=".43" height="8.17" transform="translate(-3.3 55.95) rotate(-83.93)"/><g class="cls-1"><path class="cls-6" d="M25.84,53.5c13.82.12,26.04-6.88,33.19-17.57-.81.32-1.74.5-2.75.49-2.44-.02-4.48-1.14-5.14-2.65-.68,1.5-2.75,2.58-5.18,2.56-2.44-.02-4.48-1.14-5.14-2.65-.68,1.5-2.75,2.58-5.18,2.56-2.44-.02-4.48-1.14-5.14-2.65-.68,1.5-2.75,2.58-5.18,2.56-2.44-.02-4.49-1.14-5.14-2.65-.68,1.5-2.75,2.58-5.18,2.56-2.44-.02-4.48-1.14-5.14-2.65-.68,1.5-2.75,2.58-5.18,2.56-2.44-.02-4.48-1.14-5.14-2.65-.68,1.5-2.75,2.58-5.18,2.56-.38,0-.74-.04-1.1-.09C.25,46.36,12.21,53.38,25.84,53.5Z"/></g></svg>