<?xml version="1.0" encoding="UTF-8"?><svg id="Calque_1" xmlns="http://www.w3.org/2000/svg" viewBox="0 0 50 50"><defs><style>.cls-1{letter-spacing:-.01em;}.cls-2{letter-spacing:0em;}.cls-3{letter-spacing:-.02em;}.cls-4{fill:#bfbebe;font-family:MyriadPro-Regular, 'Myriad Pro';font-size:6px;}.cls-5{letter-spacing:0em;}.cls-6{letter-spacing:0em;}.cls-7{fill:#adadf9;}.cls-7,.cls-8,.cls-9{stroke-width:0px;}.cls-8{fill:#fff;}.cls-9{fill:#000091;}.cls-10{letter-spacing:0em;}</style></defs><text class="cls-4" transform="translate(0 -17.77)"><tspan class="cls-3" x="0" y="0">P</tspan><tspan class="cls-1" x="3.1" y="0">r</tspan><tspan x="5" y="0">olonger la du</tspan><tspan class="cls-5" x="38.2" y="0">r</tspan><tspan x="40.1" y="0">ée </tspan><tspan x="0" y="7.2">de vie et la du</tspan><tspan class="cls-2" x="34.76" y="7.2">r</tspan><tspan x="36.7" y="7.2">abili</tspan><tspan class="cls-10" x="47.23" y="7.2">t</tspan><tspan x="49.17" y="7.2">é</tspan><tspan x="0" y="14.4">des équipeme</tspan><tspan class="cls-6" x="35.56" y="14.4">n</tspan><tspan x="38.87" y="14.4">ts</tspan></text><path class="cls-7" d="M25,50c-1.29,0-2.4-.91-3.48-1.78-.81-.66-1.57-1.28-2.34-1.49-.83-.22-1.87-.05-2.88.11-1.34.21-2.73.44-3.8-.18-1.09-.63-1.59-1.96-2.08-3.24-.36-.95-.73-1.93-1.32-2.52-.59-.59-1.57-.96-2.52-1.32-1.28-.48-2.6-.99-3.24-2.08-.62-1.07-.4-2.46-.18-3.8.16-1.01.33-2.06.11-2.88-.21-.78-.83-1.54-1.49-2.34C.91,27.4,0,26.3,0,25s.91-2.4,1.78-3.48c.66-.81,1.28-1.57,1.49-2.34.22-.83.05-1.87-.11-2.88-.21-1.34-.44-2.73.18-3.8.63-1.09,1.96-1.59,3.24-2.08.95-.36,1.93-.73,2.52-1.32.59-.59.96-1.57,1.32-2.52.48-1.28.99-2.6,2.08-3.24,1.07-.62,2.46-.4,3.8-.18,1.01.16,2.06.33,2.88.11.78-.21,1.54-.83,2.34-1.49C22.59.91,23.7,0,25,0s2.4.91,3.48,1.78c.81.66,1.57,1.28,2.35,1.49.83.22,1.87.05,2.88-.11,1.34-.21,2.73-.44,3.8.18,1.09.63,1.59,1.96,2.08,3.24.36.95.73,1.93,1.32,2.52.59.59,1.57.96,2.52,1.32,1.28.48,2.6.99,3.24,2.08.62,1.07.4,2.46.18,3.8-.16,1.01-.33,2.06-.11,2.88.21.78.83,1.54,1.49,2.34.88,1.07,1.78,2.18,1.78,3.48s-.91,2.4-1.78,3.48c-.66.81-1.28,1.57-1.49,2.34-.22.83-.05,1.87.11,2.88.21,1.34.44,2.73-.18,3.8-.63,1.09-1.96,1.59-3.24,2.08-.95.36-1.93.73-2.52,1.32-.59.59-.96,1.57-1.32,2.52-.48,1.28-.99,2.6-2.08,3.24-1.07.62-2.46.4-3.8.18-1.01-.16-2.06-.33-2.88-.11-.78.21-1.54.83-2.34,1.49-1.07.88-2.18,1.78-3.48,1.78h0ZM37.16,46.06l-15.2,1.63,15.2-1.63Z"/><circle class="cls-8" cx="25.03" cy="24.98" r="10.48"/><path class="cls-9" d="M19.74,11.27c.13.29,0,.64-.29.78,0,0-.02,0-.02.01-7.19,3.04-10.55,11.34-7.51,18.53,3.04,7.19,11.34,10.55,18.53,7.51,7.07-2.99,10.46-11.07,7.64-18.21l-.26,1.21c-.06.27-.3.47-.58.47-.04,0-.08,0-.13,0-.32-.07-.52-.38-.45-.7l.65-3.03c.06-.32.37-.53.69-.47.07.01.14.04.2.08l2.62,1.66c.29.16.39.51.24.8s-.51.39-.8.24c-.02-.01-.04-.03-.07-.04l-1.03-.66c.71,1.79,1.08,3.71,1.07,5.64,0,8.46-6.86,15.32-15.32,15.31-8.46,0-15.32-6.86-15.31-15.32,0-6.15,3.69-11.71,9.36-14.11.3-.13.65.01.78.31ZM24.93,13.85c6.21,0,11.24,5.03,11.24,11.24,0,6.21-5.03,11.24-11.24,11.24-6.21,0-11.24-5.03-11.24-11.24,0,0,0-.01,0-.02.02-6.2,5.04-11.22,11.24-11.22ZM14.87,25.07c-.01,5.56,4.49,10.07,10.04,10.08,5.56.01,10.07-4.49,10.08-10.04.01-5.56-4.49-10.07-10.04-10.08,0,0-.01,0-.02,0-5.55,0-10.04,4.5-10.06,10.04ZM24.93,18.83c.33,0,.59-.26.59-.59v-1.04c0-.33-.26-.59-.59-.59s-.59.26-.59.59v1.04c0,.33.26.59.59.59ZM24.93,33.53c.33,0,.59-.26.59-.59v-1.04c0-.33-.26-.59-.59-.59s-.59.26-.59.59v1.04c0,.32.27.58.59.58h0ZM31.76,25.65h1.04c.33,0,.59-.26.59-.59s-.26-.59-.59-.59h-1.04c-.33,0-.59.26-.59.59s.26.59.59.59ZM17.06,25.65h1.04c.33,0,.59-.26.59-.59s-.26-.59-.59-.59h-1.04c-.33,0-.59.26-.59.59s.26.59.59.59ZM29.76,20.84c.16,0,.31-.06.42-.17l.73-.74c.21-.25.18-.62-.06-.83-.22-.19-.55-.19-.77,0l-.73.73c-.23.23-.23.61,0,.84.11.11.26.17.41.17h0ZM19.37,31.23c.16,0,.31-.06.42-.17l.74-.73c.23-.23.23-.6,0-.84s-.6-.23-.84,0h0l-.74.74c-.23.23-.23.6,0,.83,0,0,0,0,0,0,.11.11.26.17.42.17ZM30.08,31.05c.11.11.26.17.42.17.16,0,.31-.06.42-.17.23-.23.23-.6,0-.83,0,0,0,0,0,0l-.73-.74c-.23-.23-.61-.23-.84,0s-.23.61,0,.84h0l.73.73ZM19.69,20.66c.11.11.26.17.42.17.33,0,.59-.27.59-.6,0-.15-.06-.3-.17-.41l-.74-.73c-.22-.24-.6-.25-.83-.03s-.25.6-.03.83c0,.01.02.02.03.03l.74.74ZM26.6,27.9c.11.13.28.2.45.2.14,0,.28-.05.39-.14.25-.21.27-.59.06-.83l-1.97-2.27v-4.21c0-.33-.26-.59-.59-.59s-.59.26-.59.59v4.43c0,.14.05.28.15.39l2.1,2.44Z"/></svg>