<?xml version="1.0" encoding="UTF-8"?><svg id="Calque_1" xmlns="http://www.w3.org/2000/svg" xmlns:xlink="http://www.w3.org/1999/xlink" viewBox="0 0 50 50"><defs><style>.cls-1{clip-path:url(#clippath);}.cls-2,.cls-3{fill:none;}.cls-2,.cls-4,.cls-5,.cls-6{stroke-width:0px;}.cls-7{letter-spacing:0em;}.cls-8{letter-spacing:0em;}.cls-3{stroke:#00008f;stroke-miterlimit:10;stroke-width:.99px;}.cls-9{letter-spacing:0em;}.cls-10{letter-spacing:0em;}.cls-11{letter-spacing:0em;}.cls-12{fill:#bfbebe;font-family:MyriadPro-Regular, 'Myriad Pro';font-size:6px;}.cls-13{letter-spacing:0em;}.cls-4{fill:#ababf8;}.cls-5{fill:#fff;}.cls-6{fill:#00008f;}</style><clipPath id="clippath"><path class="cls-2" d="M25.02,50c-1.29,0-2.4-.91-3.48-1.78-.81-.66-1.57-1.28-2.34-1.49-.83-.22-1.87-.05-2.88.11-1.34.21-2.73.44-3.8-.18-1.09-.63-1.59-1.96-2.08-3.24-.36-.95-.73-1.93-1.32-2.52-.59-.59-1.57-.96-2.52-1.32-1.28-.48-2.6-.99-3.24-2.08-.62-1.07-.4-2.46-.18-3.8.16-1.01.33-2.06.11-2.88-.21-.78-.83-1.54-1.49-2.34C.93,27.4.03,26.3.03,25s.91-2.4,1.78-3.48c.66-.81,1.28-1.57,1.49-2.34.22-.83.05-1.87-.11-2.88-.21-1.34-.44-2.73.18-3.8.63-1.09,1.96-1.59,3.24-2.08.95-.36,1.93-.73,2.52-1.32.59-.59.96-1.57,1.32-2.52.48-1.28.99-2.6,2.08-3.24,1.07-.62,2.46-.4,3.8-.18,1.01.16,2.06.33,2.88.11.78-.21,1.54-.83,2.34-1.49C22.62.91,23.73,0,25.02,0s2.4.91,3.48,1.78c.81.66,1.57,1.28,2.35,1.49.83.22,1.87.05,2.88-.11,1.34-.21,2.73-.44,3.8.18,1.09.63,1.59,1.96,2.08,3.24.36.95.73,1.93,1.32,2.52.59.59,1.57.96,2.52,1.32,1.28.48,2.6.99,3.24,2.08.62,1.07.4,2.46.18,3.8-.16,1.01-.33,2.06-.11,2.88.21.78.83,1.54,1.49,2.34.88,1.07,1.78,2.18,1.78,3.48s-.91,2.4-1.78,3.48c-.66.81-1.28,1.57-1.49,2.34-.22.83-.05,1.87.11,2.88.21,1.34.44,2.73-.18,3.8-.63,1.09-1.96,1.59-3.24,2.08-.95.36-1.93.73-2.52,1.32-.59.59-.96,1.57-1.32,2.52-.48,1.28-.99,2.6-2.08,3.24-1.07.62-2.46.4-3.8.18-1.01-.16-2.06-.33-2.88-.11-.78.21-1.54.83-2.34,1.49-1.07.88-2.18,1.78-3.48,1.78h0Z"/></clipPath></defs><text class="cls-12" transform="translate(0 -17.77)"><tspan class="cls-7" x="0" y="0">R</tspan><tspan x="3.25" y="0">édui</tspan><tspan class="cls-13" x="14.35" y="0">r</tspan><tspan x="16.25" y="0">e les</tspan><tspan class="cls-8" x="0" y="7.2">c</tspan><tspan x="2.65" y="7.2">onsomm</tspan><tspan class="cls-10" x="24.95" y="7.2">a</tspan><tspan class="cls-9" x="27.82" y="7.2">tions</tspan><tspan x="0" y="14.4">éne</tspan><tspan class="cls-11" x="9.34" y="14.4">r</tspan><tspan x="11.26" y="14.4">gétiques</tspan></text><path class="cls-4" d="M24.97,50c-1.29,0-2.4-.91-3.48-1.78-.81-.66-1.57-1.28-2.34-1.49-.83-.22-1.87-.05-2.88.11-1.34.21-2.73.44-3.8-.18-1.09-.63-1.59-1.96-2.08-3.24-.36-.95-.73-1.93-1.32-2.52-.59-.59-1.57-.96-2.52-1.32-1.28-.48-2.6-.99-3.24-2.08-.62-1.07-.4-2.46-.18-3.8.16-1.01.33-2.06.11-2.88-.21-.78-.83-1.54-1.49-2.34C.88,27.4-.03,26.3-.03,25s.91-2.4,1.78-3.48c.66-.81,1.28-1.57,1.49-2.34.22-.83.05-1.87-.11-2.88-.21-1.34-.44-2.73.18-3.8.63-1.09,1.96-1.59,3.24-2.08.95-.36,1.93-.73,2.52-1.32.59-.59.96-1.57,1.32-2.52.48-1.28.99-2.6,2.08-3.24,1.07-.62,2.46-.4,3.8-.18,1.01.16,2.06.33,2.88.11.78-.21,1.54-.83,2.34-1.49C22.57.91,23.68,0,24.97,0s2.4.91,3.48,1.78c.81.66,1.57,1.28,2.35,1.49.83.22,1.87.05,2.88-.11,1.34-.21,2.73-.44,3.8.18,1.09.63,1.59,1.96,2.08,3.24.36.95.73,1.93,1.32,2.52.59.59,1.57.96,2.52,1.32,1.28.48,2.6.99,3.24,2.08.62,1.07.4,2.46.18,3.8-.16,1.01-.33,2.06-.11,2.88.21.78.83,1.54,1.49,2.34.88,1.07,1.78,2.18,1.78,3.48s-.91,2.4-1.78,3.48c-.66.81-1.28,1.57-1.49,2.34-.22.83-.05,1.87.11,2.88.21,1.34.44,2.73-.18,3.8-.63,1.09-1.96,1.59-3.24,2.08-.95.36-1.93.73-2.52,1.32-.59.59-.96,1.57-1.32,2.52-.48,1.28-.99,2.6-2.08,3.24-1.07.62-2.46.4-3.8.18-1.01-.16-2.06-.33-2.88-.11-.78.21-1.54.83-2.34,1.49-1.07.88-2.18,1.78-3.48,1.78h0Z"/><polyline class="cls-3" points="3.32 12.5 9.68 18.11 18.47 20.33 26.51 26.9 34.98 26.17 41.64 27.45"/><circle class="cls-6" cx="9.7" cy="18.11" r="1.82"/><circle class="cls-6" cx="18.47" cy="20.28" r="1.82"/><circle class="cls-6" cx="26.51" cy="26.82" r="1.82"/><circle class="cls-6" cx="34.98" cy="26.17" r="1.82"/><polygon class="cls-6" points="41.84 25.32 40.43 29.58 45.13 28.77 41.84 25.32"/><polygon class="cls-5" points="24.39 6.3 28.98 6.3 27.17 11.79 31.94 11.79 24.39 22.03 25.37 15.18 21.08 15.5 24.39 6.3"/><g class="cls-1"><rect class="cls-6" x="7.3" y="22.93" width="6.43" height="24.4"/><rect class="cls-6" x="15.45" y="26.17" width="6.43" height="24.4"/><rect class="cls-6" x="23.5" y="31.75" width="6.43" height="24.4"/><rect class="cls-6" x="31.96" y="29.92" width="6.43" height="24.4"/></g></svg>