<?xml version="1.0" encoding="UTF-8"?><svg id="Calque_1" xmlns="http://www.w3.org/2000/svg" viewBox="0 0 50 50"><defs><style>.cls-1{stroke-width:1.53px;}.cls-1,.cls-2,.cls-3{fill:none;stroke:#000091;stroke-linecap:round;stroke-miterlimit:10;}.cls-2{stroke-width:1.1px;}.cls-3{stroke-width:2.75px;}.cls-4{fill:#adadf9;}.cls-4,.cls-5{stroke-width:0px;}.cls-5{fill:#fff;}</style></defs><path class="cls-4" d="M25,50c-1.29,0-2.4-.91-3.48-1.78-.81-.66-1.57-1.28-2.34-1.49-.83-.22-1.87-.05-2.88.11-1.34.21-2.73.44-3.8-.18-1.09-.63-1.59-1.96-2.08-3.24-.36-.95-.73-1.93-1.32-2.52-.59-.59-1.57-.96-2.52-1.32-1.28-.48-2.6-.99-3.24-2.08-.62-1.07-.4-2.46-.18-3.8.16-1.01.33-2.06.11-2.88-.21-.78-.83-1.54-1.49-2.34C.91,27.4,0,26.3,0,25s.91-2.4,1.78-3.48c.66-.81,1.28-1.57,1.49-2.34.22-.83.05-1.87-.11-2.88-.21-1.34-.44-2.73.18-3.8.63-1.09,1.96-1.59,3.24-2.08.95-.36,1.93-.73,2.52-1.32.59-.59.96-1.57,1.32-2.52.48-1.28.99-2.6,2.08-3.24,1.07-.62,2.46-.4,3.8-.18,1.01.16,2.06.33,2.88.11.78-.21,1.54-.83,2.34-1.49C22.59.91,23.7,0,25,0s2.4.91,3.48,1.78c.81.66,1.57,1.28,2.35,1.49.83.22,1.87.05,2.88-.11,1.34-.21,2.73-.44,3.8.18,1.09.63,1.59,1.96,2.08,3.24.36.95.73,1.93,1.32,2.52.59.59,1.57.96,2.52,1.32,1.28.48,2.6.99,3.24,2.08.62,1.07.4,2.46.18,3.8-.16,1.01-.33,2.06-.11,2.88.21.78.83,1.54,1.49,2.34.88,1.07,1.78,2.18,1.78,3.48s-.91,2.4-1.78,3.48c-.66.81-1.28,1.57-1.49,2.34-.22.83-.05,1.87.11,2.88.21,1.34.44,2.73-.18,3.8-.63,1.09-1.96,1.59-3.24,2.08-.95.36-1.93.73-2.52,1.32-.59.59-.96,1.57-1.32,2.52-.48,1.28-.99,2.6-2.08,3.24-1.07.62-2.46.4-3.8.18-1.01-.16-2.06-.33-2.88-.11-.78.21-1.54.83-2.34,1.49-1.07.88-2.18,1.78-3.48,1.78h0ZM37.16,46.06l-15.2,1.63,15.2-1.63Z"/><path class="cls-5" d="M16.45,25.32s-1.13-2.98-.95-5.53c.07-1.07.21-2.13.73-3.06.86-1.53,2.66-3.87,5.98-4.94,0,0,8.2-3.13,11.53,5.65.2.52.28,1.07.28,1.63,0,1.63-.4,5.04-3.28,8.36l-3.06,3.89c-.08.11-.16.21-.24.33-.36.55-1.39,2.23-1.38,3.49,0,0-.16.79-.64,1.72-1.71,3.28-6.53,3.41-8.37.2-.37-.65-.59-1.44-.51-2.4,0,0-.2-2.12.21-3.93.05-.22.09-.44.12-.66.08-.87.36-2.88-.44-4.74Z"/><path class="cls-2" d="M16.03,17.1s1.97-6.18,9.96-6.18c0,0,4.36-.2,6.89,3.87,1.32,2.11,1.6,4.73.85,7.11-.57,1.81-1.73,4.14-4.05,6.57,0,0-2.33,2.3-3.43,6.28,0,0-.9,4.41-4.89,4.59-.13,0-.26,0-.38-.02-.78-.11-3.54-.74-4.38-4.22"/><path class="cls-2" d="M20.72,27.18s1.87,0,2.22-2.14c.11-.69-.13-1.38-.62-1.87-.28-.29-.64-.59-1.05-.79-.79-.4-1.47-1-1.79-1.83-.25-.66-.32-1.51.14-2.5,0,0,1.17-4.09,6.57-3.14,0,0,3.72.58,3.72,4.83"/><path class="cls-2" d="M27.13,21.56s2,1.43.78,4.21c0,0-.54,1.63-3.05,2.92,0,0-1.43.85-2.14,3.12,0,0-.49,1.14-1.71,1.53-.83.26-1.74-.07-2.21-.8-.33-.52-.56-1.28-.25-2.29"/><line class="cls-1" x1="6.63" y1="22.8" x2="9.19" y2="24.4"/><line class="cls-1" x1="8.71" y1="22.32" x2="7.11" y2="24.88"/><line class="cls-1" x1="39.38" y1="19.63" x2="41.94" y2="21.23"/><line class="cls-1" x1="41.47" y1="19.15" x2="39.86" y2="21.71"/><line class="cls-3" x1="34.79" y1="31.75" x2="39.38" y2="34.63"/><line class="cls-3" x1="38.53" y1="30.89" x2="35.65" y2="35.49"/></svg>