<?xml version="1.0" encoding="UTF-8"?><svg id="Calque_1" xmlns="http://www.w3.org/2000/svg" viewBox="0 0 50 50"><defs><style>.cls-1{stroke-linecap:round;stroke-linejoin:round;stroke-width:.49px;}.cls-1,.cls-2{stroke:#fff;}.cls-1,.cls-3{fill:#000091;}.cls-2{fill:none;stroke-linecap:square;stroke-miterlimit:10;stroke-width:1.63px;}.cls-4{fill:#adadf9;}.cls-4,.cls-5,.cls-3{stroke-width:0px;}.cls-5{fill:#fff;}</style></defs><path class="cls-4" d="M25,50c-1.29,0-2.4-.91-3.48-1.78-.81-.66-1.57-1.28-2.34-1.49-.83-.22-1.87-.05-2.88.11-1.34.21-2.73.44-3.8-.18-1.09-.63-1.59-1.96-2.08-3.24-.36-.95-.73-1.93-1.32-2.52-.59-.59-1.57-.96-2.52-1.32-1.28-.48-2.6-.99-3.24-2.08-.62-1.07-.4-2.46-.18-3.8.16-1.01.33-2.06.11-2.88-.21-.78-.83-1.54-1.49-2.34C.91,27.4,0,26.3,0,25s.91-2.4,1.78-3.48c.66-.81,1.28-1.57,1.49-2.34.22-.83.05-1.87-.11-2.88-.21-1.34-.44-2.73.18-3.8.63-1.09,1.96-1.59,3.24-2.08.95-.36,1.93-.73,2.52-1.32.59-.59.96-1.57,1.32-2.52.48-1.28.99-2.6,2.08-3.24,1.07-.62,2.46-.4,3.8-.18,1.01.16,2.06.33,2.88.11.78-.21,1.54-.83,2.34-1.49C22.59.91,23.7,0,25,0s2.4.91,3.48,1.78c.81.66,1.57,1.28,2.35,1.49.83.22,1.87.05,2.88-.11,1.34-.21,2.73-.44,3.8.18,1.09.63,1.59,1.96,2.08,3.24.36.95.73,1.93,1.32,2.52.59.59,1.57.96,2.52,1.32,1.28.48,2.6.99,3.24,2.08.62,1.07.4,2.46.18,3.8-.16,1.01-.33,2.06-.11,2.88.21.78.83,1.54,1.49,2.34.88,1.07,1.78,2.18,1.78,3.48s-.91,2.4-1.78,3.48c-.66.81-1.28,1.57-1.49,2.34-.22.83-.05,1.87.11,2.88.21,1.34.44,2.73-.18,3.8-.63,1.09-1.96,1.59-3.24,2.08-.95.36-1.93.73-2.52,1.32-.59.59-.96,1.57-1.32,2.52-.48,1.28-.99,2.6-2.08,3.24-1.07.62-2.46.4-3.8.18-1.01-.16-2.06-.33-2.88-.11-.78.21-1.54.83-2.34,1.49-1.07.88-2.18,1.78-3.48,1.78h0ZM37.16,46.06l-15.2,1.63,15.2-1.63Z"/><path class="cls-3" d="M17.77,33.66v2.06c0,.49-.4.89-.89.89h-2.67c-.49,0-.89-.4-.89-.89v-3.19c-.56-.34-.89-.75-.89-1.27v-3.56c0-1.1.5-2.09,1.29-2.74-.74-.21-1.29-.9-1.29-1.71,0-.98.8-1.78,1.78-1.78h1.19l.59-1.78c.89-2.67,3.56-2.67,3.56-2.67h10.69s2.67,0,3.56,2.67l.59,1.78h1.19c.98,0,1.78.8,1.78,1.78,0,.81-.54,1.5-1.29,1.71.79.65,1.29,1.64,1.29,2.74v3.56c0,.52-.33.93-.89,1.27v3.19c0,.49-.4.89-.89.89h-2.67c-.49,0-.89-.4-.89-.89v-2.06c-2.57.28-5.44.28-7.13.28s-4.56,0-7.13-.28h0Z"/><path class="cls-5" d="M34.36,24.14l-1.39-4.17c-.28-.83-.81-1.45-1.62-1.8-.3-.13-.77-.26-1.1-.26h-10.69c-.33,0-.81.13-1.1.26-.81.35-1.34.97-1.62,1.8l-1.39,4.17h18.91Z"/><path class="cls-5" d="M28.91,29.49h-8.02c-.25,0-.45.2-.45.45s.2.45.45.45h8.02c.25,0,.45-.2.45-.45s-.2-.45-.45-.45h0Z"/><path class="cls-5" d="M33.81,26.81c-.98,0-1.78.8-1.78,1.78s.8,1.78,1.78,1.78,1.78-.8,1.78-1.78-.8-1.78-1.78-1.78h0Z"/><path class="cls-5" d="M15.99,26.81c-.98,0-1.78.8-1.78,1.78s.8,1.78,1.78,1.78,1.78-.8,1.78-1.78-.8-1.78-1.78-1.78h0Z"/><path class="cls-5" d="M20,27.7c-.25,0-.45.2-.45.45s.2.45.45.45h9.8c.25,0,.45-.2.45-.45s-.2-.45-.45-.45h-9.8Z"/><circle class="cls-1" cx="32.03" cy="15.48" r="5.54"/><line class="cls-2" x1="29.86" y1="15.48" x2="34.2" y2="15.48"/></svg>