<?xml version="1.0" encoding="UTF-8"?><svg id="Calque_1" xmlns="http://www.w3.org/2000/svg" viewBox="0 0 50 50"><defs><style>.cls-1{letter-spacing:0em;}.cls-2{letter-spacing:0em;}.cls-3{letter-spacing:0em;}.cls-4{fill:#bfbebe;font-family:MyriadPro-Regular, 'Myriad Pro';font-size:6px;}.cls-5{letter-spacing:0em;}.cls-6{letter-spacing:0em;}.cls-7{fill:#ababf8;}.cls-7,.cls-8,.cls-9{stroke-width:0px;}.cls-8{fill:#fff;}.cls-9{fill:#00008f;}</style></defs><text class="cls-4" transform="translate(0 -17.77)"><tspan class="cls-1" x="0" y="0">R</tspan><tspan x="3.25" y="0">end</tspan><tspan class="cls-5" x="12.97" y="0">r</tspan><tspan x="14.87" y="0">e les espa</tspan><tspan class="cls-2" x="38.91" y="0">c</tspan><tspan x="41.56" y="0">es</tspan><tspan x="0" y="7.2">publics plus</tspan><tspan x="0" y="14.4">a</tspan><tspan class="cls-2" x="2.89" y="14.4">c</tspan><tspan x="5.54" y="14.4">cueilla</tspan><tspan class="cls-6" x="21.67" y="14.4">n</tspan><tspan class="cls-3" x="24.98" y="14.4">ts</tspan></text><path class="cls-7" d="M25,49.88c-1.29,0-2.4-.91-3.48-1.78-.81-.66-1.57-1.28-2.34-1.49-.83-.22-1.87-.05-2.88.11-1.34.21-2.73.44-3.8-.18-1.09-.63-1.59-1.96-2.08-3.24-.36-.95-.73-1.93-1.32-2.52-.59-.59-1.57-.96-2.52-1.32-1.28-.48-2.6-.99-3.24-2.08-.62-1.07-.4-2.46-.18-3.8.16-1.01.33-2.06.11-2.88-.21-.78-.83-1.54-1.49-2.34C.91,27.28,0,26.18,0,24.88s.91-2.4,1.78-3.48c.66-.81,1.28-1.57,1.49-2.34.22-.83.05-1.87-.11-2.88-.21-1.34-.44-2.73.18-3.8.63-1.09,1.96-1.59,3.24-2.08.95-.36,1.93-.73,2.52-1.32.59-.59.96-1.57,1.32-2.52.48-1.28.99-2.6,2.08-3.24,1.07-.62,2.46-.4,3.8-.18,1.01.16,2.06.33,2.88.11.78-.21,1.54-.83,2.34-1.49,1.07-.88,2.18-1.78,3.48-1.78s2.4.91,3.48,1.78c.81.66,1.57,1.28,2.35,1.49.83.22,1.87.05,2.88-.11,1.34-.21,2.73-.44,3.8.18,1.09.63,1.59,1.96,2.08,3.24.36.95.73,1.93,1.32,2.52.59.59,1.57.96,2.52,1.32,1.28.48,2.6.99,3.24,2.08.62,1.07.4,2.46.18,3.8-.16,1.01-.33,2.06-.11,2.88.21.78.83,1.54,1.49,2.34.88,1.07,1.78,2.18,1.78,3.48s-.91,2.4-1.78,3.48c-.66.81-1.28,1.57-1.49,2.34-.22.83-.05,1.87.11,2.88.21,1.34.44,2.73-.18,3.8-.63,1.09-1.96,1.59-3.24,2.08-.95.36-1.93.73-2.52,1.32-.59.59-.96,1.57-1.32,2.52-.48,1.28-.99,2.6-2.08,3.24-1.07.62-2.46.4-3.8.18-1.01-.16-2.06-.33-2.88-.11-.78.21-1.54.83-2.34,1.49-1.07.88-2.18,1.78-3.48,1.78h0Z"/><ellipse class="cls-8" cx="35.31" cy="22.94" rx="4.2" ry="6.61"/><path class="cls-9" d="M16.21,31.76h2.27c.14,0,.27-.05.37-.14l5.64-5.13.42,1.66c-1.69.73-2.47,2.69-1.74,4.37.73,1.69,2.69,2.47,4.37,1.74,1.69-.73,2.47-2.69,1.74-4.37-.52-1.22-1.72-2.01-3.04-2.01h-.26l-1.41-5.68c-.06-.25-.29-.43-.55-.42h-2.77v1.11h2.34l.55,2.22h-6.41l-.24-1.11h1.53v-1.11h-4.44v1.11h1.77l.34,1.6-2.16,2.7c-1.61-.89-3.63-.32-4.53,1.29-.89,1.61-.32,3.63,1.29,4.53,1.61.89,3.63.32,4.53-1.29.18-.33.31-.69.37-1.06ZM28.46,31.21c0,1.23-.98,2.22-2.21,2.23-1.23,0-2.22-.98-2.23-2.21,0-.82.44-1.57,1.16-1.96l.5,2.07,1.11-.27-.55-2.09c1.23,0,2.22.99,2.22,2.22ZM14.7,29.88c.17.23.3.49.37.77h-.99l.62-.77ZM23.14,26.22l-4.33,3.93-.84-3.93h5.17ZM17.79,30.66h-1.58c-.1-.62-.38-1.2-.8-1.66l1.6-2,.78,3.66ZM12.93,33.43c-1.23,0-2.22-.99-2.22-2.22s.99-2.22,2.22-2.22c.31,0,.62.07.9.2l-1.34,1.66c-.12.16-.15.37-.07.55.08.21.28.35.5.35h2.14c-.25.98-1.13,1.66-2.14,1.66Z"/><path class="cls-8" d="M15.11,13.42c.09,0,.18,0,.27.02.05-1.15.99-2.06,2.15-2.06.4,0,.77.11,1.09.3.32-.94,1.2-1.61,2.25-1.61,1.22,0,2.23.92,2.36,2.11.11-.01.22-.03.34-.03,1.36,0,2.47,1.11,2.47,2.47s-1.07,2.43-2.4,2.46h0s-8.47,0-8.47,0h0s-.02,0-.04,0c-1.01,0-1.83-.82-1.83-1.83s.82-1.83,1.83-1.83Z"/><rect class="cls-9" x="9.02" y="33.72" width="30.45" height=".82"/><rect class="cls-9" x="33.03" y="31.38" width="4.56" height=".92" transform="translate(67.15 -3.47) rotate(90)"/><path class="cls-9" d="M34.84,27.24v2.32c-1.46-.1-2.9-.68-4.01-1.73-1.57-1.48-2.37-3.18-2.37-5.05,0-3.21,2.3-7.04,6.85-11.4,4.54,4.35,6.85,8.18,6.85,11.39,0,1.87-.8,3.57-2.37,5.05-1.12,1.05-2.55,1.63-4.01,1.73v-2.32l2.31-2.31-.66-.66-1.65,1.65v-2.82l2.31-2.31-.66-.66-1.65,1.65v-4.63h-.93v1.82l-1.65-1.65-.66.66,2.31,2.31v1.5l-.73-.73-.66.66,1.39,1.39v2.82l-1.65-1.65-.66.66,2.31,2.31Z"/></svg>