<?xml version="1.0" encoding="UTF-8"?><svg id="Calque_1" xmlns="http://www.w3.org/2000/svg" viewBox="0 0 50 50"><defs><style>.cls-1{fill:#adadf9;}.cls-1,.cls-2,.cls-3{stroke-width:0px;}.cls-2{fill:#fff;}.cls-3{fill:#000091;}</style></defs><path class="cls-1" d="M25,50c-1.29,0-2.4-.91-3.48-1.78-.81-.66-1.57-1.28-2.34-1.49-.83-.22-1.87-.05-2.88.11-1.34.21-2.73.44-3.8-.18-1.09-.63-1.59-1.96-2.08-3.24-.36-.95-.73-1.93-1.32-2.52-.59-.59-1.57-.96-2.52-1.32-1.28-.48-2.6-.99-3.24-2.08-.62-1.07-.4-2.46-.18-3.8.16-1.01.33-2.06.11-2.88-.21-.78-.83-1.54-1.49-2.34C.91,27.4,0,26.3,0,25s.91-2.4,1.78-3.48c.66-.81,1.28-1.57,1.49-2.34.22-.83.05-1.87-.11-2.88-.21-1.34-.44-2.73.18-3.8.63-1.09,1.96-1.59,3.24-2.08.95-.36,1.93-.73,2.52-1.32.59-.59.96-1.57,1.32-2.52.48-1.28.99-2.6,2.08-3.24,1.07-.62,2.46-.4,3.8-.18,1.01.16,2.06.33,2.88.11.78-.21,1.54-.83,2.34-1.49C22.59.91,23.7,0,25,0s2.4.91,3.48,1.78c.81.66,1.57,1.28,2.35,1.49.83.22,1.87.05,2.88-.11,1.34-.21,2.73-.44,3.8.18,1.09.63,1.59,1.96,2.08,3.24.36.95.73,1.93,1.32,2.52.59.59,1.57.96,2.52,1.32,1.28.48,2.6.99,3.24,2.08.62,1.07.4,2.46.18,3.8-.16,1.01-.33,2.06-.11,2.88.21.78.83,1.54,1.49,2.34.88,1.07,1.78,2.18,1.78,3.48s-.91,2.4-1.78,3.48c-.66.81-1.28,1.57-1.49,2.34-.22.83-.05,1.87.11,2.88.21,1.34.44,2.73-.18,3.8-.63,1.09-1.96,1.59-3.24,2.08-.95.36-1.93.73-2.52,1.32-.59.59-.96,1.57-1.32,2.52-.48,1.28-.99,2.6-2.08,3.24-1.07.62-2.46.4-3.8.18-1.01-.16-2.06-.33-2.88-.11-.78.21-1.54.83-2.34,1.49-1.07.88-2.18,1.78-3.48,1.78h0ZM37.16,46.06l-15.2,1.63,15.2-1.63Z"/><circle class="cls-2" cx="25.24" cy="24.4" r="10.59"/><path class="cls-3" d="M25.24,35.69c-6.24,0-11.29-5.06-11.29-11.29,0-6.24,5.06-11.29,11.29-11.29,6.24,0,11.29,5.06,11.29,11.29h0c0,6.23-5.06,11.29-11.29,11.29ZM25.24,14.3c-5.58,0-10.1,4.52-10.1,10.1s4.52,10.1,10.1,10.1,10.1-4.52,10.1-10.1c0,0,0,0,0,0,0-5.58-4.53-10.1-10.1-10.1Z"/><ellipse class="cls-3" cx="21.74" cy="20.7" rx="1.12" ry="1.54"/><ellipse class="cls-3" cx="28.73" cy="20.7" rx="1.12" ry="1.54"/><path class="cls-3" d="M25.24,31.65c-3.51,0-6.36-2.74-6.36-6.1,0-.33.27-.59.59-.59s.59.27.59.59c0,2.71,2.32,4.91,5.17,4.91s5.17-2.2,5.17-4.91c0-.33.27-.59.59-.59s.59.27.59.59c0,3.36-2.85,6.1-6.36,6.1Z"/></svg>