<?xml version="1.0" encoding="UTF-8"?><svg id="Calque_1" xmlns="http://www.w3.org/2000/svg" viewBox="0 0 50 50"><defs><style>.cls-1{fill:#adadf9;}.cls-1,.cls-2,.cls-3{stroke-width:0px;}.cls-2{fill:#fff;}.cls-3{fill:#000091;}</style></defs><path class="cls-1" d="M25,50c-1.29,0-2.4-.91-3.48-1.78-.81-.66-1.57-1.28-2.34-1.49-.83-.22-1.87-.05-2.88.11-1.34.21-2.73.44-3.8-.18-1.09-.63-1.59-1.96-2.08-3.24-.36-.95-.73-1.93-1.32-2.52-.59-.59-1.57-.96-2.52-1.32-1.28-.48-2.6-.99-3.24-2.08-.62-1.07-.4-2.46-.18-3.8.16-1.01.33-2.06.11-2.88-.21-.78-.83-1.54-1.49-2.34C.91,27.4,0,26.3,0,25s.91-2.4,1.78-3.48c.66-.81,1.28-1.57,1.49-2.34.22-.83.05-1.87-.11-2.88-.21-1.34-.44-2.73.18-3.8.63-1.09,1.96-1.59,3.24-2.08.95-.36,1.93-.73,2.52-1.32.59-.59.96-1.57,1.32-2.52.48-1.28.99-2.6,2.08-3.24,1.07-.62,2.46-.4,3.8-.18,1.01.16,2.06.33,2.88.11.78-.21,1.54-.83,2.34-1.49C22.59.91,23.7,0,25,0s2.4.91,3.48,1.78c.81.66,1.57,1.28,2.35,1.49.83.22,1.87.05,2.88-.11,1.34-.21,2.73-.44,3.8.18,1.09.63,1.59,1.96,2.08,3.24.36.95.73,1.93,1.32,2.52.59.59,1.57.96,2.52,1.32,1.28.48,2.6.99,3.24,2.08.62,1.07.4,2.46.18,3.8-.16,1.01-.33,2.06-.11,2.88.21.78.83,1.54,1.49,2.34.88,1.07,1.78,2.18,1.78,3.48s-.91,2.4-1.78,3.48c-.66.81-1.28,1.57-1.49,2.34-.22.83-.05,1.87.11,2.88.21,1.34.44,2.73-.18,3.8-.63,1.09-1.96,1.59-3.24,2.08-.95.36-1.93.73-2.52,1.32-.59.59-.96,1.57-1.32,2.52-.48,1.28-.99,2.6-2.08,3.24-1.07.62-2.46.4-3.8.18-1.01-.16-2.06-.33-2.88-.11-.78.21-1.54.83-2.34,1.49-1.07.88-2.18,1.78-3.48,1.78h0ZM37.16,46.06l-15.2,1.63,15.2-1.63Z"/><path class="cls-2" d="M29.69,19.46h0s0,0,0,0l-.79-.47c-4.28-2.3-9.2-1.55-11.69,2.68h0c-2.49,4.23-1.63,10.39,2.4,13.1l.8.45h0s.08.05.12.07l.08.05h0c4.31,2.03,9.96-.2,12.41-4.37,2.49-4.23.75-8.9-3.33-11.52Z"/><path class="cls-3" d="M32.9,20.28c.74-1.26.64-2.77-.12-3.91l1.55-1.35,3.03-.79c.25-.06.39-.31.33-.56s-.31-.39-.56-.33l-3.14.81c-.07.02-.13.05-.19.1l-1.63,1.42c-.18-.16-.37-.3-.58-.42s-.43-.22-.65-.3l.45-2.11c.01-.07.01-.14,0-.21l-.81-3.14c-.06-.25-.31-.39-.56-.33s-.39.31-.33.56l.79,3.03-.43,2.01c-1.36-.11-2.73.54-3.47,1.79-.1.16-.17.33-.24.5,1.14.26,2.28.7,3.4,1.36s2.06,1.45,2.84,2.31c.12-.14.22-.29.32-.45Z"/><path class="cls-3" d="M21.73,14.04l-.48,1.64c-.03.12-.02.24.04.35l.56,1.02c.31-.08.62-.14.94-.18l-.6-1.11.48-1.63c.03-.11.02-.23-.03-.33l-.72-1.49c-.11-.23-.39-.32-.61-.21-.23.11-.32.38-.21.61l.64,1.33h0Z"/><path class="cls-3" d="M15.23,21.08c-.09-.02-.19-.01-.27.03l-2.12.88c-.23.1-.34.37-.25.6.04.1.11.17.19.22.12.07.27.09.41.03l1.98-.83.71.15c.13-.29.28-.57.44-.84l-1.1-.23h0Z"/><path class="cls-3" d="M14.99,31.81l-1.77.46c-.25.06-.39.31-.33.56.03.12.11.22.21.28s.23.08.35.05l1.88-.49c.08-.02.14-.06.2-.11l.51-.48c-.15-.29-.28-.58-.4-.88l-.65.62Z"/><path class="cls-3" d="M25.19,37.81l.23-.87c-.32.04-.65.07-.97.08l-.18.68c-.02.08-.02.15,0,.23l.49,1.88c.03.12.11.22.21.28s.23.08.35.05c.25-.06.39-.31.33-.56,0,0-.46-1.77-.46-1.77Z"/><path class="cls-3" d="M34.82,34.92l-.26-2.28c-.01-.09-.05-.18-.11-.25l-.74-.85c-.16.27-.34.54-.52.79l.48.55.24,2.14c.02.15.1.27.22.34.08.05.18.07.28.06.25-.03.43-.25.4-.51h0Z"/><path class="cls-3" d="M35.92,24.64c.12,0,.24-.05.32-.14l1.2-1.22,1.47-.08c.25-.01.45-.23.43-.48s-.23-.45-.48-.43l-1.65.09c-.11,0-.22.06-.3.14l-1.19,1.21h-1.26c.12.31.21.62.3.93h1.16s0,0,0,0Z"/><path class="cls-3" d="M17.18,21.67c-2.49,4.23-1.63,10.39,2.4,13.1l6.3-10.72c-.58-.58-.72-1.49-.29-2.22s1.3-1.05,2.08-.83l1.19-2.02c-4.28-2.3-9.2-1.55-11.69,2.68h0ZM17.62,27.25c-.65-.39-.87-1.23-.49-1.88s1.23-.87,1.88-.49.87,1.23.49,1.88-1.23.87-1.88.49ZM19.46,30.46c.44.26.58.82.33,1.26s-.82.58-1.26.33-.58-.82-.33-1.26.82-.58,1.26-.33ZM22.29,22.02c-.39.65-1.23.87-1.88.49s-.87-1.23-.49-1.88,1.23-.87,1.88-.49.87,1.23.49,1.88Z"/><path class="cls-3" d="M29.65,19.46l-1.19,2.02c.58.58.72,1.49.29,2.22s-1.3,1.05-2.08.83l-6.3,10.72c4.33,2.21,10.13-.03,12.62-4.27,2.49-4.23.75-8.9-3.33-11.52h0ZM23.27,34.83c-.44-.26-.58-.82-.33-1.26s.82-.58,1.26-.33.58.82.33,1.26-.82.58-1.26.33ZM27.9,33.3c-.65-.39-.87-1.23-.49-1.88s1.23-.87,1.88-.49.87,1.23.49,1.88-1.23.87-1.88.49ZM32.57,28.07c-.39.65-1.23.87-1.88.49s-.87-1.23-.49-1.88,1.23-.87,1.88-.49.87,1.23.49,1.88Z"/></svg>