<?xml version="1.0" encoding="UTF-8"?><svg id="Calque_1" xmlns="http://www.w3.org/2000/svg" viewBox="0 0 50 50"><defs><style>.cls-1{stroke:#00008f;stroke-miterlimit:10;stroke-width:.28px;}.cls-1,.cls-2{fill:#00008f;}.cls-3{fill:#ababf8;}.cls-3,.cls-4,.cls-2{stroke-width:0px;}.cls-4{fill:#fff;}</style></defs><path class="cls-3" d="M25,50c-1.29,0-2.4-.91-3.48-1.78-.81-.66-1.57-1.28-2.34-1.49-.83-.22-1.87-.05-2.88.11-1.34.21-2.73.44-3.8-.18-1.09-.63-1.59-1.96-2.08-3.24-.36-.95-.73-1.93-1.32-2.52-.59-.59-1.57-.96-2.52-1.32-1.28-.48-2.6-.99-3.24-2.08-.62-1.07-.4-2.46-.18-3.8.16-1.01.33-2.06.11-2.88-.21-.78-.83-1.54-1.49-2.34C.91,27.4,0,26.3,0,25s.91-2.4,1.78-3.48c.66-.81,1.28-1.57,1.49-2.34.22-.83.05-1.87-.11-2.88-.21-1.34-.44-2.73.18-3.8.63-1.09,1.96-1.59,3.24-2.08.95-.36,1.93-.73,2.52-1.32.59-.59.96-1.57,1.32-2.52.48-1.28.99-2.6,2.08-3.24,1.07-.62,2.46-.4,3.8-.18,1.01.16,2.06.33,2.88.11.78-.21,1.54-.83,2.34-1.49C22.59.91,23.7,0,25,0s2.4.91,3.48,1.78c.81.66,1.57,1.28,2.35,1.49.83.22,1.87.05,2.88-.11,1.34-.21,2.73-.44,3.8.18,1.09.63,1.59,1.96,2.08,3.24.36.95.73,1.93,1.32,2.52.59.59,1.57.96,2.52,1.32,1.28.48,2.6.99,3.24,2.08.62,1.07.4,2.46.18,3.8-.16,1.01-.33,2.06-.11,2.88.21.78.83,1.54,1.49,2.34.88,1.07,1.78,2.18,1.78,3.48s-.91,2.4-1.78,3.48c-.66.81-1.28,1.57-1.49,2.34-.22.83-.05,1.87.11,2.88.21,1.34.44,2.73-.18,3.8-.63,1.09-1.96,1.59-3.24,2.08-.95.36-1.93.73-2.52,1.32-.59.59-.96,1.57-1.32,2.52-.48,1.28-.99,2.6-2.08,3.24-1.07.62-2.46.4-3.8.18-1.01-.16-2.06-.33-2.88-.11-.78.21-1.54.83-2.34,1.49-1.07.88-2.18,1.78-3.48,1.78h0Z"/><path class="cls-4" d="M29.46,20.47c.4.27.93.3,1.37.09.43.45,1.22.45,1.65,0,.88.21,1.73-.62,1.53-1.5-.06-.28-.21-.53-.42-.71.14-1.12-1.17-1.96-2.13-1.37-.74-.43-1.75.18-1.72,1.04-1.03.36-1.21,1.86-.28,2.45h0Z"/><path class="cls-4" d="M18.68,14.2s1.96.14,2.44,1.48l1.34.17c4.75-1.23,4.74,3.65,4.74,3.65.54.09,1.11,1.4,1.11,1.4.63.92-.91,3-.91,3,.43.39.23,1.38.23,1.38.09,1.11-1.68,1.88-1.68,1.88-1.59,4.59-4.47,1.42-4.47,1.42-3.31,3.79-5.45.31-5.45.31-1.92,1.31-3.98.23-3.98.23-2.34.77-3.22-1.91-3.22-1.91-2.46-.97-2.01-2.76-2.01-2.76-.03-1.7,1.76-2.25,1.76-2.25l.02-.89c-.31-3.91,3.13-3.98,3.13-3.98l.14-.48c.63-3.08,4.15-1.45,4.15-1.45,0,0,.49-1.34,2.66-1.2h0Z"/><path class="cls-1" d="M17.25,14.66c.21.09.45,0,.54-.23.15-.37.34-.59.57-.67.58-.2,1.38.31,2.21,1.38,2.46,2.69,5.09,13.42,2.87,14.49-.65.31-1.13-.69-1.56-.09-.37.67.91,1,1.27,1l3.06,8.7c.14.39.5.65.9.65.64.02,1.13-.71.9-1.32l-3.05-8.66c4.63-2.27,4.4-3.32,10.31-5.84,3.68-1.57,9.25-4.84,8.07-7.31-.21-.31-.76-.79-2.1-.47-5.87.65-6.05.08-12.6-2.78-3.46-1.65-7.33-1.82-10.53-.54-.46.16-.82.54-1.07,1.15-.09.22,0,.47.22.56h0ZM27.49,39.76c-.04.09-.19.11-.23-.01l-3.3-9.42c.08-.03.16-.06.23-.1,0,.09,3.38,9.44,3.3,9.53h0ZM28.3,14.27c6.61,2.9,7.08,3.55,13.12,2.83.74-.17,1.13-.04,1.24.12.22,1.83-4.3,4.6-7.71,6.04-5.82,2.48-5.75,3.55-10.13,5.76,1.14-4.14-1.53-13.26-4.93-15.74,1.85-.46,4.67-.71,8.42.99Z"/><path class="cls-2" d="M13.58,20.2c-1.13,0-2.08.94-2.08,2.08s.92,2.08,2.08,2.08c.56,0,1.09-.21,1.46-.62.17-.17.17-.43,0-.6-.17-.17-.43-.17-.6,0-.21.24-.54.36-.86.36-.66,0-1.22-.54-1.22-1.22s.54-1.22,1.22-1.22c.39,0,.73.15.96.45.15.19.41.21.6.06s.21-.41.06-.6c-.41-.49-.98-.77-1.63-.77h0Z"/><path class="cls-2" d="M17.62,20.33c-1.11,0-2.01.9-2.01,2.01s.9,2.01,2.01,2.01,2.01-.9,2.01-2.01-.9-2.01-2.01-2.01ZM17.62,23.49c-.64,0-1.16-.51-1.16-1.16s.51-1.16,1.16-1.16,1.16.51,1.16,1.16-.51,1.16-1.16,1.16Z"/><path class="cls-2" d="M23.04,22.59c0-.61-.58-1.08-1.35-1.08s-1.35.45-1.37,1.08c0,.2.16.36.36.36s.36-.16.36-.36c0-.31.42-.38.63-.38.23,0,.63.09.63.36,0,.16-.47.43-.78.61-.56.32-1.21.7-1.21,1.35,0,.2.16.36.36.36h1.95c.2,0,.36-.16.38-.34,0-.2-.16-.36-.36-.36h-1.32c.16-.13.38-.25.58-.36.56-.32,1.14-.65,1.14-1.25h0Z"/></svg>