<svg width="59" height="46" viewBox="0 0 59 46" fill="none" xmlns="http://www.w3.org/2000/svg">
    <path fill-rule="evenodd" clip-rule="evenodd" d="M42 21C42 22.6569 40.6569 24 39 24C37.3432 24 36 22.6569 36 21C36 19.3431 37.3432 18 39 18C40.6569 18 42 19.3431 42 21ZM44 21C44 23.7614 41.7614 26 39 26C36.2386 26 34 23.7614 34 21C34 18.2386 36.2386 16 39 16C41.7614 16 44 18.2386 44 21ZM42.2071 37.7071C41.8166 38.0976 41.1834 38.0976 40.7929 37.7071L23.647 20.5612C23.2684 20.1826 22.6588 20.1693 22.2641 20.5311L17.6757 24.7372C17.2686 25.1103 16.636 25.0828 16.2629 24.6757C15.8897 24.2686 15.9172 23.636 16.3243 23.2628L20.9127 19.0568C22.0967 17.9715 23.9254 18.0112 25.0612 19.147L38.013 32.0988L43.8254 27.0613C45.0823 25.972 46.9856 26.1132 48.068 27.376L49.7593 29.3492C50.1187 29.7685 50.0701 30.3998 49.6508 30.7592C49.2315 31.1187 48.6002 31.0701 48.2408 30.6508L46.5495 28.6776C46.1887 28.2567 45.5543 28.2096 45.1353 28.5727L39.4308 33.5166L42.2071 36.2929C42.5976 36.6834 42.5976 37.3166 42.2071 37.7071Z" fill="#E1000F"/>
    <path fill-rule="evenodd" clip-rule="evenodd" d="M13 10C11.3431 10 10 11.3431 10 13V41C10 42.6569 11.3431 44 13 44H16C16.5523 44 17 44.4477 17 45C17 45.5523 16.5523 46 16 46H13C10.2386 46 8 43.7614 8 41V13C8 10.2386 10.2386 8 13 8H43C43.5523 8 44 8.44771 44 9C44 9.55229 43.5523 10 43 10H13Z" fill="#000091"/>
    <path fill-rule="evenodd" clip-rule="evenodd" d="M15 14C14.4477 14 14 14.4477 14 15V39C14 39.5523 14.4477 40 15 40H37.5V42H15C13.3431 42 12 40.6569 12 39V15C12 13.3431 13.3431 12 15 12H47C47.5523 12 48 12.4477 48 13C48 13.5523 47.5523 14 47 14H15Z" fill="#000091"/>
    <path fill-rule="evenodd" clip-rule="evenodd" d="M37 13C37 12.4477 37.4477 12 38 12H52C53.6569 12 55 13.3431 55 15V39C55 40.6569 53.6569 42 52 42H36.5V40H52C52.5523 40 53 39.5523 53 39V15C53 14.4477 52.5523 14 52 14H38C37.4477 14 37 13.5523 37 13Z" fill="#000091"/>
    <path fill-rule="evenodd" clip-rule="evenodd" d="M7.5 2C4.46243 2 2 4.46243 2 7.5V33C2 33.5523 1.55228 34 1 34C0.447715 34 0 33.5523 0 33V7.5C0 3.35786 3.35786 0 7.5 0H17C17.5523 0 18 0.447715 18 1C18 1.55228 17.5523 2 17 2H7.5Z" fill="#000091"/>
    <path fill-rule="evenodd" clip-rule="evenodd" d="M10.5 6C8.01472 6 6 8.01472 6 10.5V37C6 37.5523 5.55228 38 5 38C4.44772 38 4 37.5523 4 37V10.5C4 6.91015 6.91015 4 10.5 4H46C46.5523 4 47 4.44772 47 5C47 5.55228 46.5523 6 46 6H10.5Z" fill="#000091"/>
    <path fill-rule="evenodd" clip-rule="evenodd" d="M21 1C21 0.447715 21.4477 0 22 0H44C46.7614 0 49 2.23858 49 5H47C47 3.34315 45.6569 2 44 2H22C21.4477 2 21 1.55228 21 1Z" fill="#000091"/>
    <path fill-rule="evenodd" clip-rule="evenodd" d="M26 5C26 4.44772 26.4477 4 27 4H49C51.7614 4 54 6.23858 54 9H52C52 7.34315 50.6569 6 49 6H27C26.4477 6 26 5.55228 26 5Z" fill="#000091"/>
    <path fill-rule="evenodd" clip-rule="evenodd" d="M47 9C47 8.44771 47.4477 8 48 8H54C56.7614 8 59 10.2386 59 13V41C59 43.7614 56.7614 46 54 46H34C33.4477 46 33 45.5523 33 45C33 44.4477 33.4477 44 34 44H54C55.6569 44 57 42.6569 57 41V13C57 11.3431 55.6569 10 54 10H48C47.4477 10 47 9.55229 47 9Z" fill="#000091"/>
</svg>
