<svg width="13" height="16" viewBox="0 0 13 16" fill="none" xmlns="http://www.w3.org/2000/svg">
<g clip-path="url(#clip0_78_63994)">
<path d="M6.84211 9.74419V11.2023C6.41105 11.0488 5.95263 10.9651 5.47368 10.9651C3.20895 10.9651 1.36842 12.8419 1.36842 15.1512H0C0 12.0674 2.44947 9.56977 5.47368 9.56977C5.94579 9.56977 6.40421 9.63256 6.84211 9.74419ZM5.47368 8.87209C3.20895 8.87209 1.36842 6.99535 1.36842 4.68605C1.36842 2.37674 3.20895 0.5 5.47368 0.5C7.73842 0.5 9.57895 2.36977 9.57895 4.68605C9.57895 7.00233 7.73842 8.87209 5.47368 8.87209ZM5.47368 7.47674C6.98579 7.47674 8.21053 6.22791 8.21053 4.68605C8.21053 3.14419 6.98579 1.89535 5.47368 1.89535C3.96158 1.89535 2.73684 3.14419 2.73684 4.68605C2.73684 6.22791 3.96158 7.47674 5.47368 7.47674ZM10.9474 11.6628H13V13.0581H10.9474V15.5L7.52632 12.3605L10.9474 9.22093V11.6628Z" fill="#0063CB"/>
</g>
<defs>
<clipPath id="clip0_78_63994">
<rect width="13" height="15" fill="white" transform="translate(0 0.5)"/>
</clipPath>
</defs>
</svg>
