<svg width="64" height="64" viewBox="0 0 64 64" fill="none" xmlns="http://www.w3.org/2000/svg">
<path d="M42.3953 20.8606C41.6262 20.8606 40.9212 20.9239 40.2163 20.9872V18.6455C40.2163 16.6835 39.1908 14.9746 37.5886 14.0252C37.8449 13.3923 38.0372 12.6961 38.0372 11.9366V7.5063C38.0372 4.46834 35.5377 2 32.4613 2H6.63298C3.55665 2 1.05713 4.46834 1.05713 7.5063V11.9366C1.05713 13.8987 2.08257 15.6075 3.62074 16.5569C3.36438 17.1898 3.2362 17.886 3.2362 18.6455V23.0758C3.2362 23.8353 3.36438 24.5315 3.62074 25.1644C2.08257 26.1771 1.05713 27.8226 1.05713 29.7846V34.215C1.05713 36.177 2.08257 37.8859 3.62074 38.8352C3.36438 39.4681 3.2362 40.1643 3.2362 40.9238V45.3542C3.2362 48.3921 5.73572 50.8605 8.81205 50.8605H26.0523C29.5773 56.1136 35.6018 59.5946 42.3953 59.5946C53.1625 59.5946 61.9428 50.9238 61.9428 40.2909C61.9428 29.6581 53.1625 20.8606 42.3953 20.8606ZM35.794 18.6455V21.9999C34.1918 22.5695 32.6536 23.329 31.2436 24.2783H8.81205C8.10705 24.2783 7.59433 23.772 7.59433 23.0758V18.6455C7.59433 17.9493 8.10705 17.4429 8.81205 17.4429H34.5763C35.2172 17.4429 35.794 18.0126 35.794 18.6455ZM5.41526 7.5063C5.41526 6.87339 5.92799 6.30377 6.63298 6.30377H32.3973C33.0382 6.30377 33.615 6.8101 33.615 7.5063V11.9366C33.615 12.6328 33.0382 13.1392 32.3973 13.1392H6.63298C5.92799 13.1392 5.41526 12.6328 5.41526 11.9366V7.5063ZM5.41526 34.215V29.7846C5.41526 29.0884 5.92799 28.5821 6.63298 28.5821H26.7573C25.2191 30.6074 24.0655 32.8859 23.4246 35.4175H6.63298C5.92799 35.4175 5.41526 34.8479 5.41526 34.215ZM8.81205 46.4934C8.10705 46.4934 7.59433 45.9871 7.59433 45.2909V40.8605C7.59433 40.2276 8.10705 39.658 8.81205 39.658H22.8478V40.1643C22.8478 42.3795 23.2323 44.4681 23.9373 46.4934H8.81205ZM42.3953 55.2275C33.9995 55.2275 27.1419 48.4554 27.1419 40.1643C27.1419 31.8732 33.9995 25.1644 42.3953 25.1644C50.7911 25.1644 57.6488 31.9365 57.6488 40.2276C57.6488 48.5187 50.7911 55.2275 42.3953 55.2275Z" fill="#0063CB"/>
<path d="M42.7945 33.6692C43.9788 33.6692 45.1631 34.1787 46.0981 35.1342C46.2851 35.3253 46.6591 35.389 46.8461 35.1342L48.5914 33.4781C48.716 33.3507 48.7784 33.2233 48.7784 33.0322C48.7784 32.8411 48.716 32.7137 48.5914 32.5863C46.9707 30.9301 44.9138 29.9746 42.7945 29.9746C39.2416 29.9746 36.0627 32.4589 34.7537 36.2808H32.8837C32.5721 36.2808 32.3228 36.5356 32.3228 36.8541V38.4466C32.3228 38.7651 32.5721 39.0199 32.8837 39.0199H34.1927C34.1927 39.2747 34.1304 39.5932 34.1304 39.848C34.1304 40.1028 34.1304 40.3576 34.1927 40.6761H32.8837C32.5721 40.6761 32.3228 40.9309 32.3228 41.2493V42.8418C32.3228 43.1603 32.5721 43.4151 32.8837 43.4151H34.7537C36.0627 47.1734 39.2416 49.7213 42.7945 49.7213C44.9761 49.7213 47.0331 48.8295 48.5914 47.1734C48.716 47.046 48.7784 46.9186 48.7784 46.7275C48.7784 46.5364 48.716 46.409 48.5914 46.2816L46.9084 44.7528C46.6591 44.5617 46.3474 44.5617 46.1604 44.7528C45.2254 45.7083 44.0411 46.2179 42.8568 46.2179C41.1739 46.2179 39.6156 45.1987 38.6183 43.4788H42.9815C43.2931 43.4788 43.5425 43.224 43.5425 42.9055V41.313C43.5425 40.9946 43.2931 40.7398 42.9815 40.7398H37.7456C37.6833 40.485 37.6833 40.1665 37.6833 39.9117C37.6833 39.6569 37.6833 39.4021 37.7456 39.0836H42.9815C43.2931 39.0836 43.5425 38.8288 43.5425 38.5103V36.9178C43.5425 36.5993 43.2931 36.3445 42.9815 36.3445H38.6183C39.5532 34.6883 41.1739 33.6692 42.7945 33.6692Z" fill="#0063CB"/>
</svg>
