<svg width="32" height="32" viewBox="0 0 32 32" fill="none" xmlns="http://www.w3.org/2000/svg">
<path d="M30.9967 5.31143C30.9967 4.6448 30.7367 4.01483 30.2635 3.54486L28.4538 1.73496C27.9838 1.26165 27.3573 1.00167 26.6874 1.00167C26.0175 1.00167 25.3909 1.26165 24.921 1.73496L16.4158 10.2412L7.42393 1.24499C7.09732 0.918338 6.57074 0.918338 6.24746 1.24499L1.24496 6.24471C0.918347 6.57136 0.918347 7.09799 1.24496 7.42131L10.2368 16.4141L3.32795 23.3238C3.28462 23.3671 3.24796 23.4171 3.21463 23.4671C3.20463 23.4804 3.19797 23.4971 3.1913 23.5138C3.1713 23.5504 3.15131 23.5904 3.13798 23.6304C3.13798 23.6371 3.13131 23.6437 3.12798 23.6504L1.04499 29.9034C0.945009 30.2034 1.02166 30.5334 1.24496 30.7567C1.40493 30.9167 1.61823 31 1.83486 31C1.92151 31 2.0115 30.9867 2.09815 30.9567L8.34711 28.8735C8.34711 28.8735 8.36044 28.8668 8.36711 28.8635C8.4071 28.8501 8.44376 28.8301 8.48375 28.8101C8.50042 28.8001 8.51375 28.7968 8.53041 28.7868C8.5804 28.7535 8.6304 28.7168 8.67372 28.6735L15.5826 21.7638L24.5744 30.7567C24.7377 30.92 24.951 31 25.1643 31C25.3776 31 25.5909 30.92 25.7542 30.7567L30.7534 25.757C31.08 25.4303 31.08 24.9037 30.7534 24.577L21.7615 15.5842L30.2668 7.078C30.74 6.60469 31 5.97806 31 5.31143H30.9967ZM9.33361 13.1577L8.4271 12.251L9.50358 11.1744C9.83019 10.8478 9.83019 10.3211 9.50358 9.99783C9.17697 9.67452 8.65039 9.67118 8.32711 9.99783L7.25062 11.0744L6.34411 10.1678L7.4206 9.09122C7.74721 8.76457 7.74721 8.23793 7.4206 7.91462C7.09398 7.5913 6.56741 7.58797 6.24413 7.91462L5.16764 8.99122L3.01133 6.83468L6.83403 3.01155L15.2393 11.4178L12.4964 14.1609L11.4199 15.2375L10.5134 14.3343L11.5899 13.2577C11.9165 12.931 11.9165 12.4044 11.5899 12.0811C11.2633 11.7577 10.7367 11.7544 10.4134 12.0811L9.33694 13.1577H9.33361ZM3.15131 28.8501L4.28112 25.4603L6.54074 27.7202L3.15131 28.8501ZM28.987 25.167L25.1676 28.9868L20.9317 24.7503L22.0082 23.6737C22.3348 23.3471 22.3348 22.8205 22.0082 22.4938C21.6816 22.1672 21.155 22.1672 20.8284 22.4938L19.7519 23.5704L18.8454 22.6671L19.9218 21.5905C20.2485 21.2639 20.2485 20.7372 19.9218 20.4139C19.5952 20.0906 19.0687 20.0873 18.7454 20.4139L17.6689 21.4905L16.7624 20.5839L17.8389 19.5073L20.5817 16.7641L28.987 25.167ZM8.08382 26.9036L5.09765 23.9171L23.7112 5.30143C23.7112 5.30143 23.7312 5.32809 23.7445 5.34143L26.6607 8.25793C26.6607 8.25793 26.6874 8.27793 26.7007 8.29126L8.08715 26.9069L8.08382 26.9036ZM29.087 5.90139L27.8705 7.11799C27.8705 7.11799 27.8505 7.09133 27.8372 7.078L24.921 4.16149C24.921 4.16149 24.8944 4.14149 24.881 4.12816L26.0975 2.91156C26.4108 2.59824 26.9607 2.59824 27.2773 2.91156L29.087 4.72146C29.2436 4.87812 29.3303 5.08811 29.3303 5.31143C29.3303 5.53475 29.2436 5.74474 29.087 5.90139Z" fill="#755348"/>
</svg>
