<svg width="45" height="42" viewBox="0 0 45 42" fill="none" xmlns="http://www.w3.org/2000/svg">
<path d="M35.5624 29.1475C36.2486 28.446 36.933 27.7462 37.6191 27.0447C38.0173 26.6699 38.6172 26.6329 39.0318 26.9394C39.5089 27.2921 39.5346 27.9364 39.3694 28.2853C39.2832 28.4663 39.1401 28.625 38.9988 28.7709C38.3842 29.3986 37.7604 30.019 37.0962 30.6855C37.7953 31.376 38.4649 32.0332 39.1272 32.696C39.4722 33.0413 39.5566 33.4585 39.3933 33.9164C39.2447 34.3336 38.9144 34.6032 38.4998 34.5774C38.1659 34.5552 37.7787 34.4112 37.5311 34.1896C36.8541 33.5841 36.2394 32.9083 35.5643 32.2252C34.8964 32.8991 34.2727 33.5804 33.5901 34.1915C33.3425 34.413 32.9553 34.557 32.6214 34.5774C32.2068 34.6032 31.8784 34.3336 31.7279 33.9164C31.5701 33.477 31.6417 33.0671 31.9664 32.7293C32.6031 32.0702 33.2581 31.4147 33.6434 31.0399C33.8103 30.8775 33.9424 30.7427 34.0195 30.6633C33.1058 29.779 32.4233 29.0829 32.0637 28.7192C31.9628 28.6177 31.7389 28.3906 31.6711 28.0453C31.649 27.9346 31.6454 27.8164 31.6619 27.6927C31.7151 27.2847 31.9206 26.9708 32.3132 26.8213C32.7444 26.6588 33.159 26.7086 33.4984 27.0373C34.2378 27.7518 34.9662 28.4977 35.0561 28.5974C35.1606 28.7137 35.3386 28.9075 35.5643 29.1494L35.5624 29.1475Z" fill="#FF292F"/>
<path d="M35.5695 40.1738C30.3975 40.1886 26.1154 35.8813 26.1172 30.6656C26.1172 25.4592 30.3462 21.1944 35.5292 21.1722C40.7195 21.1501 44.9815 25.413 44.9998 30.6472C45.0182 35.8628 40.7654 40.1572 35.5695 40.1738ZM35.509 37.9546C39.3949 38.0358 42.7028 34.7901 42.7964 30.8059C42.8899 26.818 39.6792 23.4616 35.6998 23.3877C31.6818 23.312 28.3812 26.5429 28.317 30.6158C28.2546 34.5778 31.4837 37.8715 35.509 37.9565V37.9546Z" fill="#000091"/>
<path d="M0 35.9461C0.0550408 35.7209 0.113751 35.4956 0.165122 35.2685C0.366939 34.362 0.851298 33.6254 1.49894 32.9755C4.35006 30.112 7.1975 27.2447 10.0449 24.3794C10.7146 23.7055 11.298 23.7055 11.9695 24.383C12.4759 24.8945 12.9731 25.4133 13.463 25.9154C14.4409 24.9111 15.3894 23.9381 16.3196 22.9817C15.8224 22.1805 15.1968 21.3515 14.7583 20.4339C12.4355 15.5728 12.7676 10.8667 15.8371 6.4412C17.813 3.5906 20.5798 1.80712 23.9648 1.14616C28.2579 0.307966 32.1493 1.29571 35.4536 4.21832C38.7836 7.16309 40.2275 10.9387 39.9835 15.3734C39.9137 16.6288 39.6165 17.8455 39.1854 19.0271C38.9505 19.6714 38.3414 20.0001 37.7653 19.7988C37.1745 19.5939 36.8718 18.9735 37.103 18.3255C37.6296 16.8504 37.9011 15.3383 37.7983 13.7745C37.5488 9.92508 35.8572 6.85846 32.597 4.84051C28.6561 2.39977 24.6051 2.46623 20.6366 4.85528C16.9819 7.05416 14.8555 11.7658 15.6151 15.99C16.4902 20.8604 19.3432 23.9455 24.0822 25.2619C24.8638 25.4779 25.2711 26.0022 25.1261 26.641C24.9793 27.2854 24.3849 27.6158 23.6492 27.4441C21.7393 26.9992 20.0092 26.1721 18.457 24.9646C18.3084 24.8483 18.1616 24.732 18.0405 24.636C17.0626 25.6182 16.1123 26.5727 15.1252 27.566C15.6041 28.046 16.1104 28.55 16.615 29.0596C17.3305 29.7833 17.3342 30.3483 16.6186 31.0683C13.7602 33.9448 10.9109 36.8305 8.03962 39.694C5.73708 41.9889 2.10623 41.4885 0.585267 38.6582C0.30089 38.1247 0.190808 37.5006 0 36.9191C0 36.5941 0 36.271 0 35.9461ZM10.9751 26.5949C10.9219 26.6429 10.8449 26.7056 10.7733 26.7776C8.19374 29.3716 5.61599 31.9656 3.03825 34.5614C2.9245 34.6759 2.81625 34.7977 2.72085 34.927C2.13925 35.7172 2.02734 36.572 2.44748 37.4637C3.21255 39.094 5.20319 39.4097 6.51316 38.097C9.12943 35.479 11.7329 32.8463 14.3418 30.2209C14.3895 30.1729 14.4299 30.1138 14.4519 30.088C13.2868 28.9174 12.1383 27.7635 10.9751 26.593V26.5949Z" fill="#000091"/>
</svg>
