<svg width="20" height="18" viewBox="0 0 20 18" fill="none" xmlns="http://www.w3.org/2000/svg">
<g clip-path="url(#clip0_78_64014)">
<path d="M3.5524 6.76316C4.04085 6.76316 4.4405 7.16579 4.4405 7.65789C5.8881 7.65789 7.22913 8.15895 8.28597 9H10.2131C11.3943 9 12.46 9.51895 13.1883 10.3421H15.9858C17.7531 10.3421 19.2806 11.3889 20 12.8921C17.9041 15.6837 14.5027 17.5 10.6572 17.5C8.1794 17.5 6.08348 16.9632 4.38721 16.0147C4.26288 16.3547 3.93428 16.6053 3.5524 16.6053H0.888099C0.399645 16.6053 0 16.2026 0 15.7105V7.65789C0 7.16579 0.399645 6.76316 0.888099 6.76316H3.5524ZM4.4405 9.44737V13.9389L4.47602 13.9658C6.06572 15.0932 8.14387 15.7105 10.6483 15.7105C13.3126 15.7105 15.7993 14.6726 17.611 12.91L17.7265 12.7937L17.6199 12.7042C17.2114 12.3821 16.7052 12.1763 16.1634 12.1405H15.9858H14.1119C14.1741 12.4268 14.2096 12.7311 14.2096 13.0353V13.93H6.2167V12.1405H12.2469L12.2202 12.0689C11.8828 11.3621 11.1812 10.8521 10.3641 10.7984H10.222H7.61989C6.81172 9.96632 5.69272 9.45632 4.44938 9.45632L4.4405 9.44737ZM2.6643 8.55263H1.7762V14.8158H2.6643V8.55263ZM15.0977 3.18421C16.5719 3.18421 17.762 4.38316 17.762 5.86842C17.762 7.35368 16.5719 8.55263 15.0977 8.55263C13.6234 8.55263 12.4334 7.35368 12.4334 5.86842C12.4334 4.38316 13.6234 3.18421 15.0977 3.18421ZM15.0977 4.97368C14.6092 4.97368 14.2096 5.37632 14.2096 5.86842C14.2096 6.36053 14.6092 6.76316 15.0977 6.76316C15.5861 6.76316 15.9858 6.36053 15.9858 5.86842C15.9858 5.37632 15.5861 4.97368 15.0977 4.97368ZM8.88099 0.5C10.3552 0.5 11.5453 1.69895 11.5453 3.18421C11.5453 4.66947 10.3552 5.86842 8.88099 5.86842C7.40675 5.86842 6.2167 4.66947 6.2167 3.18421C6.2167 1.69895 7.40675 0.5 8.88099 0.5ZM8.88099 2.28947C8.39254 2.28947 7.9929 2.69211 7.9929 3.18421C7.9929 3.67632 8.39254 4.07895 8.88099 4.07895C9.36945 4.07895 9.76909 3.67632 9.76909 3.18421C9.76909 2.69211 9.36945 2.28947 8.88099 2.28947Z" fill="#0063CB"/>
</g>
<defs>
<clipPath id="clip0_78_64014">
<rect width="20" height="17" fill="white" transform="translate(0 0.5)"/>
</clipPath>
</defs>
</svg>
