<svg width="14" height="14" viewBox="0 0 14 14" fill="none" xmlns="http://www.w3.org/2000/svg">
<g clip-path="url(#clip0_78_63989)">
<path d="M7 1.4C5.187 1.4 3.577 2.261 2.548 3.598L4.2 5.25H0V1.05L1.554 2.604C2.835 1.015 4.802 0 7 0C10.864 0 14 3.136 14 7H12.6C12.6 3.906 10.094 1.4 7 1.4ZM1.4 7C1.4 10.094 3.906 12.6 7 12.6C8.813 12.6 10.423 11.739 11.452 10.402L9.8 8.75H14V12.95L12.446 11.396C11.165 12.985 9.198 14 7 14C3.136 14 0 10.864 0 7H1.4Z" fill="#0063CB"/>
</g>
<defs>
<clipPath id="clip0_78_63989">
<rect width="14" height="14" fill="white"/>
</clipPath>
</defs>
</svg>
