<svg width="17" height="18" viewBox="0 0 17 18" fill="none" xmlns="http://www.w3.org/2000/svg">
<g clip-path="url(#clip0_78_63982)">
<path d="M0.110298 10.3809C-0.0426254 9.44637 -0.0426254 8.51184 0.110298 7.61129C1.04483 7.63677 1.88591 7.1865 2.21724 6.39639C2.54008 5.60629 2.26822 4.69724 1.58856 4.05157C2.12379 3.30394 2.77796 2.64127 3.55108 2.08905C4.19675 2.76871 5.1058 3.04907 5.89591 2.71773C6.68601 2.3864 7.13629 1.54532 7.1108 0.610786C8.04533 0.457863 8.97986 0.457863 9.88041 0.610786C9.85493 1.54532 10.3052 2.3864 11.0953 2.71773C11.8854 3.04057 12.7945 2.76871 13.4401 2.08905C14.1878 2.62428 14.8504 3.27845 15.4027 4.05157C14.723 4.69724 14.4426 5.60629 14.774 6.39639C15.1053 7.1865 15.9464 7.63677 16.8809 7.61129C17.0338 8.54582 17.0338 9.48035 16.8809 10.3809C15.9464 10.3554 15.1053 10.8057 14.774 11.5958C14.4511 12.3859 14.723 13.2949 15.4027 13.9406C14.8674 14.6882 14.2132 15.3509 13.4401 15.9031C12.7945 15.2235 11.8854 14.9516 11.0953 15.2745C10.3052 15.6058 9.85493 16.4469 9.88041 17.3814C8.94588 17.5343 8.01135 17.5343 7.1108 17.3814C7.13629 16.4469 6.68601 15.6058 5.89591 15.2745C5.1058 14.9516 4.19675 15.2235 3.55108 15.9031C2.80345 15.3679 2.14078 14.7137 1.58856 13.9406C2.26822 13.2949 2.54858 12.3859 2.21724 11.5958C1.88591 10.8057 1.04483 10.3554 0.110298 10.3809ZM8.49561 11.5448C9.9059 11.5448 11.0443 10.4064 11.0443 8.99609C11.0443 7.5858 9.9059 6.44737 8.49561 6.44737C7.08531 6.44737 5.94688 7.5858 5.94688 8.99609C5.94688 10.4064 7.08531 11.5448 8.49561 11.5448Z" fill="#0063CB"/>
</g>
<defs>
<clipPath id="clip0_78_63982">
<rect width="17" height="17" fill="white" transform="translate(0 0.5)"/>
</clipPath>
</defs>
</svg>
