<svg width="13" height="16" viewBox="0 0 13 16" fill="none" xmlns="http://www.w3.org/2000/svg">
<g clip-path="url(#clip0_78_64000)">
<path d="M6.5 16L1.90667 11.3171C-0.635556 8.72526 -0.635556 4.5283 1.90667 1.94386C4.44167 -0.647952 8.55833 -0.647952 11.0933 1.94386C13.6283 4.5283 13.6283 8.72526 11.0933 11.3171L6.5 16ZM10.075 10.2715C12.0467 8.26139 12.0467 4.99218 10.075 2.98205C8.10333 0.971928 4.89667 0.971928 2.925 2.98205C0.953333 4.99218 0.953333 8.26139 2.925 10.2715L6.5 13.9162L10.075 10.2715ZM6.5 8.0994C5.70556 8.0994 5.05556 7.43672 5.05556 6.62678C5.05556 5.81684 5.70556 5.15417 6.5 5.15417C7.29444 5.15417 7.94444 5.81684 7.94444 6.62678C7.94444 7.43672 7.29444 8.0994 6.5 8.0994Z" fill="#0063CB"/>
</g>
<defs>
<clipPath id="clip0_78_64000">
<rect width="13" height="16" fill="white"/>
</clipPath>
</defs>
</svg>
