<svg width="29" height="27" viewBox="0 0 29 27" fill="none" xmlns="http://www.w3.org/2000/svg">
<path d="M14.5 0C22.504 0 29 6.048 29 13.5C29 20.952 22.504 27 14.5 27C6.496 27 0 20.952 0 13.5C0 6.048 6.496 0 14.5 0ZM5.829 18.117C7.9605 21.0735 11.1505 22.95 14.732 22.95C18.3135 22.95 21.5035 21.0735 23.635 18.117C21.3005 16.092 18.183 14.85 14.732 14.85C11.281 14.85 8.1635 16.092 5.829 18.117ZM14.5 12.15C16.907 12.15 18.85 10.341 18.85 8.1C18.85 5.859 16.907 4.05 14.5 4.05C12.093 4.05 10.15 5.859 10.15 8.1C10.15 10.341 12.093 12.15 14.5 12.15Z" fill="#CECECE"/>
</svg>
