<?xml version="1.0" encoding="UTF-8"?><svg id="Calque_1" xmlns="http://www.w3.org/2000/svg" xmlns:xlink="http://www.w3.org/1999/xlink" viewBox="0 0 230 230"><defs><style>.cls-1{fill:url(#Dégradé_sans_nom_2);}.cls-1,.cls-2,.cls-3,.cls-4{stroke-width:0px;}.cls-2{fill:url(#Dégradé_sans_nom_3);}.cls-3{fill:url(#Dégradé_sans_nom_3-2);}.cls-4{fill:#0d1db0;}</style><linearGradient id="Dégradé_sans_nom_3" x1="146.36" y1="28.54" x2="27.1" y2="147.81" gradientTransform="translate(0 232) scale(1 -1)" gradientUnits="userSpaceOnUse"><stop offset="0" stop-color="#fffa00"/><stop offset="1" stop-color="#ff0f58"/></linearGradient><linearGradient id="Dégradé_sans_nom_2" x1="-282.48" y1="-159.47" x2="-163.32" y2="-278.64" gradientTransform="translate(-76.13 308.13) rotate(90)" gradientUnits="userSpaceOnUse"><stop offset="0" stop-color="#0d1db0"/><stop offset="1" stop-color="#c5c5fa"/></linearGradient><linearGradient id="Dégradé_sans_nom_3-2" x1="175.21" y1="57.31" x2="56.04" y2="176.47" xlink:href="#Dégradé_sans_nom_3"/></defs><path class="cls-2" d="m91.1,103.39v-11.52H28.38c-11.95,0-21.34,9.39-21.34,21.34s9.39,21.34,21.34,21.34h46.08c11.95,0,21.34,9.39,21.34,21.34v46.51c0,11.95,9.39,21.34,21.34,21.34s21.34-9.39,21.34-21.34v-65.29h-14.08c-18.35,0-33.28-15.36-33.28-33.71Z"/><path class="cls-1" d="m201.62,94.43h-46.51c-11.95,0-21.34-9.39-21.34-21.34V26.58c0-11.95-9.39-21.34-21.34-21.34s-21.34,9.39-21.34,21.34v65.29h14.08c18.35,0,33.71,14.93,33.71,33.71v11.52h62.73c11.95,0,21.34-9.39,21.34-21.34s-9.81-21.34-21.34-21.34Z"/><path class="cls-3" d="m105.19,91.87h-14.08v11.52c0,18.35,14.93,33.71,33.71,33.71h14.08v-11.52c0-18.78-15.36-33.71-33.71-33.71Z"/><path class="cls-4" d="m105.19,91.87h-14.08v11.52c0,18.35,14.93,33.71,33.71,33.71h14.08v-11.52c0-18.78-15.36-33.71-33.71-33.71Z"/></svg>