<svg width="40" height="40" viewBox="0 0 40 40" fill="none" xmlns="http://www.w3.org/2000/svg">
<circle cx="20" cy="20" r="20" fill="#E5E5E5"/>
<path d="M10 11.9482C10 11.4245 10.4553 11 10.9918 11H29.0082C29.556 11 30 11.4212 30 11.9482V25.2097C30 25.7334 29.5447 26.1579 29.0082 26.1579H10.9918C10.4441 26.1579 10 25.7367 10 25.2097V11.9482ZM12 12.8947V24.2632H28V12.8947H12ZM13 27.1053H27V29H13V27.1053Z" fill="#7B7B7B"/>
<path d="M23.0733 18.7432L18.6571 21.5323C18.5614 21.5928 18.4321 21.5683 18.3682 21.4776C18.3454 21.4452 18.3333 21.4071 18.3333 21.3681V15.7899C18.3333 15.6809 18.4265 15.5925 18.5416 15.5925C18.5827 15.5925 18.6229 15.6041 18.6571 15.6257L23.0733 18.4148C23.169 18.4752 23.1948 18.5978 23.131 18.6885C23.1158 18.7101 23.0961 18.7288 23.0733 18.7432Z" fill="#7B7B7B"/>
</svg>
