<svg width="32" height="32" viewBox="0 0 32 32" fill="none" xmlns="http://www.w3.org/2000/svg">
<g clip-path="url(#clip0_32906_76498)">
<rect width="32" height="32" rx="16" fill="#384EB7"/>
<g clip-path="url(#clip1_32906_76498)">
<path d="M21.091 20.2913L15.9998 25.3825L10.9086 20.2913C9.90168 19.2843 9.21595 18.0014 8.93815 16.6047C8.66034 15.2081 8.80293 13.7604 9.34788 12.4448C9.89284 11.1292 10.8157 10.0047 11.9997 9.21353C13.1837 8.42239 14.5758 8.00012 15.9998 8.00012C17.4238 8.00012 18.8159 8.42239 19.9999 9.21353C21.1839 10.0047 22.1068 11.1292 22.6517 12.4448C23.1967 13.7604 23.3393 15.2081 23.0615 16.6047C22.7837 18.0014 22.0979 19.2843 21.091 20.2913ZM15.9998 16.8001C16.4242 16.8001 16.8311 16.6315 17.1312 16.3314C17.4312 16.0314 17.5998 15.6244 17.5998 15.2001C17.5998 14.7757 17.4312 14.3687 17.1312 14.0687C16.8311 13.7686 16.4242 13.6001 15.9998 13.6001C15.5755 13.6001 15.1685 13.7686 14.8684 14.0687C14.5684 14.3687 14.3998 14.7757 14.3998 15.2001C14.3998 15.6244 14.5684 16.0314 14.8684 16.3314C15.1685 16.6315 15.5755 16.8001 15.9998 16.8001Z" fill="white"/>
</g>
</g>
<defs>
<clipPath id="clip0_32906_76498">
<rect width="32" height="32" rx="16" fill="white"/>
</clipPath>
<clipPath id="clip1_32906_76498">
<rect width="19.2" height="19.2" fill="white" transform="translate(6.3999 6.40002)"/>
</clipPath>
</defs>
</svg>
