<svg width="32" height="32" viewBox="0 0 32 32" fill="none" xmlns="http://www.w3.org/2000/svg">
<g clip-path="url(#clip0_32906_76520)">
<rect width="32" height="32" rx="16" fill="#FA9D79"/>
<path d="M24.2574 7.72412H15.0251C14.2816 7.72412 13.6826 8.3158 13.6826 9.0503V10.05H16.5328C18.0819 10.05 19.3624 11.2946 19.3624 12.8248V18.456C19.9614 19.2109 20.9734 20.333 22.1507 20.9043C22.2333 20.9451 22.3366 20.9655 22.4398 20.9655C22.6051 20.9655 22.7703 20.9043 22.8942 20.8023C23.1007 20.6187 23.1627 20.333 23.0388 20.0882C22.7496 19.4353 22.667 18.8232 22.6464 18.3539H24.2574C25.0009 18.3539 25.5999 17.7623 25.5999 17.0278V9.0299C25.5999 8.3158 25.0009 7.72412 24.2574 7.72412Z" fill="white"/>
<path d="M16.3872 11.6965H7.66782C6.96559 11.6965 6.3999 12.2578 6.3999 12.9545V20.5214C6.3999 21.2181 6.96559 21.7793 7.66782 21.7793H9.16981C9.1503 22.2244 9.07227 22.805 8.79919 23.4243C8.70165 23.6566 8.74067 23.9275 8.93573 24.1017C9.05277 24.2178 9.20882 24.2758 9.36487 24.2758C9.4624 24.2758 9.54043 24.2565 9.63796 24.2178C10.8278 23.6372 11.8227 22.4954 12.3688 21.7793H16.3872C17.0894 21.7793 17.6551 21.2181 17.6551 20.5214V12.9545C17.6551 12.2578 17.0894 11.6965 16.3872 11.6965ZM12.1153 20.115C11.7251 20.115 11.413 19.8053 11.413 19.4183C11.413 19.0312 11.7251 18.7216 12.1153 18.7216C12.5054 18.7216 12.8175 19.0312 12.8175 19.4183C12.8175 19.8053 12.5054 20.115 12.1153 20.115ZM13.8123 16.5347C13.5392 16.9024 13.2661 17.096 13.0711 17.2314C12.837 17.3863 12.7395 17.4637 12.72 17.8314C12.681 18.0055 12.5444 18.1217 12.3884 18.1217H11.8812C11.6861 18.1217 11.5496 17.9668 11.5691 17.7733C11.6471 16.9024 11.9787 16.5928 12.4079 16.3025C12.5834 16.1864 12.7395 16.0703 12.8955 15.8574C13.0516 15.6445 13.0711 15.3349 12.954 15.0833C12.8565 14.9091 12.6224 14.6188 12.0763 14.6188C11.3545 14.6188 11.1204 15.0833 11.0619 15.4316C11.0424 15.5864 10.9059 15.7026 10.7498 15.7026H10.2036C10.0086 15.7026 9.85253 15.5284 9.89154 15.3349C10.0281 14.3866 10.7108 13.477 12.0567 13.477C12.8955 13.477 13.6173 13.8834 13.9684 14.5607C14.2805 15.2187 14.222 15.9735 13.8123 16.5347Z" fill="white"/>
</g>
<defs>
<clipPath id="clip0_32906_76520">
<rect width="32" height="32" rx="16" fill="white"/>
</clipPath>
</defs>
</svg>
