<svg width="21" height="29" viewBox="0 0 21 29" fill="none" xmlns="http://www.w3.org/2000/svg">
<g clip-path="url(#clip0_28737_18968)">
<path d="M12.6827 20.3672H8.31934V28.8663H12.6827V20.3672Z" fill="#C6C6C6"/>
<path d="M12.6827 20.3672H8.31934V22.8534H12.6827V20.3672Z" fill="#939393"/>
<path d="M10.501 20.3672H8.31934V28.6635H10.501V20.3672Z" fill="#939393"/>
<path d="M13.7383 17.6797H7.26465V20.6241C7.26465 21.044 7.60524 21.3852 8.02443 21.3852H12.9785C13.3977 21.3852 13.7383 21.044 13.7383 20.6241V17.6797Z" fill="#C6C6C6"/>
<path d="M9.30106 17.6797H7.26465V20.6241C7.26465 21.044 7.60524 21.3852 8.02443 21.3852H9.30106V17.6797Z" fill="#939393"/>
<path d="M14.2219 0C12.6261 0 11.2328 0.882837 10.4992 2.188C9.76797 0.882837 8.37464 0 6.77886 0C4.42568 0 2.51074 1.91838 2.51074 4.27579C2.51074 4.57882 2.75606 4.8222 3.05617 4.8222C3.35627 4.8222 3.60159 4.57644 3.60159 4.27579C3.60159 2.52205 5.02588 1.09281 6.77886 1.09281C8.53184 1.09281 9.95613 2.51966 9.95613 4.27579V5.87444C9.32735 5.27316 8.47468 4.90332 7.54102 4.90332C5.60703 4.90332 4.03269 6.4805 4.03269 8.41797C4.03269 8.721 4.27801 8.96437 4.57811 8.96437C4.87821 8.96437 5.12354 8.71861 5.12354 8.41797C5.12354 7.08417 6.20724 5.99852 7.53864 5.99852C8.87005 5.99852 9.95375 7.08417 9.95375 8.41797V12.6293H11.0446V8.41797C11.0446 7.08417 12.1283 5.99852 13.4597 5.99852C14.7911 5.99852 15.8748 7.08417 15.8748 8.41797C15.8748 8.721 16.1201 8.96437 16.4202 8.96437C16.7203 8.96437 16.9657 8.71861 16.9657 8.41797C16.9657 6.4805 15.3913 4.90332 13.4573 4.90332C12.5213 4.90332 11.671 5.27316 11.0422 5.87444V4.27579C11.0422 2.52205 12.4665 1.09281 14.2195 1.09281C15.9725 1.09281 17.3968 2.51966 17.3968 4.27579C17.3968 4.57882 17.6421 4.8222 17.9422 4.8222C18.2423 4.8222 18.4876 4.57644 18.4876 4.27579C18.4876 1.91838 16.5727 0 14.2195 0H14.2219Z" fill="#3D82F9"/>
<path d="M21 11.8973C21 14.3454 19.4876 16.5286 17.1201 17.9627C16.5175 18.3277 15.8578 18.6427 15.1552 18.9028C14.6812 19.0769 14.1882 19.2273 13.6761 19.3466H7.32154C3.07724 18.3444 0 15.3881 0 11.8973L10.1368 10.9023L21 11.8973Z" fill="#C6C6C6"/>
<path d="M15.3981 18.2668H12.3685C10.2725 18.2668 8.2147 17.6297 6.52365 16.3914C4.91119 15.2127 3.80844 13.6474 3.48452 11.8984H0C0 15.3892 3.07724 18.3455 7.32392 19.3453H13.6785C14.7955 19.0828 15.834 18.682 16.7533 18.1737C16.3055 18.2334 15.853 18.2644 15.3981 18.2644V18.2668Z" fill="#939393"/>
<path d="M17.1202 11.8976V17.9629C16.5176 18.328 15.8579 18.6429 15.1553 18.903V10.9766L17.1202 11.9V11.8976Z" fill="#939393"/>
<path d="M21 11.6458C21 10.8035 20.3188 10.1211 19.4781 10.1211H1.52195C0.681184 10.1211 0 10.8035 0 11.6458V11.8987H1.74583V28.2479L5.01837 26.654V11.8987H15.9792V26.654L19.2518 28.3195V11.9011H20.9976V11.6482L21 11.6458Z" fill="#3D82F9"/>
<path d="M2.75365 25.1855C2.53215 25.1855 2.35352 25.0065 2.35352 24.7846V13.2719C2.35352 13.05 2.53215 12.8711 2.75365 12.8711C2.97516 12.8711 3.15379 13.05 3.15379 13.2719V24.7846C3.15379 25.0065 2.97516 25.1855 2.75365 25.1855Z" fill="#7BAFEF"/>
<path d="M17.2292 25.1855C17.0077 25.1855 16.8291 25.0065 16.8291 24.7846V13.2719C16.8291 13.05 17.0077 12.8711 17.2292 12.8711C17.4507 12.8711 17.6294 13.05 17.6294 13.2719V24.7846C17.6294 25.0065 17.4507 25.1855 17.2292 25.1855Z" fill="#7BAFEF"/>
<path d="M19.9333 26.6562H1.0674C0.648209 26.6562 0.307617 26.8376 0.307617 27.0595V28.5985C0.307617 28.8228 0.648209 29.0017 1.0674 29.0017H19.9333C20.3525 29.0017 20.6931 28.8204 20.6931 28.5985V27.0595C20.6931 26.8352 20.3525 26.6562 19.9333 26.6562Z" fill="#C6C6C6"/>
</g>
<defs>
<clipPath id="clip0_28737_18968">
<rect width="21" height="29" fill="white"/>
</clipPath>
</defs>
</svg>
