<svg width="21" height="19" viewBox="0 0 21 19" fill="none" xmlns="http://www.w3.org/2000/svg">
<g clip-path="url(#clip0_28737_18982)">
<path d="M0 14.7771L5.25 5.62891H15.75L21 14.7771H0Z" fill="#93622C"/>
<path d="M15.7496 5.62891H5.24964L3.57227 8.55148C4.81695 10.228 8.67964 11.4507 13.255 11.4507C15.096 11.4639 16.9318 11.2467 18.7194 10.8046L15.7492 5.62891H15.7496Z" fill="#A56C34"/>
<path d="M0 14.7773H21V18.9996H0V14.7773Z" fill="#C48857"/>
<path d="M21 14.7773V18.9996H10.5V17.5922H11.55C11.9367 17.5922 12.25 17.2773 12.25 16.8885C12.25 16.4997 11.9367 16.1848 11.55 16.1848H10.5V14.7773H21Z" fill="#B57841"/>
<path d="M8.29764 12.563C8.81345 12.0476 9.1022 11.3461 9.10001 10.6151V9.32335C9.09826 8.86242 8.94689 8.41513 8.66864 8.04877C9.36951 7.5962 9.79476 6.81817 9.80001 5.98076V5.62891H9.10001V5.98076C9.09651 6.63476 8.73426 7.23335 8.15851 7.53726C7.86976 7.27337 7.70351 6.90041 7.70001 6.50854V5.62891H7.00001V6.50854C7.00176 7.17266 7.31239 7.79763 7.84001 8.19742C8.19176 8.46395 8.3987 8.88046 8.40001 9.32335V10.6151C8.40176 11.1596 8.18651 11.6816 7.80239 12.0656C7.28657 12.5811 6.99782 13.2826 7.00001 14.0135V14.7775H7.70001V14.0135C7.69826 13.469 7.91351 12.947 8.29764 12.563Z" fill="#754317"/>
<path d="M6.17468 12.1346C7.04837 12.0053 7.69674 11.2537 7.6998 10.3662V10.0556C7.6998 9.57185 7.39224 9.14215 6.93549 8.98953C6.76487 8.9328 6.6498 8.77182 6.6498 8.59106V5.62891H5.9498V8.59106C5.9498 9.07486 6.25737 9.50455 6.71412 9.65717C6.88474 9.71391 6.9998 9.87488 6.9998 10.0556V10.3662C6.99762 10.904 6.60474 11.3597 6.07493 11.438C5.20124 11.5673 4.55287 12.3189 4.5498 13.2065V14.7771H5.2498V13.2065C5.25199 12.6686 5.64487 12.2129 6.17468 12.1346Z" fill="#754317"/>
<path d="M5.19103 9.69455C5.22385 9.64574 5.24397 9.58944 5.24966 9.53094L5.59966 5.62891H5.24966L4.83228 6.35592L4.55885 9.37877L3.67291 10.7158C2.87403 11.9178 2.44835 13.3314 2.44922 14.7771H3.14922C3.14791 13.4699 3.53291 12.1914 4.25522 11.1046L5.1906 9.69455H5.19103Z" fill="#754317"/>
<path d="M17.8498 14.4256C17.845 13.5882 17.4193 12.8102 16.7184 12.3576C16.9963 11.9913 17.1476 11.5435 17.1498 11.083V9.79131C17.152 9.06034 16.8628 8.35884 16.3474 7.84337C15.9638 7.45942 15.7485 6.93736 15.7498 6.39286V5.62891H15.0498V6.39286C15.0476 7.12384 15.3368 7.82534 15.8522 8.3408C16.2359 8.72476 16.4511 9.24682 16.4498 9.79131V11.083C16.4485 11.5259 16.2416 11.9424 15.8898 12.209C15.3622 12.6088 15.0516 13.2337 15.0498 13.8979V14.7775H15.7498V13.8979C15.7533 13.5056 15.9196 13.1326 16.2083 12.8691C16.7841 13.173 17.1463 13.7716 17.1498 14.4256V14.7775H17.8498V14.4256Z" fill="#754317"/>
<path d="M14.9853 11.4164C15.442 11.2638 15.75 10.8341 15.7496 10.3503V10.0398C15.7461 9.15226 15.0977 8.40062 14.2245 8.27131C13.6951 8.19303 13.3022 7.73738 13.2996 7.19949V5.62891H12.5996V7.19949C12.6031 8.08703 13.2515 8.83868 14.1247 8.96798C14.6541 9.04627 15.047 9.50192 15.0496 10.0398V10.3503C15.0496 10.5311 14.9345 10.6916 14.7639 10.7488C14.3072 10.9014 13.9992 11.3311 13.9996 11.8149V14.7771H14.6996V11.8149C14.6996 11.6341 14.8147 11.4736 14.9853 11.4164Z" fill="#754317"/>
<path d="M13.3004 10.875C13.2951 10.8165 13.2755 10.7602 13.2431 10.7114L12.3064 9.30136C11.5841 8.21414 11.1991 6.93604 11.2004 5.62891H10.1504V14.7771H10.8504V7.86405C11.056 8.51145 11.3505 9.12631 11.7254 9.69192L12.6113 11.029L12.9504 14.7771H13.6539L13.6504 14.7454L13.3004 10.875Z" fill="#754317"/>
<path d="M0 9.85156H21V11.259H0V9.85156Z" fill="#D39D63"/>
<path d="M21 9.85258L15.75 3.87109H5.25L0 9.85258H21Z" fill="#B57841"/>
<path d="M0 5.98047H21V7.38788H0V5.98047Z" fill="#FCD7A7"/>
<path d="M21 5.98148L15.75 0H5.25L0 5.98148H21Z" fill="#D39D63"/>
<path d="M2.63965 2.97403C5.24277 3.35227 7.86996 3.53435 10.4998 3.51852C13.1296 3.53391 15.7572 3.35183 18.3599 2.97403L15.7498 0H5.24977L2.63965 2.97403Z" fill="#EAB87D"/>
</g>
<defs>
<clipPath id="clip0_28737_18982">
<rect width="21" height="19" fill="white"/>
</clipPath>
</defs>
</svg>
