<svg width="26" height="27" viewBox="0 0 26 27" fill="none" xmlns="http://www.w3.org/2000/svg">
<g clip-path="url(#clip0_28233_50554)">
<path d="M5.44616 21.8485C5.19091 22.3029 5.06463 22.8364 4.71267 23.2221C3.94156 24.0646 2.38054 23.9141 1.75183 24.8623C3.13552 25.6785 4.76371 25.9611 6.35429 26.2332C10.0164 26.8566 13.8262 27.472 17.397 26.4683C18.2218 26.2358 19.0225 25.9189 19.8608 25.7419C20.9758 25.5042 22.1284 25.5174 23.2703 25.5332C22.8753 24.8782 22.2708 24.3446 21.5669 24.0277C21.1692 23.8481 20.7125 23.7186 20.4518 23.3726C20.3121 23.1877 20.245 22.9632 20.1429 22.7572C19.6673 21.7852 18.5281 21.3282 17.4668 21.0588C15.2368 20.4935 12.9181 20.3773 10.6236 20.4249C8.88524 20.4618 6.43758 20.0815 5.44347 21.8512L5.44616 21.8485Z" fill="#664A3B"/>
<path d="M3.38 8.24965C3.77496 8.5851 4.17261 8.92319 4.56756 9.25865C3.99259 7.63685 3.78302 5.89355 3.95498 4.18459L4.96252 5.37056C4.97595 4.07894 5.26881 2.78995 5.81692 1.61719C6.4295 2.54695 6.81371 3.61934 6.92656 4.72343C7.15762 4.29289 7.38869 3.8597 7.61975 3.42916C8.22965 5.34679 8.53326 7.35687 8.51445 9.36694C9.04912 8.31832 9.55423 7.25385 10.0298 6.17618C9.96531 9.63372 9.80142 13.0886 9.5408 16.5356C9.5193 16.8103 9.47632 17.1246 9.23988 17.2725C9.03568 17.402 8.76432 17.3491 8.53057 17.2831C7.60094 17.0163 6.78147 16.5752 5.98618 16.0417C5.27419 15.5662 4.9867 14.898 4.64279 14.1188C3.82601 12.2724 3.39075 10.2624 3.38269 8.24965H3.38Z" fill="#267F4A"/>
<path d="M21.8919 8.24965C21.4969 8.5851 21.0993 8.92319 20.7043 9.25865C21.2793 7.63685 21.4888 5.89355 21.3169 4.18459C20.981 4.5808 20.6452 4.97436 20.3093 5.37056C20.2959 4.07894 20.003 2.78995 19.4549 1.61719C18.8424 2.54695 18.4581 3.61934 18.3453 4.72343C18.1142 4.29289 17.8832 3.8597 17.6521 3.42916C17.0422 5.34679 16.7386 7.35687 16.7574 9.36694C16.2227 8.31832 15.7176 7.25385 15.2421 6.17618C15.3065 9.63372 15.4704 13.0886 15.7311 16.5356C15.7526 16.8103 15.7955 17.1246 16.032 17.2725C16.2362 17.402 16.5075 17.3491 16.7413 17.2831C17.6709 17.0163 18.4904 16.5752 19.2857 16.0417C19.9977 15.5662 20.2852 14.898 20.6291 14.1188C21.4458 12.2724 21.8811 10.2624 21.8892 8.24965H21.8919Z" fill="#267F4A"/>
<path d="M6.2226 12.1565C6.07483 13.324 6.02109 14.5021 6.06139 15.6775C4.53261 13.8655 3.37192 11.7524 2.66799 9.50197C2.55514 10.7461 2.58201 12.0033 2.75128 13.2421C1.56909 12.0245 0.639465 10.5691 0.0403126 8.99219C-0.222992 11.8158 0.846348 14.6526 2.56589 16.9295C4.28543 19.2063 6.61487 20.9708 9.0679 22.4605C10.1587 23.1235 11.3302 23.7521 12.6118 23.8419C12.773 23.8525 11.8917 20.4689 11.7708 20.1784C11.4188 19.3358 11.0239 18.4456 10.3173 17.8407C8.43651 16.2348 7.22746 14.3991 6.22529 12.1592L6.2226 12.1565Z" fill="#00A94D"/>
<path d="M19.7774 12.1514C19.9252 13.3188 19.9763 14.4969 19.9387 15.6723C21.4674 13.8603 22.6281 11.7472 23.3321 9.4968C23.4449 10.7409 23.418 11.9982 23.2488 13.237C24.431 12.0167 25.3579 10.5613 25.9597 8.98438C26.223 11.808 25.1537 14.6448 23.4342 16.9217C21.7146 19.1985 19.3852 20.963 16.9321 22.4527C15.8413 23.1157 14.6699 23.7443 13.3883 23.8341C13.2271 23.8447 14.1083 20.4611 14.2292 20.1705C14.5812 19.3279 14.9762 18.4378 15.6828 17.8329C17.5635 16.227 18.7726 14.3912 19.7748 12.1514H19.7774Z" fill="#00A94D"/>
<path d="M7.08777 16.1863C7.875 16.8281 8.75895 17.3564 9.70201 17.7473C8.08188 14.6913 7.5284 11.1016 8.15442 7.71278C8.79119 8.68744 9.50856 9.60927 10.3012 10.4651C10.0889 6.83584 10.9782 3.15114 12.824 0C14.5409 2.95568 15.4007 6.38945 15.2717 9.79153C16.0159 8.52367 16.6258 7.18186 17.088 5.79251C17.8053 9.40853 17.6361 13.1883 16.599 16.7277C17.3674 15.5655 18.1358 14.406 18.9042 13.2438C18.9042 13.8645 18.8451 15.3859 18.735 15.9908C18.5603 16.9575 18.2648 17.9005 17.8671 18.8012C17.0853 20.563 15.8709 22.2825 14.3179 23.4764C10.8546 26.1336 7.67617 18.6903 7.08777 16.1863Z" fill="#00A94D"/>
<path d="M6.07483 23.3199C6.48859 22.9078 7.09043 22.744 7.66809 22.6252C8.48487 22.4588 9.32315 22.3478 10.1534 22.4218C10.9836 22.4957 11.8138 22.7678 12.4533 23.2934C12.5688 23.3885 12.687 23.4968 12.8348 23.5312C12.9422 23.5549 13.0551 23.5364 13.1626 23.5206C14.1083 23.3753 15.089 23.3383 16.0106 23.5893C16.9321 23.8402 17.7946 24.4054 18.2433 25.2375" fill="#474136"/>
<path d="M6.07483 23.327C6.44561 22.9071 7.0152 22.7169 7.54719 22.5742C8.08723 22.4422 8.63802 22.3392 9.19956 22.289C10.3146 22.1912 11.5236 22.3893 12.4586 23.0919C12.5768 23.1791 12.6789 23.2795 12.7703 23.3323C12.8616 23.3878 12.9315 23.3931 13.0632 23.3772C13.3318 23.3376 13.6166 23.298 13.8987 23.2821C14.4603 23.2478 15.0326 23.2557 15.5914 23.3719C16.1476 23.4829 16.6876 23.6915 17.1578 24.0032C17.6199 24.3202 18.0176 24.7428 18.246 25.242C17.9504 24.7798 17.5447 24.3994 17.0691 24.1379C16.6016 23.8659 16.0804 23.6942 15.5457 23.6202C15.0111 23.5436 14.4657 23.541 13.9229 23.5912C13.6489 23.6149 13.3856 23.6519 13.1061 23.6942C13.0309 23.7047 12.9476 23.7127 12.8563 23.7021C12.7622 23.6915 12.6709 23.6546 12.5983 23.6123C12.4506 23.5225 12.3565 23.4274 12.2544 23.3534C11.838 23.0338 11.3409 22.8199 10.8224 22.6931C10.3038 22.5584 9.75841 22.5293 9.21568 22.5425C8.67026 22.5584 8.12484 22.635 7.58211 22.7327C7.04476 22.8225 6.49665 22.9625 6.07483 23.327Z" fill="#35322B"/>
</g>
<defs>
<clipPath id="clip0_28233_50554">
<rect width="26" height="27" fill="white"/>
</clipPath>
</defs>
</svg>
