<svg width="26" height="26" viewBox="0 0 26 26" fill="none" xmlns="http://www.w3.org/2000/svg">
<g clip-path="url(#clip0_28737_19005)">
<path d="M0 25.9997V10.3997L8.6677 4.33203H17.3354L26.0031 10.3997V25.9997L13.0031 18.2491L0 25.9997Z" fill="#BA3A20"/>
<path d="M8.66746 11.6992L4.33516 14.7315L3.46128 16.4793C3.18029 17.0413 3.03516 17.6588 3.03516 18.2857C3.03516 19.5919 3.66509 20.8147 4.72423 21.5743L6.06746 22.5315L8.66746 19.9315V11.6992Z" fill="#A33116"/>
<path d="M6.12328 6.11328L0 10.3993V17.767L4.3323 14.7347L6.12328 6.11328Z" fill="#DB432A"/>
<path d="M3.84395 8.31849C2.88362 9.76054 2.76937 11.604 3.54443 13.1541L4.33493 14.732L8.66723 11.6997V4.33203L4.60357 7.17597L3.84395 8.31849Z" fill="#BA3A20"/>
<path d="M17.335 11.6992L21.6673 14.7315L22.5411 16.4793C22.8221 17.0413 22.9673 17.6588 22.9673 18.2857C22.9673 19.5919 22.3373 20.8147 21.2782 21.5743L19.935 22.5315L17.335 19.9315V11.6992Z" fill="#A33116"/>
<path d="M19.877 6.11328L26.0002 10.3993V17.767L21.6679 14.7347L19.877 6.11328Z" fill="#DB432A"/>
<path d="M22.1582 8.31849C23.1186 9.76054 23.2328 11.604 22.4578 13.1541L21.6673 14.732L17.335 11.6997V4.33203L21.3986 7.17597L22.1582 8.31849Z" fill="#BA3A20"/>
<path d="M8.66813 19.9354V4.3323C8.66813 1.93919 10.6073 0 13.0004 0C15.3935 0 17.3327 1.93919 17.3327 4.3323V19.9323H8.66504L8.66813 19.9354Z" fill="#FF523B"/>
<path d="M8.6677 19.9339C8.6677 17.5408 10.6069 15.6016 13 15.6016C15.3931 15.6016 17.3323 17.5408 17.3323 19.9339L26 26.0016H22.5323L15.3715 21.1011C14.6736 20.6225 13.8461 20.3662 13 20.3662C12.1539 20.3662 11.3264 20.6225 10.6285 21.1011L3.4677 26.0016H0L8.6677 19.9339Z" fill="#822510"/>
</g>
<defs>
<clipPath id="clip0_28737_19005">
<rect width="26" height="26" fill="white"/>
</clipPath>
</defs>
</svg>
