<svg width="26" height="26" viewBox="0 0 26 26" fill="none" xmlns="http://www.w3.org/2000/svg">
<g clip-path="url(#clip0_28737_19016)">
<path d="M1.14062 10.3776L4.58075 6.9375L5.19338 7.55012L1.75325 10.9903L1.14062 10.3776Z" fill="#95AFD1"/>
<path d="M20.9795 7.72981L21.5921 7.11719L24.49 10.0151L23.8774 10.6277L20.9795 7.72981Z" fill="#95AFD1"/>
<path d="M15.6016 7.55012L16.2142 6.9375L19.4907 10.214L18.8781 10.8267L15.6016 7.55012Z" fill="#95AFD1"/>
<path d="M6.50293 10.214L9.77947 6.9375L10.3921 7.55012L7.11555 10.8267L6.50293 10.214Z" fill="#95AFD1"/>
<path d="M26 4.33333L20.287 3.588C17.5289 3.22833 14.9668 1.96679 13 0C11.0332 1.96679 8.47112 3.22833 5.71296 3.588L0 4.33333V7.8H26V4.33333Z" fill="#7C8481"/>
<path d="M0.433594 7.80078V26.0008H2.16693V7.80078" fill="#C1CFE8"/>
<path d="M23.833 7.80078V26.0008H25.5663V7.80078" fill="#C1CFE8"/>
<path d="M18.6338 7.80078V20.8008H20.3671V7.80078" fill="#95AFD1"/>
<path d="M5.63379 7.80078V20.8008H7.36712V7.80078" fill="#95AFD1"/>
<path d="M0 4.33203H26V7.7987H0V4.33203Z" fill="#7C8481"/>
<path d="M4.76677 6.4987H26.0001V4.33203H1.55469C2.08444 5.64124 3.35465 6.49816 4.76677 6.4987Z" fill="#ACAFAE"/>
<path d="M5.63379 8.66797H7.36712V20.8013H5.63379V8.66797Z" fill="#A5BADB"/>
<path d="M18.6338 8.66797H20.3671V20.8013H18.6338V8.66797Z" fill="#A5BADB"/>
<path d="M0.433594 8.66797H2.16693V26.0013H0.433594V8.66797Z" fill="#D7E0EF"/>
<path d="M23.833 8.66797H25.5663V26.0013H23.833V8.66797Z" fill="#D7E0EF"/>
</g>
<defs>
<clipPath id="clip0_28737_19016">
<rect width="26" height="26" fill="white"/>
</clipPath>
</defs>
</svg>
