<svg width="28" height="27" viewBox="0 0 28 27" fill="none" xmlns="http://www.w3.org/2000/svg">
<path d="M21.5283 12.6647C21.5283 12.6647 21.5283 14.6116 19.1314 16.0625C18.4642 16.466 17.6455 15.8464 17.8386 15.0879C18.1942 13.69 18.609 11.7408 18.609 10.2855C18.609 7.74101 15.76 11.3373 15.76 11.3373L16.2934 15.1563C16.2934 15.1563 15.9993 15.9015 15.0664 17.0062C14.6121 17.5442 13.7451 17.3502 13.5541 16.6711C13.2358 15.5487 13.0119 14.2544 14.0216 12.1112C15.7425 8.45762 11.6116 11.7232 11.6116 11.7232C11.6116 11.7232 12.3798 13.0461 11.706 16.3117C11.5721 16.9621 10.7885 17.2355 10.2858 16.8056C9.43639 16.0779 8.98204 15.928 8.58036 13.8818C8.45964 13.2688 8.10845 13.1387 8.13918 12.3846C8.13918 12.3846 8.0448 15.1386 7.42363 15.595C7.42363 15.595 5.05529 14.3779 4.89067 13.6018C4.72605 12.8256 4.89067 15.207 4.89067 15.207C4.89067 15.207 13.5804 17.5927 9.26957 26.5492C9.20812 26.6771 9.29811 26.8271 9.44078 26.8271H14.5462C14.6867 26.8271 14.7789 26.6837 14.7218 26.5559C14.3487 25.7422 13.5146 23.1536 15.7622 19.5573C20.207 16.0934 20.9796 16.8673 22.0244 13.712C23.0714 10.5589 21.5283 12.6625 21.5283 12.6625V12.6647Z" fill="#664A3B"/>
<path d="M5.95529 14.4165C6.29111 14.3658 6.63352 14.3547 6.97374 14.3856C6.87497 13.9733 7.54442 13.658 7.79465 13.9998C8.10194 14.4165 7.70026 15.2433 8.18754 15.4131C8.47288 15.5123 8.7275 15.2279 8.97333 15.0559C9.31135 14.82 9.77668 14.7825 10.1498 14.9589C10.163 14.7075 10.174 14.4562 10.1871 14.2048C10.4198 14.2136 10.6525 14.2247 10.8851 14.2335C10.8895 14.0108 10.8939 13.7903 10.9005 13.5676C12.055 13.7065 12.8562 15.1992 13.9997 14.981C14.1512 14.9523 14.3048 14.8906 14.4563 14.9258C14.5946 14.9567 14.7021 15.0625 14.8206 15.1419C15.365 15.5146 16.1069 15.3602 16.7083 15.0934C17.3097 14.8266 17.8958 14.4562 18.552 14.4253C19.0547 14.4011 19.6737 14.5356 19.9722 14.1276C20.0578 14.0108 20.1017 13.8608 20.2136 13.7704C20.5385 13.5058 20.9445 13.9512 21.2452 14.2445C21.7742 14.7605 22.571 14.8641 23.3085 14.8817C23.6904 14.8906 24.0877 14.8817 24.4301 14.7075C24.7725 14.5333 25.0359 14.1541 24.9613 13.7793C24.8801 13.3824 24.4608 12.9678 24.7132 12.6525C25.15 12.8554 25.7141 12.7451 26.0412 12.3901C25.6966 11.6757 26.276 10.6967 27.0662 10.6615C27.2747 10.6526 27.4898 10.6967 27.6918 10.6394C27.8937 10.5821 28.0693 10.3528 27.9727 10.1653C27.8498 9.92721 27.4064 9.96249 27.3581 9.69789C27.323 9.50386 27.5425 9.37376 27.6457 9.20839C27.8366 8.8997 27.5667 8.46974 27.2177 8.37272C26.8687 8.2757 26.4999 8.4102 26.1729 8.56234C26.1004 7.85676 25.5517 7.22394 24.8647 7.05857C25.2949 6.86674 25.4859 6.2692 25.2444 5.86348C25.003 5.45777 24.3906 5.33871 24.0174 5.62535C24.1667 5.22625 24.0701 4.74557 23.7804 4.43468C23.4907 4.12378 23.0209 3.99589 22.6149 4.11716C22.4854 3.51301 22.3559 2.90665 22.2264 2.30249C22.1781 2.07758 22.1254 1.83945 21.9762 1.66305C21.614 1.23309 20.894 1.35657 20.4594 0.999364C20.3475 0.906756 20.2443 0.778869 20.0995 0.770049C19.858 0.756819 19.7198 1.08315 19.4783 1.12064C19.3444 1.14048 19.2171 1.06331 19.0898 1.01259C18.6376 0.831788 18.0714 1.01921 17.8145 1.43374C17.718 1.06551 17.2922 0.878092 16.9124 0.873682C16.5327 0.869272 16.1596 0.990544 15.7798 0.999364C15.1718 1.01259 14.5968 0.73477 13.9932 0.666416C13.3895 0.598063 12.6477 0.867067 12.5511 1.46902C12.505 1.75125 12.6038 2.07758 12.4216 2.29587C12.3096 2.43038 12.1231 2.47448 11.965 2.55165C11.6402 2.7082 11.4075 3.04115 11.3702 3.40055C11.1595 3.24841 10.9422 3.08525 10.8237 2.85373C10.7051 2.62221 10.7249 2.29587 10.9356 2.14373C11.0432 2.06656 11.1836 2.04451 11.3 1.98277C11.5963 1.82402 11.6841 1.44697 11.7433 1.11623C11.7565 1.03464 11.7719 0.946445 11.7346 0.873682C11.6951 0.792099 11.6051 0.750205 11.5238 0.71272C11.1156 0.531914 10.7095 0.353313 10.3013 0.172508C9.90618 -0.00168352 9.35305 -0.131776 9.12259 0.234246C9.04796 0.353313 9.0282 0.505455 8.93163 0.606883C8.74506 0.805328 8.38948 0.710515 8.17657 0.880297C7.93951 1.06992 7.99878 1.48666 7.76611 1.6829C7.641 1.78874 7.46102 1.80197 7.31615 1.87693C7.09227 1.9938 6.96276 2.27162 7.01764 2.51857C7.07471 2.76553 7.31176 2.96177 7.56637 2.96618C7.79026 2.97059 7.99658 2.8427 8.21827 2.7964C8.43996 2.75009 8.72969 2.83609 8.75823 3.06099C8.78456 3.27267 8.54751 3.42922 8.3368 3.43583C8.12608 3.44245 7.91976 3.36087 7.70904 3.35425C7.08349 3.33441 6.43817 3.97164 5.90919 3.63428C5.71604 3.5108 5.58654 3.27267 5.36046 3.23739C4.96756 3.17785 4.79855 3.74453 4.44517 3.92974C4.09398 4.11496 3.5211 3.94959 3.37843 4.32002C3.3455 4.40822 3.35209 4.50524 3.34111 4.59784C3.28405 5.10498 2.77482 5.42029 2.30949 5.62535C1.91221 5.80175 1.49736 5.9605 1.15934 6.23612C0.821323 6.50953 0.56671 6.93509 0.619389 7.36726C0.663287 7.73549 0.92229 8.07284 0.874002 8.44107C0.612804 8.5447 0.340631 8.65495 0.160646 8.87104C-0.0193389 9.08712 -0.0720175 9.43991 0.127722 9.64056C0.450378 9.96469 1.0057 9.61852 1.44908 9.72656C1.47981 9.88311 1.51053 10.0375 1.53907 10.194C1.95391 10.2249 2.36656 10.2557 2.7814 10.2866C2.80335 10.4299 2.8253 10.5733 2.84945 10.7144C3.17649 10.3065 3.85034 10.5887 4.33981 10.4013C4.59662 10.3043 4.78538 10.0816 5.02024 9.93823C5.2551 9.79491 5.61288 9.76184 5.76433 9.99336C5.28583 10.5005 4.68661 10.8864 4.03033 11.1135C3.62865 11.2524 3.19405 11.3384 2.85603 11.5986C2.52021 11.8609 2.32925 12.3835 2.59044 12.7209C2.32047 12.7054 2.04829 12.7319 1.7871 12.8003C1.75417 13.1023 1.79149 13.411 1.89245 13.6977C2.36217 13.6183 2.86701 13.9182 3.02724 14.3702C3.09089 14.5554 3.10406 14.7561 3.1743 14.9369C3.36306 15.4175 3.93814 15.6468 4.44956 15.6005C4.96098 15.5542 5.42411 15.2941 5.87188 15.0383" fill="#30A861"/>
<path d="M12.8978 5.58218C12.5619 5.31097 12.2239 5.03976 11.8859 4.77075C11.7915 4.69578 11.6906 4.61641 11.5698 4.612C11.4711 4.60759 11.3789 4.6561 11.2845 4.68476C10.7182 4.87218 10.1365 4.48631 9.55049 4.36725C8.70763 4.19967 7.86917 4.60097 7.10313 4.99125C6.90559 5.09047 6.6839 5.22718 6.66195 5.44767C6.37222 5.32199 6.05834 5.1919 5.74666 5.24482C5.43498 5.29774 5.14744 5.61966 5.2528 5.92174C4.92575 6.07388 4.55042 5.76298 4.19484 5.82251C3.83487 5.88425 3.6461 6.28996 3.60001 6.65378C3.55391 7.0176 3.58025 7.40567 3.40027 7.72539L3.40905 7.83343C3.82389 7.90178 4.26727 7.98337 4.57676 8.27001C4.70406 8.38687 4.80284 8.5324 4.92356 8.65808C5.33182 9.07923 6.00566 9.20932 6.53903 8.97559C6.89461 8.81904 7.17337 8.52578 7.50261 8.32072C7.83405 8.11566 8.28401 8.00762 8.59789 8.23914C8.9842 8.52358 9.04346 9.22255 9.51757 9.2887C9.88412 9.33941 10.1365 8.95354 10.3846 8.67793C10.6699 8.36041 11.0628 8.13992 11.482 8.06495C11.8135 8.00542 12.1625 8.03408 12.4851 7.93045C12.8078 7.82681 13.1107 7.52474 13.0492 7.19179C12.9044 7.37921 12.5356 7.22927 12.5619 6.99334C12.5971 6.66481 13.1173 6.64276 13.2621 6.34729C13.396 6.07167 13.1326 5.77621 12.8934 5.58438L12.8978 5.58218Z" fill="#267F4A"/>
<path d="M22.4282 4.52624C22.2548 4.34984 21.9892 4.23519 21.9234 3.99485C21.897 3.89562 21.908 3.79199 21.9124 3.68836C21.9541 2.69613 21.0586 1.76123 20.0708 1.76564C20.0972 1.8803 20.1213 1.99496 20.1455 2.10961C19.7021 1.99275 19.1951 2.20002 18.9624 2.5947C18.1722 2.34334 17.382 2.08977 16.5897 1.8384C16.4931 1.80753 16.3855 1.77667 16.2955 1.82297C16.1924 1.87589 16.1551 2.00378 16.098 2.1052C15.9114 2.43154 15.4856 2.50209 15.1234 2.60573C14.7613 2.70936 14.3618 3.00262 14.4474 3.36864L14.3355 3.68615C14.1752 4.34102 14.7174 5.07527 15.389 5.11276C15.6744 5.12819 15.9531 5.03779 16.2319 4.98266C16.6599 4.89888 17.1011 4.89446 17.5291 4.97384C17.6015 4.98707 17.6805 5.00471 17.7288 5.06204C17.9198 5.27592 17.4545 5.58902 17.5642 5.85582C17.6081 5.95946 17.7266 6.00797 17.8342 6.04324C18.5234 6.25933 19.2631 6.31225 19.9743 6.19098C20.242 6.14688 20.5252 6.06529 20.6942 5.85362C20.8522 5.65517 20.8917 5.35971 21.0981 5.21198C21.4493 4.96061 21.9804 5.32002 22.3624 5.11717C22.6104 5.10614 22.6038 4.70925 22.4304 4.53285L22.4282 4.52624Z" fill="#267F4A"/>
<path d="M15.5427 11.9939C15.4198 11.7315 15.2003 11.5264 14.9742 11.3456C14.375 10.865 13.5848 10.4769 12.8583 10.7238C12.6344 10.801 12.4281 10.9333 12.1976 10.9906C11.4053 11.1847 10.6568 10.4306 9.84246 10.4703C9.08302 10.5078 8.4838 11.2177 7.72435 11.2508C7.35999 11.2663 7.0088 11.1207 6.64444 11.0877C6.28008 11.0524 5.84548 11.1847 5.73354 11.5353C5.65891 11.7712 5.75329 12.0512 5.62818 12.2673C5.5338 12.4327 5.33845 12.5054 5.19797 12.6355C4.83361 12.9707 4.92361 13.5594 5.04213 14.0401L5.06847 13.9276C5.2287 13.8152 5.33625 14.1151 5.45039 14.2738C5.56892 14.4392 5.81475 14.4656 6.00352 14.3907C6.19228 14.3157 6.33715 14.1614 6.47323 14.0092C6.76516 13.6895 7.06367 13.3565 7.45657 13.1802C7.84946 13.0038 8.36966 13.028 8.64842 13.3588C8.86133 13.6101 8.97107 14.0357 9.29812 14.0489C9.68004 14.0665 9.78101 13.5285 10.029 13.2353C10.3078 12.9089 10.7973 12.9023 11.2253 12.92C11.4887 12.931 11.7608 12.9442 12.0001 13.0523C12.224 13.1515 12.4083 13.3279 12.6235 13.4447C12.8386 13.5616 13.1239 13.6145 13.3193 13.4624C13.1568 13.286 13.0668 13.0434 13.0756 12.8031C13.4597 12.8803 13.8438 12.9575 14.2301 13.0346C14.6713 13.1228 15.2157 13.1779 15.49 12.8185C15.6678 12.5892 15.6591 12.2541 15.5339 11.9917L15.5427 11.9939Z" fill="#267F4A"/>
<path d="M25.6131 9.06962C25.207 9.2857 24.6934 9.16884 24.3093 8.91527C23.9251 8.6617 23.6354 8.29127 23.3193 7.95832C23.1942 7.82602 23.0559 7.69373 22.8825 7.6386C22.6257 7.55922 22.3536 7.66506 22.088 7.69593C21.221 7.79956 20.2859 7.12264 19.5199 7.5482C19.1358 7.76208 18.8219 8.23835 18.3939 8.14133C18.2073 8.09723 18.0669 7.9495 17.8956 7.86792C17.6125 7.73121 17.2767 7.78633 16.9782 7.88115C16.3921 8.06857 15.8565 8.41034 15.4417 8.86456L15.5383 9.04095C15.3715 9.05198 15.2156 9.16002 15.1454 9.31437C15.5932 9.35405 15.9465 9.83473 15.8544 10.2757C15.8258 10.4146 15.76 10.5491 15.7644 10.6925C15.7753 11.0585 16.199 11.2349 16.5348 11.3738C16.9913 11.5634 17.415 11.8412 17.7705 12.1852C17.8496 12.2624 17.9308 12.3484 17.9571 12.4586C18.023 12.721 17.7639 12.9658 17.7749 13.2348C17.7859 13.5324 18.1327 13.7199 18.4268 13.6846C18.7209 13.6515 18.9756 13.4685 19.2302 13.3163C19.6187 13.0804 20.0423 12.8996 20.4813 12.7783C20.5581 12.7563 20.6393 12.7387 20.7139 12.7607C20.7864 12.7828 20.8434 12.8423 20.9137 12.8732C21.1244 12.968 21.3461 12.7916 21.5261 12.6505C21.7061 12.5071 21.9914 12.3947 22.1407 12.5711C21.9299 13.2237 22.5818 13.9867 23.2579 13.872C23.1284 13.6052 23.3962 13.3186 23.6486 13.1664C23.901 13.0143 24.2105 12.8246 24.2017 12.5292C24.1907 12.2051 23.8154 12.0485 23.5564 11.8523C23.1876 11.5722 23.0011 11.0717 23.0977 10.6175C23.1152 10.5315 23.1459 10.4433 23.214 10.3838C23.3171 10.2956 23.4708 10.3088 23.6069 10.3242C24.1776 10.3904 24.757 10.386 25.3277 10.3088C25.466 10.2912 25.6087 10.2647 25.7184 10.1787C26.0367 9.92734 25.8347 9.41359 25.6109 9.06962H25.6131Z" fill="#267F4A"/>
</svg>
