<svg width="34" height="39" viewBox="0 0 34 39" fill="none" xmlns="http://www.w3.org/2000/svg">
<g clip-path="url(#clip0_28737_20136)">
<path d="M21.4735 29.8194C21.9615 28.1947 22.9376 26.7322 24.2393 25.5942C26.6794 23.5627 28.2251 20.4754 28.2251 17.0629C28.2251 10.7254 22.9383 5.52516 16.4307 5.85041C10.6559 6.09416 5.93796 10.9692 5.77554 16.7377C5.69395 20.3124 7.23964 23.4812 9.76141 25.5942C11.1439 26.7314 12.12 28.1939 12.608 29.8194H21.4742H21.4735Z" fill="#FFD15C"/>
<path d="M15.9423 29.9831H16.6744L13.4205 17.8771H13.6646C14.071 17.8771 14.4782 17.7148 14.8031 17.3896C14.9655 17.2273 15.1287 17.1458 15.3727 17.1458C15.6167 17.1458 15.7791 17.2273 15.9423 17.3896C16.5119 18.0393 17.488 18.0393 18.0569 17.3896C18.2193 17.2273 18.3825 17.1458 18.6265 17.1458C18.7889 17.1458 19.0329 17.2273 19.1961 17.3896C19.5217 17.7148 19.8466 17.8771 20.3346 17.8771H20.5786L17.4064 29.9831H18.1385L21.4731 17.3081C21.4731 17.1458 21.4731 16.9828 21.3107 16.9021C21.1483 16.8206 20.9851 16.9021 20.9042 16.9836C20.7418 17.1458 20.5786 17.2273 20.4162 17.2273C20.1722 17.2273 20.0098 17.1458 19.7658 16.9836C19.4401 16.6583 19.1153 16.4961 18.7081 16.4961C18.3009 16.4961 17.976 16.6583 17.6504 16.9836C17.3248 17.3088 16.8368 17.3088 16.5119 16.9836C16.2679 16.6583 15.8615 16.4961 15.4543 16.4961C15.0478 16.4961 14.6406 16.6583 14.3966 16.9836C14.2342 17.1458 13.9902 17.2273 13.7462 17.2273C13.5837 17.2273 13.3397 17.1458 13.2581 16.9836C13.1765 16.9021 13.0141 16.8213 12.8517 16.9021C12.6893 16.9836 12.6077 17.1458 12.6893 17.3081L15.9431 29.9831H15.9423Z" fill="white"/>
<path d="M14.4785 37.293C14.885 38.268 15.861 38.9992 17.0003 38.9992C18.1395 38.9992 19.1148 38.268 19.522 37.293H14.4793H14.4785Z" fill="#344A5E"/>
<path d="M20.0095 37.376H14.0715C13.2579 37.376 12.6074 36.7263 12.6074 35.9135V29.7383H21.4736V35.9135C21.4736 36.7263 20.8232 37.376 20.0095 37.376Z" fill="#344A5E"/>
<path d="M21.392 32.8261H12.6074C12.1193 32.8261 11.7129 32.4201 11.7129 31.9326C11.7129 31.4451 12.1193 31.0391 12.6074 31.0391H21.392C21.88 31.0391 22.2865 31.4451 22.2865 31.9326C22.2865 32.4201 21.88 32.8261 21.392 32.8261Z" fill="#415A6B"/>
<path d="M21.392 35.6698H12.6074C12.1193 35.6698 11.7129 35.2638 11.7129 34.7763C11.7129 34.2888 12.1193 33.8828 12.6074 33.8828H21.392C21.88 33.8828 22.2865 34.2888 22.2865 34.7763C22.2865 35.2638 21.88 35.6698 21.392 35.6698Z" fill="#415A6B"/>
<path d="M16.9992 0C16.5928 0 16.1855 0.325254 16.1855 0.812754V3.57551C16.1855 3.9815 16.5112 4.38826 16.9992 4.38826C17.4872 4.38826 17.8128 4.06301 17.8128 3.57551V0.812754C17.8128 0.325254 17.4064 0 16.9992 0Z" fill="#FFD15C"/>
<path d="M6.10019 4.95488C5.77458 4.62962 5.28654 4.62962 4.9617 4.95488C4.63685 5.28013 4.63608 5.76763 4.9617 6.09212L6.91383 8.04212C7.23944 8.36738 7.72748 8.36738 8.05233 8.04212C8.37718 7.71687 8.37794 7.22937 8.05233 6.90488L6.10019 4.95488Z" fill="#FFD15C"/>
<path d="M3.57867 16.168H0.813645C0.407204 16.168 0 16.4932 0 16.9807C0 17.3867 0.325611 17.7935 0.813645 17.7935H3.57943C3.98587 17.7935 4.39307 17.4682 4.39307 16.9807C4.39307 16.5747 3.98663 16.168 3.57943 16.168H3.57867Z" fill="#FFD15C"/>
<path d="M6.91412 25.9194L4.96198 27.8694C4.63637 28.1947 4.63637 28.6822 4.96198 29.0067C5.28759 29.3312 5.77563 29.3319 6.10047 29.0067L8.05261 27.0567C8.37822 26.7314 8.37822 26.2439 8.05261 25.9194C7.727 25.5949 7.23897 25.5942 6.91412 25.9194Z" fill="#FFD15C"/>
<path d="M27.0855 25.9197C26.7599 25.5945 26.2719 25.5945 25.947 25.9197C25.6222 26.245 25.6214 26.7325 25.947 27.057L27.8992 29.007C28.2248 29.3322 28.7128 29.3322 29.0377 29.007C29.3625 28.6817 29.3633 28.1942 29.0377 27.8697L27.0855 25.9197Z" fill="#FFD15C"/>
<path d="M33.1859 16.168H30.4201C30.0136 16.168 29.6064 16.4932 29.6064 16.9807C29.6064 17.3867 29.9321 17.7935 30.4201 17.7935H33.1859C33.5923 17.7935 33.9995 17.4682 33.9995 16.9807C33.9995 16.5747 33.6739 16.168 33.1859 16.168Z" fill="#FFD15C"/>
<path d="M27.8995 4.95459L25.9473 6.90459C25.6217 7.22985 25.6217 7.71735 25.9473 8.04184C26.2729 8.36709 26.761 8.36709 27.0858 8.04184L29.038 6.09184C29.3636 5.76658 29.3636 5.27908 29.038 4.95459C28.7124 4.6301 28.2243 4.62934 27.8995 4.95459Z" fill="#FFD15C"/>
</g>
<defs>
<clipPath id="clip0_28737_20136">
<rect width="34" height="39" fill="white"/>
</clipPath>
</defs>
</svg>
