<svg width="45" height="49" viewBox="0 0 45 49" fill="none" xmlns="http://www.w3.org/2000/svg">
<path fill-rule="evenodd" clip-rule="evenodd" d="M20.1909 32.1318L19.9202 37.0624C21.3922 37.7038 22.8248 37.5897 22.5484 38.6606C22.4413 39.0792 22.0014 39.3346 21.5671 39.2314C19.3224 38.6878 17.5909 37.9213 15.9948 36.0132L14.9684 37.0026L19.063 40.9492C19.2434 41.1286 19.3393 41.3841 19.2829 41.6504C18.8825 43.6346 18.2846 45.5372 17.4894 47.4344H27.8218C26.9983 41.4384 24.5337 37.8452 24.5337 30.2727C24.5337 26.2011 27.1732 22.6622 27.6582 18.5036L26.581 18.3568C26.0001 20.8465 25.1202 22.6948 24.246 24.9834C23.6651 26.4946 21.5558 26.7338 20.6309 25.3911C19.8864 24.3039 19.1137 23.1406 18.5159 21.8576L17.0382 22.5372C17.8335 24.255 20.3376 26.7175 20.2643 29.7073C20.2417 30.5608 20.2191 31.3654 20.1966 32.1318H20.1909ZM18.5497 32.6863C16.5137 31.8492 14.8104 30.3869 13.7163 28.5386C7.74362 32.0231 0 27.8917 0 21.0803C0 16.6499 3.45164 12.9425 7.97486 12.4315C8.16662 9.26224 10.7046 6.6801 13.9588 6.30501C17.4894 -0.392245 26.643 -2.11548 32.5085 2.89115C34.4938 4.58721 35.8812 6.90841 36.355 9.53404C44.6739 11.029 47.9337 20.977 41.8934 26.799C39.0114 29.5769 34.7307 30.5282 30.8448 29.2018C29.7168 30.7946 28.115 32.0394 26.2595 32.7624C26.7615 38.8019 28.9667 42.493 29.5419 48.1465C29.5871 48.6032 29.2092 49 28.7354 49H16.2656C15.6903 49 15.2616 48.4292 15.5436 47.8639C16.4122 46.108 17.2074 43.6292 17.6079 41.7591L13.2482 37.557C12.9324 37.2526 12.9324 36.7579 13.2482 36.4481L15.5098 34.2682C15.8708 33.9203 16.4799 33.9529 16.7957 34.4422C17.3089 35.1597 17.8334 35.7088 18.3749 36.1382L18.5554 32.6863H18.5497ZM26.1636 31.0881C26.158 30.8217 26.1523 30.5499 26.1523 30.2727C26.1523 26.337 28.9328 23.059 29.3276 17.9056C29.3671 17.4925 29.0682 17.1174 28.6339 17.0576L26.0508 16.7042C25.6278 16.6444 25.2218 16.9162 25.1428 17.3294C24.6014 20.0529 23.62 22.0805 22.7176 24.4398C22.6217 24.6898 22.3398 24.7551 22.1424 24.6681C21.7024 24.4724 20.0105 21.3521 19.6833 20.5149C19.5141 20.0909 19.0066 19.8952 18.5779 20.0909C15.0304 21.7272 14.2634 21.3793 16.6152 24.929C18.4369 27.6797 18.6794 28.2015 18.6005 30.974C16.9029 30.1259 15.5436 28.7452 14.7597 27.06C14.5341 26.5816 13.925 26.462 13.5076 26.7773C12.2894 27.7014 10.6256 28.2124 9.04644 28.2124C2.50413 28.2124 -0.823429 20.6019 3.71671 16.09C6.85815 12.9642 9.67248 14.7418 9.59916 13.0947C9.4356 10.306 11.6634 7.9304 14.5285 7.8108C15.7298 7.76188 15.2955 5.44611 19.046 3.1249C25.4079 -0.816259 33.9411 3.03249 34.8322 10.3005C34.8773 10.6811 35.2044 10.9692 35.5936 10.9909C37.7875 11.2736 39.7389 12.3228 41.1376 13.8557C42.5307 15.3778 43.371 17.3783 43.371 19.5691C43.371 25.8205 36.7216 29.952 30.8448 27.5166C29.5137 26.9621 29.807 29.3975 26.1636 31.0827V31.0881Z" fill="#29A31E"/>
</svg>
