<svg version="1.2" xmlns="http://www.w3.org/2000/svg" viewBox="0 0 51 51" width="51" height="51">
	<style>
		.s0 { fill: #29a31e } 
	</style>
	<path fill-rule="evenodd" class="s0" d="m21.5 33.7c-2-0.9-3.7-2.3-4.8-4.2-6 3.5-13.7-0.6-13.7-7.4 0-4.5 3.5-8.2 8-8.7 0.2-3.1 2.7-5.7 6-6.1 3.5-6.7 12.6-8.4 18.5-3.4 2 1.7 3.4 4 3.9 6.6 8.3 1.5 11.5 11.5 5.5 17.3-2.9 2.8-7.2 3.7-11.1 2.4-1.1 1.6-2.7 2.8-4.5 3.6 0.5 6 2.7 9.7 3.2 15.3 0.1 0.5-0.3 0.9-0.8 0.9h-12.4c-0.6 0-1-0.6-0.8-1.1 0.9-1.8 1.7-4.3 2.1-6.1l-4.4-4.2c-0.3-0.3-0.3-0.8 0-1.2l2.3-2.1c0.4-0.4 1-0.3 1.3 0.1q0.8 1.1 1.6 1.7l0.2-3.4zm1.6-0.6l-0.3 5c1.5 0.6 2.9 0.5 2.7 1.6-0.2 0.4-0.6 0.6-1 0.5-2.3-0.5-4-1.3-5.6-3.2l-1 1 4.1 3.9c0.1 0.2 0.2 0.5 0.2 0.8-0.4 1.9-1 3.8-1.8 5.7h10.3c-0.8-6-3.3-9.6-3.3-17.1 0-4.1 2.7-7.6 3.2-11.8l-1.1-0.1c-0.6 2.4-1.5 4.3-2.3 6.6-0.6 1.5-2.7 1.7-3.7 0.4-0.7-1.1-1.5-2.3-2.1-3.5l-1.5 0.6c0.8 1.8 3.3 4.2 3.3 7.2q-0.1 1.3-0.1 2.4zm6-1c3.6-1.7 3.3-4.1 4.7-3.6 5.8 2.5 12.5-1.7 12.5-7.9 0-2.2-0.9-4.2-2.3-5.7-1.3-1.6-3.3-2.6-5.5-2.9-0.4 0-0.7-0.3-0.8-0.7-0.8-7.3-9.4-11.1-15.7-7.2-3.8 2.3-3.4 4.7-4.6 4.7-2.8 0.1-5.1 2.5-4.9 5.3 0.1 1.6-2.7-0.1-5.9 3-4.5 4.5-1.2 12.1 5.4 12.1 1.5 0 3.2-0.5 4.4-1.4 0.4-0.3 1-0.2 1.3 0.3 0.8 1.6 2.1 3 3.8 3.9 0.1-2.8-0.2-3.3-2-6.1-2.3-3.5-1.6-3.2 2-4.8 0.4-0.2 0.9 0 1.1 0.4 0.3 0.9 2 4 2.5 4.2 0.2 0.1 0.4 0 0.5-0.3 0.9-2.3 1.9-4.3 2.5-7.1 0-0.4 0.4-0.7 0.9-0.6l2.5 0.4c0.5 0 0.8 0.4 0.7 0.8-0.4 5.2-3.1 8.4-3.1 12.4q0 0.4 0 0.8z"/>
</svg>