<svg width="30" height="30" viewBox="0 0 30 30" fill="none" xmlns="http://www.w3.org/2000/svg">
<path d="M14.6679 10.2223C14.3431 9.02935 13.7245 7.92662 12.8609 7.02193C12.97 6.61236 13.0309 6.1899 13.0438 5.75923L28.4991 21.204C28.8427 21.5473 29.3991 21.5473 29.7427 21.204C30.0863 20.8606 30.0863 20.3045 29.7427 19.9612L11.4092 1.64009C7.3771 -2.33725 0.646198 1.49009 2.05453 7.02252C-0.617898 9.71666 -0.699396 14.4118 1.90678 17.1768C1.62593 19.4274 2.8226 21.6352 4.69471 22.6799V29.1217C4.69471 29.6069 5.08812 30.0006 5.57418 30.0006H27.0679C27.8383 30.0088 28.2441 29.045 27.6894 28.5006L14.3208 15.1419C14.6228 14.4446 14.8157 13.7016 14.8925 12.9329L28.4991 26.5295C28.8427 26.8729 29.3991 26.8729 29.7427 26.5295C30.0863 26.1862 30.0863 25.6301 29.7427 25.2868L14.6679 10.2223ZM8.46237 28.2422H6.45365V23.3204C7.10212 23.4411 7.8139 23.4405 8.46237 23.3198V28.2422ZM7.45742 21.6534C5.06467 21.6797 3.20371 19.3893 3.70442 17.0555C3.76305 16.7643 3.67041 16.4631 3.45817 16.2551C1.11173 14.059 1.21316 10.0184 3.64579 7.92662C3.91842 7.68287 4.01106 7.29556 3.87914 6.95513C2.89999 4.52642 4.8278 1.71041 7.45742 1.76256C10.087 1.71099 12.016 4.52701 11.0357 6.95513C10.9038 7.29615 10.9964 7.68287 11.2691 7.92662C13.7017 10.019 13.8031 14.059 11.4567 16.2551C11.2444 16.4631 11.1518 16.7643 11.2104 17.0555C11.7111 19.3899 9.85018 21.6797 7.45742 21.6534ZM10.2207 28.2422V24.2368L14.23 28.2422H10.2207ZM16.7177 28.2422L10.7818 22.3126C11.3347 21.9024 11.8091 21.3932 12.179 20.8108L19.6135 28.2422H16.7177ZM24.9443 28.2422H22.1007L12.9096 19.0553C13.0468 18.4547 13.0825 17.7997 13.0087 17.1762C13.1459 17.0245 13.276 16.8674 13.3997 16.7063L24.9443 28.2422Z" fill="#78719E"/>
</svg>
