<svg version="1.2" xmlns="http://www.w3.org/2000/svg" viewBox="0 0 51 51" width="51" height="51">
	<defs>
		<clipPath clipPathUnits="userSpaceOnUse" id="cp1">
			<path d="m0 2h50v46h-50z"/>
		</clipPath>
	</defs>
	<style>
		.s0 { fill: #3b87ff } 
	</style>
	<g id="Clip-Path" clip-path="url(#cp1)">
		<g>
			<path class="s0" d="m50 22.4c0-4.2-3.4-7.7-7.7-7.8-0.5-4.2-4.1-7.4-8.4-7.4q-1.4 0-2.7 0.4c-2.5-3.5-6.6-5.6-11-5.6-7.2 0-13.1 5.6-13.3 12.6-1.7 0.3-3.3 1.1-4.6 2.3-1.5 1.4-2.3 3.4-2.3 5.5 0 3.6 2.5 6.6 6 7.5l-0.4 0.7c-1.1 2-0.7 4.4 0.9 6 1.1 1 2.4 1.5 3.7 1.5 1.4 0 2.7-0.5 3.7-1.5 1.6-1.6 2-4 0.9-6l-0.2-0.4h20.8l-0.2 0.4c-1.1 2-0.7 4.4 0.9 6 1 0.9 2.3 1.5 3.7 1.5 1.4 0 2.7-0.6 3.7-1.5 1.6-1.6 2-4 0.9-6l-0.3-0.7c1.3-0.3 2.6-1 3.6-2 1.5-1.5 2.3-3.4 2.3-5.5zm-37.3 12.9c-1.4 1.4-3.6 1.4-4.9 0-1.1-1-1.3-2.6-0.6-3.9l3-5.6 3.1 5.6c0.7 1.3 0.4 2.9-0.6 3.9zm29.5 0c-1.3 1.3-3.6 1.3-4.9 0-1-1-1.3-2.6-0.6-3.9l3.1-5.6 3 5.6c0.8 1.3 0.5 2.9-0.6 3.9zm1-7l-2.6-4.8c-0.3-0.6-1.3-0.6-1.6 0l-2.7 4.9h-22.6l-2.7-4.9c-0.3-0.6-1.3-0.6-1.6 0l-2.6 4.8c-2.9-0.5-5-3-5-5.9 0-1.6 0.6-3.2 1.8-4.3 1.1-1.1 2.6-1.7 4.3-1.8 0.4 0 0.8-0.4 0.8-0.9v-0.4c0-6.2 5.2-11.3 11.5-11.3 4.1 0 7.8 2 9.9 5.4 1.1 1.8 1.7 3.8 1.7 5.9 0 0.5 0.4 0.8 0.8 0.8 0.5 0 0.9-0.3 0.9-0.8 0-2.1-0.5-4-1.4-5.8q0.9-0.3 1.8-0.3c3.7 0 6.7 3 6.7 6.5 0 0.5 0.4 0.9 0.9 0.9h0.5c3.4 0 6.2 2.7 6.2 6.1 0 1.6-0.6 3.1-1.8 4.3-0.9 0.8-2 1.4-3.2 1.6z"/>
			<path class="s0" d="m25.8 33.4c-0.3-0.5-1.3-0.5-1.6 0l-3.8 7.1c-1.1 2-0.7 4.4 0.9 6 1 1 2.3 1.5 3.7 1.5 1.4 0 2.7-0.5 3.7-1.5 1.6-1.6 2-4 0.9-6zm1.7 11.9c-1.3 1.2-3.6 1.2-4.9 0-1.1-1.1-1.3-2.7-0.6-4l3-5.6 3.1 5.6c0.7 1.3 0.5 2.9-0.6 4z"/>
		</g>
	</g>
</svg>