<svg width="50" height="46" viewBox="0 0 50 46" fill="none" xmlns="http://www.w3.org/2000/svg">
<g clip-path="url(#clip0_28418_133546)">
<path d="M50 20.3872C50 16.171 46.5674 12.7328 42.282 12.5856C41.8448 8.4272 38.234 5.18354 33.8677 5.18354C32.9501 5.18354 32.0434 5.33074 31.1798 5.61989C28.6917 2.08709 24.6492 0 20.2288 0C13.0127 0 7.12435 5.63566 6.93005 12.6487C5.19214 12.88 3.58916 13.6528 2.3424 14.8672C0.831175 16.3445 0 18.3001 0 20.3872C0 24.0041 2.48813 27.0427 5.96395 27.9207L5.60773 28.5883C4.53908 30.5755 4.90609 32.9728 6.53605 34.571C7.55613 35.5646 8.88925 36.0587 10.2278 36.0587C11.5663 36.0587 12.8994 35.5646 13.9195 34.571C15.5494 32.9833 15.9165 30.5808 14.8478 28.5883L14.6265 28.1835H35.4059L35.1846 28.5883C34.1051 30.5755 34.4829 32.9728 36.1129 34.571C37.1006 35.533 38.4067 36.064 39.8046 36.064C41.2025 36.064 42.514 35.5278 43.4909 34.571C45.1209 32.9833 45.4879 30.5808 44.4193 28.5883L44.0576 27.9207C45.4177 27.5737 46.6699 26.8798 47.6738 25.8914C49.1688 24.4194 49.9946 22.4638 49.9946 20.3872H50ZM12.6565 33.3408C11.318 34.6551 9.12133 34.6551 7.78282 33.3408C6.71416 32.2894 6.46049 30.7017 7.17833 29.3874L10.2224 23.7518L13.2664 29.3874C13.9734 30.7017 13.7306 32.2894 12.6619 33.3408H12.6565ZM42.2226 33.3408C40.9219 34.613 38.6496 34.613 37.3489 33.3408C36.2802 32.2894 36.0266 30.7017 36.7444 29.3874L39.7884 23.7518L42.8325 29.3874C43.5503 30.7017 43.2966 32.2946 42.2226 33.3408ZM43.1779 26.3173L40.571 21.5017C40.258 20.9339 39.3135 20.9339 39.0004 21.5017L36.3288 26.4487H13.6766L11.005 21.5017C10.7027 20.9339 9.74201 20.9339 9.43437 21.5017L6.82211 26.3383C3.913 25.8021 1.78109 23.3312 1.78109 20.3819C1.78109 18.7627 2.42876 17.2382 3.60535 16.0869C4.73338 14.9881 6.2446 14.352 7.85838 14.3047C8.34953 14.2889 8.72733 13.8946 8.71654 13.4267L8.70574 12.9851C8.70574 6.77646 13.8763 1.7296 20.2396 1.7296C24.2768 1.7296 27.9577 3.74309 30.0734 7.11817C31.1798 8.88457 31.7573 10.9138 31.7573 12.9851C31.7573 13.4635 32.1513 13.8473 32.6425 13.8473C33.1336 13.8473 33.5276 13.4635 33.5276 12.9851C33.5276 10.9454 33.0365 8.95817 32.1028 7.15497C32.6749 6.99726 33.2686 6.9184 33.8677 6.9184C37.5594 6.9184 40.5656 9.85189 40.5656 13.4478C40.5656 13.9262 40.9596 14.3099 41.4508 14.3099H42.0067C45.4393 14.3099 48.2297 17.0384 48.2297 20.3819C48.2297 22.0011 47.582 23.5205 46.4054 24.6718C45.5203 25.5445 44.3923 26.1017 43.1779 26.3225V26.3173Z" fill="#3B87FF"/>
<path d="M25.788 31.4415C25.4857 30.8737 24.525 30.8737 24.2174 31.4415L20.3907 38.5228C19.3221 40.51 19.6891 42.9178 21.3191 44.5055C22.296 45.4675 23.6129 45.9985 25.0054 45.9985C26.3979 45.9985 27.7148 45.4728 28.6971 44.5055C30.327 42.9178 30.6941 40.5153 29.6254 38.5228L25.788 31.4415ZM27.4395 43.2805C26.1388 44.5528 23.8665 44.5528 22.5658 43.2805C21.4972 42.2291 21.2435 40.6415 21.9613 39.3272L25.0054 33.702L28.0494 39.3377C28.7672 40.6415 28.5136 42.2396 27.4449 43.2805H27.4395Z" fill="#3B87FF"/>
</g>
<defs>
<clipPath id="clip0_28418_133546">
<rect width="50" height="46" fill="white"/>
</clipPath>
</defs>
</svg>
