<svg width="28" height="51" viewBox="0 0 28 51" fill="none" xmlns="http://www.w3.org/2000/svg">
<path d="M20.3827 10.0619C19.7304 10.0619 19.1714 9.5808 19.1714 8.97416C19.1714 8.36751 19.7072 7.88638 20.3827 7.88638H26.7887C27.4409 7.88638 28 8.36751 28 8.97416C28 9.5808 27.4642 10.0619 26.7887 10.0619H20.3827ZM3.19135 6.10828C3.19135 2.74036 6.24293 0 9.99335 0C13.7438 0 16.7953 2.74036 16.7953 6.10828V35.4364C18.822 37.1099 19.9867 39.4738 19.9867 42.0258C19.9867 46.9836 15.5141 51 9.99335 51C4.47255 51 0 46.9836 0 42.0258C0 39.4947 1.18802 37.1308 3.19135 35.4364V6.10828ZM5.59068 36.4405L5.14809 36.7543C3.401 38.0513 2.37604 39.9549 2.37604 42.0258C2.37604 45.7912 5.77704 48.8454 9.97005 48.8454C14.1631 48.8454 17.5641 45.7912 17.5641 42.0258C17.5641 39.9549 16.5391 38.0513 14.792 36.7543L14.3494 36.4405V6.10828C14.3494 3.93273 12.3694 2.15463 9.94676 2.15463C7.52413 2.15463 5.5441 3.93273 5.5441 6.10828V36.4405H5.59068ZM20.3827 31.6083C19.7304 31.6083 19.1714 31.1272 19.1714 30.5205C19.1714 29.9139 19.7072 29.4327 20.3827 29.4327H26.7887C27.4409 29.4327 28 29.9139 28 30.5205C28 31.1272 27.4642 31.6083 26.7887 31.6083H20.3827ZM20.3827 24.4331C19.7304 24.4331 19.1714 23.952 19.1714 23.3454C19.1714 22.7387 19.7072 22.2576 20.3827 22.2576H26.7887C27.4409 22.2576 28 22.7387 28 23.3454C28 23.952 27.4642 24.4331 26.7887 24.4331H20.3827ZM20.3827 17.258C19.7304 17.258 19.1714 16.7769 19.1714 16.1702C19.1714 15.5636 19.7072 15.0824 20.3827 15.0824H26.7887C27.4409 15.0824 28 15.5636 28 16.1702C28 16.7769 27.4642 17.258 26.7887 17.258H20.3827ZM8.78203 37.4865V22.927C8.78203 22.3413 9.31781 21.8392 9.99335 21.8392C10.6689 21.8392 11.2047 22.3203 11.2047 22.927V37.4865C13.4875 37.9676 15.2113 39.8294 15.2113 42.0258C15.2113 44.5989 12.8819 46.6907 10.0166 46.6907C7.15142 46.6907 4.82196 44.5989 4.82196 42.0258C4.82196 39.8085 6.52246 37.9676 8.82862 37.4865H8.78203ZM9.99335 44.5361C11.5308 44.5361 12.7887 43.4065 12.7887 42.0258C12.7887 40.6452 11.5308 39.5156 9.99335 39.5156C8.45591 39.5156 7.198 40.6452 7.198 42.0258C7.198 43.4065 8.45591 44.5361 9.99335 44.5361Z" fill="#000091"/>
</svg>
