<svg version="1.2" xmlns="http://www.w3.org/2000/svg" viewBox="0 0 51 51" width="51" height="51">
	<style>
		.s0 { fill: #000091 } 
	</style>
	<path class="s0" d="m31.4 10.1c-0.7 0-1.2-0.5-1.2-1.1 0-0.6 0.5-1.1 1.2-1.1h6.4c0.6 0 1.2 0.5 1.2 1.1 0 0.6-0.5 1.1-1.2 1.1zm-17.2-4c0-3.4 3-6.1 6.8-6.1 3.7 0 6.8 2.7 6.8 6.1v29.3c2 1.7 3.2 4.1 3.2 6.6 0 5-4.5 9-10 9-5.5 0-10-4-10-9 0-2.5 1.2-4.9 3.2-6.6zm2.4 30.4l-0.4 0.3c-1.8 1.3-2.8 3.2-2.8 5.3 0 3.7 3.4 6.8 7.6 6.8 4.2 0 7.6-3.1 7.6-6.8 0-2.1-1.1-4-2.8-5.3l-0.4-0.3v-30.4c0-2.1-2-3.9-4.4-3.9-2.5 0-4.4 1.8-4.4 3.9v30.4zm14.7-4.9c-0.6 0-1.2-0.4-1.2-1.1 0-0.6 0.6-1 1.2-1h6.4c0.7 0 1.3 0.4 1.3 1 0 0.7-0.6 1.1-1.3 1.1zm0-7.1c-0.6 0-1.2-0.5-1.2-1.1 0-0.6 0.6-1.1 1.2-1.1h6.5c0.6 0 1.2 0.5 1.2 1.1 0 0.6-0.6 1.1-1.2 1.1zm0-7.2c-0.7 0-1.3-0.5-1.3-1.1 0-0.6 0.6-1.1 1.3-1.1h6.4c0.6 0 1.2 0.5 1.2 1.1 0 0.6-0.6 1.1-1.2 1.1zm-11.6 20.2v-14.5c0-0.6 0.5-1.1 1.2-1.1 0.6 0 1.2 0.4 1.2 1.1v14.5c2.3 0.5 4 2.4 4 4.6 0 2.5-2.3 4.6-5.2 4.6-2.9 0-5.2-2.1-5.2-4.6 0-2.3 1.7-4.1 4-4.6zm1.2 7.1c1.6 0 2.8-1.2 2.8-2.5 0-1.4-1.2-2.6-2.8-2.6-1.5 0-2.8 1.2-2.8 2.6 0 1.3 1.3 2.5 2.8 2.5z"/>
</svg>