<?xml version="1.0" encoding="UTF-8"?><svg id="Calque_1" xmlns="http://www.w3.org/2000/svg" viewBox="0 0 200 200"><defs><style>.cls-1{fill:#010101;stroke-width:0px;}</style></defs><path class="cls-1" d="m96.57,58.83c-4.58,0-8.31,3.61-8.31,8.06v7.44h16.62v-7.44c0-4.44-3.73-8.06-8.31-8.06Zm3.88,11.07h-7.76v-3.01c0-2,1.74-3.63,3.88-3.63s3.88,1.63,3.88,3.63v3.01Z"/><path class="cls-1" d="m176.47,40.94c-.92-1.07-2.54-1.19-3.61-.27l-32.72,28.2v-5.17l21.7-21.22c.79-.77.81-2.04.03-2.84-.94-.96-2.47-.97-3.42-.04l-22.73,22.23v13.52h-8.69v-6.79h-6.76v-16.17l-13.88.56c-6.22-2.89-13.39-2.95-19.66-.16l-12.68-.39v16.17h-9.88v-6.73l-22.93-22.43c-.84-.83-2.2-.81-3.02.03-.88.9-.87,2.35.04,3.24l21.49,21.02v5.17l-32.93-28.39c-.95-.82-2.39-.71-3.21.24-.77.9-.67,2.26.23,3.03l9.4,8.11v73.84c0,1.17.94,2.11,2.11,2.11,1.28,0,2.32-1.04,2.32-2.32v-14.57l4.69,2.28v40.48l.12.12,20.43-20.81h12.27l-38.48,45.82h12.82c3.2,0,6.26-1.37,8.38-3.77l27.74-36.12c.84-.95.76-2.4-.19-3.25-.88-.78-2.22-.7-3,.18l-29.87,38.52h-5.76l38.47-45.82h-21.1v-7.74h71.55v7.74h-21.1l35.89,45.82h-5.75l-31.57-43.32c-.86-.96-2.33-1.05-3.3-.2-.86.77-.94,2.09-.17,2.95l29.25,40.71c2.42,2.72,5.88,4.28,9.53,4.28h12.12s-35.89-45.81-35.89-45.81h12.28l20.43,20.81.12.12v-40.71s4.68-2.28,4.68-2.28v12.21c0,1.15.93,2.08,2.08,2.08,1.29,0,2.34-1.05,2.34-2.34V51.86s9.62-8.29,9.62-8.29c.78-.67.87-1.85.2-2.64Zm-126.75,99.14l-2.95,3.01v-32.66l-9.12-4.43v-50.32s12.07,10.4,12.07,10.4v74Zm10.02-10.21l-5.6,5.7v-28.63h5.6v22.93Zm2.58-27.35h-8.17v-32.62l5.6,4.82v7.92h0s2.58,17.41,2.58,17.41v2.46Zm40.7,13.87h-12.91v-23.2c0-3.37,2.9-6.11,6.46-6.11,1.72,0,3.35.65,4.58,1.83,1.2,1.16,1.87,2.67,1.87,4.28v23.2Zm32.69,0h-28.26v-23.2c0-2.83-1.15-5.48-3.23-7.48-2.06-1.97-4.77-3.06-7.64-3.06-6.01,0-10.89,4.73-10.89,10.54v23.2h-21.52s0-9.44,0-9.44h2.58v-6.89l-2.58-17.42v-9.64h14.31v-15.7l8.21.35c6.27-2.79,13.44-2.73,19.66.16l9.49-.59v15.77h6.76v6.79h13.12v2.85l-2.57,17.42v6.89h2.58v9.44Zm10.02,19.18l-5.6-5.7v-22.93h5.6v28.62Zm0-33.05h-8.17v-2.46l2.58-17.42v-7.92l5.6-4.82v32.62Zm16.49,3.48l-9.11,4.43v32.65l-2.95-3.01v-74s12.06-10.4,12.06-10.4v50.32Z"/></svg>