<svg xmlns="http://www.w3.org/2000/svg" id="Calque_1" data-name="Calque 1" viewBox="0 0 200 200"><defs><style>.cls-1{fill:#010101}</style></defs><path d="M146.67 33.56h-14a2.33 2.33 0 0 0-2.34 2.33v35H135v-14h11.67a7 7 0 0 0 7-7v-9.33a7 7 0 0 0-7-7zM149 49.89a2.36 2.36 0 0 1-.68 1.65 2.32 2.32 0 0 1-1.65.68H135v-14h11.67a2.34 2.34 0 0 1 2.33 2.34z" class="cls-1"/><path d="M163 24.22h-42a7 7 0 0 0-7 7v42a7 7 0 0 0 7 7h18.67v70.3a9.76 9.76 0 0 0-6.51 5.17l-2.58 5.16a2.32 2.32 0 0 0 2.09 3.37h18.66a2.33 2.33 0 0 0 2-1.1 2.3 2.3 0 0 0 .1-2.27l-2.58-5.16a9.76 9.76 0 0 0-6.52-5.17v-70.3H163a7 7 0 0 0 7-7v-42a7 7 0 0 0-7-7zm-16.33 133.55.89 1.79h-11.12l.89-1.79a5.23 5.23 0 0 1 9.34 0zm18.66-84.55a2.34 2.34 0 0 1-2.33 2.34h-42a2.33 2.33 0 0 1-2.33-2.34v-42a2.33 2.33 0 0 1 2.33-2.33h42a2.32 2.32 0 0 1 2.33 2.33zM86 131.56a9.32 9.32 0 1 0 6.6 2.73 9.34 9.34 0 0 0-6.6-2.73zm0 14a4.67 4.67 0 0 1 0-9.34 4.67 4.67 0 0 1 0 9.34z" class="cls-1"/><path d="M132.67 140.89v-16.33A11.68 11.68 0 0 0 121 112.89H96.57L77.08 84.3a9.33 9.33 0 0 0-7.71-4.08h-37A2.33 2.33 0 0 0 30 82.56v60.66c0 1.29 1 0 2.33 0H67.5a18.65 18.65 0 0 0 37 0h25.82a2.31 2.31 0 0 0 1.65-.68 2.33 2.33 0 0 0 .69-1.65zm-5.1-18.67h-8.9v-4.66H121a7 7 0 0 1 6.57 4.66zm-58.2-37.33a4.67 4.67 0 0 1 3.86 2l17.69 26H80l-7-7 3-3-3.3-3.3-9.33 9.34 3.3 3.3 3-3 3.7 3.7H51v-14a11.68 11.68 0 0 0-11.67-11.71A2.34 2.34 0 0 0 37 89.56v23.33h-2.33v-28zm-23 28h-4.7v-20.6a7 7 0 0 1 4.66 6.6zm39.67 42a14 14 0 1 1 9.9-4.11 14 14 0 0 1-9.94 4.11zm18.51-16.33a18.65 18.65 0 0 0-37 0H34.67v-21H114v7a2.32 2.32 0 0 0 2.33 2.33H128v11.67z" class="cls-1"/><path d="M37 119.89h9.33v4.67H37zm4.67 44.33H114a2.33 2.33 0 0 0 2.33-2.33 2.33 2.33 0 0 0-2.33-2.33H41.67a2.33 2.33 0 0 0-2.34 2.33 2.33 2.33 0 0 0 2.34 2.33z" class="cls-1"/></svg>