<?xml version="1.0" encoding="UTF-8"?><svg id="Calque_1" xmlns="http://www.w3.org/2000/svg" viewBox="0 0 200 200"><defs><style>.cls-1{fill:#1d1d1b;stroke-width:0px;}</style></defs><path class="cls-1" d="m170.34,125.01c-1.05,0-1.9-.85-1.9-1.9v-19.82h-25.25c-1.05,0-1.9-.85-1.9-1.9s.85-1.9,1.9-1.9h27.15c1.05,0,1.9.85,1.9,1.9v21.72c0,1.05-.85,1.9-1.9,1.9Z"/><path class="cls-1" d="m82.37,95.58h-30.41c-1.05,0-1.9-.85-1.9-1.9v-54.3c0-1.05.85-1.9,1.9-1.9s1.9.85,1.9,1.9v52.4h26.61v-51.87c0-1.05.85-1.9,1.9-1.9s1.9.85,1.9,1.9v53.77c0,1.05-.85,1.9-1.9,1.9Z"/><path class="cls-1" d="m47.61,43.45c-.7,0-1.37-.38-1.7-1.05-.47-.94-.09-2.08.85-2.55l19.55-9.77c.54-.27,1.16-.27,1.7,0l19.55,9.77c.94.47,1.32,1.61.85,2.55-.47.94-1.61,1.32-2.55.85l-18.7-9.35-18.7,9.35c-.27.14-.56.2-.85.2Z"/><path class="cls-1" d="m37.65,96.57c-1.05,0-1.9-.85-1.9-1.9v-42.17c0-1.05.85-1.9,1.9-1.9s1.9.85,1.9,1.9v42.17c0,1.05-.85,1.9-1.9,1.9Z"/><path class="cls-1" d="m51.96,54.4h-18.46c-1.05,0-1.9-.85-1.9-1.9s.85-1.9,1.9-1.9h18.46c1.05,0,1.9.85,1.9,1.9s-.85,1.9-1.9,1.9Z"/><path class="cls-1" d="m101.66,54.4h-18.46c-1.05,0-1.9-.85-1.9-1.9s.85-1.9,1.9-1.9h18.46c1.05,0,1.9.85,1.9,1.9s-.85,1.9-1.9,1.9Z"/><path class="cls-1" d="m96.73,96.57c-1.05,0-1.9-.85-1.9-1.9v-42.17c0-1.05.85-1.9,1.9-1.9s1.9.85,1.9,1.9v42.17c0,1.05-.85,1.9-1.9,1.9Z"/><path class="cls-1" d="m71.71,92.5h-9.55c-.92,0-1.67-.75-1.67-1.67v-9.72c0-2.94,2.39-5.33,5.33-5.33h2.24c2.94,0,5.33,2.39,5.33,5.33v9.72c0,.92-.75,1.67-1.67,1.67Zm-7.88-3.34h6.21v-8.05c0-1.1-.89-1.98-1.99-1.98h-2.24c-1.1,0-1.99.89-1.99,1.98v8.05Z"/><path class="cls-1" d="m69.8,52.46h-5.73c-.92,0-1.67-.75-1.67-1.67v-5.43c0-2.14,1.74-3.88,3.88-3.88h1.31c2.14,0,3.88,1.74,3.88,3.88v5.43c0,.92-.75,1.67-1.67,1.67Zm-4.06-3.34h2.39v-3.76c0-.3-.24-.54-.54-.54h-1.31c-.3,0-.54.24-.54.54v3.76Z"/><path class="cls-1" d="m170.34,172.71H31.32c-1.05,0-1.9-.85-1.9-1.9s.85-1.9,1.9-1.9h139.01c1.05,0,1.9.85,1.9,1.9s-.85,1.9-1.9,1.9Z"/><path class="cls-1" d="m95.4,137.77h-14.12c-1.05,0-1.9-.85-1.9-1.9v-8.67c0-4.05,3.29-7.34,7.34-7.34h3.23c4.05,0,7.34,3.29,7.34,7.34v8.67c0,1.05-.85,1.9-1.9,1.9Zm-12.22-3.8h10.32v-6.77c0-1.95-1.59-3.54-3.54-3.54h-3.23c-1.95,0-3.54,1.59-3.54,3.54v6.77Z"/><path class="cls-1" d="m93.22,166.01h-10.86c-1.05,0-1.9-.85-1.9-1.9v-17.38c0-1.05.85-1.9,1.9-1.9h10.86c1.05,0,1.9.85,1.9,1.9v17.38c0,1.05-.85,1.9-1.9,1.9Zm-8.96-3.8h7.06v-13.58h-7.06v13.58Z"/><path class="cls-1" d="m126.89,155.14h-13.03c-1.05,0-1.9-.85-1.9-1.9v-14.12c0-1.05.85-1.9,1.9-1.9h13.03c1.05,0,1.9.85,1.9,1.9v14.12c0,1.05-.85,1.9-1.9,1.9Zm-11.13-3.8h9.23v-10.32h-9.23v10.32Z"/><path class="cls-1" d="m120.38,155.14c-1.05,0-1.9-.85-1.9-1.9v-14.12c0-1.05.85-1.9,1.9-1.9s1.9.85,1.9,1.9v14.12c0,1.05-.85,1.9-1.9,1.9Z"/><path class="cls-1" d="m71.5,166.05c-.5,0-.99-.2-1.34-.56-.36-.36-.56-.84-.56-1.34v-45.21c0-.88.6-1.64,1.45-1.84l32.58-8.01c.57-.14,1.17-.01,1.63.35s.73.91.73,1.5v53.17c0,1.05-.85,1.9-1.9,1.9l-32.58.04h0Zm32.58-1.94h0,0Zm-30.68-43.68v41.81l28.78-.04v-48.85l-28.78,7.07Z"/><path class="cls-1" d="m134.7,166.01h-30.6c-1.05,0-1.9-.85-1.9-1.9v-45.12c0-.62.3-1.2.81-1.56.51-.35,1.16-.44,1.74-.23l30.6,11.19c.75.27,1.25.99,1.25,1.78v33.94c0,1.05-.85,1.9-1.9,1.9Zm-28.7-3.8h26.8v-30.71l-26.8-9.8v40.51Z"/><path class="cls-1" d="m66.27,121.27c-.85,0-1.62-.57-1.84-1.42-.26-1.02.35-2.05,1.36-2.32l42.24-10.93c1.02-.26,2.05.35,2.32,1.36.26,1.02-.35,2.05-1.36,2.32l-42.24,10.93c-.16.04-.32.06-.48.06Z"/><path class="cls-1" d="m138.88,132.55c-.22,0-.44-.04-.66-.12l-34.8-12.96c-.98-.37-1.48-1.46-1.12-2.44.37-.98,1.46-1.49,2.44-1.12l34.8,12.96c.98.37,1.48,1.46,1.12,2.44-.28.76-1.01,1.24-1.78,1.24Z"/><path class="cls-1" d="m136.75,172.65h-67.2c-2.88,0-5.23-2.34-5.23-5.23s2.34-5.23,5.23-5.23h67.2c2.88,0,5.23,2.34,5.23,5.23s-2.34,5.23-5.23,5.23Zm-67.2-6.65c-.79,0-1.43.64-1.43,1.43s.64,1.43,1.43,1.43h67.2c.79,0,1.43-.64,1.43-1.43s-.64-1.43-1.43-1.43h-67.2Z"/><path class="cls-1" d="m123.48,90.27h-14.31c-1.77,0-3.34-.91-4.22-2.44-.88-1.52-.87-3.34.02-4.86l5.69-10.19c-1.4-.3-2.6-1.16-3.34-2.44-.92-1.59-.93-3.5-.01-5.1l6.5-10.9c-1.41-.26-2.63-1.11-3.37-2.38-.9-1.54-.91-3.39-.03-4.94l8.78-15.51c.92-1.62,2.59-2.6,4.46-2.6s3.54.97,4.46,2.6l8.76,15.48c.88,1.56.87,3.41-.03,4.96-.74,1.27-1.95,2.12-3.36,2.39l6.49,10.88c.93,1.62.93,3.53,0,5.12-.77,1.32-2.03,2.2-3.5,2.47l1.91,3.85c.47.94.08,2.08-.86,2.55-.94.46-2.08.08-2.55-.86l-3.22-6.51c-.29-.59-.26-1.29.09-1.84.35-.56.96-.9,1.61-.9h2.08c.69,0,1.03-.46,1.15-.66.11-.2.34-.71,0-1.3l-8.13-13.64c-.35-.59-.36-1.32-.02-1.91.34-.59.97-.96,1.65-.96h2.33c.62,0,.93-.41,1.04-.59.1-.18.31-.64,0-1.17l-8.76-15.48c-.34-.6-.92-.67-1.15-.67s-.81.07-1.15.67l-8.78,15.51c-.3.52-.09.98,0,1.15.1.18.41.58,1.02.58h2.37c.68,0,1.31.37,1.65.96.34.59.33,1.32-.02,1.91l-8.15,13.67c-.32.56-.09,1.08.02,1.27.11.2.46.66,1.15.66h2.08c.67,0,1.3.36,1.64.94.34.58.35,1.3.02,1.89l-7.22,12.94c-.29.5-.11.92-.02,1.08.09.16.37.53.93.53h26.41s0,0,0,0c1.05,0,1.9.85,1.9,1.9,0,1.05-.85,1.9-1.9,1.9h-12.1Z"/><path class="cls-1" d="m31.32,133.42c-1.05,0-1.9-.85-1.9-1.9v-27.15c0-1.05.85-1.9,1.9-1.9h86.07v-9.14c0-1.05.85-1.9,1.9-1.9h8.69c1.05,0,1.9.85,1.9,1.9v11.04c0,1.05-.85,1.9-1.9,1.9s-1.9-.85-1.9-1.9v-9.14h-4.89v9.14c0,1.05-.85,1.9-1.9,1.9H33.22v25.25c0,1.05-.85,1.9-1.9,1.9Z"/><path class="cls-1" d="m61.73,123.93h-21.72c-1.05,0-1.9-.85-1.9-1.9v-6.52c0-1.05.85-1.9,1.9-1.9h21.72c1.05,0,1.9.85,1.9,1.9v6.52c0,1.05-.85,1.9-1.9,1.9Zm-19.82-3.8h17.92v-2.72h-17.92v2.72Z"/><path class="cls-1" d="m161.65,123.93h-21.72c-1.05,0-1.9-.85-1.9-1.9v-6.52c0-1.05.85-1.9,1.9-1.9h21.72c1.05,0,1.9.85,1.9,1.9v6.52c0,1.05-.85,1.9-1.9,1.9Zm-19.82-3.8h17.92v-2.72h-17.92v2.72Z"/><path class="cls-1" d="m158.39,161.94c-8.23,0-14.93-6.7-14.93-14.93s6.7-14.93,14.93-14.93,14.93,6.7,14.93,14.93-6.7,14.93-14.93,14.93Zm0-26.07c-6.14,0-11.13,4.99-11.13,11.13s4.99,11.13,11.13,11.13,11.13-4.99,11.13-11.13-4.99-11.13-11.13-11.13Z"/><path class="cls-1" d="m158.39,171.71c-1.05,0-1.9-.85-1.9-1.9v-27.15c0-1.05.85-1.9,1.9-1.9s1.9.85,1.9,1.9v27.15c0,1.05-.85,1.9-1.9,1.9Z"/><path class="cls-1" d="m158.39,155.42c-.49,0-.97-.19-1.34-.56l-5.43-5.43c-.74-.74-.74-1.95,0-2.69.74-.74,1.95-.74,2.69,0l4.09,4.09,4.09-4.09c.74-.74,1.94-.74,2.69,0,.74.74.74,1.95,0,2.69l-5.43,5.43c-.37.37-.86.56-1.34.56Z"/><path class="cls-1" d="m46.53,171.71c-1.05,0-1.9-.85-1.9-1.9v-27.15c0-1.05.85-1.9,1.9-1.9s1.9.85,1.9,1.9v27.15c0,1.05-.85,1.9-1.9,1.9Z"/><path class="cls-1" d="m46.53,155.42c-.49,0-.97-.19-1.34-.56l-5.43-5.43c-.74-.74-.74-1.95,0-2.69.74-.74,1.95-.74,2.69,0l4.09,4.09,4.09-4.09c.74-.74,1.94-.74,2.69,0,.74.74.74,1.95,0,2.69l-5.43,5.43c-.37.37-.86.56-1.34.56Z"/><path class="cls-1" d="m54.67,161.94h-16.29c-4.94,0-8.96-4.02-8.96-8.96,0-3.67,2.21-6.99,5.43-8.4v-4.64c0-4.94,4.02-8.96,8.96-8.96h5.43c4.94,0,8.96,4.02,8.96,8.96v4.64c3.22,1.41,5.43,4.72,5.43,8.4,0,4.94-4.02,8.96-8.96,8.96Zm-10.86-27.15c-2.85,0-5.16,2.31-5.16,5.16v6c0,.88-.61,1.65-1.46,1.85-2.26.54-3.97,2.77-3.97,5.19,0,2.84,2.31,5.16,5.16,5.16h16.29c2.84,0,5.16-2.31,5.16-5.16,0-2.42-1.71-4.65-3.97-5.19-.86-.2-1.46-.97-1.46-1.85v-6c0-2.84-2.31-5.16-5.16-5.16h-5.43Z"/><path class="cls-1" d="m155.13,103.29c-1.05,0-1.9-.85-1.9-1.9v-27.15c0-1.05.85-1.9,1.9-1.9s1.9.85,1.9,1.9v27.15c0,1.05-.85,1.9-1.9,1.9Z"/><path class="cls-1" d="m155.13,87c-.5,0-.99-.2-1.34-.56l-5.43-5.43c-.74-.74-.74-1.95,0-2.69.74-.74,1.95-.74,2.69,0l4.09,4.09,4.09-4.09c.74-.74,1.95-.74,2.69,0,.74.74.74,1.95,0,2.69l-5.43,5.43c-.36.36-.84.56-1.34.56Z"/><path class="cls-1" d="m163.28,93.52h-16.29c-4.94,0-8.96-4.02-8.96-8.96,0-3.67,2.21-6.99,5.43-8.4v-4.64c0-4.94,4.02-8.96,8.96-8.96h5.43c4.94,0,8.96,4.02,8.96,8.96v4.64c3.22,1.41,5.43,4.73,5.43,8.4,0,4.94-4.02,8.96-8.96,8.96Zm-10.86-27.15c-2.84,0-5.16,2.31-5.16,5.16v6c0,.88-.61,1.65-1.46,1.85-2.26.54-3.97,2.77-3.97,5.19,0,2.84,2.31,5.16,5.16,5.16h16.29c2.85,0,5.16-2.31,5.16-5.16,0-2.42-1.71-4.65-3.97-5.19-.86-.2-1.46-.97-1.46-1.85v-6c0-2.84-2.31-5.16-5.16-5.16h-5.43Z"/></svg>