<?xml version="1.0" encoding="UTF-8"?><svg id="Calque_1" xmlns="http://www.w3.org/2000/svg" viewBox="0 0 200 200"><defs><style>.cls-1{stroke-width:0px;}</style></defs><path class="cls-1" d="m45.17,99.54c-3.22,0-5.84,2.61-5.84,5.84v3.69h.05c.34,9.72,4.13,18.91,10.75,26.02,6.62,7.11,15.52,11.55,25.17,12.58.01,0,.02.01.02.03v16.87c0,3,2.43,5.44,5.44,5.44h38.8c2.91,0,5.26-2.36,5.26-5.26v-17.04s.01-.03.02-.03c9.66-1.04,18.56-5.47,25.18-12.58,6.95-7.46,10.77-17.21,10.77-27.47v-2.52c0-3.07-2.49-5.56-5.56-5.56H45.17Zm74.27,45.63v19.39s-.01.03-.03.03h-38.63s-.03-.01-.03-.03v-19.39c0-1.45-1.15-2.65-2.6-2.71h0c-18.72-.8-33.38-16.1-33.38-34.83v-2.63s.01-.03.03-.03h110.58s.03.01.03.03v2.64c0,18.71-14.66,34.01-33.38,34.83h0c-1.45.06-2.6,1.25-2.6,2.71Z"/><path class="cls-1" d="m73.37,62.46c0-4.64,3.98-8.36,8.71-7.93,4.14.38,7.22,4.03,7.22,8.19v27.96c0,1.59,1.29,2.88,2.88,2.88h0c1.4,0,2.54-1.14,2.54-2.54v-28.2c0-7.26-5.63-13.47-12.89-13.73-7.6-.27-13.87,5.83-13.87,13.37h0c0,.8.65,1.45,1.45,1.45h2.52c.8,0,1.45-.65,1.45-1.45h0Z"/><path class="cls-1" d="m81.29,43.38c0-4.64,3.98-8.36,8.71-7.93,4.14.38,7.22,4.03,7.22,8.19v27.93c0,1.61,1.3,2.91,2.91,2.91h0c1.39,0,2.51-1.12,2.51-2.51v-28.23c0-7.26-5.64-13.47-12.89-13.73-7.6-.27-13.87,5.83-13.87,13.37h0c0,.8.65,1.45,1.45,1.45h2.52c.8,0,1.45-.65,1.45-1.45h0Z"/><path class="cls-1" d="m110.91,57.16c0-4.64,3.98-8.36,8.71-7.93,4.14.38,7.22,4.03,7.22,8.19h0c0,.66.53,1.19,1.19,1.19h3.14c.6,0,1.09-.49,1.09-1.09h0c0-7.26-5.64-13.47-12.89-13.73s-13.87,5.83-13.87,13.37v33.8c0,1.42,1.15,2.57,2.57,2.57h0c1.57,0,2.85-1.28,2.85-2.85v-33.52Z"/></svg>