<svg xmlns="http://www.w3.org/2000/svg" id="Calque_1" data-name="Calque 1" viewBox="0 0 200 200"><defs><style>.cls-1{fill:#010101}</style></defs><path d="M122.17 62.16a14.76 14.76 0 1 0-14.76 14.75 14.81 14.81 0 0 0 14.76-14.75zm-24.68-.24a9.92 9.92 0 0 1 19.84 0 10.12 10.12 0 0 1-9.92 9.91 10 10 0 0 1-9.92-9.91z" class="cls-1"/><path d="M106.78 62.79a.63.63 0 0 0 .63-.63.6.6 0 0 0-.63-.64h-5a.64.64 0 0 0 0 1.27" class="cls-1"/><path d="M106.78 62.16a.63.63 0 0 0 .63.63.6.6 0 0 0 .63-.63v-7a.63.63 0 0 0-1.26 0M168 92.8c-3.93-6.65-9.28-10.32-15-10.32s-11.11 3.67-15 10.32c-3.73 6.33-5.78 14.68-5.78 23.5s2 15 6.14 18.9c3 2.88 7.15 4.43 12.56 4.75v17.73a2.15 2.15 0 0 0 2.15 2.16 2.09 2.09 0 0 0 2.08-2.09V140c5.42-.32 9.53-1.87 12.57-4.75 4.13-3.92 6.13-10.1 6.13-18.9S171.76 99.11 168 92.8zm-12.91 24.51 6.21-6.23a2.11 2.11 0 1 0-3-3l-3.22 3.23v-7a2.15 2.15 0 0 0-2.12-2.12h-.11l-.11.05a3.43 3.43 0 0 0-1.89 2.93v16.33l-6.15-6.16a2.08 2.08 0 0 0-1.49-.62 2.1 2.1 0 0 0-1.49.62 2.11 2.11 0 0 0 0 3l9.14 9.15v8.2c-4.43-.26-7.56-1.45-9.85-3.73-3.12-3.12-4.63-8.26-4.63-15.71 0-8.1 1.84-15.69 5.19-21.36 3.13-5.32 7.17-8.26 11.4-8.26s8.27 2.94 11.41 8.26c3.34 5.67 5.18 13.26 5.18 21.36 0 7.45-1.51 12.59-4.63 15.71-2.28 2.28-5.42 3.47-9.84 3.73z" class="cls-1"/><path d="M139.49 131.07h-15.14v-21.53a17 17 0 0 0-16.94-16.94 16.83 16.83 0 0 0-16.93 16.94v21.53H70.67V125a15.74 15.74 0 1 0-11.78-27.8A16.63 16.63 0 1 0 41 118v22.55a1.82 1.82 0 0 0 3.63 0V118a16.64 16.64 0 0 0 14.81-16.25 12.11 12.11 0 1 1 11.23 19.58v-7l5.57-5.56a1.82 1.82 0 1 0-2.57-2.57l-3 3v-5.1a1.82 1.82 0 1 0-3.63 0v5.12l-3-3a1.82 1.82 0 1 0-2.57 2.57l5.53 5.56v7a12.16 12.16 0 0 1-8-4.81 1.81 1.81 0 1 0-2.92 2.14A15.7 15.7 0 0 0 67 125v15.56a1.82 1.82 0 0 0 3.63 0v-4.66h22.26a2.28 2.28 0 0 0 2.42-2.42v-24a12.1 12.1 0 0 1 24.2 0v24a2.29 2.29 0 0 0 2.42 2.42h17.56zm-94.86-16.71v-5.93l5.14-5.14a1.81 1.81 0 1 0-2.56-2.57l-2.58 2.58v-8.43a1.82 1.82 0 1 0-3.63 0v6.06l-2.35-2.35a1.81 1.81 0 0 0-2.56 2.56l4.91 4.92v8.3a13 13 0 1 1 3.63 0z" class="cls-1"/><path d="M143 70.58h8v8.89a13.59 13.59 0 0 1 2.7-.27 12.7 12.7 0 0 1 2.14.17v-8.79h7.26a3 3 0 0 0 1.93-1 2.35 2.35 0 0 0 .25-2.18l-9.68-24.2a2.07 2.07 0 0 0-2.18-1.69h-27.86l-16.21-20.77a2.53 2.53 0 0 0-3.88 0l-16.2 20.81H61.44A2.12 2.12 0 0 0 59.26 43l-9.67 24.2a2.22 2.22 0 0 0 .24 2.17 2.45 2.45 0 0 0 1.93 1.21H59v22.16a15.57 15.57 0 0 1 4.84-2V70.58h7.76a1.8 1.8 0 0 0 1.46-.48l.72-.73 33.63-43.31 33.87 43.55a3.86 3.86 0 0 0 1.72.97zm-72.36-4.84H55.39l7.75-19.35h22.5zm81.05-19.35 7.74 19.35h-15.24l-15-19.35z" class="cls-1"/><path fill="#1d1d1b" d="m93.8 87.34 3.48-1.93.63 1.14-2.13 1.18.45.8 1.81-1 .63 1.13-1.81 1 .5.92 2.21-1.23.63 1.14-3.56 2zm.47-1.34.8-1.92 1.19.47-1 1.8zm5.83 1.43a2.82 2.82 0 0 1 2-3.69 2.63 2.63 0 0 1 1.9.26l-.58 1.13a1.37 1.37 0 0 0-1-.12c-.7.18-1.08.92-.82 2s1 1.52 1.74 1.32a1.3 1.3 0 0 0 .8-.69l1.06.7a2.51 2.51 0 0 1-1.69 1.32 2.73 2.73 0 0 1-3.41-2.23zm5.56-1.43c0-2 1-3 2.44-3s2.38 1.07 2.35 3.05-1 3-2.45 3-2.38-.98-2.34-3.05zm3.2 0c0-1.11-.28-1.68-.78-1.68s-.82.54-.84 1.66.28 1.73.78 1.74.82-.46.84-1.63zm3.84-2.45 1.49.39-1.19 4.41 2.42.63-.33 1.25-3.91-1zm6.11 1.94 3.47 1.94-.63 1.13-2.12-1.18-.45.8 1.81 1-.63 1.13-1.81-1-.51.91 2.2 1.23-.63 1.13-3.55-2z"/></svg>