<?xml version="1.0" encoding="UTF-8"?><svg id="Calque_1" xmlns="http://www.w3.org/2000/svg" viewBox="0 0 200 200"><defs><style>.cls-1{fill-rule:evenodd;stroke-width:0px;}</style></defs><path class="cls-1" d="m73.78,71.24h6.93c1.5,0,2.95-.6,4.01-1.66,1.06-1.06,1.66-2.51,1.66-4.01v-8.07c0-1.5-.6-2.95-1.66-4.01-1.06-1.06-2.51-1.66-4.01-1.66h-6.93c-1.5,0-2.95.6-4.01,1.66-1.06,1.06-1.66,2.51-1.66,4.01v8.07c0,1.5.6,2.95,1.66,4.01,1.06,1.06,2.51,1.66,4.01,1.66Zm-.81-13.74c0-.22.09-.42.24-.57.15-.15.36-.24.57-.24h6.93c.22,0,.42.08.57.24.15.15.24.36.24.57v8.07c0,.21-.09.42-.24.57-.15.15-.36.24-.57.24h-6.93c-.21,0-.42-.09-.57-.24-.15-.15-.24-.36-.24-.57v-8.07Z"/><path class="cls-1" d="m68.11,92.85c0,1.5.6,2.95,1.66,4.01,1.06,1.06,2.51,1.66,4.01,1.66h6.93c1.5,0,2.95-.6,4.01-1.66,1.06-1.06,1.66-2.51,1.66-4.01v-8.07c0-1.5-.6-2.95-1.66-4.01-1.06-1.06-2.51-1.66-4.01-1.66h-6.93c-1.5,0-2.95.6-4.01,1.66-1.06,1.06-1.66,2.51-1.66,4.01v8.07Zm4.86-8.07c0-.22.09-.42.24-.57.15-.15.36-.24.57-.24h6.93c.22,0,.42.09.57.24.15.15.24.36.24.57v8.07c0,.21-.09.42-.24.57-.15.15-.36.24-.57.24h-6.93c-.21,0-.42-.09-.57-.24-.15-.15-.24-.36-.24-.57v-8.07Z"/><path class="cls-1" d="m97.35,71.24h6.93c1.51,0,2.95-.6,4.01-1.66,1.06-1.06,1.66-2.51,1.66-4.01v-8.07c0-1.5-.6-2.95-1.66-4.01-1.06-1.06-2.51-1.66-4.01-1.66h-6.93c-1.5,0-2.95.6-4.01,1.66-1.06,1.06-1.66,2.51-1.66,4.01v8.07c0,1.5.6,2.95,1.66,4.01,1.06,1.06,2.51,1.66,4.01,1.66Zm-.81-13.74c0-.22.09-.42.24-.57.15-.15.36-.24.57-.24h6.93c.22,0,.42.08.57.24.15.15.24.36.24.57v8.07c0,.21-.08.42-.24.57-.15.15-.36.24-.57.24h-6.93c-.22,0-.42-.09-.57-.24-.15-.15-.24-.36-.24-.57v-8.07Z"/><path class="cls-1" d="m91.68,92.85c0,1.5.6,2.95,1.66,4.01,1.06,1.06,2.51,1.66,4.01,1.66h6.93c1.51,0,2.95-.6,4.01-1.66,1.06-1.06,1.66-2.51,1.66-4.01v-8.07c0-1.5-.6-2.95-1.66-4.01-1.06-1.06-2.51-1.66-4.01-1.66h-6.93c-1.5,0-2.95.6-4.01,1.66-1.06,1.06-1.66,2.51-1.66,4.01v8.07Zm4.86-8.07c0-.22.09-.42.24-.57.15-.15.36-.24.57-.24h6.93c.22,0,.42.09.57.24.15.15.24.36.24.57v8.07c0,.21-.08.42-.24.57-.15.15-.36.24-.57.24h-6.93c-.22,0-.42-.09-.57-.24-.15-.15-.24-.36-.24-.57v-8.07Z"/><path class="cls-1" d="m177,105.75c0-2.95-1.78-5.61-4.5-6.74-3.17-1.31-8.42-3.48-13.57-5.62v-10.91c0-2.95-1.78-5.61-4.5-6.74l-30.84-12.76c-.12-.05-.24-.08-.36-.11v-14.78c0-4.03-3.26-7.29-7.29-7.29h-53.81c-4.03,0-7.29,3.26-7.29,7.29v38.62c0,1.34,1.09,2.43,2.43,2.43s2.43-1.09,2.43-2.43v-38.62c0-1.34,1.09-2.43,2.43-2.43h53.81c1.34,0,2.43,1.09,2.43,2.43v48.74c-2.04.84-3.85,1.59-5.26,2.18-2.73,1.13-4.5,3.79-4.5,6.74v58.19h-19.74v-4.23c6.44-1.46,11.58-8.58,11.58-17.41,0-3.75-.92-7.21-2.45-10.04,0,0,0,0,0,0-.93-1.7-1.28-3.82-1.02-5.88h0c.08-.67.12-1.36.12-2.05,0-7.48-4.98-13.27-10.66-13.27s-10.66,5.79-10.66,13.27c0,.7.04,1.38.13,2.05.26,2.06-.1,4.18-1.02,5.88h0s0,0,0,0c-1.54,2.83-2.46,6.3-2.46,10.04,0,8.83,5.14,15.96,11.58,17.41v4.23h-33.04v-7.57c8.9-1.52,16.05-11.28,16.05-23.37,0-5.03-1.23-9.67-3.29-13.48,0,0,0,0,0,0-1.37-2.52-1.91-5.66-1.52-8.71,0,0,0,0,0,0,.11-.88.16-1.79.16-2.72,0-9.8-6.4-17.46-13.84-17.46s-13.84,7.66-13.84,17.46c0,.93.06,1.84.17,2.73.39,3.06-.15,6.2-1.52,8.72h0s0,0,0,0c-2.07,3.8-3.3,8.45-3.3,13.47,0,12.09,7.15,21.84,16.05,23.37v7.57h-21.54c-1.34,0-2.43,1.09-2.43,2.43s1.09,2.43,2.43,2.43h145.14c4.03,0,7.29-3.27,7.29-7.29v-55.76Zm-95.71,47.12c-2.46-2.38-4-6.24-4-10.57,0-2.88.69-5.55,1.87-7.72h0c1.39-2.55,1.97-5.72,1.58-8.82,0,0,0,0,0-.01-.06-.46-.09-.94-.09-1.43,0-2.86,1-5.43,2.63-7,.89-.86,1.98-1.41,3.17-1.41s2.28.55,3.17,1.41c1.63,1.57,2.63,4.14,2.63,7,0,.49-.03.98-.09,1.45-.39,3.09.19,6.26,1.58,8.81,1.18,2.17,1.87,4.84,1.87,7.72,0,4.33-1.54,8.19-4,10.57-.81.79-1.73,1.39-2.72,1.78v-21.02c0-1.34-1.09-2.43-2.43-2.43s-2.43,1.09-2.43,2.43v21.02c-.99-.39-1.9-1-2.72-1.78Zm-46.37-19.86c0-4.16,1-8.01,2.7-11.15h0c1.84-3.37,2.59-7.56,2.08-11.66,0,0,0,0,0-.01-.09-.68-.13-1.39-.13-2.1,0-4.25,1.51-8.04,3.93-10.38,1.42-1.37,3.15-2.22,5.04-2.22s3.63.85,5.04,2.22c2.42,2.34,3.93,6.13,3.93,10.38,0,.72-.04,1.43-.13,2.12-.52,4.08.24,8.27,2.08,11.64,1.7,3.14,2.7,7,2.7,11.15,0,9.08-4.69,16.85-11.19,18.42v-30.44c0-1.34-1.09-2.43-2.43-2.43s-2.43,1.09-2.43,2.43v30.44c-6.49-1.57-11.19-9.35-11.19-18.42Zm88.31-64.91l29.33,12.14c.91.38,1.5,1.26,1.5,2.25v8.89c-3.51-1.45-6.61-2.74-8.48-3.51-1.79-.74-3.79-.74-5.58,0-3.28,1.36-10.34,4.28-16.78,6.95v-26.72Zm48.91,93.41c0,1.34-1.09,2.43-2.43,2.43h-56.24v-58.19c0-.98.59-1.87,1.5-2.25l6.76-2.8s.02,0,.03-.01l20.11-8.32c.59-.25,1.26-.25,1.86,0,2.44,1.01,6.99,2.89,11.81,4.89,0,0,.02,0,.02,0,5.61,2.32,11.59,4.8,15.07,6.24.91.38,1.5,1.26,1.5,2.25h0s0,55.76,0,55.76Z"/><path class="cls-1" d="m134.48,108.41h-6.93c-1.5,0-2.95.6-4.01,1.66-1.06,1.06-1.66,2.51-1.66,4.01v8.06c0,1.51.6,2.95,1.66,4.01,1.06,1.06,2.51,1.66,4.01,1.66h6.93c1.5,0,2.95-.6,4.01-1.66,1.06-1.06,1.66-2.51,1.66-4.01v-8.06c0-1.51-.6-2.95-1.66-4.01-1.06-1.06-2.51-1.66-4.01-1.66Zm.81,13.74c0,.22-.09.42-.24.57-.15.15-.36.24-.57.24h-6.93c-.22,0-.42-.08-.57-.24-.15-.15-.24-.36-.24-.57v-8.06c0-.22.09-.42.24-.57.15-.15.36-.24.57-.24h6.93c.21,0,.42.08.57.24.15.15.24.36.24.57v8.06Z"/><path class="cls-1" d="m134.48,135.7h-6.93c-1.5,0-2.95.6-4.01,1.66-1.06,1.06-1.66,2.51-1.66,4.01v8.07c0,1.5.6,2.95,1.66,4.01,1.06,1.06,2.51,1.66,4.01,1.66h6.93c1.5,0,2.95-.6,4.01-1.66,1.06-1.06,1.66-2.51,1.66-4.01v-8.07c0-1.51-.6-2.95-1.66-4.01-1.06-1.06-2.51-1.66-4.01-1.66Zm.81,13.74c0,.21-.09.42-.24.57-.15.15-.36.24-.57.24h-6.93c-.22,0-.42-.09-.57-.24-.15-.15-.24-.36-.24-.57v-8.07c0-.22.09-.42.24-.57.15-.15.36-.24.57-.24h6.93c.21,0,.42.08.57.24.15.15.24.36.24.57v8.07Z"/><path class="cls-1" d="m158.05,108.41h-6.93c-1.51,0-2.95.6-4.01,1.66-1.06,1.06-1.66,2.51-1.66,4.01v8.06c0,1.51.6,2.95,1.66,4.01,1.06,1.06,2.51,1.66,4.01,1.66h6.93c1.5,0,2.95-.6,4.01-1.66,1.06-1.06,1.66-2.51,1.66-4.01v-8.06c0-1.51-.6-2.95-1.66-4.01-1.06-1.06-2.51-1.66-4.01-1.66Zm.81,13.74c0,.22-.09.42-.24.57-.15.15-.36.24-.57.24h-6.93c-.22,0-.42-.08-.57-.24-.15-.15-.24-.36-.24-.57v-8.06c0-.22.08-.42.24-.57.15-.15.36-.24.57-.24h6.93c.22,0,.42.08.57.24.15.15.24.36.24.57v8.06Z"/><path class="cls-1" d="m158.05,135.7h-6.93c-1.51,0-2.95.6-4.01,1.66-1.06,1.06-1.66,2.51-1.66,4.01v8.07c0,1.5.6,2.95,1.66,4.01,1.06,1.06,2.51,1.66,4.01,1.66h6.93c1.5,0,2.95-.6,4.01-1.66,1.06-1.06,1.66-2.51,1.66-4.01v-8.07c0-1.51-.6-2.95-1.66-4.01-1.06-1.06-2.51-1.66-4.01-1.66Zm.81,13.74c0,.21-.09.42-.24.57-.15.15-.36.24-.57.24h-6.93c-.22,0-.42-.09-.57-.24-.15-.15-.24-.36-.24-.57v-8.07c0-.22.08-.42.24-.57.15-.15.36-.24.57-.24h6.93c.22,0,.42.08.57.24.15.15.24.36.24.57v8.07Z"/></svg>