<svg xmlns="http://www.w3.org/2000/svg" data-name="Calque 1" viewBox="0 0 200 200"><path d="M43.5 93.76a5.83 5.83 0 0 0-5.83 5.84v3.69a40.19 40.19 0 0 0 35.93 38.6v16.87a5.44 5.44 0 0 0 5.44 5.43h38.8a5.26 5.26 0 0 0 5.26-5.26v-17a40.18 40.18 0 0 0 36-40v-2.61a5.56 5.56 0 0 0-5.57-5.56zm74.28 45.62v19.39H79.12v-19.39a2.71 2.71 0 0 0-2.6-2.7 34.79 34.79 0 0 1-33.38-34.84v-2.63h110.59v2.63a34.83 34.83 0 0 1-33.37 34.84 2.7 2.7 0 0 0-2.58 2.7zM71.7 56.68a8 8 0 0 1 8.71-7.93 8.13 8.13 0 0 1 7.21 8.19v28a2.88 2.88 0 0 0 2.88 2.87 2.54 2.54 0 0 0 2.5-2.58V57a13.62 13.62 0 0 0-12.85-13.7 13.4 13.4 0 0 0-13.87 13.38 1.45 1.45 0 0 0 1.45 1.45h2.52a1.45 1.45 0 0 0 1.45-1.45z"/><path d="M79.62 37.6a8 8 0 0 1 8.71-7.92 8.12 8.12 0 0 1 7.22 8.18v27.93a2.91 2.91 0 0 0 2.91 2.91 2.52 2.52 0 0 0 2.54-2.51V38a13.62 13.62 0 0 0-12.9-13.73A13.4 13.4 0 0 0 74.2 37.6a1.45 1.45 0 0 0 1.45 1.45h2.52a1.45 1.45 0 0 0 1.45-1.45zm29.62 13.78a8 8 0 0 1 8.76-7.93 8.14 8.14 0 0 1 7.22 8.19 1.19 1.19 0 0 0 1.19 1.19h3.13a1.09 1.09 0 0 0 1.1-1.09A13.62 13.62 0 0 0 117.69 38a13.4 13.4 0 0 0-13.87 13.37v33.8a2.57 2.57 0 0 0 2.57 2.57 2.85 2.85 0 0 0 2.85-2.85z"/></svg>