<?xml version="1.0" encoding="UTF-8"?><svg id="Calque_1" xmlns="http://www.w3.org/2000/svg" viewBox="0 0 200 200"><defs><style>.cls-1{fill-rule:evenodd;stroke-width:0px;}</style></defs><path class="cls-1" d="m163.72,157.15c1.16,0,2.74-.24,3.76.16v8h-3.61c-.44-1.14-.16-6.52-.16-8.15h0Zm14.26-10.97c0,10.68,1.57,10.97-5.8,10.97v8.15h3.29c3.5,0,3.03,4.7.47,4.7H23.29c-2.56,0-3.03-4.7.47-4.7h30.25v-31.97c0-.69-3.93-.72-6.88-1.58-20.51-6.02-31.15-27.62-23.53-46.69,3.52-8.82,8.31-10.43,8.31-15.67s-5.18-13.05.58-24.5c11.7-23.28,46.58-18.33,50.25,8.47,1.47,10.74-5.63,14.26.86,22.18,5.02,6.12,6.77,13.88,7.25,14.23,1.57-6.72-1.72-4.24-1.25-15.04.31-7.18,5.28-13.66,11.18-17.19,16.44-9.86,36.6,5.45,33.03,23.47-.73,3.69-3.02,6.98.33,10.76,3.8,4.29,7.17,12.02,7.17,17.75h17.71c0-3.13-.71-7.21,2.35-7.21,12.03,0,10.81-1.25,10.81,7.21,2.37,0,5.8-.56,5.8,2.35v25.86c0,2.68-4.13,2.03-5.8,2.03v4.39c1.67,0,5.8-.65,5.8,2.04h0Zm-63.79,10.97h44.82v8.15h-44.82v-8.15Zm-18.65,0h13.95v8.15h-13.95v-8.15Zm-8.46,0h3.76v8.15h-3.76v-8.15Zm-5.96-8.31h92.15v3.6h-92.15v-3.6Zm82.59-9.09h3.76v4.39h-3.76v-4.39Zm-49.52,0h44.82v4.39h-44.82v-4.39Zm-18.65,0h13.95v4.39h-13.95v-4.39Zm-8.46,0c4.86,0,3.76-.61,3.76,4.39h-3.76v-4.39Zm-10.81,7.21c0,4.01-.86,9.23,1.67,10.09,1.26.43,3.03-.23,4.29.26v8h-23.35c-.48-1.25-.12-26.59-.17-31.36-.01-1.29-.26-.97,2.21-1.24,6.75-.73,10.03-2.98,15.36-5.8,0,12.51-1.65,12.85,5.96,12.85v4.39c-3.26,0-5.96-.52-5.96,2.82h0Zm4.86-19.9h92.15v7.99h-92.15v-7.99Zm0-12.7h92.15v7.99h-92.15v-7.99Zm82.59-7.37h3.76v2.51h-3.76v-2.51Zm-76.63,0h3.76v2.51h-3.76v-2.51Zm7.21-29.47c0-10.68,8.54-18.63,17.41-18.33,11.71.39,20.76,11.54,16.93,22.9-4.31,12.78,7.82,13.66,7.82,27.41h-22.26c0-4.13-.46-2.75,2.39-5.6.99-1,4.5-4.16,4.79-5.25.47-1.81-1.05-2.94-1.85-2.94-2.93,0-3.27,2.38-5.33,3.76v-16.46c0-2.17-.24-3.45-2.66-3.45s-2.04,3.48-2.04,4.7v20.22c-1.76-1.18-3.07-3.92-5.02-3.92-1.79,0-2.35,1.23-2.35,2.66,0,1.55,4.3,4.49,5.49,6.27h-12.07c0-5.41,1.08-7.21-4.23-7.21.7-9.82.57-3.41,3.76-10.5,2.63-5.82-.78-8.86-.78-14.26h0Zm-18.34-8.93c0,10.47,11.97,12.58,10.69,32.64-.15,2.29-1.88.28-3.45,1.57-1.45,1.19-.98,3.92-.98,6.7-7.42,0-5.96.75-5.96,11.44-4.13,2.76-6.39,4.8-12.19,6.3-1.2.31-3.9.91-5.36.91v-14.42c0-1.58,8.78-7.25,8.78-10.19,0-1.07-1.12-2.19-2.19-2.19-2.46,0-4.95,4.89-6.58,5.33,0-18.91-1.96-12.53,6.08-20.88.93-.96,2.7-2.31,2.7-3.72,0-1.8-1.23-2.35-2.66-2.35-1.73,0-4.65,4.35-6.11,5.33,0-2.85.43-22.14-.21-23.61-.34-.77-1.09-1.31-2.14-1.31-2.86,0-2.35,3.13-2.35,5.96v25.07c-2.71-1.81-5.29-7.23-8.03-4.73-2.28,2.08,1.06,4.44,2.9,6.26l4.23,4.23c1.18,1.18.9.69.9,3.33v12.7c-1.49-1-4.48-5.49-6.27-5.49-1.31,0-2.51,1.07-2.51,2.35,0,2.73,8.78,8.5,8.78,10.03v8.31c-6.82,0-14.76-4.51-19.55-9.29-9.47-9.44-11.49-25.67-4.02-37.01,1.37-2.07,3.46-4.58,4.1-5.62,6.74-11.13-5.21-15.62,3.08-30.93,7.55-13.95,28.78-14.41,37.49.01,6.47,10.7.85,17.56.85,23.29h0Z"/></svg>