<svg xmlns="http://www.w3.org/2000/svg" data-name="Calque 1" viewBox="0 0 200 200"><path fill="#010101" fill-rule="evenodd" d="M164.47 154.57c1.16 0 2.74-.24 3.77.15v8h-3.61c-.44-1.14-.16-6.52-.16-8.15zm14.26-11c0 10.68 1.57 11-5.79 11v8.15h3.29c3.5 0 3 4.7.47 4.7H24.05c-2.56 0-3-4.7.47-4.7h30.25v-32c0-.69-3.94-.73-6.88-1.59-20.51-6-31.15-27.62-23.53-46.69 3.52-8.82 8.31-10.42 8.31-15.67 0-5.47-5.18-13 .57-24.5C44.94 19 79.82 24 83.5 50.77 85 61.5 77.86 65 84.35 73c5 6.12 6.77 13.88 7.25 14.23 1.56-6.72-1.73-4.25-1.26-15.05.32-7.18 5.29-13.66 11.18-17.19 16.44-9.86 36.6 5.45 33 23.47-.72 3.69-3 7 .34 10.77 3.8 4.29 7.17 12 7.17 17.74h17.71c0-3.13-.71-7.21 2.35-7.21 12 0 10.82-1.24 10.82 7.21 2.37 0 5.8-.55 5.8 2.35v25.86c0 2.69-4.13 2-5.8 2v4.39c1.66 0 5.8-.65 5.8 2zm-63.78 11h44.82v8.15H115zm-18.65 0h14v8.15h-14zm-8.46 0h3.75v8.15h-3.75zm-6-8.31H174v3.61H81.88zm82.59-9.09h3.76v4.39h-3.76zm-49.52 0h44.82v4.39H115zm-18.65 0h14v4.39h-14zm-8.46 0c4.85 0 3.75-.61 3.75 4.39h-3.71zM77 144.38c0 4-.86 9.24 1.67 10.09 1.26.42 3-.23 4.29.25v8H59.62c-.48-1.25-.12-26.59-.17-31.36 0-1.29-.26-1 2.21-1.24 6.75-.73 10-3 15.36-5.8 0 12.51-1.65 12.85 6 12.85v4.39c-3.26 0-6-.52-6 2.82zm4.86-19.9H174v8H81.88zm0-12.7H174v8H81.88zm82.59-7.36h3.76v2.51h-3.76zm-76.64 0h3.76v2.51h-3.74zM95 75c0-10.68 8.54-18.62 17.41-18.33 11.72.39 20.76 11.54 16.94 22.9-4.31 12.78 7.81 13.66 7.81 27.41H115c0-4.13-.47-2.75 2.39-5.61 1-1 4.5-4.15 4.79-5.25a2.3 2.3 0 0 0-1.86-2.93c-2.92 0-3.26 2.38-5.32 3.75v-16.5c0-2.18-.24-3.45-2.67-3.45s-2 3.48-2 4.7v20.22c-1.75-1.18-3.06-3.92-5-3.92-1.8 0-2.35 1.23-2.35 2.67s4.3 4.49 5.48 6.26H96.29c0-5.4 1.08-7.21-4.23-7.21.7-9.81.57-3.41 3.77-10.5C98.45 83.39 95 80.35 95 75zm-18.29-9c0 10.47 12 12.58 10.69 32.63-.15 2.3-1.88.28-3.45 1.57s-1 3.93-1 6.71c-7.42 0-6 .75-6 11.44-4.13 2.76-6.39 4.79-12.19 6.3a28.37 28.37 0 0 1-5.37.91v-14.4c0-1.58 8.78-7.25 8.78-10.19a2.4 2.4 0 0 0-2.19-2.19c-2.46 0-5 4.89-6.59 5.33 0-18.91-2-12.53 6.08-20.89.92-1 2.7-2.3 2.7-3.72 0-1.79-1.23-2.35-2.66-2.35-1.73 0-4.65 4.35-6.12 5.33 0-2.85.43-22.15-.21-23.61a2.2 2.2 0 0 0-2.14-1.31c-2.86 0-2.35 3.13-2.35 6v25.03c-2.71-1.81-5.29-7.23-8-4.73-2.28 2.08 1.06 4.43 2.89 6.26l4.23 4.23c1.19 1.18.9.69.9 3.33v12.69c-1.49-1-4.48-5.48-6.27-5.48a2.49 2.49 0 0 0-2.5 2.35c0 2.73 8.77 8.5 8.77 10v8.31c-6.82 0-14.76-4.52-19.55-9.29-9.47-9.44-11.5-25.67-4-37 1.36-2.07 3.46-4.59 4.09-5.63C42 62.52 30.07 58 38.36 42.72c7.55-13.95 28.78-14.41 37.49 0 6.47 10.7.85 17.56.85 23.28z"/></svg>