<?xml version="1.0" encoding="UTF-8"?><svg id="Calque_1" xmlns="http://www.w3.org/2000/svg" viewBox="0 0 200 200"><defs><style>.cls-1,.cls-2{stroke-width:0px;}.cls-2{fill:#1d1d1b;}</style></defs><path class="cls-1" d="m117.25,78.44c0-8.43-6.94-15.12-15.12-15.12s-15.12,6.94-15.12,15.12,6.69,15.12,15.12,15.12,15.12-6.94,15.12-15.12Zm-25.28-.25c0-5.45,4.46-10.16,10.16-10.16s10.16,4.71,10.16,10.16-4.71,10.16-10.16,10.16-10.16-4.71-10.16-10.16Z"/><path class="cls-1" d="m101.49,79.09c.32,0,.65-.26.65-.65h0c0-.39-.26-.65-.65-.65h-5.1c-.39,0-.65.26-.65.65s.26.65.65.65"/><path class="cls-1" d="m101.49,78.44c0,.32.26.65.65.65h0c.39,0,.65-.26.65-.65v-7.15c0-.39-.26-.65-.65-.65s-.65.26-.65.65"/><path class="cls-1" d="m164.25,109.84c-4.03-6.82-9.5-10.58-15.41-10.58s-11.39,3.76-15.41,10.58c-3.82,6.48-5.92,15.03-5.92,24.08s2.05,15.36,6.28,19.36c3.11,2.95,7.33,4.54,12.87,4.87v18.17c0,.59.23,1.14.65,1.56s.97.65,1.56.65h0c1.18,0,2.14-.96,2.14-2.14v-18.23c5.55-.32,9.76-1.92,12.88-4.87,4.23-4.02,6.28-10.35,6.28-19.36s-2.1-17.62-5.92-24.08Zm-13.23,25.11l6.37-6.38c.84-.86.84-2.2,0-3.06-.86-.84-2.2-.84-3.06,0l-3.3,3.31v-7.15c-.02-1.19-.99-2.17-2.17-2.17h-.11l-.1.05c-1.09.49-1.94,1.81-1.94,3v16.74l-6.3-6.31c-.4-.41-.94-.64-1.52-.64h0c-.58,0-1.12.23-1.53.63-.41.4-.64.94-.64,1.52,0,.58.22,1.13.64,1.54l9.36,9.37v8.41c-4.53-.27-7.75-1.49-10.08-3.83-3.2-3.2-4.75-8.46-4.75-16.09,0-8.3,1.89-16.07,5.32-21.89,3.21-5.46,7.35-8.46,11.68-8.46s8.47,3,11.69,8.46c3.43,5.81,5.32,13.58,5.32,21.88,0,7.63-1.55,12.9-4.75,16.09-2.34,2.34-5.55,3.56-10.08,3.83v-18.88Z"/><path class="cls-1" d="m135,149.05h-15.52v-22.06c0-9.42-7.68-17.35-17.35-17.35h0c-9.67,0-17.35,7.69-17.35,17.35v22.06h-20.29v-6.21c8.03-.92,14.27-7.74,14.27-16.01,0-8.9-7.23-16.13-16.13-16.13-3.88,0-7.43,1.37-10.22,3.65-1.94-7.28-8.58-12.65-16.47-12.65-9.4,0-17.04,7.63-17.04,17.04,0,8.78,6.65,16.01,15.18,16.94v23.1c0,1.03.83,1.86,1.86,1.86s1.86-.83,1.86-1.86v-23.1c8.44-.92,15.03-8,15.17-16.64,2.28-2.81,5.75-4.62,9.65-4.62,6.85,0,12.41,5.56,12.41,12.41,0,6.22-4.58,11.37-10.55,12.27v-7.17l5.7-5.7c.73-.73.73-1.9,0-2.63-.73-.73-1.9-.73-2.63,0l-3.07,3.07v-5.25c0-1.03-.83-1.86-1.86-1.86s-1.86.83-1.86,1.86v5.25l-3.07-3.07c-.73-.73-1.9-.73-2.63,0-.73.73-.73,1.9,0,2.63l5.7,5.7v7.17c-3.33-.5-6.24-2.33-8.15-4.93-.61-.83-1.77-1.01-2.6-.4-.83.61-1.01,1.77-.4,2.6,2.59,3.53,6.58,5.96,11.14,6.48v15.93c0,1.03.83,1.86,1.86,1.86s1.86-.83,1.86-1.86v-4.77h22.77c1.49,0,2.48-.99,2.48-2.48v-24.54c0-6.94,5.45-12.39,12.39-12.39s12.39,5.45,12.39,12.39v24.54c0,1.49.99,2.48,2.48,2.48h18v-4.96Zm-97.19-17.12v-6.08l5.27-5.27c.73-.73.73-1.9,0-2.63-.73-.73-1.9-.73-2.63,0l-2.64,2.64v-8.64c0-1.03-.83-1.86-1.86-1.86s-1.86.83-1.86,1.86v6.21l-2.41-2.41c-.73-.73-1.9-.73-2.63,0-.73.73-.73,1.9,0,2.63l5.04,5.04v8.51c-6.47-.91-11.46-6.47-11.46-13.19,0-7.35,5.97-13.32,13.32-13.32s13.32,5.97,13.32,13.32c0,6.72-4.99,12.28-11.46,13.19Z"/><path class="cls-1" d="m138.57,87.08h8.18v9.1c.91-.19,1.83-.28,2.77-.28.74,0,1.47.06,2.19.17v-9h7.44c.74,0,1.49-.5,1.98-.99.5-.74.5-1.49.25-2.23l-9.92-24.79c-.25-1.24-1.24-1.73-2.23-1.73h-28.51l-16.61-21.32c-.99-1.24-2.97-1.24-3.97,0l-16.61,21.32h-28.51c-.99,0-1.98.5-2.23,1.49l-9.92,24.79c-.25.74-.25,1.74.25,2.23.5.74,1.24,1.24,1.98,1.24h7.44v22.7c1.5-.95,3.17-1.66,4.96-2.07v-20.63h7.93c.5,0,.99,0,1.49-.5l.74-.74,34.46-44.37,34.7,44.62c.5.5.99.74,1.74.99Zm-74.12-4.96h-15.62s7.93-19.83,7.93-19.83h23.05l-15.37,19.83Zm83.04-19.83l7.93,19.83h-15.62l-15.37-19.83h23.05Z"/><path class="cls-2" d="m88.19,104.25l3.57-1.98.64,1.16-2.18,1.21.46.82,1.86-1.03.64,1.16-1.86,1.03.52.94,2.26-1.25.64,1.16-3.65,2.02-2.91-5.24Zm.48-1.42l.82-1.98,1.22.49-1.04,1.84-1-.35Z"/><path class="cls-2" d="m94.65,104.34c-.5-1.95.48-3.38,2.05-3.78.75-.19,1.47,0,1.98.29l-.6,1.16c-.33-.16-.65-.23-1.04-.13-.71.18-1.11.95-.84,2,.28,1.09.99,1.55,1.78,1.35.38-.1.65-.38.83-.71l1.08.71c-.33.7-.94,1.16-1.73,1.36-1.45.37-3-.27-3.51-2.26Z"/><path class="cls-2" d="m100.33,102.91c.03-2.03,1.05-3.06,2.51-3.04s2.44,1.09,2.4,3.12c-.04,2.08-1.05,3.12-2.51,3.09-1.46-.02-2.44-1.09-2.4-3.18Zm3.28.06c.02-1.14-.28-1.72-.8-1.73-.52,0-.84.56-.86,1.7-.02,1.2.28,1.78.8,1.78.52,0,.84-.56.86-1.76Z"/><path class="cls-2" d="m107.55,100.36l1.54.4-1.18,4.52,2.47.65-.34,1.29-4.01-1.05,1.51-5.8Z"/><path class="cls-2" d="m113.81,102.35l3.56,1.99-.65,1.16-2.17-1.22-.46.82,1.85,1.04-.65,1.16-1.85-1.04-.52.93,2.25,1.26-.65,1.16-3.64-2.04,2.93-5.23Z"/></svg>