<svg xmlns="http://www.w3.org/2000/svg" id="Calque_1" data-name="Calque 1" viewBox="0 0 200 200"><defs><style>.cls-1{fill:#010101;fill-rule:evenodd}</style></defs><path d="M71.8 57.5h7.58a6.2 6.2 0 0 0 6.21-6.2v-8.82a6.21 6.21 0 0 0-6.21-6.21H71.8a6.21 6.21 0 0 0-6.2 6.21v8.82a6.2 6.2 0 0 0 6.2 6.2zm-.89-15a.89.89 0 0 1 .27-.63.85.85 0 0 1 .62-.26h7.58a.89.89 0 0 1 .89.89v8.8a.85.85 0 0 1-.26.62.87.87 0 0 1-.63.27H71.8a.92.92 0 0 1-.89-.89zM65.6 81.14a6.21 6.21 0 0 0 6.2 6.21h7.58a6.21 6.21 0 0 0 6.21-6.21v-8.82a6.2 6.2 0 0 0-6.21-6.2H71.8a6.2 6.2 0 0 0-6.2 6.2zm5.31-8.82a.89.89 0 0 1 .27-.63.9.9 0 0 1 .62-.26h7.58a.9.9 0 0 1 .63.26.88.88 0 0 1 .26.63v8.82a.88.88 0 0 1-.26.63.9.9 0 0 1-.63.26H71.8a.9.9 0 0 1-.62-.26.89.89 0 0 1-.27-.63zM97.58 57.5h7.58a6.18 6.18 0 0 0 6.2-6.2v-8.82a6.2 6.2 0 0 0-6.2-6.21h-7.58a6.21 6.21 0 0 0-6.21 6.21v8.82a6.2 6.2 0 0 0 6.21 6.2zm-.89-15a.89.89 0 0 1 .89-.89h7.58a.88.88 0 0 1 .63.26.9.9 0 0 1 .26.63v8.8a.9.9 0 0 1-.26.62.89.89 0 0 1-.63.27h-7.58a.89.89 0 0 1-.63-.27.85.85 0 0 1-.26-.62zm-5.32 38.64a6.21 6.21 0 0 0 6.21 6.21h7.58a6.2 6.2 0 0 0 6.2-6.21v-8.82a6.18 6.18 0 0 0-6.2-6.2h-7.58a6.2 6.2 0 0 0-6.21 6.2zm5.32-8.82a.88.88 0 0 1 .26-.63.92.92 0 0 1 .63-.26h7.58a.89.89 0 0 1 .89.89v8.82a.89.89 0 0 1-.89.89h-7.58a.92.92 0 0 1-.63-.26.88.88 0 0 1-.26-.63z" class="cls-1"/><path d="M184.69 95.26a8 8 0 0 0-4.92-7.37l-14.84-6.15V69.81a8 8 0 0 0-4.93-7.36l-33.73-14a1.76 1.76 0 0 0-.39-.12V32.2a8 8 0 0 0-8-8H59.05a8 8 0 0 0-8 8v42.24a2.66 2.66 0 1 0 5.31 0V32.2a2.66 2.66 0 0 1 2.66-2.66h58.86a2.66 2.66 0 0 1 2.66 2.66v53.31l-5.76 2.38a8 8 0 0 0-4.92 7.37v63.65H88.3v-4.63c7-1.59 12.66-9.38 12.66-19.05a23.13 23.13 0 0 0-2.68-11 10.7 10.7 0 0 1-1.12-6.43 18 18 0 0 0 .14-2.23c0-8.19-5.45-14.52-11.66-14.52S74 107.38 74 115.57a18.33 18.33 0 0 0 .14 2.24 10.8 10.8 0 0 1-1.14 6.44 23.1 23.1 0 0 0-2.69 11c0 9.67 5.62 17.46 12.67 19.05v4.63H46.84v-8.28c9.74-1.65 17.56-12.36 17.56-25.58a31.08 31.08 0 0 0-3.6-14.74 16 16 0 0 1-1.67-9.54 24.05 24.05 0 0 0 .18-3c0-10.71-7-19.1-15.13-19.1S29.05 87.1 29.05 97.81a22.38 22.38 0 0 0 .19 3 16 16 0 0 1-1.67 9.54A31 31 0 0 0 24 125.07c0 13.22 7.82 23.89 17.55 25.56v8.28H18a2.66 2.66 0 0 0 0 5.31h158.72a8 8 0 0 0 8-8zM80 146.79a16.11 16.11 0 0 1-4.38-11.55 17.8 17.8 0 0 1 2-8.45 16.19 16.19 0 0 0 1.73-9.65 11.46 11.46 0 0 1-.1-1.56 10.67 10.67 0 0 1 2.87-7.66 4.65 4.65 0 0 1 6.93 0 10.67 10.67 0 0 1 2.95 7.65 13.53 13.53 0 0 1-.1 1.58 16.17 16.17 0 0 0 1.72 9.64 17.8 17.8 0 0 1 2 8.45 16.1 16.1 0 0 1-4.37 11.55 9 9 0 0 1-3 2v-23a2.66 2.66 0 0 0-5.32 0v23a9 9 0 0 1-2.93-2zm-50.71-21.72a25.62 25.62 0 0 1 3-12.2 21.5 21.5 0 0 0 2.27-12.75 17.43 17.43 0 0 1-.14-2.3 15.82 15.82 0 0 1 4.29-11.35 7.48 7.48 0 0 1 11 0A15.83 15.83 0 0 1 54 97.81a19.84 19.84 0 0 1-.14 2.33 21.33 21.33 0 0 0 2.27 12.73 25.74 25.74 0 0 1 2.95 12.2c0 9.93-5.13 18.43-12.24 20.15v-33.29a2.66 2.66 0 0 0-5.32 0v33.29c-7.1-1.72-12.23-10.22-12.23-20.15zm96.59-71L158 67.36a2.66 2.66 0 0 1 1.64 2.46v9.72l-9.27-3.83a8 8 0 0 0-6.1 0l-18.39 7.59zm53.5 102.17a2.67 2.67 0 0 1-2.66 2.66H115.2V95.26a2.66 2.66 0 0 1 1.64-2.46l7.4-3.06 22-9.1a2.67 2.67 0 0 1 2 0L161.22 86l16.48 6.82a2.65 2.65 0 0 1 1.64 2.46z" class="cls-1"/><path d="M138.19 98.17h-7.58a6.18 6.18 0 0 0-6.2 6.2v8.82a6.18 6.18 0 0 0 6.2 6.2h7.58a6.2 6.2 0 0 0 6.21-6.2v-8.82a6.2 6.2 0 0 0-6.21-6.2zm.89 15a.88.88 0 0 1-.26.63.92.92 0 0 1-.63.26h-7.58a.89.89 0 0 1-.89-.89v-8.82a.89.89 0 0 1 .89-.89h7.58a.92.92 0 0 1 .63.26.88.88 0 0 1 .26.63zm-.89 14.83h-7.58a6.2 6.2 0 0 0-6.2 6.2v8.8a6.2 6.2 0 0 0 6.2 6.2h7.58a6.21 6.21 0 0 0 6.21-6.2v-8.83a6.21 6.21 0 0 0-6.21-6.2zm.89 15a.89.89 0 0 1-.89.88h-7.58a.88.88 0 0 1-.63-.26.91.91 0 0 1-.26-.62v-8.83a.94.94 0 0 1 .26-.63.91.91 0 0 1 .63-.25h7.58a.91.91 0 0 1 .63.25.89.89 0 0 1 .26.63zM164 98.17h-7.58a6.2 6.2 0 0 0-6.21 6.2v8.82a6.2 6.2 0 0 0 6.21 6.2H164a6.18 6.18 0 0 0 6.2-6.2v-8.82a6.18 6.18 0 0 0-6.2-6.2zm.89 15a.89.89 0 0 1-.89.89h-7.58a.92.92 0 0 1-.63-.26.88.88 0 0 1-.26-.63v-8.82a.88.88 0 0 1 .26-.63.92.92 0 0 1 .63-.26H164a.89.89 0 0 1 .89.89zM164 128h-7.58a6.21 6.21 0 0 0-6.21 6.2v8.8a6.21 6.21 0 0 0 6.21 6.2H164a6.2 6.2 0 0 0 6.2-6.2v-8.83A6.2 6.2 0 0 0 164 128zm.89 15a.91.91 0 0 1-.26.62.88.88 0 0 1-.63.26h-7.58a.89.89 0 0 1-.89-.88v-8.83a.89.89 0 0 1 .26-.63.91.91 0 0 1 .63-.25H164a.91.91 0 0 1 .63.25.94.94 0 0 1 .26.63z" class="cls-1"/></svg>