<svg version="1.0" xmlns="http://www.w3.org/2000/svg"
 width="834.000000pt" height="834.000000pt" viewBox="0 0 834.000000 834.000000"
 preserveAspectRatio="xMidYMid meet">

<g transform="translate(0.000000,834.000000) scale(0.100000,-0.100000)"
fill="#000000" stroke="none">
<path d="M5038 7158 c-74 -20 -107 -64 -313 -430 -207 -368 -218 -393 -195
-476 14 -53 70 -117 116 -134 19 -6 34 -15 34 -19 0 -4 -60 -107 -133 -230
-73 -123 -139 -239 -145 -258 -18 -51 -14 -101 12 -157 25 -53 55 -83 106
-104 16 -7 30 -15 30 -19 0 -3 -56 -107 -124 -230 -69 -123 -127 -240 -131
-261 -9 -54 11 -115 53 -162 64 -71 36 -68 692 -68 l591 0 24 25 c30 29 32 74
6 106 l-19 24 -578 3 c-401 2 -582 6 -591 13 -7 7 -13 20 -13 30 0 10 70 144
155 296 165 296 174 321 132 361 -19 18 -35 22 -90 22 -54 0 -71 4 -87 20 -11
11 -20 26 -20 33 0 8 79 146 176 308 97 162 178 308 181 326 4 25 0 37 -20 57
-23 23 -34 26 -97 26 -58 0 -74 4 -91 21 -12 12 -18 27 -14 37 7 19 326 586
362 645 30 47 71 52 101 10 39 -56 372 -654 372 -667 0 -29 -42 -46 -111 -46
-76 0 -105 -16 -115 -65 -5 -26 20 -72 175 -332 100 -167 181 -309 181 -318 0
-8 -9 -24 -20 -35 -16 -16 -33 -20 -89 -20 -63 0 -71 -2 -90 -26 -12 -15 -21
-37 -21 -50 0 -35 145 -319 172 -338 31 -22 63 -20 92 7 41 37 40 56 -9 156
-25 51 -45 94 -45 96 0 2 14 7 31 10 41 9 113 82 129 130 7 20 10 61 8 90 -4
47 -21 82 -146 292 -78 132 -142 242 -142 245 0 3 11 9 25 12 37 9 96 65 116
111 24 51 24 119 0 170 -44 95 -385 683 -413 712 -33 34 -104 64 -147 62 -14
-1 -43 -6 -63 -11z"/>
<path d="M2300 6790 c-229 -114 -421 -214 -428 -222 -23 -29 -25 -72 -3 -100
29 -37 63 -42 116 -19 l45 20 0 -165 0 -164 -354 0 c-337 0 -354 -1 -379 -20
-33 -26 -41 -63 -23 -99 19 -36 33 -41 107 -41 l59 0 0 -800 0 -800 -67 0
c-84 0 -143 -26 -175 -78 l-23 -37 -3 -696 -3 -697 27 -31 c32 -38 71 -41 111
-7 l28 24 3 541 3 541 1805 0 1805 0 24 25 c25 24 25 25 25 230 l0 205 100 0
100 0 0 -195 c0 -207 5 -235 47 -254 37 -17 62 -13 88 14 l25 24 0 264 c0 263
0 264 -23 285 -22 21 -31 22 -236 22 -283 0 -261 21 -261 -255 l0 -205 -260 0
-260 0 0 84 c0 70 -4 88 -22 116 -41 60 -71 75 -159 79 l-79 3 0 799 0 799 74
0 c90 0 103 4 122 41 18 36 10 73 -23 99 -25 19 -42 20 -399 20 l-374 0 0 165
c0 91 2 165 4 165 2 0 24 -9 49 -20 53 -23 90 -19 112 13 16 22 19 64 9 92 -9
22 -856 445 -891 444 -16 0 -215 -94 -443 -209z m725 -97 l275 -138 0 -1067 0
-1068 -147 0 -148 0 3 232 c4 276 -1 302 -67 368 -55 54 -100 70 -202 70 -99
0 -143 -14 -195 -62 -71 -65 -75 -87 -72 -366 l3 -242 -137 0 -138 0 0 1068 0
1067 273 137 c149 75 273 137 274 137 2 1 127 -61 278 -136z m-995 -1513 l0
-800 -215 0 -215 0 0 800 0 800 215 0 215 0 0 -800z m1870 0 l0 -800 -220 0
-220 0 0 800 0 800 220 0 220 0 0 -800z m-1057 -258 c21 -21 22 -31 25 -207
l4 -185 -131 0 -131 0 0 178 c0 231 8 244 143 239 54 -2 71 -7 90 -25z m1317
-762 l0 -60 -1410 0 -1410 0 0 60 0 60 1410 0 1410 0 0 -60z"/>
<path d="M2640 6498 c-79 -41 -85 -57 -88 -238 -4 -210 -14 -200 187 -200
l150 0 20 26 c19 24 21 40 21 163 0 122 -2 142 -22 181 -30 58 -89 90 -168 90
-38 0 -70 -7 -100 -22z m138 -130 c7 -7 12 -43 12 -90 l0 -78 -50 0 -50 0 0
84 c0 58 4 86 13 89 23 10 63 7 75 -5z"/>
<path d="M2370 6020 c-19 -19 -20 -33 -20 -208 0 -245 -11 -232 191 -232 199
0 189 -13 189 231 0 242 11 229 -193 229 -134 0 -149 -2 -167 -20z m220 -210
l0 -90 -50 0 -50 0 0 90 0 90 50 0 50 0 0 -90z"/>
<path d="M2770 6020 c-19 -19 -20 -33 -20 -210 0 -245 -12 -230 185 -230 142
0 147 1 170 25 25 24 25 26 25 203 0 166 -2 181 -21 206 l-20 26 -150 0 c-136
0 -151 -2 -169 -20z m210 -210 l0 -90 -45 0 -45 0 0 90 0 90 45 0 45 0 0 -90z"/>
<path d="M2366 5538 c-13 -18 -16 -56 -16 -209 l0 -188 26 -20 c24 -19 40 -21
166 -21 134 0 140 1 163 25 25 24 25 26 25 210 0 241 14 225 -194 225 -149 0
-155 -1 -170 -22z m224 -203 l0 -85 -50 0 -50 0 0 85 0 85 50 0 50 0 0 -85z"/>
<path d="M2767 5542 c-15 -16 -17 -46 -17 -210 l0 -191 26 -20 c24 -19 40 -21
166 -21 134 0 140 1 163 25 25 24 25 26 25 203 0 166 -2 181 -21 206 l-20 26
-153 0 c-135 0 -155 -2 -169 -18z m213 -207 l0 -85 -45 0 -45 0 0 85 0 85 45
0 45 0 0 -85z"/>
<path d="M6237 5760 c-70 -12 -146 -52 -200 -107 -87 -86 -117 -180 -117 -363
l0 -95 -35 -19 c-52 -28 -123 -108 -153 -174 -23 -49 -27 -70 -27 -152 0 -84
3 -103 29 -157 18 -39 48 -81 80 -111 98 -92 161 -112 369 -112 l147 0 0 -120
0 -120 -212 0 c-231 0 -253 -5 -276 -54 -11 -22 -11 -33 -1 -57 24 -60 17 -59
599 -59 l530 0 0 -429 0 -430 26 -20 c45 -35 96 -24 122 26 9 16 12 154 12
492 l0 470 -24 28 -24 28 -296 3 -296 3 0 118 0 119 173 4 c216 5 260 20 353
112 80 80 107 147 108 266 1 75 -3 93 -30 150 -37 79 -79 129 -144 171 l-48
31 -4 142 c-3 128 -6 146 -30 198 -54 115 -156 194 -282 217 -68 12 -277 13
-349 1z m382 -179 c50 -26 97 -81 110 -128 6 -21 11 -106 11 -188 0 -170 5
-185 68 -205 93 -30 154 -113 154 -209 0 -90 -40 -154 -122 -197 -28 -15 -65
-19 -192 -22 l-158 -4 0 78 0 78 115 116 c98 100 115 121 115 149 0 42 -38 81
-80 81 -25 0 -45 -13 -91 -57 l-59 -56 0 150 c0 166 -4 176 -68 189 -26 5 -36
1 -62 -24 l-30 -30 0 -138 0 -137 -54 52 c-43 40 -62 51 -87 51 -46 0 -79 -34
-79 -79 0 -33 11 -47 110 -146 l110 -110 0 -82 0 -83 -127 0 c-71 0 -148 5
-173 11 -121 27 -193 147 -160 264 15 55 77 128 122 145 97 36 98 39 98 236 0
170 7 200 61 253 54 55 79 61 262 61 147 0 173 -2 206 -19z"/>
<path d="M3560 3700 c-481 -125 -882 -231 -891 -234 -18 -8 -39 -48 -39 -75 0
-10 9 -30 21 -45 24 -31 68 -34 145 -11 27 8 50 15 52 15 1 0 2 -391 2 -870
l0 -870 -25 0 c-14 0 -42 -7 -63 -16 -81 -33 -131 -111 -132 -201 l0 -53 -330
0 -330 0 0 139 0 139 173 4 c169 3 173 4 239 35 81 38 146 102 185 181 25 51
28 68 28 157 0 88 -3 107 -27 157 -30 65 -101 146 -152 173 l-34 18 -4 136
c-4 109 -9 147 -27 193 -27 70 -73 129 -136 174 -81 57 -127 66 -347 62 l-194
-3 -66 -33 c-81 -39 -149 -112 -180 -192 -18 -44 -23 -82 -26 -191 l-4 -137
-55 -38 c-107 -74 -165 -183 -167 -314 -1 -168 102 -311 260 -360 54 -16 94
-20 220 -20 l154 0 0 -140 0 -140 -272 -1 c-184 0 -284 -4 -308 -12 -63 -22
-75 -96 -23 -137 25 -20 49 -20 2945 -20 l2920 0 30 30 c25 26 29 36 24 63 -4
18 -15 41 -27 52 -18 19 -35 20 -244 23 l-225 3 0 145 c0 139 1 144 21 144 40
0 170 50 234 91 270 171 365 536 213 822 -128 239 -427 374 -688 308 -128 -32
-202 -74 -296 -166 -126 -124 -187 -268 -187 -440 0 -104 16 -170 65 -275 33
-69 56 -100 122 -165 92 -91 170 -135 283 -163 l73 -17 0 -142 0 -143 -302 0
-303 0 0 58 c-1 106 -80 198 -180 210 l-45 5 0 629 0 630 23 -7 c12 -3 42 -9
67 -12 52 -6 75 12 86 64 12 62 11 63 -716 333 -371 138 -688 255 -703 262
l-28 11 3 110 3 110 70 19 c79 21 105 44 105 92 0 44 -35 76 -81 75 -19 0
-428 -103 -909 -229z m640 -1075 l0 -1015 -140 0 -139 0 -3 340 c-3 338 -3
340 -26 362 -22 23 -27 23 -278 26 l-255 3 -29 -30 -30 -29 0 -336 0 -336
-145 0 -145 0 0 870 0 869 38 10 c93 25 1128 280 1140 280 9 1 12 -208 12
-1014z m745 461 l530 -194 3 -641 2 -641 -555 0 -555 0 0 841 0 841 23 -6 c12
-3 261 -93 552 -200z m-2839 -366 c30 -17 62 -45 75 -67 22 -35 24 -51 29
-215 5 -167 6 -178 28 -201 13 -14 37 -28 54 -31 43 -9 123 -91 137 -141 28
-100 -9 -199 -93 -250 -49 -29 -52 -30 -208 -34 l-158 -3 0 83 0 84 112 112
c96 96 111 116 111 144 0 23 -8 39 -27 56 -44 38 -73 30 -138 -34 l-58 -57 0
143 0 143 -29 29 c-16 16 -37 29 -46 29 -24 0 -72 -27 -79 -45 -3 -9 -6 -80
-6 -157 l0 -141 -59 56 c-45 43 -67 57 -89 57 -41 0 -71 -28 -79 -73 -6 -37
-4 -39 111 -155 l116 -118 0 -78 0 -78 -157 4 c-130 3 -164 7 -193 22 -89 47
-124 108 -118 207 5 92 39 142 127 186 35 17 68 36 75 43 7 7 13 75 16 183 6
192 18 231 83 281 53 41 74 45 247 45 165 1 165 1 216 -29z m4537 -25 c92 -19
178 -67 240 -135 171 -185 170 -446 -2 -632 -52 -57 -154 -117 -223 -132 l-28
-6 0 72 0 73 101 100 c137 136 149 164 96 223 -35 38 -71 29 -138 -35 l-59
-56 0 142 0 143 -29 29 c-16 16 -37 29 -46 29 -24 0 -72 -27 -79 -45 -3 -9 -6
-80 -6 -157 l0 -141 -59 56 c-76 73 -125 77 -157 15 -26 -50 -11 -76 106 -193
l110 -110 0 -73 0 -74 -27 6 c-104 25 -237 124 -290 214 -83 141 -83 333 0
474 58 100 200 198 314 218 72 12 102 11 176 -5z m-2893 -800 l0 -275 -145 0
-145 0 0 275 0 275 145 0 145 0 0 -275z m1931 -455 c22 -12 27 -68 7 -88 -9
-9 -342 -12 -1437 -12 -1311 0 -1426 1 -1443 17 -22 20 -23 51 -1 75 15 17 73
18 1435 18 959 0 1426 -3 1439 -10z"/>
<path d="M3478 3366 c-89 -24 -155 -84 -200 -182 -22 -46 -23 -61 -23 -276 0
-226 0 -226 24 -252 l24 -26 327 0 327 0 24 26 c24 26 24 26 24 253 l0 226
-33 68 c-40 80 -106 139 -184 162 -63 18 -243 19 -310 1z m279 -166 c74 -33
83 -59 83 -247 l0 -163 -210 0 -210 0 0 160 c0 165 6 198 44 229 52 44 218 55
293 21z"/>
<path d="M4662 2645 c-18 -8 -37 -26 -42 -41 -7 -17 -10 -142 -8 -340 3 -311
3 -314 26 -336 22 -23 24 -23 328 -23 l306 0 24 29 25 28 -3 324 c-3 321 -3
324 -26 346 -22 23 -26 23 -310 25 -233 2 -293 0 -320 -12z m218 -365 l0 -210
-50 0 -50 0 0 210 0 210 50 0 50 0 0 -210z m280 0 l0 -210 -55 0 -55 0 0 210
0 210 55 0 55 0 0 -210z"/>
<path d="M1563 3616 c-28 -24 -28 -24 -32 -167 -2 -90 1 -157 9 -182 20 -67
19 -67 529 -67 287 0 460 4 477 10 50 19 53 32 54 211 0 150 -2 169 -19 190
l-19 24 -485 3 -485 3 -29 -25z m877 -191 l0 -55 -370 0 -370 0 0 55 0 55 370
0 370 0 0 -55z"/>
<path d="M5743 3630 c-38 -15 -43 -42 -43 -213 0 -163 0 -164 26 -188 l26 -24
463 -3 c511 -3 524 -1 546 55 6 17 9 89 7 181 l-3 154 -28 24 -28 24 -472 -1
c-260 0 -482 -4 -494 -9z m857 -205 l0 -55 -370 0 -370 0 0 55 0 55 370 0 370
0 0 -55z"/>
</g>
</svg>
