<?xml version="1.0" encoding="UTF-8"?><svg id="Calque_1" xmlns="http://www.w3.org/2000/svg" viewBox="0 0 200 200"><defs><style>.cls-1{stroke-width:0px;}</style></defs><path class="cls-1" d="m146.74,38.22h-14c-1.29,0-2.33,1.04-2.33,2.33v35h4.67v-14h11.67c1.86,0,3.64-.74,4.95-2.05s2.05-3.09,2.05-4.95v-9.33c0-1.86-.74-3.64-2.05-4.95s-3.09-2.05-4.95-2.05h0Zm2.33,16.33c0,.62-.25,1.21-.68,1.65s-1.03.68-1.65.68h-11.67v-14h11.67c.62,0,1.21.25,1.65.68s.68,1.03.68,1.65v9.33Z"/><path class="cls-1" d="m163.07,28.89h-42c-1.86,0-3.64.74-4.95,2.05s-2.05,3.09-2.05,4.95v42c0,1.86.74,3.64,2.05,4.95s3.09,2.05,4.95,2.05h18.67v70.29c-2.83.67-5.21,2.57-6.51,5.17l-2.58,5.16h0c-.36.72-.32,1.58.1,2.27.43.69,1.18,1.11,1.99,1.11h18.67c.81,0,1.57-.41,1.99-1.1.43-.69.47-1.55.11-2.27l-2.58-5.16c-1.3-2.61-3.69-4.5-6.52-5.17v-70.29h18.67c1.86,0,3.64-.74,4.95-2.05s2.05-3.09,2.05-4.95v-42c0-1.86-.74-3.64-2.05-4.95s-3.09-2.05-4.95-2.05h0Zm-16.33,133.55l.89,1.78h-11.12l.89-1.78c.58-1.16,1.57-2.06,2.78-2.53,1.21-.47,2.55-.47,3.76,0,1.21.47,2.2,1.37,2.78,2.53h0Zm18.67-84.55c0,.62-.25,1.21-.68,1.65s-1.03.68-1.65.68h-42c-1.29,0-2.33-1.04-2.33-2.33v-42c0-1.29,1.04-2.33,2.33-2.33h42c.62,0,1.21.25,1.65.68s.68,1.03.68,1.65v42Z"/><path class="cls-1" d="m86.07,136.22c-2.47,0-4.85.98-6.6,2.73-1.75,1.75-2.73,4.13-2.73,6.6s.98,4.85,2.73,6.6c1.75,1.75,4.13,2.73,6.6,2.73s4.85-.98,6.6-2.73c1.75-1.75,2.73-4.13,2.73-6.6s-.98-4.85-2.73-6.6c-1.75-1.75-4.13-2.73-6.6-2.73Zm0,14c-1.24,0-2.43-.49-3.3-1.37s-1.37-2.06-1.37-3.3.49-2.43,1.37-3.3,2.06-1.37,3.3-1.37,2.43.49,3.3,1.37,1.37,2.06,1.37,3.3-.49,2.43-1.37,3.3-2.06,1.37-3.3,1.37Z"/><path class="cls-1" d="m132.74,145.56v-16.33c0-3.09-1.23-6.06-3.42-8.25-2.19-2.19-5.15-3.42-8.25-3.42h-24.43l-19.48-28.59c-1.74-2.55-4.63-4.08-7.71-4.08h-37.03c-1.29,0-2.33,1.04-2.33,2.33v60.67c0,1.29,1.04,0,2.33,0h35.16c.76,6.06,4.44,11.37,9.86,14.21,5.42,2.83,11.88,2.83,17.29,0,5.42-2.83,9.1-8.14,9.86-14.21h25.83c.62,0,1.21-.25,1.65-.68s.68-1.03.68-1.65h0Zm-5.1-18.67h-8.9v-4.67h2.33c1.44,0,2.85.46,4.02,1.29,1.18.84,2.07,2.01,2.55,3.37h0Zm-58.2-37.33c1.54,0,2.99.76,3.86,2.04l17.7,25.96h-10.96l-7-7,3.02-3.02-3.3-3.3-9.33,9.33,3.3,3.3,3.02-3.02,3.7,3.7h-22.37v-14c0-3.09-1.23-6.06-3.42-8.25-2.19-2.19-5.15-3.42-8.25-3.42-1.29,0-2.33,1.04-2.33,2.33v23.33h-2.33v-28h34.7Zm-23.03,28h-4.67v-20.6c1.36.48,2.54,1.38,3.38,2.56.84,1.18,1.28,2.59,1.29,4.04v14Zm39.67,42c-3.71,0-7.27-1.47-9.9-4.1-2.63-2.63-4.1-6.19-4.1-9.9s1.47-7.27,4.1-9.9c2.63-2.63,6.19-4.1,9.9-4.1s7.27,1.47,9.9,4.1c2.63,2.63,4.1,6.19,4.1,9.9,0,3.71-1.48,7.27-4.1,9.9-2.63,2.62-6.18,4.1-9.9,4.1Zm18.51-16.33c-.76-6.06-4.44-11.37-9.86-14.21-5.42-2.83-11.88-2.83-17.29,0-5.42,2.83-9.1,8.14-9.86,14.21h-32.83v-21h79.33v7c0,.62.25,1.21.68,1.65s1.03.68,1.65.68h11.67v11.67h-23.49Z"/><path class="cls-1" d="m37.07,124.56h9.33v4.67h-9.33v-4.67Z"/><path class="cls-1" d="m41.74,168.89h72.33c1.29,0,2.33-1.04,2.33-2.33h0c0-1.29-1.04-2.33-2.33-2.33H41.74c-1.29,0-2.33,1.04-2.33,2.33h0c0,1.29,1.04,2.33,2.33,2.33Z"/></svg>