<svg xmlns="http://www.w3.org/2000/svg" data-name="Calque 1" viewBox="0 0 200 200"><path fill="#010101" d="M31.91 97.42a3.18 3.18 0 0 1 3.18-3.18h12.73a3.18 3.18 0 1 1 0 6.36H35.09a3.18 3.18 0 0 1-3.18-3.18zm3.18-19.09h8.47a28.83 28.83 0 0 0 20.17-8.46l10.63-10.63a28.83 28.83 0 0 0 8.46-20.17V30.6a3.18 3.18 0 1 0-6.36 0v8.47A22.86 22.86 0 0 1 70.09 55L59.47 65.6A22.85 22.85 0 0 1 43.56 72h-8.47a3.18 3.18 0 0 0 0 6.36zm66.82-31.82a3.18 3.18 0 0 0 3.18-3.18V30.6a3.18 3.18 0 0 0-6.36 0v12.73a3.18 3.18 0 0 0 3.18 3.18zm66.82 70h-8.47a28.48 28.48 0 0 0-20.17 8.49l-10.62 10.6a28.45 28.45 0 0 0-8.47 20.17v8.47a3.18 3.18 0 1 0 6.36 0v-8.47a22.51 22.51 0 0 1 6.37-15.91l10.63-10.62a22.57 22.57 0 0 1 15.9-6.37h8.47a3.18 3.18 0 1 0 0-6.36zm-28.64-46.58a28.6 28.6 0 0 0 20.17 8.4h8.47a3.18 3.18 0 1 0 0-6.36h-8.47a22.57 22.57 0 0 1-15.9-6.37L133.73 55a22.51 22.51 0 0 1-6.37-15.91V30.6a3.18 3.18 0 1 0-6.36 0v8.47a28.45 28.45 0 0 0 8.47 20.17zM63.73 125a28.48 28.48 0 0 0-20.17-8.46h-8.47a3.18 3.18 0 0 0 0 6.36h8.47a22.59 22.59 0 0 1 15.91 6.37l10.62 10.62a22.61 22.61 0 0 1 6.37 15.91v8.47a3.18 3.18 0 1 0 6.36 0v-8.47a28.48 28.48 0 0 0-8.46-20.17zm105-30.73H156a3.18 3.18 0 0 0 0 6.36h12.73a3.18 3.18 0 1 0 0-6.36zm-41.37 3.18a25.44 25.44 0 1 1-7.45-18 25.46 25.46 0 0 1 7.45 17.97zm-6.36 0a19.09 19.09 0 1 0-5.59 13.5A19.1 19.1 0 0 0 121 97.42zm-19.09 50.91a3.18 3.18 0 0 0-3.18 3.18v12.73a3.18 3.18 0 1 0 6.36 0v-12.76a3.18 3.18 0 0 0-3.18-3.18z"/></svg>