<?xml version="1.0" encoding="UTF-8"?><svg id="Calque_1" xmlns="http://www.w3.org/2000/svg" viewBox="0 0 200 200"><defs><style>.cls-1{stroke-width:0px;}</style></defs><path class="cls-1" d="m29.66,101.49c0-1.76,1.43-3.18,3.18-3.18h12.73c1.76,0,3.18,1.43,3.18,3.18s-1.42,3.18-3.18,3.18h-12.73c-1.76,0-3.18-1.43-3.18-3.18Zm3.18-19.09h8.46c7.57-.06,14.82-3.1,20.17-8.46l10.63-10.63c5.36-5.35,8.4-12.6,8.46-20.17v-8.46c0-1.76-1.42-3.18-3.18-3.18s-3.18,1.43-3.18,3.18v8.46c.02,5.93-2.26,11.63-6.36,15.91l-10.63,10.63c-4.28,4.1-9.98,6.39-15.91,6.36h-8.46c-1.76,0-3.18,1.42-3.18,3.18s1.43,3.18,3.18,3.18Zm66.82-31.82c.84,0,1.65-.33,2.25-.93.6-.6.93-1.41.93-2.25v-12.73c0-1.76-1.43-3.18-3.18-3.18s-3.18,1.43-3.18,3.18v12.73c0,.84.34,1.65.93,2.25.6.6,1.41.93,2.25.93Zm66.82,70h-8.46c-7.58.02-14.85,3.07-20.17,8.46l-10.63,10.63c-5.4,5.33-8.44,12.59-8.46,20.17v8.46c0,1.76,1.42,3.18,3.18,3.18s3.18-1.43,3.18-3.18v-8.46c-.06-5.93,2.22-11.65,6.36-15.91l10.63-10.63c4.26-4.13,9.98-6.41,15.91-6.36h8.46c1.76,0,3.18-1.42,3.18-3.18s-1.43-3.18-3.18-3.18Zm-28.64-46.58c5.35,5.36,12.6,8.38,20.17,8.4h8.46c1.76,0,3.18-1.42,3.18-3.18s-1.43-3.18-3.18-3.18h-8.46c-5.93.05-11.65-2.24-15.91-6.36l-10.63-10.63c-4.14-4.25-6.43-9.97-6.36-15.91v-8.46c0-1.76-1.42-3.18-3.18-3.18s-3.18,1.43-3.18,3.18v8.46c.02,7.58,3.07,14.85,8.46,20.17l10.63,10.69Zm-76.36,55.05c-5.33-5.4-12.59-8.44-20.17-8.46h-8.46c-1.76,0-3.18,1.42-3.18,3.18s1.43,3.18,3.18,3.18h8.46c5.93-.05,11.65,2.24,15.91,6.36l10.63,10.63c4.13,4.26,6.41,9.98,6.36,15.91v8.46c0,1.76,1.42,3.18,3.18,3.18s3.18-1.43,3.18-3.18v-8.46c-.02-7.58-3.07-14.85-8.46-20.17l-10.63-10.63Zm105-30.74h-12.73c-1.76,0-3.18,1.43-3.18,3.18s1.42,3.18,3.18,3.18h12.73c1.76,0,3.18-1.43,3.18-3.18s-1.43-3.18-3.18-3.18Zm-41.36,3.18c0,6.75-2.68,13.22-7.46,18-4.77,4.77-11.25,7.46-18,7.46s-13.22-2.68-18-7.46c-4.77-4.77-7.46-11.25-7.46-18s2.68-13.22,7.46-18,11.25-7.46,18-7.46,13.22,2.68,18,7.46c4.77,4.77,7.46,11.25,7.46,18Zm-6.36,0c0-5.06-2.01-9.92-5.59-13.5-3.58-3.58-8.44-5.59-13.5-5.59s-9.92,2.01-13.5,5.59c-3.58,3.58-5.59,8.44-5.59,13.5s2.01,9.92,5.59,13.5c3.58,3.58,8.44,5.59,13.5,5.59s9.92-2.01,13.5-5.59c3.58-3.58,5.59-8.44,5.59-13.5Zm-19.09,50.91c-1.76,0-3.18,1.42-3.18,3.18v12.73c0,1.76,1.43,3.18,3.18,3.18s3.18-1.43,3.18-3.18v-12.73c0-.84-.34-1.65-.93-2.25-.6-.6-1.41-.93-2.25-.93h0Z"/></svg>