<svg width="53" height="45" viewBox="0 0 53 45" fill="none" xmlns="http://www.w3.org/2000/svg">
<path d="M23.625 28.3125C23.3438 28.3125 22.9688 28.2187 22.6875 28.125C22.0312 27.75 21.6562 27.0937 21.6562 26.25V17.8125C21.6562 16.9687 22.125 16.2187 22.6875 15.9375C23.3438 15.5625 24.0938 15.6562 24.8438 16.125C25.5 16.5 27.6562 17.8125 29.5312 18.9375C30.4688 19.5 31.3125 20.0625 31.7812 20.25C32.5312 20.7187 32.9062 21.375 32.9062 22.0312C32.9062 22.7812 32.5312 23.4375 31.7812 23.9062L31.4062 24.1875C29.8125 25.2187 25.9687 27.5625 24.9375 28.125C24.4687 28.2187 24 28.3125 23.625 28.3125ZM23.625 17.5312C23.625 17.5312 23.5312 17.625 23.5312 17.8125V26.1562C23.5312 26.3437 23.625 26.4375 23.625 26.4375C23.625 26.4375 23.7188 26.4375 23.9062 26.3437C24.8438 25.875 28.7812 23.4375 30.2812 22.5L30.6562 22.2187C30.8438 22.125 30.9375 22.0312 30.9375 22.0312C30.9375 22.0312 30.8438 21.9375 30.75 21.8437C30.2812 21.5625 29.4375 21.0937 28.5 20.4375C26.7187 19.4062 24.5625 18 23.9062 17.7187C23.7188 17.5312 23.625 17.5312 23.625 17.5312Z" fill="#E1000F"/>
<path d="M5.625 4.6875C5.625 5.25 5.25 5.625 4.6875 5.625C4.125 5.625 3.75 5.25 3.75 4.6875C3.75 4.125 4.125 3.75 4.6875 3.75C5.25 3.75 5.625 4.125 5.625 4.6875Z" fill="#E1000F"/>
<path d="M9.375 4.6875C9.375 5.25 9 5.625 8.4375 5.625C7.875 5.625 7.5 5.25 7.5 4.6875C7.5 4.125 7.875 3.75 8.4375 3.75C9 3.75 9.375 4.125 9.375 4.6875Z" fill="#E1000F"/>
<path d="M10.7812 38.4375C9.46875 38.4375 8.4375 37.4062 8.4375 36.0938C8.4375 34.7812 9.46875 33.75 10.7812 33.75C12.0938 33.75 13.125 34.7812 13.125 36.0938C13.125 37.4062 12.0938 38.4375 10.7812 38.4375ZM10.7812 35.625C10.5 35.625 10.3125 35.8125 10.3125 36.0938C10.3125 36.375 10.5 36.5625 10.7812 36.5625C11.0625 36.5625 11.25 36.375 11.25 36.0938C11.25 35.8125 11.0625 35.625 10.7812 35.625Z" fill="#E1000F"/>
<path d="M8.4375 37.0312H4.6875C4.125 37.0312 3.75 36.6562 3.75 36.0938C3.75 35.5312 4.125 35.1562 4.6875 35.1562H8.4375C9 35.1562 9.375 35.5312 9.375 36.0938C9.375 36.5625 9 37.0312 8.4375 37.0312Z" fill="#E1000F"/>
<path d="M36.5625 5.625H15.9375C15.375 5.625 15 5.25 15 4.6875C15 4.125 15.375 3.75 15.9375 3.75H36.5625C37.125 3.75 37.5 4.125 37.5 4.6875C37.5 5.15625 37.125 5.625 36.5625 5.625Z" fill="#E1000F"/>
<path d="M47.8125 5.625H40.3125C39.75 5.625 39.375 5.25 39.375 4.6875C39.375 4.125 39.75 3.75 40.3125 3.75H47.8125C48.375 3.75 48.75 4.125 48.75 4.6875C48.75 5.15625 48.375 5.625 47.8125 5.625Z" fill="#E1000F"/>
<path d="M13.125 4.6875C13.125 5.25 12.75 5.625 12.1875 5.625C11.625 5.625 11.25 5.25 11.25 4.6875C11.25 4.125 11.625 3.75 12.1875 3.75C12.75 3.75 13.125 4.125 13.125 4.6875Z" fill="#E1000F"/>
<path d="M39.375 41.25H0.9375C0.375 41.25 0 40.875 0 40.3125C0 39.75 0.375 39.375 0.9375 39.375H39.375C39.9375 39.375 40.3125 39.75 40.3125 40.3125C40.3125 40.7812 39.9375 41.25 39.375 41.25Z" fill="#000091"/>
<path d="M51.5625 41.25H45.9375C45.375 41.25 45 40.875 45 40.3125C45 39.75 45.375 39.375 45.9375 39.375H51.5625C52.125 39.375 52.5 39.75 52.5 40.3125C52.5 40.7812 52.125 41.25 51.5625 41.25Z" fill="#000091"/>
<path d="M0.9375 45C0.375 45 0 44.625 0 44.0625V0.9375C0 0.375 0.375 0 0.9375 0H51.5625C52.125 0 52.5 0.375 52.5 0.9375V44.0625C52.5 44.625 52.125 45 51.5625 45H0.9375ZM1.875 43.125H50.625V1.875H1.875V43.125Z" fill="#000091"/>
<path d="M51.5625 9.375H0.9375C0.375 9.375 0 9 0 8.4375C0 7.875 0.375 7.5 0.9375 7.5H51.5625C52.125 7.5 52.5 7.875 52.5 8.4375C52.5 8.90625 52.125 9.375 51.5625 9.375Z" fill="#000091"/>
<path d="M15.9375 35.625H47.8125C48.375 35.625 48.75 36 48.75 36.5625C48.75 37.125 48.375 37.5 47.8125 37.5H15.9375C15.375 37.5 15 37.125 15 36.5625C15 36 15.4688 35.625 15.9375 35.625Z" fill="#000091"/>
<path d="M47.8125 32.8125H4.6875C4.125 32.8125 3.75 32.4375 3.75 31.875V12.1875C3.75 11.625 4.125 11.25 4.6875 11.25H47.8125C48.375 11.25 48.75 11.625 48.75 12.1875V31.875C48.75 32.3438 48.375 32.8125 47.8125 32.8125ZM5.625 30.9375H46.875V13.125H5.625V30.9375Z" fill="#000091"/>
</svg>
