<svg width="354" height="186" viewBox="0 0 354 186" fill="none" xmlns="http://www.w3.org/2000/svg">
<path d="M405.793 134.99C387.18 135.384 375.059 146.919 363.635 159.143C357.232 165.996 352.624 174.445 354.068 186.212L364.381 179.387C367.189 166.797 375.788 159.817 384.97 153.482C391.314 149.105 398.564 147.766 406.981 151.197L422.651 140.827C417.323 136.364 411.513 134.868 405.795 134.988L405.793 134.99ZM350.584 119.11C358.169 113.488 364.786 106.406 362.744 93.9059C360.412 79.6072 349.832 71.7599 339.032 65.5371C319.023 54.0047 299.8 42.6825 292.329 16.0881C290.305 8.88005 283.021 2.67626 275.436 3.07838C268.906 3.42488 265.94 9.26733 267.741 16.0129C273.563 37.8282 288.212 55.2639 301.621 73.0637C304.351 76.6883 309.725 78.8381 312.818 75.7249C314.865 73.6651 311.8 69.827 309.758 67.7334C298.302 55.9875 287.76 43.5197 280.351 28.5955C278.154 24.172 273.613 18.132 278.198 15.1162C282.973 11.9787 286.557 18.1839 289.089 22.656C296.581 35.889 303.744 49.0731 315.439 59.3353C339.964 80.8542 344.897 99.7877 327.977 120.361C307.996 144.67 307.849 172.831 323.43 206.486L327.43 203.839C327.317 203.614 327.214 203.387 327.132 203.156C316.535 173.111 326.857 136.696 350.583 119.114L350.584 119.11ZM286.419 -15.5574C281.233 -16.8854 274.17 -18.1255 273.79 -12.1568C273.55 -8.3966 280.812 -8.5155 284.733 -7.35861C293.171 -4.86987 300.204 -0.176328 302.928 9.67322C305.481 18.9093 308.906 27.251 316.681 33.6852C332.679 46.9256 351.117 55.1366 365.682 71.6484C378.139 85.7675 383.221 108.065 374.608 120.724C367.855 130.646 355.927 134.098 348.492 143.262C336.607 157.914 330.013 175.033 336.024 198.152L342.993 193.541C339.064 175.663 344.97 162.447 353.926 151.37C366.041 136.387 379.921 123.191 399.517 119.315C411.543 116.936 423.205 123.888 433.924 133.367L439.933 129.391C406.883 113.199 398.181 88.9611 402.974 57.5933C405.506 41.0327 398.401 30.2206 383.04 32.0279C360.061 34.7342 338.629 29.5423 317.982 9.73465C308.097 0.25116 299.645 -12.1714 286.413 -15.5572L286.419 -15.5574ZM310.858 -36.5152C310.357 -7.95097 323.377 6.58833 344.843 3.17004C350.898 2.20578 358.008 0.646014 356.957 -7.03801C356.957 -7.03801 357.556 -10.8606 351.015 -18.5608C342.307 -28.8087 334.593 -38.5961 332.999 -51.9082C332.403 -56.8907 334.551 -65.3474 325.627 -63.6863C311.736 -61.102 312.275 -46.7414 310.858 -36.5152Z" fill="#CACAFB" opacity="0.5"/>
<path d="M-43.1559 120.059C-29.9689 116.573 -23.2944 106.277 -17.233 95.6112C-13.8357 89.6321 -11.987 82.8267 -15.0105 74.7016L-21.1967 81.334C-21.0613 90.777 -26.0005 97.2245 -31.4644 103.314C-35.2392 107.521 -40.1747 109.722 -46.75 108.731L-56.1493 118.808C-51.5987 121.067 -47.208 121.13 -43.1571 120.06L-43.1559 120.059ZM-1.15099 121.852C-5.5988 127.159 -9.10939 133.338 -5.53583 141.882C-1.4503 151.655 7.41406 155.417 16.159 157.986C32.3621 162.747 47.9697 167.494 57.7993 185.132C60.463 189.913 66.7018 193.073 72.0344 191.481C76.6249 190.11 77.7466 185.441 75.3201 180.951C67.4749 166.43 54.0876 156.545 41.5216 146.187C38.9624 144.078 34.7717 143.474 33.0975 146.222C31.9889 148.04 34.8224 150.244 36.631 151.382C46.7803 157.767 56.401 164.824 64.2077 174.169C66.5222 176.938 70.7792 180.454 68.0259 183.39C65.1583 186.445 61.5542 182.646 58.9929 179.9C51.414 171.773 44.0777 163.625 34.0104 158.336C12.8983 147.246 6.17483 134.623 14.7339 117.069C24.8392 96.3298 20.1684 76.2642 3.36719 54.998L0.967508 57.5708C1.08613 57.7113 1.19817 57.8555 1.29542 58.0058C13.9362 77.5612 12.7613 105.252 -1.15139 121.849L-1.15099 121.852ZM67.3739 206.633C71.2915 206.685 76.5309 206.352 75.79 202.039C75.3229 199.322 70.1723 200.657 67.1843 200.509C60.7539 200.191 54.9502 198.062 51.34 191.522C47.9559 185.389 44.1029 180.043 37.4755 176.803C23.8386 170.136 9.31785 167.468 -3.85359 158.226C-15.1178 150.324 -22.5177 135.332 -18.5311 124.84C-15.4054 116.617 -7.49744 112.107 -3.75749 104.305C2.2212 91.8314 4.01335 78.5138 -4.18722 63.0974L-8.36747 67.5792C-2.53821 79.6246 -4.50247 90.0459 -9.00142 99.4709C-15.0873 112.219 -22.7328 124 -36.0289 130.132C-44.1881 133.897 -53.6711 130.958 -62.9113 126.058L-66.5157 129.922C-40.2365 135.753 -29.9299 151.503 -28.0236 174.65C-27.0181 186.87 -20.1259 193.341 -9.49469 189.41C6.4086 183.527 22.5498 183.531 40.6104 194.071C49.2572 199.117 57.382 206.501 67.378 206.632L67.3739 206.633ZM53.5257 225.756C49.0388 205.343 37.3024 197.239 22.5972 203.368C18.4491 205.096 13.6511 207.431 15.7025 212.718C15.7025 212.718 15.9243 215.541 21.8876 219.894C29.8258 225.687 36.9787 231.324 40.3707 240.522C41.64 243.965 41.5446 250.353 47.6176 247.634C57.0704 243.403 54.2514 233.277 53.5257 225.756Z" fill="#CACAFB" opacity="0.5"/>
</svg>
