<svg width="330" height="178" viewBox="0 0 330 178" fill="none" xmlns="http://www.w3.org/2000/svg">
<path d="M160.255 122.85C164.724 92.563 192.248 70.1587 224.915 68.8258C245.765 67.9748 266.998 63.0209 285.558 77.5842C295.552 85.4313 295.616 102.067 306.78 108.939C322.991 118.918 340.971 112.675 358.118 113.927C380.615 115.567 400.616 122.353 413.568 144.091C432.666 176.135 429.786 197.577 401.01 236.014L333.948 236.102C328.542 230.555 323.331 224.692 317.214 220.354C285.005 197.511 247.5 196.887 210.968 192.872C177.719 189.217 154.996 158.479 160.255 122.855L160.255 122.85ZM626.611 163.357C615.876 147.745 601.197 137.483 582.28 143.415C563.338 149.355 555.512 165.302 556.176 186.281C556.784 205.356 567.287 219.875 574.764 235.781L555.871 235.806C553.099 227.07 550.651 218.167 547.102 209.844C534.897 181.204 541.933 149.039 564.146 134.388C587.772 118.809 618.007 127.43 635.488 152.147C653.933 178.225 674.7 201.57 708.39 197.726L708.077 221.411C672.977 215.939 647.599 193.896 626.611 163.363L626.611 163.357ZM681.714 94.3502C683.182 96.7839 684.209 99.5402 685.445 102.148C683.483 100.45 681.477 98.807 679.563 97.0487C674.943 92.8052 670.392 88.471 665.76 84.248C618.36 41.0642 566.262 44.2929 521.564 92.1379C484.419 131.896 475.367 184.503 463.421 235.931L429.614 235.974C445.597 183.647 479.152 142.83 506.336 97.8906C552.288 21.9171 637.137 20.4156 681.718 94.3559L681.714 94.3502ZM27.6873 127.799C41.778 118.5 59.5155 123.484 72.716 136.327C89.9668 153.111 94.2328 178.427 105.127 199.411C112.516 213.642 122.223 225.423 132.922 236.364L45.2301 236.482C58.5727 208.77 47.7958 185.839 33.4708 162.413C27.5373 152.711 9.57325 139.758 27.6917 127.804L27.6873 127.799ZM665.075 148.336C631.743 106.279 597.606 84.0773 550.95 118.899C525.749 137.709 516.68 179.732 528.759 221.041C530.174 225.877 531.167 230.871 532.243 235.835L490.303 235.892C493.951 215.603 497.266 195.239 501.449 175.079C512.449 122.067 548.263 81.4262 595.104 77.1113C633.601 73.5633 658.182 101.696 677.587 135.338C682.999 144.72 688.381 158.287 701.938 152.699C706.173 150.954 708.234 147.746 709.095 143.944L708.717 172.726C688.756 177.563 676.417 162.655 665.07 148.341L665.075 148.336ZM662.586 40.5494C625.584 0.892445 543.125 9.62355 512.841 56.5593C496.018 82.6324 478.203 107.984 459.934 132.861C454.549 140.192 443.829 147.018 437.405 138.421C430.75 129.517 442.728 125.764 447.719 120.45C456.812 110.765 467.107 101.941 474.366 90.777C502.385 47.6643 532.843 8.81194 583.244 -1.91679C592.143 -3.81006 601.427 -8.09473 598.578 -20.5645C596.374 -30.223 587.472 -30.7632 579.773 -29.0086C537.648 -19.4104 508.97 11.4731 482.869 46.5906C467.981 66.6218 456.441 90.9651 432.685 100.561C413.091 108.475 394.275 97.2818 374.954 96.3094C358.976 95.5045 341.251 98.9279 327.88 87.4239C317.915 78.8519 312.431 63.8492 302.293 55.6804C275.079 33.7521 243.963 41.2954 214.48 49.5904C182.02 58.7206 150.373 66.8628 116.793 58.3471C85.436 50.3953 53.888 50.9145 23.7128 66.9398C18.4656 69.7259 13.5627 74.0691 14.8533 81.3119C16.192 88.7992 22.1974 89.7639 28.1139 89.7268C52.4238 89.5661 76.223 81.4819 100.877 84.2045C124.026 86.763 140.862 103.845 136.411 123.348C128.676 157.238 144.156 194.606 173.329 206.633C202.278 218.573 234.169 211.841 264.061 219.081C278.153 222.494 292.664 224.779 303.489 236.132L257.336 236.192C241.908 229.913 225.448 228.417 209.258 228.071C158.271 226.982 125.701 201.521 110.935 147.109C101.484 112.285 80.4351 100.473 37.6828 102.695C22.4802 103.487 4.48366 109.033 0.551951 86.4227C-3.08155 65.5209 14.5672 59.9096 28.1052 53.7054C47.2393 44.9463 63.1289 31.6641 78.3129 16.2075C93.7129 0.527645 104.546 17.0251 115.519 25.6889C151.903 54.414 191.814 50.0653 228.733 31.1605C271.375 9.32073 302.712 18.672 334.832 52.4548C367.358 86.6607 418.98 90.8748 450.879 64.9296C475.789 44.6732 490.296 13.1142 512.352 -10.5003C538.618 -38.6207 562.739 -71.7158 601.968 -76.9056C630 -80.6169 641.064 -57.1011 648.379 -32.6677C660.822 8.8679 685.464 43.2252 701.46 82.603C704.306 89.6181 706.966 96.7252 709.621 103.837L709.236 133.191C709.053 131.679 708.819 130.189 708.585 128.764C702.737 93.326 685.655 65.267 662.582 40.5384L662.586 40.5494Z" fill="#D5D5F5" fill-opacity="0.45"/>
</svg>
