<svg xmlns="http://www.w3.org/2000/svg" width="189" height="178" fill="none" xmlns:v="https://vecta.io/nano"><style><![CDATA[.B{fill:#fddfd8}.C{fill:#e9c53b}.D{fill:#f5d24b}.E{fill:#a88e26}.F{fill:#fff}.G{fill:#c08c65}.H{fill:#474747}.I{stroke-miterlimit:10}.J{stroke:#1d2437}.K{stroke-width:.25}.L{fill:#28241c}]]></style><g clip-path="url(#A)"><path d="M130.396 73.986c-6.464-3.127-7.389-11.87-1.592-16.195 6.125-4.569 14.895-.233 15.057 7.4.147 6.958-7.215 11.817-13.464 8.795h-.001zm-3.117-4.601c.212.295.376.665.604.965 1.47 1.935 4.004 3.241 6.442 3.224.354-.002 1.004-.159 1.261-.132.043.004.122.099.216.093.076-.005.099-.089.122-.099.064-.029.126-.062.188-.093.215.165.689.037.793-.214.07-.002.139-.012.209-.014.018-.001.064.059.097.05.036-.02.04-.062.061-.092.011-.016.019-.034.029-.05l.029-.05.13.008c.022.001.058.052.098.051.035-.021.04-.063.061-.093.011-.016.018-.034.029-.05l.029-.05c2.603-.99 4.53-3.785 4.847-6.518.044-.38.004-.762.043-1.139.024-.236-.009-.097-.114-.267-.085-.137.066-.282.025-.454-.045-.188-.135-.402-.191-.65l.125-.268-.202-.18-.021-.08c.176-.232.077-.401-.177-.505-.021-.059-.029-.121-.043-.159.205-.231.03-.214-.019-.346-.042-.111.018-.28-.229-.267-.174-.404-.244-.521-.506-.863-.19-.248-.176-.465-.228-.555-.026-.044-.6-.577-.722-.699.167-.162-.05-.297-.166-.402a4.98 4.98 0 0 0-.399-.319c-.092-.065-.161-.17-.222-.003-.015-.012-.036-.017-.051-.029.072-.216-.034-.234-.214-.325l-.058.1c-.107-.076-.239-.132-.352-.203.135-.314-.598-.737-.803-.464-.449-.248-.55-.325-1.063-.479.113-.132-.012-.15-.114-.193-.178-.074-.622-.253-.756-.04-.083-.019-.17-.054-.23-.066-.057-.182-.576-.336-.619-.089-.198-.031-.296.021-.568-.059-.066-.02-.137-.101-.215-.123-.051-.014-.091.061-.129.057-.233-.018-.692-.152-.779.156-.486.021-1.272.222-1.767.391-.223-.199-.222-.028-.395.037-.116.044-.302-.033-.297.235-1.239.514-2.572 1.719-3.337 2.874-1.594 2.408-1.821 5.686-.464 8.233-.152.188-.031.147.013.209h-.001z" class="B"/><path d="M127.266 69.176c-1.357-2.547-1.13-5.826.464-8.233.766-1.156 2.098-2.36 3.337-2.874l.693-.272c.495-.17 1.281-.37 1.766-.391.362-.016.78.016 1.123-.09.272.081.371.028.569.059l.618.088c.061.011.148.047.23.066l.87.233c.513.155.614.232 1.063.479l.803.464.352.203c.096.068.18.151.272.224.015.012.035.017.051.029a10.19 10.19 0 0 1 .788.723l.721.699c.052.089.039.306.229.555.262.342.331.459.506.864l.248.614c.014.038.021.1.042.159l.177.505.021.08c.035.13.042.295.077.447.057.248.146.462.191.65.041.172-.11.316-.024.454l-.109.072c-.268-.313-.463-.72-.729-1.058-1.297-1.643-3.178-2.703-5.252-2.964-.197-.025-.473-.068-.662-.015-.299-.168-.608-.299-.935-.396-.141-.042-.656-.202-.724-.073-.055.103-.113.354-.163.493-.098-.058-.179-.012-.274.009-2.805.613-5.081 2.708-5.964 5.46-.132-.27-.153-.569-.208-.859-.067-.017-.081.1-.089.152-.076.496.24 1.188.212 1.666-.033.566-.28 1.23-.111 1.817l-.029.05c-.008-.015-.042-.014-.05-.029-.013-.023-.089-.036-.101-.058l.001-.001z" class="C"/><g class="B"><path d="M137.627 72.807c.151-.168.707-.38.943-.529 2.148-1.358 3.528-3.524 3.826-6.053.043-.367.015-.739.07-1.103.023.023.072.035.101.058-.039.377.001.76-.043 1.139-.317 2.732-2.244 5.528-4.847 6.518l-.05-.029h0zm-10.348-3.422l.088-.151c.007.015.042.014.05.029 1.672 2.969 4.754 4.607 8.198 4.129l-.029.05c-.258-.027-.908.13-1.261.132-2.438.017-4.973-1.289-6.443-3.224-.228-.3-.391-.67-.603-.965h0zm6.247-11.98c.087-.307.546-.174.779-.156.038.003.078-.072.129-.057.078.022.149.104.215.123-.343.106-.761.075-1.123.09zm4.473.836c.205-.273.938.15.804.464l-.804-.464zm1.478.921c.062-.167.131-.062.223.003a4.85 4.85 0 0 1 .399.319c.115.105.332.241.166.402l-.788-.723v-.001zm-3.41-1.633c.133-.212.578-.034.755.04.103.043.227.061.114.193l-.869-.233v.001zm.045 15.814l.03-.05.713-.192.05.029c-.104.251-.578.379-.793.214zm-5.045-15.275c-.005-.268.181-.19.298-.234.172-.066.172-.236.395-.037l-.693.272z"/><path d="M135.218 57.375c.043-.247.562-.093.618.089l-.618-.089zm6.504 4.628c.246-.013.187.156.228.267.05.132.224.115.02.346l-.248-.614z"/><path d="M142.012 62.775c.255.104.354.273.177.505-.043-.163-.12-.343-.177-.505z"/><path d="M142.211 63.36l.201.18-.125.268c-.035-.153-.042-.318-.076-.447zm-6.625 10.082l.029-.05c.03-.004.093-.032.159-.043l.151.087c-.023.01-.046.095-.122.099-.095.006-.175-.088-.216-.093l-.001.001zm3.568-14.534l.058-.1c.18.091.286.108.215.325l-.273-.225zM136.855 73.1c.025-.008.092-.096.204-.124.151-.039.105.034.114.039l-.059.101-.208.014-.051-.029V73.1z"/><path d="M135.773 73.349l.368-.056-.03.05-.187.093-.151-.087zm6.693-8.228c-.028-.028-.043-.079-.071-.109-.014-.014-.039-.016-.05-.029l.108-.072c.105.17.139.031.114.267-.029-.023-.078-.034-.101-.057zm-5.185 7.822c.056-.062.077-.09.165-.114.097-.026.069.048.072.05l-.058.101-.13-.008-.049-.029zm-10.002-3.557c-.044-.062-.165-.021-.013-.209.012.022.088.035.1.058l-.087.151zm9.835 3.729l.058-.101.051.029.05.029c-.021.03-.026.072-.061.092-.034.009-.08-.05-.098-.049z"/><path d="M137.46 72.98l.058-.101.051.029.051.029c-.021.03-.026.072-.061.093-.04.002-.076-.049-.098-.051l-.001.001zm-.208.013l.05.029c-.011.016-.018.035-.029.05l-.051-.029.03-.05z"/><path d="M137.281 72.943l.05.029-.029.05-.05-.029c.011-.015.016-.036.029-.05zm.317-.086l.05.029c-.011.016-.018.035-.029.05l-.05-.029.029-.05z"/><path d="M137.627 72.807l.05.029-.029.05-.05-.029c.012-.015.016-.036.029-.05z"/></g><path d="M127.446 69.212c-.169-.587.078-1.251.111-1.817.177.303.244.65.39.979 1.721 3.87 6.521 5.401 10.137 3.195 2.326-1.419 3.818-4.266 3.349-6.979-.087.556-.117 1.115-.258 1.665-1.537 5.978-9.514 7.255-12.776 1.998-.194-.312-.757-1.388-.686-1.708.053-.241.38-.971.504-1.221 1.05-2.104 3.236-3.892 5.575-4.205-.021.068-.107.527-.08.556.719.083 1.322.285 1.877.768.666.58.941 1.463.918 2.327l-2.01-1.16-.61 1.058 2.31 1.334-.378.655-2.311-1.334-.611 1.058 1.959 1.131c-.461.325-1.281.577-1.839.517-.743-.08-1.492-.547-1.971-1.104-.135.171-1.022.658-1.007.822 1.488 1.919 4.301 2.104 6.073.49l.955.551.611-1.058-.704-.406.379-.655.703.406.611-1.058-.879-.508c.256-1.902-.363-3.596-2.087-4.564.189-.052.466-.009.662.015a7.94 7.94 0 0 1 5.252 2.964c.266.338.461.745.729 1.058.011.013.037.015.05.029-.092.098-.071.187-.08.298-.069.826-.081 1.483-.326 2.3-1.694 5.639-8.56 7.583-12.914 3.652-.656-.592-1.164-1.306-1.629-2.05h.001z" class="D"/><path d="M135.701 60.946c1.724.968 2.344 2.663 2.087 4.564l.879.508-.61 1.058-.704-.406-.378.655.703.406-.611 1.058-.954-.551c-1.772 1.614-4.586 1.429-6.074-.49-.015-.165.872-.651 1.007-.823.48.557 1.229 1.024 1.972 1.104.558.06 1.378-.192 1.839-.517l-1.959-1.131.611-1.058 2.31 1.334.379-.655-2.311-1.334.611-1.058 2.009 1.16c.023-.864-.251-1.747-.918-2.327-.554-.482-1.157-.685-1.876-.768-.027-.029.059-.487.08-.556.014-.048.069-.1.087-.151l.163-.493c.068-.129.582.031.724.073.327.097.636.229.934.396z" class="E"/><path d="M127.557 67.396c.028-.478-.288-1.169-.212-1.666.008-.051.021-.169.089-.152.055.29.076.588.208.859.019.038.021.084.072.109-.071.32.492 1.395.686 1.708 3.261 5.257 11.238 3.981 12.775-1.998.142-.55.172-1.109.259-1.664.469 2.713-1.023 5.56-3.349 6.979-3.616 2.206-8.416.674-10.137-3.195-.147-.33-.213-.677-.391-.979h0z" class="B"/><path d="M127.416 69.263l.029-.05c.465.743.974 1.458 1.63 2.05 4.354 3.931 11.22 1.988 12.913-3.652.246-.817.258-1.474.326-2.3.01-.112-.011-.2.081-.298.028.029.043.08.071.109-.056.365-.026.736-.07 1.104a8.21 8.21 0 0 1-3.826 6.053c-.236.149-.793.361-.943.529-.013.014-.017.035-.029.05l-.029.05c-.017-.01-.034-.02-.05-.029-.004-.002.024-.076-.073-.05-.088.024-.109.051-.165.114-.013.014-.017.035-.029.051l-.029.05-.051-.029c-.008-.005.037-.078-.113-.039-.112.028-.179.117-.204.124-.198.06-.516.148-.714.192-.056.013-.274.041-.367.056-.066.011-.129.039-.159.043-3.444.478-6.526-1.159-8.198-4.129l-.001.001z" class="D"/><path d="M127.642 66.437c.883-2.752 3.159-4.847 5.964-5.46.095-.021.176-.067.274-.009-.018.051-.073.103-.087.151-2.339.312-4.525 2.1-5.575 4.204-.125.25-.451.98-.504 1.221-.05-.024-.052-.07-.072-.109v.001z" class="C"/></g><g clip-path="url(#B)"><path d="M95.439 45.761c3.773 2.819 3.279 8.564-.993 10.627-4.513 2.179-9.621-1.706-8.773-6.641.772-4.499 6.118-6.711 9.766-3.986h0zm1.434 3.351c-.099-.216-.159-.475-.268-.696-.705-1.429-2.175-2.586-3.747-2.879-.228-.043-.666-.023-.829-.072-.027-.008-.066-.079-.127-.087-.049-.006-.075.045-.091.049-.044.011-.088.025-.133.036a.4.4 0 0 0-.537.039c-.045-.008-.091-.01-.136-.017-.012-.002-.034-.046-.057-.044-.025.008-.034.035-.051.052-.009.009-.016.02-.025.029l-.025.029-.083-.021c-.014-.003-.031-.041-.057-.045-.025.009-.033.036-.05.052-.009.009-.016.02-.025.029l-.025.029c-1.799.313-3.389 1.873-3.933 3.593-.076.239-.097.49-.17.728-.045.149-.006.064.04.186.038.099-.077.173-.072.289.005.127.036.276.042.442l-.114.157.107.141.004.054c-.142.127-.1.249.051.347.006.04.003.081.007.108-.16.123-.046.134-.031.225.013.077-.047.178.114.201a2.08 2.08 0 0 0 .218.619c.091.184.056.322.078.386.011.031.314.446.377.54-.127.083-.005.198.057.28a3.21 3.21 0 0 0 .217.255c.051.053.083.129.143.029.008.009.02.015.029.025-.073.13-.007.155.098.236l.05-.058c.059.062.137.114.201.174-.126.186.294.55.46.399.258.215.313.278.625.441-.089.071-.011.098.049.139.105.07.369.24.482.12.051.022.103.056.14.071.014.124.329.288.387.134.124.045.193.023.358.109.04.021.076.082.123.106.031.015.066-.028.09-.021.148.041.427.184.521-.003.315.047.846.016 1.186-.032.119.156.14.046.259.025.081-.014.191.059.221-.114.862-.177 1.87-.786 2.507-1.435 1.326-1.352 1.881-3.435 1.325-5.244.121-.102.038-.091.017-.136h.001z" class="B"/><path d="M96.855 49.248c.557 1.809.002 3.892-1.325 5.244-.637.649-1.645 1.258-2.507 1.435l-.48.089c-.34.048-.871.078-1.186.032-.235-.035-.501-.108-.735-.082-.165-.086-.235-.064-.358-.109l-.387-.134c-.037-.015-.089-.049-.14-.071l-.531-.259c-.312-.164-.367-.226-.625-.441l-.46-.399-.201-.175c-.053-.056-.097-.12-.147-.178-.008-.01-.021-.015-.029-.025-.151-.179-.287-.37-.417-.564l-.377-.54c-.022-.064.013-.202-.078-.386a2.06 2.06 0 0 1-.218-.619l-.083-.426c-.004-.026-.001-.067-.007-.108l-.051-.347-.004-.054c-.006-.088.01-.195.007-.298-.006-.167-.037-.316-.042-.442-.005-.116.11-.19.072-.289l.079-.033c.134.235.208.521.338.773a5.21 5.21 0 0 0 3.012 2.563c.124.041.297.102.425.092a2.98 2.98 0 0 0 .552.372c.086.045.397.212.457.137.048-.059.117-.214.166-.297.056.05.114.03.178.029 1.883-.045 3.609-1.111 4.521-2.773.052.191.028.386.027.579.041.019.065-.055.076-.086.111-.31-.007-.795.071-1.099.092-.36.334-.757.298-1.156l.025-.029c.003.011.025.014.029.025.005.016.053.034.058.05h-.001z" class="C"/><g class="B"><path d="M90.636 45.619c-.118.09-.503.157-.673.223a5.39 5.39 0 0 0-3.218 3.421c-.073.231-.101.474-.183.702-.012-.018-.042-.031-.058-.05.072-.238.094-.489.17-.728.545-1.72 2.134-3.28 3.933-3.593l.029.025h0zm6.237 3.493l-.075.086c-.003-.01-.025-.014-.029-.025-.707-2.12-2.488-3.559-4.765-3.68l.025-.029c.162.049.601.03.828.072 1.572.293 3.041 1.45 3.747 2.879.109.221.169.48.268.696h0zm-5.515 6.936c-.095.187-.373.044-.521.003-.025-.007-.059.036-.09.021-.048-.024-.083-.085-.123-.106.234-.026.5.047.735.082zm-2.777-1.096c-.166.151-.585-.213-.46-.399l.46.399z"/><path d="M87.744 54.176c-.06.1-.092.024-.143-.029a3.14 3.14 0 0 1-.217-.255c-.061-.082-.184-.196-.057-.28l.417.564h0zm1.993 1.476c-.113.12-.377-.05-.482-.12-.061-.041-.139-.068-.049-.139l.531.259h0zm1.941-10.189l-.025.029-.483.035-.029-.025a.4.4 0 0 1 .537-.039zm1.345 10.465c-.03.173-.14.1-.221.114-.119.021-.14.131-.259-.025l.48-.089z"/><path d="M90.264 55.857c-.058.154-.373-.01-.387-.134l.387.134zm-3.611-3.791c-.161-.023-.101-.124-.114-.201-.016-.091-.13-.102.031-.225l.083.426z"/><path d="M86.562 51.533c-.151-.099-.194-.22-.051-.348.008.11.035.236.051.348zm-.055-.402l-.108-.141.114-.157-.006.298zm5.522-5.666l-.025.029c-.02-.001-.064.009-.108.008l-.086-.075c.016-.004.041-.055.091-.048.062.008.101.079.127.087h0zm-4.109 8.914l-.05.057c-.105-.081-.17-.105-.097-.236l.147.178zm3.249-8.852c-.017.002-.071.05-.147.055-.102.006-.064-.035-.069-.039l.05-.058.136.017.029.025h0z"/><path d="M91.897 45.501l-.244-.009.025-.029.133-.036.086.075zm-5.335 4.465c.015.022.018.057.032.079.007.011.023.015.029.025l-.079.033c-.047-.122-.085-.037-.04-.186.016.019.046.032.058.05zm4.314-4.391c-.044.033-.061.048-.121.053-.066.005-.038-.039-.04-.041l.05-.058.083.021.028.025zm5.997 3.537c.021.046.104.034-.017.136-.005-.016-.052-.034-.058-.05l.075-.086zm-5.869-3.627l-.05.058-.029-.025-.029-.025c.017-.016.025-.043.05-.052.023-.001.045.042.057.044z"/><path d="M90.765 45.529l-.05.058-.029-.025-.029-.025c.017-.016.026-.043.05-.052.026.004.043.041.057.045h.001z"/><use href="#H"/><use href="#I"/><path d="M90.661 45.59l-.029-.025c.009-.009.016-.02.025-.029l.029.025-.025.029z"/><path d="M90.636 45.619l-.029-.025.025-.029.029.025c-.009.008-.015.021-.025.029z"/></g><path d="M96.744 49.203c.036.399-.206.796-.298 1.156-.076-.217-.076-.449-.13-.679-.626-2.706-3.526-4.291-6.129-3.321-1.675.624-2.99 2.271-3.026 4.077l.374-1.04c1.735-3.658 7.03-3.486 8.475.306.086.225.315.988.229 1.185-.064.149-.366.578-.477.723-.938 1.224-2.568 2.103-4.114 2.013.022-.041.134-.326.121-.348-.453-.143-.816-.348-1.113-.728-.357-.456-.424-1.059-.301-1.613l1.149.997.525-.605-1.322-1.147.325-.375 1.322 1.147.525-.605-1.12-.972c.337-.152.897-.212 1.249-.104.469.144.893.538 1.132.957.108-.093.74-.296.751-.404-.719-1.421-2.508-1.891-3.85-1.072l-.546-.474-.525.605.402.349-.325.375-.402-.349-.525.605.503.436c-.402 1.193-.215 2.361.775 3.199-.128.01-.301-.052-.425-.092-1.303-.426-2.382-1.343-3.012-2.563-.13-.251-.204-.537-.338-.773-.006-.01-.022-.014-.029-.025.071-.052.069-.111.089-.182.147-.524.237-.945.497-1.441 1.794-3.42 6.457-3.817 8.771-.742.349.463.587.986.794 1.523h-.001z" class="D"/><path d="M90.398 53.497c-.989-.838-1.177-2.007-.775-3.199l-.503-.436.525-.605.402.349.325-.375-.402-.349.525-.605.546.474c1.342-.819 3.131-.349 3.85 1.072-.011.108-.643.311-.751.404-.24-.419-.664-.813-1.132-.957-.352-.108-.911-.048-1.249.104l1.12.972-.525.605-1.322-1.147-.325.375 1.322 1.147-.525.605-1.149-.997c-.122.553-.056 1.156.301 1.613.297.38.66.585 1.113.728.014.022-.099.306-.121.348-.015.029-.057.056-.075.086l-.166.297c-.06.074-.371-.093-.457-.137a2.98 2.98 0 0 1-.552-.372z" class="E"/><path d="M96.446 50.359c-.078.304.04.789-.071 1.099-.012.032-.035.106-.077.086.001-.194.025-.388-.027-.579-.007-.027-.003-.057-.032-.079.085-.197-.143-.96-.229-1.185-1.445-3.792-6.74-3.964-8.475-.306-.16.336-.249.693-.374 1.04.036-1.806 1.351-3.453 3.026-4.077 2.603-.97 5.503.614 6.129 3.321.054.231.053.462.13.679v.001z" class="B"/><path d="M96.769 49.174l-.025.029c-.207-.536-.445-1.06-.794-1.523-2.314-3.074-6.977-2.678-8.771.742-.26.496-.349.917-.497 1.441-.02.071-.018.13-.089.182-.014-.022-.018-.057-.032-.079.082-.228.109-.471.183-.702.507-1.592 1.666-2.815 3.218-3.421.171-.066.555-.134.673-.223.01-.008.015-.021.025-.029l.025-.029.029.025c.002.002-.025.046.04.041.059-.005.077-.019.121-.053.01-.008.015-.021.025-.029l.025-.029.029.025c.005.004-.033.045.069.039.075-.004.13-.053.147-.054l.483-.035c.038-.001.182.007.244.009.044.001.088-.009.108-.008 2.277.121 4.058 1.56 4.765 3.68h0z" class="D"/><path d="M96.272 50.966c-.911 1.662-2.638 2.727-4.521 2.773-.064.002-.121.021-.177-.029.018-.03.06-.057.075-.086 1.545.091 3.176-.789 4.114-2.013.112-.145.413-.575.477-.723.029.022.025.051.032.079h0z" class="C"/></g><g clip-path="url(#C)"><path d="M144.895 15.016c-1.785 6.877-10.089 9.466-15.407 4.677-5.618-5.059-3.107-14.408 4.269-16.041 6.723-1.488 12.862 4.715 11.138 11.364h0zm-3.862 3.914c.245-.262.572-.492.819-.772 1.593-1.801 2.37-4.513 1.883-6.875-.071-.343-.348-.943-.372-1.198-.004-.042.072-.138.048-.228-.019-.073-.105-.079-.119-.099-.04-.056-.085-.109-.127-.164.119-.24-.097-.676-.361-.728-.015-.067-.038-.133-.054-.2-.004-.018.045-.074.03-.104-.027-.03-.069-.027-.101-.041-.018-.008-.037-.011-.055-.019l-.055-.019c-.005-.043-.012-.085-.017-.127-.004-.021.039-.067.03-.105-.027-.029-.069-.026-.102-.041-.018-.008-.037-.011-.055-.019l-.054-.019c-1.464-2.334-4.55-3.663-7.262-3.443-.377.031-.741.144-1.114.178-.234.022-.093.027-.237.162-.117.109-.286-.009-.445.064-.174.08-.364.208-.594.311l-.284-.07-.135.23-.073.036c-.259-.126-.405.002-.456.27-.053.031-.112.051-.146.072-.264-.154-.214.013-.333.086-.1.062-.275.037-.215.274a3.15 3.15 0 0 0-.74.658c-.204.232-.417.262-.494.329-.037.033-.444.693-.539.835-.189-.13-.278.107-.358.239-.073.122-.175.318-.232.449-.045.102-.134.189.04.216-.009.017-.01.037-.018.054-.224-.027-.221.078-.275.271l.109.037c-.053.118-.081.257-.129.38-.33-.07-.599.724-.294.869-.154.483-.209.596-.26 1.124-.15-.084-.143.04-.165.148-.038.187-.125.652.107.741-.002.084-.02.175-.019.236-.166.09-.214.624.034.617.008.198.078.283.052.563-.007.068-.072.152-.078.233-.003.052.077.076.081.114.027.23-.014.701.302.726.114.467.461 1.191.721 1.638-.151.255.015.221.112.376.066.105.026.3.285.244.739 1.103 2.165 2.163 3.434 2.682 2.645 1.081 5.87.667 8.079-1.142.212.111.149.002.2-.053h.001z" class="B"/><path d="M140.832 18.984c-2.208 1.809-5.434 2.223-8.078 1.142-1.27-.519-2.696-1.579-3.434-2.682l-.398-.62c-.26-.448-.606-1.171-.721-1.638-.085-.348-.135-.761-.305-1.073.026-.28-.044-.365-.052-.563l-.033-.617c-.001-.061.017-.153.019-.236l.058-.889c.051-.528.106-.641.259-1.124l.295-.869.129-.381c.048-.106.112-.204.165-.308.009-.017.01-.037.019-.054.164-.313.353-.612.55-.905l.538-.835c.077-.068.29-.097.494-.329a3.13 3.13 0 0 1 .74-.658l.548-.359c.034-.021.093-.04.146-.072l.456-.27.073-.036c.119-.059.278-.098.42-.161.229-.103.42-.232.593-.311.159-.073.328.045.445-.064l.091.091c-.252.321-.609.588-.886.912-1.343 1.576-2.008 3.606-1.86 5.669.014.196.026.473.113.646a4.53 4.53 0 0 0-.204.983c-.013.145-.069.675.069.716.111.033.365.042.51.063-.038.107.022.176.061.264 1.137 2.603 3.61 4.407 6.451 4.731-.237.181-.522.259-.793.368-.003.069.113.06.164.058.497-.022 1.107-.463 1.576-.528.555-.077 1.247.034 1.784-.244l.055.018c-.013.011-.006.044-.019.054-.019.017-.017.093-.037.109l-.001-.001z" class="C"/><g class="B"><path d="M142.352 8.228c-.193-.114-.506-.613-.696-.813a8.13 8.13 0 0 0-6.614-2.542c-.365.029-.719.129-1.084.145.018-.027.02-.076.037-.109.373-.035.737-.148 1.114-.178 2.712-.221 5.798 1.108 7.262 3.443l-.019.054h0zm-1.319 10.702l-.164-.055c.013-.01.006-.044.019-.054 2.557-2.197 3.551-5.504 2.421-8.753l.054.019c.024.255.302.856.372 1.198.488 2.362-.289 5.074-1.883 6.875-.246.279-.574.509-.819.772h0zM128.2 15.186c-.315-.026-.274-.496-.302-.726-.004-.038-.084-.062-.08-.114.006-.081.072-.165.077-.233.17.312.22.725.305 1.073zm-.054-4.502c-.305-.146-.036-.939.295-.87l-.295.87zm.608-1.613c-.174-.027-.086-.115-.041-.216a4.71 4.71 0 0 1 .233-.449c.08-.133.169-.369.358-.239l-.55.905h0zm-.926 3.626c-.231-.089-.145-.554-.107-.741.022-.108.015-.232.165-.148l-.058.889h0zm15.337-3.103l-.055-.019-.324-.655.018-.054c.264.052.48.488.361.728zm-13.846 7.85c-.259.057-.22-.139-.285-.244-.097-.154-.263-.121-.112-.376l.397.62z"/><path d="M127.843 13.55c-.248.006-.199-.527-.034-.617l.034.617zm3.234-7.206c-.061-.237.115-.212.215-.274.118-.073.068-.24.332-.086l-.547.36z"/><path d="M131.77 5.913c.051-.267.197-.396.456-.27-.15.074-.31.183-.456.27zm.529-.306l.135-.23.284.07c-.141.063-.3.102-.419.161zm11.064 4.478l-.055-.018c-.01-.028-.049-.083-.072-.146l.055-.163c.014.02.101.026.12.099.024.091-.052.186-.049.228h.001zm-14.793-.651l-.108-.037c.053-.192.05-.298.273-.271l-.165.308zm14.215-.514c-.012-.023-.11-.071-.159-.174-.067-.139.012-.109.015-.118l.11.037.054.2-.019.054h-.001z"/><path d="M143.237 9.922l-.126-.346.054.019.127.164-.055.163zm-9.279-4.903c-.022.033-.069.057-.092.09-.011.016-.007.041-.018.054l-.091-.091c.144-.135.003-.14.237-.162-.017.032-.018.082-.036.109zm8.593 3.519c-.072-.042-.103-.058-.143-.138-.044-.089.033-.076.035-.08l.109.037.018.127-.019.054zm-1.518 10.393c-.052.055.011.165-.2.054.019-.016.017-.092.037-.109l.163.055zm1.717-10.265l-.109-.037.019-.054.018-.054c.033.015.075.011.101.041.015.031-.032.087-.029.105z"/><path d="M142.552 8.357l-.109-.037.018-.055.018-.054c.033.015.075.011.102.041.01.038-.033.083-.03.105l.001.001zm.053.199l.019-.054c.017.007.037.011.054.019l-.018.054-.055-.019z"/><path d="M142.551 8.538l.018-.054.055.019-.019.054c-.016-.009-.038-.009-.054-.019zm-.144-.291l.018-.054.055.019-.019.054-.054-.019z"/><path d="M142.352 8.228l.018-.054.055.018-.018.054c-.017-.009-.039-.009-.055-.018z"/></g><path d="M140.833 18.803c-.537.277-1.229.166-1.785.244.26-.231.584-.363.875-.569 3.422-2.418 3.98-7.372 1.14-10.454-1.827-1.983-4.878-2.88-7.42-1.9.557-.023 1.105-.102 1.665-.071 6.099.335 8.88 7.829 4.409 12.01-.265.249-1.2 1.004-1.524.996-.245-.005-1.016-.181-1.283-.253-2.244-.612-4.402-2.387-5.157-4.596.07.007.531.002.554-.03-.058-.714.021-1.338.382-1.969.434-.759 1.237-1.196 2.08-1.34l-.737 2.174 1.145.388.848-2.5.709.24-.848 2.5 1.145.388.718-2.12c.405.384.808 1.132.858 1.685.066.737-.243 1.554-.69 2.127.192.098.835.864.992.818 1.575-1.815 1.21-4.581-.699-5.988l.35-1.033-1.144-.388-.259.761-.708-.24.258-.761-1.145-.388-.323.951c-1.895.119-3.419 1.047-4.024 2.908-.088-.174-.1-.451-.114-.646-.148-2.063.517-4.093 1.861-5.669.276-.324.633-.592.886-.912.01-.013.007-.039.018-.054.113.07.195.033.305.021.815-.093 1.454-.209 2.295-.129 5.8.553 9.014 6.839 6.041 11.825-.448.751-1.043 1.382-1.674 1.977h0z" class="D"/><path d="M131.215 12.39c.605-1.86 2.13-2.789 4.025-2.908l.322-.951 1.145.388-.258.761.709.24.258-.761 1.144.388-.35 1.033c1.909 1.407 2.274 4.173.7 5.988-.157.046-.801-.72-.993-.818.448-.574.756-1.39.69-2.127-.05-.553-.453-1.3-.857-1.684l-.719 2.12-1.145-.388.848-2.5-.709-.24-.848 2.5-1.144-.388.737-2.174c-.843.145-1.647.582-2.08 1.341-.361.632-.441 1.256-.383 1.97-.023.032-.484.037-.554.03-.05-.005-.111-.048-.163-.055l-.51-.063c-.138-.041-.082-.571-.069-.717a4.48 4.48 0 0 1 .204-.984z" class="E"/><path d="M139.049 19.046c-.469.065-1.079.506-1.576.528-.051.002-.167.012-.164-.058.271-.109.556-.187.793-.368.034-.026.078-.037.092-.09.324.007 1.259-.748 1.524-.996 4.471-4.181 1.69-11.674-4.408-12.01-.561-.031-1.11.048-1.666.071 2.542-.98 5.593-.083 7.42 1.9 2.84 3.082 2.282 8.036-1.14 10.454-.292.206-.616.338-.875.569h0z" class="B"/><path d="M140.888 18.821l-.055-.018c.631-.595 1.226-1.226 1.674-1.977 2.973-4.985-.241-11.272-6.041-11.825-.84-.08-1.48.035-2.295.129-.111.012-.193.05-.305-.021.022-.032.069-.057.091-.09.366-.016.72-.117 1.085-.145 2.512-.2 4.881.721 6.613 2.542.191.2.504.699.696.813.016.01.038.01.055.019l.054.019c-.006.018-.013.036-.018.054-.002.004-.079-.008-.035.08.041.08.071.096.143.138.016.01.037.01.055.019l.054.019-.018.054c-.003.009-.083-.021-.016.118.049.103.148.151.16.174.096.18.243.472.324.655.024.052.094.258.126.346.023.062.063.117.073.146 1.129 3.249.137 6.557-2.421 8.753h.001z" class="D"/><path d="M138.101 19.149c-2.84-.325-5.313-2.128-6.451-4.731-.038-.088-.099-.157-.061-.264.053.008.114.051.163.055.755 2.209 2.913 3.985 5.158 4.596.266.073 1.038.248 1.282.253-.013.053-.057.064-.091.09h0z" class="C"/></g><path d="M90.337 73.908c2.576 1.387 4.657 3.537 5.025 6.347.207 1.549-.23 3.156-1.069 4.462-.793 1.237-1.909 2.22-3.173 2.948-1.23.705-2.817 1.283-4.197.647-1.173-.543-1.736-1.815-2.012-3.017-.161-.728-.23-1.48-.276-2.231l-.092-2.624c-.034-1.618-.069-3.26-.379-4.855-.126-.624-.287-1.237-.517-1.838-.057-.197.644-2 .931-2 1.207-.023 4.645 1.584 5.749 2.173l.011-.012z" class="L"/><path d="M71.711 79.329c.391-3.942 2.369-7.375 6.784-7.826 3.932-.393 8.6 1.225 11.326 4 1.207 1.225 2.185 2.647 2.989 4.15.828 1.537 1.495 3.144 2.081 4.774.644 1.769 1.265 3.549 1.725 5.364s.736 3.711.506 5.572c-.184 1.561-.713 3.11-1.656 4.393-.966 1.33-2.357 2.278-3.967 2.74-1.656.474-3.438.451-5.105.035-1.782-.44-3.427-1.295-4.898-2.324-1.357-.948-2.599-2.058-3.702-3.271a23.14 23.14 0 0 1-2.84-3.861c-.816-1.387-1.495-2.855-2.012-4.37-.92-2.705-1.564-6.173-1.242-9.387l.011.012z" class="G"/><path d="M86.164 85.642c.402-1.353 2.415-2.763 3.242-2.925.425-.093.885-.093 1.299.069.414.173.759.543.839 1.017.081.497-.149 1.006-.483 1.353s-.77.555-1.196.763l-2.104 1.017c-.448.22-1.035.405-1.357.012-.333-.393-.379-.855-.241-1.306z" fill="#211d16"/><path d="M83.99 94.046l-9.394 8.612c.092.058 7.819 6.451 7.819 6.451l7.738-8.601-6.151-6.462h-.011z" class="G"/><path d="M74.022 72.498c6.37-4.451 15.292-.197 18.627 5.722l.242.462c.069.139.103.3.081.451 0 0 .046 2.185-5.174 3.699-5.22 1.503-6.278 3.988-6.278 3.988l-.069-.104a7.31 7.31 0 0 0-.345 1.769s.575 1.584.471 2.15c.127 0 .253.081.311.22.655 1.769-1.46 2.578-2.231 4.3-.736 1.618-.379 4.797-2.483 4.485-1.092-.162-1.656-1.04-2.047-1.931-1.805-4.15-3.518-8.45-4.197-12.913-.207-1.341-.655-2.566-.908-3.815-.678-3.399 1.38-6.612 4.001-8.439v-.046z" class="L"/><g fill="#5ec988"><path d="M122.923 82.381l4.254-.358c.897-1.225 2.058-2.035 3.334-2.185l18.708-3.757c1.839-3.098 4.346-5.237 7.175-5.873h.034l.517-.104 14.752-2.809c.552-.162 1.116-.266 1.679-.324h.012l.896-.046c7.796 0 14.12 9.711 14.12 21.687s-6.324 21.687-14.12 21.687c-.298 0-.597-.011-.896-.046h-.012c-.575-.058-1.127-.162-1.679-.324l-14.752-2.809a4.15 4.15 0 0 1-.517-.104h-.034c-2.829-.636-5.336-2.774-7.175-5.872l-18.708-3.758c-1.276-.162-2.426-.959-3.334-2.197l-4.254-.358c-2.242 0-4.048-2.786-4.048-6.219s1.817-6.219 4.048-6.219v-.012z"/><path d="M149.287 76.162a25.38 25.38 0 0 0-1.759 4.636c-.437 1.595-.713 3.225-.851 4.878-.138 1.665-.138 3.329 0 4.994a31.16 31.16 0 0 0 .805 4.936 32.52 32.52 0 0 0 1.553 4.739l.241.567c.092.208-.207.381-.299.173a32.93 32.93 0 0 1-1.679-4.763 32.16 32.16 0 0 1-.92-5.017c-.172-1.676-.206-3.376-.103-5.052a28.24 28.24 0 0 1 .759-4.994c.402-1.618.954-3.202 1.667-4.717l.276-.555c.104-.197.402-.023.299.173h.011zm-22.191 6.29c-.759 1.503-1.218 3.156-1.368 4.832-.149 1.688-.011 3.387.437 5.029a13.63 13.63 0 0 0 1.035 2.636c.103.197-.196.37-.299.173-.805-1.537-1.299-3.225-1.483-4.959a14.42 14.42 0 0 1 .368-5.156 13.39 13.39 0 0 1 1.023-2.728c.103-.197.402-.023.299.173h-.012z"/></g><use href="#J" fill="#297254"/><g class="G"><path d="M170.237 154.853c-3.265 5.607-15.062 10.578-29.803 5.144-14.74-5.445-40.013-24.45-40.013-24.45l28.895-30.796 40.91 50.102h.011z"/><path d="M107.814 85.041c.023-.728.184-1.561.874-1.954.759-.428 1.713-.116 2.311.428.322.289.564.636.782.994.23.393.437.798.609 1.202.357.844.598 1.722.771 2.613.138.728.218 1.468.264 2.22l.598-2.855c.437-1.734 1.012-3.433 1.702-5.075a33.73 33.73 0 0 1 2.46-4.74l.736-1.133c.23-.335.472-.671.782-.936.276-.243.621-.428.989-.451.322-.035.667.035.931.231.345.116.621.382.759.728.207.497.207 1.064.138 1.584-.011.127-.034.254-.057.37l.149-.3.92-1.538c.288-.416.609-.832 1.023-1.133.38-.289.851-.485 1.346-.439.471.035.885.3 1.184.647.529.624.609 1.376.517 2.127.414-.624.978-1.133 1.783-1.087.586.035 1.126.393 1.471.832.414.52.552 1.179.564 1.827.011.717-.104 1.433-.196 2.15l-.345 2.254-.885 4.508-1.058 4.451-.425 1.676 7.761 5.826c3.415 2.705 6.738 5.538 9.946 8.474a187.41 187.41 0 0 1 9.417 9.236c8.06 8.509 19.604 20.647 16.338 33.375-.448 1.745-1.253 3.456-2.575 4.751-1.334 1.306-3.128 2.058-5.002 2.289-4.231.532-8.152-1.503-11.498-3.78a53.26 53.26 0 0 1-9.095-7.838 52.9 52.9 0 0 1-4.829-6.046 3.7 3.7 0 0 1-.207-.22l-10.406-10.647-9.865-10.173c-2.978-3.225-5.784-6.681-7.761-10.589-1.817-3.607-2.978-7.641-2.76-11.687l-.092-5.954-.046-3.202-.023-1.584c0-.474-.023-.96-.011-1.445l.011.012z"/></g><path d="M92.614 82.381l4.254-.358c.897-1.225 2.058-2.035 3.335-2.185l18.707-3.757c1.84-3.098 4.346-5.237 7.175-5.873h.034l.518-.104 14.752-2.809c.552-.162 1.115-.266 1.679-.324h.011l.897-.046c7.796 0 14.119 9.711 14.119 21.687s-6.323 21.687-14.119 21.687a7.7 7.7 0 0 1-.897-.046h-.011c-.575-.058-1.127-.162-1.679-.324l-14.752-2.809a4.13 4.13 0 0 1-.518-.104h-.034c-2.829-.636-5.335-2.774-7.175-5.872l-18.707-3.758c-1.276-.162-2.426-.959-3.335-2.197l-4.254-.358c-2.242 0-4.047-2.786-4.047-6.219s1.817-6.219 4.047-6.219v-.012z" fill="#5ec988"/><path d="M118.979 76.162a25.23 25.23 0 0 0-1.759 4.636c-.437 1.595-.713 3.225-.851 4.878-.138 1.665-.138 3.329 0 4.994s.402 3.318.805 4.936a32.53 32.53 0 0 0 1.552 4.739l.241.567c.092.208-.207.381-.299.173a32.97 32.97 0 0 1-1.678-4.763 32.06 32.06 0 0 1-.92-5.017c-.173-1.676-.207-3.376-.104-5.052a28.34 28.34 0 0 1 .759-4.994c.403-1.618.954-3.202 1.667-4.717l.276-.555c.104-.197.403-.023.299.173h.012zm-22.191 6.29c-.759 1.503-1.219 3.156-1.368 4.832-.149 1.688-.011 3.387.437 5.029a13.63 13.63 0 0 0 1.035 2.636c.104.197-.195.37-.299.173-.805-1.537-1.299-3.225-1.483-4.959a14.42 14.42 0 0 1 .368-5.156 13.45 13.45 0 0 1 1.023-2.728c.103-.197.402-.023.299.173h-.011z" class="H I J K"/><use href="#J" x="-30.309" fill="#297254"/><path d="M152.323 164.679c-5.944 6.659-16.384 8.555-31.113 3.11-14.741-5.445-37.886-23.386-37.886-23.386l28.894-30.797 40.094 51.073h.011z" class="G"/><path d="M110.01 132.715l-3.702 5.063-3.955 4.844-4.209 4.635-4.427 4.382-4.645 4.127-.586.497c-.172.138-.414-.104-.241-.243l4.668-4.104 4.438-4.335 4.208-4.578 3.99-4.821 3.726-5.017.436-.635c.127-.185.426 0 .299.173v.012z" class="H"/><path d="M0 183.996c5.623-6.508 40.977-39.536 46.358-46.24 5.657-7.052 11.188-14.208 16.592-21.468l3.932-5.306c1.161-1.514 2.392-2.994 3.852-4.231 1.564-1.306 3.369-2.254 5.381-2.613 2.196-.381 4.45-.092 6.577.486 4.001 1.087 7.819 3.063 11.406 5.121 3.507 2.012 6.865 4.301 10.084 6.751 6.083 4.624 11.694 9.815 17.27 15.029 0 0-7.508 15.363-26.238 30.831l-5.508-4.867c-1.219 1.295-17.868 14.45-26.009 21.028-2.507 2.023-14.878 15.548-17.339 13.479l-15.858 5" fill="#fa7a35"/><path d="M90.717 91.296c.023-.751.184-1.607.874-2.023.759-.451 1.713-.116 2.311.451.322.301.563.659.782 1.04.23.405.437.821.609 1.249.356.867.598 1.78.77 2.705.138.763.219 1.526.264 2.289l.598-2.959c.437-1.792 1.012-3.549 1.702-5.26.69-1.699 1.518-3.341 2.461-4.913l.736-1.179c.23-.347.471-.694.782-.971.276-.254.62-.439.988-.474.322-.035.667.035.932.231.345.116.621.405.759.763.207.509.207 1.098.138 1.642-.012.127-.035.254-.058.393.058-.104.104-.208.15-.312l.919-1.584c.288-.439.61-.855 1.024-1.179.379-.3.851-.497 1.345-.462.471.035.885.312 1.184.671.529.647.61 1.422.518 2.196.414-.647.977-1.179 1.782-1.121.586.035 1.127.405 1.472.867.414.543.552 1.225.563 1.884.012.74-.103 1.491-.195 2.231l-.345 2.335-.886 4.67-1.058 4.613-.425 1.734 7.761 6.035c3.415 2.809 6.738 5.733 9.946 8.774 3.254 3.075 6.393 6.265 9.417 9.572 8.06 8.808 19.604 21.374 16.339 34.565-.449 1.815-1.254 3.572-2.576 4.913-1.334 1.352-3.127 2.138-5.002 2.37-4.231.543-8.152-1.549-11.498-3.919-3.323-2.347-6.381-5.087-9.095-8.116-1.759-1.965-3.368-4.057-4.829-6.254-.069-.069-.138-.15-.207-.219l-10.405-11.017-9.866-10.532c-2.978-3.34-5.783-6.924-7.761-10.97-1.817-3.734-2.978-7.919-2.76-12.104l-.092-6.173-.046-3.318-.023-1.641c0-.497-.023-.994-.011-1.491h.011z" class="G"/><g class="H"><path d="M129.672 154.992l-6.094-4.844-5.668-5.283-3.024-3.179c-.15-.162.092-.416.241-.243l5.427 5.526 5.841 5.086 3.438 2.636c.08.058.115.15.057.243-.046.069-.161.116-.241.058h.023zm24.353 6.369c1.645-5.017 1.196-10.496-.471-15.456-1.644-4.901-4.45-9.329-7.531-13.433-2.967-3.942-6.255-7.606-9.785-11.051-3.634-3.538-7.497-6.856-11.487-9.988-3.92-3.087-7.968-6-12.119-8.786l-1.471-.971c-.184-.127-.012-.428.172-.301 4.174 2.752 8.244 5.63 12.211 8.682 4.07 3.144 8.026 6.451 11.763 10 3.598 3.41 7.002 7.051 10.049 10.982 3.139 4.057 6.048 8.369 7.945 13.167 1.909 4.844 2.725 10.254 1.575 15.386-.138.625-.31 1.249-.517 1.862-.069.208-.403.115-.334-.093zm-43.313-77.938l-1.989 5.017-1.702 5.11-.827 2.936c-.058.22-.391.127-.334-.093l1.541-5.202 1.84-5.11 1.172-2.844c.035-.081.161-.104.242-.058.092.058.103.15.057.243zm-5.071.415l-1.828 4.497-1.609 4.59-.817 2.636c-.057.208-.391.127-.333-.093l1.495-4.67 1.724-4.589 1.07-2.543c.034-.081.16-.104.241-.058.092.046.103.15.057.243v-.012zM96.73 95.04a23.62 23.62 0 0 0-1.265 5.699l-.103 1.665c0 .219-.356.219-.345 0 .058-1.977.345-3.942.874-5.85l.506-1.607c.069-.208.402-.116.333.093z" class="I J K"/><path d="M153.358 72.035c1.437 1.873 2.507 4.011 3.3 6.231.793 2.208 1.334 4.52 1.61 6.855.264 2.115.276 4.243.057 6.37-.241 2.312-.713 4.613-1.437 6.832-.724 2.231-1.713 4.404-3.07 6.323l-.494.671c-.138.173-.38-.07-.242-.243 1.414-1.826 2.449-3.93 3.231-6.092a31.66 31.66 0 0 0 1.598-6.751c.265-2.081.311-4.185.115-6.266-.218-2.289-.69-4.555-1.402-6.74-.725-2.22-1.714-4.381-3.047-6.3l-.506-.682c-.138-.173.161-.347.299-.173l-.012-.035z"/><path d="M111.931 100.046l-.472 1.514c-.069.208-.402.127-.333-.092l.471-1.515c.069-.208.403-.127.334.093zm-21.042-5.884l.115 6.52.034 1.838c0 .219-.345.219-.345 0L90.579 96l-.035-1.838c0-.22.345-.22.345 0zm-2.931 8.809a11.48 11.48 0 0 1-3.38-1.307c-.196-.115-.023-.416.172-.3a10.91 10.91 0 0 0 3.3 1.271c.219.047.127.382-.092.336z" class="I J K"/></g><path d="M46.5 103c.734-1.07 8.364-9.651 9.371-10.47l2.494-2.03c8.704-7.086 10.667-2.176 11.92-8.048.081-.358.195-1.803.345-3.306-1.932 2.555-6.588 2.925-10.889.74-4.657-2.37-7.508-6.254-5.553-9.999 1.84-3.526 6.657-3.78 11.314-1.41 3.139 1.595 5.289 4.15 5.876 6.612 1-1.075 2.116-2.035 3.369-2.786a3.32 3.32 0 0 1 1.483.763c.494.439.874.983 1.196 1.549.092.162.184.324.311.474.402.462.977.751 1.38 1.225.414.486.747 1.052 1 1.642.517 1.191-2.104 2.358-1.886 3.63 1.288 7.468 3.277 15.236 2.679 22.727 0 0 .046 3.399-1.575 7.792-2.001 6.947-5.094 13.548-9.118 19.548-1.38 2.058-4.861.278-7.33.075l-.891-.075c-6.14-.532-7.577-1.665-10.498-4.173-2.783-2.393-3.634-.191-9.634-7.479-.89-1.081-1.568-2.095-2.077-3.037-2.818-5.212 3.361-9.077 6.714-13.963z" class="L"/><path d="M140.71 67.688c-2.587.96-4.691 2.948-6.243 5.191-1.886 2.717-3.082 5.896-3.76 9.121-.771 3.699-.874 7.56-.334 11.294.495 3.399 1.53 6.751 3.266 9.711 1.426 2.439 3.38 4.67 5.91 5.976.276.151.563.278.851.393.207.081.115.417-.092.336-2.633-1.075-4.737-3.133-6.313-5.48-1.908-2.844-3.104-6.162-3.737-9.526a33.36 33.36 0 0 1-.138-11.502c.564-3.399 1.668-6.751 3.496-9.676 1.495-2.416 3.541-4.601 6.128-5.826.288-.139.587-.254.874-.37.207-.081.299.254.092.335v.023zm30.16.059c-2.564 1.006-4.645 3.006-6.186 5.26-1.874 2.751-3.059 5.942-3.714 9.19-.747 3.688-.839 7.537-.276 11.26.506 3.352 1.541 6.671 3.266 9.595 1.425 2.416 3.369 4.636 5.875 5.942.276.151.563.278.851.393.207.081.115.417-.092.336-2.61-1.075-4.703-3.122-6.278-5.445-1.897-2.821-3.093-6.104-3.737-9.445a33.14 33.14 0 0 1-.184-11.421c.541-3.41 1.633-6.786 3.438-9.745 1.483-2.416 3.495-4.624 6.06-5.884a11.7 11.7 0 0 1 .873-.382c.207-.081.299.254.092.335l.012.011z" class="H"/><path d="M77.885 88.613c.552-1.306 2.024-2.035 3.403-1.861 2.668.347 5.473 5.052 3.449 7.341-.598.671-1.518.971-2.403.936-2.656-.116-5.565-3.769-4.461-6.416h.011z" class="G"/><path d="M79.805 88.937c-.242.671-.242 1.422.046 2.069.253.578.701 1.04 1.253 1.329.195.104.023.405-.172.301-.609-.324-1.115-.855-1.391-1.491-.322-.728-.345-1.561-.069-2.312.034-.093.115-.15.207-.127.081.023.15.127.127.208v.023z" class="H I J K"/><path d="M81.458 97.122a1.93 1.93 0 0 0 1.429-2.321 1.92 1.92 0 0 0-2.309-1.437 1.93 1.93 0 0 0-1.429 2.321 1.92 1.92 0 0 0 2.309 1.437z" fill="#efcb3a"/><g stroke-linecap="round"><path d="M78.701 146.841l10.831 9.884" stroke="#474747" stroke-width=".75" class="I"/><path d="M64 128.243s4.67 3.421 6.336-3.393M58.051 75.735s-3.461-1.711-2.139-5.688" stroke="#685c48" stroke-linejoin="round"/></g><g clip-path="url(#D)"><path d="M144 79.615c5.951-.522 10.25 6.567 7.874 13.192-2.509 7-10.622 7.628-13.91 1.117-2.997-5.936.282-13.803 6.035-14.309H144zm4.155 2.419c-.275-.149-.547-.387-.835-.532-1.862-.938-4.229-.802-5.977.428-.253.178-.656.638-.852.743-.033.017-.129-.024-.195.027-.052.042-.034.126-.046.147-.034.056-.065.116-.097.174-.223-.035-.511.311-.482.58-.049.036-.095.08-.144.116-.013.01-.071-.019-.091.006-.017.035-.003.074-.005.11-.002.019.001.039 0 .058v.058c-.033.019-.065.039-.097.058-.016.01-.064-.016-.092.005-.016.035-.002.074-.004.11-.002.019.001.039 0 .058v.058c-1.462 2.153-1.688 5.528-.78 8.046.126.35.314.66.442 1.006.081.216.047.08.193.174.118.076.07.276.171.404.11.14.263.28.407.466l.021.293.22.055.048.058c-.03.288.111.385.338.348.039.041.07.09.097.116-.052.302.067.2.157.29.077.076.104.251.276.117a2.57 2.57 0 0 0 .723.493c.24.12.321.314.395.365.037.025.671.199.81.244-.053.223.16.231.287.264a3.43 3.43 0 0 0 .419.077c.093.01.186.066.161-.109.016.003.033-.003.049 0 .038.223.121.185.289.174v-.116c.109.012.227-.005.337 0 .034.338.738.338.772 0 .425-.01.53.006.964-.116-.027.17.07.124.162.11.159-.024.552-.092.561-.342.067-.025.145-.038.192-.058.117.129.555.003.482-.232.156-.072.204-.166.434-.232.055-.016.14.019.206-.001.042-.013.04-.098.069-.114.175-.1.561-.214.496-.523.34-.26.823-.825 1.109-1.218.243.061.171-.087.269-.229.065-.096.231-.122.116-.351.678-1.062 1.137-2.767 1.208-4.146.146-2.874-1.053-5.819-3.087-7.342.031-.238-.039-.142-.097-.174l.001-.001z" class="B"/><path d="M148.251 82.209c2.035 1.523 3.234 4.468 3.087 7.342-.071 1.38-.529 3.084-1.207 4.146l-.386.58c-.286.394-.768.958-1.109 1.218-.254.194-.568.376-.771.638-.229.066-.278.16-.433.232l-.482.232c-.049.02-.126.033-.193.058l-.723.232c-.434.123-.538.106-.964.116h-.771c-.111-.005-.229.012-.338 0-.097-.011-.192-.041-.289-.058-.016-.003-.032.003-.048 0-.293-.055-.582-.139-.868-.232l-.81-.244c-.074-.051-.155-.245-.395-.365a2.54 2.54 0 0 1-.722-.493l-.434-.406c-.026-.026-.057-.076-.097-.116l-.337-.348-.048-.058c-.079-.095-.153-.234-.241-.348-.144-.186-.298-.326-.408-.466-.101-.128-.053-.328-.171-.404l.048-.116c.323.137.632.391.965.55a5.59 5.59 0 0 0 5.011-.059c.152-.077.369-.178.483-.317.285-.004.561-.045.837-.124.12-.034.556-.152.552-.298-.004-.116-.065-.362-.088-.507.096.001.134-.078.194-.144 1.764-1.928 2.532-4.872 2.024-7.689.207.167.346.415.506.638.056-.019.017-.127.002-.175-.152-.467-.667-.906-.845-1.333-.211-.505-.31-1.202-.675-1.624v-.058c.012.009.036-.009.048 0 .018.013.079-.013.097 0l-.001.001z" class="C"/><g class="B"><path d="M139.286 84.239c-.039.22-.351.68-.459.927-.982 2.243-1.075 4.803-.238 7.136l.408.988c-.026-.009-.067.006-.097 0-.128-.345-.316-.656-.442-1.005-.908-2.518-.683-5.893.78-8.046h.048 0zm8.869-2.204v.174c-.012-.009-.037.009-.049 0-2.437-1.73-5.336-1.608-7.615.522v-.058c.196-.105.599-.565.852-.743 1.748-1.23 4.115-1.366 5.977-.428.288.145.56.383.835.532v.001zm.482 13.46c.065.309-.321.422-.496.523-.029.017-.027.101-.069.114-.066.02-.151-.015-.206.001.203-.263.517-.444.771-.638zm-3.567 1.509c-.034.338-.737.338-.771 0h.771zm-1.446-.058c.025.175-.068.119-.161.109-.12-.013-.303-.046-.42-.077-.127-.033-.339-.042-.287-.264l.868.232v.001zm3.133-.29c-.008.25-.402.318-.561.342-.091.014-.188.06-.162-.11l.723-.232h0zm-6.604-13.635v.058l-.434.522h-.048c-.029-.269.259-.615.482-.58zm9.978 10.676c.115.229-.051.255-.117.351-.097.142-.026.29-.269.229l.386-.58z"/><path d="M147.432 96.366c.072.235-.366.361-.482.232l.482-.232zm-6.604-.755c-.172.134-.199-.041-.276-.117-.09-.089-.209.012-.157-.289l.433.406z"/><path d="M140.298 95.089c-.226.037-.368-.06-.337-.348.099.119.229.237.337.348zm-.386-.406l-.219-.055-.022-.294c.089.115.163.253.241.348zm.579-12.01v.058c-.02.019-.054.074-.097.116h-.144c.012-.02-.007-.105.046-.147.066-.052.163-.01.195-.027v-.001zm3.47 14.331v.116c-.167.011-.25.049-.289-.174l.289.058z"/><path d="M139.719 83.601c-.015.019-.026.129-.095.209-.092.109-.09.023-.098.023v-.116l.145-.116h.048 0zm.676-.754l-.241.232v-.058l.096-.174h.145zm-1.398 10.444c.032.011.064.047.096.058.016.005.034-.006.048 0l-.048.116c-.146-.094-.112.042-.192-.174.03.006.07-.009.096 0h0zm.482-9.341c-.015.082-.019.117-.072.181-.059.071-.069-.007-.073-.007v-.116l.097-.058h.048v.001z"/><use href="#K"/><path d="M139.527 83.718v.116h-.048-.049c.003-.036-.011-.075.006-.11.02-.024.077.004.09-.006h.001zm-.193.29v.116h-.049-.048c.003-.036-.011-.075.005-.11.028-.022.075.005.092-.005h0z"/><path d="M139.479 83.891h-.049c.001-.019-.001-.039 0-.058h.049v.058z"/><path d="M139.478 83.95h-.048v-.058h.048c-.002.019.004.039 0 .058z"/><use href="#L"/><path d="M139.286 84.24h-.048v-.058h.048c-.003.019.003.04 0 .058z"/></g><path d="M148.107 82.267c.365.422.463 1.119.675 1.624-.254-.173-.446-.439-.688-.651-2.847-2.484-6.938-1.413-8.623 2.295-1.085 2.386-.976 5.588.489 7.697l-.505-1.566c-1.378-5.929 3.832-11.009 8.364-8.095.269.173 1.122.821 1.204 1.133.061.235.13 1.028.144 1.306.119 2.341-.711 4.975-2.265 6.411-.014-.069-.142-.508-.173-.52-.552.287-1.07.413-1.67.273-.721-.169-1.285-.794-1.627-1.552h1.928v-1.218h-2.218v-.754h2.218v-1.218h-1.88c.196-.511.682-1.137 1.109-1.364.568-.302 1.301-.271 1.877-.03.026-.215.463-1.078.383-1.212-1.868-.915-3.97.328-4.574 2.606h-.916v1.218h.675v.754h-.675v1.218h.843c.606 1.77 1.755 2.925 3.399 2.901-.115.139-.332.241-.484.317-1.601.809-3.395.831-5.01.059-.333-.159-.642-.413-.965-.55-.014-.006-.033.005-.048 0 .025-.13-.026-.197-.066-.298-.294-.748-.558-1.321-.721-2.149-1.125-5.715 3.009-10.817 7.776-9.593.718.184 1.381.548 2.024.958h0z" class="D"/><path d="M145.6 93.523c-1.642.024-2.793-1.131-3.398-2.901h-.844v-1.218h.675v-.754h-.675v-1.218h.916c.605-2.278 2.707-3.521 4.575-2.606.079.135-.357.997-.383 1.212-.577-.242-1.31-.272-1.878.03-.426.226-.912.853-1.109 1.363h1.88v1.218h-2.217v.754h2.217v1.218h-1.928c.343.757.907 1.383 1.627 1.552.6.14 1.118.014 1.67-.273.032.012.16.451.173.52.01.049-.008.121 0 .174l.088.507c.004.145-.432.263-.552.298a3.17 3.17 0 0 1-.837.124z" class="E"/><path d="M148.781 83.891c.178.427.694.866.845 1.333.016.048.055.156-.001.175-.16-.223-.299-.47-.507-.638-.029-.024-.05-.062-.096-.058-.082-.311-.935-.96-1.204-1.133-4.532-2.914-9.742 2.166-8.364 8.095.126.545.337 1.043.505 1.566-1.465-2.109-1.574-5.312-.489-7.698 1.685-3.708 5.776-4.779 8.623-2.295.243.212.434.478.688.651h0z" class="B"/><path d="M148.107 82.209v.058c-.643-.41-1.306-.774-2.024-.958-4.768-1.224-8.901 3.877-7.777 9.593.163.828.428 1.401.722 2.149.039.101.091.167.065.298-.032-.011-.064-.047-.096-.058-.112-.344-.287-.649-.408-.988-.837-2.333-.743-4.893.238-7.135.108-.246.421-.707.459-.927.003-.019-.002-.039 0-.058v-.058c.016 0 .032 0 .048 0 .004 0 .015.078.073.007.053-.064.058-.099.072-.181.003-.019-.003-.039 0-.058v-.058h.048c.008 0 .006.086.098-.023.069-.08.08-.19.095-.209a11.06 11.06 0 0 1 .434-.522c.035-.039.18-.173.241-.232.043-.042.076-.098.096-.116 2.28-2.13 5.179-2.253 7.616-.522v-.001z" class="D"/><path d="M149.119 84.762c.508 2.816-.26 5.761-2.024 7.689-.06.066-.098.145-.194.144-.008-.053.01-.125 0-.174 1.554-1.436 2.384-4.07 2.265-6.411-.014-.278-.082-1.071-.144-1.306.046-.004.067.034.097.058v-.001z" class="C"/></g><g clip-path="url(#E)"><path d="M174.631 78.563c5.952-.523 10.25 6.566 7.875 13.192-2.509 6.999-10.623 7.628-13.911 1.116-2.997-5.936.282-13.803 6.036-14.309h0zm4.155 2.42c-.275-.149-.546-.387-.835-.532-1.862-.938-4.229-.802-5.976.428-.254.178-.656.638-.853.743-.032.017-.129-.024-.194.027-.053.042-.034.126-.047.147-.034.056-.064.116-.096.174-.223-.035-.512.312-.482.58-.049.036-.095.08-.145.116-.013.01-.07-.019-.09.006-.017.035-.003.074-.006.11-.001.019.001.039 0 .058v.058l-.096.058c-.016.01-.064-.016-.092.005-.016.035-.002.074-.005.11-.001.019.001.039 0 .058v.058c-1.461 2.153-1.687 5.528-.78 8.046.126.35.314.66.443 1.005.08.216.046.08.192.174.119.076.07.276.171.404.11.14.264.28.408.466l.021.294.22.055.048.058c-.03.288.111.385.338.348.039.041.07.09.096.116-.051.302.068.2.158.289.076.076.103.251.276.117a2.54 2.54 0 0 0 .723.493c.24.12.32.314.395.365.036.025.671.199.809.244-.052.223.16.231.287.264.117.03.3.064.42.077.093.01.186.066.161-.109.015.003.032-.003.048 0 .039.223.122.185.29.174v-.116c.108.012.226-.005.337 0 .034.338.737.338.771 0 .426-.01.53.006.964-.116-.026.17.071.124.163.11.159-.024.552-.092.56-.342.067-.025.145-.038.193-.058.116.129.554.003.482-.232.155-.072.204-.166.433-.232.056-.016.141.019.207-.001.042-.013.04-.098.069-.114.175-.101.561-.214.496-.523.34-.26.822-.825 1.108-1.218.244.061.172-.087.269-.229.066-.096.232-.122.117-.351.678-1.062 1.137-2.766 1.207-4.146.146-2.874-1.052-5.819-3.087-7.342.032-.238-.038-.142-.096-.174v-.001z" class="B"/><path d="M178.883 81.156c2.034 1.523 3.233 4.468 3.087 7.342-.071 1.38-.53 3.084-1.208 4.146l-.385.58c-.286.393-.769.958-1.109 1.218-.254.194-.568.375-.771.638-.23.066-.278.16-.434.232l-.482.232c-.048.02-.126.033-.192.058l-.723.232c-.434.123-.539.106-.964.116h-.772c-.11-.005-.228.012-.337 0-.098-.011-.192-.041-.289-.058-.016-.003-.033.003-.049 0a7.12 7.12 0 0 1-.867-.232l-.81-.244c-.074-.051-.155-.245-.395-.365-.331-.165-.429-.231-.723-.494l-.433-.406c-.027-.026-.057-.076-.097-.116l-.338-.348-.048-.058c-.079-.095-.152-.234-.241-.348-.144-.186-.297-.326-.407-.466-.101-.128-.053-.328-.171-.404l.048-.116c.323.137.632.391.965.55 1.615.772 3.409.75 5.01-.059.152-.077.369-.178.484-.317.284-.004.561-.045.837-.124.119-.034.556-.152.551-.298-.003-.116-.065-.362-.087-.507.095.001.134-.078.194-.144 1.764-1.928 2.531-4.872 2.023-7.689.208.167.347.415.507.638.055-.019.017-.127.001-.175-.151-.467-.667-.906-.845-1.333-.211-.505-.309-1.202-.675-1.624v-.058c.012.009.036-.009.049 0s.078-.013.096 0v.001z" class="C"/><g class="B"><path d="M169.917 83.187c-.038.22-.351.681-.458.927-.982 2.243-1.075 4.802-.239 7.135l.408.988c-.026-.009-.066.006-.096 0-.129-.345-.317-.656-.443-1.005-.907-2.518-.682-5.893.78-8.046h.048v.001zm8.869-2.204v.174c-.011-.009-.036.009-.048 0-2.437-1.73-5.336-1.608-7.616.522v-.058c.197-.105.6-.565.853-.743 1.747-1.23 4.114-1.366 5.976-.428.289.145.56.383.835.532v.001zm.482 13.46c.065.309-.32.423-.495.523-.029.017-.027.101-.07.114-.065.02-.15-.015-.206.001.203-.263.517-.444.771-.638zm-3.566 1.508c-.034.338-.738.338-.772 0h.772zm-1.447-.058c.026.175-.068.118-.161.109a3.32 3.32 0 0 1-.419-.077c-.127-.033-.34-.042-.287-.264a7.12 7.12 0 0 0 .867.232h0zm3.134-.29c-.009.25-.402.318-.561.342-.092.014-.189.06-.162-.11l.723-.232v-.001zm-6.604-13.634v.058l-.434.522h-.048c-.03-.268.259-.615.482-.58zm9.977 10.675c.115.229-.051.255-.116.351-.097.142-.026.29-.269.229l.385-.58z"/><path d="M178.063 95.313c.072.235-.365.361-.482.232l.482-.232zm-6.603-.754c-.173.134-.2-.041-.276-.117-.09-.089-.209.012-.158-.289l.434.406z"/><path d="M170.93 94.037c-.227.037-.368-.06-.338-.348.099.119.229.237.338.348z"/><path d="M170.544 93.63l-.22-.055-.021-.293.241.348zm.578-12.009v.058c-.02.019-.053.074-.096.116h-.145c.012-.02-.006-.105.047-.147.066-.052.162-.01.194-.027h0zm3.471 14.33v.116c-.168.011-.251.049-.289-.174l.289.058zm-4.242-13.402c-.015.019-.027.128-.095.209-.092.109-.09.023-.098.023v-.116l.144-.116h.048l.001.001z"/><path d="M171.026 81.794l-.241.232v-.058l.097-.174h.144zm-1.398 10.444c.033.01.064.047.097.058.015.005.034-.006.048 0l-.048.116c-.147-.094-.113.043-.193-.174.031.006.071-.009.097 0l-.001-.001zm.482-9.341c-.014.082-.018.117-.071.181-.059.071-.07-.007-.073-.007v-.116l.096-.058h.049l-.001.001zm8.676-1.915c.058.031.128-.064.097.174-.018-.013-.078.013-.097 0v-.174z"/><path d="M170.158 82.665v.116h-.048-.048c.003-.036-.012-.075.005-.11.021-.024.078.004.091-.006h0zm-.193.29v.116h-.048-.048c.003-.036-.011-.075.004-.11.028-.021.076.005.092-.005v-.001z"/><path d="M170.11 82.839h-.048c.001-.019-.002-.039 0-.058h.048v.058z"/><path d="M170.11 82.897h-.048v-.058h.048c-.002.019.003.04 0 .058zm-.193.232h-.048c.001-.019-.001-.039 0-.058h.048v.058z"/><path d="M169.917 83.187h-.048v-.058h.048c-.002.019.004.04 0 .058z"/></g><path d="M178.738 81.214c.366.423.464 1.119.675 1.625-.253-.173-.445-.439-.688-.651-2.846-2.484-6.937-1.413-8.623 2.295-1.084 2.386-.975 5.588.49 7.698l-.506-1.566c-1.378-5.929 3.833-11.009 8.364-8.095.27.173 1.123.821 1.204 1.133.062.235.13 1.028.145 1.306.118 2.34-.712 4.975-2.265 6.411-.014-.069-.142-.508-.174-.52-.552.287-1.07.413-1.67.273-.72-.168-1.284-.794-1.627-1.552h1.928v-1.218h-2.217v-.754h2.217v-1.218h-1.879c.196-.511.682-1.138 1.108-1.364.568-.302 1.301-.272 1.878-.03.026-.215.462-1.078.383-1.212-1.868-.915-3.97.328-4.575 2.606h-.916v1.218h.675v.754h-.675v1.218h.844c.605 1.77 1.755 2.925 3.398 2.901-.114.139-.331.241-.483.317-1.601.809-3.395.831-5.011.059-.332-.159-.641-.413-.964-.55-.014-.006-.033.005-.049 0 .026-.13-.026-.197-.065-.297-.294-.748-.559-1.321-.722-2.149-1.124-5.715 3.009-10.817 7.777-9.593.718.184 1.38.548 2.024.958h-.001z" class="D"/><path d="M176.232 92.47c-1.643.024-2.793-1.131-3.399-2.901h-.843v-1.218h.675v-.754h-.675v-1.218h.916c.604-2.278 2.706-3.521 4.574-2.606.08.135-.356.997-.382 1.212-.577-.242-1.31-.272-1.878.03-.427.226-.912.853-1.109 1.364h1.88v1.218h-2.217v.754h2.217v1.218h-1.928c.342.757.907 1.383 1.627 1.552.6.14 1.118.014 1.67-.272.031.012.16.45.173.52.01.049-.008.121 0 .174l.087.507c.005.145-.432.263-.551.298-.276.079-.553.12-.837.124z" class="E"/><path d="M179.413 82.839c.178.427.693.866.845 1.333.015.048.054.156-.002.175-.159-.223-.299-.47-.506-.638-.03-.024-.05-.062-.097-.058-.082-.311-.934-.96-1.203-1.133-4.532-2.914-9.742 2.165-8.365 8.095.127.545.337 1.043.506 1.566-1.465-2.109-1.575-5.312-.49-7.698 1.686-3.708 5.777-4.779 8.623-2.295.243.212.435.478.688.651l.001.001z" class="B"/><path d="M178.738 81.156v.058c-.643-.41-1.306-.774-2.024-.958-4.767-1.224-8.901 3.877-7.776 9.593.162.828.427 1.401.721 2.149.04.101.091.167.066.297-.032-.011-.064-.047-.097-.058-.111-.343-.287-.649-.408-.988a9.67 9.67 0 0 1 .239-7.135c.108-.246.42-.707.458-.927.004-.019-.002-.039 0-.058v-.058c.016 0 .033.001.049 0 .004 0 .014.078.073.007.053-.065.057-.099.071-.181.003-.019-.002-.039 0-.058v-.058h.048c.009 0 .006.085.098-.023.069-.08.081-.19.096-.209.117-.15.309-.385.433-.522.035-.039.18-.173.241-.232.043-.042.076-.098.097-.116 2.28-2.13 5.178-2.253 7.615-.522v-.001z" class="D"/><path d="M179.75 83.71c.508 2.816-.26 5.761-2.023 7.689-.06.066-.099.145-.194.144-.008-.053.01-.125 0-.174 1.554-1.436 2.384-4.07 2.265-6.411-.014-.278-.082-1.071-.144-1.306.046-.004.066.034.096.058h0z" class="C"/></g><g clip-path="url(#F)"><path d="M23.551 86.434c8.523-2.965 17.112 3.981 15.804 12.975-1.382 9.501-13.028 13.442-19.953 6.803-6.313-6.052-4.09-16.911 4.148-19.778h.001zm6.858 1.319c-.45-.074-.924-.257-1.393-.321-3.025-.413-6.438.679-8.589 2.859-.312.316-.75 1.033-1.003 1.238-.042.034-.196.021-.275.109-.063.072-.009.167-.021.197-.031.082-.056.167-.084.249-.337.044-.645.579-.515.895-.06.063-.113.134-.173.198-.016.017-.109.005-.131.043-.013.049.02.091.028.136.004.024.014.047.019.071l.019.071-.122.109c-.02.018-.098.005-.132.042-.012.049.021.091.029.136.004.024.014.047.019.071l.019.071c-1.433 3.192-.661 7.388 1.485 10.098.298.376.674.681.974 1.051.188.231.094.078.338.136.198.046.192.308.381.424.207.128.476.238.747.408l.127.349.339-.019.089.052c.05.362.288.425.607.291.07.034.132.082.179.104.024.387.164.217.325.29.136.063.233.266.441.035.514.204.68.245 1.217.317.39.052.571.257.696.29.062.016 1.045-.02 1.262-.02-.004.292.309.219.505.21.181-.009.46-.04.638-.071.139-.024.294.008.2-.195.024-.003.046-.017.071-.019.129.256.238.177.48.098l-.038-.141c.162-.027.329-.095.492-.132.16.399 1.187.123 1.126-.302.619-.178.776-.199 1.371-.518.017.217.143.123.273.07.224-.092.777-.328.707-.636.09-.057.199-.103.262-.146.212.111.811-.214.628-.471.203-.149.244-.282.558-.452.076-.041.212-.032.301-.082.058-.033.027-.135.064-.166.223-.191.75-.48.554-.831.412-.45.933-1.326 1.222-1.916.375-.021.223-.173.318-.384.064-.143.299-.24.056-.473.644-1.558.758-3.812.411-5.519-.724-3.555-3.434-6.671-6.903-7.728-.032-.302-.103-.158-.198-.174v-.001z" class="B"/><path d="M30.607 87.927c3.468 1.057 6.18 4.172 6.903 7.728.347 1.707.233 3.961-.411 5.519a17.75 17.75 0 0 1-.374.857c-.289.591-.81 1.466-1.222 1.916-.308.336-.708.68-.918 1.079-.314.17-.354.304-.558.452s-.447.348-.628.471c-.064.043-.173.089-.262.146a16.91 16.91 0 0 1-.98.565c-.594.319-.752.339-1.371.519-.419.121-.706.206-1.126.302-.163.037-.33.104-.493.132-.146.024-.294.025-.441.042-.024.003-.046.016-.07.019-.446.048-.895.058-1.343.057-.218 0-1.201.036-1.262.02-.125-.033-.306-.238-.696-.289-.537-.072-.702-.114-1.217-.318a15.95 15.95 0 0 1-.766-.325c-.047-.022-.108-.07-.179-.104-.194-.093-.423-.185-.607-.291l-.09-.052c-.146-.085-.299-.225-.465-.33-.271-.17-.541-.28-.747-.407-.189-.117-.184-.379-.381-.425l.033-.161c.516.04 1.051.229 1.589.293 2.612.308 5.224-.422 7.299-2.033.197-.153.481-.36.602-.575a5.71 5.71 0 0 0 1.183-.478c.163-.089.762-.403.708-.578-.043-.141-.213-.416-.293-.583.139-.036.17-.148.236-.251 1.948-3.037 2.109-6.921.448-10.151.358.122.642.369.948.579.075-.045-.017-.162-.055-.214-.374-.509-1.27-.842-1.669-1.291-.473-.532-.844-1.342-1.516-1.713l-.019-.071c.02.006.05-.025.071-.019.031.009.111-.047.141-.038v.002z" class="C"/><g class="B"><path d="M18.175 93.907c.015.283-.291.966-.368 1.308-.702 3.115-.004 6.266 1.979 8.778.288.365.643.669.918 1.043-.041-.001-.095.033-.141.038-.3-.37-.676-.675-.974-1.051-2.146-2.71-2.918-6.906-1.485-10.098l.07-.019v.001zm12.234-6.154l.057.212c-.02-.006-.05.025-.071.019-4.124-1.152-8.318.131-10.953 3.616l-.019-.071c.253-.205.692-.922 1.003-1.238 2.151-2.181 5.564-3.273 8.589-2.859.469.064.943.247 1.393.321v.001zm5.094 16.194c.195.351-.331.64-.554.831-.037.032-.006.133-.064.166-.089.05-.225.04-.301.082.21-.399.611-.743.918-1.079zm-4.717 3.232c.061.425-.967.701-1.126.302l1.126-.302zm-2.131.496c.094.203-.061.17-.2.195a5.93 5.93 0 0 1-.638.071c-.196.009-.509.082-.505-.21l1.343-.057v.001zm4.481-1.58c.069.308-.483.544-.707.636-.129.053-.256.148-.273-.07l.98-.565v-.001zm-14.092-14.01l.019.071-.463.805-.07.019c-.131-.315.177-.85.515-.895zm18.055 9.088c.242.234.008.33-.056.473-.095.212.057.363-.318.384l.374-.857z"/><path d="M34.027 105.478c.182.258-.416.583-.628.471l.628-.471zm-9.891 1.666c-.208.231-.305.028-.441-.034-.161-.073-.301.097-.325-.29l.766.324z"/><path d="M23.192 106.717c-.319.133-.557.071-.607-.292.183.106.412.198.607.292zm-.696-.344l-.339.02-.127-.349c.166.104.32.245.465.329zm-3.072-14.844l.019.071c-.023.03-.053.111-.103.179l-.211.056c.011-.029-.043-.125.021-.197.079-.089.234-.076.275-.109v-.001zm9.743 16.084l.038.141c-.241.079-.35.157-.479-.098l.441-.043zM18.6 92.961c-.016.029.003.167-.071.291-.099.168-.124.064-.136.067l-.038-.141.173-.198.07-.019.001.001z"/><path d="M19.34 91.778l-.276.377-.019-.071.084-.249.211-.056zm1.364 13.258c.051 0 .109.032.16.033.024 0 .048-.02.071-.019l-.033.16c-.244-.057-.15.096-.338-.136.046-.004.099-.038.14-.038zm-2.342-11.558c.006.105.011.149-.046.248-.063.109-.104.019-.109.02l-.038-.142.122-.108.07-.018zm12.047-5.726c.095.016.166-.128.198.174-.03-.009-.109.047-.141.038l-.057-.212zm-12.053 5.425l.038.141-.071.019-.071.019c-.008-.045-.041-.087-.028-.136.022-.038.115-.027.131-.043z"/><path d="M18.169 93.605l.038.142-.071.02-.07.019c-.008-.045-.041-.087-.029-.136.034-.037.111-.024.132-.042v-.002zm.174-.197l-.071.019c-.005-.024-.015-.047-.019-.071l.07-.019.019.071z"/><path d="M18.361 93.478l-.07.019-.019-.071.071-.019c.002.024.018.047.019.071zm-.205.358l-.07.019c-.005-.024-.015-.047-.019-.071l.071-.019.019.071z"/><path d="M18.175 93.906l-.07.019-.019-.071.07-.019c.003.023.018.047.019.071z"/></g><path d="M30.415 88.054c.672.371 1.042 1.181 1.516 1.713-.427-.112-.794-.36-1.217-.523-4.968-1.909-10.593.995-11.846 6.168-.806 3.328.398 7.183 3.226 9.177-.417-.572-.887-1.095-1.249-1.709-3.947-6.677 2.007-14.899 9.576-13.126.45.105 1.907.56 2.128.908.167.262.525 1.201.637 1.533.937 2.802.584 6.333-1.218 8.689-.042-.079-.373-.563-.423-.565-.713.565-1.428.922-2.35.986-1.107.076-2.136-.464-2.883-1.252l2.816-.755-.397-1.483-3.238.868-.246-.918 3.239-.868-.397-1.483-2.745.736c.12-.699.626-1.651 1.175-2.094.732-.59 1.812-.84 2.733-.771-.032-.272.323-1.492.164-1.626-3.027-.383-5.692 1.953-5.832 4.962l-1.338.358.397 1.483.986-.264.246.918-.986.264.397 1.483 1.232-.33c1.462 1.918 3.517 2.872 5.91 2.2-.122.215-.406.423-.602.576-2.075 1.611-4.688 2.34-7.299 2.032-.538-.063-1.072-.252-1.589-.292-.022-.002-.046.019-.07.019-.005-.169-.102-.23-.193-.337-.673-.795-1.246-1.389-1.755-2.333-3.506-6.517.867-14.344 8.229-14.72 1.109-.057 2.195.127 3.269.374v.001z" class="D"/><path d="M30.425 102.735c-2.392.672-4.448-.284-5.91-2.201l-1.232.33-.397-1.483.986-.264-.246-.918-.986.264-.397-1.483 1.338-.359c.14-3.009 2.805-5.345 5.832-4.962.16.133-.196 1.353-.164 1.625-.922-.069-2.002.182-2.733.771-.549.442-1.054 1.395-1.175 2.093l2.746-.736.397 1.483-3.238.868.246.918 3.238-.868.397 1.483-2.816.755c.747.788 1.776 1.329 2.883 1.252.922-.064 1.637-.421 2.35-.985.05.001.38.485.423.564.03.056.027.15.057.212l.293.582c.054.175-.545.49-.708.578-.377.204-.768.362-1.182.479z" class="E"/><path d="M31.93 89.767c.399.45 1.295.783 1.669 1.291.038.053.131.169.055.214-.306-.209-.59-.455-.948-.578-.051-.018-.094-.056-.16-.033-.221-.347-1.678-.802-2.128-.908-7.569-1.773-13.522 6.448-9.576 13.126.363.614.832 1.138 1.249 1.708-2.828-1.994-4.032-5.848-3.226-9.177 1.253-5.173 6.878-8.077 11.846-6.167.424.162.791.412 1.217.523h.001z" class="B"/><path d="M30.396 87.983l.019.071c-1.073-.247-2.16-.43-3.269-.374-7.362.376-11.736 8.203-8.23 14.719.508.945 1.081 1.539 1.755 2.334.091.107.188.168.193.336-.05-.001-.109-.032-.16-.033-.275-.374-.631-.677-.918-1.042-1.983-2.513-2.681-5.665-1.979-8.779.078-.342.384-1.025.368-1.308-.001-.024-.016-.046-.019-.071l-.019-.071.07-.019c.006-.002.047.089.109-.02.056-.099.052-.143.045-.248-.001-.024-.016-.047-.019-.071l-.019-.071.071-.019c.012-.003.036.102.136-.067.074-.124.055-.263.071-.291a15.06 15.06 0 0 1 .463-.805c.039-.061.207-.281.276-.377.049-.068.08-.149.103-.179 2.636-3.485 6.829-4.769 10.953-3.616v-.001z" class="D"/><path d="M32.707 90.695c1.66 3.229 1.499 7.114-.448 10.15-.066.103-.096.215-.236.251-.029-.061-.027-.156-.057-.211 1.801-2.356 2.154-5.887 1.218-8.69-.111-.333-.47-1.271-.637-1.533.066-.023.108.016.16.033h0z" class="C"/></g><g clip-path="url(#G)"><path d="M32.142 24.697c6.518-3.014 13.864 1.816 13.53 9.041-.353 7.633-9.267 11.663-15.271 6.946-5.473-4.3-4.56-13.073 1.74-15.987h.001zm5.534.509c-.362-.024-.752-.132-1.128-.146-2.428-.091-5.046 1.041-6.579 2.936-.222.275-.514.877-.698 1.059-.03.03-.154.032-.209.108-.044.062.006.133-.001.157-.018.067-.031.136-.047.204-.264.061-.466.509-.338.749-.043.055-.079.115-.122.17-.011.015-.086.012-.1.044-.007.04.023.07.033.105.005.019.015.036.021.055l.02.055-.088.095c-.014.016-.077.012-.101.044-.006.04.024.071.034.106.005.019.015.036.021.055l.021.055c-.885 2.64.053 5.903 1.965 7.881.265.275.587.486.853.756.167.169.081.055.278.081.16.021.176.229.335.307.173.085.396.151.624.265l.128.266.267-.042.075.034c.068.283.261.315.503.184.058.022.111.055.15.068.049.305.147.159.28.205.113.038.205.192.352-.007a3.17 3.17 0 0 0 .988.157c.313.011.472.159.574.175.05.008.826-.097.998-.114.019.231.262.149.416.127.142-.021.361-.067.5-.106.108-.03.233-.017.143-.17.019-.004.035-.016.054-.02.122.192.202.122.388.04l-.041-.109c.126-.034.253-.101.38-.143.158.303.95.005.868-.327.476-.19.599-.219 1.045-.518.03.171.123.086.221.034.17-.09.59-.32.51-.559.067-.052.15-.097.196-.136.177.072.625-.232.461-.422.15-.134.171-.243.406-.401.057-.038.165-.042.232-.089.043-.031.011-.109.038-.136.162-.169.556-.439.374-.701.291-.389.635-1.123.818-1.613.296-.046.163-.154.222-.329.04-.118.218-.213.008-.379.388-1.284.302-3.078-.105-4.402-.851-2.759-3.241-5.015-6.071-5.581-.049-.237-.094-.117-.17-.122h0z" class="B"/><path d="M37.846 25.328c2.83.566 5.22 2.822 6.071 5.581.408 1.325.494 3.118.105 4.402l-.229.708c-.183.49-.527 1.225-.818 1.613-.218.29-.507.593-.643.926-.235.159-.257.269-.406.401l-.461.422c-.047.04-.13.085-.196.136l-.732.524c-.446.299-.569.328-1.045.518l-.868.327-.38.143c-.114.031-.231.043-.346.068-.019.004-.035.016-.054.02-.35.072-.704.116-1.059.15l-.998.114c-.102-.017-.261-.164-.574-.175-.431-.015-.565-.035-.988-.157l-.632-.197c-.039-.013-.091-.047-.15-.068l-.503-.184-.075-.034c-.122-.056-.254-.155-.394-.225-.228-.113-.45-.18-.624-.265-.159-.077-.175-.285-.335-.307l.013-.13c.412-.009.85.099 1.281.107a7.94 7.94 0 0 0 5.622-2.18c.144-.136.353-.323.432-.503.319-.124.616-.28.899-.471.122-.083.572-.379.516-.513-.045-.108-.201-.312-.278-.439.108-.039.123-.13.167-.217 1.305-2.557 1.129-5.646-.438-8.074.293.069.537.242.796.384.056-.042-.026-.127-.06-.165-.336-.374-1.071-.568-1.422-.892-.416-.385-.773-.997-1.334-1.238l-.021-.055c.017.003.038-.024.054-.02.025.005.084-.046.109-.041v.001z" class="C"/><g class="B"><path d="M28.468 31.035c.034.223-.155.788-.189 1.064-.313 2.522.487 4.963 2.253 6.797.257.266.562.48.809.754-.032.003-.072.033-.109.041-.267-.269-.588-.481-.853-.756-1.912-1.978-2.851-5.241-1.965-7.881l.054-.02v.001zm9.208-5.829l.061.163c-.016-.003-.038.024-.054.02-3.356-.59-6.578.753-8.392 3.719l-.02-.055c.184-.182.476-.784.698-1.059 1.533-1.895 4.151-3.026 6.579-2.936.377.014.766.122 1.128.146h0zm5.3 12.427c.182.263-.212.532-.374.701-.027.028.006.106-.037.136-.067.047-.175.05-.232.089.136-.333.425-.636.643-.926zm-3.484 2.928c.081.332-.711.63-.868.327l.868-.327zm-1.649.559c.09.154-.035.14-.143.17a4.76 4.76 0 0 1-.5.106c-.155.023-.397.105-.416-.127l1.059-.15v.001zm3.426-1.601c.079.238-.34.469-.51.559-.098.052-.191.137-.221-.034l.732-.524v-.001zm-12.255-9.995l.02.055-.304.674-.054.02c-.128-.239.074-.687.338-.749zm15.008 5.788c.21.166.032.261-.008.379-.058.175.074.283-.222.329l.229-.708z"/><path d="M41.926 38.961c.164.19-.284.494-.461.422l.461-.422zm-7.703 2.092c-.147.199-.239.046-.352.007-.133-.045-.231.1-.28-.205l.632.197z"/><path d="M33.441 40.788c-.242.131-.436.1-.503-.184.154.07.342.125.503.184zm-.578-.218l-.267.042-.128-.266c.14.07.272.169.394.224zm-3.592-11.516l.02.055c-.016.026-.034.092-.068.15l-.163.061c.006-.024-.044-.096.001-.157.055-.077.179-.079.209-.108v-.001zm8.972 11.977l.041.108c-.185.081-.265.152-.387-.04l.346-.068zM28.73 30.252c-.01.024.015.132-.033.236-.066.141-.093.06-.102.063l-.041-.109.122-.17.054-.021h.001z"/><path d="M29.224 29.258l-.189.32-.021-.055.047-.204.163-.061zm2.116 10.393c.04-.004.089.017.129.014.019-.002.037-.02.054-.02l-.013.13c-.198-.026-.112.088-.278-.081.036-.007.076-.038.108-.041zm-2.758-8.97c.013.083.021.117-.017.2-.041.091-.081.023-.085.024l-.041-.109.088-.095.054-.02zm9.094-5.476c.076.005.121-.114.17.122-.025-.005-.083.046-.109.041l-.061-.163zm-9.122 5.238l.041.109-.054.02-.054.021c-.009-.035-.04-.066-.033-.105.015-.032.089-.03.101-.045z"/><path d="M28.44 30.796l.041.109-.055.021-.054.02c-.009-.035-.039-.066-.034-.106.024-.032.086-.028.101-.044v-.001zm.121-.17l-.054.02-.021-.054.054-.021.021.055z"/><path d="M28.582 30.681l-.054.02-.02-.055.054-.02c.004.018.018.036.02.055zm-.135.299l-.054.02-.021-.055.054-.02.02.055z"/><path d="M28.467 31.035l-.054.02-.021-.055.054-.02c.004.018.018.036.021.055z"/></g><path d="M37.704 25.444c.561.241.918.854 1.334 1.238-.347-.055-.657-.223-1.005-.319-4.083-1.124-8.312 1.615-8.9 5.81-.378 2.699.876 5.658 3.271 7.016-.375-.42-.788-.798-1.123-1.255-3.647-4.98.426-11.957 6.559-11.143.365.048 1.554.295 1.756.553.153.194.51.91.624 1.164.961 2.146.957 4.97-.285 6.977-.04-.059-.339-.416-.379-.414-.52.503-1.059.841-1.784.964-.871.147-1.727-.2-2.381-.766l2.171-.818-.43-1.143-2.497.94-.267-.708 2.497-.94-.431-1.143-2.117.797c.041-.563.366-1.357.767-1.75.533-.524 1.37-.806 2.104-.824-.047-.213.14-1.207.003-1.3-2.427-.067-4.355 1.991-4.231 4.385l-1.032.388.431 1.143.76-.286.267.708-.76.286.431 1.143.95-.358c1.307 1.405 3.01 2 4.852 1.281-.08.179-.288.366-.432.503a7.94 7.94 0 0 1-5.622 2.18c-.431-.008-.869-.116-1.281-.108-.017 0-.035.019-.054.02-.017-.133-.099-.174-.179-.251-.595-.577-1.095-1.003-1.572-1.711-3.285-4.887-.434-11.427 5.368-12.3.874-.131 1.748-.071 2.618.041v.001z" class="D"/><path d="M38.859 37.069c-1.841.719-3.545.123-4.852-1.281l-.95.358-.431-1.143.76-.286-.267-.708-.76.286-.43-1.143 1.032-.388c-.124-2.394 1.804-4.452 4.231-4.385.137.093-.049 1.087-.003 1.3-.735.018-1.571.3-2.104.824-.4.393-.726 1.187-.767 1.75l2.117-.797.43 1.143-2.497.94.267.708 2.497-.94.43 1.143-2.171.818c.653.565 1.51.914 2.381.766.725-.123 1.264-.461 1.784-.964.039-.002.339.355.379.414.028.042.033.117.061.163l.277.439c.056.134-.394.43-.516.513a4.54 4.54 0 0 1-.899.471z" class="E"/><path d="M39.038 26.682c.351.325 1.087.519 1.422.892.034.039.117.124.06.165-.259-.142-.503-.314-.796-.384-.042-.01-.079-.037-.129-.014-.203-.258-1.391-.504-1.756-.553-6.133-.813-10.205 6.163-6.559 11.143.335.458.748.836 1.123 1.256-2.395-1.358-3.65-4.317-3.271-7.016.588-4.195 4.817-6.934 8.9-5.81.348.096.658.265 1.005.319h.001z" class="B"/><path d="M37.684 25.389l.02.055c-.869-.112-1.744-.172-2.618-.041-5.801.873-8.654 7.413-5.368 12.3.476.708.976 1.134 1.572 1.711.08.078.162.118.179.251-.04.003-.089-.017-.129-.014-.247-.275-.552-.488-.809-.754-1.767-1.835-2.566-4.276-2.253-6.797.035-.277.224-.842.189-1.064-.003-.019-.017-.035-.021-.055l-.021-.055c.018-.007.037-.013.054-.021.004-.002.044.067.085-.024.037-.083.03-.117.017-.2-.003-.019-.017-.035-.021-.055l-.02-.055.054-.02c.009-.003.037.078.102-.063.049-.104.023-.212.033-.236a11.98 11.98 0 0 1 .304-.674c.026-.052.142-.238.189-.32.034-.058.051-.124.068-.15 1.815-2.966 5.036-4.31 8.392-3.719v-.001z" class="D"/><path d="M39.725 27.356c1.567 2.428 1.743 5.517.438 8.074-.044.087-.06.178-.167.217-.028-.046-.033-.121-.061-.163 1.243-2.006 1.246-4.831.286-6.977-.114-.255-.471-.97-.624-1.164.05-.023.087.004.129.014v-.001z" class="C"/></g><defs><clipPath id="A"><path transform="matrix(-.866025 -.5 .5 -.866025 137.879 78.3787)" d="M0 0h19v19H0z" class="F"/></clipPath><clipPath id="B"><path transform="matrix(.755262 .655423 -.655423 .755262 91.1678 42)" d="M0 0h12.462v12.462H0z" class="F"/></clipPath><clipPath id="C"><path transform="matrix(-.321092 .947048 -.947048 -.321092 147.71 6.90625)" d="M0 0h18.799v18.799H0z" class="F"/></clipPath><clipPath id="D"><path transform="translate(136.789 79.553)" d="M0 0h15.79v18.947H0z" class="F"/></clipPath><clipPath id="E"><path transform="translate(167.421 78.5)" d="M0 0h15.79v18.947H0z" class="F"/></clipPath><clipPath id="F"><path transform="matrix(.965926 -.258819 .258819 .965926 13 89.1794)" d="M0 0h23.875v23.875H0z" class="F"/></clipPath><clipPath id="G"><path transform="matrix(.935856 -.352384 .352384 .935856 24 27.6953)" d="M0 0h19v19H0z" class="F"/></clipPath><path id="H" d="M90.901 45.546l-.029-.025c.009-.009.016-.02.025-.029l.029.025-.025.029z"/><path id="I" d="M90.876 45.575l-.029-.025.025-.029.029.025c-.009.008-.015.021-.025.029z"/><path id="J" d="M174.296 108.623c7.201 0 13.039-8.964 13.039-20.022s-5.838-20.022-13.039-20.022-13.039 8.964-13.039 20.022 5.838 20.022 13.039 20.022z"/><path id="K" d="M148.154 82.035c.058.031.128-.064.097.174-.018-.013-.078.013-.097 0v-.174z"/><path id="L" d="M139.286 84.181h-.048c.001-.019-.002-.039 0-.058h.048v.058z"/></defs></svg>