<svg xmlns="http://www.w3.org/2000/svg" width="191" height="132" fill="none" xmlns:v="https://vecta.io/nano"><g clip-path="url(#A)"><path d="M1.686 72.629C.701 71.894.297 70.972.504 69.687c.114-.715.549-1.274 1.13-1.657v-.021c.114-.746.591-1.336 1.223-1.719.591-.362 1.275-.539 1.959-.663l2.664-.373c3.389-.342 6.779-.186 10.148.186l-1.057-1.574c-.446-.663-.871-1.357-1.078-2.154-.601-2.258 1.814-3.045 3.483-2.144 1.41.756 2.705 1.823 3.97 2.807 1.327 1.036 2.654 2.061 3.908 3.17 5.162 4.526 8.52 9.177 10.251 13.33.052.114-.352 3.273-2.021 5.251l2.156 2.258c-1.12 1.367-2.757 3.294-4.374 5.127-1.306-2.175-4.125 3.718-5.815 1.813-.363-1.409-7.702-14.687-7.702-14.687-10.334-1.44-16.492-1.284-17.715-2.652-.508-.57-.549-1.523-.435-2.289.062-.404.238-.766.477-1.067h.01z" fill="#faa191"/><g fill="#3a3a3a"><path d="M12.87 71.521a19.75 19.75 0 0 0-11.402.808c-.342.124-.197.684.155.549 3.566-1.346 7.37-1.647 11.091-.808.363.083.508-.466.155-.549z"/><path d="M15.254 67.284c-1.731 1.771-2.809 4.081-3.078 6.536-.041.362.529.362.57 0 .249-2.299 1.296-4.475 2.902-6.132.259-.259-.145-.673-.404-.404h.01z"/><path d="M14.632 68.082c-4.157-1.212-8.78-1.233-12.926.031-.352.104-.197.663.155.549 4.053-1.243 8.562-1.212 12.625-.031.352.104.508-.445.155-.549h-.01zm2.591-2.538c.705.601 1.461 1.15 2.249 1.636.311.197.601-.3.29-.497a19.62 19.62 0 0 1-2.135-1.543c-.114-.104-.29-.114-.404 0-.104.104-.114.3 0 .404z"/><path d="M19.297 67.025c-.28 2.475 1.026 5.013 3.182 6.246.321.186.612-.311.29-.497a5.94 5.94 0 0 1-2.902-5.749c.041-.362-.529-.362-.57 0z"/></g><g fill="#000091"><path d="M122.185 63.038a14.42 14.42 0 0 0-4.364-2.942c-.591-.259-10.708-4.133-10.376-4.516-.187.228-3.379 10.855-3.98 11.984-.643 1.202-.664 2.579-.643 3.905.021 1.315.332 2.621 1.461 3.428 1.068.766 2.436 1.098 3.701 1.378 2.747.601 5.566.642 8.365.663.819 0 1.638.021 2.425-.218.726-.218 1.317-.673 1.856-1.191 1.078-1.025 2.125-2.082 3.182-3.128a.9.9 0 0 0 1.368-.549c.747-3.418-.663-6.525-2.995-8.835v.021zm-30.703-.798c-.788-2.424-2.239-4.557-3.089-6.95-.943-2.641-.166-4.972-.332-7.592-.249-4.029-3.006-1.398-3.11.311-.197 3.304-2.208 5.821-5.038 7.126-3.265 1.502-6.852.197-10.262.238-3.193.041-6.375.549-9.277 1.958-5.235 2.538-8.697 7.592-9.381 13.341-1.638 13.828 18.492 11.311 25.665 9.995 2.488-.456 4.955-.984 7.411-1.595 1.13-.28 2.301-.518 3.359-1.015 1.099-.507 1.938-1.295 2.602-2.299 1.244-1.895 1.928-4.247 2.166-6.484.249-2.362.031-4.775-.705-7.043l-.01.01z"/></g><path d="M189.218 69.356c.985-.735 1.389-1.657 1.182-2.942-.114-.715-.549-1.274-1.13-1.657v-.021c-.114-.746-.591-1.336-1.223-1.719-.591-.362-1.275-.539-1.959-.663l-2.664-.373c-3.389-.342-6.779-.186-10.148.186l1.058-1.574c.445-.663.87-1.357 1.078-2.155.601-2.258-1.814-3.045-3.483-2.144-1.41.756-2.706 1.823-3.97 2.807-1.327 1.036-2.654 2.061-3.908 3.169-5.162 4.526-6.675 6.443-11.081 14.936-.062.114 1.182 1.668 2.851 3.646l-2.156 2.258c1.119 1.367 2.757 3.294 4.374 5.127 1.306-2.175 4.125 3.718 5.815 1.813.363-1.409 7.702-14.687 7.702-14.687 10.334-1.44 16.491-1.284 17.714-2.652.508-.57.55-1.523.436-2.289a2.29 2.29 0 0 0-.477-1.067h-.011z" fill="#faa191"/><path d="M170.747 89.139l-.124.404c-1.783 5.987-3.804 11.932-6.157 17.712-1.151 2.828-2.395 5.624-3.794 8.328-1.327 2.558-2.871 5.034-4.996 7.012-1.98 1.833-4.52 3.201-7.235 3.46-2.82.269-5.484-.757-7.795-2.3-2.291-1.533-4.261-3.542-6.126-5.552a64.55 64.55 0 0 1-5.287-6.473c-1.928-2.693-3.638-5.542-5.1-8.514l.146 18.395a4.32 4.32 0 0 1-4.323 4.35H77.841c-3.576 0-6.53-2.776-6.748-6.339l-1.057-16.655c-2.788 5.003-5.566 9.674-8.686 14.48-5.1 7.851-9.059 16.966-20.254 13.963-6.033-1.616-12.781-12.43-15.745-20.623-2.052-5.666-3.649-11.466-4.81-17.36 1.866-1.833 3.752-3.646 5.711-5.376 4.509-3.988 6.323-5.21 10.884-9.156l1.638 3.408 5.038 10.337c1.544-3.087 3.12-6.163 4.913-9.115 2.467-4.05 5.463-7.841 9.401-10.565 1.814-1.264 3.825-2.289 5.95-2.931 2.374-.715 4.83-.912 7.297-.684 9.008.839 22.286 3.076 32.641 2.797 13.776-.373 14.159-7.53 21.602-5.345 4.353 1.284 7.95 3.915 10.376 7.375 2.974 4.226 8.52 13.838 9.308 15.661l3.452-6.132c1.088-1.875 2.207-3.729 3.358-5.562l2.166-3.439c2.872 2.755 5.961 5.293 9.029 7.841 2.55 2.134 5.006 4.381 7.484 6.608l-.042-.01z" fill="#adadf9"/><g fill="#3a3a3a"><path d="M136.064 106.188l7.422-12.315 2.104-3.491c.187-.321-.301-.601-.498-.29l-7.421 12.316-2.104 3.49c-.187.321.3.601.497.29zM125.191 91.76l-1.182 9.229c-.041.362.529.362.57 0l1.182-9.229c.041-.362-.529-.362-.57 0zm-81.556 1.139l5.888 13.3 1.669 3.78c.145.332.643.042.498-.29L45.801 96.39l-1.669-3.781c-.145-.332-.643-.041-.498.29zm-20.887 9.084L36.7 89.844l3.929-3.418c.28-.238-.124-.642-.404-.404L26.273 98.161l-3.928 3.418c-.28.238.124.642.404.404zM150.4 80.874l13.423 12.45 3.815 3.532c.269.249.673-.155.404-.404l-13.424-12.45-3.814-3.532c-.27-.249-.674.155-.404.404zM68.854 93.5l1.296 9.426c.052.362.601.207.549-.156l-1.296-9.425c-.052-.362-.601-.207-.549.155zm26.235-18.033l1.254 18.592 1.306 19.39.684 10.151c.021.362.601.373.57 0l-1.254-18.593-1.306-19.389-.684-10.151c-.021-.363-.601-.373-.57 0z"/></g><path d="M93.628 55.663l-2.27 11.062s-.777 9.177 7.09 10.099c3.244.383 5.276-1.388 5.296-1.626s.508-9.912.508-9.912l-10.635-9.612.01-.01z" fill="#faa191"/><path d="M92.094 69.594s7.474 6.639 11.878 2.548l-.145 2.538a13.21 13.21 0 0 1-.103 1.119c-.519 3.915-3.618 26.63-5.961 26.63-3.566 0-6.219-26.869-6.779-30.805-.518-3.646 1.109-2.02 1.109-2.02v-.01z" fill="#fff"/><path d="M86.133 43.358a8.57 8.57 0 0 1 .57-1.481c2.83-5.583 10.272-5.407 15.361-3.346 3.856 1.554 5.753 3.998 5.888 7.634.083 2.103-.622 6.598-.622 6.598s1.036 6.101 1.036 8.141c0 3.884-1.471 7.447-6.561 7.416-4.706-.031-8.852-3.967-11.63-7.623-3.348-4.402-4.944-9.084-4.509-14.594.073-.922.207-1.854.456-2.734l.01-.01z" fill="#faa191"/><g fill="#000091"><path d="M109.01 41.701c-.964-1.595-2.83-3.211-4.81-3.045-1.596.135-.943 1.999-.777 2.683.446 1.823 1.213 3.998 2.27 5.614a5.37 5.37 0 0 0 2.363 2.009c.519.218 1.255.404 1.825.249.808-.217.798-.942.788-1.657 0-1.989-.643-4.143-1.669-5.842l.01-.01z"/><path d="M103.869 39.121c.176-.3.166-.704-.176-.994-1.286-1.077-3.027-1.605-4.665-1.813-1.607-.207-3.255-.093-4.83.29-3.338.808-6.738 2.859-8.21 6.07-1.669 3.646-.788 7.654-.943 11.508-.124 3.128-1.182 6.536-4.509 7.489-1.824.528-3.783.445-5.566 1.17a5.6 5.6 0 0 0-2.104 1.533.87.87 0 0 0-.933.031c-2.249 1.616 4.312 6.608 5.4 7.395 1.918 1.388 4.115 2.393 6.437 2.859 1.493.3 3.068.373 4.53-.093 1.358-.435 2.54-1.378 3.441-2.465 1.793-2.175 2.612-5.044 2.726-7.831.145-3.283-.477-6.525-1.057-9.757 2.166-.818 4.115-2.165 5.815-3.729 2.239-2.061 4.395-4.506 5.017-7.571.27-1.336.207-2.848-.373-4.102v.01z"/></g><g fill="#518fff"><path d="M63.298 64.571a11.54 11.54 0 0 1 8.241-.86c.352.093.508-.456.155-.549-2.892-.777-6.012-.445-8.686.922-.332.166-.041.663.29.497v-.01zm4.167 1.76c2.581-.487 5.245-.342 7.753.435.352.104.508-.445.155-.549-2.612-.797-5.38-.942-8.054-.435-.363.073-.207.621.156.549h-.01z"/></g><g fill="#3a3a3a"><path d="M102.407 55.404l.933 1.233c.322.435.715.849.964 1.336.104.197.166.435.021.621-.145.176-.394.259-.612.321-.601.166-1.223.124-1.814-.083-.414-.145-.59.508-.176.653a3.63 3.63 0 0 0 2.177.083c.622-.176 1.265-.601 1.192-1.336-.073-.684-.632-1.243-1.026-1.761l-1.057-1.398c-.114-.145-.291-.218-.467-.124-.145.083-.228.321-.124.466l-.011-.01zm-5.483 17.142c-1.472-.404-2.84-1.429-3.587-2.766-.176-.321-.643.01-.466.331.829 1.471 2.353 2.558 3.97 3.004.352.104.446-.466.093-.57h-.01zm9.391-23.315c2.187.632 3.576 1.792 3.504 2.413-.063.518-1.099.311-2.602-.383-1.628-.756-3.048-.549-3.338-1.492-.228-.756.384-1.129 2.426-.539h.01zm-8.282 0c-2.177.642-3.587 1.74-3.535 2.31.041.477 1.078.249 2.581-.435 1.638-.746 3.027-.601 3.348-1.461.249-.694-.352-1.015-2.384-.414h-.01z"/></g><path d="M97.618 56.782c.508 2.072-.767 4.164-2.84 4.671a3.87 3.87 0 0 1-4.675-2.838c-.508-2.072.767-4.164 2.84-4.671a3.87 3.87 0 0 1 4.675 2.838z" fill="#faa191"/><g fill="#3a3a3a"><path d="M98.303 54.057c-1.265.072-1.068 1.647-.829 2.268.155.404.477.87 1.047.839.84-.062.871-1.046.829-1.574-.052-.59-.218-1.574-1.047-1.533zm7.649-.113c-1.316.083-1.109 1.709-.86 2.351.166.425.497.911 1.088.87.871-.062.902-1.088.861-1.626-.052-.611-.228-1.636-1.089-1.585v-.01zm-12.376 1.491c-.891.041-1.659.756-1.814 1.626-.176.932.28 1.885 1.016 2.455.145.114.342.145.477 0 .114-.114.145-.362 0-.476-.529-.414-.943-1.077-.85-1.771.083-.58.57-1.129 1.161-1.16.435-.021.435-.694 0-.673h.01zm6.437 7.188c1.14.891 2.705 1.108 4.053.611.176-.062.228-.3.155-.456-.083-.176-.28-.217-.456-.155-1.13.414-2.425.176-3.369-.559-.342-.269-.725.29-.383.559z"/></g><g fill="#000091"><path d="M99.567 73.592c-.083 0-.176 0-.259.031-.581.176-.881.777-1.182 1.212-.156.228-.871 1.201-.85 1.398.083.642.187.88.466 1.481a5.66 5.66 0 0 0 .498.88c.166.249.352.59.694.642.373.062.591-.238.788-.477l.653-.86 1.119-1.657-1.938-2.652h.01z"/><path d="M102.065 87.555c-1.347 9.602-3.161 15.909-5.162 15.091 0 0-1.586-2.517-2.488-7.893.498-3.201 2.882-15.785 4.499-15.982 1.016-.124 2.249 6.059 3.141 8.794l.01-.01z"/></g><g fill="#518fff"><path d="M92.633 50.857a11.44 11.44 0 0 0 5.629-8.68c.041-.435-.632-.425-.674 0a10.73 10.73 0 0 1-5.297 8.089c-.384.218-.041.798.342.58v.01zm-.208-5.241a11.8 11.8 0 0 0 3.286-5.635c.104-.425-.549-.601-.653-.176a11.25 11.25 0 0 1-3.11 5.334c-.311.3.166.777.477.477z"/></g><g fill="#3a3a3a"><path d="M178.179 68.807c3.732-.839 7.526-.539 11.091.808.342.135.498-.425.156-.549-3.67-1.388-7.577-1.668-11.402-.808-.363.083-.208.632.155.549z"/><path d="M175.246 64.426c1.617 1.657 2.653 3.832 2.902 6.132.042.362.612.362.57 0-.269-2.455-1.347-4.765-3.078-6.536-.259-.269-.664.145-.405.404h.011z"/><path d="M176.417 65.358c4.063-1.181 8.572-1.212 12.625.031.353.104.508-.445.156-.549-4.146-1.264-8.769-1.243-12.926-.031-.352.104-.207.652.155.549h-.01zm-3.141-3.491a17.16 17.16 0 0 1-2.135 1.543c-.311.197-.021.694.29.497.788-.487 1.534-1.036 2.25-1.636.114-.104.103-.3 0-.404-.114-.114-.291-.104-.405 0z"/><path d="M171.027 63.752c.259 2.289-.902 4.609-2.902 5.749-.322.186-.031.673.29.497 2.166-1.233 3.472-3.77 3.182-6.246-.041-.363-.611-.363-.57 0zm-73.263 38.666c-3.929-1.274-7.235-4.143-9.961-7.147-2.83-3.107-5.255-6.65-7.09-10.43-.715-1.471-1.368-3.014-1.752-4.62l7.204.031c.332 0 .384-.466.073-.559-1.659-.518-3.224-1.326-4.758-2.123a77.34 77.34 0 0 1-2.581-1.409 45.67 45.67 0 0 1 .259-2.621c-.176-.073-.352-.166-.539-.259a38.06 38.06 0 0 0-.311 3.035c0 .104.062.197.145.249a67.09 67.09 0 0 0 2.819 1.543c1.068.559 2.156 1.108 3.275 1.574a1130.68 1130.68 0 0 1-5.939-.021c-.197 0-.311.186-.28.362.321 1.554.923 3.045 1.586 4.485.85 1.844 1.866 3.615 2.975 5.324 2.405 3.687 5.307 7.157 8.79 9.871 1.793 1.388 3.763 2.579 5.929 3.284.352.114.498-.435.156-.549v-.021z"/></g><path d="M103.983 68.869l3.369 3.014-3.473 2.009.104-5.024z" fill="#adadf9"/><path d="M97.836 102.946c3.421-1.595 6.033-4.692 8.096-7.768 2.249-3.346 4.052-7.054 5.317-10.886.549-1.678 1.016-3.408 1.202-5.179.011-.145-.145-.29-.29-.29l-7.535.435c.02.186.051.373.072.559 1.607-.601 3.12-1.502 4.582-2.393.891-.539 1.783-1.098 2.643-1.688.104-.073.166-.197.135-.321-.819-2.693-6.717-4.723-7.857-7.302-.146-.331-.374.404-.228.735 1.119 2.527 6.271 3.791 7.525 6.712.041-.104.083-.218.135-.321-.84.57-1.7 1.108-2.571 1.637-1.441.88-2.933 1.782-4.519 2.382-.28.104-.27.58.072.559l7.536-.435-.29-.29c-.156 1.491-.529 2.962-.975 4.392-.559 1.813-1.264 3.584-2.062 5.303-1.69 3.636-3.805 7.178-6.583 10.089-1.357 1.429-2.912 2.713-4.706 3.542-.332.155-.041.653.29.497l.01.031z" fill="#3a3a3a"/><g fill="#e9c53b"><path d="M55.763 7.592c.435-.073.726-.476.663-.911L55.462.673c-.073-.435-.477-.725-.912-.663s-.726.476-.663.911l.964 6.008c.073.435.477.735.912.663zm-8.137 2.569a.79.79 0 0 0 .788.342.87.87 0 0 0 .321-.124c.176-.124.301-.3.332-.507a.78.78 0 0 0-.124-.601l-3.41-5.044a.81.81 0 0 0-.788-.342c-.114.021-.218.062-.321.124a.82.82 0 0 0-.342.508.78.78 0 0 0 .124.601l3.41 5.044h.01zm-5.194 5.987a.82.82 0 0 0 .539.104c.228-.041.435-.176.56-.373a.77.77 0 0 0 .093-.601c-.052-.207-.176-.383-.363-.487l-5.224-3.128a.81.81 0 0 0-.539-.104.82.82 0 0 0-.56.373.79.79 0 0 0 .27 1.088l5.224 3.128zm-8.23 6.981l6.064.632h.207a.78.78 0 0 0 .663-.704.81.81 0 0 0-.715-.88l-6.064-.622h-.207c-.352.052-.622.342-.663.704-.041.435.27.829.715.87zm7.805 7.427c-.124-.362-.498-.59-.871-.528-.052 0-.093.021-.145.041l-5.753 1.989a.83.83 0 0 0-.456.404.78.78 0 0 0-.031.611.8.8 0 0 0 .881.528c.052 0 .093-.021.135-.031l5.753-1.989c.415-.145.632-.601.487-1.015v-.01zm3.266 6.204c-.166.021-.311.104-.425.218l-4.374 4.236a.75.75 0 0 0-.238.559.78.78 0 0 0 .228.57.79.79 0 0 0 .695.228c.166-.021.311-.104.425-.218l4.374-4.236a.75.75 0 0 0 .238-.559.78.78 0 0 0-.228-.57.79.79 0 0 0-.694-.228zM63.319 8.048a.78.78 0 0 0 .342.021c.301-.052.56-.269.643-.57l1.669-5.852a.76.76 0 0 0-.072-.601.8.8 0 0 0-.477-.383.78.78 0 0 0-.342-.021c-.301.052-.56.269-.643.57L62.77 7.064c-.124.425.124.86.549.984zm7.297 3.781c.187-.031.352-.124.477-.269l3.991-4.599a.79.79 0 0 0-.083-1.119c-.176-.155-.415-.218-.643-.186-.187.031-.352.124-.477.269l-3.991 4.599a.79.79 0 0 0 .083 1.119.82.82 0 0 0 .653.186h-.01zm3.846 5.282c-.073.197-.073.414.021.611a.8.8 0 0 0 .85.466c.073-.01.135-.031.197-.062l5.566-2.486c.197-.083.342-.249.415-.445s.073-.414-.021-.611a.8.8 0 0 0-.85-.466c-.073.01-.135.031-.207.062l-5.556 2.486c-.197.083-.342.249-.425.445h.01zm8.997 7.572a.75.75 0 0 0-.56-.238l-6.095-.093h-.145a.78.78 0 0 0-.663.777c0 .435.342.797.788.808l6.095.093h.135a.8.8 0 0 0 .446-1.347zm-2.664 10.088l-5.483-2.662c-.145-.072-.311-.093-.477-.072-.259.041-.477.207-.591.435-.197.394-.031.87.373 1.067l5.483 2.662c.145.073.311.093.477.073.259-.041.477-.207.591-.435.197-.394.031-.87-.373-1.067zM68.284 11.383a16.55 16.55 0 0 0-12.376-2.962c-9.059 1.45-15.248 9.985-13.797 19.038 1.151 7.178 6.748 12.73 13.942 13.817 1.783.331 2.488 2.475 2.861 3.636l.114.342c.321.922 1.14 1.523 2.011 1.45.041 0 .083 0 .114-.01.829-.135 1.42-.849 1.596-1.906.083-.477.114-.974.155-1.45l.062-.704c.249.673.456 1.833.601 2.672.373 2.134.674 3.812 1.886 4.039a1.03 1.03 0 0 0 .435 0c.28-.041.477-.186.591-.29.581-.559.446-1.533.228-3.138l-.207-1.668v-.031c-.083-.787-.228-2.206-.249-3.252.021.031.031.062.052.093l.01.031c.84 1.377 1.555 2.579 2.55 2.413.072-.01.135-.031.207-.052.84-.3.84-1.305.829-2.817 0-1.533-.021-3.625.85-4.516.01-.01.021-.031.031-.041 3.452-3.77 4.965-8.815 4.157-13.848a16.51 16.51 0 0 0-6.675-10.834l.021-.01z"/></g><path d="M186.524 65.948c-3.069-5.707-11.786-6.702-15.974-2.103-.611.673-.466 1.74.28 2.248 1.648 1.129 5.266 5.593 14.574 1.854.902-.362 1.576-1.139 1.12-1.999z" fill="#8b7954"/><g stroke="#58b77d" stroke-width="1.8" stroke-linecap="round" stroke-linejoin="round"><path d="M178.065 60.945v-5.003l5.121-5.117m-5.121 5.118l-5.006-5.065"/></g><g fill="#58b77d"><path d="M180.657 53.415c-4.064-11.186 6.364-7.53 9.246-10.71 0 0 2.176 14.004-9.246 10.71zm-5.069 0c2.767-12.771-6.593-7.302-10.013-9.943 0 0-.591 13.476 10.013 9.944z"/></g><g stroke-linecap="round" stroke="#000091" stroke-width=".48" stroke-miterlimit="10"><path d="M99.308 73.623L95.4 78.854m3.991-5.231l3.908 5.231"/></g></g><defs><clipPath id="A"><path fill="#fff" transform="translate(.452)" d="M0 0h190v132H0z"/></clipPath></defs></svg>