<svg xmlns="http://www.w3.org/2000/svg" width="189" height="160" fill="none" xmlns:v="https://vecta.io/nano"><style><![CDATA[.B{fill:#474747}.C{stroke-miterlimit:10}.D{fill:#fa9d79}.E{fill-rule:evenodd}.F{fill:#000091}.G{fill:#adadf9}.H{stroke:#1d2437}.I{stroke-width:.25}]]></style><g fill="#77b645"><path d="M66.468 77.815c2.438-4.555 4.289-9.41 5.542-14.439 15.729-.578 18.236-17.537 18.259-17.722 2.691-22.566-24.64-43.039-25.813-43.906-.287-.208-.655-.231-.966-.069a.89.89 0 0 0-.437.855c0 .092.816 9.976-8.75 22.485-6.105 8.023-7.244 18.207-2.932 26.635a21.66 21.66 0 0 0 3.185 4.636c4.036 4.404 9.693 6.959 15.614 7.052-1.207 4.728-2.978 9.283-5.278 13.583-.172.335-.115.74.127 1.017.069.081.138.139.23.185a.89.89 0 0 0 1.207-.312h.011z"/><path d="M35.078 32.21s-3.484-11.352-11.59-9.977c0 0-8.474 5.93 3.909 14.682l6.669 1.41 1.012-6.115z" class="E"/></g><g class="G E"><path d="M121.75 43.1v-5.19a3.04 3.04 0 0 1 1.851-2.798l12.717-5.295c.506-.208 1.092.035 1.311.543.207.509-.035 1.098-.541 1.318l-12.717 5.295c-.379.15-.62.52-.62.936V43.1c0 .555-.449 1.006-1.001 1.006s-1-.451-1-1.006z"/><path d="M136.1 45.861V24.984c0-1.665 1.345-3.017 3.001-3.017h22.191c1.656 0 3.001 1.353 3.001 3.017v16.011c0 .555-.448 1.006-1 1.006s-1.001-.451-1.001-1.006V24.984c0-.555-.448-1.006-1-1.006h-22.191c-.552 0-1 .451-1 1.006v20.878c0 .555-.449 1.006-1.001 1.006s-1-.451-1-1.006zm15.189-16.98c0-.624.241-1.225.689-1.665.437-.439 1.035-.694 1.656-.694h2.863c.621 0 1.219.243 1.656.694a2.37 2.37 0 0 1 .69 1.665v3.341c0 .624-.242 1.225-.69 1.665-.437.439-1.035.694-1.656.694h-2.863c-.621 0-1.219-.243-1.656-.694a2.37 2.37 0 0 1-.689-1.665v-3.341zm2 0v3.341c0 .092.035.173.104.243.057.058.149.104.241.104h2.863a.33.33 0 0 0 .242-.104c.057-.058.103-.15.103-.243v-3.341c0-.093-.034-.173-.103-.243a.35.35 0 0 0-.242-.092h-2.863c-.092 0-.172.035-.241.092a.36.36 0 0 0-.104.243zm-2 11.316c0-.624.241-1.225.689-1.665.437-.439 1.035-.694 1.656-.694h2.863c.621 0 1.219.243 1.656.694a2.37 2.37 0 0 1 .69 1.665v3.341c0 .624-.242 1.225-.69 1.665-.437.439-1.035.694-1.656.694h-2.863c-.621 0-1.219-.243-1.656-.694a2.37 2.37 0 0 1-.689-1.665v-3.341zm2 0v3.341c0 .092.035.173.104.243.057.058.149.104.241.104h2.863a.33.33 0 0 0 .242-.104c.057-.058.103-.15.103-.243v-3.341c0-.093-.034-.173-.103-.243a.35.35 0 0 0-.242-.093h-2.863a.37.37 0 0 0-.241.093.36.36 0 0 0-.104.243zm-11.716-11.316a2.32 2.32 0 0 1 .69-1.665c.437-.439 1.035-.694 1.655-.694h2.863c.621 0 1.219.243 1.656.694a2.39 2.39 0 0 1 .69 1.665v3.341a2.32 2.32 0 0 1-.69 1.665c-.437.439-1.035.694-1.656.694h-2.863c-.62 0-1.218-.243-1.655-.694a2.37 2.37 0 0 1-.69-1.665v-3.341zm2 0v3.341a.38.38 0 0 0 .092.243.36.36 0 0 0 .242.104h2.863a.33.33 0 0 0 .241-.104.35.35 0 0 0 .092-.243v-3.341c0-.093-.034-.173-.092-.243-.057-.058-.149-.092-.241-.092h-2.863a.37.37 0 0 0-.242.092c-.057.058-.092.15-.092.243zm-2 11.316a2.32 2.32 0 0 1 .69-1.665c.437-.439 1.035-.694 1.655-.694h2.863c.621 0 1.219.243 1.656.694a2.37 2.37 0 0 1 .69 1.665v3.341a2.32 2.32 0 0 1-.69 1.665c-.437.439-1.035.694-1.656.694h-2.863c-.62 0-1.218-.243-1.655-.694a2.37 2.37 0 0 1-.69-1.665v-3.341zm2 0v3.341a.38.38 0 0 0 .092.243.36.36 0 0 0 .242.104h2.863a.33.33 0 0 0 .241-.104.35.35 0 0 0 .092-.243v-3.341c0-.093-.034-.173-.092-.243-.057-.058-.149-.093-.241-.093h-2.863a.37.37 0 0 0-.242.093c-.057.058-.092.15-.092.243zm-48.016-.023a3.04 3.04 0 0 1 1.851-2.797l11.095-4.612a3.04 3.04 0 0 1 2.3 0l11.095 4.612c1.127.462 1.852 1.572 1.852 2.797v25.132c0 .555-.449 1.006-1.001 1.006H98.558c-1.656 0-3.001-1.353-3.001-3.017v-23.12zm2.001 0v23.121c0 .555.448 1.006 1 1.006h23.192V40.174a1.02 1.02 0 0 0-.621-.936l-11.096-4.613a.99.99 0 0 0-.77 0l-11.096 4.613c-.38.15-.621.52-.621.936h.011zm13.189 3.456a2.32 2.32 0 0 1 .69-1.665c.437-.439 1.034-.694 1.655-.694h2.863c.621 0 1.219.243 1.656.694a2.37 2.37 0 0 1 .69 1.665v3.341a2.32 2.32 0 0 1-.69 1.665c-.437.439-1.035.694-1.656.694h-2.863c-.621 0-1.218-.243-1.655-.694a2.37 2.37 0 0 1-.69-1.665V43.63zm2 0v3.341c0 .092.035.173.104.243.057.058.149.092.241.092h2.863a.37.37 0 0 0 .242-.092c.057-.058.092-.15.092-.243V43.63c0-.093-.035-.173-.092-.243a.35.35 0 0 0-.242-.093h-2.863a.37.37 0 0 0-.241.093c-.069.058-.104.15-.104.243zm-2 11.318a2.32 2.32 0 0 1 .69-1.665c.437-.439 1.034-.694 1.655-.694h2.863c.621 0 1.219.243 1.656.694a2.37 2.37 0 0 1 .69 1.665v3.341a2.32 2.32 0 0 1-.69 1.665c-.437.439-1.035.694-1.656.694h-2.863c-.621 0-1.218-.243-1.655-.694a2.37 2.37 0 0 1-.69-1.665v-3.341zm2 0v3.341c0 .093.035.173.104.243.057.058.149.104.241.104h2.863a.33.33 0 0 0 .242-.104c.057-.058.092-.15.092-.243v-3.341c0-.093-.035-.173-.092-.243a.35.35 0 0 0-.242-.092h-2.863a.37.37 0 0 0-.241.092.36.36 0 0 0-.104.243zM101.031 43.63a2.32 2.32 0 0 1 .69-1.665c.437-.439 1.035-.694 1.656-.694h2.863c.62 0 1.218.243 1.655.694a2.37 2.37 0 0 1 .69 1.665v3.341a2.32 2.32 0 0 1-.69 1.665c-.437.439-1.035.694-1.655.694h-2.863c-.621 0-1.219-.243-1.656-.694a2.37 2.37 0 0 1-.69-1.665V43.63zm2.001 0v3.341a.37.37 0 0 0 .092.243c.057.058.149.092.241.092h2.863a.37.37 0 0 0 .242-.092c.057-.058.091-.15.091-.243V43.63c0-.093-.034-.173-.091-.243a.35.35 0 0 0-.242-.093h-2.863a.37.37 0 0 0-.241.093.35.35 0 0 0-.092.243zm-2.001 11.318a2.32 2.32 0 0 1 .69-1.665c.437-.439 1.035-.694 1.656-.694h2.863c.62 0 1.218.243 1.655.694a2.37 2.37 0 0 1 .69 1.665v3.341a2.32 2.32 0 0 1-.69 1.665c-.437.439-1.035.694-1.655.694h-2.863c-.621 0-1.219-.243-1.656-.694a2.37 2.37 0 0 1-.69-1.665v-3.341zm2.001 0v3.341a.37.37 0 0 0 .092.243c.057.058.149.104.241.104h2.863a.33.33 0 0 0 .242-.104c.069-.069.091-.15.091-.243v-3.341c0-.093-.034-.173-.091-.243a.35.35 0 0 0-.242-.092h-2.863a.37.37 0 0 0-.241.092.35.35 0 0 0-.092.243z"/></g><g fill="#18753c"><path d="M65.226 78.727c2.541-4.728 4.484-9.745 5.807-14.947 16.27-.682 18.949-18.207 18.983-18.404 2.897-23.317-25.25-44.31-26.457-45.2a.93.93 0 0 0-.989-.069.94.94 0 0 0-.46.89c0 .092.793 10.3-9.164 23.271-6.347 8.323-7.589 18.855-3.173 27.525a22.47 22.47 0 0 0 3.265 4.774 22.18 22.18 0 0 0 16.109 7.202c-1.276 4.89-3.127 9.606-5.531 14.057-.172.347-.127.763.127 1.052.069.081.149.139.23.197a.93.93 0 0 0 1.253-.335v-.011zM51.428 50.994c-4.093-8.034-2.943-17.837 3.024-25.548C62.397 15.1 63.823 6.511 63.984 2.823c5.715 4.601 26.641 22.993 24.226 42.299-.023.162-2.426 15.826-16.741 16.797a67.28 67.28 0 0 0 .966-5.422l.046-.035s-.034-.035 0-.081c.253-1.792.448-3.561.586-5.306 10.59-7.815 10.486-15.629 10.475-15.953-.138-.497-.655-.786-1.161-.636a.95.95 0 0 0-.655.694c.035.035 0 6.647-8.531 13.514.103-2.243.115-4.462.046-6.601a1.12 1.12 0 0 0 0-.278c-.103-2.971-.334-5.838-.667-8.531 2.645-3.364 4.507-7.283 5.439-11.468a.94.94 0 0 0-.977-.902.91.91 0 0 0-.805.543 27.91 27.91 0 0 1-3.99 9.225c-.322-2.139-.678-4.15-1.069-6.023 0-.139-.023-.266-.081-.393-.954-4.693-2.288-9.294-3.978-13.768-.081-.509-.552-.867-1.069-.786a.94.94 0 0 0-.782 1.075c.023.15.081.289.172.416a82.18 82.18 0 0 1 3.426 11.433 14.48 14.48 0 0 1-3.323-3.688c-.356-.37-.954-.382-1.322-.023-.242.243-.333.59-.253.913.517.855 1.104 1.653 1.782 2.381 1.058 1.179 2.3 2.185 3.668 2.994 1.046 5.04 1.69 10.161 1.955 15.306-7.255-3.665-11.165-11.895-11.211-11.988a.93.93 0 0 0-1.311-.127c-.264.22-.379.555-.322.89 1.322 2.647 2.989 5.11 4.979 7.306a23.8 23.8 0 0 0 7.945 5.942c.115 4.219-.092 8.45-.632 12.635-6.335-1.722-10.222-8.219-10.256-8.277-.264-.428-.816-.566-1.242-.324-.414.266-.552.809-.322 1.237.736 1.202 1.587 2.335 2.541 3.376 2.369 2.751 5.484 4.751 8.968 5.757a65.66 65.66 0 0 1-.977 5.029c-8.014-.093-14.602-4.058-18.132-10.982l.034.035v-.035z"/><path d="M40.091 66.243c.057.092 1.311 2.358 3.622 4.809 2.817 2.994 5.864 4.867 9.06 5.584 7.416 1.665 14.637-3.214 15.66-3.942.311-.324.253-.382.115-.856-.368-.647-1.575-2.59-3.518-4.647-2.771-2.936-5.784-4.786-8.946-5.503-7.83-1.757-15.545 3.769-15.867 4l-.31.22.184.335z" stroke="#18753c" stroke-width=".66" class="C"/></g><path d="M90.337 55.907c2.576 1.387 4.657 3.537 5.025 6.347.207 1.549-.23 3.156-1.069 4.462-.793 1.237-1.909 2.219-3.173 2.948-1.23.705-2.817 1.283-4.197.647-1.173-.543-1.736-1.815-2.012-3.017-.161-.728-.23-1.48-.276-2.231l-.092-2.624c-.034-1.618-.069-3.26-.379-4.855-.126-.624-.287-1.237-.517-1.838-.057-.196.644-2 .931-2 1.207-.023 4.645 1.584 5.749 2.173l.011-.012z" class="F"/><path d="M71.711 61.329c.391-3.942 2.369-7.375 6.784-7.826 3.932-.393 8.601 1.225 11.326 4 1.207 1.225 2.185 2.647 2.989 4.15.828 1.538 1.495 3.144 2.081 4.774.644 1.769 1.265 3.549 1.725 5.364s.736 3.711.506 5.572c-.184 1.561-.713 3.11-1.656 4.393-.966 1.329-2.357 2.277-3.967 2.74-1.656.474-3.438.451-5.105.035-1.782-.439-3.426-1.295-4.898-2.324-1.357-.948-2.599-2.058-3.702-3.272a23.13 23.13 0 0 1-2.84-3.861c-.816-1.387-1.495-2.855-2.012-4.37-.92-2.705-1.564-6.173-1.242-9.387l.011.012z" class="D"/><path d="M86.164 67.642c.402-1.353 2.415-2.763 3.242-2.925.425-.093.885-.093 1.299.069.414.173.759.543.839 1.017.081.497-.149 1.006-.483 1.352s-.77.555-1.196.763l-2.104 1.017c-.448.22-1.035.405-1.357.012-.333-.393-.379-.855-.241-1.306z" class="B"/><path d="M83.99 76.046l-9.394 8.612c.092.058 7.819 6.451 7.819 6.451l7.738-8.601-6.151-6.462h-.011z" class="D"/><path d="M74.022 54.498c6.37-4.451 15.292-.197 18.627 5.722l.242.462c.069.139.103.3.081.451 0 0 .046 2.185-5.174 3.699-5.22 1.503-6.278 3.988-6.278 3.988l-.069-.104a7.31 7.31 0 0 0-.345 1.769s.575 1.584.471 2.15c.127 0 .253.081.311.22.655 1.769-1.46 2.578-2.231 4.3-.736 1.618-.38 4.797-2.484 4.485-1.092-.162-1.656-1.04-2.047-1.93-1.805-4.15-3.518-8.451-4.197-12.913-.207-1.341-.655-2.566-.908-3.815-.678-3.399 1.38-6.612 4.001-8.439v-.046z" class="F"/><g class="G"><path d="M122.923 64.381l4.254-.358c.897-1.225 2.058-2.035 3.335-2.185l18.707-3.757c1.84-3.098 4.346-5.237 7.175-5.873h.034l.517-.104 14.752-2.809c.552-.162 1.116-.266 1.679-.324h.012l.897-.046c7.795 0 14.119 9.711 14.119 21.687s-6.324 21.687-14.119 21.687c-.299 0-.598-.011-.897-.046h-.012c-.575-.058-1.127-.162-1.679-.324l-14.752-2.809c-.172-.023-.344-.058-.517-.104h-.034c-2.829-.636-5.335-2.774-7.175-5.873l-18.707-3.757c-1.277-.162-2.427-.959-3.335-2.197l-4.254-.358c-2.242 0-4.047-2.786-4.047-6.219s1.816-6.219 4.047-6.219v-.012z"/><path d="M149.287 58.162a25.38 25.38 0 0 0-1.759 4.636c-.437 1.595-.713 3.225-.851 4.878-.138 1.665-.138 3.329 0 4.994a31.16 31.16 0 0 0 .805 4.936c.391 1.618.92 3.202 1.553 4.74l.241.567c.092.208-.207.381-.299.173-.678-1.538-1.242-3.133-1.679-4.763a32.16 32.16 0 0 1-.92-5.017c-.172-1.676-.206-3.376-.103-5.052a28.24 28.24 0 0 1 .759-4.994c.402-1.618.954-3.202 1.667-4.717l.276-.555c.104-.197.402-.023.299.173h.011zm-22.191 6.289c-.759 1.503-1.218 3.156-1.368 4.832-.149 1.688-.011 3.387.437 5.029a13.63 13.63 0 0 0 1.035 2.636c.103.197-.196.37-.299.173-.805-1.537-1.299-3.225-1.483-4.959a14.42 14.42 0 0 1 .368-5.156 13.39 13.39 0 0 1 1.023-2.728c.103-.197.402-.023.299.173h-.012z"/></g><use href="#B" class="F"/><g class="D"><path d="M170.237 136.852c-3.265 5.607-15.062 10.578-29.803 5.145-14.74-5.445-40.013-24.45-40.013-24.45l28.895-30.796 40.91 50.102h.011z"/><path d="M107.814 67.04c.023-.728.184-1.561.874-1.954.759-.428 1.713-.116 2.311.428.322.289.564.636.782.994a10.82 10.82 0 0 1 .61 1.202c.356.844.597 1.723.77 2.613a17.72 17.72 0 0 1 .264 2.22l.598-2.855c.437-1.734 1.012-3.433 1.702-5.075a33.63 33.63 0 0 1 2.461-4.74l.735-1.133c.23-.335.472-.671.782-.936.276-.243.621-.428.989-.451.322-.035.667.035.931.231.345.116.621.381.759.728.207.497.207 1.063.138 1.584-.011.127-.034.254-.057.37l.149-.3.92-1.538c.288-.416.61-.832 1.023-1.133.38-.289.851-.486 1.346-.439.471.035.885.3 1.184.647.529.624.609 1.376.517 2.127.414-.624.978-1.133 1.783-1.087.586.035 1.126.393 1.471.832.414.52.552 1.179.564 1.827.011.717-.104 1.434-.196 2.15l-.345 2.254-.885 4.508-1.058 4.451-.425 1.676 7.761 5.826c3.415 2.705 6.738 5.537 9.946 8.474 3.254 2.971 6.393 6.058 9.417 9.237 8.06 8.508 19.604 20.646 16.338 33.374-.448 1.746-1.253 3.457-2.575 4.752-1.334 1.306-3.128 2.057-5.002 2.288-4.231.532-8.152-1.502-11.498-3.78-3.323-2.266-6.381-4.901-9.095-7.838-1.759-1.895-3.369-3.918-4.829-6.046-.069-.069-.138-.138-.207-.219l-10.406-10.647-9.865-10.173c-2.978-3.225-5.784-6.682-7.761-10.589-1.817-3.607-2.978-7.641-2.76-11.687l-.092-5.954-.046-3.202-.023-1.584c0-.474-.023-.96-.011-1.445l.011.012z"/></g><path d="M92.614 64.381l4.254-.358c.897-1.225 2.058-2.035 3.335-2.185l18.707-3.757c1.84-3.098 4.346-5.237 7.175-5.873h.034l.518-.104 14.752-2.809a9.36 9.36 0 0 1 1.678-.324h.012l.897-.046c7.795 0 14.119 9.711 14.119 21.687s-6.324 21.687-14.119 21.687c-.299 0-.598-.011-.897-.046h-.012a9.17 9.17 0 0 1-1.678-.324l-14.752-2.809c-.173-.023-.345-.058-.518-.104h-.034c-2.829-.636-5.335-2.774-7.175-5.873l-18.707-3.757c-1.276-.162-2.426-.959-3.335-2.197l-4.254-.358c-2.242 0-4.047-2.786-4.047-6.219s1.817-6.219 4.047-6.219v-.012z" class="G"/><path d="M118.979 58.162a25.3 25.3 0 0 0-1.759 4.636c-.437 1.595-.713 3.225-.851 4.878-.138 1.665-.138 3.329 0 4.994s.402 3.318.805 4.936a32.58 32.58 0 0 0 1.552 4.74l.241.567c.092.208-.207.381-.299.173a33.01 33.01 0 0 1-1.678-4.763 32.06 32.06 0 0 1-.92-5.017c-.173-1.676-.207-3.376-.104-5.052s.357-3.353.759-4.994a25.65 25.65 0 0 1 1.667-4.717l.276-.555c.104-.197.403-.023.299.173h.012zm-22.191 6.289c-.759 1.503-1.219 3.156-1.368 4.832-.149 1.688-.011 3.387.437 5.029a13.64 13.64 0 0 0 1.035 2.636c.104.197-.195.37-.299.173-.805-1.537-1.299-3.225-1.483-4.959a14.42 14.42 0 0 1 .368-5.156 13.39 13.39 0 0 1 1.023-2.728c.103-.197.402-.023.299.173h-.011z" class="B C H I"/><use href="#B" x="-30.309" class="F"/><path d="M144.712 67.641c-.092-.682-.368-1.341-.793-1.873-.058-.069-.069-.173 0-.243.057-.058.184-.069.241 0a4.35 4.35 0 0 1 .897 2.115c.011.093-.092.173-.173.173-.103 0-.161-.081-.172-.173z" class="B"/><path d="M152.323 146.679c-5.944 6.659-16.384 8.554-31.113 3.11-14.741-5.445-37.886-23.387-37.886-23.387l28.894-30.796 40.094 51.073h.011z" class="D"/><path d="M110.01 114.714l-3.702 5.063-3.955 4.844-4.209 4.636-4.427 4.381-4.645 4.127-.586.497c-.172.139-.414-.104-.241-.243l4.668-4.103 4.438-4.336 4.208-4.577 3.99-4.821 3.726-5.017.436-.636c.127-.185.426 0 .299.173v.012z" class="B"/><path d="M0 165.995c5.623-6.508 40.977-39.535 46.358-46.24 5.657-7.052 11.188-14.208 16.592-21.467l3.932-5.306c1.161-1.514 2.392-2.994 3.852-4.231 1.564-1.306 3.369-2.254 5.381-2.613 2.196-.382 4.45-.093 6.577.486 4.001 1.087 7.819 3.063 11.406 5.121 3.507 2.011 6.865 4.3 10.084 6.751 6.083 4.624 11.694 9.814 17.27 15.028 0 0-7.508 15.363-26.238 30.831l-5.508-4.867c-1.219 1.295-17.868 14.45-26.009 21.028-2.507 2.023-14.878 15.549-17.339 13.479l-15.858 5" class="G"/><path d="M90.717 73.295c.023-.751.184-1.607.874-2.023.759-.451 1.713-.116 2.311.451.322.301.563.659.782 1.04a10.42 10.42 0 0 1 .609 1.249c.356.867.598 1.78.77 2.705.138.763.218 1.526.264 2.289l.598-2.959c.437-1.792 1.012-3.549 1.702-5.26a35.59 35.59 0 0 1 2.461-4.913l.736-1.179c.23-.347.471-.694.782-.971.276-.254.621-.439.988-.474.322-.035.667.035.932.231.345.116.621.405.759.763.207.509.207 1.098.138 1.642-.012.127-.035.254-.058.393.058-.104.104-.208.15-.312l.919-1.584c.288-.439.61-.856 1.024-1.179.379-.301.851-.497 1.345-.462.471.035.885.312 1.184.67.529.647.61 1.422.518 2.196.414-.647.977-1.179 1.782-1.121.586.035 1.127.405 1.472.867.414.543.552 1.225.563 1.884.012.74-.103 1.491-.195 2.231l-.345 2.335-.886 4.67-1.057 4.613-.426 1.734 7.761 6.034a189.06 189.06 0 0 1 9.946 8.774 184.4 184.4 0 0 1 9.417 9.572c8.06 8.809 19.604 21.375 16.339 34.565-.449 1.815-1.254 3.572-2.576 4.913-1.334 1.353-3.127 2.139-5.002 2.37-4.231.543-8.152-1.549-11.498-3.919a54.33 54.33 0 0 1-9.094-8.115c-1.76-1.965-3.369-4.058-4.83-6.254-.069-.07-.138-.151-.207-.22l-10.405-11.017-9.866-10.531c-2.978-3.341-5.783-6.925-7.761-10.971-1.817-3.734-2.978-7.919-2.76-12.104l-.092-6.173-.046-3.318-.023-1.642c0-.497-.023-.994-.011-1.491h.011z" class="D"/><path d="M129.672 136.991l-6.094-4.843-5.669-5.283-3.024-3.179c-.149-.162.092-.417.242-.243l5.427 5.526 5.841 5.086 3.438 2.636c.08.058.115.15.057.243-.046.069-.161.115-.241.057h.023zm24.353 6.37c1.645-5.017 1.196-10.497-.471-15.456-1.644-4.902-4.45-9.329-7.531-13.433-2.967-3.942-6.255-7.607-9.785-11.052-3.633-3.537-7.497-6.855-11.487-9.988-3.92-3.087-7.968-6-12.119-8.786l-1.471-.971c-.184-.127-.012-.428.172-.301a204.93 204.93 0 0 1 12.211 8.682c4.07 3.144 8.026 6.451 11.763 9.999 3.598 3.41 7.002 7.052 10.049 10.982 3.139 4.058 6.048 8.37 7.945 13.167 1.909 4.844 2.725 10.254 1.575 15.387-.138.624-.31 1.249-.517 1.861-.069.208-.403.116-.334-.092zm-43.313-77.939l-1.989 5.017-1.702 5.11-.827 2.936c-.058.22-.391.127-.334-.092l1.541-5.202 1.84-5.11 1.172-2.844c.035-.081.161-.104.242-.058.092.058.103.15.057.243zm-5.071.416l-1.828 4.497-1.609 4.589-.817 2.636c-.057.208-.391.127-.333-.093l1.494-4.67 1.725-4.589 1.069-2.543c.035-.081.161-.104.242-.058.092.046.103.15.057.243v-.012zm-8.91 11.201a23.64 23.64 0 0 0-1.265 5.699l-.103 1.665c0 .22-.356.22-.345 0a24.56 24.56 0 0 1 .874-5.849l.506-1.607c.069-.208.402-.116.334.093z" class="B C H I"/><path d="M153.358 54.034c1.437 1.873 2.507 4.011 3.3 6.231.793 2.208 1.334 4.52 1.61 6.855.264 2.115.276 4.243.057 6.37-.241 2.312-.713 4.612-1.437 6.832-.724 2.231-1.713 4.404-3.07 6.323l-.494.67c-.138.173-.38-.069-.242-.243 1.414-1.827 2.449-3.93 3.231-6.092a31.66 31.66 0 0 0 1.598-6.751c.265-2.081.311-4.185.115-6.266-.218-2.289-.69-4.555-1.402-6.74-.725-2.22-1.714-4.381-3.047-6.3l-.506-.682c-.138-.173.161-.347.299-.173l-.012-.035z" class="B"/><path d="M111.931 82.045l-.472 1.514c-.069.208-.402.127-.333-.093l.471-1.514c.069-.208.403-.127.334.093zm-21.042-5.884l.115 6.52.034 1.838c0 .22-.345.22-.345 0l-.115-6.52-.035-1.838c0-.22.345-.22.345 0zm-2.931 8.809a11.47 11.47 0 0 1-3.38-1.306c-.195-.116-.023-.416.172-.301a10.94 10.94 0 0 0 3.3 1.272c.219.046.127.381-.092.335z" class="C H I B"/><path d="M17.589 103.178a29.86 29.86 0 0 1 14.752-13.445c9.831-4.127 20.949-3.41 29.653-10.497 4.714-3.838 7.037-8.913 8.29-14.785.081-.358.195-1.803.345-3.306-1.932 2.555-6.588 2.925-10.889.74-4.657-2.37-7.508-6.254-5.553-10 1.84-3.526 6.657-3.78 11.314-1.41 3.139 1.595 5.289 4.15 5.876 6.612 1-1.075 2.116-2.035 3.369-2.786a3.32 3.32 0 0 1 1.483.763c.494.439.874.983 1.196 1.549.092.162.184.324.31.474.402.462.977.751 1.38 1.225.414.486.747 1.052 1 1.642.517 1.191-2.104 2.358-1.886 3.63 1.288 7.468 3.277 15.236 2.679 22.727 0 0 .046 3.399-1.575 7.792-2.001 6.948-5.094 13.549-9.118 19.548-4.519 6.752-10.187 12.728-16.661 17.607-6.565 4.959-14.43 9.19-22.904 8.462-3.806-.336-7.577-1.665-10.498-4.174-2.783-2.393-4.634-5.687-5.634-9.19-2.208-7.676-.667-16.242 3.059-23.178h.012z" class="F"/><path d="M140.71 49.688c-2.587.959-4.691 2.948-6.243 5.191-1.886 2.717-3.082 5.896-3.76 9.121-.771 3.699-.874 7.56-.334 11.294.495 3.399 1.53 6.751 3.266 9.711 1.426 2.439 3.38 4.67 5.91 5.977.276.15.563.278.851.393.207.081.115.416-.092.335-2.633-1.075-4.737-3.133-6.313-5.48-1.908-2.844-3.104-6.162-3.737-9.526a33.36 33.36 0 0 1-.138-11.502c.564-3.399 1.668-6.751 3.496-9.676 1.495-2.416 3.541-4.601 6.128-5.826.288-.139.587-.254.874-.37.207-.081.299.254.092.335v.023zm30.16.058c-2.564 1.006-4.645 3.006-6.186 5.26-1.874 2.751-3.059 5.942-3.714 9.19-.747 3.688-.839 7.537-.276 11.26.506 3.353 1.541 6.67 3.266 9.595 1.425 2.416 3.369 4.636 5.875 5.942.276.15.563.277.851.393.207.081.115.416-.092.335-2.61-1.075-4.703-3.121-6.278-5.445-1.897-2.821-3.093-6.104-3.737-9.445a33.14 33.14 0 0 1-.184-11.421c.541-3.41 1.633-6.786 3.438-9.745 1.483-2.416 3.495-4.624 6.06-5.884a11.7 11.7 0 0 1 .873-.382c.207-.081.299.254.092.335l.012.012z" class="B"/><path d="M77.885 70.613c.552-1.306 2.024-2.035 3.403-1.861 2.668.347 5.473 5.052 3.449 7.341-.598.671-1.518.971-2.403.936-2.656-.116-5.565-3.769-4.461-6.416h.011z" class="D"/><path d="M79.805 70.936c-.242.67-.242 1.422.046 2.069.253.578.701 1.04 1.253 1.329.195.104.023.405-.172.3a3.12 3.12 0 0 1-1.391-1.491c-.322-.728-.345-1.561-.069-2.312.034-.092.115-.15.207-.127.081.023.15.127.127.208v.023z" class="B C H I"/><path d="M81.458 79.121a1.93 1.93 0 0 0 1.429-2.321 1.92 1.92 0 0 0-2.309-1.437 1.93 1.93 0 0 0-1.429 2.321 1.92 1.92 0 0 0 2.309 1.437z" fill="#efcb3a"/><path d="M187.185 69.895l-.092 2.543c-2.322 3.849-7.186 10.624-12.797 10.982-5.622.347-10.475-5.815-12.797-9.375-.058-.821-.092-1.665-.092-2.52s.034-1.699.092-2.532c2.322-3.849 7.186-10.635 12.797-10.982s10.475 5.815 12.797 9.375a36.13 36.13 0 0 1 .092 2.532v-.023z" fill="#fddfd8"/><path d="M180.807 70.9c.187-5.488-2.29-10.026-5.534-10.138s-6.023 4.246-6.21 9.734 2.291 10.026 5.534 10.138 6.024-4.246 6.21-9.734z" fill="#0063cb"/><path d="M156.877 69.895l-.092 2.543c-2.323 3.849-7.187 10.624-12.798 10.982-5.622.347-10.474-5.815-12.797-9.375a36.41 36.41 0 0 1-.092-2.52c0-.855.035-1.699.092-2.532 2.323-3.849 7.186-10.635 12.797-10.982s10.475 5.815 12.798 9.375a36.75 36.75 0 0 1 .092 2.532v-.023z" fill="#fddfd8"/><path d="M150.497 70.906c.187-5.488-2.291-10.026-5.534-10.138s-6.023 4.246-6.21 9.734 2.291 10.027 5.534 10.138 6.023-4.246 6.21-9.734z" fill="#0063cb"/><g stroke-linecap="round"><path d="M78.701 128.841l10.831 9.884" stroke="#474747" stroke-width=".75" class="C"/><path d="M19.671 130.274s5.795 14.601 24.169 2.798m14.211-75.337s-3.461-1.711-2.139-5.688" stroke="#5656c9" stroke-linejoin="round"/></g><path d="M30.778 41.574s-11.74-1.307-13.718 6.716c0 0 2.035 10.173 14.947 2.243l3.944-5.584-5.174-3.375zM46.3 36.383s7.888-8.844 2.541-15.121c0 0-9.417-4.254-10.509 10.924l2.231 6.474 5.737-2.277z" fill="#77b645" class="E"/><path d="M23.177 35.077c2.438 2.52 7.428 4.497 11.303 3.364l4.312 4.439-2.219.566c-2.921-2.867-8.589-3.607-12.245-2.624-13.74 3.699-10.302 16.601 3.438 12.901 3.691-.994 8.302-4.555 9.336-8.566l3.116-.798 11.153 9.861c.253.266.425.3.793-.058s.196-.855 0-1.075l-10.67-9.965.874-3.11c4.024-.948 7.669-5.491 8.75-9.179 4.013-13.71-8.727-17.491-12.74-3.769-1.069 3.653-.471 9.364 2.311 12.369l-.621 2.22-4.312-4.439c1.219-3.861-.621-8.924-3.07-11.445-9.107-9.387-18.604-.058-9.497 9.317l-.012-.011zm5.105-5.584l1.219-4.347c.69.428 1.391.983 2.093 1.688.149.15.299.312.437.497L30.72 31.99l-2.426-2.497h-.012zm5.002-.127c.92 1.919 1.414 4.277.92 6.231l-2.07-2.127 1.15-4.104zm-.334 7.491c-1.955.462-4.3-.104-6.197-1.087l4.116-1.064 2.081 2.15zm-8.187-2.405a9.35 9.35 0 0 1-.483-.451c-.701-.705-1.242-1.422-1.656-2.127l4.381-1.133 2.426 2.497-4.68 1.214h.011zm-2.875-4.219c-.517-1.676-.287-3.191.448-4.3l3.254 3.352-3.702.948zm1.725-5.537c1.127-.682 2.622-.879 4.266-.324l-1.023 3.653-3.242-3.329zm1.92 21.629l-2.99-3.075c.655-.3 1.403-.566 2.219-.786a11.43 11.43 0 0 1 1.023-.208l3.116 3.214-3.369.867v-.011zm2.598-4.208c2.242.069 4.645.671 6.128 1.965l-3.369.867-2.748-2.832h-.012zm6.531 3.711c-.678 1.919-2.529 3.734-4.473 4.948l1.138-4.092 3.346-.855h-.011zm-6.611 6.011a5.84 5.84 0 0 1-.724.231c-.931.254-1.794.393-2.599.462l1.23-4.474 3.369-.867-1.288 4.647h.011zm-5.14.671c-2.196-.231-3.679-1.237-4.312-2.555l5.404-1.387-1.081 3.85s-.011.058-.011.081v.012zm-4.657-4.3c.081-1.387.943-2.867 2.679-4.069l2.622 2.694-5.301 1.364v.012zm25.491-19.756l-.943 3.364-3.081-3.156a9.69 9.69 0 0 1 .253-1.133 14.66 14.66 0 0 1 .793-2.127l2.967 3.052h.011zm-4.185 2.578l2.691 2.774-.92 3.295c-1.207-1.491-1.736-3.849-1.771-6.058v-.012zm3.461 6.578l.931-3.329 4.128-1.052c-1.265 1.931-3.127 3.757-5.059 4.37v.012zm6.186-6.497l-4.703 1.191.943-3.364 4.53-1.145a14.29 14.29 0 0 1-.517 2.543c-.069.243-.161.509-.264.774h.011zm.816-5.133h-.15l-3.863.994 1.529-5.48c1.322.671 2.311 2.208 2.484 4.474v.012zm-4.22-4.844l-1.506 5.352-2.61-2.682c1.23-1.757 2.725-2.613 4.116-2.671z" fill="#18753c" class="E"/><defs ><path id="B" d="M174.296 90.623c7.201 0 13.039-8.964 13.039-20.022s-5.838-20.022-13.039-20.022-13.039 8.964-13.039 20.022 5.838 20.022 13.039 20.022z"/></defs></svg>