<svg width="50" height="50" viewBox="0 0 50 50" fill="none" xmlns="http://www.w3.org/2000/svg">
<path d="M29.0516 23.653C29.2666 23.868 29.5466 23.973 29.8266 23.973C30.1066 23.973 30.3891 23.8655 30.6041 23.653L34.8316 19.4255C35.3391 20.1205 35.7691 20.818 36.1366 21.5455C36.3616 21.988 36.6566 22.028 36.8116 22.013C36.9666 21.998 37.2466 21.9005 37.3766 21.4255L40.2016 11.0105C40.2891 10.6905 40.2241 10.393 40.0266 10.1955C39.8291 9.99804 39.5316 9.93554 39.2116 10.023L28.7966 12.848C28.3266 12.9755 28.2266 13.2555 28.2091 13.4105C28.1916 13.5655 28.2266 13.863 28.6616 14.0955C29.1616 14.363 29.9066 14.798 30.7666 15.4205L26.5666 19.6205C26.3591 19.828 26.2441 20.103 26.2441 20.3955C26.2441 20.688 26.3591 20.9655 26.5666 21.173L29.0466 23.653H29.0516ZM27.1541 20.203L31.6916 15.6655C31.7766 15.5805 31.8191 15.4655 31.8116 15.3455C31.8041 15.2255 31.7441 15.118 31.6491 15.0455C30.7616 14.373 29.9641 13.878 29.3766 13.5455L39.3966 10.828L36.6866 20.818C36.2691 20.0455 35.7716 19.2805 35.2016 18.5455C35.1291 18.453 35.0191 18.393 34.9016 18.3855C34.7841 18.378 34.6691 18.423 34.5841 18.5055L30.0216 23.0705C29.9141 23.178 29.7416 23.1755 29.6366 23.0705L27.1566 20.5905C27.1041 20.538 27.0766 20.4705 27.0766 20.398C27.0766 20.3255 27.1041 20.258 27.1566 20.2055L27.1541 20.203Z" fill="black"/>
<path d="M29.8273 24.0875C29.5023 24.0875 29.1998 23.9625 28.9698 23.7325L26.4898 21.25C26.2598 21.0225 26.1348 20.7175 26.1348 20.3925C26.1348 20.0675 26.2598 19.765 26.4898 19.535L30.5948 15.4325C29.7723 14.845 29.0673 14.4375 28.6123 14.1925C28.1173 13.9275 28.0773 13.5775 28.0998 13.3925C28.1198 13.2075 28.2348 12.8775 28.7723 12.7325L39.1873 9.90753C39.5498 9.81003 39.8873 9.88253 40.1123 10.11C40.3398 10.3375 40.4148 10.675 40.3173 11.035L37.4923 21.45C37.3473 21.99 37.0148 22.1025 36.8298 22.1225C36.6448 22.1425 36.2948 22.0975 36.0398 21.5925C35.6948 20.905 35.2948 20.25 34.8248 19.595L30.6923 23.7275C30.4623 23.955 30.1598 24.0825 29.8348 24.0825L29.8273 24.0875ZM29.1323 23.57C29.5023 23.94 30.1498 23.94 30.5223 23.57L34.8448 19.2475L34.9248 19.355C35.4373 20.0575 35.8673 20.755 36.2398 21.4925C36.4323 21.875 36.6748 21.91 36.8023 21.8975C36.9573 21.8825 37.1623 21.78 37.2673 21.395L40.0923 10.98C40.1673 10.7 40.1148 10.4425 39.9473 10.2775C39.7798 10.11 39.5248 10.0575 39.2448 10.135L28.8298 12.96C28.4248 13.07 28.3398 13.2975 28.3273 13.425C28.3123 13.5525 28.3448 13.795 28.7198 13.995C29.2023 14.2525 29.9598 14.6925 30.8398 15.33L30.9498 15.41L26.6548 19.705C26.4698 19.89 26.3673 20.1375 26.3673 20.4C26.3673 20.6625 26.4698 20.91 26.6548 21.095L29.1348 23.575L29.1323 23.57ZM29.8273 23.2625C29.7273 23.2625 29.6298 23.225 29.5548 23.15L27.0748 20.67C27.0023 20.5975 26.9623 20.5 26.9623 20.395C26.9623 20.2925 27.0023 20.195 27.0748 20.1225L31.6123 15.585C31.6723 15.525 31.7048 15.44 31.6998 15.355C31.6948 15.27 31.6523 15.19 31.5823 15.1375C30.8473 14.5775 30.0873 14.0775 29.3223 13.6475L29.0798 13.51L39.5623 10.6675L36.7248 21.1275L36.5873 20.875C36.1748 20.1075 35.6773 19.3475 35.1123 18.6175C35.0598 18.55 34.9798 18.5075 34.8948 18.5025C34.8098 18.495 34.7248 18.53 34.6648 18.59L30.1023 23.155C30.0273 23.23 29.9273 23.2675 29.8273 23.2675V23.2625ZM27.2348 20.2825C27.2048 20.3125 27.1898 20.3525 27.1898 20.395C27.1898 20.4375 27.2048 20.4775 27.2348 20.5075L29.7173 22.99C29.7798 23.0525 29.8798 23.05 29.9423 22.99L34.5048 18.425C34.6123 18.3175 34.7623 18.2625 34.9098 18.2725C35.0598 18.2825 35.1998 18.355 35.2948 18.475C35.8048 19.135 36.2623 19.82 36.6523 20.515L39.2348 10.9925L29.6748 13.585C30.3673 13.9875 31.0523 14.45 31.7198 14.955C31.8398 15.0475 31.9173 15.1875 31.9273 15.34C31.9373 15.4925 31.8823 15.64 31.7748 15.75L27.2373 20.2875L27.2348 20.2825Z" fill="black"/>
<path d="M21.0246 25.8441C20.5971 25.4166 19.8996 25.4166 19.4721 25.8441L15.2446 30.0716C14.7396 29.3791 14.3021 28.6691 13.9396 27.9516C13.7146 27.5091 13.4196 27.4666 13.2646 27.4841C13.1096 27.4991 12.8296 27.5966 12.6996 28.0716L9.8746 38.4866C9.7871 38.8066 9.8496 39.1041 10.0471 39.3016C10.1871 39.4416 10.3746 39.5141 10.5871 39.5141C10.6746 39.5141 10.7671 39.5016 10.8621 39.4766L21.2771 36.6516C21.7471 36.5241 21.8471 36.2441 21.8646 36.0891C21.8821 35.9316 21.8471 35.6366 21.4121 35.4041C20.9121 35.1366 20.1671 34.7016 19.3046 34.0791L23.5046 29.8791C23.7121 29.6716 23.8271 29.3966 23.8271 29.1041C23.8271 28.8116 23.7121 28.5341 23.5046 28.3291L21.0246 25.8491V25.8441ZM22.9221 29.2916L18.3846 33.8291C18.2996 33.9141 18.2571 34.0291 18.2646 34.1491C18.2721 34.2691 18.3321 34.3766 18.4271 34.4491C19.3146 35.1241 20.1121 35.6166 20.6996 35.9491L10.6796 38.6666L13.3896 28.6766C13.8046 29.4491 14.3046 30.2116 14.8721 30.9491C14.9446 31.0416 15.0546 31.1016 15.1721 31.1091C15.2921 31.1141 15.4071 31.0716 15.4896 30.9891L20.0521 26.4241C20.1571 26.3191 20.3321 26.3191 20.4371 26.4241L22.9171 28.9041C22.9696 28.9566 22.9971 29.0241 22.9971 29.0966C22.9971 29.1691 22.9696 29.2366 22.9171 29.2891L22.9221 29.2916Z" fill="black"/>
<path d="M10.5875 39.6277C10.3425 39.6277 10.1275 39.5427 9.96746 39.3827C9.73996 39.1552 9.66746 38.8177 9.76496 38.4577L12.59 28.0427C12.7375 27.5027 13.07 27.3902 13.255 27.3702C13.4 27.3527 13.775 27.3652 14.045 27.9002C14.385 28.5752 14.7925 29.2452 15.26 29.8977L19.3925 25.7652C19.62 25.5377 19.925 25.4102 20.2475 25.4102C20.5725 25.4102 20.875 25.5352 21.105 25.7652L23.585 28.2452C23.815 28.4752 23.94 28.7777 23.94 29.1027C23.94 29.4277 23.815 29.7302 23.585 29.9602L19.48 34.0652C20.3 34.6502 21.0075 35.0602 21.465 35.3052C21.96 35.5702 21.9975 35.9202 21.9775 36.1052C21.9575 36.2902 21.84 36.6202 21.305 36.7652L10.89 39.5902C10.7875 39.6177 10.685 39.6327 10.585 39.6327L10.5875 39.6277ZM13.3225 27.5952C13.305 27.5952 13.29 27.5952 13.2775 27.5977C13.1475 27.6102 12.92 27.6927 12.81 28.1002L9.98496 38.5152C9.90996 38.7952 9.96246 39.0502 10.1275 39.2177C10.295 39.3852 10.56 39.4352 10.83 39.3602L21.245 36.5352C21.63 36.4302 21.7325 36.2252 21.75 36.0702C21.7675 35.9152 21.7125 35.6902 21.3575 35.5002C20.875 35.2427 20.115 34.8002 19.2375 34.1652L19.1275 34.0852L23.4225 29.7902C23.6075 29.6052 23.71 29.3577 23.71 29.0952C23.71 28.8327 23.6075 28.5852 23.4225 28.4002L20.9425 25.9202C20.7575 25.7352 20.51 25.6327 20.2475 25.6327C19.985 25.6327 19.7375 25.7352 19.5525 25.9202L15.23 30.2427L15.15 30.1352C14.6425 29.4402 14.2 28.7202 13.835 27.9977C13.6575 27.6452 13.44 27.5902 13.32 27.5902L13.3225 27.5952ZM10.5175 38.8327L13.355 28.3727L13.4925 28.6252C13.905 29.3952 14.4025 30.1527 14.965 30.8827C15.0175 30.9502 15.095 30.9927 15.1825 30.9977C15.2725 31.0027 15.3525 30.9702 15.4125 30.9102L19.975 26.3452C20.125 26.1927 20.3725 26.1952 20.5225 26.3452L23.0025 28.8252C23.075 28.8977 23.115 28.9952 23.1175 29.0977C23.1175 29.2027 23.0775 29.2977 23.005 29.3702L18.4675 33.9077C18.4075 33.9677 18.375 34.0527 18.38 34.1377C18.385 34.2227 18.4275 34.3027 18.4975 34.3552C19.23 34.9127 19.99 35.4152 20.7575 35.8477L21 35.9852L10.5175 38.8277V38.8327ZM13.425 28.9827L10.8425 38.5052L20.4025 35.9127C19.7075 35.5077 19.0225 35.0477 18.3575 34.5427C18.2375 34.4502 18.16 34.3127 18.15 34.1602C18.14 34.0077 18.195 33.8577 18.3025 33.7502L22.84 29.2127C22.87 29.1827 22.885 29.1427 22.885 29.1027C22.885 29.0602 22.8675 29.0202 22.8375 28.9902L20.3575 26.5102C20.295 26.4477 20.195 26.4477 20.135 26.5102L15.5725 31.0752C15.465 31.1802 15.325 31.2352 15.1675 31.2277C15.0125 31.2177 14.875 31.1427 14.7825 31.0227C14.2725 30.3627 13.8175 29.6777 13.425 28.9852V28.9827Z" fill="black"/>
<path d="M19.7146 15.3891C20.4096 14.8816 21.1071 14.4516 21.8346 14.0841C22.2771 13.8616 22.3171 13.5641 22.3021 13.4091C22.2871 13.2541 22.1896 12.9716 21.7146 12.8441L11.2996 10.0191C10.9796 9.93163 10.6821 9.99413 10.4846 10.1916C10.2871 10.3891 10.2246 10.6866 10.3121 11.0066L13.1371 21.4216C13.2646 21.8916 13.5446 21.9916 13.6996 22.0091C13.8546 22.0266 14.1521 21.9916 14.3846 21.5566C14.6521 21.0591 15.0871 20.3116 15.7096 19.4516L19.9096 23.6516C20.1246 23.8666 20.4046 23.9716 20.6846 23.9716C20.9646 23.9716 21.2471 23.8641 21.4621 23.6491L23.9421 21.1691C24.3696 20.7416 24.3696 20.0441 23.9421 19.6166L19.7146 15.3891ZM23.3596 20.5866L20.8796 23.0666C20.7721 23.1741 20.5996 23.1741 20.4946 23.0666L15.9571 18.5291C15.8796 18.4516 15.7746 18.4091 15.6646 18.4091C15.6546 18.4091 15.6471 18.4091 15.6371 18.4091C15.5171 18.4166 15.4096 18.4766 15.3371 18.5716C14.6621 19.4591 14.1696 20.2566 13.8371 20.8441L11.1196 10.8266L21.1096 13.5366C20.3371 13.9541 19.5746 14.4516 18.8371 15.0216C18.7421 15.0941 18.6846 15.2041 18.6771 15.3216C18.6696 15.4391 18.7146 15.5566 18.7971 15.6391L23.3621 20.2041C23.4671 20.3091 23.4671 20.4841 23.3621 20.5891L23.3596 20.5866Z" fill="black"/>
<path d="M20.6841 24.0881C20.3591 24.0881 20.0566 23.9631 19.8266 23.7331L15.7216 19.6281C15.1341 20.4506 14.7266 21.1556 14.4816 21.6106C14.2066 22.1256 13.8316 22.1406 13.6816 22.1231C13.4991 22.1031 13.1691 21.9881 13.0216 21.4506L10.1966 11.0356C10.0991 10.6731 10.1716 10.3356 10.3991 10.1081C10.6266 9.88058 10.9641 9.80808 11.3266 9.90558L21.7416 12.7306C22.2816 12.8781 22.3941 13.2106 22.4116 13.3956C22.4316 13.5806 22.3866 13.9306 21.8816 14.1856C21.1941 14.5306 20.5416 14.9306 19.8866 15.4006L24.0191 19.5331C24.2491 19.7606 24.3741 20.0656 24.3741 20.3906C24.3741 20.7156 24.2491 21.0181 24.0191 21.2481L21.5391 23.7281C21.3091 23.9581 21.0066 24.0831 20.6816 24.0831L20.6841 24.0881ZM15.6941 19.2756L19.9891 23.5706C20.3591 23.9406 21.0091 23.9406 21.3791 23.5706L23.8591 21.0906C24.0441 20.9056 24.1466 20.6581 24.1466 20.3956C24.1466 20.1331 24.0441 19.8856 23.8591 19.7006L19.5366 15.3781L19.6441 15.2981C20.3466 14.7856 21.0441 14.3556 21.7816 13.9856C22.1641 13.7931 22.1991 13.5506 22.1866 13.4231C22.1741 13.2956 22.0916 13.0681 21.6841 12.9581L11.2691 10.1331C10.9891 10.0581 10.7316 10.1081 10.5641 10.2756C10.3966 10.4431 10.3441 10.7006 10.4191 10.9806L13.2441 21.3956C13.3541 21.8006 13.5816 21.8856 13.7066 21.9006C13.8341 21.9156 14.0766 21.8831 14.2791 21.5081C14.5366 21.0256 14.9766 20.2681 15.6116 19.3881L15.6916 19.2781L15.6941 19.2756ZM20.6841 23.2631C20.5841 23.2631 20.4866 23.2256 20.4116 23.1506L15.8741 18.6131C15.8191 18.5581 15.7416 18.5256 15.6641 18.5256C15.5591 18.5331 15.4791 18.5756 15.4266 18.6431C14.8691 19.3781 14.3666 20.1381 13.9366 20.9031L13.7991 21.1456L10.9566 10.6631L21.4166 13.5006L21.1641 13.6381C20.3966 14.0531 19.6366 14.5481 18.9091 15.1131C18.8416 15.1656 18.7991 15.2456 18.7941 15.3306C18.7891 15.4156 18.8216 15.5006 18.8816 15.5606L23.4466 20.1231C23.5966 20.2731 23.5966 20.5206 23.4466 20.6706L20.9666 23.1506C20.8916 23.2256 20.7916 23.2631 20.6916 23.2631H20.6841ZM15.6616 18.2956C15.8016 18.2956 15.9366 18.3531 16.0341 18.4506L20.5716 22.9881C20.6341 23.0506 20.7341 23.0506 20.7966 22.9881L23.2766 20.5081C23.3066 20.4781 23.3216 20.4381 23.3216 20.3956C23.3216 20.3531 23.3066 20.3131 23.2766 20.2831L18.7116 15.7181C18.6041 15.6106 18.5491 15.4631 18.5591 15.3106C18.5691 15.1581 18.6416 15.0181 18.7616 14.9256C19.4216 14.4156 20.1066 13.9606 20.7991 13.5681L11.2766 10.9856L13.8691 20.5431C14.2741 19.8506 14.7341 19.1656 15.2391 18.4981C15.3316 18.3781 15.4716 18.3006 15.6241 18.2906H15.6591L15.6616 18.2956Z" fill="black"/>
<path d="M37.3781 28.5091C37.2506 28.0391 36.9706 27.9391 36.8156 27.9216C36.6556 27.9041 36.3631 27.9391 36.1306 28.3741C35.8631 28.8741 35.4281 29.6216 34.8056 30.4816L30.6056 26.2816C30.1781 25.8541 29.4831 25.8541 29.0531 26.2816L26.5706 28.7616C26.1431 29.1891 26.1431 29.8866 26.5706 30.3141L30.7981 34.5416C30.1031 35.0491 29.4056 35.4791 28.6781 35.8466C28.2356 36.0691 28.1956 36.3641 28.2106 36.5216C28.2256 36.6766 28.3231 36.9591 28.7981 37.0866L39.2131 39.9116C39.3081 39.9366 39.4006 39.9491 39.4881 39.9491C39.7006 39.9491 39.8881 39.8766 40.0281 39.7366C40.2256 39.5391 40.2881 39.2416 40.2006 38.9216L37.3756 28.5066L37.3781 28.5091ZM29.4081 36.3966C30.1856 35.9791 30.9331 35.4916 31.6806 34.9116C31.7731 34.8391 31.8331 34.7291 31.8406 34.6116C31.8481 34.4941 31.8031 34.3766 31.7206 34.2941L27.1556 29.7316C27.0481 29.6241 27.0481 29.4516 27.1556 29.3466L29.6356 26.8666C29.7406 26.7591 29.9156 26.7591 30.0206 26.8666L34.5581 31.4041C34.6431 31.4891 34.7581 31.5291 34.8781 31.5241C34.9981 31.5166 35.1056 31.4566 35.1781 31.3616C35.8531 30.4766 36.3481 29.6766 36.6781 29.0891L39.3956 39.1066L29.4081 36.3991V36.3966Z" fill="black"/>
<path d="M39.4905 40.0652C39.3905 40.0652 39.288 40.0502 39.1855 40.0227L28.7705 37.1977C28.228 37.0502 28.118 36.7177 28.098 36.5327C28.0805 36.3477 28.123 35.9977 28.628 35.7452C29.313 35.4002 29.968 35.0027 30.6255 34.5302L26.493 30.3977C26.0205 29.9252 26.0205 29.1552 26.493 28.6827L28.9755 26.2027C29.203 25.9752 29.508 25.8477 29.833 25.8477C30.158 25.8477 30.4605 25.9727 30.6905 26.2027L34.7955 30.3077C35.383 29.4852 35.793 28.7777 36.0355 28.3227C36.298 27.8327 36.648 27.7877 36.833 27.8102C37.018 27.8302 37.348 27.9452 37.493 28.4827L40.318 38.8977C40.4155 39.2602 40.343 39.5952 40.1155 39.8227C39.9555 39.9827 39.7405 40.0677 39.4955 40.0677L39.4905 40.0652ZM29.828 26.0752C29.5655 26.0752 29.318 26.1777 29.133 26.3627L26.6505 28.8427C26.268 29.2252 26.268 29.8502 26.6505 30.2327L30.973 34.5552L30.8655 34.6352C30.163 35.1502 29.463 35.5802 28.728 35.9502C28.3455 36.1427 28.3105 36.3827 28.323 36.5102C28.3355 36.6377 28.418 36.8652 28.8255 36.9777L39.2405 39.8027C39.5205 39.8802 39.778 39.8252 39.9455 39.6602C40.113 39.4927 40.1655 39.2377 40.088 38.9577L37.263 28.5427C37.153 28.1377 36.9255 28.0527 36.798 28.0377C36.643 28.0202 36.4155 28.0752 36.228 28.4302C35.9705 28.9102 35.5305 29.6702 34.893 30.5502L34.813 30.6602L30.518 26.3652C30.333 26.1802 30.0855 26.0777 29.823 26.0777L29.828 26.0752ZM39.5605 39.2677L29.1005 36.4327L29.353 36.2952C30.128 35.8777 30.8655 35.3952 31.608 34.8202C31.6755 34.7677 31.718 34.6877 31.723 34.6027C31.728 34.5177 31.698 34.4352 31.6355 34.3727L27.073 29.8102C26.923 29.6602 26.923 29.4127 27.073 29.2627L29.5555 26.7827C29.628 26.7102 29.7255 26.6702 29.828 26.6702C29.933 26.6702 30.028 26.7102 30.103 26.7827L34.6405 31.3202C34.698 31.3777 34.783 31.4102 34.8755 31.4077C34.958 31.4027 35.038 31.3602 35.088 31.2902C35.648 30.5552 36.148 29.7952 36.5805 29.0302L36.718 28.7877L39.5605 39.2702V39.2677ZM29.713 36.3602L39.233 38.9427L36.6405 29.3852C36.2355 30.0777 35.7755 30.7652 35.2705 31.4302C35.178 31.5502 35.038 31.6277 34.8855 31.6377C34.728 31.6452 34.5805 31.5877 34.478 31.4852L29.9405 26.9477C29.9105 26.9177 29.8705 26.9027 29.828 26.9027C29.7855 26.9027 29.7455 26.9202 29.718 26.9477L27.2355 29.4277C27.173 29.4902 27.173 29.5902 27.2355 29.6527L31.798 34.2152C31.9055 34.3227 31.9605 34.4727 31.9505 34.6227C31.9405 34.7752 31.8655 34.9127 31.7455 35.0052C31.073 35.5252 30.403 35.9727 29.708 36.3627L29.713 36.3602Z" fill="black"/>
</svg>
