<svg width="50" height="50" viewBox="0 0 50 50" fill="none" xmlns="http://www.w3.org/2000/svg">
<path d="M5.2143 12.2516C5.1568 12.9216 5.0893 13.6841 5.4268 14.3591C5.4943 14.4891 5.5693 14.6166 5.6518 14.7391C5.7418 14.8566 5.8093 14.9891 5.8518 15.1316C5.8118 15.2391 5.7543 15.3391 5.6818 15.4266C5.5818 15.5641 5.4918 15.7116 5.4168 15.8666C5.0868 16.6141 5.3093 17.4891 5.9568 17.9866C6.0543 18.0566 6.1543 18.1191 6.2568 18.1766C6.3268 18.2116 6.3918 18.2541 6.4518 18.3016C6.6443 18.4791 6.4793 19.0166 6.3318 19.4916C6.2918 19.6241 6.2518 19.7516 6.2168 19.8766C5.8618 21.1741 6.1943 22.5191 6.4643 23.6017C6.5243 23.8941 6.6293 24.1741 6.7793 24.4341C6.8743 24.5791 6.9843 24.7141 7.1043 24.8391C7.1618 24.8992 7.2168 24.9592 7.2668 25.0266C7.3843 25.2192 7.4743 25.4291 7.5293 25.6466C7.6318 26.0366 7.8093 26.4042 8.0543 26.7241C8.4718 27.1516 9.0068 27.4492 9.5918 27.5766C9.9343 27.6491 10.2568 27.7992 10.5318 28.0191C10.8118 28.3167 10.8393 28.8667 10.8693 29.4492C10.9093 30.2442 10.9618 31.2341 11.7868 31.8217C11.8968 31.8967 12.0118 31.9642 12.1318 32.0242C12.2168 32.0642 12.2968 32.1117 12.3718 32.1717C12.4493 32.2592 12.4218 32.5517 12.3968 32.8092C12.2868 33.3342 12.3818 33.8817 12.6668 34.3392C12.9068 34.6292 13.2218 34.8467 13.5743 34.9717L13.6118 34.9892C14.3968 35.3367 15.1293 35.7892 15.7868 36.3392C16.0643 36.5242 16.2718 36.7967 16.3818 37.1142C16.3918 37.2592 16.3868 37.4066 16.3668 37.5491C16.2568 38.0516 16.3768 38.5742 16.6893 38.9791C16.9168 39.2117 17.2093 39.3691 17.5268 39.4316C17.8943 39.5091 18.2693 39.5567 18.6468 39.5742C19.2668 39.6166 19.8018 39.6541 20.0743 39.9716C20.1068 40.0117 20.1393 40.0541 20.1693 40.0966C20.2843 40.2742 20.4318 40.4291 20.5993 40.5541C21.3743 41.0942 22.1743 40.5742 22.7043 40.2291C22.9268 40.0841 23.3468 39.8116 23.4493 39.8717C23.5268 39.9492 23.5918 40.0366 23.6443 40.1316L23.7068 40.2316C23.7868 40.3541 23.8768 40.4716 23.9693 40.5841V38.7216C23.2318 38.3766 22.5318 38.8316 22.0143 39.1691C21.8068 39.3291 21.5718 39.4467 21.3193 39.5167C21.2718 39.4667 21.2293 39.4141 21.1918 39.3566C21.1418 39.2866 21.0893 39.2167 21.0343 39.1492C20.4193 38.4267 19.5243 38.3642 18.7343 38.3092C18.4268 38.2966 18.1243 38.2592 17.8218 38.1992C17.7518 38.1892 17.6843 38.1642 17.6218 38.1241C17.5943 37.9716 17.5943 37.8141 17.6218 37.6616C17.6543 37.4191 17.6568 37.1742 17.6293 36.9317C17.4918 36.2966 17.1218 35.7367 16.5918 35.3617C15.8418 34.7392 15.0093 34.2217 14.1193 33.8267L14.0793 33.8092C13.9318 33.7592 13.7943 33.6817 13.6768 33.5792C13.6118 33.3667 13.6018 33.1392 13.6493 32.9217C13.6943 32.4592 13.7543 31.8242 13.3093 31.3242C13.1393 31.1467 12.9368 31.0016 12.7143 30.8992C12.6443 30.8642 12.5768 30.8267 12.5143 30.7842C12.2093 30.5692 12.1643 30.1091 12.1293 29.3792C12.0918 28.6316 12.0468 27.7841 11.4518 27.1491C11.0343 26.7617 10.5243 26.4916 9.9668 26.3641C9.6143 26.2966 9.2868 26.1367 9.0168 25.9042C8.8818 25.7066 8.7843 25.4866 8.7268 25.2541C8.6318 24.9066 8.4818 24.5767 8.2818 24.2792C8.2018 24.1742 8.1168 24.0742 8.0268 23.9791C7.9593 23.9116 7.8993 23.8391 7.8418 23.7591C7.7668 23.6141 7.7143 23.4566 7.6843 23.2966C7.4393 22.3092 7.1618 21.1916 7.4293 20.2091C7.4593 20.0966 7.4968 19.9816 7.5318 19.8616C7.7618 19.1141 8.0768 18.0891 7.3018 17.3716C7.1718 17.2566 7.0268 17.1566 6.8743 17.0766C6.8143 17.0441 6.7593 17.0091 6.7043 16.9716C6.5343 16.8316 6.4743 16.5966 6.5543 16.3916C6.5993 16.3041 6.6518 16.2216 6.7118 16.1416C6.9218 15.8816 7.0543 15.5691 7.1018 15.2391C7.1093 14.8091 6.9718 14.3916 6.7068 14.0516C6.6493 13.9666 6.5968 13.8816 6.5493 13.7916C6.3718 13.4366 6.4168 12.9116 6.4643 12.3591C6.5318 11.5866 6.6068 10.7091 6.0668 9.99415C5.8693 9.73165 5.7368 9.42915 5.6793 9.10665C5.8968 9.17665 6.1268 9.20165 6.3543 9.17665C6.9918 9.08915 7.2793 8.56415 7.4693 8.21665C7.5318 8.07915 7.6168 7.95415 7.7168 7.84415C7.8668 7.72915 8.2193 7.89165 8.7043 8.13915C9.3543 8.46915 10.1618 8.87915 10.9643 8.43165C11.1893 8.30665 11.3143 8.05415 11.2818 7.79915C11.2168 7.48165 11.2393 7.15415 11.3493 6.85165C11.4293 6.69165 11.6118 6.58415 11.6968 6.61165C11.7643 6.64165 11.8293 6.67915 11.8918 6.72165C12.0418 6.82415 12.2068 6.90915 12.3793 6.96915C12.7468 7.06415 13.1343 7.05665 13.4968 6.94665L13.6143 6.92165C14.5243 6.73415 15.4893 6.88415 16.4818 7.07165C17.4143 7.24665 18.3743 7.46665 18.9968 8.05165C19.3793 8.46165 19.6918 8.93165 19.9218 9.44165C20.0018 9.59415 20.0843 9.74915 20.1668 9.89915C20.4993 10.4941 20.8843 11.0591 21.3193 11.5841C21.7218 12.1166 22.2468 12.5416 22.8493 12.8241C23.3718 13.0491 23.9593 13.0691 24.4968 12.8816C25.1593 13.7541 26.4418 15.1816 27.7793 15.2591C28.6193 15.3091 29.3868 14.9591 30.1293 14.6216C30.3968 14.4991 30.6593 14.3816 30.9118 14.2891V12.9616C30.4643 13.0966 30.0268 13.2691 29.6068 13.4716C28.9768 13.7566 28.3793 14.0266 27.8518 13.9991C27.1043 13.9566 25.9518 12.8091 25.1993 11.6966C25.0043 11.4066 24.6118 11.3316 24.3218 11.5266C24.2943 11.5441 24.2718 11.5641 24.2468 11.5866C23.9768 11.7741 23.6293 11.8016 23.3318 11.6591C22.9218 11.4516 22.5643 11.1516 22.2918 10.7791C21.9068 10.3141 21.5643 9.81415 21.2718 9.28665C21.1918 9.14415 21.1168 8.99915 21.0393 8.85415C20.7468 8.21665 20.3493 7.63415 19.8618 7.13165C18.9918 6.31415 17.8293 6.04165 16.7143 5.83165C15.6368 5.62915 14.4918 5.45165 13.3568 5.68665L13.2218 5.71665C13.0718 5.76415 12.9143 5.78165 12.7593 5.76915C12.6918 5.73915 12.6268 5.70165 12.5643 5.65915C12.4118 5.55415 12.2443 5.46915 12.0693 5.40915C11.3193 5.21415 10.5368 5.58415 10.2143 6.28915C10.0593 6.61415 9.9793 6.97165 9.9818 7.33165C9.7368 7.24665 9.4993 7.14165 9.2718 7.01665C8.6193 6.68665 7.7268 6.23165 6.9318 6.85415C6.6893 7.06665 6.4918 7.32665 6.3543 7.61665C6.2993 7.72665 6.2343 7.83165 6.1618 7.92915C6.0743 7.91165 5.9868 7.88915 5.9018 7.85915C5.6043 7.76665 4.9843 7.57165 4.5443 8.07915C4.4568 8.17915 4.4043 8.30415 4.3918 8.43665C4.3193 9.26665 4.5543 10.0941 5.0543 10.7616C5.3018 11.0891 5.2518 11.6566 5.2018 12.2566L5.2143 12.2516Z" fill="black"/>
<path d="M39.1222 15.2707C38.6697 15.3457 38.2072 15.3707 37.7497 15.3457C36.7922 15.2507 35.9397 14.6732 35.0347 14.0607C34.9297 13.9907 34.8222 13.9182 34.7147 13.8457V15.3682C35.5897 15.9507 36.5122 16.4907 37.6222 16.6032C38.1772 16.6407 38.7322 16.6132 39.2797 16.5232C39.6122 16.4807 39.9247 16.4407 40.2322 16.4332C40.8147 16.4157 41.5772 16.5807 41.8297 17.0907C41.9147 17.3032 41.9672 17.5257 41.9897 17.7557C42.0147 17.9432 42.0472 18.1282 42.0922 18.3132C42.1497 18.5407 42.2297 18.7632 42.3047 18.9757C42.4897 19.4882 42.6022 19.8407 42.4697 20.0482C42.4122 20.1257 42.3472 20.1957 42.2747 20.2582C42.1172 20.3982 41.9797 20.5582 41.8672 20.7332C41.6697 21.1007 41.5822 21.5182 41.6147 21.9332C41.6322 23.4207 41.9097 24.8907 42.4322 26.2832L42.4922 26.4382C42.6947 26.9682 42.8847 27.4682 42.7672 27.8707C42.7372 27.9607 42.7022 28.0482 42.6622 28.1332C42.5697 28.3257 42.5022 28.5282 42.4572 28.7382C42.3172 29.5232 42.7447 30.1532 43.0897 30.6582C43.3072 30.9257 43.4672 31.2357 43.5547 31.5707C43.6022 31.9482 43.3547 32.3507 43.0697 32.8157C42.8772 33.1107 42.7122 33.4182 42.5697 33.7407C42.4272 34.1207 42.3247 34.5107 42.2647 34.9107C42.2247 35.3532 42.0797 35.7832 41.8422 36.1582C41.5147 36.4857 41.1047 36.7182 40.6572 36.8357C39.4597 37.2957 38.2072 37.5982 36.9322 37.7357C36.5197 37.7807 36.1247 37.9282 35.7847 38.1632C35.7272 38.1982 35.6697 38.2282 35.6097 38.2532L35.5022 38.3032C34.4147 38.8357 33.9647 40.1507 34.4997 41.2382C34.6847 41.6157 34.9747 41.9307 35.3322 42.1482C35.2997 42.1782 35.2572 42.2132 35.2072 42.2532C34.9997 42.3832 34.7397 42.3907 34.5247 42.2732C34.4297 42.2257 34.3372 42.1657 34.2422 42.1082C33.8747 41.8757 33.3672 41.5582 32.7547 41.7582C32.4797 41.8607 32.2347 42.0332 32.0422 42.2582C32.0047 42.2982 31.9672 42.3382 31.9272 42.3757C31.4272 42.7607 30.7097 42.6682 30.3247 42.1682C30.3097 42.1482 30.2972 42.1307 30.2822 42.1107C30.2322 42.0182 30.1872 41.9132 30.1422 41.8107C29.9572 41.3857 29.6772 40.7432 28.9647 40.6132C28.8897 40.6007 28.8147 40.5932 28.7397 40.5932C28.5272 40.6007 28.3172 40.6407 28.1172 40.7107L28.0447 40.7332C27.9522 40.7607 27.8597 40.7832 27.7647 40.7982V41.3507C27.7647 41.6032 27.7147 41.8532 27.6172 42.0857C27.8847 42.0657 28.1497 42.0157 28.4072 41.9407L28.4922 41.9157C28.5697 41.8882 28.6497 41.8657 28.7297 41.8507C28.8372 41.9907 28.9222 42.1457 28.9797 42.3107C29.0397 42.4482 29.0997 42.5857 29.1672 42.7082C29.5197 43.3207 30.1347 43.7382 30.8347 43.8432C30.9697 43.8657 31.1072 43.8757 31.2447 43.8757C31.8122 43.8832 32.3597 43.6782 32.7822 43.3007C32.8397 43.2482 32.8922 43.1932 32.9472 43.1357C33.0047 43.0707 33.0672 43.0107 33.1372 42.9607C33.2872 43.0157 33.4322 43.0882 33.5647 43.1782C33.6922 43.2607 33.8222 43.3357 33.9572 43.4057C34.6097 43.7407 35.3972 43.6782 35.9872 43.2432C36.3672 42.9982 36.6322 42.6107 36.7197 42.1657C36.7472 41.8682 36.6472 41.5757 36.4497 41.3532C36.3772 41.2657 36.2797 41.2007 36.1722 41.1632C35.6822 41.0007 35.4172 40.4707 35.5797 39.9807C35.6597 39.7432 35.8322 39.5457 36.0572 39.4357L36.1422 39.3957C36.2597 39.3432 36.3722 39.2832 36.4797 39.2132C36.6447 39.0932 36.8372 39.0182 37.0372 38.9907C38.4172 38.8457 39.7697 38.5207 41.0672 38.0257C41.7447 37.8407 42.3547 37.4657 42.8247 36.9432C43.1972 36.4082 43.4297 35.7882 43.5022 35.1407C43.5497 34.8232 43.6297 34.5132 43.7372 34.2107C43.8522 33.9532 43.9872 33.7057 44.1422 33.4707C44.5022 32.8857 44.9097 32.2232 44.8047 31.4057C44.6997 30.8707 44.4697 30.3682 44.1297 29.9432C43.8297 29.5007 43.6497 29.2157 43.6972 28.9582C43.7247 28.8482 43.7647 28.7407 43.8147 28.6382C43.8772 28.5032 43.9297 28.3657 43.9747 28.2232C44.2147 27.4132 43.9122 26.6207 43.6697 25.9832L43.6122 25.8332C43.1397 24.5782 42.8922 23.2532 42.8747 21.9132C42.8572 21.7332 42.8797 21.5507 42.9447 21.3807C43.0022 21.3032 43.0697 21.2307 43.1422 21.1657C43.2872 21.0357 43.4172 20.8882 43.5272 20.7257C44.0047 19.9807 43.7197 19.1832 43.4897 18.5432C43.4197 18.3507 43.3547 18.1682 43.3122 18.0032C43.2797 17.8707 43.2572 17.7232 43.2347 17.5682C43.1997 17.2082 43.1047 16.8582 42.9597 16.5282C42.4447 15.4857 41.1997 15.1432 40.1972 15.1657C39.8372 15.1807 39.4747 15.2132 39.1172 15.2657L39.1222 15.2707Z" fill="black"/>
<path d="M17.3943 15.168C15.4368 15.168 13.8418 16.763 13.8418 18.718C13.8418 19.868 14.6943 20.9855 15.4768 21.933C16.2593 22.8805 17.0418 23.6105 17.0418 23.6105C17.2393 23.7955 17.5493 23.7955 17.7468 23.6105C17.7468 23.6105 18.5268 22.8805 19.3118 21.933C20.0968 20.9855 20.9468 19.868 20.9468 18.718C20.9468 16.7605 19.3493 15.168 17.3918 15.168H17.3943ZM18.5143 21.278C17.9568 21.953 17.6318 22.2505 17.3968 22.4805C17.1618 22.2505 16.8343 21.9555 16.2743 21.278C15.5393 20.388 14.8743 19.2455 14.8743 18.718C14.8743 17.3205 15.9943 16.2005 17.3918 16.2005C18.7893 16.2005 19.9118 17.3205 19.9118 18.718C19.9118 19.2455 19.2468 20.388 18.5118 21.278H18.5143Z" fill="black"/>
<path d="M17.443 17.2402C16.818 17.2402 16.3105 17.7477 16.3105 18.3727C16.3105 18.9977 16.818 19.5052 17.443 19.5052C18.068 19.5052 18.5755 18.9977 18.5755 18.3727C18.5755 17.7477 18.068 17.2402 17.443 17.2402Z" fill="black"/>
<path d="M26.6033 34.7031C24.6458 34.7031 23.0508 36.2981 23.0508 38.2531C23.0508 39.4031 23.9033 40.5206 24.6858 41.4681C25.4708 42.4156 26.2508 43.1456 26.2508 43.1456C26.4483 43.3306 26.7583 43.3306 26.9558 43.1456C26.9558 43.1456 27.7358 42.4156 28.5208 41.4681C29.3058 40.5206 30.1558 39.4031 30.1558 38.2531C30.1558 36.2956 28.5583 34.7031 26.6008 34.7031H26.6033ZM27.7233 40.8131C27.1658 41.4881 26.8408 41.7856 26.6058 42.0156C26.3708 41.7856 26.0433 41.4906 25.4833 40.8131C24.7483 39.9231 24.0833 38.7806 24.0833 38.2531C24.0833 36.8556 25.2033 35.7356 26.6008 35.7356C27.9983 35.7356 29.1208 36.8556 29.1208 38.2531C29.1208 38.7806 28.4558 39.9231 27.7208 40.8131H27.7233Z" fill="black"/>
<path d="M26.6501 36.7773C26.0251 36.7773 25.5176 37.2848 25.5176 37.9098C25.5176 38.5348 26.0251 39.0423 26.6501 39.0423C27.2751 39.0423 27.7826 38.5348 27.7826 37.9098C27.7826 37.2848 27.2751 36.7773 26.6501 36.7773Z" fill="black"/>
<path d="M33.2224 8.02734C31.2649 8.02734 29.6699 9.62234 29.6699 11.5773C29.6699 12.7273 30.5224 13.8448 31.3049 14.7923C32.0899 15.7398 32.8699 16.4698 32.8699 16.4698C33.0674 16.6548 33.3774 16.6548 33.5749 16.4698C33.5749 16.4698 34.3549 15.7398 35.1399 14.7923C35.9249 13.8448 36.7749 12.7273 36.7749 11.5773C36.7749 9.61984 35.1774 8.02734 33.2199 8.02734H33.2224ZM34.3449 14.1373C33.7874 14.8123 33.4624 15.1098 33.2274 15.3398C32.9924 15.1098 32.6649 14.8148 32.1049 14.1373C31.3699 13.2473 30.7049 12.1048 30.7049 11.5773C30.7049 10.1798 31.8249 9.05984 33.2224 9.05984C34.6199 9.05984 35.7424 10.1798 35.7424 11.5773C35.7424 12.1048 35.0774 13.2473 34.3424 14.1373H34.3449Z" fill="black"/>
<path d="M33.2692 10.1016C32.6442 10.1016 32.1367 10.6091 32.1367 11.2341C32.1367 11.8591 32.6442 12.3666 33.2692 12.3666C33.8942 12.3666 34.4017 11.8591 34.4017 11.2341C34.4017 10.6091 33.8942 10.1016 33.2692 10.1016Z" fill="black"/>
</svg>
