<svg width="50" height="50" viewBox="0 0 50 50" fill="none" xmlns="http://www.w3.org/2000/svg">
<path fill-rule="evenodd" clip-rule="evenodd" d="M40.6548 42.6445H40.1048V31.5795C40.4398 31.4345 40.5648 30.9745 40.2748 30.6845L37.9023 28.312V17.257C38.2373 17.112 38.3623 16.652 38.0723 16.362L32.5623 10.852C32.4598 10.7495 32.3198 10.6895 32.1723 10.6895H25.7823C25.6373 10.6895 25.4898 10.747 25.3823 10.862L20.4248 16.1045C20.3273 16.207 20.2748 16.342 20.2748 16.482V17.2995H16.9698C16.8248 17.2995 16.6773 17.357 16.5698 17.472L11.6123 22.7145C11.5148 22.817 11.4623 22.952 11.4623 23.092V32.727L10.5098 33.732C10.4123 33.8345 10.3598 33.9695 10.3598 34.1095V42.6395H9.80977C9.50477 42.6395 9.25977 42.887 9.25977 43.1895C9.25977 43.492 9.50727 43.7395 9.80977 43.7395H40.6623C40.9673 43.7395 41.2123 43.492 41.2123 43.1895C41.2123 42.887 40.9648 42.6395 40.6623 42.6395L40.6548 42.6445ZM33.4123 30.5245C33.3923 30.492 33.3698 30.4595 33.3423 30.432L29.2623 26.117H31.2898H32.3923H34.1423L38.5373 30.5245H33.4123ZM22.6248 30.4295C22.5273 30.532 22.4748 30.667 22.4748 30.807V33.827H21.2923C21.2723 33.7945 21.2498 33.762 21.2223 33.7345L17.1423 29.4195H22.0198L22.8198 30.222L22.6248 30.4295ZM30.8223 22.8095H22.3923C22.3723 22.777 22.3498 22.7445 22.3223 22.717L18.2423 18.402H26.4248L30.8198 22.8095H30.8223ZM23.5798 29.4195L22.6423 28.482C22.5923 28.432 22.5348 28.3945 22.4723 28.367V23.912H31.2873V25.0145H27.9823C27.8348 25.0145 27.6898 25.072 27.5798 25.187L23.5773 29.4195H23.5798ZM34.7623 25.1745C34.6598 25.072 34.5198 25.0145 34.3723 25.0145H32.3898V23.867C32.7248 23.722 32.8498 23.262 32.5598 22.972L31.2898 21.702V17.302H36.7998V27.2095L34.7648 25.1745H34.7623ZM36.3323 16.1995H31.2073C31.1873 16.167 31.1648 16.1345 31.1373 16.107L27.0573 11.792H31.9348L36.3298 16.1995H36.3323ZM21.3723 16.7145L25.7798 12.052L30.1873 16.7145V20.5995L27.0498 17.462C26.9473 17.3595 26.8073 17.2995 26.6598 17.2995H21.3698V16.712L21.3723 16.7145ZM12.5573 23.3245L16.9648 18.662L21.3723 23.3245V28.3195H15.8648C15.7173 28.3195 15.5723 28.377 15.4623 28.492L12.5573 31.5645V23.3245ZM14.7598 42.6445V37.1345H16.9623V42.6445H14.7598ZM18.0648 42.6445V36.5845C18.0648 36.2795 17.8173 36.0345 17.5148 36.0345H14.2098C13.9048 36.0345 13.6598 36.282 13.6598 36.5845V42.6445H11.4573V34.3445L15.8648 29.682L20.2723 34.3445V34.932V42.6445H18.0673H18.0648ZM21.3723 42.6445V34.932H22.4748V42.6445H21.3723ZM26.8798 42.6445V36.032H29.0848V42.6445H26.8798ZM30.1873 42.6445V35.482C30.1873 35.177 29.9398 34.932 29.6373 34.932H26.3323C26.0273 34.932 25.7823 35.1795 25.7823 35.482V42.6445H23.5773V31.0395L27.9848 26.377L32.3923 31.0395V42.6445H30.1898H30.1873ZM33.4923 42.6445V31.627H39.0023V42.6445H33.4923Z" fill="black"/>
<path fill-rule="evenodd" clip-rule="evenodd" d="M17.5152 33.8301H14.2102C13.9052 33.8301 13.6602 34.0776 13.6602 34.3801C13.6602 34.6826 13.9077 34.9301 14.2102 34.9301H17.5152C17.8202 34.9301 18.0652 34.6826 18.0652 34.3801C18.0652 34.0776 17.8177 33.8301 17.5152 33.8301Z" fill="black"/>
<path fill-rule="evenodd" clip-rule="evenodd" d="M19.1667 24.4641C19.1667 24.1591 18.9192 23.9141 18.6167 23.9141H15.3117C15.0067 23.9141 14.7617 24.1616 14.7617 24.4641C14.7617 24.7666 15.0092 25.0141 15.3117 25.0141H18.6167C18.9217 25.0141 19.1667 24.7666 19.1667 24.4641Z" fill="black"/>
<path fill-rule="evenodd" clip-rule="evenodd" d="M29.6343 31.625H26.3293C26.0243 31.625 25.7793 31.8725 25.7793 32.175C25.7793 32.4775 26.0268 32.725 26.3293 32.725H29.6343C29.9393 32.725 30.1843 32.4775 30.1843 32.175C30.1843 31.8725 29.9368 31.625 29.6343 31.625Z" fill="black"/>
<path fill-rule="evenodd" clip-rule="evenodd" d="M26.8802 15.6496C26.8802 15.3446 26.6327 15.0996 26.3302 15.0996H25.2277C24.9227 15.0996 24.6777 15.3471 24.6777 15.6496C24.6777 15.9521 24.9252 16.1996 25.2277 16.1996H26.3302C26.6352 16.1996 26.8802 15.9521 26.8802 15.6496Z" fill="black"/>
</svg>
