<svg width="34" height="45" viewBox="0 0 34 45" fill="none" xmlns="http://www.w3.org/2000/svg">
<g id="Calque_1" clip-path="url(#clip0_1284_95869)">
<path id="Vector" d="M18.3288 5.11855C15.1403 5.13437 13.0093 6.61592 12.9934 9.56847V29.5614C10.7508 31.0904 9.27344 33.5526 9.27344 36.3259C9.27344 40.9604 13.3441 44.7302 18.35 44.7302C23.356 44.7302 27.4266 40.9604 27.4266 36.3259C27.4266 33.5421 25.944 31.0746 23.6908 29.5456C23.6323 20.2029 23.7758 18.4103 23.6748 9.56319C23.6908 6.61064 21.5545 5.1291 18.3394 5.11328L18.3288 5.11855ZM18.3128 6.10977C20.481 6.12558 22.6173 7.11152 22.6014 9.56847C22.6386 18.7319 22.6173 20.4771 22.6173 29.7829C22.6173 29.941 22.7076 30.0939 22.8511 30.1836C24.9662 31.5175 26.3531 33.7794 26.3531 36.3312C26.3531 40.4331 22.7767 43.7442 18.3447 43.7442C13.9127 43.7442 10.3363 40.4279 10.3363 36.3312C10.3363 33.7846 11.718 31.5333 13.8224 30.1994C13.9658 30.1098 14.0509 29.9569 14.0562 29.7987V9.56847C14.0721 7.11152 16.2084 6.12558 18.3075 6.10977H18.3128Z" fill="#000091" stroke="#000091" stroke-miterlimit="10"/>
<path id="Vector_2" d="M2.91747 14.5977V22.2532H0C1.61019 24.8736 3.25227 26.7769 4.64458 29.0335C6.31322 26.2655 7.7693 24.7154 9.27321 22.2532H6.36636V14.5977H2.92279H2.91747Z" fill="#000091"/>
<path id="Vector_3" d="M18.2277 8.66152C17.9461 8.68788 17.7122 8.95678 17.7441 9.21512C17.776 9.47347 18.063 9.67382 18.3446 9.64746H20.4809C20.7626 9.64746 21.0123 9.41548 21.0123 9.15186C21.0123 8.88824 20.7626 8.65625 20.4809 8.65625C19.7369 8.65625 18.9611 8.65625 18.2277 8.65625V8.66152Z" fill="#000091"/>
<path id="Vector_4" d="M16.0969 10.6381C15.8152 10.6644 15.5814 10.9333 15.6133 11.1917C15.6452 11.45 15.9321 11.6504 16.2138 11.624H20.4864C20.768 11.624 21.0178 11.392 21.0178 11.1284C21.0178 10.8648 20.768 10.6328 20.4864 10.6328H16.0969V10.6381Z" fill="#000091"/>
<path id="Vector_5" d="M18.2277 12.6186C17.9461 12.6449 17.7122 12.9138 17.7441 13.1722C17.776 13.4305 18.063 13.6309 18.3446 13.6045H20.4809C20.7626 13.6045 21.0123 13.3725 21.0123 13.1089C21.0123 12.8453 20.7626 12.6133 20.4809 12.6133C19.7369 12.6133 18.9611 12.6133 18.2277 12.6133V12.6186Z" fill="#000091"/>
<path id="Vector_6" d="M16.0969 14.5951C15.8152 14.6215 15.5814 14.8904 15.6133 15.1487C15.6452 15.4071 15.9321 15.6074 16.2138 15.5811H20.4864C20.768 15.5811 21.0178 15.3491 21.0178 15.0855C21.0178 14.8218 20.768 14.5898 20.4864 14.5898H16.0969V14.5951Z" fill="#000091"/>
<path id="Vector_7" d="M18.2277 16.5717C17.9461 16.598 17.7122 16.8669 17.7441 17.1253C17.776 17.3836 18.063 17.584 18.3446 17.5576H20.4809C20.7626 17.5576 21.0123 17.3256 21.0123 17.062C21.0123 16.7984 20.7626 16.5664 20.4809 16.5664C19.7369 16.5664 18.9611 16.5664 18.2277 16.5664V16.5717Z" fill="#000091"/>
<path id="Vector_8" d="M16.0969 18.5482C15.8152 18.5746 15.5814 18.8435 15.6133 19.1018C15.6452 19.3602 15.9321 19.5605 16.2138 19.5342H20.4864C20.768 19.5342 21.0178 19.3022 21.0178 19.0386C21.0178 18.775 20.768 18.543 20.4864 18.543H16.0969V18.5482Z" fill="#000091"/>
<path id="Vector_9" d="M16.4256 21.4042C16.2184 21.594 16.2077 21.8207 16.2077 22.0053V32.3708C14.6401 33.1037 13.54 34.58 13.54 36.3093C13.54 38.761 15.6976 40.7592 18.344 40.7592C20.9905 40.7592 23.148 38.761 23.148 36.3093C23.148 34.5747 22.048 33.1037 20.4803 32.3708V22.0053C20.4856 21.6468 19.9702 21.3831 19.646 21.5888C18.6895 22 17.8923 21.4886 17.1112 21.2355C16.8454 21.1775 16.6063 21.3304 16.4256 21.4042Z" fill="#000091"/>
<path id="Vector_10" d="M28.1062 0C31.0662 0 33.9996 2.38313 33.9996 5.31986C33.9996 8.25659 31.0662 10.6397 28.1062 10.6397C27.5748 10.6397 27.0593 10.5659 26.5598 10.413C26.2835 10.3286 26.2835 9.93849 26.5598 9.8594C28.5632 9.26362 29.9609 7.42882 29.9609 5.31986C29.9609 3.2109 28.5632 1.3761 26.5598 0.780316C26.2835 0.695958 26.2835 0.3058 26.5598 0.226714C27.0593 0.0738137 27.5801 0 28.1062 0Z" fill="#000091"/>
</g>
<defs>
<clipPath id="clip0_1284_95869">
<rect width="34" height="45" fill="white"/>
</clipPath>
</defs>
</svg>
