<svg xmlns="http://www.w3.org/2000/svg" width="189" height="159" fill="none" xmlns:v="https://vecta.io/nano"><g clip-path="url(#B)"><path d="M97.56 62.724c-.342-3.265-2.826-6.365-5.322-8.245-3.992-2.998-8.769-4.815-11.1-9.554-1.749-3.557-2.801-7.064-6.463-9.109-3.117-1.741-6.665-1.906-10.061-1.169-.558.114-1.128.076-1.635-.152-3.776-1.728-8.579-.928-12.089 1.118-1.825 1.067-3.282 2.731-4.955 4.027-2.991 2.3-6.463 3.392-9.681 5.273-2.724 1.588-5.297 3.786-6.577 6.733-.71 1.613-1.229 2.935-2.636 4.091-.862.712-1.825 1.347-2.458 2.287-2.078 3.087.076 8.194 4.042 7.47 2.154-.394 4.372-.229 6.399.61.862.356 1.635.635 2.585.61.19 0 .38 0 .558.038 2.294.407 4.46 1.169 6.501 2.325.241.14.481 0 .57-.191.862.661 1.597 1.499 2.332 2.49.684.915 1.432 1.83 2.56 2.211 1.799.623 3.89.661 5.766.864 2.598.279 5.221.61 7.844.597 4.929-.038 9.833 3.24 14.433-.114 1.977-1.436 3.877-2.605 6.501-2.719 2.42-.102 4.98.991 7.362.203 2.319-.762 4.245-4.243 5.107-6.403.431-1.08.558-2.173.444-3.252l-.025-.038z" fill="#2d2e83"/><g fill="#f49e73"><path d="M129.823 134.429c-.786-2.16-2.42-4.015-4.575-4.891-2.889-1.182-5.955-11.333-10.543-.788-.671 1.537-3.966.915-5.195 2.338-.545.635-.583 1.346-.355 2.02-.127.178-.152.419.038.622 4.03 4.218 13.546 10.736 19.882 9.732 5.512-.864 2.306-4.713.735-9.033h.013zM89.628 87.117l-.127-.038c.114-.254 0-.61-.368-.584l-8.059.013c-2.446-.114-6.944.216-8.439-2.096-1.229-1.893-1.394-5.12-1.723-7.28-.406-2.63-.608-5.285-.672-7.94.216-.089.355-.318.177-.559-.063-.089-.139-.153-.203-.241v-.064c0-.241-.177-.368-.367-.394-2.065-2.414-4.853-4.116-8.047-4.802-2.61-.559-6.868-.851-8.629 1.525-.127.178-.089.343.038.47-.076.064-.114.165-.101.305.279 2.681 2.294 14.674-.558 15.83-2.268.915-5.626.521-8.059.635l-8.414.394c-.266 0-.406.216-.418.419a.38.38 0 0 0 .013.368c1.242 2.16 4.321 2.82 6.374 4.078 2.534 1.55 4.828 3.443 7.248 5.171 5.208 3.71 11.139 5.514 17.538 6.225 3.307.368 6.627.203 9.909-.241 3.51-.483 7.527-.889 10.796-2.274 3.497-1.486 6.564-6.556 2.078-8.919h.013z"/></g><path d="M116.162 97.713c-2.458-3.456-7.21-6.949-10.695-9.491-.165-.114-8.579-1.385-11.252 2.033-3.307 4.218-1.445 9.96-1.825 14.814-.469 5.996-3.447 9.439-3.206 15.512.089 2.223.558 4.421 1.584 6.403 1.28 2.465 3.269 4.396 3.916 7.166.152.622 1.102.355.963-.267 0-.025-.013-.051-.025-.076.051.101.139.19.266.241 5.69 2.198 11.633.419 16.676-2.579 2.94-1.753 5.753-3.697 8.402-5.87 1.33-1.092 2.61-2.236 3.839-3.443 1.204-1.181 3.371-2.159 3.434-3.887.14-4.015-9.288-16.656-12.063-20.556h-.013z" fill="#fff"/><g fill="#f49e73"><path d="M76.209 58.417c0-3.697.19-7.712-.874-11.282-1.635-5.514-6.627-8.944-12.165-9.16-6.577-2.617-14.129 1.461-17.196 7.737-1.292 2.643-.95 5.044.836 7.343 2.002 2.579 2.775 4.548 3.257 7.813l.19 1.143c-.355.114-.608.445-.431.902 2.332 5.717 5.474 9.363 11.874 9.732 4.549.254 11.772-.419 13.8-5.412 1.077-2.63.697-6.009.71-8.792v-.026zm-54.934 49.587c-3.751-4.638-10.809-9.313-12.672-3.342-.19.61-5.968 18.066-1.521 26.655 1.331 2.566 5.69 7.635 12.684 7.623 2.851 0 4.346-17.736 4.461-19.718.228-3.761-.52-8.22-2.953-11.231v.013z"/></g><path d="M111.816 156.739c-1.014-9.072-2.091-21.51-4.587-32.004-.33-1.397.456-2.795 1.799-3.316 2.065-.787 4.03-1.804 5.867-3.061 3.358-2.313 10.948-9.25 6.488-13.455 0-.076-.025-.14-.076-.216-1.926-3.062-4.004-6.022-6.285-8.83-2.205-2.719-4.562-5.692-7.679-7.42-5.956-3.303-15.523-5.514-21.669-3.43-.241.089-2.56.889-2.547 1.093-4.309 5.374-10.163 10.075-18.083 8.716-3.802-.648-7.438-2.084-10.86-3.837-3.764-1.918-6.386-4.447-8.731-7.94-.051-.076-.114-.127-.177-.165-.038-.089-.101-.178-.215-.229-5.525-2.516-13.28-5.107-19.35-3.151-6.361 2.058-11.05 8.817-14.991 13.823-.33.419.291 14.725 14.319 21.929.583.305.963 4.942 1.115 5.73l1.204 6.276c1.115 6.187 1.293 12.476 2.192 18.714.722 5.069 1.584 7.508 2.927 12.603l45.289.432h32.883s1.419-.241 1.204-2.261h-.038z" fill="#fff"/><g fill="#2d2e83"><path d="M66.362 38.725c-5.829-9.147-18.602-1.372-22.733 5.374-1.521 2.49-2.686 5.209-4.866 7.216-2.053 1.893-4.651 3.049-6.716 4.929-2.94 2.655-10.011 14.471-1.787 14.191-10.746.368 2.154-.813 4.866.203 1.597.597 2.762 1.982 4.296 2.706.874.419 1.825.572 2.762.813 1.102.292 1.951.508 2.737-.47 1.913-2.401 3.016-5.336 4.879-7.763 2.066-2.693 3.421-5.412 3.979-8.792.634-3.786.494-7.775 2.712-11.091 2.243-3.367 5.981-5.374 9.745-6.543.368-.114.368-.546.152-.762l-.025-.013z"/><path d="M77.273 40.63c-1.559-2.045-3.219-4.269-5.981-4.421-2.268-.127-5.385.369-6.425 2.617-.177.381.241.991.33.966 2.027-.737 4.688.47 5.233 3.113.241 1.194.38 2.3 1.166 3.278.925 1.156 2.382 1.715 3.396 2.77 1.229 1.27 1.888 2.96 2.205 4.675.355 1.88-.393 5.476 1.622 6.632 1.761 1.004 2.382-.902 2.471-2.325.393-5.819-.418-12.54-4.017-17.291v-.013z"/></g><path d="M29.639 91.424c-.342-3.392-3.611-12.019-3.966-11.917-3.561 1.067-7.033 4.078-9.402 6.454-4.106 4.116-4.372 4.129-7.717 8.881-2.636 3.761-4.194 8.335-6.336 12.413-1.166 2.223-4.093 10.888-.532 12.209.748.28 7.008 3.253 11.151 4.764 4.004 1.462 5.031 6.734 8.972 8.348 1.875.762 3.89 1.461 5.677 2.439.52.292 2.002-19.006 1.837-24.597-.19-6.327.938-12.666.292-18.968l.025-.025z" fill="#fff"/><g fill="#f49e73"><path d="M163.353 90.115c.595-.635 1.343-1.105 2.192-1.321 3.713-.94 8.706-.673 12.114-1.626 2.56-.711 5.766-2.007 7.54-4.065.697-.8.887-1.626.583-2.109.811-.788 3.269-3.189 2.129-4.002.773-.762 1.47-1.753.811-2.477-.799-.877-2.18-.292-3.168.394 0-.089-.026-.191-.102-.267-1.609-1.55-3.37.013-4.828.978-2.141 1.423-4.79 1.715-7.286 1.779-.494.013-.976.038-1.47.064-.583-.127-1.052-.394-.456-.991.494-.508 1.546-.28 2.167-.305 1.47-.076 4.359-.521 5.043-2.058.304-.673-.126-1.398-.785-1.639-.571-.203-1.204 0-1.774.102-1.331.241-2.623.406-3.967.483-3.966.203-8.122.165-11.759 2.16-3.345 1.829-6.26 4.332-8.503 7.419-.317.445 2.408 6.086 3.307 7.013 1.204 1.245 3.143 3.761 4.854 4.548.811-1.296 2.369-3.037 3.345-4.078h.013z"/><path d="M134.537 141.696l.722-.419c5.119-3.176 7.679-9.186 9.58-14.649 2.141-6.174 3.472-12.73 6.855-18.396 4.701-7.89 6.97-12.184 12.913-19.095.418-.483-9.91-9.77-10.366-9.325-10.746 10.354-20.338 15.932-27.776 28.878-3.092 5.374-7.312 15.233-7.375 21.662-.038 3.595-.267 7.343 2.382 10.151 3.333 3.532 9.01 3.341 13.077 1.194h-.012z"/></g><path d="M56.707 100.647c6.919 7.864 18.019 6.429 27.054 3.913.431-.114.241-.787-.177-.66-8.807 2.452-19.629 3.951-26.383-3.736-.291-.33-.773.153-.482.483h-.013z" fill="#2d0f15"/><g fill="#c55748"><path d="M184.539 81.057c-1.736-1.08-3.548 1.105-4.968 1.906-2.99 1.677-6.703 1.207-10.023 1.258-.38 0-.342.597.038.584 2.496-.025 5.246.254 7.705-.292.709-.152 1.381-.419 2.027-.737 1.115-.559 3.738-2.935 4.967-2.173.317.203.583-.33.254-.521v-.025zm1.42-3.71c-2.395-.305-4.435 2.236-6.437 3.227-3.054 1.512-6.513 1.169-9.833 1.194-.38 0-.342.584.038.584 2.547-.013 5.284.241 7.78-.381 1.153-.292 2.218-.788 3.232-1.385 1.419-.826 3.37-2.897 5.106-2.681.368.051.494-.534.114-.572v.013zm-2.509-1.601l-6.196 2.871c-2.383.864-4.904.648-7.388.406-.367-.038-.494.534-.114.572 2.116.203 4.283.419 6.387-.051 2.61-.572 5.094-2.109 7.489-3.252.342-.165.152-.724-.19-.559l.012.013zM56.137 69.851c4.093 2.922 9.2 3.799 14.04 2.414.355-.102.203-.661-.152-.559-4.701 1.347-9.618.483-13.597-2.35-.304-.216-.596.28-.291.496z"/></g><g fill="#81b6e0"><path d="M67.185 38.839a5.71 5.71 0 0 0-3.65-3.849c-.355-.127-.507.432-.152.559 1.584.546 2.788 1.829 3.244 3.443.101.356.659.203.558-.152zM49.7 38.572c-5.195 2.782-5.639 9.821-10.86 12.679-2.775 1.512-5.588 2.414-7.603 5.006-1.787 2.287-2.636 5.12-2.522 8.017.013.369.596.369.583 0-.139-3.316 1.077-6.568 3.497-8.881 2.319-2.211 5.576-2.77 8.034-4.739 3.941-3.163 4.575-9.122 9.187-11.587.329-.178.038-.673-.291-.495H49.7zm27.445 12.272c3.067 1.156 2.8 4.802 3.624 7.381.621 1.957 2.028 3.506 2.826 5.374.152.343.646.051.494-.292-.545-1.283-1.381-2.376-2.04-3.595-.887-1.614-1.026-3.265-1.445-5.006-.469-1.944-1.343-3.684-3.295-4.421-.342-.127-.494.432-.152.559h-.013z"/></g><path d="M48.811 65.391c-1.052.991-1.812 2.198-2.268 3.557-.114.356.444.508.558.153.431-1.271 1.14-2.389 2.116-3.303.266-.254-.139-.661-.406-.406z" fill="#66281b"/><g fill="#81b6e0"><path d="M59.077 37.695c-2.027.635-3.447 2.058-4.828 3.634-1.331 1.512-2.661 3.1-3.269 5.057-1.495 4.891 1.837 10.405-1.381 14.903-.215.305.279.597.494.292 2.42-3.379 1.255-7.445 1.077-11.269-.139-2.897.659-5.158 2.471-7.394 1.521-1.88 3.206-3.926 5.588-4.663.355-.114.203-.673-.152-.559zm10.555.648c4.03-1.525 6.653 2.49 8.325 5.488.177.33.684.038.494-.292-1.799-3.214-4.714-7.369-8.972-5.755-.342.127-.19.686.152.559z"/></g><g fill="#2d0f15"><path d="M35.075 137.084c1.521 6.62 3.776 13.01 6.741 19.121.19.394.786.051.596-.343-2.953-6.06-5.17-12.387-6.678-18.955-.101-.432-.76-.254-.659.177zm46.963-11.84a189.3 189.3 0 0 1-1.673 29.094c-.063.432.608.622.659.177a190.16 190.16 0 0 0 1.698-29.284c0-.445-.697-.445-.684 0v.013z"/></g><g fill="#f49e73"><path d="M46.974 88.094s.177.826-.241 1.779c-4.803 10.685-15.257 14.839-23.569 22.945-3.358 3.265-10.366 8.537-11.683 13.276-1.394 4.993 6.044 13.328 7.172 18.155a.42.42 0 0 0 .152.242.41.41 0 0 0 .127.495c4.638 3.926 10.733 2.338 15.51-.673 5.753-3.621 11.341-13.366 14.459-19.235 7.134-13.442 13.027-30.492 11.202-39.868-.444-2.287-9.998 1.626-13.128 2.871v.013z"/><path d="M55.731 73.688c-.317-.915-.076-3.341-.089-4.358-.051-2.249.773-4.574.367-6.823-.342-1.868-1.521-1.817-2.408-.991l.165-.8c.33-1.347 1.267-3.456.659-4.879-.672-1.601-2.002-.915-3.067.102.659-1.398 1.305-2.82 1.407-4.332.152-2.414-2.281-2.3-3.903-.915.19-1.359-.063-2.935-1.647-2.096-2.864 1.525-4.98 6.111-6.298 8.995-1.128 2.465-1.939 5.209-1.913 7.953.025 2.706 1.292 5.069 2.294 7.496 1.977 4.726 4.131 9.617 5.157 14.687-.038.051-.013-.076 0 0 1.204 5.895 9.377 4.713 12.456 4.79.177.076.418.051.532-.178 2.864-5.997-.291-10.774-3.687-18.651h-.025z"/></g><g fill="#c55748"><path d="M48.078 51.416c-2.534 4.104-4.955 8.385-4.106 13.378.076.432.735.254.659-.178-.811-4.79 1.622-8.931 4.042-12.844.228-.381-.355-.724-.596-.343v-.013zm2.305 4.968a19.9 19.9 0 0 0-2.737 8.423c-.038.445.646.432.684 0a18.86 18.86 0 0 1 2.648-8.08c.228-.381-.367-.724-.596-.343zm1.889 5.755c-.672 1.08-1.001 2.287-.988 3.557 0 .445.697.445.684 0 0-1.156.292-2.223.9-3.202.228-.381-.355-.724-.596-.343v-.013z"/></g><path d="M55.832 67.157s-1.217 2.274-.101 6.543c0 0 .963 3.011 1.673 4.066s3.738 6.924 3.092 14.801l-1.255 5.895" stroke="#c55748" stroke-width=".5" stroke-miterlimit="10" stroke-linecap="round"/><path d="M11.126 130.744c-.304-1.804-.152-3.608.469-5.336.152-.419-.482-.673-.634-.254a11.25 11.25 0 0 0-.519 5.679c.076.432.76.343.684-.089z" fill="#c55748"/><path d="M69.062 61.707c-1.102-1.207-1.749-1.728-4.232-1.182-.519.114-1.508.635-2.103 2.223-.291.762-.279 2.173.013 2.782.507 1.067 1.521 1.715 2.408 1.906 1.103.229 2.471 0 3.358-.966.519-.572.735-1.423.811-2.312.038-.508-.063-2.236-.254-2.465v.013z" fill="#b94c3e"/><mask id="A" maskUnits="userSpaceOnUse" x="62" y="60" width="8" height="8"><path d="M69.062 61.707c-1.102-1.207-1.749-1.728-4.232-1.182-.519.114-1.508.635-2.103 2.223-.291.762-.279 2.173.013 2.782.507 1.067 1.521 1.715 2.408 1.906 1.103.229 2.471 0 3.358-.966.519-.572.735-1.423.811-2.312.038-.508-.063-2.236-.254-2.465v.013z" fill="#fff"/></mask><g mask="url(#A)"><path d="M67.63 62.05c.849-.076 1.178-1.08 1.178-1.817-1.356-.038-2.762-.063-4.131.013-.558.025-2.015-.114-2.408.419-.19.267-.127.648.025 1.016 1.128.534 4.106.47 5.322.368h.013z" fill="#fff"/></g><g fill="#f7eb58"><path d="M125.691 26.688a.88.88 0 0 0 .456-1.194 442.05 442.05 0 0 1-6.032-14.204c-.126-.318-.405-.546-.747-.585-.343-.051-.697.089-.9.356-.038.051-.063.102-.089.152a.91.91 0 0 0-.025.75c1.913 4.752 3.953 9.541 6.044 14.255.228.495.786.712 1.293.483v-.013zm-9.731 7.217c.342-.394.291-.94-.102-1.283-3.864-3.316-7.742-6.772-11.506-10.253a.92.92 0 0 0-.925-.216 1 1 0 0 0-.671.712c0 .064-.026.114-.026.178a.91.91 0 0 0 .305.686 426.57 426.57 0 0 0 11.544 10.291c.418.356 1.013.305 1.381-.114zm30.692-6.327a.88.88 0 0 1-.457-1.194 439.61 439.61 0 0 0 6.032-14.204c.127-.318.406-.546.748-.584.342-.051.697.089.9.356.038.051.063.102.088.152a.91.91 0 0 1 .026.75 449.53 449.53 0 0 1-6.045 14.255.96.96 0 0 1-1.292.483v-.013zm9.718 7.217c-.342-.394-.291-.94.102-1.283a415.55 415.55 0 0 0 11.506-10.253.92.92 0 0 1 .925-.216 1 1 0 0 1 .671.711c0 .064.026.114.026.178a.91.91 0 0 1-.304.686 427.4 427.4 0 0 1-11.544 10.291.97.97 0 0 1-1.382-.114zM137.413 8c-.52-.038-.925.343-.963.851a455.21 455.21 0 0 1-1.153 15.398.92.92 0 0 0 .393.864c.278.203.659.241.963.102.05-.025.101-.051.152-.089.202-.152.342-.394.367-.661a411.18 411.18 0 0 0 1.166-15.436c.025-.546-.38-.991-.925-1.029z"/></g><path d="M139.035 71.651c.026-.521-.126-.8-.62-.877-.887-.152-7.426-.203-8.174.165-.076.038-.088.114-.063.178v.089c.253 1.27.266 2.592.748 3.811.228.597.557.966.988 1.41.621.648.773 1.08 1.698 1.232.874.14 1.799.305 2.661.089.684-.178 1.026-.775 1.369-1.385.38-.661.887-.915 1.051-1.728.19-.953.279-1.918.38-2.884 0-.038 0-.064-.012-.089l-.026-.013z" fill="#2d2e83"/><path d="M152.201 49.367c-.216-2.249-.875-4.447-2.015-6.403-.976-1.702-2.281-3.24-3.84-4.523-4.524-3.723-11.417-5.196-17.132-3.443-6.197 1.906-10.822 7.267-11.937 13.137-1.267 6.746.963 14.75 7.857 18.498.101.051.19.102.291.152.469.241 1.128.457 1.521.826.405.381.608 1.016.887 1.499.481.864 1.077 1.969 2.091 2.401.228.102.595.191 1.064.267 1.774.292 4.967.432 6.919.191.608-.076 1.102-.191 1.394-.356.608-.343 1.52-1.27 1.888-2.986.063-.318.291-.572.608-.711 7.185-3.113 11.139-11.167 10.416-18.536l-.012-.013z" fill="#f7ea55"/><g fill="#2d0f15"><path d="M131.103 73.175c2.344.635 4.726.788 7.045 0 .38-.127.102-.661-.279-.534-2.154.737-4.397.572-6.564-.025-.392-.102-.595.445-.202.559zm1.38 2.732a7.47 7.47 0 0 0 4.093.089c.392-.102.278-.673-.127-.572a6.82 6.82 0 0 1-3.776-.076c-.393-.114-.596.432-.203.559h.013z"/></g><path d="M133.473 66.989c-.38-5.628-.899-11.333-1.951-16.885-.279-1.448-.76-4.472-2.851-4.536-2.357-.063-2.307 3.024-2.167 4.447.253 2.541 1.039 5.539 2.623 7.674 1.736 2.338 6.006 3.379 8.693 1.715 2.547-1.575 7.577-13.238 2.078-13.556-2.509-.14-2.813 3.049-2.965 4.701l-1.648 16.478c-.038.381.596.419.634.038.393-3.481.646-6.975 1.001-10.456l.507-4.447c.127-1.385.114-2.846.621-4.167.342-.877.722-1.652 1.799-1.575 1.508.102 1.686 1.791 1.686 2.871 0 2.795-1.242 6.823-3.371 8.932-1.267 1.258-3.295 1.436-5.082 1.181-2.521-.356-3.89-2.388-4.701-4.434-.671-1.677-1.14-3.519-1.292-5.311-.076-.915-.228-2.617.735-3.189 1.647-.991 2.509 1.41 2.8 2.554.418 1.614.608 3.303.836 4.942.596 4.345 1.065 8.728 1.369 13.111.025.381.646.267.621-.114l.025.025z" fill="#fff"/><path d="M138.098 72.02s-.114.064-.178.076c-.177.013-.329-.102-.355-.267l-.025-.267c-.127-1.131-.266-2.401-.659-3.595-.063-.203-.747-.534-2.053-.597-1.394-.064-2.407.216-2.559.521-.203.445-.596 2.147-.824 3.163l-.152.648c-.038.165-.203.254-.38.229-.178-.038-.279-.191-.241-.343l.152-.648.862-3.278c.342-.737 1.926-.94 3.168-.877.545.025 2.344.178 2.623 1.004.418 1.258.557 2.554.684 3.71l.025.267c0 .102-.038.191-.101.254h.013z" fill="#2d0f15"/><g fill="#190808"><path d="M71.546 49.205c-2.496 0-1.47 6.568.672 5.031.519-.381.773-1.182.862-1.855.165-1.182-.19-3.189-1.533-3.189v.013zm-13.117-.279c2.724-.216 2.129 6.416-.329 5.082-.596-.33-.938-1.118-1.077-1.766-.266-1.169-.038-3.189 1.407-3.303v-.013z"/></g><g fill="#c55748"><path d="M67.287 52.801c.519.546 1.102 1.143 1.178 1.931.076.915-.659 1.906-1.495 2.236-.342.127-.19.686.152.559.925-.356 1.711-1.232 1.901-2.223.228-1.169-.583-2.122-1.318-2.909-.254-.267-.659.14-.406.407h-.013zm-3.218 3.735a1.89 1.89 0 0 1 1.749-.508c.367.076.519-.483.152-.559a2.49 2.49 0 0 0-2.306.661c-.266.254.139.673.406.407z"/></g></g><defs><clipPath id="B"><path fill="#fff" d="M0 0h189v159H0z"/></clipPath></defs></svg>