<svg width="50" height="50" viewBox="0 0 50 50" fill="none" xmlns="http://www.w3.org/2000/svg">
<rect width="50" height="50" fill="white"/>
<path d="M27.3288 5.11855C24.1403 5.13437 22.0093 6.61592 21.9933 9.56847V29.5614C19.7508 31.0904 18.2734 33.5526 18.2734 36.3259C18.2734 40.9604 22.3441 44.7302 27.35 44.7302C32.356 44.7302 36.4266 40.9604 36.4266 36.3259C36.4266 33.5421 34.944 31.0746 32.6908 29.5456C32.6323 20.2029 32.7758 18.4103 32.6748 9.56319C32.6908 6.61064 30.5545 5.1291 27.3394 5.11328L27.3288 5.11855ZM27.3128 6.10977C29.481 6.12558 31.6173 7.11152 31.6014 9.56847C31.6386 18.7319 31.6173 20.4771 31.6173 29.7829C31.6173 29.941 31.7076 30.0939 31.8511 30.1836C33.9662 31.5175 35.3531 33.7794 35.3531 36.3312C35.3531 40.4331 31.7767 43.7442 27.3447 43.7442C22.9127 43.7442 19.3363 40.4279 19.3363 36.3312C19.3363 33.7846 20.718 31.5333 22.8224 30.1994C22.9658 30.1098 23.0509 29.9569 23.0562 29.7987V9.56847C23.0721 7.11152 25.2084 6.12558 27.3075 6.10977H27.3128Z" fill="#000091" stroke="#000091" stroke-miterlimit="10"/>
<path d="M11.9175 14.5977V22.2532H9C10.6102 24.8736 12.2523 26.7769 13.6446 29.0335C15.3132 26.2655 16.7693 24.7154 18.2732 22.2532H15.3664V14.5977H11.9228H11.9175Z" fill="#000091"/>
<path d="M27.2277 8.66152C26.9461 8.68788 26.7122 8.95678 26.7441 9.21512C26.776 9.47347 27.063 9.67382 27.3446 9.64746H29.4809C29.7626 9.64746 30.0123 9.41548 30.0123 9.15186C30.0123 8.88824 29.7626 8.65625 29.4809 8.65625C28.7369 8.65625 27.9611 8.65625 27.2277 8.65625V8.66152Z" fill="#000091"/>
<path d="M25.0969 10.6381C24.8152 10.6644 24.5814 10.9333 24.6133 11.1917C24.6452 11.45 24.9321 11.6504 25.2138 11.624H29.4864C29.768 11.624 30.0178 11.392 30.0178 11.1284C30.0178 10.8648 29.768 10.6328 29.4864 10.6328H25.0969V10.6381Z" fill="#000091"/>
<path d="M27.2277 12.6186C26.9461 12.6449 26.7122 12.9138 26.7441 13.1722C26.776 13.4305 27.063 13.6309 27.3446 13.6045H29.4809C29.7626 13.6045 30.0123 13.3725 30.0123 13.1089C30.0123 12.8453 29.7626 12.6133 29.4809 12.6133C28.7369 12.6133 27.9611 12.6133 27.2277 12.6133V12.6186Z" fill="#000091"/>
<path d="M25.0969 14.5951C24.8152 14.6215 24.5814 14.8904 24.6133 15.1487C24.6452 15.4071 24.9321 15.6074 25.2138 15.5811H29.4864C29.768 15.5811 30.0178 15.3491 30.0178 15.0855C30.0178 14.8218 29.768 14.5898 29.4864 14.5898H25.0969V14.5951Z" fill="#000091"/>
<path d="M27.2277 16.5717C26.9461 16.598 26.7122 16.8669 26.7441 17.1253C26.776 17.3836 27.063 17.584 27.3446 17.5576H29.4809C29.7626 17.5576 30.0123 17.3256 30.0123 17.062C30.0123 16.7984 29.7626 16.5664 29.4809 16.5664C28.7369 16.5664 27.9611 16.5664 27.2277 16.5664V16.5717Z" fill="#000091"/>
<path d="M25.0969 18.5482C24.8152 18.5746 24.5814 18.8435 24.6133 19.1018C24.6452 19.3602 24.9321 19.5605 25.2138 19.5342H29.4864C29.768 19.5342 30.0178 19.3022 30.0178 19.0386C30.0178 18.775 29.768 18.543 29.4864 18.543H25.0969V18.5482Z" fill="#000091"/>
<path d="M25.4256 21.4042C25.2184 21.594 25.2077 21.8207 25.2077 22.0053V32.3708C23.6401 33.1037 22.54 34.58 22.54 36.3093C22.54 38.761 24.6976 40.7592 27.344 40.7592C29.9905 40.7592 32.148 38.761 32.148 36.3093C32.148 34.5747 31.048 33.1037 29.4803 32.3708V22.0053C29.4856 21.6468 28.9702 21.3831 28.646 21.5888C27.6895 22 26.8923 21.4886 26.1112 21.2355C25.8454 21.1775 25.6063 21.3304 25.4256 21.4042Z" fill="#000091"/>
</svg>
