<svg xmlns="http://www.w3.org/2000/svg" width="11" height="14" viewBox="0 0 11 14" fill="none">
    <g clip-path="url(#clip0_154_52176)">
        <path d="M3.71703 10.8074C3.24133 10.8074 2.84766 10.432 2.84766 9.97833V2.21968C2.84766 1.76604 3.24133 1.39062 3.71703 1.39062C4.19272 1.39062 4.5864 1.76604 4.5864 2.21968V9.99398C4.56999 10.4476 4.19272 10.8074 3.71703 10.8074Z" fill="#666666"/>
        <path d="M5.84984 10.8089C5.37415 10.8089 4.98047 10.4335 4.98047 9.97989V0.82905C4.98047 0.375419 5.37415 0 5.84984 0C6.32553 0 6.71921 0.375419 6.71921 0.82905V9.99553C6.71921 10.4492 6.32553 10.8089 5.84984 10.8089Z" fill="#666666"/>
        <path d="M7.99828 10.8074C7.52258 10.8074 7.12891 10.432 7.12891 9.97833V2.21968C7.12891 1.76604 7.52258 1.39062 7.99828 1.39062C8.47397 1.39062 8.86765 1.76604 8.86765 2.21968V9.99398C8.85124 10.4476 8.47397 10.8074 7.99828 10.8074Z" fill="#666666"/>
        <path d="M10.1311 10.8097C9.6554 10.8097 9.26172 10.4343 9.26172 9.98069V3.61421C9.26172 3.16058 9.6554 2.78516 10.1311 2.78516C10.6068 2.78516 11.0005 3.16058 11.0005 3.61421V9.99633C11.0005 10.45 10.6068 10.8097 10.1311 10.8097Z" fill="#666666"/>
        <path d="M4.96407 12.4968C4.52119 12.8253 3.86506 12.7315 3.52059 12.3091L0.207139 8.21079C-0.137329 7.78844 -0.0389092 7.16274 0.403978 6.83425C0.846865 6.50576 1.50299 6.59961 1.84746 7.02196L5.16091 11.1203C5.50538 11.5583 5.42336 12.1683 4.96407 12.4968Z" fill="#666666"/>
        <path d="M6.93226 14.0008C9.17895 14.0008 11.0003 12.264 11.0003 10.1215C11.0003 7.97902 9.17895 6.24219 6.93226 6.24219C4.68556 6.24219 2.86426 7.97902 2.86426 10.1215C2.86426 12.264 4.68556 14.0008 6.93226 14.0008Z" fill="#666666"/>
    </g>
    <defs>
        <clipPath id="clip0_154_52176">
            <rect width="11" height="14" fill="white"/>
        </clipPath>
    </defs>
</svg>