<svg width="64" height="67" viewBox="0 0 64 67" fill="none" xmlns="http://www.w3.org/2000/svg">
<g clip-path="url(#clip0_28252_14085)">
<path d="M0.243652 29.9395H21.1325L21.3056 32.2593L21.6454 33.0112L22.3058 33.8016H0.243652V29.9395Z" stroke="#3A3A3A" stroke-linejoin="round"/>
<path d="M0.243652 35.8965H21.9275L22.0301 37.4002L22.6905 38.3128L22.8636 39.7587H0.243652V35.8965Z" stroke="#3A3A3A" stroke-linejoin="round"/>
<path d="M24.3382 42.5488H0.243652V45.0743H25.659H39" stroke="#3A3A3A" stroke-linejoin="round"/>
<path d="M52.703 45.0412H57.3065V42.0723H51.2476" stroke="#3A3A3A" stroke-linejoin="round"/>
<path d="M35.3979 3.36719C35.3979 3.36719 36.2378 3.77204 36.5071 4.78739C36.5071 4.78739 36.5712 5.14083 36.6225 5.62922C36.7507 6.75382 36.6225 7.89769 36.2186 8.95802C35.8146 10.0183 35.1542 11.3614 34.3464 11.5157C34.3464 11.5157 32.7179 11.9205 31.4099 10.3654C31.4099 10.3654 29.9994 8.74595 30.4033 6.54818C30.4033 6.54818 34.1797 6.0405 35.3915 3.37361L35.3979 3.36719Z" stroke="#3A3A3A" stroke-linejoin="round"/>
<path d="M30.6408 8.98453C30.9101 10.0384 29.397 11.7414 29.397 11.7414L28.9225 12.0113C24.1331 12.6218 23.4983 16.3362 23.4983 16.3362C23.2291 16.2333 22.6584 15.5907 22.6584 15.5907C20.8055 12.3133 25.1525 10.1155 25.1525 10.1155C26.6336 9.40866 26.7041 6.80604 26.7041 6.80604C26.7746 5.0838 27.2427 3.62505 27.2427 3.62505C28.0826 -1.23962 32.5001 0.553302 32.5001 0.553302C35.2635 0.148449 36.206 2.61613 36.206 2.61613C36.206 2.61613 37.655 3.09167 37.5909 4.98098C37.5909 4.98098 37.6614 6.7739 36.8856 7.31371L36.6099 7.45509" stroke="#3A3A3A" stroke-linejoin="round"/>
<path d="M33.6798 11.5547L33.5067 12.5893C33.5067 12.5893 33.34 13.5018 31.5576 13.1612C31.5576 13.1612 29.4995 12.6536 29.4033 11.741" stroke="#3A3A3A" stroke-linejoin="round"/>
<path d="M33.7762 12.1914C33.7762 12.1914 37.3923 13.3353 38.0078 14.0036C38.0078 14.0036 38.8862 14.447 39.6299 18.6755L41.2841 27.2609L37.886 26.7983L37.0204 25.1017L37.123 26.6826L35.5266 26.5605L33.5005 30.6604C33.5005 30.6604 35.1611 30.6219 35.1611 31.2002C35.1611 31.2002 35.4432 32.8582 33.5005 32.9417H32.4298L32.2246 33.7322L38.2258 34.227L40.7071 32.8968C40.7071 32.8968 39.7966 31.528 40.4186 30.8661C40.4186 30.8661 41.6175 30.1206 42.201 30.6604L44.4386 25.9757L43.8616 25.4487L41.2905 27.2609" stroke="#3A3A3A" stroke-linejoin="round"/>
<path d="M35.6611 26.5469L41.1558 27.2409" stroke="#3A3A3A" stroke-linejoin="round"/>
<path d="M42.2009 30.666L42.9447 31.977C43.2075 32.626 42.7074 33.0116 42.7074 33.0116H41.2648L40.707 32.9023" stroke="#3A3A3A" stroke-linejoin="round"/>
<path d="M32.4297 32.9464C32.4297 32.9464 32.3656 31.5069 31.7437 31.5969L33.2183 29.9453H33.7505" stroke="#3A3A3A" stroke-linejoin="round"/>
<path d="M26.877 23.9062L24.7676 30.6602C24.7676 30.6602 30.5893 31.1486 31.7497 31.592" stroke="#3A3A3A" stroke-linejoin="round"/>
<path d="M23.4981 16.3418L22.0171 22.6074C22.0171 22.6074 20.3052 31.4306 21.6452 33.0115C21.6452 33.0115 22.5236 33.8919 24.7676 34.2325C24.7676 34.2325 30.6149 34.0847 32.2242 33.7376" stroke="#3A3A3A" stroke-linejoin="round"/>
<path d="M22.197 33.8027C21.5879 34.7345 22.197 37.8448 22.197 37.8448C22.197 37.8448 22.3252 37.9605 22.7035 38.0248C23.3767 38.1404 24.8449 38.1083 27.8071 37.0094C27.8071 37.0094 30.9423 35.2422 32.2246 35.2936C32.2246 35.2936 34.988 35.1522 35.5009 35.1522C36.0138 35.1522 36.8922 34.7795 36.9243 34.4582" stroke="#3A3A3A" stroke-linejoin="round"/>
<path d="M22.7033 38.0234C22.4661 41.1787 25.2551 43.5114 25.2551 43.5114C25.2551 43.5114 28.2807 44.2697 35 42.5025L39 41.5L42 40.5C42 40.5 42.8227 41.2108 43.2394 42.5025C43.2394 42.5025 44.1178 45.4522 51.1641 52.1933L53 54C53 54 55.3908 52.5282 56.5 51.5L51.677 43.0809L46.4516 34.971C46.4516 34.971 45.4835 32.9981 43.0984 32.9531" stroke="#3A3A3A" stroke-linejoin="round"/>
<path d="M45 45.805L40.2876 54.938C38.9392 55.2303 37 54.3944 37 54.3944C37 54.3944 38.1399 45.005 40.0513 42" stroke="#3A3A3A" stroke-linejoin="round"/>
<path d="M34 55.779C34 56.2931 34.1667 56.7943 34.5001 57.1863C34.6604 57.3791 35.0194 57.5012 35.3721 57.7197C35.7696 57.9639 36.68 59.3969 36.68 59.3969C36.68 59.3969 37.8982 61.9867 40.014 61.6268L39.4498 59.8853C39.4498 59.8853 38.3598 59.2877 38.5137 56.8457L39 55.0015C39 55.0015 37.4424 54.6892 37 54.2458C37 54.2458 36.898 54.121 36.5518 54.2495C36.5518 54.2495 35.8209 54.3138 35.1348 54.5837C34.5642 54.8086 34.0256 55.1813 34 55.7725V55.779Z" stroke="#3A3A3A" stroke-linejoin="round"/>
<path d="M58.8472 52.8927C58.8472 52.8927 61.433 52.4352 61.4125 52.6125C61.4125 52.6125 61.8444 53.0409 61.1688 53.7848L57.7816 55.8811L56.6032 56.6271C56.6032 56.6271 55.355 57.3896 54.9641 56.4945L54.5232 54.2354" stroke="#3A3A3A" stroke-linejoin="round"/>
<path d="M55.3325 52.168C55.3325 52.168 58.3343 53.2903 59.6178 52.849" stroke="#3A3A3A" stroke-linejoin="round"/>
<path d="M53.1406 53.5098C53.1406 53.5098 54.4481 53.8924 54.7275 55.2851" stroke="#3A3A3A" stroke-linejoin="round"/>
<path d="M10.1302 45.0996H6.18066V55.4394H10.1302V45.0996Z" stroke="#3A3A3A" stroke-linejoin="round"/>
<path d="M45.5796 46.1855V55.4329H49.5291V50.2212" stroke="#3A3A3A" stroke-linejoin="round"/>
<path d="M49.5293 39.6049H57.3065V35.9355H47.125" stroke="#3A3A3A" stroke-linejoin="round"/>
<path d="M45.9004 33.8026H57.3065V30.0176H42.7139" stroke="#3A3A3A" stroke-linejoin="round"/>
<path d="M6.18066 42.5488V39.7598" stroke="#3A3A3A" stroke-linejoin="round"/>
<path d="M10.1304 42.5488V39.7598" stroke="#3A3A3A" stroke-linejoin="round"/>
<path d="M6.18066 35.8977V33.8027" stroke="#3A3A3A" stroke-linejoin="round"/>
<path d="M10.1304 35.8977V33.8027" stroke="#3A3A3A" stroke-linejoin="round"/>
<path d="M49.978 35.8977V33.8027" stroke="#3A3A3A" stroke-linejoin="round"/>
</g>
<defs>
<clipPath id="clip0_28252_14085">
<rect width="64" height="67" fill="white"/>
</clipPath>
</defs>
</svg>
