<svg width="48" height="41" viewBox="0 0 48 41" fill="none" xmlns="http://www.w3.org/2000/svg">
<path fill-rule="evenodd" clip-rule="evenodd" d="M43.5968 37.2368C43.9515 37.2368 44.4346 37.1665 44.7465 37.2836V39.6265H43.6426C43.5081 39.2926 43.5937 37.7171 43.5937 37.2397L43.5968 37.2368ZM47.9571 34.0242C47.9571 37.1519 48.4372 37.2368 46.1836 37.2368V39.6236H47.1897C48.2599 39.6236 48.1162 41 47.3334 41H0.656592C-0.126196 41 -0.269911 39.6236 0.800307 39.6236H10.05V30.2609C10.05 30.0589 8.84834 30.0501 7.9463 29.7982C1.67789 28.0323 -1.57558 21.7066 0.75444 16.1218C1.83077 13.5388 3.29544 13.0673 3.29544 11.5328C3.29544 9.9982 1.71152 7.71099 3.47279 4.35778C7.04732 -2.45992 17.7128 -1.01028 18.835 6.83827C19.2845 9.98355 17.1135 11.0144 19.098 13.3338C20.633 15.1261 21.1681 17.3987 21.3148 17.5012C21.7949 15.5332 20.7889 16.2595 20.9326 13.0966C21.0274 10.9939 22.5471 9.0962 24.3512 8.06242C29.3782 5.17485 35.5426 9.65848 34.451 14.9358C34.2278 16.0164 33.5276 16.9799 34.5519 18.0869C35.7139 19.3433 36.7443 21.607 36.7443 23.2851H42.1596C42.1596 22.3685 41.9425 21.1736 42.8782 21.1736C46.5567 21.1736 46.1836 20.8075 46.1836 23.2851C46.9083 23.2851 47.9571 23.1211 47.9571 23.9733V31.5466C47.9571 32.3314 46.6943 32.1411 46.1836 32.1411V33.4267C46.6943 33.4267 47.9571 33.2364 47.9571 34.0242ZM28.4517 37.2368H42.1566V39.6236H28.4517V37.2368ZM22.7489 37.2368H27.0145V39.6236H22.7489V37.2368ZM20.1621 37.2368H21.3118V39.6236H20.1621V37.2368ZM18.3396 34.8032H46.5169V35.8574H18.3427V34.8032H18.3396ZM43.5937 32.1411H44.7434V33.4267H43.5937V32.1411ZM28.4517 32.1411H42.1566V33.4267H28.4517V32.1411ZM22.7489 32.1411H27.0145V33.4267H22.7489V32.1411ZM20.1621 32.1411C21.6481 32.1411 21.3118 31.9624 21.3118 33.4267H20.1621V32.1411ZM16.8566 34.2526C16.8566 35.4269 16.5937 36.9557 17.3673 37.2075C17.7526 37.3334 18.2938 37.1401 18.6791 37.2836V39.6265H11.5392C11.3924 39.2604 11.5025 31.8394 11.4872 30.4425C11.4841 30.0647 11.4077 30.1584 12.163 30.0794C14.227 29.8656 15.2299 29.2067 16.8597 28.3808C16.8597 32.0444 16.3552 32.144 18.6821 32.144V33.4297C17.6853 33.4297 16.8597 33.2774 16.8597 34.2555L16.8566 34.2526ZM18.3427 28.4247H46.52V30.7647H18.3427V28.4247ZM18.3427 24.7055H46.52V27.0454H18.3427V24.7055ZM43.5968 22.5471H44.7465V23.2822H43.5968V22.5471ZM20.1651 22.5471H21.3148V23.2822H20.1651V22.5471ZM22.3698 13.9166C22.3698 10.7889 24.9811 8.4607 27.6933 8.54856C31.274 8.66277 34.0413 11.9281 32.8701 15.255C31.5522 18.9977 35.2613 19.2554 35.2613 23.2822H28.4547C28.4547 22.0727 28.3141 22.4768 29.1855 21.6422C29.4883 21.3493 30.5615 20.4239 30.6502 20.1047C30.7939 19.5746 30.3291 19.2437 30.0845 19.2437C29.1886 19.2437 29.0846 19.9407 28.4547 20.3448V15.5244C28.4547 14.8889 28.3813 14.514 27.6414 14.514C26.9014 14.514 27.0176 15.5332 27.0176 15.8905V21.812C26.4794 21.4665 26.0788 20.664 25.4826 20.664C24.9352 20.664 24.764 21.0243 24.764 21.443C24.764 21.897 26.0788 22.758 26.4427 23.2792H22.752C22.752 21.6949 23.0822 21.1677 21.4586 21.1677C21.6726 18.2919 21.6329 20.1691 22.6083 18.0928C23.4125 16.3883 22.3698 15.498 22.3698 13.9166ZM16.7618 11.3014C16.7618 14.3676 20.422 14.9855 20.0306 20.8603C19.9847 21.5309 19.4557 20.9423 18.9757 21.32C18.5323 21.6685 18.676 22.468 18.676 23.2822C16.4071 23.2822 16.8536 23.5018 16.8536 26.6325C15.5907 27.4407 14.8997 28.0382 13.1262 28.4774C12.7592 28.5682 11.9336 28.7439 11.4872 28.7439V24.521C11.4872 24.0582 14.1719 22.3977 14.1719 21.5367C14.1719 21.2234 13.8294 20.8954 13.5023 20.8954C12.7501 20.8954 11.9887 22.3275 11.4903 22.4563C11.4903 16.9184 10.8909 18.7868 13.3494 16.3415C13.6337 16.0603 14.175 15.665 14.175 15.252C14.175 14.7249 13.7989 14.5638 13.3616 14.5638C12.8326 14.5638 11.9397 15.8378 11.4933 16.1248C11.4933 15.2901 11.6248 9.64091 11.4291 9.21041C11.3251 8.98491 11.0958 8.82677 10.7747 8.82677C9.90022 8.82677 10.0562 9.74341 10.0562 10.5722V17.9141C9.22751 17.384 8.4386 15.7968 7.60078 16.5289C6.9036 17.138 7.9249 17.8292 8.48753 18.3622L9.78096 19.601C10.1418 19.9465 10.0562 19.803 10.0562 20.5762V24.2955C9.60055 24.0026 8.68628 22.6877 8.13894 22.6877C7.73837 22.6877 7.37144 23.001 7.37144 23.3759C7.37144 24.1754 10.0562 25.8652 10.0562 26.3132V28.7469C7.97076 28.7469 5.5429 27.4261 4.07823 26.0262C1.18253 23.2617 0.564859 18.5086 2.84901 15.1876C3.26792 14.5814 3.907 13.8463 4.10269 13.5418C6.16363 10.2823 2.5096 8.96734 5.04448 4.48371C7.3531 0.398358 13.8447 0.263643 16.508 4.48664C18.4864 7.6202 16.768 9.6292 16.768 11.3073L16.7618 11.3014Z" fill="#000091"/>
</svg>
