<svg width="971" height="363" viewBox="0 0 971 363" fill="none" xmlns="http://www.w3.org/2000/svg">
<g clip-path="url(#clip0_28252_12641)">
<ellipse cx="412" cy="219" rx="149" ry="132" fill="url(#paint0_radial_28252_12641)"/>
<path d="M448.655 182.25L423.179 156.781L401.822 182.065V278.712H352.115V207.225L307.291 245.613V234.247H273.097V249.644H251.432V286.651V286.515H216.325V337.194L211.22 337.416L198.309 347.105V360.887L480.137 360.086V213.29H448.655V182.25Z" fill="#CACAEA"/>
<path d="M501.285 361.614V188.906V168.504H539.375V197.399H573.582V208.765H618.406V280.252H668.112L669.185 311.244L677.225 312.723L678.902 360.849H198.309" fill="#CACAEA"/>
<path d="M454.587 341.15H446.781V355.783H454.587V341.15Z" fill="white" stroke="#78719E" stroke-width="1.5" stroke-miterlimit="10"/>
<path d="M446.781 348.461H454.587" stroke="#78719E" stroke-width="1.5" stroke-miterlimit="10"/>
<path d="M423.229 197.93V360.886H482.825V198.152L423.229 197.93Z" fill="white" stroke="#78719E" stroke-width="1.5" stroke-miterlimit="10"/>
<path d="M431.429 206.301H428.136V214.646H431.429V206.301Z" fill="white" stroke="#78719E" stroke-width="1.5" stroke-miterlimit="10"/>
<path d="M440.714 206.301H437.422V214.646H440.714V206.301Z" fill="white" stroke="#78719E" stroke-width="1.5" stroke-miterlimit="10"/>
<path d="M449.987 206.301H446.695V214.646H449.987V206.301Z" fill="white" stroke="#78719E" stroke-width="1.5" stroke-miterlimit="10"/>
<path d="M459.272 206.301H455.98V214.646H459.272V206.301Z" fill="white" stroke="#78719E" stroke-width="1.5" stroke-miterlimit="10"/>
<path d="M468.545 206.301H465.253V214.646H468.545V206.301Z" fill="white" stroke="#78719E" stroke-width="1.5" stroke-miterlimit="10"/>
<path d="M477.917 206.301H474.625V214.646H477.917V206.301Z" fill="white" stroke="#78719E" stroke-width="1.5" stroke-miterlimit="10"/>
<path d="M431.429 220.648H428.136V228.994H431.429V220.648Z" fill="white" stroke="#78719E" stroke-width="1.5" stroke-miterlimit="10"/>
<path d="M440.714 220.648H437.422V228.994H440.714V220.648Z" fill="white" stroke="#78719E" stroke-width="1.5" stroke-miterlimit="10"/>
<path d="M449.987 220.648H446.695V228.994H449.987V220.648Z" fill="white" stroke="#78719E" stroke-width="1.5" stroke-miterlimit="10"/>
<path d="M459.272 220.648H455.98V228.994H459.272V220.648Z" fill="white" stroke="#78719E" stroke-width="1.5" stroke-miterlimit="10"/>
<path d="M468.545 220.648H465.253V228.994H468.545V220.648Z" fill="white" stroke="#78719E" stroke-width="1.5" stroke-miterlimit="10"/>
<path d="M477.917 220.648H474.625V228.994H477.917V220.648Z" fill="white" stroke="#78719E" stroke-width="1.5" stroke-miterlimit="10"/>
<path d="M431.429 234.986H428.136V243.332H431.429V234.986Z" fill="white" stroke="#78719E" stroke-width="1.5" stroke-miterlimit="10"/>
<path d="M440.714 234.986H437.422V243.332H440.714V234.986Z" fill="white" stroke="#78719E" stroke-width="1.5" stroke-miterlimit="10"/>
<path d="M449.987 234.986H446.695V243.332H449.987V234.986Z" fill="white" stroke="#78719E" stroke-width="1.5" stroke-miterlimit="10"/>
<path d="M459.272 234.986H455.98V243.332H459.272V234.986Z" fill="white" stroke="#78719E" stroke-width="1.5" stroke-miterlimit="10"/>
<path d="M468.545 234.986H465.253V243.332H468.545V234.986Z" fill="white" stroke="#78719E" stroke-width="1.5" stroke-miterlimit="10"/>
<path d="M477.917 234.986H474.625V243.332H477.917V234.986Z" fill="white" stroke="#78719E" stroke-width="1.5" stroke-miterlimit="10"/>
<path d="M431.429 249.322H428.136V257.668H431.429V249.322Z" fill="white" stroke="#78719E" stroke-width="1.5" stroke-miterlimit="10"/>
<path d="M440.714 249.322H437.422V257.668H440.714V249.322Z" fill="white" stroke="#78719E" stroke-width="1.5" stroke-miterlimit="10"/>
<path d="M449.987 249.322H446.695V257.668H449.987V249.322Z" fill="white" stroke="#78719E" stroke-width="1.5" stroke-miterlimit="10"/>
<path d="M459.272 249.322H455.98V257.668H459.272V249.322Z" fill="white" stroke="#78719E" stroke-width="1.5" stroke-miterlimit="10"/>
<path d="M468.545 249.322H465.253V257.668H468.545V249.322Z" fill="white" stroke="#78719E" stroke-width="1.5" stroke-miterlimit="10"/>
<path d="M477.917 249.322H474.625V257.668H477.917V249.322Z" fill="white" stroke="#78719E" stroke-width="1.5" stroke-miterlimit="10"/>
<path d="M431.429 263.66H428.136V272.006H431.429V263.66Z" fill="white" stroke="#78719E" stroke-width="1.5" stroke-miterlimit="10"/>
<path d="M440.714 263.66H437.422V272.006H440.714V263.66Z" fill="white" stroke="#78719E" stroke-width="1.5" stroke-miterlimit="10"/>
<path d="M449.987 263.66H446.695V272.006H449.987V263.66Z" fill="white" stroke="#78719E" stroke-width="1.5" stroke-miterlimit="10"/>
<path d="M459.272 263.66H455.98V272.006H459.272V263.66Z" fill="white" stroke="#78719E" stroke-width="1.5" stroke-miterlimit="10"/>
<path d="M468.545 263.66H465.253V272.006H468.545V263.66Z" fill="white" stroke="#78719E" stroke-width="1.5" stroke-miterlimit="10"/>
<path d="M477.917 263.66H474.625V272.006H477.917V263.66Z" fill="white" stroke="#78719E" stroke-width="1.5" stroke-miterlimit="10"/>
<path d="M431.429 277.996H428.136V286.342H431.429V277.996Z" fill="white" stroke="#78719E" stroke-width="1.5" stroke-miterlimit="10"/>
<path d="M440.714 277.996H437.422V286.342H440.714V277.996Z" fill="white" stroke="#78719E" stroke-width="1.5" stroke-miterlimit="10"/>
<path d="M449.987 277.996H446.695V286.342H449.987V277.996Z" fill="white" stroke="#78719E" stroke-width="1.5" stroke-miterlimit="10"/>
<path d="M459.272 277.996H455.98V286.342H459.272V277.996Z" fill="white" stroke="#78719E" stroke-width="1.5" stroke-miterlimit="10"/>
<path d="M468.545 277.996H465.253V286.342H468.545V277.996Z" fill="white" stroke="#78719E" stroke-width="1.5" stroke-miterlimit="10"/>
<path d="M477.917 277.996H474.625V286.342H477.917V277.996Z" fill="white" stroke="#78719E" stroke-width="1.5" stroke-miterlimit="10"/>
<path d="M431.429 292.346H428.136V300.691H431.429V292.346Z" fill="white" stroke="#78719E" stroke-width="1.5" stroke-miterlimit="10"/>
<path d="M440.714 292.346H437.422V300.691H440.714V292.346Z" fill="white" stroke="#78719E" stroke-width="1.5" stroke-miterlimit="10"/>
<path d="M449.987 292.346H446.695V300.691H449.987V292.346Z" fill="white" stroke="#78719E" stroke-width="1.5" stroke-miterlimit="10"/>
<path d="M459.272 292.346H455.98V300.691H459.272V292.346Z" fill="white" stroke="#78719E" stroke-width="1.5" stroke-miterlimit="10"/>
<path d="M468.545 292.346H465.253V300.691H468.545V292.346Z" fill="white" stroke="#78719E" stroke-width="1.5" stroke-miterlimit="10"/>
<path d="M477.917 292.346H474.625V300.691H477.917V292.346Z" fill="white" stroke="#78719E" stroke-width="1.5" stroke-miterlimit="10"/>
<path d="M431.429 306.682H428.136V315.027H431.429V306.682Z" fill="white" stroke="#78719E" stroke-width="1.5" stroke-miterlimit="10"/>
<path d="M440.714 306.682H437.422V315.027H440.714V306.682Z" fill="white" stroke="#78719E" stroke-width="1.5" stroke-miterlimit="10"/>
<path d="M449.987 306.682H446.695V315.027H449.987V306.682Z" fill="white" stroke="#78719E" stroke-width="1.5" stroke-miterlimit="10"/>
<path d="M459.272 306.682H455.98V315.027H459.272V306.682Z" fill="white" stroke="#78719E" stroke-width="1.5" stroke-miterlimit="10"/>
<path d="M468.545 306.682H465.253V315.027H468.545V306.682Z" fill="white" stroke="#78719E" stroke-width="1.5" stroke-miterlimit="10"/>
<path d="M477.917 306.682H474.625V315.027H477.917V306.682Z" fill="white" stroke="#78719E" stroke-width="1.5" stroke-miterlimit="10"/>
<path d="M431.429 321.02H428.136V329.365H431.429V321.02Z" fill="white" stroke="#78719E" stroke-width="1.5" stroke-miterlimit="10"/>
<path d="M440.714 321.02H437.422V329.365H440.714V321.02Z" fill="white" stroke="#78719E" stroke-width="1.5" stroke-miterlimit="10"/>
<path d="M449.987 321.02H446.695V329.365H449.987V321.02Z" fill="white" stroke="#78719E" stroke-width="1.5" stroke-miterlimit="10"/>
<path d="M459.272 321.02H455.98V329.365H459.272V321.02Z" fill="white" stroke="#78719E" stroke-width="1.5" stroke-miterlimit="10"/>
<path d="M468.545 321.02H465.253V329.365H468.545V321.02Z" fill="white" stroke="#78719E" stroke-width="1.5" stroke-miterlimit="10"/>
<path d="M477.917 321.02H474.625V329.365H477.917V321.02Z" fill="white" stroke="#78719E" stroke-width="1.5" stroke-miterlimit="10"/>
<path d="M794.494 324.915C805.37 324.643 825.161 305.413 836 306.559C843.88 307.397 849.453 316.729 857.308 317.777C862.5 318.467 867.839 315.361 872.858 317C878.9 318.973 882.106 327.035 888.062 329.365C893.562 331.522 899.653 328.169 905.363 329.402C914.118 331.3 919.112 343.159 927.855 345.169C931.122 345.921 934.538 345.169 937.843 345.736C944.551 346.919 949.964 354.303 949.767 362.033H798.033L794.494 324.915Z" fill="#CACAEA"/>
<path d="M-0.000201271 360.912C-0.148175 353.195 4.15538 345.798 9.48243 344.615C12.109 344.035 14.8095 344.787 17.4113 344.048C24.3538 342.051 28.3244 330.192 35.2791 328.281C39.817 327.036 44.6631 330.401 49.0283 328.244C53.7511 325.902 56.3037 317.852 61.1005 315.879C65.0958 314.24 69.3253 317.346 73.4563 316.656C79.6958 315.608 84.1597 306.597 90.3869 305.438C108.02 302.171 106.368 318.801 112.965 322.66C115.098 323.905 118.058 320.428 124.507 320.428C130.956 320.428 131.733 331.597 138.959 330.451C145.692 329.378 149.65 332.817 151.833 336.035C153.189 338.032 153.904 340.547 154.188 343.148C154.521 346.205 156.198 351.506 163.769 352.85C174.584 354.76 176.594 360.924 176.594 360.924H-0.000201271V360.912Z" fill="#CACAEA"/>
<path d="M587.405 361.268H551.028V263.08H585.925H590.13V361.268H587.405Z" fill="white" stroke="#78719E" stroke-width="1.5" stroke-miterlimit="10"/>
<path d="M584.125 269.207H556.195V274.73H584.125V269.207Z" fill="white" stroke="#78719E" stroke-width="1.5" stroke-miterlimit="10"/>
<path d="M584.125 280.352H556.195V285.874H584.125V280.352Z" fill="white" stroke="#78719E" stroke-width="1.5" stroke-miterlimit="10"/>
<path d="M584.125 291.496H556.195V297.019H584.125V291.496Z" fill="white" stroke="#78719E" stroke-width="1.5" stroke-miterlimit="10"/>
<path d="M584.125 302.639H556.195V308.161H584.125V302.639Z" fill="white" stroke="#78719E" stroke-width="1.5" stroke-miterlimit="10"/>
<path d="M584.125 313.783H556.195V319.306H584.125V313.783Z" fill="white" stroke="#78719E" stroke-width="1.5" stroke-miterlimit="10"/>
<path d="M584.125 324.928H556.195V330.45H584.125V324.928Z" fill="white" stroke="#78719E" stroke-width="1.5" stroke-miterlimit="10"/>
<path d="M584.125 336.07H556.195V341.593H584.125V336.07Z" fill="white" stroke="#78719E" stroke-width="1.5" stroke-miterlimit="10"/>
<path d="M584.643 350.717H556.713V361.281H584.643V350.717Z" fill="white" stroke="#78719E" stroke-width="1.5" stroke-miterlimit="10"/>
<path d="M536.946 361.047H525.441H472.874V242.334H525.441H536.946V361.047Z" fill="white" stroke="#78719E" stroke-width="1.5" stroke-miterlimit="10"/>
<path d="M497.006 361.047V339.252H506.562V361.047" fill="white"/>
<path d="M497.006 361.047V339.252H506.562V361.047" stroke="#78719E" stroke-width="1.5" stroke-miterlimit="10"/>
<path d="M488.423 331.324H480.174V346.992H488.423V331.324Z" fill="white" stroke="#78719E" stroke-width="1.5" stroke-miterlimit="10"/>
<path d="M477.264 346.994H480.174H490.976V351.309H477.264V346.994Z" fill="white" stroke="#78719E" stroke-width="1.5" stroke-miterlimit="10"/>
<path d="M488.423 304.895H480.174V320.563H488.423V304.895Z" fill="white" stroke="#78719E" stroke-width="1.5" stroke-miterlimit="10"/>
<path d="M477.264 320.562H480.174H490.976V324.865H477.264V320.562Z" fill="white" stroke="#78719E" stroke-width="1.5" stroke-miterlimit="10"/>
<path d="M488.423 278.453H480.174V294.121H488.423V278.453Z" fill="white" stroke="#78719E" stroke-width="1.5" stroke-miterlimit="10"/>
<path d="M477.264 294.121H480.174H490.976V298.436H477.264V294.121Z" fill="white" stroke="#78719E" stroke-width="1.5" stroke-miterlimit="10"/>
<path d="M488.423 252.023H480.174V267.692H488.423V252.023Z" fill="white" stroke="#78719E" stroke-width="1.5" stroke-miterlimit="10"/>
<path d="M477.264 267.691H480.174H490.976V272.006H477.264V267.691Z" fill="white" stroke="#78719E" stroke-width="1.5" stroke-miterlimit="10"/>
<path d="M506.723 252.023H498.473V267.692H506.723V252.023Z" fill="white" stroke="#78719E" stroke-width="1.5" stroke-miterlimit="10"/>
<path d="M495.563 267.691H498.473H509.275V272.006H495.563V267.691Z" fill="white" stroke="#78719E" stroke-width="1.5" stroke-miterlimit="10"/>
<path d="M525.022 252.023H516.772V267.692H525.022V252.023Z" fill="white" stroke="#78719E" stroke-width="1.5" stroke-miterlimit="10"/>
<path d="M513.862 267.691H516.772H527.575V272.006H513.862V267.691Z" fill="white" stroke="#78719E" stroke-width="1.5" stroke-miterlimit="10"/>
<path d="M506.723 278.453H498.473V294.121H506.723V278.453Z" fill="white" stroke="#78719E" stroke-width="1.5" stroke-miterlimit="10"/>
<path d="M495.563 294.121H498.473H509.275V298.436H495.563V294.121Z" fill="white" stroke="#78719E" stroke-width="1.5" stroke-miterlimit="10"/>
<path d="M525.022 278.453H516.772V294.121H525.022V278.453Z" fill="white" stroke="#78719E" stroke-width="1.5" stroke-miterlimit="10"/>
<path d="M513.862 294.121H516.772H527.575V298.436H513.862V294.121Z" fill="white" stroke="#78719E" stroke-width="1.5" stroke-miterlimit="10"/>
<path d="M506.723 304.895H498.473V320.563H506.723V304.895Z" fill="white" stroke="#78719E" stroke-width="1.5" stroke-miterlimit="10"/>
<path d="M495.563 320.562H498.473H509.275V324.865H495.563V320.562Z" fill="white" stroke="#78719E" stroke-width="1.5" stroke-miterlimit="10"/>
<path d="M525.022 304.895H516.772V320.563H525.022V304.895Z" fill="white" stroke="#78719E" stroke-width="1.5" stroke-miterlimit="10"/>
<path d="M513.862 320.562H516.772H527.575V324.865H513.862V320.562Z" fill="white" stroke="#78719E" stroke-width="1.5" stroke-miterlimit="10"/>
<path d="M525.022 331.324H516.772V346.992H525.022V331.324Z" fill="white" stroke="#78719E" stroke-width="1.5" stroke-miterlimit="10"/>
<path d="M513.862 346.994H516.772H527.575V351.309H513.862V346.994Z" fill="white" stroke="#78719E" stroke-width="1.5" stroke-miterlimit="10"/>
<path d="M542.125 236.428H468.78V242.333H542.125V236.428Z" fill="white" stroke="#78719E" stroke-width="1.5" stroke-miterlimit="10"/>
<path d="M544.468 230.486H464.229V237.427H544.468V230.486Z" fill="white" stroke="#78719E" stroke-width="1.5" stroke-miterlimit="10"/>
<path d="M472.232 230.487V215.521H525.145H536.552V230.487H472.232Z" fill="white" stroke="#78719E" stroke-width="1.5" stroke-miterlimit="10"/>
<path d="M432.008 318.283H460.284L466.536 335.123H432.008L463.736 335.394V360.887H431.848" fill="white"/>
<path d="M432.008 318.283H460.284L466.536 335.123H432.008L463.736 335.394V360.887H431.848" stroke="#78719E" stroke-width="1.5" stroke-miterlimit="10"/>
<path d="M404.756 280.783L418.986 241.828L432.834 280.783H404.756Z" fill="white" stroke="#78719E" stroke-width="1.5" stroke-miterlimit="10"/>
<path d="M406.199 360.887V281.276L431.848 280.783V360.887H406.199Z" fill="white" stroke="#78719E" stroke-width="1.5" stroke-miterlimit="10"/>
<path d="M406.421 306.967H431.565" stroke="#78719E" stroke-width="1.5" stroke-miterlimit="10"/>
<path d="M406.051 304.611H431.774" stroke="#78719E" stroke-width="1.5" stroke-miterlimit="10"/>
<path d="M416.866 292.333V301.726H420.318V292.333C420.318 292.333 420.368 290.139 418.592 289.904C418.592 289.904 416.866 289.88 416.866 292.333Z" fill="white" stroke="#78719E" stroke-width="1.5" stroke-miterlimit="10"/>
<path d="M461.887 322.586H432.008" stroke="#78719E" stroke-width="1.5" stroke-miterlimit="10"/>
<path d="M463.218 327.135H432.008" stroke="#78719E" stroke-width="1.5" stroke-miterlimit="10"/>
<path d="M465.204 331.684H432.008" stroke="#78719E" stroke-width="1.5" stroke-miterlimit="10"/>
<path d="M406.421 224.482H365.766V361.046H406.421V224.482Z" fill="white" stroke="#78719E" stroke-width="1.5" stroke-miterlimit="10"/>
<path d="M393.424 341.039H379.108V361.047H393.424V341.039Z" fill="white" stroke="#78719E" stroke-width="1.5" stroke-miterlimit="10"/>
<path d="M380.736 312.6H372.93V327.232H380.736V312.6Z" fill="white" stroke="#78719E" stroke-width="1.5" stroke-miterlimit="10"/>
<path d="M383.004 332.422H369.847V327.232H382.894L383.004 332.422Z" fill="white" stroke="#78719E" stroke-width="1.5" stroke-miterlimit="10"/>
<path d="M372.93 319.91H380.736" stroke="#78719E" stroke-width="1.5" stroke-miterlimit="10"/>
<path d="M399.873 312.6H392.068V327.232H399.873V312.6Z" fill="white" stroke="#78719E" stroke-width="1.5" stroke-miterlimit="10"/>
<path d="M402.155 332.422H388.985V327.232H402.044L402.155 332.422Z" fill="white" stroke="#78719E" stroke-width="1.5" stroke-miterlimit="10"/>
<path d="M392.068 319.91H399.873" stroke="#78719E" stroke-width="1.5" stroke-miterlimit="10"/>
<path d="M380.736 285.455H372.93V300.088H380.736V285.455Z" fill="white" stroke="#78719E" stroke-width="1.5" stroke-miterlimit="10"/>
<path d="M383.004 305.29H369.847V300.088H382.894L383.004 305.29Z" fill="white" stroke="#78719E" stroke-width="1.5" stroke-miterlimit="10"/>
<path d="M372.93 292.777H380.736" stroke="#78719E" stroke-width="1.5" stroke-miterlimit="10"/>
<path d="M399.873 285.455H392.068V300.088H399.873V285.455Z" fill="white" stroke="#78719E" stroke-width="1.5" stroke-miterlimit="10"/>
<path d="M402.155 305.29H388.985V300.088H402.044L402.155 305.29Z" fill="white" stroke="#78719E" stroke-width="1.5" stroke-miterlimit="10"/>
<path d="M392.068 292.777H399.873" stroke="#78719E" stroke-width="1.5" stroke-miterlimit="10"/>
<path d="M380.736 258.322H372.93V272.955H380.736V258.322Z" fill="white" stroke="#78719E" stroke-width="1.5" stroke-miterlimit="10"/>
<path d="M383.004 278.145H369.847V272.955H382.894L383.004 278.145Z" fill="white" stroke="#78719E" stroke-width="1.5" stroke-miterlimit="10"/>
<path d="M372.93 265.633H380.736" stroke="#78719E" stroke-width="1.5" stroke-miterlimit="10"/>
<path d="M399.873 258.322H392.068V272.955H399.873V258.322Z" fill="white" stroke="#78719E" stroke-width="1.5" stroke-miterlimit="10"/>
<path d="M402.155 278.145H388.985V272.955H402.044L402.155 278.145Z" fill="white" stroke="#78719E" stroke-width="1.5" stroke-miterlimit="10"/>
<path d="M392.068 265.633H399.873" stroke="#78719E" stroke-width="1.5" stroke-miterlimit="10"/>
<path d="M380.736 231.855H372.93V246.488H380.736V231.855Z" fill="white" stroke="#78719E" stroke-width="1.5" stroke-miterlimit="10"/>
<path d="M383.004 251.69H369.847V246.488H382.894L383.004 251.69Z" fill="white" stroke="#78719E" stroke-width="1.5" stroke-miterlimit="10"/>
<path d="M372.93 239.178H380.736" stroke="#78719E" stroke-width="1.5" stroke-miterlimit="10"/>
<path d="M399.873 231.855H392.068V246.488H399.873V231.855Z" fill="white" stroke="#78719E" stroke-width="1.5" stroke-miterlimit="10"/>
<path d="M402.155 251.69H388.985V246.488H402.044L402.155 251.69Z" fill="white" stroke="#78719E" stroke-width="1.5" stroke-miterlimit="10"/>
<path d="M392.068 239.178H399.873" stroke="#78719E" stroke-width="1.5" stroke-miterlimit="10"/>
<path d="M371.241 216.839V197.51H380.736V216.839" fill="white"/>
<path d="M371.241 216.839V197.51H380.736V216.839" stroke="#78719E" stroke-width="1.5" stroke-miterlimit="10"/>
<path d="M383.966 217.753V202.824H390.835V217.753" fill="white"/>
<path d="M383.966 217.753V202.824H390.835V217.753" stroke="#78719E" stroke-width="1.5" stroke-miterlimit="10"/>
<path d="M407.593 223.928V217.197H362.683V223.928H366.937H407.593Z" fill="white" stroke="#78719E" stroke-width="1.5" stroke-miterlimit="10"/>
<path d="M295.306 173.682H342.645H365.544V360.923H295.306V173.682Z" fill="white" stroke="#78719E" stroke-width="1.5" stroke-miterlimit="10"/>
<path d="M343.656 360.923V173.682" stroke="#78719E" stroke-width="1.5" stroke-miterlimit="10"/>
<path d="M336.565 184.295H301.742V189.596H336.565V184.295Z" fill="white" stroke="#78719E" stroke-width="1.5" stroke-miterlimit="10"/>
<path d="M336.565 198.09H301.742V203.391H336.565V198.09Z" fill="white" stroke="#78719E" stroke-width="1.5" stroke-miterlimit="10"/>
<path d="M336.565 211.896H301.742V217.197H336.565V211.896Z" fill="white" stroke="#78719E" stroke-width="1.5" stroke-miterlimit="10"/>
<path d="M336.565 225.691H301.742V230.992H336.565V225.691Z" fill="white" stroke="#78719E" stroke-width="1.5" stroke-miterlimit="10"/>
<path d="M336.565 239.486H301.742V244.787H336.565V239.486Z" fill="white" stroke="#78719E" stroke-width="1.5" stroke-miterlimit="10"/>
<path d="M336.565 253.279H301.742V258.58H336.565V253.279Z" fill="white" stroke="#78719E" stroke-width="1.5" stroke-miterlimit="10"/>
<path d="M336.565 267.086H301.742V272.387H336.565V267.086Z" fill="white" stroke="#78719E" stroke-width="1.5" stroke-miterlimit="10"/>
<path d="M336.565 280.881H301.742V286.182H336.565V280.881Z" fill="white" stroke="#78719E" stroke-width="1.5" stroke-miterlimit="10"/>
<path d="M336.565 294.676H301.742V299.977H336.565V294.676Z" fill="white" stroke="#78719E" stroke-width="1.5" stroke-miterlimit="10"/>
<path d="M336.565 308.471H301.742V313.772H336.565V308.471Z" fill="white" stroke="#78719E" stroke-width="1.5" stroke-miterlimit="10"/>
<path d="M336.565 322.277H301.742V327.578H336.565V322.277Z" fill="white" stroke="#78719E" stroke-width="1.5" stroke-miterlimit="10"/>
<path d="M336.565 336.07H301.742V341.371H336.565V336.07Z" fill="white" stroke="#78719E" stroke-width="1.5" stroke-miterlimit="10"/>
<path d="M365.346 336.07H349.082V341.371H365.346V336.07Z" fill="white" stroke="#78719E" stroke-width="1.5" stroke-miterlimit="10"/>
<path d="M365.346 322.277H349.082V327.578H365.346V322.277Z" fill="white" stroke="#78719E" stroke-width="1.5" stroke-miterlimit="10"/>
<path d="M365.346 308.471H349.082V313.772H365.346V308.471Z" fill="white" stroke="#78719E" stroke-width="1.5" stroke-miterlimit="10"/>
<path d="M365.346 294.676H349.082V299.977H365.346V294.676Z" fill="white" stroke="#78719E" stroke-width="1.5" stroke-miterlimit="10"/>
<path d="M365.346 280.881H349.082V286.182H365.346V280.881Z" fill="white" stroke="#78719E" stroke-width="1.5" stroke-miterlimit="10"/>
<path d="M365.346 267.086H349.082V272.387H365.346V267.086Z" fill="white" stroke="#78719E" stroke-width="1.5" stroke-miterlimit="10"/>
<path d="M365.346 253.279H349.082V258.58H365.346V253.279Z" fill="white" stroke="#78719E" stroke-width="1.5" stroke-miterlimit="10"/>
<path d="M365.346 239.486H349.082V244.787H365.346V239.486Z" fill="white" stroke="#78719E" stroke-width="1.5" stroke-miterlimit="10"/>
<path d="M365.346 225.691H349.082V230.992H365.346V225.691Z" fill="white" stroke="#78719E" stroke-width="1.5" stroke-miterlimit="10"/>
<path d="M365.346 211.896H349.082V217.197H365.346V211.896Z" fill="white" stroke="#78719E" stroke-width="1.5" stroke-miterlimit="10"/>
<path d="M365.346 198.09H349.082V203.391H365.346V198.09Z" fill="white" stroke="#78719E" stroke-width="1.5" stroke-miterlimit="10"/>
<path d="M365.346 184.295H349.082V189.596H365.346V184.295Z" fill="white" stroke="#78719E" stroke-width="1.5" stroke-miterlimit="10"/>
<path d="M426.188 340.768H411.872V360.775H426.188V340.768Z" fill="white" stroke="#78719E" stroke-width="1.5" stroke-miterlimit="10"/>
<path d="M723.109 323.879C723.109 323.879 719.323 322.017 715.833 325.383C712.344 328.748 714.81 332.594 714.81 332.594C714.81 332.594 710.642 334.369 711.024 338.203C711.505 342.998 717.276 345.279 723.109 343.418C723.109 343.418 725.217 346.068 729.065 346.068C732.912 346.068 735.317 344.022 735.588 343.479C735.588 343.479 738.745 346.13 742.173 344.798C745.601 343.479 744.996 340.225 744.996 340.225C744.996 340.225 749.448 341.544 750.891 337.759C752.334 333.975 750.348 330.129 748.61 329.34C748.61 329.34 749.214 325.419 746.501 323.361C743.8 321.29 739.287 322.794 739.287 322.794C739.287 322.794 737.462 315.779 730.705 316.162C723.96 316.544 723.109 323.879 723.109 323.879Z" fill="#CACAEA"/>
<path d="M729.225 320.219C729.583 320.466 729.866 320.798 730.187 321.082C730.446 321.304 730.84 320.922 730.569 320.7C730.199 320.392 729.891 320.034 729.496 319.751C729.213 319.553 728.941 320.022 729.225 320.219Z" fill="#CACAEA"/>
<path d="M733.529 324.903C733.973 324.607 734.429 324.348 734.848 324.016C735.12 323.794 734.737 323.411 734.466 323.633C734.096 323.942 733.665 324.163 733.258 324.435C732.962 324.62 733.233 325.1 733.529 324.903Z" fill="#CACAEA"/>
<path d="M727.955 324.792C728.005 325.334 727.906 325.877 727.894 326.419C727.894 326.764 728.424 326.764 728.436 326.419C728.436 325.877 728.547 325.334 728.498 324.792C728.473 324.447 727.931 324.447 727.955 324.792Z" fill="#CACAEA"/>
<path d="M721.716 327.146C722.332 327.269 722.973 327.331 723.578 327.503C723.91 327.602 724.058 327.072 723.726 326.986C723.109 326.813 722.48 326.739 721.864 326.628C721.518 326.566 721.383 327.084 721.716 327.146Z" fill="#CACAEA"/>
<path d="M721.888 330.746C721.95 331.128 722.049 331.486 722.061 331.88C722.061 332.225 722.603 332.225 722.603 331.88C722.603 331.449 722.492 331.03 722.418 330.611C722.357 330.265 721.839 330.413 721.901 330.758L721.888 330.746Z" fill="#CACAEA"/>
<path d="M716.697 330.61C717.165 330.376 717.634 330.142 718.139 329.982C718.472 329.871 718.324 329.341 717.991 329.464C717.449 329.649 716.931 329.895 716.425 330.154C716.117 330.314 716.388 330.783 716.697 330.623V330.61Z" fill="#CACAEA"/>
<path d="M718.571 335.011C718.497 335.59 718.337 336.157 718.325 336.749C718.325 337.094 718.855 337.094 718.867 336.749C718.867 336.157 719.04 335.59 719.114 335.011C719.163 334.666 718.621 334.666 718.571 335.011Z" fill="#CACAEA"/>
<path d="M715.525 339.104C715.945 339.536 716.241 340.054 716.561 340.547C716.759 340.83 717.227 340.571 717.03 340.276C716.672 339.745 716.352 339.178 715.908 338.722C715.661 338.476 715.279 338.858 715.525 339.104Z" fill="#CACAEA"/>
<path d="M723.849 340.707C724.49 340.399 724.996 339.881 725.588 339.499C725.884 339.314 725.612 338.846 725.316 339.031C724.712 339.401 724.219 339.918 723.578 340.239C723.257 340.387 723.541 340.855 723.849 340.707Z" fill="#CACAEA"/>
<path d="M728.362 331.361C729.102 331.226 729.78 330.893 730.532 330.757C730.878 330.696 730.73 330.178 730.384 330.239C729.645 330.375 728.954 330.696 728.214 330.843C727.869 330.905 728.017 331.435 728.362 331.361Z" fill="#CACAEA"/>
<path d="M734.047 329.648C734.491 329.882 734.861 330.227 735.157 330.634C735.354 330.918 735.835 330.634 735.625 330.363C735.28 329.882 734.861 329.463 734.33 329.179C734.022 329.019 733.751 329.488 734.059 329.648H734.047Z" fill="#CACAEA"/>
<path d="M740.052 326.124C740.163 326.826 740.237 327.541 740.409 328.232C740.496 328.565 741.014 328.429 740.927 328.084C740.755 327.393 740.681 326.678 740.57 325.976C740.52 325.631 739.99 325.779 740.052 326.124Z" fill="#CACAEA"/>
<path d="M744.294 329.945C744.824 329.674 745.33 329.341 745.86 329.045C746.168 328.872 745.897 328.404 745.589 328.577C745.058 328.872 744.565 329.205 744.022 329.477C743.714 329.637 743.986 330.105 744.294 329.945Z" fill="#CACAEA"/>
<path d="M741.495 333.458C741.618 333.975 741.791 334.469 741.976 334.962C742.099 335.282 742.617 335.147 742.494 334.814C742.309 334.321 742.136 333.827 742.013 333.31C741.939 332.965 741.409 333.112 741.495 333.458Z" fill="#CACAEA"/>
<path d="M746.39 335.27C746.982 335.06 747.512 334.715 748.018 334.345C748.289 334.136 748.018 333.667 747.747 333.877C747.278 334.222 746.797 334.555 746.242 334.752C745.922 334.863 746.057 335.393 746.39 335.27Z" fill="#CACAEA"/>
<path d="M735.144 337.564C735.761 337.551 736.353 337.379 736.957 337.255C737.302 337.181 737.154 336.664 736.809 336.738C736.254 336.849 735.712 337.021 735.132 337.034C734.787 337.034 734.787 337.576 735.132 337.576L735.144 337.564Z" fill="#CACAEA"/>
<path d="M738.116 339.991C738.116 340.497 738.054 340.99 737.993 341.495C737.956 341.84 738.486 341.84 738.535 341.495C738.597 340.99 738.646 340.497 738.658 339.991C738.658 339.646 738.116 339.646 738.116 339.991Z" fill="#CACAEA"/>
<path d="M742.37 338.932C743.024 338.747 743.653 338.525 744.294 338.328C744.627 338.229 744.479 337.699 744.146 337.81C743.505 338.007 742.864 338.229 742.222 338.414C741.889 338.513 742.025 339.031 742.37 338.932Z" fill="#CACAEA"/>
<path d="M738.745 344.984L737.549 344.22L732.69 349.693L732.419 343.862L734.244 341.039L733.048 340.275L732.296 341.052L731.926 333.322H729.287L729.052 338.45L726.944 336.293L725.735 337.045L728.88 341.927L728.436 351.653L727.363 350.556L726.155 351.308L728.288 354.624L727.967 361.749H733.257L732.875 353.502L738.745 344.984Z" fill="#CACAEA"/>
<path d="M738.745 344.984L737.549 344.22L732.69 349.693L732.419 343.862L734.244 341.039L733.048 340.275L732.296 341.052L731.926 333.322H729.287L729.052 338.45L726.944 336.293L725.735 337.045L728.88 341.927L728.436 351.653L727.363 350.556L726.155 351.308L728.288 354.624L727.967 361.749H733.257L732.875 353.502L738.745 344.984Z" fill="#CACAEA"/>
<mask id="mask0_28252_12641" style="mask-type:luminance" maskUnits="userSpaceOnUse" x="725" y="333" width="14" height="29">
<path d="M738.745 344.984L737.549 344.22L732.69 349.693L732.419 343.862L734.244 341.039L733.048 340.275L732.296 341.052L731.926 333.322H729.287L729.052 338.45L726.944 336.293L725.735 337.045L728.88 341.927L728.436 351.653L727.363 350.556L726.155 351.308L728.288 354.624L727.967 361.749H733.257L732.875 353.502L738.745 344.984Z" fill="white"/>
</mask>
<g mask="url(#mask0_28252_12641)">
<path d="M736.044 344.799C735.748 345.76 736.525 348.349 737.61 348.707L736.044 344.799Z" fill="#CACAEA"/>
</g>
<path d="M734.774 334.1C734.774 334.1 734.898 329.107 740.607 328.626C746.316 328.146 747.278 331.696 747.636 333.791C747.636 333.791 750.706 333.372 752.445 335.111C754.183 336.849 754.134 339.437 753.049 340.522C753.049 340.522 754.553 343.407 752.506 345.996C750.459 348.584 745.293 347.685 743.973 346.353C743.973 346.353 741.84 348.4 737.906 347.648C733.973 346.883 733.578 344.788 733.578 344.788C733.578 344.788 730.039 343.641 729.497 340.103C728.942 336.565 732.555 334.457 734.787 334.087L734.774 334.1Z" fill="#CACAEA"/>
<path d="M737.66 332.558C738.03 332.927 738.412 333.273 738.696 333.704C738.88 334 739.349 333.729 739.164 333.433C738.856 332.952 738.437 332.57 738.042 332.175C737.795 331.929 737.413 332.311 737.66 332.558Z" fill="#CACAEA"/>
<path d="M741.149 332.386C741.729 332.435 742.284 332.324 742.839 332.201C743.184 332.127 743.036 331.609 742.691 331.683C742.173 331.794 741.667 331.893 741.137 331.856C740.792 331.831 740.792 332.373 741.137 332.398L741.149 332.386Z" fill="#CACAEA"/>
<path d="M740.743 336.651C741.088 337.181 741.334 337.773 741.643 338.34C741.815 338.648 742.272 338.377 742.111 338.069C741.803 337.514 741.556 336.922 741.211 336.38C741.026 336.084 740.558 336.355 740.743 336.651Z" fill="#CACAEA"/>
<path d="M745.416 336.836C746.07 336.774 746.711 336.713 747.352 336.589C747.697 336.528 747.549 335.998 747.204 336.072C746.612 336.182 746.008 336.244 745.416 336.306C745.071 336.343 745.071 336.885 745.416 336.848V336.836Z" fill="#CACAEA"/>
<path d="M751.779 337.032C751.384 337.451 751.138 337.981 750.83 338.474C750.645 338.77 751.113 339.041 751.298 338.745C751.569 338.302 751.791 337.796 752.161 337.414C752.408 337.168 752.026 336.773 751.779 337.032Z" fill="#CACAEA"/>
<path d="M747.377 340.3C747.438 340.756 747.5 341.224 747.562 341.681C747.599 342.026 748.141 342.026 748.104 341.681C748.043 341.224 747.981 340.756 747.919 340.3C747.882 339.955 747.34 339.955 747.377 340.3Z" fill="#CACAEA"/>
<path d="M746.748 345.489C747.315 345.489 747.87 345.427 748.437 345.427C748.782 345.427 748.782 344.885 748.437 344.885C747.87 344.885 747.315 344.946 746.748 344.946C746.402 344.946 746.402 345.489 746.748 345.489Z" fill="#CACAEA"/>
<path d="M750.398 342.889C750.706 343.135 750.99 343.419 751.298 343.665C751.409 343.764 751.57 343.776 751.68 343.665C751.779 343.567 751.791 343.382 751.68 343.283C751.372 343.036 751.089 342.753 750.78 342.506C750.669 342.408 750.509 342.395 750.398 342.506C750.299 342.605 750.287 342.79 750.398 342.889Z" fill="#CACAEA"/>
<path d="M743.246 342.924C742.863 343.245 742.568 343.652 742.222 344.009C741.976 344.256 742.358 344.638 742.605 344.391C742.95 344.034 743.246 343.627 743.628 343.307C743.899 343.085 743.505 342.702 743.246 342.924Z" fill="#CACAEA"/>
<path d="M738.794 340.25C739.176 340.558 739.559 340.879 739.99 341.137C740.286 341.31 740.57 340.842 740.262 340.669C739.867 340.435 739.522 340.151 739.176 339.868C738.905 339.646 738.523 340.028 738.794 340.25Z" fill="#CACAEA"/>
<path d="M736.291 337.513C735.983 337.932 735.527 338.265 735.07 338.499C734.762 338.659 735.033 339.128 735.342 338.967C735.897 338.684 736.39 338.289 736.76 337.784C736.969 337.5 736.501 337.229 736.291 337.513Z" fill="#CACAEA"/>
<path d="M732.049 338.265C732.222 338.869 732.333 339.485 732.345 340.114C732.345 340.459 732.887 340.459 732.887 340.114C732.887 339.436 732.764 338.77 732.579 338.117C732.481 337.784 731.963 337.92 732.061 338.265H732.049Z" fill="#CACAEA"/>
<path d="M734.54 343.393C735.181 343.393 735.773 343.245 736.365 342.999C736.686 342.863 736.414 342.395 736.094 342.53C735.601 342.74 735.083 342.851 734.552 342.851C734.207 342.851 734.207 343.393 734.552 343.393H734.54Z" fill="#CACAEA"/>
<path d="M738.659 343.9V345.342C738.659 345.687 739.201 345.687 739.201 345.342V343.9C739.201 343.554 738.659 343.554 738.659 343.9Z" fill="#CACAEA"/>
<path d="M174.658 323.041C174.658 323.041 170.872 321.179 167.383 324.545C163.893 327.91 166.359 331.756 166.359 331.756C166.359 331.756 162.191 333.531 162.574 337.365C163.055 342.161 168.825 344.441 174.658 342.58C174.658 342.58 176.767 345.23 180.614 345.23C184.461 345.23 186.866 343.184 187.137 342.641C187.137 342.641 190.294 345.292 193.722 343.96C197.15 342.641 196.546 339.387 196.546 339.387C196.546 339.387 200.997 340.706 202.44 336.921C203.883 333.137 201.898 329.291 200.159 328.502C200.159 328.502 200.763 324.582 198.05 322.523C195.35 320.452 190.837 321.956 190.837 321.956C190.837 321.956 189.012 314.942 182.254 315.324C175.509 315.706 174.658 323.041 174.658 323.041Z" fill="#CACAEA"/>
<path d="M180.774 319.367C181.132 319.614 181.416 319.947 181.736 320.23C181.995 320.452 182.39 320.07 182.118 319.848C181.749 319.54 181.44 319.183 181.046 318.899C180.762 318.702 180.491 319.17 180.774 319.367Z" fill="#CACAEA"/>
<path d="M185.078 324.065C185.522 323.769 185.978 323.51 186.397 323.178C186.669 322.956 186.286 322.574 186.015 322.795C185.645 323.104 185.214 323.326 184.807 323.597C184.511 323.782 184.782 324.262 185.078 324.065Z" fill="#CACAEA"/>
<path d="M179.504 323.941C179.553 324.483 179.455 325.025 179.442 325.568C179.442 325.913 179.973 325.913 179.985 325.568C179.985 325.025 180.096 324.483 180.047 323.941C180.022 323.595 179.479 323.595 179.504 323.941Z" fill="#CACAEA"/>
<path d="M173.264 326.308C173.881 326.431 174.522 326.493 175.126 326.665C175.459 326.764 175.607 326.234 175.274 326.148C174.658 325.975 174.029 325.901 173.412 325.79C173.067 325.729 172.931 326.246 173.264 326.308Z" fill="#CACAEA"/>
<path d="M173.437 329.908C173.499 330.29 173.597 330.648 173.61 331.042C173.61 331.388 174.152 331.388 174.152 331.042C174.152 330.611 174.041 330.192 173.967 329.773C173.906 329.427 173.388 329.575 173.449 329.921L173.437 329.908Z" fill="#CACAEA"/>
<path d="M168.246 329.772C168.715 329.538 169.183 329.304 169.689 329.144C170.022 329.033 169.874 328.503 169.541 328.626C168.998 328.811 168.48 329.057 167.975 329.316C167.666 329.477 167.938 329.945 168.246 329.785V329.772Z" fill="#CACAEA"/>
<path d="M170.12 334.161C170.046 334.741 169.886 335.308 169.874 335.899C169.874 336.245 170.404 336.245 170.416 335.899C170.416 335.308 170.589 334.741 170.663 334.161C170.712 333.816 170.169 333.816 170.12 334.161Z" fill="#CACAEA"/>
<path d="M167.074 338.266C167.494 338.698 167.79 339.216 168.11 339.709C168.307 339.992 168.776 339.733 168.579 339.438C168.221 338.908 167.9 338.34 167.457 337.884C167.21 337.638 166.828 338.02 167.074 338.266Z" fill="#CACAEA"/>
<path d="M175.398 339.867C176.039 339.559 176.545 339.041 177.137 338.659C177.432 338.474 177.161 338.006 176.865 338.191C176.261 338.561 175.768 339.078 175.127 339.399C174.806 339.547 175.09 340.015 175.398 339.867Z" fill="#CACAEA"/>
<path d="M179.899 330.523C180.639 330.388 181.317 330.055 182.069 329.919C182.414 329.858 182.266 329.34 181.921 329.402C181.181 329.537 180.491 329.858 179.751 330.006C179.405 330.067 179.553 330.597 179.899 330.523Z" fill="#CACAEA"/>
<path d="M185.583 328.81C186.027 329.044 186.397 329.389 186.693 329.796C186.891 330.08 187.371 329.796 187.162 329.525C186.817 329.044 186.397 328.625 185.867 328.342C185.559 328.181 185.287 328.65 185.596 328.81H185.583Z" fill="#CACAEA"/>
<path d="M191.601 325.284C191.712 325.987 191.786 326.701 191.958 327.392C192.045 327.725 192.563 327.589 192.476 327.244C192.304 326.554 192.23 325.839 192.119 325.136C192.069 324.791 191.539 324.939 191.601 325.284Z" fill="#CACAEA"/>
<path d="M195.843 329.107C196.373 328.836 196.878 328.503 197.409 328.207C197.717 328.035 197.446 327.566 197.137 327.739C196.607 328.035 196.114 328.367 195.571 328.639C195.263 328.799 195.534 329.267 195.843 329.107Z" fill="#CACAEA"/>
<path d="M193.044 332.62C193.167 333.138 193.34 333.631 193.525 334.124C193.648 334.444 194.166 334.309 194.042 333.976C193.858 333.483 193.685 332.99 193.562 332.472C193.488 332.127 192.957 332.275 193.044 332.62Z" fill="#CACAEA"/>
<path d="M197.939 334.432C198.531 334.223 199.061 333.877 199.567 333.508C199.838 333.298 199.567 332.83 199.296 333.039C198.827 333.384 198.346 333.717 197.791 333.914C197.471 334.025 197.606 334.555 197.939 334.432Z" fill="#CACAEA"/>
<path d="M186.681 336.724C187.298 336.711 187.889 336.539 188.494 336.416C188.839 336.342 188.691 335.824 188.346 335.898C187.791 336.009 187.248 336.181 186.669 336.194C186.323 336.194 186.323 336.736 186.669 336.736L186.681 336.724Z" fill="#CACAEA"/>
<path d="M189.665 339.153C189.665 339.659 189.603 340.152 189.541 340.657C189.504 341.003 190.035 341.003 190.084 340.657C190.146 340.152 190.195 339.659 190.207 339.153C190.207 338.808 189.665 338.808 189.665 339.153Z" fill="#CACAEA"/>
<path d="M193.907 338.092C194.561 337.907 195.189 337.685 195.831 337.488C196.164 337.389 196.016 336.859 195.683 336.97C195.041 337.168 194.4 337.389 193.759 337.574C193.426 337.673 193.562 338.191 193.907 338.092Z" fill="#CACAEA"/>
<path d="M190.294 344.146L189.086 343.382L184.239 348.855L183.968 343.024L185.793 340.189L184.597 339.437L183.832 340.201L183.475 332.484H180.836L180.589 337.613L178.481 335.443L177.285 336.207L180.429 341.089L179.973 350.803L178.912 349.706L177.704 350.47L179.837 353.786L179.504 360.911H184.794L184.412 352.664L190.294 344.146Z" fill="#CACAEA"/>
<path d="M190.294 344.146L189.086 343.382L184.239 348.855L183.968 343.024L185.793 340.189L184.597 339.437L183.832 340.201L183.475 332.484H180.836L180.589 337.613L178.481 335.443L177.285 336.207L180.429 341.089L179.973 350.803L178.912 349.706L177.704 350.47L179.837 353.786L179.504 360.911H184.794L184.412 352.664L190.294 344.146Z" fill="#CACAEA"/>
<mask id="mask1_28252_12641" style="mask-type:luminance" maskUnits="userSpaceOnUse" x="177" y="332" width="14" height="29">
<path d="M190.294 344.146L189.086 343.382L184.239 348.855L183.968 343.024L185.793 340.189L184.597 339.437L183.832 340.201L183.475 332.484H180.836L180.589 337.613L178.481 335.443L177.285 336.207L180.429 341.089L179.973 350.803L178.912 349.706L177.704 350.47L179.837 353.786L179.504 360.911H184.794L184.412 352.664L190.294 344.146Z" fill="white"/>
</mask>
<g mask="url(#mask1_28252_12641)">
<path d="M187.594 343.961C187.298 344.922 188.075 347.511 189.16 347.869L187.594 343.961Z" fill="#CACAEA"/>
</g>
<path d="M186.323 333.26C186.323 333.26 186.446 328.267 192.156 327.786C197.865 327.306 198.827 330.856 199.185 332.952C199.185 332.952 202.255 332.533 203.994 334.271C205.732 336.009 205.683 338.598 204.598 339.682C204.598 339.682 206.102 342.567 204.055 345.156C202.008 347.745 196.842 346.845 195.522 345.513C195.522 345.513 193.389 347.56 189.455 346.808C185.522 346.043 185.127 343.948 185.127 343.948C185.127 343.948 181.588 342.801 181.045 339.263C180.491 335.725 184.104 333.617 186.335 333.247L186.323 333.26Z" fill="#CACAEA"/>
<path d="M189.196 331.708C189.566 332.078 189.949 332.423 190.232 332.854C190.417 333.15 190.886 332.879 190.701 332.583C190.392 332.102 189.973 331.72 189.579 331.326C189.332 331.079 188.95 331.461 189.196 331.708Z" fill="#CACAEA"/>
<path d="M192.699 331.548C193.278 331.597 193.833 331.486 194.388 331.363C194.733 331.289 194.585 330.771 194.24 330.845C193.722 330.956 193.216 331.055 192.686 331.018C192.341 330.993 192.341 331.535 192.686 331.56L192.699 331.548Z" fill="#CACAEA"/>
<path d="M192.279 335.799C192.625 336.33 192.871 336.921 193.179 337.488C193.352 337.796 193.808 337.525 193.648 337.217C193.34 336.662 193.093 336.071 192.748 335.528C192.563 335.232 192.094 335.504 192.279 335.799Z" fill="#CACAEA"/>
<path d="M196.965 335.998C197.619 335.936 198.26 335.875 198.901 335.751C199.246 335.69 199.098 335.16 198.753 335.234C198.161 335.345 197.557 335.406 196.965 335.468C196.62 335.505 196.62 336.047 196.965 336.01V335.998Z" fill="#CACAEA"/>
<path d="M203.328 336.194C202.933 336.613 202.687 337.143 202.378 337.636C202.193 337.932 202.662 338.203 202.847 337.908C203.118 337.464 203.34 336.958 203.71 336.576C203.957 336.33 203.574 335.935 203.328 336.194Z" fill="#CACAEA"/>
<path d="M198.926 339.448C198.987 339.904 199.049 340.373 199.111 340.829C199.148 341.174 199.69 341.174 199.653 340.829C199.592 340.373 199.53 339.904 199.468 339.448C199.431 339.103 198.889 339.103 198.926 339.448Z" fill="#CACAEA"/>
<path d="M198.284 344.651C198.852 344.651 199.406 344.589 199.974 344.589C200.319 344.589 200.319 344.047 199.974 344.047C199.406 344.047 198.852 344.109 198.284 344.109C197.939 344.109 197.939 344.651 198.284 344.651Z" fill="#CACAEA"/>
<path d="M201.947 342.051C202.255 342.297 202.539 342.581 202.847 342.827C202.958 342.926 203.118 342.938 203.229 342.827C203.328 342.729 203.34 342.544 203.229 342.445C202.921 342.199 202.637 341.915 202.329 341.668C202.218 341.57 202.058 341.558 201.947 341.668C201.848 341.767 201.836 341.952 201.947 342.051Z" fill="#CACAEA"/>
<path d="M194.795 342.086C194.412 342.407 194.116 342.814 193.771 343.171C193.524 343.418 193.907 343.8 194.153 343.553C194.499 343.196 194.795 342.789 195.177 342.469C195.448 342.247 195.054 341.865 194.795 342.086Z" fill="#CACAEA"/>
<path d="M190.343 339.4C190.725 339.708 191.107 340.029 191.539 340.288C191.835 340.46 192.119 339.992 191.81 339.819C191.416 339.585 191.07 339.302 190.725 339.018C190.454 338.796 190.072 339.178 190.343 339.4Z" fill="#CACAEA"/>
<path d="M187.84 336.675C187.532 337.094 187.075 337.427 186.619 337.661C186.311 337.821 186.582 338.29 186.89 338.129C187.445 337.846 187.939 337.451 188.309 336.946C188.518 336.662 188.05 336.391 187.84 336.675Z" fill="#CACAEA"/>
<path d="M183.598 337.427C183.77 338.031 183.881 338.647 183.894 339.276C183.894 339.621 184.436 339.621 184.436 339.276C184.436 338.598 184.313 337.932 184.128 337.279C184.029 336.946 183.511 337.082 183.61 337.427H183.598Z" fill="#CACAEA"/>
<path d="M186.089 342.555C186.73 342.555 187.322 342.407 187.914 342.161C188.235 342.025 187.963 341.557 187.643 341.692C187.149 341.902 186.631 342.013 186.101 342.013C185.756 342.013 185.756 342.555 186.101 342.555H186.089Z" fill="#CACAEA"/>
<path d="M190.208 343.062V344.504C190.208 344.849 190.75 344.849 190.75 344.504V343.062C190.75 342.716 190.208 342.716 190.208 343.062Z" fill="#CACAEA"/>
<path d="M0 361.318H176.397H824.582H949.558" fill="white"/>
<path d="M0 361.318H176.397H824.582H949.558" stroke="#BF6740" stroke-width="1.5" stroke-miterlimit="10"/>
<path d="M5.05566 270.476H154.718C154.718 270.476 176.236 270.34 185.213 255.363C185.213 255.363 193.426 241.026 218.655 241.654C218.655 241.654 254.231 247.769 260.273 218.035L326.072 75.5296C326.072 75.5296 349.858 6.00272 407.593 1.8607C407.593 1.8607 449.716 -0.0993673 470.642 48.101C470.642 48.101 476.857 62.5118 478.435 73.8284C478.435 73.8284 487.017 108.395 508.695 108.912C508.695 108.912 545.849 107.47 554.481 137.364C554.481 137.364 560.153 165.064 560.153 181.114C560.153 181.114 569.895 317.74 672.736 301.973L970.04 303.403" stroke="url(#paint1_linear_28252_12641)" stroke-width="4" stroke-miterlimit="10"/>
<path d="M846.013 319.405L831.537 296.008L785.196 296.069L799.648 318.604L799.55 360.85H845.89L846.013 319.405Z" fill="white" stroke="#78719E" stroke-width="1.5" stroke-miterlimit="10"/>
<path d="M799.55 361.071L799.648 318.603L785.196 296.068L768.907 317.37V360.849H778.291H799.55H845.89L846.013 319.404" fill="white"/>
<path d="M799.55 361.071L799.648 318.603L785.196 296.068L768.907 317.37V360.849H778.291H799.55H845.89L846.013 319.404" stroke="#78719E" stroke-width="1.5" stroke-miterlimit="10"/>
<path d="M799.648 318.604L813.262 318.666L823.053 303.799L832.424 319.405H846.013L831.537 296.008L785.196 296.069L799.648 318.604Z" fill="white" stroke="#78719E" stroke-width="1.5" stroke-miterlimit="10"/>
<path d="M813.262 318.666L804.162 304.723L823.053 303.799L813.262 318.666Z" fill="white" stroke="#78719E" stroke-width="1.5" stroke-miterlimit="10"/>
<path d="M824.052 312.686H821.499V319.453H824.052V312.686Z" fill="white" stroke="#78719E" stroke-width="1.5" stroke-miterlimit="10"/>
<path d="M811.363 326.666H808.81V333.434H811.363V326.666Z" fill="white" stroke="#78719E" stroke-width="1.5" stroke-miterlimit="10"/>
<path d="M785.751 310.676H783.199V317.444H785.751V310.676Z" fill="white" stroke="#78719E" stroke-width="1.5" stroke-miterlimit="10"/>
<path d="M785.985 354.082H781.078V360.85H785.985V354.082Z" fill="white" stroke="#78719E" stroke-width="1.5" stroke-miterlimit="10"/>
<path d="M791.781 326.346H789.229V333.113H791.781V326.346Z" fill="white" stroke="#78719E" stroke-width="1.5" stroke-miterlimit="10"/>
<path d="M791.781 343.123H789.229V349.891H791.781V343.123Z" fill="white" stroke="#78719E" stroke-width="1.5" stroke-miterlimit="10"/>
<path d="M778.488 326.346H775.936V333.113H778.488V326.346Z" fill="white" stroke="#78719E" stroke-width="1.5" stroke-miterlimit="10"/>
<path d="M778.488 343.123H775.936V349.891H778.488V343.123Z" fill="white" stroke="#78719E" stroke-width="1.5" stroke-miterlimit="10"/>
<path d="M823.953 326.346H821.4V333.113H823.953V326.346Z" fill="white" stroke="#78719E" stroke-width="1.5" stroke-miterlimit="10"/>
<path d="M836.543 326.346H833.99V333.113H836.543V326.346Z" fill="white" stroke="#78719E" stroke-width="1.5" stroke-miterlimit="10"/>
<path d="M811.35 343.887H808.798V350.655H811.35V343.887Z" fill="white" stroke="#78719E" stroke-width="1.5" stroke-miterlimit="10"/>
<path d="M823.941 343.578H821.388V350.346H823.941V343.578Z" fill="white" stroke="#78719E" stroke-width="1.5" stroke-miterlimit="10"/>
<path d="M836.543 343.578H833.99V350.346H836.543V343.578Z" fill="white" stroke="#78719E" stroke-width="1.5" stroke-miterlimit="10"/>
<path d="M19.5591 220.089C19.0932 220.089 18.6938 219.702 18.6938 219.215C18.6938 218.727 19.0765 218.34 19.5591 218.34H24.1348C24.6007 218.34 25 218.727 25 219.215C25 219.702 24.6173 220.089 24.1348 220.089H19.5591ZM7.27953 216.911C7.27953 214.203 9.45924 212 12.1381 212C14.817 212 16.9967 214.203 16.9967 216.911V240.488C18.4443 241.833 19.2762 243.734 19.2762 245.785C19.2762 249.771 16.0815 253 12.1381 253C8.19468 253 5 249.771 5 245.785C5 243.751 5.84859 241.85 7.27953 240.488V216.911ZM8.99334 241.295L8.67721 241.548C7.42929 242.59 6.69717 244.121 6.69717 245.785C6.69717 248.813 9.12646 251.268 12.1215 251.268C15.1165 251.268 17.5458 248.813 17.5458 245.785C17.5458 244.121 16.8136 242.59 15.5657 241.548L15.2496 241.295V216.911C15.2496 215.162 13.8353 213.732 12.1048 213.732C10.3744 213.732 8.96007 215.162 8.96007 216.911V241.295H8.99334ZM19.5591 237.411C19.0932 237.411 18.6938 237.024 18.6938 236.536C18.6938 236.048 19.0765 235.662 19.5591 235.662H24.1348C24.6007 235.662 25 236.048 25 236.536C25 237.024 24.6173 237.411 24.1348 237.411H19.5591ZM19.5591 231.642C19.0932 231.642 18.6938 231.256 18.6938 230.768C18.6938 230.28 19.0765 229.893 19.5591 229.893H24.1348C24.6007 229.893 25 230.28 25 230.768C25 231.256 24.6173 231.642 24.1348 231.642H19.5591ZM19.5591 225.874C19.0932 225.874 18.6938 225.487 18.6938 225C18.6938 224.512 19.0765 224.125 19.5591 224.125H24.1348C24.6007 224.125 25 224.512 25 225C25 225.487 24.6173 225.874 24.1348 225.874H19.5591ZM11.2729 242.136V230.432C11.2729 229.961 11.6556 229.557 12.1381 229.557C12.6206 229.557 13.0033 229.944 13.0033 230.432V242.136C14.6339 242.523 15.8652 244.02 15.8652 245.785C15.8652 247.854 14.2013 249.536 12.1547 249.536C10.1082 249.536 8.44426 247.854 8.44426 245.785C8.44426 244.003 9.6589 242.523 11.3062 242.136H11.2729ZM12.1381 247.804C13.2363 247.804 14.1348 246.895 14.1348 245.785C14.1348 244.676 13.2363 243.767 12.1381 243.767C11.0399 243.767 10.1414 244.676 10.1414 245.785C10.1414 246.895 11.0399 247.804 12.1381 247.804Z" fill="#78719E"/>
<path d="M458.322 354.198L457.657 353.132H461L460.95 351.635L457.882 351.549L457.792 350.602L460.926 350.627V349L456.265 349.052L454.971 349.023L454.617 349.273L454.992 350.256C455.601 350.327 456.118 350.811 456.118 350.811L456.035 354.4L441.181 354.427L441.194 353.223H446.722V351.64L441.137 351.56L441.225 350.706L447.595 350.717L446.541 349H437.041V350.752L439.479 350.797L439.536 351.751L437.041 351.606V353.314L439.536 353.226V354.432L437 354.436V355.479L439.523 355.559L439.496 360L441.227 359.961V355.502H456.035V359.961H457.694V355.502L460.976 355.456L460.926 354.166L458.322 354.198Z" fill="#CACAEA"/>
<path d="M461.939 359.352L461.624 359.298C461.624 359.298 460.684 359.443 459.872 358.427L459.753 358.153L458.912 356.368L457.907 354.591L457.35 353.518L456.061 351.479C456.061 351.479 455.41 350.634 455.268 350.351C455.126 350.068 454.264 349.862 454.264 349.862L454.208 349.494L453.929 348.992L454.096 348.888L454.208 348.692L454.566 347.905L454.854 347.154L454.638 346.953L453.675 347.644L453.625 347.293L453.3 345.664L452.884 343.565C452.884 343.565 452.772 343.19 452.645 342.877C452.52 342.565 452.323 342.551 452.323 342.551L450.924 341.922L450.816 341.723L450.949 341.704C451.196 341.714 451.475 341.402 451.475 341.402C451.868 340.663 451.922 340.105 451.922 340.105C452.229 340.056 452.282 339.532 452.289 339.287C452.291 339.212 452.289 339.163 452.289 339.163C452.289 339.163 452.289 339.174 452.289 339.191C452.289 339.181 452.289 339.174 452.289 339.163C452.292 338.367 451.631 338.337 451.631 338.337C451.631 338.337 451.628 338.17 451.506 338.011C450.955 337.291 450.303 337.456 450.303 337.456C450.303 337.456 448.506 337.085 448.398 338.797L448.239 339.782C448.239 339.782 448.133 340.691 447.932 340.889C447.932 340.889 446.188 341.896 446.606 342.956C446.606 342.956 446.829 343.445 447.035 343.499L446.898 344.088L446.437 346.115C446.437 346.115 445.717 348.778 446.125 349.673C446.125 349.673 446.266 350.066 446.48 350.136C446.48 350.136 446.13 351.168 446.557 351.816C446.557 351.816 446.853 354.259 448.818 354.13C448.818 354.13 450.591 354.236 453.533 353.066C453.269 353.983 452.246 357.657 452.438 358.93C452.438 358.93 452.991 359.382 453.567 359.265L455.277 354.884C456.156 356.021 457.458 357.55 458.708 358.446C458.708 358.446 459.239 358.56 459.239 359.022C459.239 359.022 459.255 359.628 459.239 359.805C459.224 359.979 459.687 360.129 459.979 360.056L460.913 359.88L461.842 359.754C461.842 359.754 462.03 359.537 461.938 359.354L461.939 359.352Z" fill="#BF6740"/>
<path d="M452.591 359.051L452.308 359.756C452.308 359.756 452.178 359.939 451.926 359.955C451.926 359.955 450.905 360.215 451.299 360.889L451.609 361.142L451.9 361.368L452.373 362.052L452.63 362.394C452.63 362.394 453.007 362.841 453.452 362.728L453.29 362.031C453.29 362.031 452.93 361.83 452.937 361.31L453.075 360.388L453.367 359.302L453.324 359.049H452.594L452.591 359.051Z" fill="#BF6740"/>
<path d="M451.382 338.599C451.382 338.599 451.697 338.753 451.798 339.139C451.798 339.139 451.82 339.273 451.842 339.459C451.892 339.886 451.842 340.321 451.692 340.726C451.541 341.131 451.292 341.641 450.989 341.701C450.989 341.701 450.379 341.854 449.889 341.262C449.889 341.262 449.362 340.644 449.512 339.808C449.512 339.808 450.926 339.614 451.38 338.598L451.382 338.599Z" fill="#BF6740"/>
<path d="M449.6 340.745C449.699 341.146 449.134 341.796 449.134 341.796L448.957 341.899C447.165 342.131 446.925 343.545 446.925 343.545C446.824 343.507 446.61 343.263 446.61 343.263C445.916 342.014 447.544 341.178 447.544 341.178C448.099 340.907 448.125 339.917 448.125 339.917C448.15 339.262 448.327 338.707 448.327 338.707C448.642 336.854 450.295 337.537 450.295 337.537C451.33 337.383 451.683 338.321 451.683 338.321C451.683 338.321 452.226 338.501 452.2 339.222C452.2 339.222 452.226 339.905 451.935 340.109L451.832 340.163" fill="#BF6740"/>
<path d="M450.737 341.721L450.672 342.114C450.672 342.114 450.61 342.461 449.94 342.332C449.94 342.332 449.171 342.138 449.132 341.792" fill="#BF6740"/>
<path d="M450.775 341.955C450.775 341.955 452.128 342.392 452.359 342.645C452.359 342.645 452.688 342.814 452.967 344.424L453.588 347.695L452.315 347.52L451.991 346.874L452.029 347.476L451.431 347.429L450.674 348.992C450.674 348.992 451.294 348.976 451.294 349.198C451.294 349.198 451.4 349.83 450.674 349.862H450.271L450.194 350.162L452.442 350.352L453.372 349.846C453.372 349.846 453.031 349.324 453.264 349.072C453.264 349.072 453.713 348.788 453.93 348.994L454.768 347.209L454.552 347.008L453.589 347.7" fill="#BF6740"/>
<path d="M451.323 347.713L453.597 347.994L454.672 347.236" fill="#BF6740"/>
<path d="M453.929 348.992L454.208 349.493C454.307 349.741 454.119 349.886 454.119 349.886H453.578L453.369 349.846" fill="#BF6740"/>
<path d="M450.271 349.868C450.271 349.868 450.247 349.32 450.016 349.353L450.568 348.723H450.766" fill="#BF6740"/>
<path d="M448.191 346.426L447.399 349C447.399 349 449.58 349.185 450.014 349.354" fill="#BF6740"/>
<path d="M446.925 343.547L446.37 345.934C446.37 345.934 445.728 349.295 446.231 349.896C446.231 349.896 446.56 350.233 447.401 350.36C447.401 350.36 449.593 350.304 450.194 350.17" fill="#BF6740"/>
<path d="M446.437 350.186C446.209 350.54 446.437 351.724 446.437 351.724C446.437 351.724 446.485 351.768 446.627 351.794C446.879 351.839 447.429 351.825 448.539 351.406C448.539 351.406 449.712 350.734 450.194 350.751C450.194 350.751 451.23 350.699 451.42 350.699C451.61 350.699 451.941 350.557 451.953 350.433" fill="#BF6740"/>
<path d="M446.627 351.798C446.538 352.999 447.583 353.886 447.583 353.886C447.583 353.886 448.642 354.559 451.158 353.886L453.483 353.09L453.988 352.991C453.988 352.991 454.161 353.012 454.317 353.502C454.317 353.502 454.646 354.625 457.285 357.192L458.708 358.444C458.708 358.444 459.455 358.669 459.871 358.276L457.476 353.721L455.52 350.632C455.52 350.632 455.157 349.879 454.264 349.863" fill="#BF6740"/>
<path d="M455.194 354.904L453.567 359.262C453.103 359.402 452.431 359.004 452.431 359.004C452.431 359.004 452.825 354.522 453.485 353.09" fill="#BF6740"/>
<path d="M451.241 360.503C451.241 360.699 451.304 360.889 451.427 361.04C451.489 361.113 451.623 361.16 451.755 361.244C451.904 361.338 452.245 361.881 452.245 361.881C452.245 361.881 452.702 362.868 453.492 362.732L453.281 362.068C453.281 362.068 452.873 361.841 452.932 360.912L453.363 359.299C453.363 359.299 452.702 359.234 452.534 359.066C452.534 359.066 452.325 359.875 452.195 359.924C452.195 359.924 451.921 359.95 451.666 360.051C451.451 360.137 451.251 360.278 451.241 360.503Z" fill="#BF6740"/>
<path d="M459.198 359.42L460.245 359.598C460.245 359.598 461.11 359.683 461.239 359.318C461.239 359.318 462.027 359.364 461.991 359.42C461.991 359.42 462.075 359.634 461.732 359.792L460.255 360.006L459.74 360.087C459.74 360.087 459.198 360.162 459.198 359.79V359.418V359.42Z" fill="#BF6740"/>
<path d="M459.872 358.432C459.872 358.432 460.736 359.282 461.241 359.324L459.872 358.432Z" fill="#BF6740"/>
<path d="M458.919 358.57C458.919 358.57 459.31 358.902 459.199 359.431L458.919 358.57Z" fill="#BF6740"/>
<path d="M453.281 362.066C453.281 362.066 452.161 361.806 452.195 359.92L453.281 362.066Z" fill="#BF6740"/>
<path d="M451.129 339.693V340.474C451.129 340.538 451.078 340.591 451.014 340.591L450.774 340.43" fill="#BF6740"/>
<path d="M450.422 340.965C450.422 340.965 450.775 340.895 450.951 341.124L450.422 340.965Z" fill="#BF6740"/>
<path d="M450.749 339.711C450.763 339.711 450.775 339.699 450.775 339.684C450.775 339.67 450.763 339.658 450.749 339.658C450.735 339.658 450.723 339.67 450.723 339.684C450.723 339.699 450.735 339.711 450.749 339.711Z" fill="#BF6740"/>
<path d="M451.474 339.85C451.481 339.85 451.487 339.844 451.487 339.837C451.487 339.83 451.481 339.824 451.474 339.824C451.468 339.824 451.462 339.83 451.462 339.837C451.462 339.844 451.468 339.85 451.474 339.85Z" fill="#BF6740"/>
</g>
<defs>
<radialGradient id="paint0_radial_28252_12641" cx="0" cy="0" r="1" gradientUnits="userSpaceOnUse" gradientTransform="translate(424.771 227.171) rotate(95.8886) scale(124.485 140.199)">
<stop stop-color="#E94301" stop-opacity="0.5"/>
<stop offset="0.325" stop-color="#E9CA01" stop-opacity="0.7"/>
<stop offset="1" stop-color="white" stop-opacity="0"/>
</radialGradient>
<linearGradient id="paint1_linear_28252_12641" x1="5.05566" y1="152.626" x2="970.052" y2="152.626" gradientUnits="userSpaceOnUse">
<stop offset="0.09" stop-color="#CACAEA"/>
<stop offset="0.265" stop-color="#FFE018"/>
<stop offset="0.395" stop-color="#FF3317"/>
<stop offset="0.59" stop-color="#FFE018"/>
<stop offset="0.89" stop-color="#D5D5ED"/>
</linearGradient>
<clipPath id="clip0_28252_12641">
<rect width="970.052" height="362.033" fill="white"/>
</clipPath>
</defs>
</svg>
