<svg width="36" height="58" viewBox="0 0 36 58" fill="none" xmlns="http://www.w3.org/2000/svg">
<g clip-path="url(#clip0_27681_105077)">
<path d="M21.1332 36.8475C20.0341 35.6906 18.8193 37.561 18.2794 38.4286C18.0287 38.8914 18.2023 39.4699 18.665 39.7398C19.1278 39.9905 19.7256 39.8362 19.9762 39.3542C20.3233 38.4672 21.9045 37.908 21.1332 36.8475Z" fill="#000091"/>
<path d="M28.3835 30.8896C29.8682 30.3689 28.692 28.4986 28.1521 27.6502C27.8436 27.226 27.2651 27.1296 26.8409 27.4188C26.3974 27.7273 26.2817 28.3251 26.5902 28.7493C27.2265 29.4241 27.0916 31.1595 28.4028 30.8703L28.3835 30.8896Z" fill="#000091"/>
<path d="M16.3514 20.7282C16.3514 21.6152 16.4093 23.2348 17.6819 22.9842C18.8003 22.695 18.2604 21.538 18.2796 20.7282C21.5769 18.9928 23.6208 15.5992 23.6208 11.8778C23.6015 8.38777 20.7478 5.57261 17.2577 5.5919C16.7949 5.5919 16.3514 5.64974 15.9079 5.74615C8.23357 7.71291 10.8174 18.0866 16.3514 20.7089V20.7282ZM16.39 7.63578C18.7617 7.13445 21.0948 8.63844 21.5962 11.0101C21.654 11.2993 21.6926 11.5693 21.6926 11.8585C21.6926 14.9051 19.9958 17.6817 17.2962 19.0892C13.5362 17.2575 10.2004 9.52541 16.39 7.63578Z" fill="#000091"/>
<path d="M36 39.1423V1.94747C35.9807 0.886968 35.113 0 34.0332 0H0.964114C0.42421 0 0 0.424202 0 0.964096V50.268C0 52.4854 1.81253 54.2979 4.02999 54.2979H10.8174V57.0552C10.8174 57.5951 11.2608 58.0193 11.8007 58.0193C11.955 58.0193 12.1093 57.9807 12.2442 57.9036L14.2496 56.8045C15.0209 57.2866 15.85 57.6915 16.6984 58.0193C17.2383 58.0193 17.6626 57.5951 17.6626 57.0552V54.2979H35.0359C35.5758 54.2979 36 53.8737 36 53.3338V39.1423ZM1.92823 1.92819H4.41564V46.238C3.54794 46.1995 2.69952 46.4116 1.92823 46.8358V1.92819ZM15.7343 55.4162L14.7124 54.8571C14.1146 54.4521 13.2662 55.1848 12.7456 55.4162V51.232H15.7343V55.4162ZM34.0718 52.3697H17.6626C17.5469 51.3092 18.1253 49.3617 16.6984 49.3039H11.7815C10.3546 49.3424 10.933 51.3092 10.8174 52.3697H4.02999C2.87306 52.3697 1.94751 51.4056 1.96679 50.2487C1.96679 49.111 2.89234 48.1855 4.02999 48.1855H34.0718V52.389V52.3697ZM34.0718 46.238H6.34387V1.92819H34.0718V46.238Z" fill="#000091"/>
<path d="M20.3237 11.8971C20.3237 10.2582 18.9739 8.9277 17.335 8.94698C15.7152 8.94698 14.3848 10.2774 14.3848 11.8971C14.3848 13.5361 15.7345 14.8665 17.3735 14.8473C18.9932 14.8473 20.3237 13.5168 20.3237 11.8971ZM16.313 11.8971C16.313 11.3187 16.7758 10.8559 17.3542 10.8559C17.9327 10.8559 18.3955 11.3187 18.3955 11.8778C18.3955 12.4563 17.9327 12.9191 17.3542 12.9383C16.7758 12.9383 16.313 12.4756 16.2937 11.8971H16.313Z" fill="#000091"/>
<path d="M23.2543 25.1631C22.7337 25.1631 22.3095 25.568 22.2902 26.0886C22.2709 26.6285 22.6759 27.072 23.2158 27.0913C24.2184 26.9949 25.4718 28.0554 26.031 26.8213C26.4166 25.3173 24.3341 25.2595 23.2736 25.1631H23.2543Z" fill="#000091"/>
<path d="M25.8576 35.8644C25.6841 35.3631 25.1441 35.0932 24.6428 35.2474C23.9679 35.6138 22.0976 35.1124 22.1747 36.4814C22.2325 37.0213 22.6953 37.4263 23.2352 37.407C24.2572 37.3299 26.2047 37.3106 25.8769 35.8451L25.8576 35.8644Z" fill="#000091"/>
<path d="M26.6866 35.286C27.1108 35.6138 27.7085 35.5174 28.0363 35.0932C28.5955 34.2641 29.8489 32.4323 28.3834 31.8538C27.8628 31.7189 27.3422 32.0081 27.2072 32.5287C27.0722 33.4928 25.6839 34.4183 26.7059 35.2667L26.6866 35.286Z" fill="#000091"/>
<path d="M20.8054 24.7773C19.8991 24.5074 19.1664 22.9648 18.1637 23.8711C17.7781 24.2374 17.7781 24.8545 18.1637 25.2401C18.935 25.9343 20.4969 27.4382 21.2875 26.0692C21.4996 25.5872 21.2875 25.0087 20.8054 24.7966V24.7773Z" fill="#000091"/>
</g>
<defs>
<clipPath id="clip0_27681_105077">
<rect width="36" height="58" fill="white"/>
</clipPath>
</defs>
</svg>
