<svg width="533" height="611" viewBox="0 0 533 611" fill="none" xmlns="http://www.w3.org/2000/svg">
<path d="M203.083 229.464L55.6834 1.00181L180.981 239.599" fill="white"/>
<path d="M203.083 229.464L55.6834 1.00181L180.981 239.599" stroke="#EFB319" stroke-width="1.5" stroke-miterlimit="10" stroke-linecap="round" stroke-linejoin="round"/>
<circle cx="285" cy="368.988" r="184.633" fill="white"/>
<circle cx="283.5" cy="347.496" r="122.5" fill="url(#paint0_radial_28252_12952)"/>
<path d="M448.422 443.162H385.02" stroke="#78719E" stroke-miterlimit="10"/>
<path d="M313.782 511.21L355.23 457.021H341.053L338.33 460.957L302.273 487.184L297.778 484.069L286.847 484.852L199.381 472.149L214.453 457.04L199.661 457.357L154.669 485.71L148.831 490.28C149.036 497.182 183.097 520.238 183.097 520.238C217.755 550.661 284.981 551.352 284.981 551.352L313.764 511.247L313.782 511.21Z" fill="#CACAEA"/>
<path d="M388.321 473.958L382.427 470.787L313.782 511.209L285 551.314C285 551.314 335.588 547.639 343.31 539.264C351.033 530.888 410.015 470.787 410.015 470.787L388.321 473.958Z" fill="#CACAEA"/>
<path d="M360.602 409.698L354.913 400.95H383.49L383.061 388.657L356.834 387.949L356.069 380.17L382.855 380.375V367.02L343.012 367.449L331.95 367.206L328.928 369.258L332.137 377.335C337.341 377.913 341.762 381.886 341.762 381.886L341.053 411.359L214.08 411.582L214.192 401.696H261.441V388.695L213.707 388.042L214.453 381.028L268.902 381.121L259.892 367.02H178.694V381.401L199.53 381.774L200.015 389.609L178.694 388.415V402.442L200.015 401.715V411.62L178.34 411.657V420.219L199.903 420.872L199.679 457.339L214.471 457.022V420.405H341.053V457.022H355.23V420.405L383.284 420.032L382.855 409.437L360.602 409.698Z" fill="white" stroke="#78719E" stroke-width="2" stroke-miterlimit="10"/>
<path d="M310.462 462.898L307.384 470.434C307.384 470.434 305.967 472.392 303.224 472.56C303.224 472.56 292.107 475.339 296.397 482.54L299.774 485.244L302.945 487.651L308.093 494.963L310.891 498.619C310.891 498.619 314.995 503.394 319.845 502.182L318.073 494.739C318.073 494.739 314.155 492.594 314.23 487.035L315.741 477.186L318.912 465.584L318.446 462.879H310.499L310.462 462.898Z" fill="white"/>
<path d="M298.375 338.703L320.777 341.538" stroke="#BF6740" stroke-width="2" stroke-linecap="round" stroke-linejoin="round"/>
<path d="M285 551.333C385.702 551.333 467.337 469.699 467.337 368.997C467.337 268.295 385.702 186.66 285 186.66C184.298 186.66 102.664 268.295 102.664 368.997C102.664 469.699 184.298 551.333 285 551.333Z" stroke="url(#paint1_linear_28252_12952)" stroke-width="4" stroke-miterlimit="10" stroke-linecap="round"/>
<path d="M412.253 466.09L408.821 465.512C408.821 465.512 398.58 467.06 389.739 456.204L388.452 453.275L379.293 434.212L368.343 415.223L362.281 403.769L348.254 381.982C348.254 381.982 341.165 372.954 339.617 369.932C338.069 366.91 328.686 364.709 328.686 364.709L328.071 360.773L325.03 355.42L326.858 354.301L328.071 352.211L331.969 343.799L335.103 335.778L332.753 333.633L322.27 341.019L321.729 337.27L318.184 319.867L313.652 297.445C313.652 297.445 312.439 293.435 311.059 290.096C309.697 286.757 307.552 286.608 307.552 286.608L292.312 279.892L291.137 277.766L292.592 277.561C295.278 277.673 298.319 274.334 298.319 274.334C302.59 266.443 303.187 260.474 303.187 260.474C306.526 259.952 307.104 254.356 307.179 251.744C307.198 250.942 307.179 250.42 307.179 250.42C307.179 250.42 307.179 250.532 307.179 250.719C307.179 250.607 307.179 250.532 307.179 250.42C307.216 241.914 300.016 241.597 300.016 241.597C300.016 241.597 299.979 239.806 298.654 238.109C292.648 230.424 285.56 232.177 285.56 232.177C285.56 232.177 265.992 228.223 264.817 246.503L263.082 257.023C263.082 257.023 261.926 266.742 259.743 268.85C259.743 268.85 240.754 279.613 245.306 290.935C245.306 290.935 247.731 296.158 249.969 296.736L248.477 303.023L243.459 324.679C243.459 324.679 235.625 353.125 240.064 362.695C240.064 362.695 241.594 366.892 243.925 367.638C243.925 367.638 240.12 378.662 244.765 385.582C244.765 385.582 247.992 411.678 269.387 410.298C269.387 410.298 288.694 411.436 320.721 398.938C317.849 408.731 306.713 447.978 308.802 461.576C308.802 461.576 314.827 466.407 321.094 465.158L339.71 418.356C349.28 430.5 363.456 446.84 377.073 456.409C377.073 456.409 382.856 457.622 382.856 462.565C382.856 462.565 383.024 469.038 382.856 470.922C382.688 472.787 387.724 474.391 390.914 473.608L401.08 471.724L411.19 470.381C411.19 470.381 413.242 468.068 412.235 466.109L412.253 466.09Z" fill="white"/>
<path d="M297.293 244.413C297.293 244.413 300.725 246.055 301.826 250.177C301.826 250.177 302.068 251.613 302.311 253.591C302.851 258.161 302.311 262.805 300.669 267.133C299.028 271.461 296.323 276.907 293.021 277.542C293.021 277.542 286.381 279.183 281.046 272.86C281.046 272.86 275.3 266.256 276.942 257.321C276.942 257.321 292.331 255.251 297.274 244.395L297.293 244.413Z" stroke="#BF6740" stroke-width="2" stroke-linecap="round" stroke-linejoin="round"/>
<path d="M277.912 267.263C278.994 271.553 272.838 278.492 272.838 278.492L270.917 279.593C251.405 282.074 248.794 297.183 248.794 297.183C247.693 296.773 245.362 294.161 245.362 294.161C237.807 280.824 255.528 271.889 255.528 271.889C261.572 268.998 261.851 258.421 261.851 258.421C262.131 251.426 264.052 245.494 264.052 245.494C267.485 225.703 285.485 232.997 285.485 232.997C296.752 231.355 300.594 241.372 300.594 241.372C300.594 241.372 306.507 243.293 306.228 250.997C306.228 250.997 306.508 258.291 303.336 260.473L302.217 261.051" stroke="#BF6740" stroke-width="2" stroke-linecap="round" stroke-linejoin="round"/>
<path d="M290.279 277.723L289.57 281.92C289.57 281.92 288.899 285.632 281.605 284.251C281.605 284.251 273.23 282.181 272.801 278.487" stroke="#BF6740" stroke-width="2" stroke-linecap="round" stroke-linejoin="round"/>
<path d="M290.69 280.277C290.69 280.277 305.426 284.941 307.944 287.645C307.944 287.645 311.526 289.455 314.566 306.653L321.319 341.591L307.459 339.726L303.934 332.824L304.344 339.259L297.834 338.756L289.589 355.45C289.589 355.45 296.342 355.283 296.342 357.652C296.342 357.652 297.498 364.404 289.589 364.74H285.206L284.366 367.948L308.839 369.981L318.968 364.572C318.968 364.572 315.256 358.995 317.793 356.308C317.793 356.308 322.68 353.268 325.049 355.469L334.171 336.405L331.82 334.26L321.337 341.647" stroke="#BF6740" stroke-width="2" stroke-linecap="round" stroke-linejoin="round"/>
<path d="M296.677 341.76L321.412 344.764L333.126 336.668" stroke="#BF6740" stroke-width="1.5" stroke-linecap="round" stroke-linejoin="round"/>
<path d="M325.03 355.457L328.071 360.811C329.153 363.459 327.101 365.008 327.101 365.008H321.206L318.931 364.579" stroke="#BF6740" stroke-width="1.5" stroke-linecap="round" stroke-linejoin="round"/>
<path d="M285.205 364.725C285.205 364.725 284.944 358.868 282.426 359.222L288.432 352.488H290.596" stroke="#BF6740" stroke-width="1.5" stroke-linecap="round" stroke-linejoin="round"/>
<path d="M262.579 327.957L253.961 355.452C253.961 355.452 277.707 357.429 282.426 359.239" stroke="#BF6740" stroke-width="2" stroke-linecap="round" stroke-linejoin="round"/>
<path d="M248.775 297.184L242.732 322.683C242.732 322.683 235.737 358.59 241.221 365.007C241.221 365.007 244.802 368.607 253.961 369.969C253.961 369.969 277.819 369.372 284.366 367.936" stroke="#BF6740" stroke-width="2" stroke-linecap="round" stroke-linejoin="round"/>
<path d="M243.478 368.215C240.997 372.001 243.478 384.648 243.478 384.648C243.478 384.648 244 385.115 245.548 385.395C248.29 385.88 254.278 385.73 266.365 381.254C266.365 381.254 279.143 374.072 284.384 374.259C284.384 374.259 295.67 373.699 297.74 373.699C299.811 373.699 303.411 372.188 303.541 370.864" stroke="#BF6740" stroke-width="2" stroke-linecap="round" stroke-linejoin="round"/>
<path d="M245.548 385.391C244.578 398.224 255.957 407.7 255.957 407.7C255.957 407.7 267.485 414.882 294.887 407.7L320.199 399.194L325.702 398.131C325.702 398.131 327.586 398.355 329.283 403.596C329.283 403.596 332.865 415.59 361.591 443.011L377.092 456.385C377.092 456.385 385.225 458.792 389.758 454.595L363.68 405.928L342.378 372.93C342.378 372.93 338.424 364.891 328.705 364.723" stroke="#BF6740" stroke-width="2" stroke-linecap="round" stroke-linejoin="round"/>
<path d="M338.834 418.596L321.113 465.155C316.058 466.647 308.746 462.394 308.746 462.394C308.746 462.394 313.036 414.511 320.218 399.215" stroke="#BF6740" stroke-width="2" stroke-linecap="round" stroke-linejoin="round"/>
<path d="M295.763 478.34C295.763 480.429 296.453 482.462 297.796 484.067C298.468 484.85 299.923 485.354 301.359 486.249C302.982 487.256 306.694 493.057 306.694 493.057C306.694 493.057 311.675 503.597 320.274 502.142L317.979 495.053C317.979 495.053 313.54 492.628 314.174 482.705L318.875 465.469C318.875 465.469 311.675 464.779 309.846 462.988C309.846 462.988 307.571 471.625 306.153 472.147C306.153 472.147 303.169 472.427 300.389 473.509C298.058 474.423 295.875 475.934 295.763 478.34Z" stroke="#BF6740" stroke-width="2" stroke-linecap="round" stroke-linejoin="round"/>
<path d="M382.427 466.836L393.824 468.738C393.824 468.738 403.244 469.652 404.643 465.754C404.643 465.754 413.223 466.239 412.832 466.836C412.832 466.836 413.746 469.13 410.015 470.809L393.936 473.103L388.321 473.961C388.321 473.961 382.427 474.764 382.427 470.79V466.817V466.836Z" stroke="#BF6740" stroke-width="2" stroke-linecap="round" stroke-linejoin="round"/>
<path d="M389.757 456.223C389.757 456.223 399.159 465.307 404.661 465.755" stroke="#BF6740" stroke-width="2" stroke-linecap="round" stroke-linejoin="round"/>
<path d="M379.368 457.637C379.368 457.637 383.621 461.181 382.408 466.833" stroke="#BF6740" stroke-width="2" stroke-linecap="round" stroke-linejoin="round"/>
<path d="M317.998 495.054C317.998 495.054 305.798 492.275 306.171 472.129" stroke="#BF6740" stroke-width="2" stroke-linecap="round" stroke-linejoin="round"/>
<path d="M294.551 255.996V264.334C294.551 265.024 293.991 265.584 293.301 265.584L290.689 263.868" stroke="#BF6740" stroke-width="2" stroke-linecap="round" stroke-linejoin="round"/>
<path d="M286.847 269.611C286.847 269.611 290.689 268.865 292.611 271.309" stroke="#BF6740" stroke-width="2" stroke-linecap="round" stroke-linejoin="round"/>
<path d="M290.918 257.746C291.572 257.746 292.101 257.216 292.101 256.562C292.101 255.909 291.572 255.379 290.918 255.379C290.264 255.379 289.734 255.909 289.734 256.562C289.734 257.216 290.264 257.746 290.918 257.746Z" fill="#BF6740"/>
<path d="M298.019 258.926C298.673 258.926 299.203 258.396 299.203 257.742C299.203 257.088 298.673 256.559 298.019 256.559C297.365 256.559 296.835 257.088 296.835 257.742C296.835 258.396 297.365 258.926 298.019 258.926Z" fill="#BF6740"/>
<path d="M321.69 345.324L308.671 369.587" stroke="#BF6740" stroke-width="2"/>
<g clip-path="url(#clip0_28252_12952)">
<path d="M474.793 274.875C489.2 274.875 500.88 263.196 500.88 248.788C500.88 234.381 489.2 222.701 474.793 222.701C460.386 222.701 448.706 234.381 448.706 248.788C448.706 263.196 460.386 274.875 474.793 274.875Z" fill="white" stroke="#78719E" stroke-miterlimit="10"/>
<path fill-rule="evenodd" clip-rule="evenodd" d="M470.318 233.826C470.614 236.79 472.647 238.583 474.779 238.611C476.91 238.583 478.943 236.79 479.239 233.826L482.303 234.8C484.109 235.378 484.9 236.183 486.298 237.468L491.633 242.38L487.808 247.053L485.323 244.766V241.759C485.366 240.954 484.124 240.954 484.166 241.759V263.71H465.377V241.759C465.377 241.434 465.123 241.166 464.784 241.166C464.46 241.166 464.205 241.434 464.22 241.759V244.766L461.735 247.053L457.91 242.38L463.246 237.468C464.657 236.169 465.448 235.364 467.24 234.786L470.304 233.812L470.318 233.826ZM471.461 233.755C472.562 233.995 473.635 234.094 474.779 234.094C475.922 234.094 476.995 233.995 478.096 233.755C477.842 236.211 476.261 237.439 474.779 237.454C473.296 237.439 471.715 236.211 471.461 233.755ZM478.731 232.442C478.618 232.442 478.519 232.471 478.421 232.527C477.207 232.838 476.063 232.936 474.764 232.936C473.452 232.936 472.294 232.823 471.052 232.499C470.981 232.471 470.911 232.456 470.84 232.456C470.755 232.456 470.671 232.485 470.586 232.513L466.902 233.685C464.883 234.32 463.853 235.322 462.469 236.607L456.738 241.9C456.512 242.112 456.484 242.451 456.681 242.691L461.241 248.267C461.453 248.521 461.834 248.549 462.088 248.323L464.248 246.333V264.289C464.248 264.613 464.502 264.867 464.827 264.867H484.759C485.084 264.867 485.338 264.613 485.338 264.289V246.333L487.497 248.323C487.737 248.549 488.133 248.521 488.344 248.267L492.904 242.691C493.102 242.451 493.073 242.112 492.847 241.9L487.116 236.607C485.719 235.322 484.702 234.32 482.684 233.67L479.084 232.527C478.985 232.456 478.872 232.428 478.759 232.414L478.731 232.442Z" fill="#78719E"/>
</g>
<g clip-path="url(#clip1_28252_12952)">
<path d="M429.793 226.875C444.2 226.875 455.88 215.196 455.88 200.788C455.88 186.381 444.2 174.701 429.793 174.701C415.386 174.701 403.706 186.381 403.706 200.788C403.706 215.196 415.386 226.875 429.793 226.875Z" fill="white" stroke="#78719E" stroke-miterlimit="10"/>
<path d="M433.251 185.091C433.251 183.228 431.727 181.703 429.864 181.703C428 181.703 426.476 183.228 426.476 185.091C426.476 186.954 428 188.479 429.864 188.479C431.727 188.479 433.251 186.954 433.251 185.091ZM432.39 185.091C432.39 186.489 431.261 187.618 429.864 187.618C428.466 187.618 427.337 186.489 427.337 185.091C427.337 183.694 428.466 182.564 429.864 182.564C431.261 182.564 432.39 183.694 432.39 185.091Z" fill="#78719E" stroke="#78719E" stroke-width="0.15" stroke-miterlimit="10"/>
<path d="M420.024 216.049C420.024 216.825 420.434 217.545 421.111 217.927C421.45 218.124 421.831 218.223 422.198 218.223C422.946 218.223 423.68 217.828 424.076 217.136L429.892 207.057L433.011 210.727L434.479 216.6C434.719 217.574 435.581 218.251 436.583 218.251C436.766 218.251 436.936 218.223 437.105 218.181C438.263 217.884 438.968 216.713 438.686 215.555L437.119 209.259C437.006 208.892 436.879 208.737 436.809 208.624L432.574 203.514C432.63 203.302 432.644 203.062 432.644 202.836V200.041L433.435 200.916C433.816 201.326 434.338 201.537 434.861 201.537C435.326 201.537 435.792 201.368 436.159 201.029C436.569 200.662 436.78 200.154 436.78 199.604C436.78 199.053 436.597 198.672 436.286 198.319L432.644 194.324V192.87C432.644 191.896 432.306 190.993 431.67 190.329C431.106 189.75 430.372 189.355 429.595 189.242C429.327 189.2 429.031 189.242 428.791 189.284C428.692 189.284 428.438 189.383 428.028 189.553C426.687 190.188 422.904 192.192 422.749 192.277C421.916 192.715 421.662 193.717 421.718 194.508L421.761 198.559C421.761 199.618 422.622 200.479 423.68 200.479C424.189 200.479 424.683 200.281 425.036 199.914C425.403 199.547 425.6 199.067 425.6 198.559V195.143L426.419 194.719V202.723C426.419 203.147 426.504 203.556 426.659 203.937L420.293 214.962C420.109 215.287 420.01 215.668 420.01 216.049H420.024ZM432.644 198.742V195.609L435.637 198.898C435.806 199.095 435.905 199.335 435.905 199.604C435.905 199.9 435.778 200.182 435.552 200.38C435.129 200.775 434.451 200.747 434.07 200.309L432.63 198.728L432.644 198.742ZM429.341 205.067L429.186 205.038C428.494 204.925 427.887 204.46 427.562 203.796C427.393 203.471 427.308 203.104 427.308 202.723V193.294L424.753 194.62V198.559C424.753 198.841 424.64 199.109 424.443 199.307C424.245 199.505 423.977 199.618 423.695 199.618C423.116 199.618 422.65 199.138 422.65 198.559L422.608 194.479C422.579 193.929 422.735 193.279 423.172 193.054C423.215 193.025 427.097 190.964 428.409 190.343C428.649 190.23 428.847 190.16 428.904 190.146C428.904 190.146 428.932 190.146 428.946 190.146C429.129 190.117 429.271 190.103 429.383 190.103C429.426 190.103 429.454 190.103 429.482 190.103C430.061 190.188 430.626 190.484 431.049 190.922C431.515 191.416 431.783 192.122 431.783 192.87V202.822C431.783 203.048 431.755 203.274 431.684 203.471L431.614 203.697L436.131 209.146C436.131 209.146 436.23 209.287 436.3 209.499L437.867 215.767C438.037 216.458 437.613 217.164 436.922 217.348C436.823 217.376 436.71 217.39 436.611 217.39C436.004 217.39 435.496 216.981 435.355 216.402L433.83 210.332L429.355 205.081L429.341 205.067ZM420.9 216.049C420.9 215.823 420.956 215.597 421.069 215.4L427.181 204.798C427.619 205.335 428.212 205.702 428.861 205.857L429.285 206.351L423.313 216.698C422.961 217.32 422.156 217.531 421.535 217.178C421.125 216.938 420.885 216.529 420.885 216.049H420.9Z" fill="#78719E" stroke="#78719E" stroke-width="0.15" stroke-miterlimit="10"/>
</g>
<g clip-path="url(#clip2_28252_12952)">
<path d="M500.793 338.875C515.2 338.875 526.88 327.196 526.88 312.788C526.88 298.381 515.2 286.701 500.793 286.701C486.386 286.701 474.706 298.381 474.706 312.788C474.706 327.196 486.386 338.875 500.793 338.875Z" fill="white" stroke="#78719E" stroke-miterlimit="10"/>
<path d="M495.88 303.049C494.017 303.049 492.154 303.769 490.728 305.195C487.876 308.061 487.876 312.691 490.728 315.556L491.024 315.853L500.256 325.127C500.398 325.268 500.595 325.353 500.793 325.353C500.991 325.353 501.188 325.268 501.329 325.127L510.561 315.853L510.858 315.556C513.709 312.691 513.709 308.061 510.858 305.195C509.432 303.769 507.569 303.049 505.705 303.049C503.941 303.049 502.19 303.685 500.793 304.955C499.41 303.685 497.645 303.035 495.88 303.035V303.049ZM505.691 304.56C507.159 304.56 508.627 305.124 509.771 306.268C512.044 308.555 512.044 312.197 509.771 314.469L509.489 314.752L500.793 323.49L492.097 314.752L491.815 314.469C489.556 312.183 489.556 308.541 491.815 306.268C492.944 305.124 494.412 304.574 495.895 304.574C497.377 304.574 498.831 305.138 499.974 306.268L500.271 306.564C500.412 306.705 500.609 306.79 500.807 306.79C501.005 306.79 501.202 306.705 501.343 306.564L501.64 306.268C502.769 305.124 504.251 304.56 505.72 304.56H505.691Z" fill="#78719E"/>
</g>
<g clip-path="url(#clip3_28252_12952)">
<path d="M457.793 540.875C472.2 540.875 483.88 529.196 483.88 514.788C483.88 500.381 472.2 488.701 457.793 488.701C443.386 488.701 431.706 500.381 431.706 514.788C431.706 529.196 443.386 540.875 457.793 540.875Z" fill="white" stroke="#BF6740" stroke-miterlimit="10"/>
<path d="M473.363 512.869C473.363 510.257 471.288 508.112 468.691 508.027C468.422 505.444 466.248 503.439 463.595 503.439C463.044 503.439 462.494 503.538 461.971 503.707C460.461 501.519 458.019 500.221 455.351 500.221C450.989 500.221 447.431 503.722 447.304 508.069C446.26 508.211 445.286 508.69 444.523 509.453C443.606 510.37 443.112 511.584 443.112 512.883C443.112 515.128 444.622 517.019 446.711 517.556L446.5 517.965C445.85 519.193 446.076 520.689 447.064 521.678C447.686 522.299 448.49 522.595 449.295 522.595C450.099 522.595 450.918 522.285 451.525 521.678C452.513 520.689 452.739 519.193 452.09 517.965L451.963 517.711H464.526L464.399 517.965C463.75 519.193 463.976 520.689 464.964 521.678C465.557 522.27 466.347 522.609 467.194 522.609C468.041 522.609 468.832 522.285 469.425 521.678C470.413 520.689 470.639 519.193 469.989 517.965L469.763 517.556C470.582 517.344 471.344 516.906 471.951 516.299C472.855 515.382 473.349 514.168 473.349 512.883L473.363 512.869ZM450.777 520.915C449.972 521.734 448.645 521.734 447.827 520.915C447.177 520.266 447.022 519.278 447.46 518.459L449.295 514.958L451.13 518.459C451.553 519.278 451.412 520.266 450.763 520.915H450.777ZM468.662 520.915C467.872 521.706 466.503 521.706 465.712 520.915C465.063 520.266 464.907 519.278 465.345 518.459L467.18 514.958L469.015 518.459C469.453 519.278 469.298 520.266 468.648 520.915H468.662ZM469.227 516.553L467.646 513.561C467.462 513.208 466.884 513.208 466.7 513.561L465.077 516.624H451.384L449.761 513.561C449.577 513.208 448.998 513.208 448.815 513.561L447.234 516.567C445.469 516.243 444.185 514.704 444.185 512.869C444.185 511.867 444.58 510.921 445.286 510.201C445.963 509.523 446.881 509.128 447.855 509.1C448.151 509.1 448.377 508.846 448.377 508.549V508.267C448.377 504.413 451.497 501.279 455.351 501.279C457.793 501.279 460.023 502.536 461.294 504.625C461.957 505.726 462.31 506.982 462.31 508.267C462.31 508.563 462.55 508.803 462.846 508.803C463.143 508.803 463.383 508.563 463.383 508.267C463.383 506.997 463.086 505.768 462.522 504.653C462.875 504.554 463.228 504.512 463.58 504.512C465.811 504.512 467.632 506.333 467.632 508.563C467.632 508.86 467.872 509.1 468.168 509.1H468.507C470.582 509.1 472.276 510.794 472.276 512.869C472.276 513.871 471.881 514.817 471.175 515.537C470.639 516.073 469.961 516.426 469.227 516.567V516.553Z" fill="#BF6740"/>
<path d="M458.724 519.743C458.541 519.39 457.962 519.39 457.779 519.743L455.464 524.133C454.814 525.361 455.04 526.858 456.028 527.846C456.621 528.439 457.412 528.778 458.259 528.778C459.106 528.778 459.896 528.453 460.489 527.846C461.477 526.858 461.703 525.361 461.054 524.133L458.738 519.743H458.724ZM459.713 527.084C458.922 527.874 457.553 527.874 456.762 527.084C456.113 526.434 455.958 525.446 456.395 524.627L458.23 521.141L460.065 524.642C460.503 525.446 460.348 526.448 459.698 527.084H459.713Z" fill="#BF6740"/>
</g>
<g clip-path="url(#clip4_28252_12952)">
<path d="M408.793 582.875C423.2 582.875 434.88 571.196 434.88 556.788C434.88 542.381 423.2 530.701 408.793 530.701C394.386 530.701 382.706 542.381 382.706 556.788C382.706 571.196 394.386 582.875 408.793 582.875Z" fill="white" stroke="#BF6740" stroke-miterlimit="10"/>
<path d="M403.288 558.484C395.326 558.484 390.371 555.435 390.174 555.308C389.891 555.138 389.807 554.771 389.99 554.489C390.159 554.207 390.526 554.122 390.809 554.305C390.851 554.334 395.707 557.298 403.302 557.298C406.803 557.298 409.626 556.253 411.489 554.277C413.155 552.513 413.988 550.028 413.818 547.318C413.818 547.12 413.734 543.464 408.652 543.464C408.468 543.464 404.036 543.535 404.036 548.179C404.036 548.207 404.008 549.732 405.024 550.776C405.687 551.454 406.676 551.807 407.946 551.807C408.186 551.807 410.402 551.68 410.402 548.871C410.402 548.673 410.303 546.908 408.158 546.908C408.017 546.908 406.436 547.106 406.478 548.955C406.478 549.28 406.224 549.548 405.899 549.562H405.885C405.56 549.562 405.306 549.308 405.292 548.983C405.236 546.555 407.113 545.793 408.115 545.723C410.854 545.723 411.574 547.784 411.588 548.856C411.588 552.103 409.202 552.978 407.946 552.978C406.337 552.978 405.066 552.513 404.163 551.581C402.794 550.169 402.85 548.221 402.85 548.137C402.85 542.321 408.595 542.25 408.652 542.25C410.797 542.25 412.449 542.829 413.578 543.944C415.004 545.37 415.004 547.177 415.004 547.247C415.188 550.254 414.242 553.049 412.35 555.054C410.261 557.27 407.127 558.441 403.302 558.441L403.288 558.484ZM424.646 562.832C425.747 562.832 426.636 562.479 427.299 561.773C428.57 560.46 428.499 558.399 428.499 558.328C428.499 554.715 425.478 553.741 423.869 553.727C420.142 553.727 417.15 555.322 413.96 557.016C410.67 558.766 407.283 560.573 402.878 560.573C391.458 560.573 387.251 557.284 387.195 557.242C386.941 557.03 386.574 557.072 386.362 557.326C386.15 557.58 386.193 557.947 386.447 558.159C386.63 558.3 390.936 561.773 402.878 561.773C407.579 561.773 411.108 559.895 414.524 558.074C417.559 556.451 420.439 554.926 423.869 554.926C424.01 554.926 427.314 554.997 427.314 558.371C427.314 558.385 427.356 560.022 426.438 560.968C425.987 561.434 425.394 561.646 424.617 561.646H424.561C424.561 561.646 423.432 561.731 422.74 561.095C422.345 560.728 422.147 560.178 422.147 559.472C422.147 559.303 422.26 557.806 424.222 557.806C424.547 557.806 424.815 557.538 424.815 557.213C424.815 556.889 424.547 556.62 424.222 556.62C421.724 556.62 421.004 558.456 420.961 559.458C420.961 560.545 421.3 561.392 421.949 561.985C422.796 562.761 423.94 562.846 424.434 562.846C424.533 562.846 424.603 562.846 424.646 562.846V562.832ZM416.133 573.856C418.547 573.856 420.721 572.402 421.653 570.186C422.627 567.871 422.02 565.26 420.015 563.213C416.995 560.107 412.844 561.448 408.835 562.747C406.774 563.41 404.643 564.102 402.808 564.102C397.613 564.102 394.775 562.676 394.733 562.662C394.437 562.507 394.084 562.62 393.928 562.916C393.773 563.213 393.886 563.566 394.183 563.721C394.31 563.792 397.274 565.302 402.808 565.302C404.84 565.302 407.057 564.582 409.202 563.89C413.042 562.648 416.656 561.476 419.168 564.06C420.848 565.782 421.356 567.857 420.552 569.749C419.804 571.541 418.053 572.685 416.105 572.685H416.049C416.049 572.685 414.524 572.826 413.423 571.824C412.661 571.132 412.266 570.017 412.266 568.535C412.266 568.535 412.266 567.49 412.957 566.77C413.437 566.29 414.143 566.05 415.075 566.05C415.075 566.036 416.133 566.05 416.755 566.657C417.093 566.996 417.263 567.448 417.263 568.069C417.263 568.365 417.164 569.198 416.656 569.579C416.275 569.862 415.71 569.876 414.948 569.636C414.637 569.537 414.298 569.706 414.2 570.031C414.101 570.341 414.27 570.68 414.595 570.779C415.752 571.132 416.684 571.061 417.376 570.525C418.477 569.706 418.449 568.111 418.449 568.055C418.449 567.123 418.152 566.361 417.587 565.81C416.585 564.836 415.103 564.864 415.061 564.864C413.804 564.864 412.802 565.231 412.096 565.951C411.052 567.024 411.08 568.492 411.08 568.549C411.08 570.37 411.602 571.767 412.618 572.699C413.776 573.758 415.244 573.885 415.865 573.885C415.992 573.885 416.077 573.885 416.119 573.885L416.133 573.856Z" fill="#BF6740"/>
</g>
<g clip-path="url(#clip5_28252_12952)">
<path d="M349.793 609.875C364.2 609.875 375.88 598.196 375.88 583.788C375.88 569.381 364.2 557.701 349.793 557.701C335.386 557.701 323.706 569.381 323.706 583.788C323.706 598.196 335.386 609.875 349.793 609.875Z" fill="white" stroke="#BF6740" stroke-miterlimit="10"/>
<path d="M363.175 578.369L349.779 594.25L336.043 576.209" stroke="#BF6740" stroke-width="1.2" stroke-miterlimit="10" stroke-linecap="round"/>
<path d="M342.791 578.355C342.706 578.58 342.466 578.679 342.241 578.609L336.156 576.364L336.693 582.815C336.707 583.055 336.538 583.253 336.312 583.267C336.086 583.281 335.874 583.112 335.86 582.886L335.267 575.771C335.267 575.63 335.324 575.489 335.436 575.404C335.549 575.32 335.705 575.291 335.846 575.348L342.551 577.818C342.636 577.846 342.692 577.903 342.735 577.959C342.819 578.072 342.848 578.227 342.791 578.369V578.355Z" fill="#BF6740"/>
</g>
<g clip-path="url(#clip6_28252_12952)">
<path d="M488.793 485.875C503.2 485.875 514.88 474.196 514.88 459.788C514.88 445.381 503.2 433.701 488.793 433.701C474.386 433.701 462.706 445.381 462.706 459.788C462.706 474.196 474.386 485.875 488.793 485.875Z" fill="white" stroke="#BF6740" stroke-miterlimit="10"/>
<path d="M493.861 449.356C493.465 449.356 493.127 449.032 493.127 448.622C493.127 448.213 493.451 447.888 493.861 447.888H497.743C498.138 447.888 498.477 448.213 498.477 448.622C498.477 449.032 498.152 449.356 497.743 449.356H493.861ZM483.443 446.688C483.443 444.416 485.292 442.566 487.565 442.566C489.837 442.566 491.687 444.416 491.687 446.688V466.479C492.915 467.609 493.621 469.204 493.621 470.926C493.621 474.272 490.91 476.982 487.565 476.982C484.219 476.982 481.509 474.272 481.509 470.926C481.509 469.218 482.229 467.623 483.443 466.479V446.688ZM484.897 467.157L484.628 467.369C483.57 468.244 482.949 469.529 482.949 470.926C482.949 473.467 485.01 475.528 487.551 475.528C490.092 475.528 492.152 473.467 492.152 470.926C492.152 469.529 491.531 468.244 490.473 467.369L490.204 467.157V446.688C490.204 445.22 489.005 444.02 487.536 444.02C486.068 444.02 484.868 445.22 484.868 446.688V467.157H484.897ZM493.861 463.896C493.465 463.896 493.127 463.571 493.127 463.162C493.127 462.753 493.451 462.428 493.861 462.428H497.743C498.138 462.428 498.477 462.753 498.477 463.162C498.477 463.571 498.152 463.896 497.743 463.896H493.861ZM493.861 459.054C493.465 459.054 493.127 458.73 493.127 458.32C493.127 457.911 493.451 457.586 493.861 457.586H497.743C498.138 457.586 498.477 457.911 498.477 458.32C498.477 458.73 498.152 459.054 497.743 459.054H493.861ZM493.861 454.212C493.465 454.212 493.127 453.888 493.127 453.478C493.127 453.069 493.451 452.744 493.861 452.744H497.743C498.138 452.744 498.477 453.069 498.477 453.478C498.477 453.888 498.152 454.212 497.743 454.212H493.861ZM486.831 467.863V458.038C486.831 457.643 487.155 457.304 487.565 457.304C487.974 457.304 488.299 457.629 488.299 458.038V467.863C489.682 468.188 490.727 469.444 490.727 470.926C490.727 472.662 489.315 474.074 487.579 474.074C485.843 474.074 484.431 472.662 484.431 470.926C484.431 469.43 485.461 468.188 486.859 467.863H486.831ZM487.565 472.62C488.496 472.62 489.259 471.858 489.259 470.926C489.259 469.994 488.496 469.232 487.565 469.232C486.633 469.232 485.871 469.994 485.871 470.926C485.871 471.858 486.633 472.62 487.565 472.62Z" fill="#BF6740"/>
</g>
<g clip-path="url(#clip7_28252_12952)">
<path d="M505.793 422.875C520.2 422.875 531.88 411.196 531.88 396.788C531.88 382.381 520.2 370.701 505.793 370.701C491.386 370.701 479.706 382.381 479.706 396.788C479.706 411.196 491.386 422.875 505.793 422.875Z" fill="white" stroke="#BF6740" stroke-miterlimit="10"/>
<path d="M505.793 388.869C501.332 388.869 497.704 392.497 497.704 396.958C497.704 401.419 501.332 405.046 505.793 405.046C510.254 405.046 513.881 401.419 513.881 396.958C513.881 392.497 510.254 388.869 505.793 388.869ZM505.793 403.437C502.221 403.437 499.327 400.543 499.327 396.972C499.327 393.4 502.221 390.507 505.793 390.507C509.364 390.507 512.258 393.4 512.258 396.972C512.258 400.543 509.364 403.437 505.793 403.437Z" fill="#BF6740"/>
<path d="M505.793 387.247C506.245 387.247 506.598 386.879 506.598 386.442V381.586C506.598 381.134 506.231 380.781 505.793 380.781C505.355 380.781 504.988 381.148 504.988 381.586V386.442C504.988 386.894 505.355 387.247 505.793 387.247Z" fill="#BF6740"/>
<path d="M497.93 390.254C498.085 390.409 498.297 390.493 498.509 390.493C498.72 390.493 498.918 390.409 499.087 390.254C499.398 389.943 499.398 389.421 499.087 389.11L495.855 385.877C495.544 385.567 495.022 385.567 494.711 385.877C494.401 386.188 494.401 386.71 494.711 387.021L497.944 390.254H497.93Z" fill="#BF6740"/>
<path d="M496.081 396.959C496.081 396.507 495.713 396.154 495.276 396.154H490.42C489.968 396.154 489.615 396.521 489.615 396.959C489.615 397.397 489.982 397.764 490.42 397.764H495.276C495.728 397.764 496.081 397.397 496.081 396.959Z" fill="#BF6740"/>
<path d="M497.93 403.663L494.697 406.895C494.387 407.206 494.387 407.728 494.697 408.039C494.853 408.194 495.064 408.279 495.276 408.279C495.488 408.279 495.685 408.194 495.855 408.039L499.087 404.806C499.398 404.495 499.398 403.973 499.087 403.663C498.777 403.352 498.255 403.352 497.944 403.663H497.93Z" fill="#BF6740"/>
<path d="M505.793 406.67C505.341 406.67 504.988 407.037 504.988 407.475V412.331C504.988 412.782 505.355 413.135 505.793 413.135C506.231 413.135 506.598 412.768 506.598 412.331V407.475C506.598 407.023 506.231 406.67 505.793 406.67Z" fill="#BF6740"/>
<path d="M513.641 403.663C513.331 403.352 512.809 403.352 512.498 403.663C512.187 403.973 512.187 404.495 512.498 404.806L515.731 408.039C515.886 408.194 516.098 408.279 516.309 408.279C516.521 408.279 516.719 408.194 516.888 408.039C517.199 407.728 517.199 407.206 516.888 406.895L513.656 403.663H513.641Z" fill="#BF6740"/>
<path d="M521.151 396.154H516.295C515.844 396.154 515.491 396.521 515.491 396.959C515.491 397.397 515.858 397.764 516.295 397.764H521.151C521.603 397.764 521.956 397.397 521.956 396.959C521.956 396.521 521.589 396.154 521.151 396.154Z" fill="#BF6740"/>
<path d="M513.063 390.493C513.274 390.493 513.472 390.409 513.641 390.254L516.874 387.021C517.185 386.71 517.185 386.188 516.874 385.877C516.564 385.567 516.041 385.567 515.731 385.877L512.498 389.11C512.187 389.421 512.187 389.943 512.498 390.254C512.653 390.409 512.865 390.493 513.077 390.493H513.063Z" fill="#BF6740"/>
</g>
<defs>
<radialGradient id="paint0_radial_28252_12952" cx="0" cy="0" r="1" gradientUnits="userSpaceOnUse" gradientTransform="translate(284.369 334.464) rotate(90.3673) scale(135.535)">
<stop offset="0.145" stop-color="#E94301" stop-opacity="0.5"/>
<stop offset="0.255" stop-color="#E9CA01" stop-opacity="0.7"/>
<stop offset="1" stop-color="white" stop-opacity="0"/>
</radialGradient>
<linearGradient id="paint1_linear_28252_12952" x1="98.0002" y1="368.997" x2="472" y2="368.997" gradientUnits="userSpaceOnUse">
<stop offset="0.13" stop-color="#E9CA00"/>
<stop offset="0.42" stop-color="#FF725E"/>
<stop offset="0.58" stop-color="#FE735C"/>
<stop offset="0.64" stop-color="#FC7A55"/>
<stop offset="0.68" stop-color="#FA8549"/>
<stop offset="0.71" stop-color="#F69538"/>
<stop offset="0.74" stop-color="#EFB11B"/>
</linearGradient>
<clipPath id="clip0_28252_12952">
<rect width="53.5714" height="53.5714" fill="white" transform="translate(448 221.996)"/>
</clipPath>
<clipPath id="clip1_28252_12952">
<rect width="53.5714" height="53.5714" fill="white" transform="translate(403 173.996)"/>
</clipPath>
<clipPath id="clip2_28252_12952">
<rect width="53.5714" height="53.5714" fill="white" transform="translate(474 285.996)"/>
</clipPath>
<clipPath id="clip3_28252_12952">
<rect width="53.5714" height="53.5714" fill="white" transform="translate(431 487.996)"/>
</clipPath>
<clipPath id="clip4_28252_12952">
<rect width="53.5714" height="53.5714" fill="white" transform="translate(382 529.996)"/>
</clipPath>
<clipPath id="clip5_28252_12952">
<rect width="53.5714" height="53.5714" fill="white" transform="translate(323 556.996)"/>
</clipPath>
<clipPath id="clip6_28252_12952">
<rect width="53.5714" height="53.5714" fill="white" transform="translate(462 432.996)"/>
</clipPath>
<clipPath id="clip7_28252_12952">
<rect width="53.5714" height="53.5714" fill="white" transform="translate(479 369.996)"/>
</clipPath>
</defs>
</svg>
