<svg width="86" height="52" viewBox="0 0 86 52" fill="none" xmlns="http://www.w3.org/2000/svg">
<g clip-path="url(#clip0_27681_105107)">
<path d="M28.8077 43.7659H31.6795C32.0218 43.7659 32.3001 43.4897 32.3001 43.1501V40.3016C32.3001 39.9619 32.0218 39.6858 31.6795 39.6858H28.8077C28.4653 39.6858 28.187 39.9619 28.187 40.3016V43.1501C28.187 43.4897 28.4653 43.7659 28.8077 43.7659ZM29.4283 42.5342V40.9174H31.0588V42.5342H29.4283Z" fill="#000091"/>
<path d="M33.7422 43.7659H36.6131C36.9554 43.7659 37.2337 43.4897 37.2337 43.1501V40.3016C37.2337 39.9619 36.9554 39.6858 36.6131 39.6858H33.7422C33.3999 39.6858 33.1216 39.9619 33.1216 40.3016V43.1501C33.1216 43.4897 33.3999 43.7659 33.7422 43.7659ZM34.3638 42.5342V40.9174H35.9934V42.5342H34.3638Z" fill="#000091"/>
<path d="M28.8077 38.291H31.6795C32.0218 38.291 32.3001 38.0149 32.3001 37.6752V34.8267C32.3001 34.4871 32.0218 34.2109 31.6795 34.2109H28.8077C28.4653 34.2109 28.187 34.4871 28.187 34.8267V37.6752C28.187 38.0149 28.4653 38.291 28.8077 38.291ZM29.4283 37.0584V35.4416H31.0588V37.0584H29.4283Z" fill="#000091"/>
<path d="M33.7422 38.291H36.6131C36.9554 38.291 37.2337 38.0149 37.2337 37.6752V34.8267C37.2337 34.4871 36.9554 34.2109 36.6131 34.2109H33.7422C33.3999 34.2109 33.1216 34.4871 33.1216 34.8267V37.6752C33.1216 38.0149 33.3999 38.291 33.7422 38.291ZM34.3638 37.0584V35.4416H35.9934V37.0584H34.3638Z" fill="#000091"/>
<path d="M28.8077 32.8162H31.6795C32.0218 32.8162 32.3001 32.54 32.3001 32.2003V29.3519C32.3001 29.0122 32.0218 28.7361 31.6795 28.7361H28.8077C28.4653 28.7361 28.187 29.0122 28.187 29.3519V32.2003C28.187 32.54 28.4653 32.8162 28.8077 32.8162ZM29.4283 31.5836V29.9667H31.0588V31.5836H29.4283Z" fill="#000091"/>
<path d="M33.7422 32.8162H36.6131C36.9554 32.8162 37.2337 32.54 37.2337 32.2003V29.3519C37.2337 29.0122 36.9554 28.7361 36.6131 28.7361H33.7422C33.3999 28.7361 33.1216 29.0122 33.1216 29.3519V32.2003C33.1216 32.54 33.3999 32.8162 33.7422 32.8162ZM34.3638 31.5836V29.9667H35.9934V31.5836H34.3638Z" fill="#000091"/>
<path d="M28.8077 27.3403H31.6795C32.0218 27.3403 32.3001 27.0642 32.3001 26.7245V23.8761C32.3001 23.5364 32.0218 23.2603 31.6795 23.2603H28.8077C28.4653 23.2603 28.187 23.5364 28.187 23.8761V26.7245C28.187 27.0642 28.4653 27.3403 28.8077 27.3403ZM29.4283 26.1087V24.4919H31.0588V26.1087H29.4283Z" fill="#000091"/>
<path d="M33.7422 27.3403H36.6131C36.9554 27.3403 37.2337 27.0642 37.2337 26.7245V23.8761C37.2337 23.5364 36.9554 23.2603 36.6131 23.2603H33.7422C33.3999 23.2603 33.1216 23.5364 33.1216 23.8761V26.7245C33.1216 27.0642 33.3999 27.3403 33.7422 27.3403ZM34.3638 26.1087V24.4919H35.9934V26.1087H34.3638Z" fill="#000091"/>
<path d="M49.8257 49.3746H57.4963C57.8386 49.3746 58.1169 49.0985 58.1169 48.7588V46.399C58.1169 46.0593 57.8386 45.7832 57.4963 45.7832H49.8257C49.4834 45.7832 49.2051 46.0593 49.2051 46.399V48.7588C49.2051 49.0985 49.4834 49.3746 49.8257 49.3746ZM50.4464 48.1421V47.0148H56.8756V48.1421H50.4464Z" fill="#000091"/>
<path d="M49.8257 44.8778H57.4963C57.83 44.8845 58.1236 44.5932 58.1169 44.262V41.9032C58.1169 41.5635 57.8386 41.2874 57.4963 41.2874H49.8257C49.4834 41.2874 49.2051 41.5635 49.2051 41.9032V44.262C49.2051 44.6017 49.4834 44.8778 49.8257 44.8778ZM50.4464 43.6462V42.519H56.8756V43.6462H50.4464Z" fill="#000091"/>
<path d="M49.8257 40.3822H57.4963C57.8386 40.3822 58.1169 40.1061 58.1169 39.7664V37.4076C58.1169 37.0679 57.8386 36.7917 57.4963 36.7917H49.8257C49.4834 36.7917 49.2051 37.0679 49.2051 37.4076V39.7664C49.2051 40.1061 49.4834 40.3822 49.8257 40.3822ZM50.4464 39.1506V38.0234H56.8756V39.1506H50.4464Z" fill="#000091"/>
<path d="M49.8257 35.8876H57.4963C57.8386 35.8876 58.1169 35.6114 58.1169 35.2717V32.9119C58.1169 32.5723 57.8386 32.2961 57.4963 32.2961H49.8257C49.4834 32.2961 49.2051 32.5723 49.2051 32.9119V35.2717C49.2051 35.6114 49.4834 35.8876 49.8257 35.8876ZM50.4464 34.655V33.5278H56.8756V34.655H50.4464Z" fill="#000091"/>
<path d="M59.8899 20.6707C59.8899 20.331 59.6116 20.0549 59.2693 20.0549C48.5471 20.5113 50.8805 17.5176 50.6835 27.547L48.2258 26.8449C48.0393 26.7917 47.8356 26.8287 47.6807 26.9445C47.5258 27.0603 47.433 27.2443 47.433 27.437V34.1207H45.5348V22.9859C45.5348 22.6462 45.2565 22.3701 44.9141 22.3701C44.9141 22.3701 40.912 22.3701 39.3436 22.3701V20.2257C39.3436 19.886 39.0653 19.6099 38.723 19.6099H26.7002C26.3579 19.6099 26.0796 19.886 26.0796 20.2257V51.3832C26.0796 51.7229 26.3579 51.999 26.7002 51.999H59.2693C59.6116 51.999 59.8899 51.7229 59.8899 51.3832V30.6431C59.8899 30.6431 59.8899 30.6422 59.8899 30.6412V20.6707ZM58.6477 29.8233L51.9038 27.8962V21.2865H58.6477V29.8233ZM58.6486 31.1052V50.7674H48.6743V28.2549L58.6486 31.1052ZM44.2925 34.1207H39.3427V32.3482H41.8176C42.1599 32.3482 42.4382 32.0721 42.4382 31.7324V25.9909C42.4382 25.6512 42.1599 25.3751 41.8176 25.3751H39.3427V23.6026H44.2925V34.1216V34.1207ZM47.433 35.3523V50.7674H45.8484V48.6486C47.5411 47.7604 47.1251 43.6993 45.2278 43.7354C43.2367 43.7107 43.0302 47.8316 44.6071 48.6694V50.7683H42.1695V48.6495C43.8622 47.7614 43.4462 43.7003 41.5489 43.7364C39.5578 43.7117 39.3513 47.8326 40.9282 48.6704V50.7692H39.3427V35.3542H47.4321L47.433 35.3523ZM45.2316 47.5858C44.6454 47.3695 44.6387 45.2014 45.2278 44.968C45.8169 45.1985 45.8073 47.36 45.2326 47.5858H45.2316ZM41.5536 47.5858C40.9674 47.3695 40.9607 45.2014 41.5498 44.968C42.1389 45.1985 42.1293 47.36 41.5546 47.5858H41.5536ZM39.3427 26.6058H41.1969V31.1157H39.3427V26.6058ZM38.1014 34.7355V50.7655H35.2831V46.7974C35.2831 46.4577 35.0048 46.1815 34.6625 46.1815H30.7598C30.4174 46.1815 30.1391 46.4577 30.1391 46.7974C30.1391 46.7974 30.1391 49.5158 30.1391 50.7655H27.3199V20.8415H38.1014V34.7355ZM31.3804 47.4151H34.0418V50.7674H31.3804V47.4151Z" fill="#000091"/>
<path d="M62.9739 43.6908C60.9829 43.6661 60.7763 47.787 62.3533 48.6248V51.3395C62.3533 51.6792 62.6316 51.9553 62.9739 51.9553C63.3163 51.9553 63.5946 51.6792 63.5946 51.3395V48.6049C65.2872 47.7168 64.8712 43.6557 62.9739 43.6917V43.6908ZM62.9787 47.5403C62.3925 47.3239 62.3858 45.1549 62.9749 44.9224C63.564 45.153 63.5544 47.3145 62.9787 47.5403Z" fill="#000091"/>
<path d="M66.6531 43.6908C64.6621 43.6661 64.4555 47.787 66.0325 48.6248V51.3395C66.0325 51.6792 66.3108 51.9553 66.6531 51.9553C66.9955 51.9553 67.2738 51.6792 67.2738 51.3395V48.6248C68.8507 47.787 68.6442 43.6661 66.6531 43.6908ZM66.6569 47.5403C66.0707 47.3239 66.064 45.1558 66.6531 44.9224C67.2422 45.153 67.2326 47.3145 66.6579 47.5403H66.6569Z" fill="#000091"/>
<path d="M70.4236 43.6908C68.4326 43.6661 68.226 47.787 69.803 48.6248V51.3395C69.803 51.6792 70.0813 51.9553 70.4236 51.9553C70.766 51.9553 71.0443 51.6792 71.0443 51.3395V48.6049C72.7369 47.7168 72.3209 43.6557 70.4236 43.6917V43.6908ZM70.4275 47.5403C69.8412 47.3239 69.8345 45.1558 70.4236 44.9224C71.0127 45.153 71.0032 47.3145 70.4284 47.5403H70.4275Z" fill="#000091"/>
<path d="M74.1023 43.6908C72.1113 43.6661 71.9047 47.787 73.4817 48.6248V51.3395C73.4817 51.6792 73.76 51.9553 74.1023 51.9553C74.4447 51.9553 74.723 51.6792 74.723 51.3395V48.6248C76.2999 47.787 76.0934 43.6661 74.1023 43.6908ZM74.1062 47.5403C73.5199 47.3239 73.5132 45.1558 74.1023 44.9224C74.6914 45.153 74.6819 47.3145 74.1071 47.5403H74.1062Z" fill="#000091"/>
<path d="M19.3157 43.6908C17.3247 43.6661 17.1181 47.787 18.6951 48.6248V51.3395C18.6951 51.6792 18.9734 51.9553 19.3157 51.9553C19.6581 51.9553 19.9364 51.6792 19.9364 51.3395V48.6049C21.629 47.7168 21.213 43.6557 19.3157 43.6917V43.6908ZM19.3205 47.5403C18.7343 47.3239 18.7276 45.1558 19.3167 44.9224C19.9058 45.153 19.8962 47.3145 19.3215 47.5403H19.3205Z" fill="#000091"/>
<path d="M22.9944 43.6908C21.0034 43.6661 20.7968 47.787 22.3738 48.6248V51.3395C22.3738 51.6792 22.6521 51.9553 22.9944 51.9553C23.3368 51.9553 23.6151 51.6792 23.6151 51.3395V48.6049C25.3077 47.7168 24.8917 43.6557 22.9944 43.6917V43.6908ZM22.9983 47.5403C22.412 47.3239 22.4053 45.1558 22.9944 44.9224C23.5835 45.153 23.5739 47.3145 22.9992 47.5403H22.9983Z" fill="#000091"/>
<path d="M11.7923 43.6908C9.80124 43.6661 9.59468 47.787 11.1716 48.6248V51.3395C11.1716 51.6792 11.4499 51.9553 11.7923 51.9553C12.1346 51.9553 12.4129 51.6792 12.4129 51.3395V48.6049C14.1056 47.7168 13.6896 43.6557 11.7923 43.6917V43.6908ZM11.7971 47.5403C11.2108 47.3239 11.2041 45.1558 11.7932 44.9224C12.3823 45.153 12.3728 47.3145 11.798 47.5403H11.7971Z" fill="#000091"/>
<path d="M15.471 43.6908C13.4799 43.6661 13.2734 47.787 14.8503 48.6248V51.3395C14.8503 51.6792 15.1286 51.9553 15.471 51.9553C15.8133 51.9553 16.0916 51.6792 16.0916 51.3395V48.6049C17.7843 47.7168 17.3683 43.6557 15.471 43.6917V43.6908ZM15.4758 47.5403C14.8896 47.3239 14.8829 45.1558 15.4719 44.9224C16.061 45.153 16.0515 47.3145 15.4767 47.5403H15.4758Z" fill="#000091"/>
<path d="M83.9898 39.7894C79.8672 39.5958 75.7149 39.7305 71.6047 39.4402C68.9241 38.9553 66.4234 37.3745 65.0195 35.0347C63.2962 32.0249 63.7543 28.3206 63.1796 24.9948C63.0763 20.7962 61.1493 16.5235 56.342 16.496C55.027 16.4732 53.8374 16.1003 52.8773 15.179C52.1418 14.473 51.5834 13.5194 51.2391 12.6303C49.8247 3.77943 42.2307 -3.77913 33.3532 2.05632C28.9102 5.03951 27.0674 10.1747 24.8612 14.7804C21.6317 21.559 18.54 28.4003 15.3918 35.2149C12.936 38.2067 8.04257 34.5413 4.25558 39.4753C3.37578 40.5532 1.92314 40.9583 0.553704 41.002C-0.182654 41.0267 -0.18648 42.1653 0.553704 42.1406C3.0162 42.0732 4.20777 41.2477 5.79524 39.536C7.5845 37.3707 10.4955 37.8224 12.9953 37.5899C16.5585 37.3034 16.8005 34.75 18.0896 32.0809C19.0774 29.9346 20.0653 27.7883 21.0522 25.642C23.6486 20.0409 26.2058 14.4161 28.9226 8.87193C29.5089 7.70389 30.3093 6.60702 31.1508 5.62495C34.4205 1.25928 41.0429 -0.547336 45.3712 3.38281C50.4549 7.66783 48.4266 13.0099 52.5588 16.4077C54.8033 18.3766 58.0002 16.8281 60.063 19.1556C61.0021 20.1291 61.5539 21.4461 61.7614 22.6123C62.1372 25.6894 62.3935 28.7798 62.7569 31.8579C63.5975 38.3746 69.7628 41.2288 75.8354 40.7572C78.5542 40.8151 81.272 40.8729 83.9908 40.9308C84.73 40.947 84.7291 39.8083 83.9908 39.7922L83.9898 39.7894Z" fill="#000091"/>
<path d="M82.3228 42.9935C82.1765 42.9935 82.033 42.927 81.9393 42.8027C81.7815 42.593 81.8255 42.2951 82.0368 42.1385L84.4295 40.3708L81.9125 38.3953C81.705 38.2331 81.6706 37.9342 81.8341 37.7292C81.9976 37.5233 82.2989 37.4892 82.5054 37.6514L85.9998 40.3936L82.6087 42.8995C82.5226 42.9631 82.4232 42.9935 82.3237 42.9935H82.3228Z" fill="#000091"/>
</g>
<defs>
<clipPath id="clip0_27681_105107">
<rect width="86" height="52" fill="white"/>
</clipPath>
</defs>
</svg>
