<svg width="199" height="184" viewBox="0 0 199 184" fill="none" xmlns="http://www.w3.org/2000/svg">
<g clip-path="url(#clip0_28418_133783)">
<path fill-rule="evenodd" clip-rule="evenodd" d="M167.562 11.5165L188.928 32.8161C190.199 34.0355 190.936 35.551 190.936 37.327V113.823C190.936 116.712 188.584 119.056 185.686 119.056H102.606V9.51562H163.036C164.83 9.51562 166.338 10.2497 167.562 11.5165Z" fill="#DDDDF9"/>
<path fill-rule="evenodd" clip-rule="evenodd" d="M166.73 11.4728L188.239 32.9499L187.74 32.4763C186.458 31.2332 184.7 30.4044 182.776 30.4044H168.737V16.4099C168.737 14.4919 167.965 12.7515 166.73 11.4609V11.4728Z" fill="#6A6AFF"/>
<path fill-rule="evenodd" clip-rule="evenodd" d="M129.804 63.1681C128.842 63.1681 128.07 62.3985 128.07 61.4395C128.07 60.4805 128.842 59.7109 129.804 59.7109H169.272C170.234 59.7109 171.006 60.4805 171.006 61.4395C171.006 62.3985 170.234 63.1681 169.272 63.1681H129.804ZM129.804 99.9184C128.842 99.9184 128.07 99.1488 128.07 98.1898C128.07 97.2308 128.842 96.4612 129.804 96.4612H155.886C156.848 96.4612 157.62 97.2308 157.62 98.1898C157.62 99.1488 156.848 99.9184 155.886 99.9184H129.804ZM129.804 87.6644C128.842 87.6644 128.07 86.8948 128.07 85.9358C128.07 84.9768 128.842 84.2072 129.804 84.2072H161.647C162.609 84.2072 163.381 84.9768 163.381 85.9358C163.381 86.8948 162.609 87.6644 161.647 87.6644H129.804ZM129.804 75.4222C128.842 75.4222 128.07 74.6526 128.07 73.6936C128.07 72.7346 128.842 71.965 129.804 71.965H169.272C170.234 71.965 171.006 72.7346 171.006 73.6936C171.006 74.6526 170.234 75.4222 169.272 75.4222H129.804Z" fill="#6A6AFF"/>
<path fill-rule="evenodd" clip-rule="evenodd" d="M75.6094 98.4252C70.6448 98.4252 65.6802 96.8031 61.5469 93.5709C57.7582 98.6264 50.9645 100.391 45.1922 97.7977C46.7719 95.927 48.0309 93.8195 48.9216 91.5345C42.6268 94.8022 35.0255 94.2813 29.2295 90.1848C38.7668 90.7175 43.9927 84.3715 44.9072 71.1703C44.8359 61.5683 44.0283 53.3279 42.4843 46.4609H108.699C107.167 53.3279 106.359 61.5565 106.276 71.1703C107.19 84.3715 112.416 90.7057 121.954 90.1848C116.17 94.2813 108.568 94.8022 102.273 91.5345C103.164 93.8077 104.423 95.927 106.003 97.7977C100.23 100.391 93.4249 98.6383 89.6481 93.5709C85.5267 96.8031 80.5621 98.4252 75.5856 98.4252" fill="#00008B"/>
<path fill-rule="evenodd" clip-rule="evenodd" d="M118.592 106.707C109.15 127.509 112.476 151.864 127.144 169.41C136.158 171.577 145.613 168.226 151.242 160.874C148.178 144.511 145.565 125.828 134.151 115.019C130.137 111.23 124.59 108.649 118.604 106.695" fill="#CACAF2"/>
<path fill-rule="evenodd" clip-rule="evenodd" d="M32.6381 106.707C42.0803 127.509 38.7547 151.864 24.0866 169.41C15.0719 171.577 5.61776 168.226 -0.0119629 160.874C3.05232 144.511 5.66527 125.828 17.0791 115.019C21.0936 111.23 26.6401 108.649 32.6381 106.695" fill="#CACAF2"/>
<path fill-rule="evenodd" clip-rule="evenodd" d="M96.8455 122.927H54.385V101.237C59.2427 102.468 61.6894 98.6797 61.7488 89.8828H89.4817C89.5411 98.6797 91.9878 102.468 96.8455 101.237V122.927Z" fill="#EFEFFF"/>
<path fill-rule="evenodd" clip-rule="evenodd" d="M75.6093 136.026L73.804 137.814L74.089 181.266L75.6093 184.001C100.848 184.001 122.5 177.868 127.132 169.402L125.279 151.489L118.497 144.728V106.676C113.663 105.101 108.556 103.941 103.758 102.852L88.7453 124.056L75.6093 136.014V136.026Z" fill="#CACAF2"/>
<path fill-rule="evenodd" clip-rule="evenodd" d="M102.606 55.6432C97.463 60.4383 96.1209 68.0393 99.3277 74.3025C110.611 74.8945 116.336 50.564 102.606 55.6432ZM48.6246 55.6432C53.7673 60.4383 55.1094 68.0393 51.9026 74.3025C40.6194 74.8945 34.8947 50.564 48.6246 55.6432Z" fill="#EFEFFF"/>
<path fill-rule="evenodd" clip-rule="evenodd" d="M75.6093 136.022V184.008C50.3825 184.008 28.7306 177.875 24.0867 169.41L25.9395 151.497L32.7213 144.736V106.684C37.5552 105.109 42.6624 103.949 47.4607 102.859L62.4733 124.064L75.6093 136.022Z" fill="#CACAF2"/>
<path fill-rule="evenodd" clip-rule="evenodd" d="M75.6093 169.554H53.1736V182.281C50.038 181.772 47.0688 181.157 44.3014 180.458V169.554L24.0867 169.4L25.0131 160.437L44.3014 160.709V103.559L49.7173 102.328L54.385 112.617L53.1736 115.02V160.698H98.0451V115.02L96.8336 112.617L101.489 102.328L106.905 103.559V160.709L126.194 160.437L127.12 169.4L106.905 169.554V180.458C104.138 181.157 101.169 181.772 98.0332 182.281V169.554H75.5974H75.6093Z" fill="#CACAF2"/>
<path fill-rule="evenodd" clip-rule="evenodd" d="M75.6092 136.022L62.4732 124.064L61.5706 119.529L75.6092 115.125L89.6479 119.529L88.7453 124.064L75.6092 136.022Z" fill="white"/>
<path fill-rule="evenodd" clip-rule="evenodd" d="M47.4607 102.86C49.8717 102.316 52.1996 101.795 54.385 101.25L75.6093 115.138L58.6251 126.682L47.4607 102.86Z" fill="white"/>
<path fill-rule="evenodd" clip-rule="evenodd" d="M103.758 102.86C101.347 102.316 99.019 101.795 96.8337 101.25L75.6094 115.138L92.5936 126.682L103.758 102.86Z" fill="white"/>
<path fill-rule="evenodd" clip-rule="evenodd" d="M48.6248 55.6488C64.8369 44.3775 86.3819 44.3775 102.606 55.6488C100.266 108.726 50.9645 108.726 48.6248 55.6488Z" fill="#EFEFFF"/>
<path fill-rule="evenodd" clip-rule="evenodd" d="M87.7953 8.65478C103.14 14.4207 112.001 30.4397 108.723 46.4469C87.1658 39.9351 64.1481 39.9351 42.5912 46.4469C39.1587 30.4161 48.0784 14.3023 63.5186 8.65478L63.1504 5.20945C63.0079 3.83605 63.3998 2.59288 64.3381 1.56283C65.2645 0.532784 66.4641 0 67.8537 0H83.472C84.8616 0 86.0612 0.532784 86.9876 1.56283C87.914 2.59288 88.3179 3.83605 88.1753 5.20945L87.8072 8.65478H87.7953Z" fill="#FF6000"/>
<path fill-rule="evenodd" clip-rule="evenodd" d="M57.6394 11.4937C59.4685 10.3808 61.4282 9.4218 63.5185 8.66406L66.1671 33.3497C66.3453 35.031 65.1219 36.5346 63.4354 36.7122C61.7489 36.8898 60.2405 35.6703 60.0623 33.9891L57.6513 11.4937H57.6394Z" fill="#F78B4F"/>
<path fill-rule="evenodd" clip-rule="evenodd" d="M93.6744 11.4937C91.8453 10.3808 89.8856 9.4218 87.7952 8.66406L85.1466 33.3497C84.9685 35.031 86.1918 36.5346 87.8783 36.7122C89.5649 36.8898 91.0733 35.6703 91.2514 33.9891L93.6625 11.4937H93.6744Z" fill="#F78B4F"/>
<path fill-rule="evenodd" clip-rule="evenodd" d="M42.591 46.4608C51.3325 37.6521 63.2333 32.7031 75.6567 32.7031C88.0801 32.7031 99.9928 37.6521 108.722 46.4608C112.784 58.6201 38.5291 58.6201 42.591 46.4608Z" fill="#F78B4F"/>
<path fill-rule="evenodd" clip-rule="evenodd" d="M144.568 34.3612V42.5897C144.568 43.3238 144.853 44.0105 145.375 44.5314C145.886 45.0524 146.587 45.3365 147.323 45.3365H149.164C149.9 45.3365 150.589 45.0524 151.112 44.5314C151.634 44.0223 151.919 43.3238 151.919 42.5897V42.4713C150.34 42.0688 149.164 40.6362 149.164 38.9313C149.164 36.9067 150.803 35.2728 152.834 35.2728C154.865 35.2728 156.504 36.9067 156.504 38.9313C156.504 40.6362 155.328 42.0688 153.749 42.4713V42.5897C153.749 43.7974 153.262 44.9695 152.406 45.8219C151.551 46.6744 150.375 47.1598 149.164 47.1598H147.323C146.112 47.1598 144.936 46.6744 144.081 45.8219C143.225 44.9695 142.738 43.7974 142.738 42.5897V34.3612H140.898C139.686 34.3612 138.51 33.8757 137.655 33.0233C136.8 32.1708 136.313 30.9987 136.313 29.7911V21.5625H139.068V23.3976H138.154V29.8029C138.154 30.537 138.439 31.2237 138.962 31.7446C139.472 32.2655 140.173 32.5497 140.909 32.5497H146.42C147.157 32.5497 147.846 32.2655 148.368 31.7446C148.891 31.2355 149.176 30.537 149.176 29.8029V23.3976H148.261V21.5625H151.017V29.7911C151.017 30.9987 150.53 32.1708 149.675 33.0233C148.82 33.8757 147.644 34.3612 146.432 34.3612H144.591H144.568Z" fill="#00008B"/>
<path fill-rule="evenodd" clip-rule="evenodd" d="M175.032 3.55559L196.399 24.8551C197.67 26.0746 198.406 27.5901 198.406 29.366V98.5688C198.406 102.334 195.342 105.388 191.565 105.388H123.652C119.875 105.388 116.811 102.334 116.811 98.5688V8.37433C116.811 4.60932 119.875 1.55469 123.652 1.55469H170.495C172.289 1.55469 173.797 2.28875 175.02 3.55559H175.032Z" fill="white" stroke="#000097" stroke-miterlimit="10"/>
<g clip-path="url(#clip1_28418_133783)">
<path d="M155.5 40C161.851 40 167 34.8513 167 28.5C167 22.1487 161.851 17 155.5 17C149.149 17 144 22.1487 144 28.5C144 34.8513 149.149 40 155.5 40Z" fill="#DDDDF9"/>
</g>
<path fill-rule="evenodd" clip-rule="evenodd" d="M191.553 20.875L196.339 25.6109C197.61 26.8303 197.848 28.0972 197.848 29.885V101.763C197.848 103.492 196.446 104.889 194.712 104.889V27.2211C194.712 25.9424 194.023 22.1655 188.382 22.0826L191.553 20.875Z" fill="#6A6AFF"/>
<path fill-rule="evenodd" clip-rule="evenodd" d="M174.201 3.50781L195.71 24.9849L195.211 24.5114C193.928 23.2682 192.171 22.4394 190.247 22.4394H176.208V8.45679C176.208 6.53876 175.436 4.79833 174.201 3.50781Z" fill="#6A6AFF"/>
<path fill-rule="evenodd" clip-rule="evenodd" d="M137.275 55.1994C136.313 55.1994 135.541 54.4298 135.541 53.4708C135.541 52.5118 136.313 51.7422 137.275 51.7422H176.743C177.705 51.7422 178.477 52.5118 178.477 53.4708C178.477 54.4298 177.705 55.1994 176.743 55.1994H137.275ZM137.275 91.9496C136.313 91.9496 135.541 91.1801 135.541 90.221C135.541 89.262 136.313 88.4925 137.275 88.4925H163.357C164.319 88.4925 165.091 89.262 165.091 90.221C165.091 91.1801 164.319 91.9496 163.357 91.9496H137.275ZM137.275 79.7074C136.313 79.7074 135.541 78.9379 135.541 77.9789C135.541 77.0198 136.313 76.2503 137.275 76.2503H169.117C170.079 76.2503 170.851 77.0198 170.851 77.9789C170.851 78.9379 170.079 79.7074 169.117 79.7074H137.275ZM137.275 67.4534C136.313 67.4534 135.541 66.6838 135.541 65.7248C135.541 64.7658 136.313 63.9962 137.275 63.9962H176.743C177.705 63.9962 178.477 64.7658 178.477 65.7248C178.477 66.6838 177.705 67.4534 176.743 67.4534H137.275Z" fill="#6A6AFF"/>
</g>
<defs>
<clipPath id="clip0_28418_133783">
<rect width="199" height="184" fill="white"/>
</clipPath>
<clipPath id="clip1_28418_133783">
<rect width="23" height="23" fill="white" transform="translate(144 17)"/>
</clipPath>
</defs>
</svg>
