<svg width="269" height="180" viewBox="0 0 269 180" fill="none" xmlns="http://www.w3.org/2000/svg">
<g clip-path="url(#clip0_28418_133824)">
<path d="M250.507 20.5404V174.87C250.507 177.705 247.831 180.004 244.539 180.004H5.96796C2.66783 180.004 0 177.705 0 174.87V20.5404C0 17.7045 2.67649 15.4062 5.96796 15.4062H244.531C247.831 15.4062 250.498 17.7045 250.498 20.5404H250.507Z" fill="#DDDDF9"/>
<path d="M268.602 5.53262V159.862C268.602 162.698 265.925 164.996 262.634 164.996H24.0624C20.7623 164.996 18.0945 162.698 18.0945 159.862V5.53262C18.0945 2.69668 20.771 0.398438 24.0624 0.398438H262.625C265.925 0.398438 268.593 2.69668 268.593 5.53262" fill="white"/>
<path d="M268.602 5.53262V159.862C268.602 162.698 265.925 164.996 262.634 164.996H24.0624C20.7623 164.996 18.0945 162.698 18.0945 159.862V5.53262C18.0945 2.69668 20.771 0.398438 24.0624 0.398438H262.625C265.925 0.398438 268.593 2.69668 268.593 5.53262" stroke="#000097" stroke-width="0.93" stroke-miterlimit="10"/>
<path d="M268.09 13.5033H18.5015V6.60853C18.5015 3.47771 21.0307 0.945312 24.1576 0.945312H262.356C265.518 0.945312 268.082 3.5124 268.082 6.67791V13.5033H268.09Z" fill="#979EFF"/>
<path d="M26.4531 7.38375C26.4531 8.38977 25.6389 9.205 24.6342 9.205C23.6294 9.205 22.8152 8.38977 22.8152 7.38375C22.8152 6.37773 23.6294 5.5625 24.6342 5.5625C25.6389 5.5625 26.4531 6.37773 26.4531 7.38375Z" fill="white"/>
<path d="M32.9927 7.38375C32.9927 8.38977 32.1785 9.205 31.1737 9.205C30.1689 9.205 29.3547 8.38977 29.3547 7.38375C29.3547 6.37773 30.1689 5.5625 31.1737 5.5625C32.1785 5.5625 32.9927 6.37773 32.9927 7.38375Z" fill="white"/>
<path d="M39.5409 7.38375C39.5409 8.38977 38.7267 9.205 37.7219 9.205C36.7172 9.205 35.9116 8.38977 35.9116 7.38375C35.9116 6.37773 36.7258 5.5625 37.7219 5.5625C38.718 5.5625 39.5409 6.37773 39.5409 7.38375Z" fill="white"/>
<path d="M253.106 31.2302V82.1471C253.106 83.0837 252.11 83.8383 250.888 83.8383H162.192C160.962 83.8383 159.974 83.0837 159.974 82.1471V31.2302C159.974 30.2936 160.97 29.5391 162.192 29.5391H250.888C252.118 29.5391 253.106 30.2936 253.106 31.2302Z" fill="#EFEFFF"/>
<path d="M253.106 91.7771V142.694C253.106 143.631 252.11 144.385 250.888 144.385H162.192C160.962 144.385 159.974 143.631 159.974 142.694V91.7771C159.974 90.8405 160.97 90.0859 162.192 90.0859H250.888C252.118 90.0859 253.106 90.8405 253.106 91.7771Z" fill="#EFEFFF"/>
<path d="M179.957 68.5391H172.534V76.6306H179.957V68.5391Z" fill="#424448"/>
<path d="M188.498 68.5391H181.074V76.6306H188.498V68.5391Z" fill="#86888A"/>
<path d="M197.038 68.5391H189.615V76.6306H197.038V68.5391Z" fill="#C2C5C9"/>
<path d="M205.587 68.5391H198.164V76.6306H205.587V68.5391Z" fill="#BAC0C4"/>
<path d="M214.128 68.5391H206.705V76.6306H214.128V68.5391Z" fill="#A8BED8"/>
<path d="M222.668 68.5391H215.245V76.6306H222.668V68.5391Z" fill="#A8BED8"/>
<path d="M231.209 68.5391H223.786V76.6306H231.209V68.5391Z" fill="#87B0D1"/>
<path d="M239.758 68.5391H232.335V76.6306H239.758V68.5391Z" fill="#5DA6D8"/>
<path d="M188.498 73.1683L194.561 62.6484H182.434L188.498 73.1683Z" fill="#00008B"/>
<path d="M179.957 124.719H172.534V132.81H179.957V124.719Z" fill="#767A7B"/>
<path d="M188.498 124.719H181.074V132.81H188.498V124.719Z" fill="#B4B6B7"/>
<path d="M197.038 124.719H189.615V132.81H197.038V124.719Z" fill="#ABCC79"/>
<path d="M205.587 124.719H198.164V132.81H205.587V124.719Z" fill="#B2CD87"/>
<path d="M214.128 124.719H206.705V132.81H214.128V124.719Z" fill="#76904C"/>
<path d="M222.668 124.719H215.245V132.81H222.668V124.719Z" fill="#76904C"/>
<path d="M231.209 124.719H223.786V132.81H231.209V124.719Z" fill="#46582E"/>
<path d="M239.758 124.719H232.335V132.81H239.758V124.719Z" fill="#47592F"/>
<path d="M200.624 129.34L206.687 118.82H194.561L200.624 129.34Z" fill="#00008B"/>
<mask id="mask0_28418_133824" style="mask-type:luminance" maskUnits="userSpaceOnUse" x="214" y="39" width="26" height="24">
<path d="M239.68 39.0469H214.561V62.1854H239.68V39.0469Z" fill="white"/>
</mask>
<g mask="url(#mask0_28418_133824)">
<path d="M239.68 49.3066C239.68 47.1818 237.956 45.4559 235.799 45.3779C235.583 43.2878 233.764 41.6573 231.573 41.6573C231.113 41.6573 230.654 41.7354 230.221 41.8741C228.974 40.0963 226.938 39.0469 224.721 39.0469C221.092 39.0469 218.138 41.8828 218.043 45.4126C217.168 45.5253 216.362 45.9156 215.739 46.5313C214.977 47.2772 214.561 48.2572 214.561 49.3066C214.561 51.1278 215.808 52.6542 217.558 53.0965L217.376 53.4347C216.839 54.4321 217.021 55.6376 217.844 56.4441C218.355 56.9471 219.022 57.19 219.697 57.19C220.373 57.19 221.04 56.9385 221.551 56.4441C222.374 55.6462 222.556 54.4408 222.019 53.4347L221.906 53.2353H232.343L232.231 53.4347C231.685 54.4321 231.876 55.6376 232.699 56.4441C233.192 56.9298 233.851 57.1986 234.552 57.1986C235.254 57.1986 235.912 56.9298 236.406 56.4441C237.229 55.6462 237.411 54.4408 236.874 53.4347L236.692 53.0965C237.376 52.9231 238.008 52.5761 238.511 52.0731C239.264 51.336 239.68 50.3473 239.68 49.3066ZM220.919 55.8197C220.243 56.4788 219.143 56.4788 218.467 55.8197C217.93 55.2907 217.8 54.4928 218.164 53.8337L219.697 50.9977L221.23 53.8337C221.585 54.4928 221.464 55.2907 220.927 55.8197H220.919ZM235.773 55.8197C235.124 56.4615 233.98 56.4615 233.322 55.8197C232.785 55.2907 232.655 54.4928 233.019 53.8337L234.552 50.9977L236.085 53.8337C236.449 54.4928 236.319 55.2993 235.782 55.8197H235.773ZM236.259 52.2899L234.951 49.8703C234.795 49.5841 234.318 49.5841 234.162 49.8703L232.82 52.3593H221.438L220.096 49.8703C219.94 49.5841 219.463 49.5841 219.307 49.8703L217.991 52.3073C216.527 52.0384 215.462 50.7983 215.462 49.3152C215.462 48.5 215.791 47.7368 216.38 47.1558C216.943 46.6007 217.705 46.2798 218.519 46.2625C218.762 46.2625 218.952 46.0543 218.952 45.8202V45.5947C218.952 42.4726 221.542 39.9315 224.738 39.9315C226.765 39.9315 228.619 40.9462 229.676 42.646C230.23 43.5306 230.524 44.554 230.524 45.5947C230.524 45.8375 230.724 46.0283 230.966 46.0283C231.209 46.0283 231.408 45.8375 231.408 45.5947C231.408 44.5713 231.165 43.5653 230.689 42.6634C230.975 42.5853 231.278 42.5419 231.573 42.5419C233.426 42.5419 234.933 44.0163 234.933 45.8289C234.933 46.0717 235.132 46.2625 235.375 46.2625H235.652C237.376 46.2625 238.779 47.6328 238.779 49.3152C238.779 50.1305 238.45 50.8937 237.861 51.4747C237.419 51.917 236.848 52.1946 236.241 52.3073L236.259 52.2899Z" fill="#0C79D4"/>
<path d="M227.519 54.8631C227.363 54.5769 226.887 54.5769 226.731 54.8631L224.808 58.4275C224.271 59.4249 224.453 60.639 225.275 61.4369C225.769 61.9226 226.427 62.1914 227.129 62.1914C227.831 62.1914 228.489 61.9313 228.983 61.4369C229.806 60.639 229.987 59.4336 229.45 58.4275L227.519 54.8631ZM228.35 60.8125C227.701 61.4543 226.557 61.4543 225.899 60.8125C225.362 60.2835 225.232 59.4856 225.596 58.8265L227.129 55.9992L228.662 58.8351C229.026 59.4943 228.896 60.2921 228.359 60.8212L228.35 60.8125Z" fill="#0C79D4"/>
</g>
<path fill-rule="evenodd" clip-rule="evenodd" d="M226.341 110.706L226.202 113.256C226.938 113.585 227.657 113.525 227.519 114.08C227.467 114.297 227.242 114.427 227.025 114.375C225.899 114.097 225.033 113.698 224.236 112.709L223.725 113.221L225.778 115.259C225.864 115.355 225.916 115.485 225.89 115.623C225.691 116.647 225.388 117.635 224.989 118.615H230.161C229.745 115.519 228.515 113.663 228.515 109.752C228.515 107.645 229.84 105.823 230.083 103.673L229.546 103.595C229.251 104.878 228.818 105.832 228.376 107.02C228.082 107.801 227.025 107.922 226.566 107.228C226.193 106.665 225.804 106.066 225.509 105.407L224.773 105.754C225.171 106.639 226.427 107.913 226.393 109.457C226.384 109.9 226.367 110.316 226.358 110.706H226.341ZM225.518 110.992C224.496 110.559 223.647 109.804 223.101 108.85C220.113 110.654 216.232 108.512 216.232 104.999C216.232 102.71 217.965 100.793 220.225 100.533C220.321 98.894 221.594 97.5584 223.222 97.3676C224.989 93.9072 229.572 93.0139 232.508 95.6071C233.504 96.483 234.197 97.6798 234.431 99.0414C238.597 99.8133 240.226 104.956 237.203 107.966C235.756 109.396 233.617 109.891 231.668 109.206C231.105 110.03 230.299 110.671 229.372 111.044C229.624 114.166 230.732 116.074 231.018 118.988C231.044 119.223 230.853 119.431 230.611 119.431H224.366C224.08 119.431 223.863 119.136 224.002 118.841C224.435 117.93 224.834 116.655 225.033 115.684L222.85 113.516C222.694 113.36 222.694 113.1 222.85 112.944L223.985 111.816C224.167 111.634 224.47 111.651 224.626 111.903C224.886 112.276 225.145 112.553 225.414 112.779L225.501 110.992H225.518ZM229.329 110.16C229.329 110.021 229.329 109.882 229.329 109.735C229.329 107.705 230.724 106.006 230.923 103.343C230.94 103.126 230.793 102.935 230.576 102.901L229.286 102.719C229.078 102.684 228.87 102.831 228.835 103.039C228.567 104.444 228.073 105.494 227.623 106.717C227.571 106.847 227.432 106.881 227.337 106.838C227.12 106.734 226.271 105.121 226.107 104.696C226.02 104.479 225.769 104.375 225.552 104.479C223.777 105.32 223.396 105.147 224.574 106.977C225.483 108.399 225.604 108.668 225.57 110.099C224.721 109.657 224.037 108.946 223.647 108.078C223.534 107.835 223.231 107.766 223.023 107.931C222.417 108.408 221.577 108.668 220.789 108.668C217.514 108.668 215.843 104.739 218.121 102.406C219.697 100.793 221.1 101.713 221.066 100.863C220.988 99.423 222.096 98.1915 223.534 98.1308C224.132 98.1048 223.915 96.9079 225.795 95.7111C228.983 93.6731 233.253 95.6591 233.703 99.4143C233.729 99.6138 233.894 99.7612 234.084 99.7699C235.184 99.9173 236.163 100.455 236.865 101.253C237.566 102.042 237.982 103.074 237.982 104.202C237.982 107.428 234.656 109.57 231.711 108.304C231.044 108.018 231.191 109.275 229.364 110.142L229.329 110.16Z" fill="#518B0B"/>
<path d="M154.188 34.4308V141.243C154.188 143.203 152.915 144.798 151.338 144.798H37.4015C35.825 144.798 34.5518 143.211 34.5518 141.243V34.4308C34.5518 32.4708 35.825 30.875 37.4015 30.875H151.33C152.906 30.875 154.179 32.4621 154.179 34.4308H154.188Z" fill="#EFEFFF"/>
<path d="M136.458 63.3505C136.007 63.3505 135.626 63.0209 135.626 62.6133C135.626 62.2057 135.99 61.8762 136.458 61.8762H140.84C141.291 61.8762 141.672 62.2057 141.672 62.6133C141.672 63.0209 141.308 63.3505 140.84 63.3505H136.458ZM124.686 60.662C124.686 58.3724 126.774 56.5078 129.346 56.5078C131.919 56.5078 134.006 58.3724 134.006 60.662V80.6003C135.392 81.7364 136.189 83.3409 136.189 85.0754C136.189 88.449 133.131 91.1722 129.346 91.1722C125.561 91.1722 122.503 88.4404 122.503 85.0754C122.503 83.3582 123.318 81.7451 124.686 80.6003V60.662ZM126.332 81.2855L126.029 81.5023C124.833 82.3869 124.132 83.6791 124.132 85.0841C124.132 87.6425 126.462 89.7239 129.329 89.7239C132.196 89.7239 134.526 87.6511 134.526 85.0841C134.526 83.6791 133.824 82.3782 132.629 81.5023L132.326 81.2855V60.6707C132.326 59.1876 130.975 57.9822 129.312 57.9822C127.649 57.9822 126.297 59.1876 126.297 60.6707V81.2855H126.332ZM136.458 77.9985C136.007 77.9985 135.626 77.669 135.626 77.2614C135.626 76.8537 135.99 76.5242 136.458 76.5242H140.84C141.291 76.5242 141.672 76.8537 141.672 77.2614C141.672 77.669 141.308 77.9985 140.84 77.9985H136.458ZM136.458 73.1245C136.007 73.1245 135.626 72.795 135.626 72.3874C135.626 71.9797 135.99 71.6502 136.458 71.6502H140.84C141.291 71.6502 141.672 71.9797 141.672 72.3874C141.672 72.795 141.308 73.1245 140.84 73.1245H136.458ZM136.458 68.2419C136.007 68.2419 135.626 67.9123 135.626 67.5047C135.626 67.0971 135.99 66.7675 136.458 66.7675H140.84C141.291 66.7675 141.672 67.0971 141.672 67.5047C141.672 67.9123 141.308 68.2419 140.84 68.2419H136.458ZM128.515 81.9966V72.1012C128.515 71.7022 128.878 71.364 129.346 71.364C129.814 71.364 130.178 71.6935 130.178 72.1012V81.9966C131.737 82.3262 132.924 83.5924 132.924 85.0841C132.924 86.8359 131.33 88.2582 129.364 88.2582C127.397 88.2582 125.804 86.8359 125.804 85.0841C125.804 83.575 126.964 82.3262 128.549 81.9966H128.515ZM129.346 86.7839C130.394 86.7839 131.26 86.012 131.26 85.0754C131.26 84.1387 130.403 83.3669 129.346 83.3669C128.289 83.3669 127.432 84.1387 127.432 85.0754C127.432 86.012 128.289 86.7839 129.346 86.7839Z" fill="#00008A"/>
<path d="M58.3718 102.648H47.9343V114.044H58.3718V102.648Z" fill="#B0322E"/>
<path d="M70.3942 102.648H59.9568V114.044H70.3942V102.648Z" fill="#E4874B"/>
<path d="M82.4167 102.648H71.9792V114.044H82.4167V102.648Z" fill="#F4C04C"/>
<path d="M94.4394 102.648H84.002V114.044H94.4394V102.648Z" fill="#AFC261"/>
<path d="M106.462 102.648H96.0244V114.044H106.462V102.648Z" fill="#8EC95D"/>
<path d="M118.484 102.648H108.047V114.044H118.484V102.648Z" fill="#56B169"/>
<path d="M130.507 102.648H120.07V114.044H130.507V102.648Z" fill="#498597"/>
<path d="M142.529 102.648H132.092V114.044H142.529V102.648Z" fill="#00008B"/>
<path d="M87.4667 109.155L96.0072 94.3594H78.9348L87.4667 109.155Z" fill="#00008B"/>
</g>
<defs>
<clipPath id="clip0_28418_133824">
<rect width="269" height="180" fill="white"/>
</clipPath>
</defs>
</svg>
