<?xml version="1.0" encoding="UTF-8" standalone="no"?>
<!DOCTYPE svg PUBLIC "-//W3C//DTD SVG 1.1//EN" "http://www.w3.org/Graphics/SVG/1.1/DTD/svg11.dtd">
<svg width="100%" height="100%" viewBox="0 0 68 68" version="1.1" xmlns="http://www.w3.org/2000/svg" xmlns:xlink="http://www.w3.org/1999/xlink" xml:space="preserve" xmlns:serif="http://www.serif.com/" style="fill-rule:evenodd;clip-rule:evenodd;stroke-linejoin:round;stroke-miterlimit:2;">
    <g id="Plan-de-travail1" serif:id="Plan de travail1" transform="matrix(0.985507,0,0,0.985507,0,0)">
        <rect x="0" y="0" width="69" height="69" style="fill:none;"/>
        <clipPath id="_clip1">
            <rect x="0" y="0" width="69" height="69"/>
        </clipPath>
        <g clipPath="url(#_clip1)">
            <g transform="matrix(1.01471,0,0,1.01656,1.42109e-14,0)">
                <g id="ODD14">
                    <rect x="0" y="0" width="68" height="67.876" style="fill:none;"/>
                    <g id="odd14-carre" transform="matrix(1,0,0,0.998176,0.062,0.0618869)">
                        <rect x="0" y="0" width="67.876" height="67.876" style="fill:rgb(0,125,187);"/>
                        <g transform="matrix(1,0,0,1,-133.179,-344.576)">
                            <path d="M185.185,394.079C184.33,392.919 178.837,385.9 171.085,385.9C164.371,385.9 157.168,392 157.168,392C157.168,392 154.482,386.445 148.928,385.957L148.745,385.957C148.623,385.957 148.501,386.079 148.562,386.201C148.559,386.267 148.581,386.333 148.623,386.384C150.111,388.754 150.972,391.464 151.123,394.258C151.123,397.615 149.292,400.972 148.623,402.193L148.562,402.254C148.562,402.315 148.501,402.315 148.501,402.376C148.501,402.498 148.562,402.559 148.684,402.62L148.806,402.62C154.361,402.132 157.046,396.577 157.046,396.577C157.046,396.577 164.246,402.677 170.963,402.677C178.715,402.677 184.209,395.658 185.063,394.498L185.063,394.497C185.063,394.464 185.09,394.437 185.123,394.437L185.124,394.437L185.124,394.315C185.246,394.132 185.246,394.132 185.185,394.071M175.419,395.109C174.18,395.109 173.161,394.09 173.161,392.851C173.161,391.612 174.18,390.593 175.419,390.593C176.658,390.593 177.677,391.612 177.677,392.851C177.658,394.083 176.651,395.09 175.419,395.109" style="fill:white;fill-rule:nonzero;"/>
                        </g>
                        <g transform="matrix(1,0,0,1,-132.945,-339.005)">
                            <path d="M156.445,374.042L156.506,373.981C156.567,373.981 156.567,373.92 156.628,373.92C156.689,373.92 156.75,373.92 156.75,373.981C160.962,378.01 165.418,374.713 166.333,373.981L166.394,373.92L166.516,373.92L166.577,373.981C167.493,374.713 171.948,378.01 176.16,373.981C176.192,373.946 176.235,373.924 176.282,373.92C176.343,373.92 176.343,373.92 176.404,373.981L176.465,374.042C177.259,374.836 180.799,377.887 184.522,374.652C184.569,374.603 184.591,374.536 184.583,374.469L184.583,372.943C184.574,372.813 184.469,372.708 184.339,372.699L184.278,372.699C184.217,372.699 184.217,372.76 184.156,372.76C181.558,374.143 178.345,373.697 176.221,371.66C176.188,371.627 176.145,371.605 176.099,371.599L175.916,371.599C175.855,371.599 175.855,371.66 175.794,371.66C174.817,372.393 170.423,375.383 166.455,371.721L166.394,371.66C166.286,371.579 166.136,371.579 166.028,371.66L165.967,371.721C162.06,375.383 157.605,372.392 156.628,371.66C156.628,371.599 156.567,371.599 156.506,371.599L156.384,371.599C156.323,371.66 156.323,371.66 156.262,371.66C154.153,373.727 150.919,374.176 148.327,372.76C148.266,372.76 148.266,372.699 148.205,372.699L148.144,372.699C148.014,372.708 147.909,372.813 147.9,372.943L147.9,374.469C147.892,374.536 147.914,374.603 147.961,374.652C150.483,376.736 154.248,376.466 156.445,374.042" style="fill:white;fill-rule:nonzero;"/>
                        </g>
                        <g transform="matrix(1,0,0,1,-133.218,-335.421)">
                            <path d="M148.844,363.5C148.661,363.5 148.6,363.561 148.6,363.744L148.6,365.27C148.592,365.337 148.614,365.404 148.661,365.453C152.384,368.688 155.925,365.636 156.779,364.843L156.84,364.782C156.901,364.782 156.901,364.721 156.962,364.721C157.023,364.721 157.084,364.721 157.084,364.782C161.296,368.811 165.752,365.575 166.667,364.782L166.728,364.721L166.85,364.721L166.911,364.782C167.827,365.575 172.282,368.811 176.494,364.782C176.526,364.747 176.569,364.725 176.616,364.721C176.677,364.721 176.677,364.721 176.738,364.782L176.799,364.843C177.592,365.637 181.133,368.688 184.856,365.453C184.903,365.404 184.925,365.337 184.917,365.27L184.917,363.744C184.908,363.614 184.803,363.509 184.673,363.5L184.612,363.5C184.551,363.5 184.551,363.561 184.49,363.561C181.892,364.944 178.679,364.498 176.555,362.461C176.494,362.461 176.494,362.4 176.433,362.4L176.25,362.4C176.189,362.4 176.189,362.461 176.128,362.461C175.151,363.193 170.757,366.184 166.789,362.522L166.728,362.461C166.62,362.38 166.47,362.38 166.362,362.461L166.301,362.522C162.333,366.184 157.939,363.193 156.962,362.461C156.962,362.4 156.901,362.4 156.84,362.4L156.657,362.4C156.657,362.461 156.596,362.461 156.535,362.461C154.426,364.528 151.192,364.977 148.6,363.561C148.905,363.561 148.905,363.561 148.844,363.5" style="fill:white;fill-rule:nonzero;"/>
                        </g>
                        <g transform="matrix(1,0,0,1,-126.478,-321.823)">
                            <path d="M135.268,327.5L135.268,341.173L132.948,341.173L132.948,330.735L131.3,332.383L131.3,330L133.375,327.5L135.268,327.5Z" style="fill:white;fill-rule:nonzero;"/>
                        </g>
                        <g transform="matrix(1,0,0,1,-129.478,-321.862)">
                            <path d="M145.226,341.212L145.226,339.012L146.142,339.012L146.142,337.242L145.226,337.242L145.226,327.6L142.968,327.6L139,337.61L139,339.01L143.029,339.01L143.029,341.21L145.226,341.212ZM141.014,337.244L143.089,331.628L143.089,337.244L141.014,337.244Z" style="fill:white;fill-rule:nonzero;"/>
                        </g>
                        <g transform="matrix(1,0,0,1,-137.504,-321.862)">
                            <path d="M162.835,327.6L161.735,333.338L160.7,333.338L159.6,327.6L160.577,327.6L161.248,331.629L161.919,327.6L162.835,327.6Z" style="fill:white;fill-rule:nonzero;"/>
                        </g>
                        <g transform="matrix(1,0,0,1,25.759,5.738)">
                            <rect x="0" y="0" width="0.977" height="5.738" style="fill:white;"/>
                        </g>
                        <g transform="matrix(1,0,0,1,-140.815,-321.862)">
                            <path d="M168.1,327.6L170.358,327.6L170.358,328.393L169.015,328.393L169.015,330.041L169.992,330.041L169.992,330.835L169.015,330.835L169.015,332.605L170.358,332.605L170.358,333.337L168.1,333.337L168.1,327.6Z" style="fill:white;fill-rule:nonzero;"/>
                        </g>
                        <g transform="matrix(1,0,0,1,-137.504,-327.044)">
                            <path d="M159.6,346.638L160.7,340.9L161.8,340.9L162.9,346.638L161.923,346.638L161.74,345.6L160.7,345.6L160.517,346.638L159.6,346.638ZM160.821,344.807L161.615,344.807L161.249,342.487L160.821,344.807Z" style="fill:white;fill-rule:nonzero;"/>
                        </g>
                        <g transform="matrix(1,0,0,1,-139.763,-327.005)">
                            <path d="M166.5,346.965L166.5,346.6C165.798,346.498 165.302,345.838 165.4,345.135L165.4,342.327C165.39,342.262 165.386,342.197 165.386,342.132C165.386,341.398 165.99,340.794 166.724,340.794C166.771,340.794 166.818,340.796 166.865,340.801C166.902,340.798 166.94,340.796 166.977,340.796C167.725,340.796 168.34,341.412 168.34,342.159C168.34,342.215 168.337,342.271 168.33,342.327L168.33,345.135C168.374,345.687 168.086,346.215 167.598,346.478L168.33,346.6L168.33,347.332L166.5,346.965ZM167.355,345.317L167.355,342.143C167.355,341.777 167.172,341.533 166.867,341.533C166.501,341.533 166.379,341.777 166.379,342.143L166.379,345.256C166.379,345.622 166.562,345.866 166.867,345.866C167.233,345.866 167.355,345.622 167.355,345.317" style="fill:white;fill-rule:nonzero;"/>
                        </g>
                        <g transform="matrix(1,0,0,1,-141.984,-327.005)">
                            <path d="M173.908,340.8L173.908,345.134C173.908,346.05 173.542,346.599 172.565,346.599C172.504,346.608 172.442,346.612 172.381,346.612C171.671,346.612 171.087,346.028 171.087,345.318C171.087,345.257 171.091,345.195 171.1,345.134L171.1,340.8L172.077,340.8L172.077,345.256C172.077,345.622 172.199,345.805 172.565,345.805C172.931,345.805 173.053,345.561 173.053,345.256L173.053,340.8L173.908,340.8Z" style="fill:white;fill-rule:nonzero;"/>
                        </g>
                        <g transform="matrix(1,0,0,1,-143.971,-327.044)">
                            <path d="M176.2,346.638L177.3,340.9L178.4,340.9L179.5,346.638L178.523,346.638L178.34,345.6L177.3,345.6L177.117,346.638L176.2,346.638ZM177.421,344.807L178.215,344.807L177.849,342.487L177.421,344.807Z" style="fill:white;fill-rule:nonzero;"/>
                        </g>
                        <g transform="matrix(1,0,0,1,-145.958,-327.005)">
                            <path d="M181.3,340.8L183.864,340.8L183.864,341.594L183.07,341.594L183.07,346.6L182.093,346.6L182.093,341.595L181.3,341.595L181.3,340.8Z" style="fill:white;fill-rule:nonzero;"/>
                        </g>
                        <g transform="matrix(1,0,0,1,38.394,13.795)">
                            <rect x="0" y="0" width="0.977" height="5.738" style="fill:white;"/>
                        </g>
                        <g transform="matrix(1,0,0,1,-148.88,-327.005)">
                            <path d="M189.9,346.965L189.9,346.6C189.198,346.498 188.702,345.838 188.8,345.135L188.8,342.327C188.79,342.262 188.786,342.197 188.786,342.132C188.786,341.398 189.39,340.794 190.124,340.794C190.171,340.794 190.218,340.796 190.265,340.801C190.302,340.798 190.34,340.796 190.377,340.796C191.125,340.796 191.74,341.412 191.74,342.159C191.74,342.215 191.737,342.271 191.73,342.327L191.73,345.135C191.774,345.687 191.486,346.215 190.998,346.478L191.73,346.6L191.73,347.332L189.9,346.965ZM190.755,345.317L190.755,342.143C190.755,341.777 190.572,341.533 190.267,341.533C189.901,341.533 189.779,341.777 189.779,342.143L189.779,345.256C189.779,345.622 189.962,345.866 190.267,345.866C190.633,345.866 190.755,345.622 190.755,345.317" style="fill:white;fill-rule:nonzero;"/>
                        </g>
                        <g transform="matrix(1,0,0,1,-151.101,-327.005)">
                            <path d="M197.308,340.8L197.308,345.134C197.308,346.05 196.942,346.599 195.965,346.599C195.904,346.608 195.842,346.612 195.781,346.612C195.071,346.612 194.487,346.028 194.487,345.318C194.487,345.257 194.491,345.195 194.5,345.134L194.5,340.8L195.477,340.8L195.477,345.256C195.477,345.622 195.599,345.805 195.965,345.805C196.331,345.805 196.453,345.561 196.453,345.256L196.453,340.8L197.308,340.8Z" style="fill:white;fill-rule:nonzero;"/>
                        </g>
                        <g transform="matrix(1,0,0,1,-153.244,-327.005)">
                            <path d="M200,340.8L202.32,340.8L202.32,341.594L200.977,341.594L200.977,343.242L201.954,343.242L201.954,344.036L200.977,344.036L200.977,345.806L202.32,345.806L202.32,346.6L200,346.6L200,340.8Z" style="fill:white;fill-rule:nonzero;"/>
                        </g>
                    </g>
                </g>
            </g>
        </g>
    </g>
</svg>
