<?xml version="1.0" encoding="UTF-8" standalone="no"?>
<!DOCTYPE svg PUBLIC "-//W3C//DTD SVG 1.1//EN" "http://www.w3.org/Graphics/SVG/1.1/DTD/svg11.dtd">
<svg width="100%" height="100%" viewBox="0 0 68 68" version="1.1" xmlns="http://www.w3.org/2000/svg" xmlns:xlink="http://www.w3.org/1999/xlink" xml:space="preserve" xmlns:serif="http://www.serif.com/" style="fill-rule:evenodd;clip-rule:evenodd;stroke-linejoin:round;stroke-miterlimit:2;">
    <g id="Plan-de-travail1" serif:id="Plan de travail1" transform="matrix(0.985507,0,0,0.985507,0,0)">
        <rect x="0" y="0" width="69" height="69" style="fill:none;"/>
        <clipPath id="_clip1">
            <rect x="0" y="0" width="69" height="69"/>
        </clipPath>
        <g clipPath="url(#_clip1)">
            <g transform="matrix(1.01471,0,0,1.01656,0,1.42109e-14)">
                <g id="ODD11">
                    <rect x="0" y="0" width="68" height="67.876" style="fill:none;"/>
                    <g id="odd11-carre" transform="matrix(1,0,0,0.998176,0.062,0.0618869)">
                        <rect x="0" y="0" width="67.876" height="67.876" style="fill:rgb(249,157,37);"/>
                        <g transform="matrix(1,0,0,1,-502.234,-227.144)">
                            <path d="M516.944,280.065L525.734,280.065C525.864,280.056 525.969,279.951 525.978,279.821C525.978,279.76 525.978,279.699 525.917,279.699L521.522,274.022L521.461,273.961C521.412,273.914 521.345,273.892 521.278,273.9C521.217,273.9 521.156,273.9 521.156,273.961L521.156,274.022L521.095,274.083L516.822,279.699L516.761,279.76C516.761,279.821 516.7,279.821 516.7,279.882C516.736,279.987 516.833,280.06 516.944,280.065" style="fill:white;fill-rule:nonzero;"/>
                        </g>
                        <g transform="matrix(1,0,0,1,-502.195,-231.585)">
                            <path d="M525.695,285.3L516.844,285.3C516.714,285.309 516.609,285.414 516.6,285.544L516.6,292.444C516.609,292.574 516.714,292.679 516.844,292.688L519.713,292.688L519.713,288.354C519.722,288.224 519.827,288.119 519.957,288.11L522.582,288.11C522.712,288.119 522.817,288.224 522.826,288.354L522.826,292.688L525.756,292.688C525.886,292.679 525.991,292.574 526,292.444L526,285.486C525.923,285.391 525.815,285.326 525.695,285.303" style="fill:white;fill-rule:nonzero;"/>
                        </g>
                        <g transform="matrix(1,0,0,1,-521.792,-230.417)">
                            <path d="M575.934,282.3L567.144,282.3C567.033,282.306 566.936,282.378 566.9,282.483L566.9,291.334C566.9,291.456 567.022,291.517 567.144,291.517L575.934,291.517C576.045,291.511 576.142,291.439 576.178,291.334L576.178,282.483C576.117,282.422 576.056,282.3 575.934,282.3M571.112,288.1C571.104,288.197 571.026,288.275 570.929,288.283L568.3,288.283C568.189,288.278 568.092,288.205 568.056,288.1L568.056,286.513C568.056,286.391 568.178,286.33 568.3,286.33L570.925,286.33C571.022,286.338 571.1,286.416 571.108,286.513L571.112,288.1ZM571.112,285.17C571.104,285.267 571.026,285.345 570.929,285.353L568.3,285.353C568.189,285.348 568.092,285.275 568.056,285.17L568.056,283.583C568.056,283.461 568.178,283.4 568.3,283.4L570.925,283.4C571.022,283.408 571.1,283.486 571.108,283.583L571.112,285.17ZM575.141,288.1C575.141,288.222 575.019,288.283 574.897,288.283L572.272,288.283C572.161,288.277 572.064,288.205 572.028,288.1L572.028,286.513C572.028,286.391 572.15,286.33 572.272,286.33L574.9,286.33C575.011,286.336 575.108,286.408 575.144,286.513L575.141,288.1ZM575.141,285.17C575.141,285.292 575.019,285.353 574.897,285.353L572.272,285.353C572.161,285.347 572.064,285.275 572.028,285.17L572.028,283.583C572.028,283.461 572.15,283.4 572.272,283.4L574.9,283.4C575.011,283.406 575.108,283.478 575.144,283.583L575.141,285.17Z" style="fill:white;fill-rule:nonzero;"/>
                        </g>
                        <g transform="matrix(1,0,0,1,-508.935,-217.326)">
                            <path d="M542.69,248.7L534.084,248.7C533.987,248.708 533.909,248.786 533.901,248.883L533.901,278.243C533.909,278.34 533.987,278.418 534.084,278.426L542.69,278.426C542.787,278.418 542.865,278.34 542.873,278.243L542.873,248.883C542.874,248.876 542.875,248.868 542.875,248.86C542.875,248.772 542.801,248.698 542.713,248.698C542.705,248.698 542.697,248.699 542.69,248.7M537.563,275.069C537.559,275.134 537.506,275.187 537.441,275.191L535.488,275.191C535.423,275.187 535.37,275.134 535.366,275.069L535.366,272.869C535.37,272.804 535.423,272.751 535.488,272.747L537.441,272.747C537.506,272.751 537.559,272.804 537.563,272.869L537.563,275.069ZM537.563,270.064C537.559,270.129 537.506,270.182 537.441,270.186L535.488,270.186C535.423,270.182 535.37,270.129 535.366,270.064L535.366,267.864C535.37,267.799 535.423,267.746 535.488,267.742L537.441,267.742C537.506,267.746 537.559,267.799 537.563,267.864L537.563,270.064ZM537.563,265.059C537.559,265.124 537.506,265.177 537.441,265.181L535.488,265.181C535.423,265.177 535.37,265.124 535.366,265.059L535.366,262.859C535.37,262.794 535.423,262.741 535.488,262.737L537.441,262.737C537.506,262.741 537.559,262.794 537.563,262.859L537.563,265.059ZM537.563,259.993C537.559,260.058 537.506,260.111 537.441,260.115L535.488,260.115C535.423,260.111 535.37,260.058 535.366,259.993L535.366,257.793C535.37,257.728 535.423,257.675 535.488,257.671L537.441,257.671C537.506,257.675 537.559,257.728 537.563,257.793L537.563,259.993ZM537.563,254.988C537.559,255.053 537.506,255.106 537.441,255.11L535.488,255.11C535.423,255.106 535.37,255.053 535.366,254.988L535.366,252.788C535.37,252.723 535.423,252.67 535.488,252.666L537.441,252.666C537.506,252.67 537.559,252.723 537.563,252.788L537.563,254.988ZM541.408,275.07C541.404,275.135 541.351,275.188 541.286,275.192L539.333,275.192C539.268,275.188 539.215,275.135 539.211,275.07L539.211,272.87C539.215,272.805 539.268,272.752 539.333,272.748L541.286,272.748C541.351,272.752 541.404,272.805 541.408,272.87L541.408,275.07ZM541.408,270.065C541.404,270.13 541.351,270.183 541.286,270.187L539.333,270.187C539.268,270.183 539.215,270.13 539.211,270.065L539.211,267.865C539.215,267.8 539.268,267.747 539.333,267.743L541.286,267.743C541.351,267.747 541.404,267.8 541.408,267.865L541.408,270.065ZM541.408,265.06C541.404,265.125 541.351,265.178 541.286,265.182L539.333,265.182C539.268,265.178 539.215,265.125 539.211,265.06L539.211,262.86C539.215,262.795 539.268,262.742 539.333,262.738L541.286,262.738C541.351,262.742 541.404,262.795 541.408,262.86L541.408,265.06ZM541.408,259.994C541.404,260.059 541.351,260.112 541.286,260.116L539.333,260.116C539.268,260.112 539.215,260.059 539.211,259.994L539.211,257.794C539.215,257.729 539.268,257.676 539.333,257.672L541.286,257.672C541.351,257.676 541.404,257.729 541.408,257.794L541.408,259.994ZM541.408,254.989C541.404,255.054 541.351,255.107 541.286,255.111L539.333,255.111C539.268,255.107 539.215,255.054 539.211,254.989L539.211,252.789C539.215,252.724 539.268,252.671 539.333,252.667L541.286,252.667C541.351,252.671 541.404,252.724 541.408,252.789L541.408,254.989Z" style="fill:white;fill-rule:nonzero;"/>
                        </g>
                        <g transform="matrix(1,0,0,1,-521.792,-228.624)">
                            <path d="M576.117,279.653C576.118,279.66 576.119,279.668 576.119,279.676C576.119,279.764 576.045,279.838 575.957,279.838C575.949,279.838 575.941,279.837 575.934,279.836L567.083,279.836C567.076,279.837 567.068,279.838 567.06,279.838C566.972,279.838 566.898,279.764 566.898,279.676C566.898,279.668 566.899,279.66 566.9,279.653L566.9,277.883C566.899,277.876 566.898,277.868 566.898,277.86C566.898,277.772 566.972,277.698 567.06,277.698C567.068,277.698 567.076,277.699 567.083,277.7L575.934,277.7C575.941,277.699 575.949,277.698 575.957,277.698C576.045,277.698 576.119,277.772 576.119,277.86C576.119,277.868 576.118,277.876 576.117,277.883L576.117,279.653Z" style="fill:white;fill-rule:nonzero;"/>
                        </g>
                        <g transform="matrix(1,0,0,1,-515.441,-220.715)">
                            <path d="M559.573,257.583C559.573,257.461 559.451,257.4 559.329,257.4C559.268,257.4 559.268,257.4 559.207,257.461L559.146,257.522L550.722,268.2L550.661,268.261C550.614,268.31 550.592,268.377 550.6,268.444L550.6,281.568C550.608,281.665 550.686,281.743 550.783,281.751L559.329,281.751C559.426,281.743 559.504,281.665 559.512,281.568L559.512,257.583C559.573,257.644 559.573,257.644 559.573,257.583M555.973,263.443L556.034,263.382C556.583,262.65 557.56,261.429 558.048,260.882L558.109,260.821C558.158,260.774 558.225,260.752 558.292,260.76C558.414,260.76 558.475,260.821 558.536,260.943L558.536,263.69C558.527,263.82 558.422,263.925 558.292,263.934L556.217,263.934C556.087,263.925 555.982,263.82 555.973,263.69L555.973,263.446M554.69,278.4C554.682,278.497 554.604,278.575 554.507,278.583L551.943,278.583C551.846,278.575 551.768,278.497 551.76,278.4L551.76,276.81C551.768,276.713 551.846,276.635 551.943,276.627L554.507,276.627C554.604,276.635 554.682,276.713 554.69,276.81L554.69,278.4ZM554.69,275.47C554.682,275.567 554.604,275.645 554.507,275.653L551.943,275.653C551.846,275.645 551.768,275.567 551.76,275.47L551.76,273.883C551.768,273.786 551.846,273.708 551.943,273.7L554.507,273.7C554.604,273.708 554.682,273.786 554.69,273.883L554.69,275.47ZM554.69,272.479C554.682,272.576 554.604,272.654 554.507,272.662L551.943,272.662C551.846,272.654 551.768,272.576 551.76,272.479L551.76,270.89C551.768,270.793 551.846,270.715 551.943,270.707L554.507,270.707C554.604,270.715 554.682,270.793 554.69,270.89L554.69,272.479ZM554.69,266.009L554.69,269.549C554.682,269.646 554.604,269.724 554.507,269.732L551.943,269.732C551.846,269.724 551.768,269.646 551.76,269.549L551.76,269C552.065,268.512 553.591,266.742 554.202,265.948L554.263,265.887C554.312,265.84 554.379,265.818 554.446,265.826C554.568,265.826 554.629,265.887 554.69,266.009ZM558.6,278.4C558.592,278.497 558.514,278.575 558.417,278.583L555.853,278.583C555.756,278.575 555.678,278.497 555.67,278.4L555.67,276.81C555.678,276.713 555.756,276.635 555.853,276.627L558.417,276.627C558.514,276.635 558.592,276.713 558.6,276.81L558.6,278.4ZM558.6,275.47C558.592,275.567 558.514,275.645 558.417,275.653L555.853,275.653C555.756,275.645 555.678,275.567 555.67,275.47L555.67,273.883C555.678,273.786 555.756,273.708 555.853,273.7L558.417,273.7C558.514,273.708 558.592,273.786 558.6,273.883L558.6,275.47ZM558.6,272.479C558.592,272.576 558.514,272.654 558.417,272.662L555.853,272.662C555.756,272.654 555.678,272.576 555.67,272.479L555.67,270.89C555.678,270.793 555.756,270.715 555.853,270.707L558.417,270.707C558.514,270.715 558.592,270.793 558.6,270.89L558.6,272.479ZM558.6,269.549C558.592,269.646 558.514,269.724 558.417,269.732L555.853,269.732C555.756,269.724 555.678,269.646 555.67,269.549L555.67,267.96C555.678,267.863 555.756,267.785 555.853,267.777L558.417,267.777C558.514,267.785 558.592,267.863 558.6,267.96L558.6,269.549ZM558.6,266.558C558.592,266.655 558.514,266.733 558.417,266.741L555.853,266.741C555.756,266.733 555.678,266.655 555.67,266.558L555.67,264.971C555.678,264.874 555.756,264.796 555.853,264.788L558.417,264.788C558.514,264.796 558.592,264.874 558.6,264.971L558.6,266.558Z" style="fill:white;fill-rule:nonzero;"/>
                        </g>
                        <g transform="matrix(1,0,0,1,-496.078,-200.923)">
                            <path d="M500.9,209.042L500.9,211.484L502.548,209.775L502.548,220.275L504.867,220.275L504.867,206.6L503.036,206.6L500.9,209.042Z" style="fill:white;fill-rule:nonzero;"/>
                        </g>
                        <g transform="matrix(1,0,0,1,-499.428,-200.923)">
                            <path d="M509.5,209.042L509.5,211.484L511.148,209.775L511.148,220.275L513.467,220.275L513.467,206.6L511.636,206.6L509.5,209.042Z" style="fill:white;fill-rule:nonzero;"/>
                        </g>
                        <g transform="matrix(1,0,0,1,-505.623,-201.43)">
                            <path d="M528.7,207.9L527.6,213.638L526.5,213.638L525.4,207.9L526.438,207.9L527.048,211.929L527.78,207.9L528.7,207.9Z" style="fill:white;fill-rule:nonzero;"/>
                        </g>
                        <g transform="matrix(1,0,0,1,23.439,6.47)">
                            <rect x="0" y="0" width="0.977" height="5.738" style="fill:white;"/>
                        </g>
                        <g transform="matrix(1,0,0,1,-508.935,-201.43)">
                            <path d="M533.9,207.9L534.877,207.9L534.877,212.844L536.037,212.844L536.037,213.638L533.9,213.638L533.9,207.9Z" style="fill:white;fill-rule:nonzero;"/>
                        </g>
                        <g transform="matrix(1,0,0,1,-510.571,-201.43)">
                            <path d="M538.1,207.9L539.077,207.9L539.077,212.844L540.237,212.844L540.237,213.638L538.1,213.638L538.1,207.9Z" style="fill:white;fill-rule:nonzero;"/>
                        </g>
                        <g transform="matrix(1,0,0,1,-512.208,-201.43)">
                            <path d="M542.3,207.9L544.619,207.9L544.619,208.694L543.276,208.694L543.276,210.342L544.253,210.342L544.253,211.136L543.276,211.136L543.276,212.845L544.619,212.845L544.619,213.639L542.3,213.639L542.3,207.9Z" style="fill:white;fill-rule:nonzero;"/>
                        </g>
                        <g transform="matrix(1,0,0,1,-513.961,-201.43)">
                            <path d="M546.8,212.417L546.8,211.623L547.716,211.623L547.716,212.417C547.716,212.722 547.838,212.905 548.204,212.905C548.509,212.905 548.631,212.722 548.631,212.417L548.631,212.234C548.629,211.915 548.469,211.617 548.204,211.44L547.655,210.891C547.164,210.537 546.869,209.97 546.862,209.365L546.862,209.182C546.86,209.152 546.859,209.122 546.859,209.092C546.859,208.433 547.4,207.892 548.059,207.892C548.106,207.892 548.153,207.894 548.2,207.9C549.177,207.9 549.543,208.388 549.543,209.182L549.543,209.67L548.688,209.67L548.688,209.182C548.689,209.168 548.69,209.155 548.69,209.141C548.69,208.895 548.487,208.692 548.241,208.692C548.227,208.692 548.214,208.693 548.2,208.694L548.193,208.694C547.929,208.694 547.712,208.911 547.712,209.175L547.712,209.304C547.712,209.609 547.895,209.792 548.2,210.098L548.81,210.708C549.301,211.062 549.596,211.629 549.603,212.234L549.603,212.539C549.607,212.577 549.608,212.616 549.608,212.654C549.608,213.334 549.049,213.893 548.369,213.893C548.314,213.893 548.258,213.889 548.203,213.882C547.165,213.699 546.803,213.15 546.803,212.417" style="fill:white;fill-rule:nonzero;"/>
                        </g>
                        <g transform="matrix(1,0,0,1,-516.649,-201.43)">
                            <path d="M553.7,207.9L555.958,207.9L555.958,208.694L554.615,208.694L554.615,210.342L555.592,210.342L555.592,211.136L554.615,211.136L554.615,212.845L555.958,212.845L555.958,213.639L553.7,213.639L553.7,207.9Z" style="fill:white;fill-rule:nonzero;"/>
                        </g>
                        <g transform="matrix(1,0,0,1,-518.363,-201.43)">
                            <path d="M558.1,207.9L560.664,207.9L560.664,208.694L559.87,208.694L559.87,213.638L558.893,213.638L558.893,208.694L558.1,208.694L558.1,207.9Z" style="fill:white;fill-rule:nonzero;"/>
                        </g>
                        <g transform="matrix(1,0,0,1,-505.74,-206.261)">
                            <path d="M525.7,224.634L525.7,221.826C525.69,221.761 525.686,221.696 525.686,221.631C525.686,220.897 526.29,220.293 527.024,220.293C527.071,220.293 527.118,220.295 527.165,220.3C528.265,220.3 528.508,220.91 528.508,221.765L528.508,222.436L527.653,222.436L527.653,221.7C527.653,221.334 527.531,221.151 527.165,221.151C526.799,221.151 526.677,221.395 526.677,221.761L526.677,224.874C526.677,225.24 526.799,225.484 527.165,225.484C527.531,225.484 527.653,225.24 527.653,224.935L527.653,223.775L528.508,223.775L528.508,224.752C528.508,225.607 528.142,226.217 527.165,226.217C526.127,226.217 525.7,225.546 525.7,224.63" style="fill:white;fill-rule:nonzero;"/>
                        </g>
                        <g transform="matrix(1,0,0,1,-507.844,-206.261)">
                            <path d="M531.1,224.634L531.1,221.826C531.09,221.761 531.086,221.696 531.086,221.631C531.086,220.897 531.69,220.293 532.424,220.293C532.471,220.293 532.518,220.295 532.565,220.3C532.602,220.297 532.64,220.295 532.677,220.295C533.425,220.295 534.04,220.911 534.04,221.658C534.04,221.714 534.037,221.77 534.03,221.826L534.03,224.634C534.04,224.699 534.044,224.764 534.044,224.829C534.044,225.563 533.44,226.167 532.706,226.167C532.659,226.167 532.612,226.165 532.565,226.16C531.588,226.221 531.1,225.55 531.1,224.634M533.114,224.817L533.114,221.7C533.114,221.334 532.931,221.09 532.626,221.09C532.26,221.09 532.138,221.334 532.138,221.7L532.138,224.813C532.138,225.179 532.321,225.423 532.626,225.423C532.916,225.368 533.124,225.108 533.114,224.813" style="fill:white;fill-rule:nonzero;"/>
                        </g>
                        <g transform="matrix(1,0,0,1,-510.104,-206.3)">
                            <path d="M539.525,222.414L538.853,226.198L538.426,226.198L537.694,222.414L537.694,226.2L536.9,226.2L536.9,220.4L538,220.4L538.61,223.635L539.22,220.4L540.441,220.4L540.441,226.2L539.525,226.2L539.525,222.414Z" style="fill:white;fill-rule:nonzero;"/>
                        </g>
                        <g transform="matrix(1,0,0,1,-512.714,-206.3)">
                            <path d="M546.225,222.414L545.554,226.198L545.127,226.198L544.395,222.414L544.395,226.2L543.6,226.2L543.6,220.4L544.7,220.4L545.371,223.635L545.92,220.4L547.141,220.4L547.141,226.2L546.225,226.2L546.225,222.414Z" style="fill:white;fill-rule:nonzero;"/>
                        </g>
                        <g transform="matrix(1,0,0,1,-515.324,-206.3)">
                            <path d="M553.108,220.4L553.108,224.734C553.108,225.65 552.742,226.199 551.765,226.199C551.704,226.208 551.642,226.212 551.581,226.212C550.871,226.212 550.287,225.628 550.287,224.918C550.287,224.857 550.291,224.795 550.3,224.734L550.3,220.4L551.277,220.4L551.277,224.856C551.277,225.222 551.399,225.405 551.765,225.405C552.131,225.405 552.253,225.161 552.253,224.856L552.253,220.4L553.108,220.4Z" style="fill:white;fill-rule:nonzero;"/>
                        </g>
                        <g transform="matrix(1,0,0,1,-517.467,-206.3)">
                            <path d="M556.593,222.536L556.593,226.2L555.8,226.2L555.8,220.4L556.777,220.4L557.815,223.7L557.815,220.4L558.608,220.4L558.608,226.2L557.754,226.2L556.593,222.536Z" style="fill:white;fill-rule:nonzero;"/>
                        </g>
                        <g transform="matrix(1,0,0,1,-519.532,-206.339)">
                            <path d="M561.1,226.238L562.2,220.5L563.3,220.5L564.4,226.238L563.423,226.238L563.24,225.2L562.2,225.2L562.017,226.238L561.1,226.238ZM562.26,224.407L563.053,224.407L562.687,222.087L562.26,224.407Z" style="fill:white;fill-rule:nonzero;"/>
                        </g>
                        <g transform="matrix(1,0,0,1,-521.792,-206.3)">
                            <path d="M569.708,220.4L569.708,224.734C569.708,225.65 569.342,226.199 568.365,226.199C568.304,226.208 568.242,226.212 568.181,226.212C567.471,226.212 566.887,225.628 566.887,224.918C566.887,224.857 566.891,224.795 566.9,224.734L566.9,220.4L567.877,220.4L567.877,224.856C567.877,225.222 567.999,225.405 568.365,225.405C568.731,225.405 568.853,225.161 568.853,224.856L568.853,220.4L569.708,220.4Z" style="fill:white;fill-rule:nonzero;"/>
                        </g>
                        <g transform="matrix(1,0,0,1,-523.857,-206.3)">
                            <path d="M572.2,220.4L574.764,220.4L574.764,221.194L573.97,221.194L573.97,226.2L572.993,226.2L572.993,221.195L572.2,221.195L572.2,220.4Z" style="fill:white;fill-rule:nonzero;"/>
                        </g>
                        <g transform="matrix(1,0,0,1,-525.805,-205.638)">
                            <path d="M577.2,219.738L579.52,219.738L579.52,220.532L578.177,220.532L578.177,222.18L579.154,222.18L579.154,222.974L578.177,222.974L578.177,224.744L579.52,224.744L579.52,225.538L577.2,225.538L577.2,219.738ZM579.214,219.372L577.688,219.555L577.688,219.006L579.214,218.701L579.214,219.372Z" style="fill:white;fill-rule:nonzero;"/>
                        </g>
                        <g transform="matrix(1,0,0,1,-527.558,-206.261)">
                            <path d="M581.7,224.878L581.7,224.084L582.616,224.084L582.616,224.878C582.616,225.183 582.738,225.366 583.104,225.366C583.409,225.366 583.531,225.183 583.531,224.878L583.531,224.634C583.529,224.315 583.369,224.017 583.104,223.84L582.555,223.291C582.064,222.937 581.768,222.37 581.761,221.765L581.761,221.582C581.759,221.552 581.758,221.522 581.758,221.492C581.758,220.833 582.299,220.292 582.958,220.292C583.005,220.292 583.053,220.294 583.1,220.3C584.077,220.3 584.443,220.788 584.443,221.582L584.443,222.07L583.588,222.07L583.588,221.582C583.589,221.568 583.59,221.555 583.59,221.541C583.59,221.295 583.387,221.092 583.141,221.092C583.127,221.092 583.114,221.093 583.1,221.094L583.093,221.094C582.829,221.094 582.612,221.311 582.612,221.575L582.612,221.704C582.612,222.009 582.795,222.192 583.1,222.498L583.71,223.108C584.201,223.462 584.496,224.029 584.503,224.634L584.503,224.939C584.507,224.977 584.508,225.016 584.508,225.054C584.508,225.734 583.949,226.293 583.269,226.293C583.214,226.293 583.158,226.289 583.103,226.282C582.065,226.221 581.703,225.672 581.703,224.882" style="fill:white;fill-rule:nonzero;"/>
                        </g>
                        <g transform="matrix(1,0,0,1,-505.74,-211.209)">
                            <path d="M528.569,234.526L528.569,237.212C528.569,238.067 528.203,238.738 527.169,238.738L525.7,238.738L525.7,233L527.165,233C528.203,233 528.565,233.61 528.565,234.526M527.039,237.944C527.466,237.944 527.588,237.7 527.588,237.334L527.588,234.343C527.591,234.321 527.593,234.298 527.593,234.275C527.593,234.009 527.373,233.789 527.107,233.789C527.084,233.789 527.061,233.791 527.039,233.794L526.612,233.794L526.612,237.945L527.039,237.945L527.039,237.944Z" style="fill:white;fill-rule:nonzero;"/>
                        </g>
                        <g transform="matrix(1,0,0,1,-507.922,-211.209)">
                            <path d="M534.108,233L534.108,237.334C534.108,238.25 533.742,238.799 532.765,238.799C532.704,238.808 532.642,238.812 532.581,238.812C531.871,238.812 531.287,238.228 531.287,237.518C531.287,237.457 531.291,237.395 531.3,237.334L531.3,233L532.277,233L532.277,237.456C532.277,237.822 532.399,238.005 532.765,238.005C533.131,238.005 533.253,237.761 533.253,237.456L533.253,233L534.108,233Z" style="fill:white;fill-rule:nonzero;"/>
                        </g>
                        <g transform="matrix(1,0,0,1,-510.065,-211.209)">
                            <path d="M537.777,236.113L537.777,238.738L536.8,238.738L536.8,233L538.2,233C539.177,233 539.543,233.488 539.543,234.282L539.543,235.014C539.619,235.532 539.265,236.023 538.75,236.114L539.666,238.739L538.628,238.739L537.777,236.113ZM537.777,233.732L537.777,235.502L538.082,235.502C538.096,235.503 538.109,235.504 538.123,235.504C538.369,235.504 538.572,235.301 538.572,235.055C538.572,235.041 538.571,235.028 538.57,235.014L538.57,234.22C538.57,233.915 538.448,233.732 538.082,233.732L537.777,233.732Z" style="fill:white;fill-rule:nonzero;"/>
                        </g>
                        <g transform="matrix(1,0,0,1,-512.052,-211.209)">
                            <path d="M541.9,238.738L543,233L544.1,233L545.2,238.738L544.223,238.738L544.04,237.7L543,237.7L542.817,238.738L541.9,238.738ZM543.121,236.907L543.915,236.907L543.549,234.587L543.121,236.907Z" style="fill:white;fill-rule:nonzero;"/>
                        </g>
                        <g transform="matrix(1,0,0,1,-514.428,-211.209)">
                            <path d="M548,233L549.4,233C550.377,233 550.682,233.427 550.682,234.282L550.682,234.892C550.739,235.287 550.509,235.672 550.133,235.808C550.595,235.888 550.918,236.319 550.865,236.785L550.865,237.579C550.865,238.373 550.499,238.861 549.522,238.861L548,238.861L548,233ZM548.977,235.381L549.343,235.381C549.357,235.382 549.37,235.383 549.384,235.383C549.63,235.383 549.833,235.18 549.833,234.934C549.833,234.92 549.832,234.907 549.831,234.893L549.831,234.222C549.831,233.917 549.709,233.734 549.343,233.734L549.038,233.734L549.038,235.382L548.977,235.381ZM548.977,236.052L548.977,237.883L549.404,237.883C549.418,237.884 549.431,237.885 549.445,237.885C549.691,237.885 549.894,237.682 549.894,237.436C549.894,237.422 549.893,237.409 549.892,237.395L549.892,236.54C549.892,236.235 549.77,236.052 549.404,236.052L548.977,236.052Z" style="fill:white;fill-rule:nonzero;"/>
                        </g>
                        <g transform="matrix(1,0,0,1,-516.532,-211.209)">
                            <path d="M553.4,233L554.377,233L554.377,237.944L555.537,237.944L555.537,238.738L553.4,238.738L553.4,233Z" style="fill:white;fill-rule:nonzero;"/>
                        </g>
                        <g transform="matrix(1,0,0,1,-518.169,-211.209)">
                            <path d="M557.6,233L559.92,233L559.92,233.732L558.577,233.732L558.577,235.38L559.554,235.38L559.554,236.174L558.577,236.174L558.577,237.944L559.92,237.944L559.92,238.738L557.6,238.738L557.6,233Z" style="fill:white;fill-rule:nonzero;"/>
                        </g>
                        <g transform="matrix(1,0,0,1,-519.922,-211.17)">
                            <path d="M562.1,237.478L562.1,236.685L563.016,236.685L563.016,237.478C563.016,237.783 563.138,237.966 563.504,237.966C563.809,237.966 563.931,237.783 563.931,237.478L563.931,237.234C563.929,236.915 563.769,236.617 563.504,236.44L562.955,235.891C562.464,235.537 562.169,234.97 562.162,234.365L562.162,234.182C562.16,234.152 562.159,234.122 562.159,234.092C562.159,233.433 562.7,232.892 563.359,232.892C563.406,232.892 563.453,232.894 563.5,232.9C564.477,232.9 564.843,233.388 564.843,234.182L564.843,234.67L563.988,234.67L563.988,234.182C563.989,234.168 563.99,234.155 563.99,234.141C563.99,233.895 563.787,233.692 563.541,233.692C563.527,233.692 563.514,233.693 563.5,233.694L563.493,233.694C563.229,233.694 563.012,233.911 563.012,234.175L563.012,234.304C563.012,234.609 563.195,234.792 563.5,235.098L564.11,235.708C564.659,236.257 564.904,236.563 564.904,237.173L564.904,237.478C564.908,237.516 564.909,237.555 564.909,237.593C564.909,238.273 564.35,238.832 563.67,238.832C563.615,238.832 563.559,238.828 563.504,238.821C562.466,238.76 562.104,238.211 562.104,237.478" style="fill:white;fill-rule:nonzero;"/>
                        </g>
                    </g>
                </g>
            </g>
        </g>
    </g>
</svg>
