<?xml version="1.0" encoding="UTF-8" standalone="no"?>
<!DOCTYPE svg PUBLIC "-//W3C//DTD SVG 1.1//EN" "http://www.w3.org/Graphics/SVG/1.1/DTD/svg11.dtd">
<svg width="100%" height="100%" viewBox="0 0 68 68" version="1.1" xmlns="http://www.w3.org/2000/svg" xmlns:xlink="http://www.w3.org/1999/xlink" xml:space="preserve" xmlns:serif="http://www.serif.com/" style="fill-rule:evenodd;clip-rule:evenodd;stroke-linejoin:round;stroke-miterlimit:2;">
    <g id="Plan-de-travail1" serif:id="Plan de travail1" transform="matrix(0.985507,0,0,0.985507,0,0)">
        <rect x="0" y="0" width="69" height="69" style="fill:none;"/>
        <clipPath id="_clip1">
            <rect x="0" y="0" width="69" height="69"/>
        </clipPath>
        <g clip-path="url(#_clip1)">
            <g transform="matrix(1.01471,0,0,1.01656,0,0)">
                <g id="ODD17">
                    <rect x="0" y="0" width="68" height="67.876" style="fill:none;"/>
                    <g id="odd17-carre" transform="matrix(1,0,0,0.998176,0.062,0.0618869)">
                        <rect x="0" y="0" width="67.876" height="67.876" style="fill:rgb(26,54,104);"/>
                        <g transform="matrix(1,0,0,1,-507.043,-343.135)">
                            <path d="M553.616,392.882C553.623,389.455 550.876,386.599 547.451,386.473C546.547,383.919 544.117,382.201 541.408,382.201C538.699,382.201 536.269,383.919 535.365,386.473C531.94,386.599 529.193,389.455 529.2,392.882C529.211,394.851 530.109,396.713 531.642,397.948C531.467,398.521 531.385,399.119 531.398,399.718L531.398,399.719C531.398,403.234 534.291,406.127 537.806,406.127L537.807,406.127C539.088,406.118 540.339,405.735 541.407,405.027C542.456,405.727 543.686,406.109 544.947,406.127L544.948,406.127C548.463,406.127 551.356,403.234 551.356,399.719L551.356,399.718C551.365,399.119 551.283,398.522 551.112,397.948C552.682,396.737 553.606,394.865 553.612,392.882M546.531,388.609C546.531,391.124 544.681,393.286 542.197,393.675C542.144,393.414 542.123,393.147 542.136,392.881C542.136,390.366 543.986,388.204 546.47,387.815C546.47,388.12 546.531,388.364 546.531,388.609M541.404,403.319C540.428,402.363 539.878,401.053 539.878,399.687C539.878,398.321 540.428,397.011 541.404,396.055C542.38,397.011 542.93,398.321 542.93,399.687C542.93,401.053 542.38,402.363 541.404,403.319M536.338,387.819C538.822,388.208 540.672,390.37 540.672,392.885C540.682,393.151 540.662,393.417 540.611,393.678C538.127,393.289 536.277,391.127 536.277,388.612C536.277,388.368 536.338,388.124 536.338,387.818M540.183,395.204C539.305,396.921 537.534,398.007 535.605,398.012C534.798,398.026 534,397.837 533.285,397.463C534.163,395.746 535.934,394.66 537.863,394.655C538.672,394.625 539.473,394.815 540.183,395.204M542.625,395.143C543.36,394.756 544.176,394.547 545.006,394.533C546.952,394.536 548.733,395.652 549.584,397.402C548.849,397.789 548.033,397.998 547.203,398.012C545.257,398.009 543.476,396.893 542.625,395.143M541.404,383.484C543.428,383.498 545.268,384.693 546.104,386.536C544.051,386.91 542.299,388.251 541.404,390.136C540.509,388.251 538.757,386.91 536.704,386.536C537.54,384.693 539.38,383.498 541.404,383.484M530.478,392.884C530.482,390.285 532.471,388.084 535.056,387.818C535.005,388.079 534.985,388.346 534.995,388.612C534.983,390.402 535.739,392.115 537.07,393.312C535.004,393.552 533.18,394.785 532.187,396.612C531.09,395.689 530.463,394.322 530.478,392.889M532.736,399.725C532.743,399.376 532.784,399.028 532.858,398.687C533.732,399.111 534.695,399.32 535.666,399.297C536.752,399.288 537.821,399.016 538.779,398.504C538.708,398.887 538.667,399.275 538.657,399.664C538.65,401.333 539.31,402.938 540.488,404.12C539.706,404.562 538.822,404.794 537.924,404.791C537.876,404.792 537.828,404.793 537.78,404.793C535.013,404.793 532.736,402.516 532.736,399.749L532.736,399.725M550.136,399.664C550.119,402.47 547.815,404.774 545.009,404.791C544.131,404.793 543.268,404.562 542.509,404.12C543.644,402.939 544.279,401.363 544.279,399.725C544.272,399.315 544.231,398.907 544.157,398.504C545.113,399.023 546.183,399.295 547.27,399.297C548.245,399.292 549.206,399.063 550.078,398.626C550.078,398.992 550.139,399.297 550.139,399.664M545.744,393.316C547.065,392.111 547.819,390.404 547.819,388.616C547.832,388.35 547.811,388.083 547.758,387.822C550.343,388.088 552.332,390.289 552.336,392.888C552.339,394.336 551.715,395.717 550.627,396.672C549.671,394.803 547.832,393.538 545.744,393.315" style="fill:white;fill-rule:nonzero;"/>
                        </g>
                        <g transform="matrix(1,0,0,1,-496.874,-321.823)">
                            <path d="M507.068,327.5L507.068,341.173L504.748,341.173L504.748,330.735L503.1,332.383L503.1,330L505.236,327.5L507.068,327.5Z" style="fill:white;fill-rule:nonzero;"/>
                        </g>
                        <g transform="matrix(1,0,0,1,-500.069,-321.823)">
                            <path d="M511.3,327.5L517.1,327.5L517.1,329.636L514.048,341.172L511.79,341.172L514.842,329.391L511.3,329.391L511.3,327.5Z" style="fill:white;fill-rule:nonzero;"/>
                        </g>
                        <g transform="matrix(1,0,0,1,-507.354,-321.862)">
                            <path d="M530,327.6L531.465,327.6C532.442,327.6 532.808,328.088 532.808,328.882L532.808,330.1C532.808,330.894 532.442,331.382 531.465,331.382L530.977,331.382L530.977,333.335L530,333.335L530,327.6ZM530.977,328.332L530.977,330.651L531.343,330.651C531.357,330.652 531.37,330.653 531.384,330.653C531.63,330.653 531.833,330.45 531.833,330.204C531.833,330.19 531.832,330.177 531.831,330.163L531.831,328.82C531.831,328.515 531.709,328.332 531.343,328.332L530.977,328.332Z" style="fill:white;fill-rule:nonzero;"/>
                        </g>
                        <g transform="matrix(1,0,0,1,-509.146,-321.862)">
                            <path d="M534.6,333.338L535.7,327.6L536.8,327.6L537.9,333.338L536.923,333.338L536.74,332.3L535.7,332.3L535.517,333.338L534.6,333.338ZM535.821,331.568L536.615,331.568L536.249,329.249L535.821,331.568Z" style="fill:white;fill-rule:nonzero;"/>
                        </g>
                        <g transform="matrix(1,0,0,1,-511.484,-321.862)">
                            <path d="M541.577,330.713L541.577,333.338L540.6,333.338L540.6,327.6L542,327.6C542.977,327.6 543.343,328.088 543.343,328.882L543.343,329.614C543.419,330.132 543.065,330.623 542.549,330.714L543.465,333.339L542.427,333.339L541.577,330.713ZM541.577,328.332L541.577,330.163L541.882,330.163C541.896,330.164 541.909,330.165 541.923,330.165C542.169,330.165 542.372,329.962 542.372,329.716C542.372,329.702 542.371,329.689 542.37,329.675L542.37,328.82C542.37,328.515 542.248,328.332 541.882,328.332L541.577,328.332Z" style="fill:white;fill-rule:nonzero;"/>
                        </g>
                        <g transform="matrix(1,0,0,1,-513.432,-321.862)">
                            <path d="M545.6,327.6L548.225,327.6L548.225,328.393L547.431,328.393L547.431,333.337L546.454,333.337L546.454,328.393L545.6,328.393L545.6,327.6Z" style="fill:white;fill-rule:nonzero;"/>
                        </g>
                        <g transform="matrix(1,0,0,1,-515.38,-321.862)">
                            <path d="M550.6,327.6L552.92,327.6L552.92,328.393L551.577,328.393L551.577,330.041L552.554,330.041L552.554,330.835L551.577,330.835L551.577,332.605L552.92,332.605L552.92,333.337L550.6,333.337L550.6,327.6Z" style="fill:white;fill-rule:nonzero;"/>
                        </g>
                        <g transform="matrix(1,0,0,1,-517.172,-321.862)">
                            <path d="M556.055,329.736L556.055,333.336L555.2,333.336L555.2,327.6L556.177,327.6L557.215,330.9L557.215,327.6L558.008,327.6L558.008,333.338L557.154,333.338L556.055,329.736Z" style="fill:white;fill-rule:nonzero;"/>
                        </g>
                        <g transform="matrix(1,0,0,1,-519.237,-321.862)">
                            <path d="M560.5,333.338L561.6,327.6L562.7,327.6L563.8,333.338L562.823,333.338L562.64,332.3L561.6,332.3L561.417,333.338L560.5,333.338ZM561.721,331.568L562.515,331.568L562.149,329.249L561.721,331.568Z" style="fill:white;fill-rule:nonzero;"/>
                        </g>
                        <g transform="matrix(1,0,0,1,-521.575,-321.862)">
                            <path d="M567.477,330.713L567.477,333.338L566.5,333.338L566.5,327.6L567.9,327.6C568.877,327.6 569.243,328.088 569.243,328.882L569.243,329.614C569.319,330.132 568.965,330.623 568.449,330.714L569.365,333.339L568.327,333.339L567.477,330.713ZM567.477,328.332L567.477,330.163L567.782,330.163C567.796,330.164 567.809,330.165 567.823,330.165C568.069,330.165 568.272,329.962 568.272,329.716C568.272,329.702 568.271,329.689 568.27,329.675L568.27,328.82C568.27,328.515 568.148,328.332 567.782,328.332L567.477,328.332Z" style="fill:white;fill-rule:nonzero;"/>
                        </g>
                        <g transform="matrix(1,0,0,1,48.221,5.738)">
                            <rect x="0" y="0" width="0.977" height="5.738" style="fill:white;"/>
                        </g>
                        <g transform="matrix(1,0,0,1,-524.536,-321.862)">
                            <path d="M574.1,333.338L575.2,327.6L576.3,327.6L577.4,333.338L576.423,333.338L576.24,332.3L575.2,332.3L575.017,333.338L574.1,333.338ZM575.321,331.568L576.115,331.568L575.749,329.249L575.321,331.568Z" style="fill:white;fill-rule:nonzero;"/>
                        </g>
                        <g transform="matrix(1,0,0,1,-526.562,-321.862)">
                            <path d="M579.3,327.6L581.864,327.6L581.864,328.393L581.07,328.393L581.07,333.337L580.093,333.337L580.093,328.393L579.3,328.393L579.3,327.6Z" style="fill:white;fill-rule:nonzero;"/>
                        </g>
                        <g transform="matrix(1,0,0,1,-528.393,-321.823)">
                            <path d="M584,332.078L584,331.285L584.916,331.285L584.916,332.078C584.916,332.383 585.038,332.566 585.404,332.566C585.709,332.566 585.831,332.383 585.831,332.078L585.831,331.834C585.829,331.515 585.669,331.217 585.404,331.04L584.855,330.491C584.364,330.137 584.069,329.57 584.062,328.965L584.062,328.782C584.06,328.752 584.059,328.722 584.059,328.692C584.059,328.033 584.6,327.492 585.259,327.492C585.306,327.492 585.353,327.494 585.4,327.5C586.377,327.5 586.743,327.988 586.743,328.782L586.743,329.27L585.827,329.27L585.827,328.782C585.828,328.768 585.829,328.755 585.829,328.741C585.829,328.495 585.626,328.292 585.38,328.292C585.366,328.292 585.353,328.293 585.339,328.294L585.332,328.294C585.068,328.294 584.851,328.511 584.851,328.775L584.851,328.904C584.851,329.209 585.034,329.392 585.339,329.697L585.949,330.307C586.44,330.661 586.736,331.228 586.743,331.833L586.743,332.138C586.747,332.176 586.748,332.215 586.748,332.253C586.748,332.933 586.189,333.492 585.509,333.492C585.454,333.492 585.398,333.488 585.343,333.481C585.327,333.482 585.312,333.482 585.296,333.482C584.583,333.482 583.996,332.895 583.996,332.182C583.996,332.148 583.997,332.115 584,332.081" style="fill:white;fill-rule:nonzero;"/>
                        </g>
                        <g transform="matrix(1,0,0,1,-507.354,-326.732)">
                            <path d="M530,340.1L531.465,340.1C532.442,340.1 532.808,340.588 532.808,341.382L532.808,342.6C532.808,343.394 532.442,343.882 531.465,343.882L530.977,343.882L530.977,345.835L530,345.835L530,340.1ZM530.977,340.833L530.977,343.152L531.343,343.152C531.357,343.153 531.37,343.154 531.384,343.154C531.63,343.154 531.833,342.951 531.833,342.705C531.833,342.691 531.832,342.678 531.831,342.664L531.831,341.321C531.831,341.016 531.709,340.833 531.343,340.833L530.977,340.833Z" style="fill:white;fill-rule:nonzero;"/>
                        </g>
                        <g transform="matrix(1,0,0,1,-509.458,-326.693)">
                            <path d="M535.4,344.334L535.4,341.526C535.39,341.461 535.386,341.396 535.386,341.331C535.386,340.597 535.99,339.993 536.724,339.993C536.771,339.993 536.818,339.995 536.865,340C536.902,339.997 536.94,339.995 536.977,339.995C537.725,339.995 538.34,340.611 538.34,341.358C538.34,341.414 538.337,341.47 538.33,341.526L538.33,344.334C538.34,344.399 538.344,344.464 538.344,344.529C538.344,345.263 537.74,345.867 537.006,345.867C536.959,345.867 536.912,345.865 536.865,345.86C535.827,345.921 535.4,345.25 535.4,344.334M537.353,344.517L537.353,341.4C537.353,341.034 537.17,340.79 536.865,340.79C536.499,340.79 536.377,341.034 536.377,341.4L536.377,344.513C536.377,344.879 536.56,345.123 536.865,345.123C537.17,345.123 537.353,344.879 537.353,344.513" style="fill:white;fill-rule:nonzero;"/>
                        </g>
                        <g transform="matrix(1,0,0,1,-511.679,-326.732)">
                            <path d="M543.908,340.1L543.908,344.434C543.908,345.35 543.542,345.899 542.565,345.899C542.504,345.908 542.442,345.912 542.381,345.912C541.671,345.912 541.087,345.328 541.087,344.618C541.087,344.557 541.091,344.495 541.1,344.434L541.1,340.1L542.077,340.1L542.077,344.556C542.077,344.922 542.199,345.105 542.565,345.105C542.931,345.105 543.053,344.861 543.053,344.556L543.053,340.1L543.908,340.1Z" style="fill:white;fill-rule:nonzero;"/>
                        </g>
                        <g transform="matrix(1,0,0,1,-513.822,-326.771)">
                            <path d="M547.577,343.313L547.577,345.938L546.6,345.938L546.6,340.2L548,340.2C548.977,340.2 549.343,340.688 549.343,341.482L549.343,342.214C549.419,342.732 549.065,343.223 548.549,343.314L549.465,345.939L548.427,345.939L547.577,343.313ZM547.577,340.871L547.577,342.702L547.882,342.702C547.896,342.703 547.909,342.704 547.923,342.704C548.169,342.704 548.372,342.501 548.372,342.255C548.372,342.241 548.371,342.228 548.37,342.214L548.37,341.359C548.37,341.054 548.248,340.871 547.882,340.871L547.577,340.871Z" style="fill:white;fill-rule:nonzero;"/>
                        </g>
                        <g transform="matrix(1,0,0,1,-507.354,-331.641)">
                            <path d="M530,352.7L530.977,352.7L530.977,357.644L532.137,357.644L532.137,358.438L530,358.438L530,352.7Z" style="fill:white;fill-rule:nonzero;"/>
                        </g>
                        <g transform="matrix(1,0,0,1,-508.913,-331.641)">
                            <path d="M534,358.438L535.1,352.7L536.2,352.7L537.3,358.438L536.323,358.438L536.14,357.4L535.1,357.4L534.917,358.438L534,358.438ZM535.221,356.607L536.015,356.607L535.649,354.287L535.221,356.607Z" style="fill:white;fill-rule:nonzero;"/>
                        </g>
                        <g transform="matrix(1,0,0,1,-511.835,-331.641)">
                            <path d="M542.477,355.813L542.477,358.438L541.5,358.438L541.5,352.7L542.9,352.7C543.877,352.7 544.243,353.188 544.243,353.982L544.243,354.714C544.319,355.232 543.965,355.723 543.449,355.814L544.365,358.439L543.327,358.439L542.477,355.813ZM542.477,353.432L542.477,355.263L542.782,355.263C542.796,355.264 542.809,355.265 542.823,355.265C543.069,355.265 543.272,355.062 543.272,354.816C543.272,354.802 543.271,354.789 543.27,354.775L543.27,353.92C543.27,353.615 543.148,353.432 542.782,353.432L542.477,353.432Z" style="fill:white;fill-rule:nonzero;"/>
                        </g>
                        <g transform="matrix(1,0,0,1,-513.9,-330.94)">
                            <path d="M546.8,352L549.12,352L549.12,352.794L547.777,352.794L547.777,354.442L548.754,354.442L548.754,355.235L547.777,355.235L547.777,357L549.12,357L549.12,357.794L546.8,357.794L546.8,352ZM548.814,351.573L547.288,351.756L547.288,351.207L548.814,350.902L548.814,351.573Z" style="fill:white;fill-rule:nonzero;"/>
                        </g>
                        <g transform="matrix(1,0,0,1,-515.614,-331.641)">
                            <path d="M551.2,358.438L552.3,352.7L553.4,352.7L554.5,358.438L553.523,358.438L553.34,357.4L552.3,357.4L552.117,358.438L551.2,358.438ZM552.421,356.607L553.215,356.607L552.849,354.287L552.421,356.607Z" style="fill:white;fill-rule:nonzero;"/>
                        </g>
                        <g transform="matrix(1,0,0,1,-517.991,-331.641)">
                            <path d="M557.3,352.7L558.216,352.7L558.216,357.644L559.376,357.644L559.376,358.438L557.3,358.438L557.3,352.7Z" style="fill:white;fill-rule:nonzero;"/>
                        </g>
                        <g transform="matrix(1,0,0,1,41.873,21.059)">
                            <rect x="0" y="0" width="0.977" height="5.738" style="fill:white;"/>
                        </g>
                        <g transform="matrix(1,0,0,1,-520.562,-331.602)">
                            <path d="M563.9,357.178L563.9,356.385L564.816,356.385L564.816,357.178C564.816,357.483 564.938,357.666 565.304,357.666C565.609,357.666 565.731,357.483 565.731,357.178L565.731,356.934C565.729,356.615 565.569,356.318 565.304,356.141L564.755,355.592C564.264,355.238 563.969,354.671 563.962,354.066L563.962,353.883C563.96,353.853 563.959,353.822 563.959,353.792C563.959,353.133 564.5,352.592 565.159,352.592C565.206,352.592 565.253,352.594 565.3,352.6C566.277,352.6 566.643,353.088 566.643,353.882L566.643,354.37L565.788,354.37L565.788,353.882C565.789,353.868 565.79,353.855 565.79,353.841C565.79,353.595 565.587,353.392 565.341,353.392C565.327,353.392 565.314,353.393 565.3,353.394L565.293,353.394C565.029,353.394 564.812,353.611 564.812,353.875L564.812,354C564.812,354.305 564.995,354.488 565.3,354.793L565.91,355.403C566.401,355.757 566.697,356.324 566.704,356.929L566.704,357.234C566.708,357.272 566.709,357.311 566.709,357.349C566.709,358.029 566.15,358.588 565.47,358.588C565.415,358.588 565.359,358.584 565.304,358.577C564.266,358.455 563.904,357.905 563.904,357.177" style="fill:white;fill-rule:nonzero;"/>
                        </g>
                        <g transform="matrix(1,0,0,1,-522.51,-331.641)">
                            <path d="M568.9,358.438L570,352.7L571.1,352.7L572.2,358.438L571.223,358.438L571.04,357.4L570,357.4L569.817,358.438L568.9,358.438ZM570.121,356.607L570.914,356.607L570.548,354.287L570.121,356.607Z" style="fill:white;fill-rule:nonzero;"/>
                        </g>
                        <g transform="matrix(1,0,0,1,-524.497,-331.641)">
                            <path d="M574,352.7L576.625,352.7L576.625,353.493L575.831,353.493L575.831,358.437L574.854,358.437L574.854,353.493L574,353.493L574,352.7Z" style="fill:white;fill-rule:nonzero;"/>
                        </g>
                        <g transform="matrix(1,0,0,1,52.555,21.059)">
                            <rect x="0" y="0" width="0.977" height="5.738" style="fill:white;"/>
                        </g>
                        <g transform="matrix(1,0,0,1,-527.419,-331.603)">
                            <path d="M581.5,356.934L581.5,354.126C581.49,354.061 581.486,353.996 581.486,353.931C581.486,353.197 582.09,352.593 582.824,352.593C582.871,352.593 582.918,352.595 582.965,352.6C583.002,352.597 583.04,352.595 583.077,352.595C583.825,352.595 584.44,353.211 584.44,353.958C584.44,354.014 584.437,354.07 584.43,354.126L584.43,356.934C584.44,356.999 584.444,357.064 584.444,357.129C584.444,357.863 583.84,358.467 583.106,358.467C583.059,358.467 583.012,358.465 582.965,358.46C582.928,358.463 582.89,358.465 582.853,358.465C582.105,358.465 581.49,357.849 581.49,357.102C581.49,357.046 581.493,356.99 581.5,356.934M583.453,357.056L583.453,353.943C583.453,353.577 583.27,353.333 582.965,353.333C582.599,353.333 582.477,353.577 582.477,353.943L582.477,357.056C582.477,357.422 582.66,357.666 582.965,357.666C583.331,357.666 583.453,357.422 583.453,357.056" style="fill:white;fill-rule:nonzero;"/>
                        </g>
                        <g transform="matrix(1,0,0,1,-529.64,-331.641)">
                            <path d="M588.055,354.836L588.055,358.436L587.2,358.436L587.2,352.7L588.177,352.7L589.215,356L589.215,352.7L590.009,352.7L590.009,358.438L589.154,358.438L588.055,354.836Z" style="fill:white;fill-rule:nonzero;"/>
                        </g>
                        <g transform="matrix(1,0,0,1,-507.354,-336.511)">
                            <path d="M532.93,366.726L532.93,369.412C532.93,370.266 532.564,370.938 531.53,370.938L530,370.938L530,365.2L531.465,365.2C531.513,365.195 531.561,365.192 531.61,365.192C532.342,365.192 532.945,365.795 532.945,366.527C532.945,366.594 532.94,366.66 532.93,366.726M531.404,370.144C531.831,370.144 531.953,369.9 531.953,369.534L531.953,366.543C531.956,366.521 531.958,366.498 531.958,366.475C531.958,366.209 531.738,365.989 531.472,365.989C531.449,365.989 531.426,365.991 531.404,365.994L530.977,365.994L530.977,370.145L531.404,370.144Z" style="fill:white;fill-rule:nonzero;"/>
                        </g>
                        <g transform="matrix(1,0,0,1,-509.575,-336.511)">
                            <path d="M535.7,365.2L538.019,365.2L538.019,365.994L536.676,365.994L536.676,367.642L537.592,367.642L537.592,368.435L536.676,368.435L536.676,370.144L538.019,370.144L538.019,370.938L535.7,370.938L535.7,365.2Z" style="fill:white;fill-rule:nonzero;"/>
                        </g>
                        <g transform="matrix(1,0,0,1,-511.328,-336.473)">
                            <path d="M540.2,369.678L540.2,368.884L541.116,368.884L541.116,369.678C541.116,369.983 541.238,370.166 541.604,370.166C541.909,370.166 542.031,369.983 542.031,369.678L542.031,369.434C542.029,369.115 541.869,368.818 541.604,368.641L541.055,368.092C540.564,367.738 540.269,367.171 540.262,366.566L540.262,366.383C540.26,366.353 540.259,366.322 540.259,366.292C540.259,365.633 540.8,365.092 541.459,365.092C541.506,365.092 541.553,365.094 541.6,365.1C542.577,365.1 542.943,365.588 542.943,366.382L542.943,366.87L542.088,366.87L542.088,366.382C542.089,366.368 542.09,366.355 542.09,366.341C542.09,366.095 541.887,365.892 541.641,365.892C541.627,365.892 541.614,365.893 541.6,365.894L541.593,365.894C541.329,365.894 541.112,366.111 541.112,366.375L541.112,366.504C541.112,366.809 541.295,366.992 541.6,367.297L542.21,367.907C542.701,368.261 542.997,368.828 543.004,369.433L543.004,369.738C543.008,369.776 543.009,369.814 543.009,369.852C543.009,370.532 542.45,371.092 541.769,371.092C541.714,371.092 541.659,371.088 541.604,371.081C540.566,370.959 540.204,370.41 540.204,369.681" style="fill:white;fill-rule:nonzero;"/>
                        </g>
                        <g transform="matrix(1,0,0,1,-513.978,-336.473)">
                            <path d="M547,369.434L547,366.626C546.99,366.561 546.986,366.496 546.986,366.431C546.986,365.697 547.59,365.093 548.324,365.093C548.371,365.093 548.418,365.095 548.465,365.1C548.502,365.097 548.54,365.095 548.577,365.095C549.325,365.095 549.94,365.711 549.94,366.458C549.94,366.514 549.937,366.57 549.93,366.626L549.93,369.434C549.931,369.452 549.931,369.47 549.931,369.488C549.931,370.292 549.269,370.954 548.465,370.954C547.661,370.954 546.999,370.292 546.999,369.488C546.999,369.47 546.999,369.452 547,369.434M548.953,369.617L548.953,366.5C548.953,366.134 548.77,365.89 548.465,365.89C548.099,365.89 547.977,366.134 547.977,366.5L547.977,369.613C547.977,369.979 548.16,370.223 548.465,370.223C548.743,370.195 548.957,369.959 548.957,369.68C548.957,369.657 548.956,369.635 548.953,369.613" style="fill:white;fill-rule:nonzero;"/>
                        </g>
                        <g transform="matrix(1,0,0,1,-516.198,-336.511)">
                            <path d="M552.7,365.2L554.1,365.2C555.077,365.2 555.382,365.627 555.382,366.482L555.382,367.092C555.439,367.487 555.209,367.872 554.833,368.008C555.295,368.088 555.618,368.519 555.565,368.985L555.565,369.779C555.565,370.572 555.199,371.061 554.222,371.061L552.7,371.061L552.7,365.2ZM553.677,367.642L554.043,367.642C554.057,367.643 554.07,367.644 554.084,367.644C554.33,367.644 554.533,367.441 554.533,367.195C554.533,367.181 554.532,367.168 554.531,367.154L554.531,366.422C554.531,366.117 554.409,365.934 554.043,365.934L553.738,365.934L553.738,367.643L553.677,367.642ZM553.677,368.374L553.677,370.205L554.104,370.205C554.118,370.206 554.131,370.207 554.145,370.207C554.391,370.207 554.594,370.004 554.594,369.758C554.594,369.744 554.593,369.731 554.592,369.717L554.592,368.862C554.592,368.557 554.47,368.374 554.104,368.374L553.677,368.374Z" style="fill:white;fill-rule:nonzero;"/>
                        </g>
                        <g transform="matrix(1,0,0,1,-518.302,-336.511)">
                            <path d="M560.725,365.2L560.725,369.656C560.725,370.511 560.359,371.056 559.382,371.056C559.328,371.064 559.273,371.068 559.218,371.068C558.598,371.068 558.088,370.558 558.088,369.938C558.088,369.883 558.092,369.828 558.1,369.774L558.1,368.614L559.016,368.614L559.016,369.774C559.016,370.079 559.138,370.262 559.382,370.262C559.626,370.262 559.748,370.079 559.748,369.774L559.748,365.2L560.725,365.2Z" style="fill:white;fill-rule:nonzero;"/>
                        </g>
                        <g transform="matrix(1,0,0,1,-520.328,-336.511)">
                            <path d="M563.3,365.2L565.559,365.2L565.559,365.994L564.216,365.994L564.216,367.642L565.193,367.642L565.193,368.435L564.216,368.435L564.216,370.144L565.559,370.144L565.559,370.938L563.3,370.938L563.3,365.2Z" style="fill:white;fill-rule:nonzero;"/>
                        </g>
                        <g transform="matrix(1,0,0,1,-522.081,-336.473)">
                            <path d="M567.8,369.434L567.8,366.626C567.79,366.561 567.786,366.496 567.786,366.431C567.786,365.697 568.39,365.093 569.124,365.093C569.171,365.093 569.218,365.095 569.265,365.1C570.365,365.1 570.608,365.71 570.608,366.565L570.608,367.236L569.753,367.236L569.753,366.5C569.753,366.134 569.631,365.951 569.265,365.951C568.899,365.951 568.777,366.195 568.777,366.561L568.777,369.674C568.777,370.04 568.899,370.284 569.265,370.284C569.631,370.284 569.753,370.04 569.753,369.735L569.753,368.7L570.608,368.7L570.608,369.677C570.617,369.738 570.621,369.799 570.621,369.861C570.621,370.565 570.042,371.144 569.338,371.144C569.314,371.144 569.289,371.143 569.265,371.142C568.442,371.09 567.794,370.398 567.794,369.574C567.794,369.527 567.796,369.48 567.8,369.433" style="fill:white;fill-rule:nonzero;"/>
                        </g>
                        <g transform="matrix(1,0,0,1,-524.068,-336.511)">
                            <path d="M572.9,365.2L575.464,365.2L575.464,365.994L574.671,365.994L574.671,370.938L573.694,370.938L573.694,365.994L572.9,365.994L572.9,365.2Z" style="fill:white;fill-rule:nonzero;"/>
                        </g>
                        <g transform="matrix(1,0,0,1,51.883,28.688)">
                            <rect x="0" y="0" width="0.977" height="5.738" style="fill:white;"/>
                        </g>
                        <g transform="matrix(1,0,0,1,-526.991,-336.511)">
                            <path d="M580.4,365.2L582.658,365.2L582.658,365.994L581.376,365.994L581.376,367.642L582.292,367.642L582.292,368.435L581.376,368.435L581.376,370.935L580.4,370.935L580.4,365.2Z" style="fill:white;fill-rule:nonzero;"/>
                        </g>
                        <g transform="matrix(1,0,0,1,-528.666,-336.473)">
                            <path d="M584.7,369.678L584.7,368.884L585.616,368.884L585.616,369.678C585.616,369.983 585.738,370.166 586.104,370.166C586.409,370.166 586.531,369.983 586.531,369.678L586.531,369.434C586.529,369.115 586.369,368.818 586.104,368.641L585.494,368.092C585.003,367.738 584.708,367.171 584.701,366.566L584.701,366.383C584.699,366.353 584.698,366.322 584.698,366.292C584.698,365.634 585.239,365.092 585.898,365.092C585.947,365.092 585.995,365.095 586.044,365.101C587.021,365.101 587.387,365.589 587.387,366.383L587.387,366.871L586.532,366.871L586.532,366.383C586.533,366.369 586.534,366.356 586.534,366.342C586.534,366.096 586.331,365.893 586.085,365.893C586.071,365.893 586.058,365.894 586.044,365.895L586.037,365.895C585.773,365.895 585.556,366.112 585.556,366.376L585.556,366.505C585.556,366.81 585.739,366.993 586.044,367.299L586.654,367.909C587.145,368.263 587.441,368.83 587.448,369.435L587.448,369.74C587.452,369.778 587.453,369.817 587.453,369.855C587.453,370.535 586.894,371.094 586.214,371.094C586.159,371.094 586.103,371.09 586.048,371.083L586.024,371.083C585.299,371.083 584.703,370.487 584.703,369.762C584.703,369.736 584.703,369.709 584.705,369.683" style="fill:white;fill-rule:nonzero;"/>
                        </g>
                    </g>
                </g>
            </g>
        </g>
    </g>
</svg>
