<?xml version="1.0" encoding="UTF-8" standalone="no"?>
<!DOCTYPE svg PUBLIC "-//W3C//DTD SVG 1.1//EN" "http://www.w3.org/Graphics/SVG/1.1/DTD/svg11.dtd">
<svg width="100%" height="100%" viewBox="0 0 68 68" version="1.1" xmlns="http://www.w3.org/2000/svg" xmlns:xlink="http://www.w3.org/1999/xlink" xml:space="preserve" xmlns:serif="http://www.serif.com/" style="fill-rule:evenodd;clip-rule:evenodd;stroke-linejoin:round;stroke-miterlimit:2;">
    <g id="Plan-de-travail1" serif:id="Plan de travail1" transform="matrix(0.985507,0,0,0.985507,0,0)">
        <rect x="0" y="0" width="69" height="69" style="fill:none;"/>
        <clipPath id="_clip1">
            <rect x="0" y="0" width="69" height="69"/>
        </clipPath>
        <g clip-path="url(#_clip1)">
            <g transform="matrix(1.01471,0,0,1.01656,2.84217e-14,1.42109e-14)">
                <g id="ODD10">
                    <rect x="0" y="0" width="68" height="67.876" style="fill:none;"/>
                    <g id="odd10-carre" transform="matrix(1,0,0,0.998176,0.062,0.0618869)">
                        <rect x="0" y="0" width="67.876" height="67.876" style="fill:rgb(224,26,131);"/>
                        <g transform="matrix(1,0,0,1,-372.878,-200.923)">
                            <path d="M379.409,209.774L379.409,220.274L381.667,220.274L381.667,206.6L379.836,206.6L377.7,209.042L377.7,211.484L377.761,211.484L379.348,209.775L379.409,209.774Z" style="fill:white;fill-rule:nonzero;"/>
                        </g>
                        <g transform="matrix(1,0,0,1,-376.423,-200.768)">
                            <path d="M393.636,216.577L393.636,209.924C393.636,207.788 392.536,206.201 390.218,206.201C387.9,206.201 386.8,207.727 386.8,209.924L386.8,216.577C386.8,218.713 387.9,220.3 390.218,220.3C392.536,220.3 393.636,218.713 393.636,216.577M389.119,216.943L389.119,209.618C389.119,208.763 389.424,208.218 390.219,208.218C391.014,208.218 391.319,208.828 391.319,209.618L391.319,216.943C391.319,217.798 391.014,218.343 390.219,218.343C389.424,218.343 389.119,217.794 389.119,216.943" style="fill:white;fill-rule:nonzero;"/>
                        </g>
                        <g transform="matrix(1,0,0,1,22.463,6.47)">
                            <rect x="0" y="0" width="0.977" height="5.738" style="fill:white;"/>
                        </g>
                        <g transform="matrix(1,0,0,1,-385.112,-201.43)">
                            <path d="M409.893,210.036L409.893,213.636L409.1,213.636L409.1,207.9L410.016,207.9L411.116,211.2L411.116,207.9L411.91,207.9L411.91,213.638L411.055,213.638L409.893,210.036Z" style="fill:white;fill-rule:nonzero;"/>
                        </g>
                        <g transform="matrix(1,0,0,1,-387.254,-200.729)">
                            <path d="M414.6,207.2L416.919,207.2L416.919,207.994L415.576,207.994L415.576,209.642L416.553,209.642L416.553,210.436L415.576,210.436L415.576,212.206L416.919,212.206L416.919,213L414.6,213L414.6,207.2ZM416.614,206.773L415.088,206.956L415.088,206.407L416.614,206.102L416.614,206.773Z" style="fill:white;fill-rule:nonzero;"/>
                        </g>
                        <g transform="matrix(1,0,0,1,-389.047,-201.391)">
                            <path d="M420.6,210.547L422,210.547L422,213.6L421.329,213.6L421.329,212.99C421.232,213.407 420.84,213.694 420.413,213.661C419.558,213.661 419.192,212.99 419.192,212.135L419.192,209.327C419.182,209.262 419.178,209.197 419.178,209.132C419.178,208.398 419.782,207.794 420.516,207.794C420.563,207.794 420.61,207.796 420.657,207.801C421.757,207.801 422.057,208.411 422.057,209.266L422.057,209.754L421.202,209.754L421.202,209.144C421.202,208.778 421.08,208.595 420.714,208.595C420.348,208.595 420.226,208.839 420.226,209.205L420.226,212.318C420.226,212.684 420.348,212.928 420.714,212.928C421.019,212.928 421.202,212.745 421.202,212.379L421.202,211.34L420.714,211.34L420.714,210.546L420.6,210.547Z" style="fill:white;fill-rule:nonzero;"/>
                        </g>
                        <g transform="matrix(1,0,0,1,-391.073,-201.43)">
                            <path d="M424.4,213.638L425.5,207.9L426.6,207.9L427.7,213.638L426.723,213.638L426.54,212.6L425.5,212.6L425.317,213.638L424.4,213.638ZM425.621,211.807L426.414,211.807L426.048,209.487L425.621,211.807Z" style="fill:white;fill-rule:nonzero;"/>
                        </g>
                        <g transform="matrix(1,0,0,1,-393.41,-201.43)">
                            <path d="M430.4,207.9L431.377,207.9L431.377,212.844L432.537,212.844L432.537,213.638L430.4,213.638L430.4,207.9Z" style="fill:white;fill-rule:nonzero;"/>
                        </g>
                        <g transform="matrix(1,0,0,1,39.553,6.47)">
                            <rect x="0" y="0" width="0.977" height="5.738" style="fill:white;"/>
                        </g>
                        <g transform="matrix(1,0,0,1,-395.982,-201.43)">
                            <path d="M437,207.9L439.564,207.9L439.564,208.694L438.77,208.694L438.77,213.638L437.793,213.638L437.793,208.694L437,208.694L437,207.9Z" style="fill:white;fill-rule:nonzero;"/>
                        </g>
                        <g transform="matrix(1,0,0,1,-397.891,-200.729)">
                            <path d="M441.9,207.2L444.22,207.2L444.22,207.994L442.877,207.994L442.877,209.642L443.854,209.642L443.854,210.436L442.877,210.436L442.877,212.206L444.22,212.206L444.22,213L441.9,213L441.9,207.2ZM443.914,206.773L442.388,206.956L442.388,206.407L443.914,206.102L443.914,206.773Z" style="fill:white;fill-rule:nonzero;"/>
                        </g>
                        <g transform="matrix(1,0,0,1,-399.644,-201.43)">
                            <path d="M446.4,212.417L446.4,211.623L447.316,211.623L447.316,212.417C447.316,212.722 447.438,212.905 447.804,212.905C448.109,212.905 448.231,212.722 448.231,212.417L448.231,212.234C448.229,211.915 448.069,211.617 447.804,211.44L447.255,210.891C446.764,210.537 446.468,209.97 446.461,209.365L446.461,209.182C446.459,209.152 446.458,209.122 446.458,209.092C446.458,208.433 446.999,207.892 447.658,207.892C447.705,207.892 447.753,207.894 447.8,207.9C448.777,207.9 449.143,208.388 449.143,209.182L449.143,209.67L448.288,209.67L448.288,209.182C448.289,209.168 448.29,209.155 448.29,209.141C448.29,208.895 448.087,208.692 447.841,208.692C447.827,208.692 447.814,208.693 447.8,208.694L447.793,208.694C447.529,208.694 447.312,208.911 447.312,209.175L447.312,209.304C447.312,209.609 447.495,209.792 447.8,210.098L448.41,210.708C448.901,211.062 449.196,211.629 449.203,212.234L449.203,212.539C449.207,212.577 449.208,212.616 449.208,212.654C449.208,213.334 448.649,213.893 447.969,213.893C447.914,213.893 447.858,213.889 447.803,213.882C446.765,213.699 446.403,213.15 446.403,212.417" style="fill:white;fill-rule:nonzero;"/>
                        </g>
                        <g transform="matrix(1,0,0,1,-384.138,-206.573)">
                            <path d="M407.577,224.213L407.577,226.838L406.6,226.838L406.6,221.1L408,221.1C408.977,221.1 409.343,221.588 409.343,222.382L409.343,223.114C409.419,223.632 409.065,224.123 408.55,224.214L409.466,226.839L408.428,226.839L407.577,224.213ZM407.577,221.832L407.577,223.663L407.882,223.663C407.896,223.664 407.909,223.665 407.923,223.665C408.169,223.665 408.372,223.462 408.372,223.216C408.372,223.202 408.371,223.189 408.37,223.175L408.37,222.32C408.37,222.015 408.248,221.832 407.882,221.832L407.577,221.832Z" style="fill:white;fill-rule:nonzero;"/>
                        </g>
                        <g transform="matrix(1,0,0,1,-386.203,-205.91)">
                            <path d="M411.9,220.438L414.219,220.438L414.219,221.232L412.876,221.232L412.876,222.88L413.853,222.88L413.853,223.674L412.876,223.674L412.876,225.444L414.219,225.444L414.219,226.238L411.9,226.238L411.9,220.438ZM413.914,220.072L412.388,220.255L412.388,219.706L413.914,219.401L413.914,220.072Z" style="fill:white;fill-rule:nonzero;"/>
                        </g>
                        <g transform="matrix(1,0,0,1,-388.034,-206.609)">
                            <path d="M419.469,222.724L419.469,225.41C419.469,226.265 419.103,226.936 418.069,226.936L416.6,226.936L416.6,221.2L418.065,221.2C419.103,221.139 419.465,221.81 419.465,222.726M417.939,226.144C418.366,226.144 418.488,225.9 418.488,225.534L418.488,222.54C418.491,222.518 418.493,222.495 418.493,222.472C418.493,222.206 418.273,221.986 418.007,221.986C417.984,221.986 417.961,221.988 417.939,221.991L417.512,221.991L417.512,226.142L417.939,226.142L417.939,226.144Z" style="fill:white;fill-rule:nonzero;"/>
                        </g>
                        <g transform="matrix(1,0,0,1,-390.216,-206.573)">
                            <path d="M425.008,221.1L425.008,225.434C425.008,226.35 424.642,226.899 423.665,226.899C423.604,226.908 423.542,226.912 423.481,226.912C422.771,226.912 422.187,226.328 422.187,225.618C422.187,225.557 422.191,225.495 422.2,225.434L422.2,221.1L423.177,221.1L423.177,225.556C423.177,225.922 423.299,226.105 423.665,226.105C424.031,226.105 424.153,225.861 424.153,225.556L424.153,221.1L425.008,221.1Z" style="fill:white;fill-rule:nonzero;"/>
                        </g>
                        <g transform="matrix(1,0,0,1,35.342,14.527)">
                            <rect x="0" y="0" width="0.977" height="5.738" style="fill:white;"/>
                        </g>
                        <g transform="matrix(1,0,0,1,-393.293,-206.573)">
                            <path d="M430.1,221.1L432.664,221.1L432.664,221.893L431.87,221.893L431.87,226.9L430.893,226.9L430.893,221.895L430.1,221.895L430.1,221.1Z" style="fill:white;fill-rule:nonzero;"/>
                        </g>
                        <g transform="matrix(1,0,0,1,-395.202,-206.573)">
                            <path d="M435,221.1L437.319,221.1L437.319,221.893L435.976,221.893L435.976,223.541L436.953,223.541L436.953,224.335L435.976,224.335L435.976,226.105L437.319,226.105L437.319,226.899L435,226.899L435,221.1Z" style="fill:white;fill-rule:nonzero;"/>
                        </g>
                        <g transform="matrix(1,0,0,1,-396.956,-206.534)">
                            <path d="M439.5,225.578L439.5,224.784L440.416,224.784L440.416,225.578C440.416,225.883 440.538,226.066 440.904,226.066C441.209,226.066 441.331,225.883 441.331,225.578L441.331,225.334C441.329,225.015 441.169,224.717 440.904,224.54L440.355,223.991C439.864,223.637 439.568,223.07 439.561,222.465L439.561,222.282C439.559,222.252 439.558,222.222 439.558,222.192C439.558,221.533 440.099,220.992 440.758,220.992C440.805,220.992 440.853,220.994 440.9,221C441.877,221 442.243,221.488 442.243,222.282L442.243,222.77L441.389,222.77L441.389,222.282C441.39,222.268 441.391,222.255 441.391,222.241C441.391,221.995 441.188,221.792 440.942,221.792C440.928,221.792 440.915,221.793 440.901,221.794L440.894,221.794C440.63,221.794 440.413,222.011 440.413,222.275L440.413,222.404C440.413,222.709 440.596,222.892 440.901,223.198L441.511,223.808C442.002,224.162 442.298,224.729 442.305,225.334L442.305,225.639C442.309,225.677 442.31,225.716 442.31,225.754C442.31,226.434 441.751,226.993 441.071,226.993C441.016,226.993 440.96,226.989 440.905,226.982C439.867,226.921 439.505,226.372 439.505,225.582" style="fill:white;fill-rule:nonzero;"/>
                        </g>
                        <g transform="matrix(1,0,0,1,-387.488,-225.78)">
                            <path d="M427.9,270.4L415.322,270.4C415.261,270.4 415.2,270.461 415.2,270.583L415.2,274.367C415.2,274.428 415.261,274.55 415.322,274.55L427.9,274.55C427.961,274.55 428.022,274.489 428.022,274.367L428.022,270.583C428.022,270.522 427.961,270.4 427.9,270.4" style="fill:white;fill-rule:nonzero;"/>
                        </g>
                        <g transform="matrix(1,0,0,1,-387.488,-220.676)">
                            <path d="M427.9,257.3L415.322,257.3C415.261,257.3 415.2,257.361 415.2,257.483L415.2,261.267C415.2,261.328 415.261,261.45 415.322,261.45L427.9,261.45C427.961,261.45 428.022,261.389 428.022,261.267L428.022,257.483C428.022,257.361 427.961,257.3 427.9,257.3" style="fill:white;fill-rule:nonzero;"/>
                        </g>
                        <g transform="matrix(1,0,0,1,-387.667,-213.128)">
                            <path d="M427.892,244.014L421.849,237.971C421.788,237.91 421.727,237.91 421.727,237.971L415.684,244.014C415.669,244.034 415.66,244.059 415.66,244.085C415.66,244.137 415.695,244.183 415.745,244.197L427.77,244.197C427.892,244.197 427.953,244.136 427.892,244.014" style="fill:white;fill-rule:nonzero;"/>
                        </g>
                        <g transform="matrix(1,0,0,1,-398.982,-220.621)">
                            <path d="M444.883,269.392L450.926,263.349C450.987,263.288 450.987,263.227 450.926,263.227L444.883,257.184C444.863,257.169 444.838,257.16 444.812,257.16C444.76,257.16 444.714,257.195 444.7,257.245L444.7,269.27C444.7,269.392 444.822,269.453 444.883,269.392" style="fill:white;fill-rule:nonzero;"/>
                        </g>
                        <g transform="matrix(1,0,0,1,-387.668,-231.936)">
                            <path d="M415.685,286.383L421.728,292.426C421.789,292.487 421.85,292.487 421.85,292.426L427.893,286.383C427.908,286.363 427.917,286.338 427.917,286.312C427.917,286.26 427.882,286.214 427.832,286.2L415.807,286.2C415.685,286.2 415.624,286.322 415.685,286.383" style="fill:white;fill-rule:nonzero;"/>
                        </g>
                        <g transform="matrix(1,0,0,1,-380.173,-220.622)">
                            <path d="M402.514,257.185L396.471,263.228C396.41,263.289 396.41,263.35 396.471,263.35L402.514,269.393C402.534,269.408 402.559,269.417 402.585,269.417C402.637,269.417 402.683,269.382 402.697,269.332L402.697,257.307C402.697,257.185 402.575,257.124 402.514,257.185" style="fill:white;fill-rule:nonzero;"/>
                        </g>
                    </g>
                </g>
            </g>
        </g>
    </g>
</svg>
