<?xml version="1.0" encoding="UTF-8" standalone="no"?>
<!DOCTYPE svg PUBLIC "-//W3C//DTD SVG 1.1//EN" "http://www.w3.org/Graphics/SVG/1.1/DTD/svg11.dtd">
<svg width="100%" height="100%" viewBox="0 0 68 68" version="1.1" xmlns="http://www.w3.org/2000/svg" xmlns:xlink="http://www.w3.org/1999/xlink" xml:space="preserve" xmlns:serif="http://www.serif.com/" style="fill-rule:evenodd;clip-rule:evenodd;stroke-linejoin:round;stroke-miterlimit:2;">
    <g id="Plan-de-travail1" serif:id="Plan de travail1" transform="matrix(0.985507,0,0,0.985507,0,0)">
        <rect x="0" y="0" width="69" height="69" style="fill:none;"/>
        <clipPath id="_clip1">
            <rect x="0" y="0" width="69" height="69"/>
        </clipPath>
        <g clipPath="url(#_clip1)">
            <g transform="matrix(1.01471,0,0,1.01656,0,1.42109e-14)">
                <g id="ODD12">
                    <rect x="0" y="0" width="68" height="67.876" style="fill:none;"/>
                    <g id="odd12-carre" transform="matrix(1,0,0,0.998176,0.062,0.0618869)">
                        <rect x="0" y="0" width="67.876" height="67.876" style="fill:rgb(205,139,42);"/>
                        <g transform="matrix(1,0,0,1,-624.07,-218.293)">
                            <path d="M675.221,253.451C672.818,251.634 669.77,250.883 666.798,251.376L666.615,251.437C664.906,251.803 662.281,252.475 659.168,256.381L659.046,256.503C659.011,256.535 658.989,256.578 658.985,256.625L659.107,256.869C659.473,257.54 660.023,258.395 660.389,259.127C660.448,259.202 660.537,259.247 660.633,259.249C660.7,259.257 660.767,259.235 660.816,259.188L660.877,259.127C663.624,255.282 665.821,254.793 667.286,254.427L667.469,254.366C669.518,254.101 671.592,254.625 673.269,255.831C674.917,257.113 675.711,259.188 675.711,261.931C675.711,266.57 673.452,268.401 671.56,269.073C669.65,269.685 667.578,269.554 665.76,268.707L665.638,268.646C664.051,267.975 661.609,266.51 659.351,261.932C654.773,252.776 650.989,251.861 648.425,251.311L648.3,251.311C645.368,250.863 642.376,251.611 640,253.386C638.352,254.668 636.4,257.231 636.4,261.932C636.387,262.136 636.381,262.34 636.381,262.545C636.381,267.997 640.868,272.484 646.32,272.484C647.133,272.484 647.942,272.384 648.73,272.187C650.207,271.893 651.59,271.244 652.759,270.295L654.224,271.577C654.316,271.639 654.437,271.639 654.529,271.577C654.576,271.528 654.598,271.461 654.59,271.394L655.628,264.985L655.628,264.924C655.629,264.914 655.63,264.904 655.63,264.894C655.63,264.775 655.533,264.678 655.414,264.678C655.404,264.678 655.394,264.679 655.384,264.68L655.262,264.68L649.162,266.389L649.04,266.389C648.979,266.389 648.979,266.45 648.918,266.45C648.856,266.542 648.856,266.663 648.918,266.755L648.979,266.816L650.322,268.037C649.629,268.487 648.866,268.817 648.064,269.014C645.44,269.686 642.651,268.781 640.922,266.695L640.861,266.634C639.783,265.245 639.261,263.504 639.396,261.751C639.396,259.004 640.19,256.929 641.838,255.651C643.468,254.445 645.505,253.919 647.515,254.186L647.637,254.186C649.712,254.674 652.52,255.286 656.488,263.159C658.502,267.249 661.066,269.934 664.24,271.338C665.766,272.07 667.431,272.466 669.123,272.498C670.288,272.488 671.444,272.282 672.541,271.888C674.372,271.217 678.706,268.836 678.706,261.816C678.991,258.629 677.688,255.498 675.227,253.454" style="fill:white;fill-rule:nonzero;"/>
                        </g>
                        <g transform="matrix(1,0,0,1,-624.07,-218.293)">
                            <path d="M675.221,253.451C672.818,251.634 669.77,250.883 666.798,251.376L666.615,251.437C664.906,251.803 662.281,252.475 659.168,256.381L659.046,256.503C659.011,256.535 658.989,256.578 658.985,256.625L659.107,256.869C659.473,257.54 660.023,258.395 660.389,259.127C660.448,259.202 660.537,259.247 660.633,259.249C660.7,259.257 660.767,259.235 660.816,259.188L660.877,259.127C663.624,255.282 665.821,254.793 667.286,254.427L667.469,254.366C669.518,254.101 671.592,254.625 673.269,255.831C674.917,257.113 675.711,259.188 675.711,261.931C675.711,266.57 673.452,268.401 671.56,269.073C669.65,269.685 667.578,269.554 665.76,268.707L665.638,268.646C664.051,267.975 661.609,266.51 659.351,261.932C654.773,252.776 650.989,251.861 648.425,251.311L648.3,251.311C645.368,250.863 642.376,251.611 640,253.386C638.352,254.668 636.4,257.231 636.4,261.932C636.387,262.136 636.381,262.34 636.381,262.545C636.381,267.997 640.868,272.484 646.32,272.484C647.133,272.484 647.942,272.384 648.73,272.187C650.207,271.893 651.59,271.244 652.759,270.295L654.224,271.577C654.316,271.639 654.437,271.639 654.529,271.577C654.576,271.528 654.598,271.461 654.59,271.394L655.628,264.985L655.628,264.924C655.629,264.914 655.63,264.904 655.63,264.894C655.63,264.775 655.533,264.678 655.414,264.678C655.404,264.678 655.394,264.679 655.384,264.68L655.262,264.68L649.162,266.389L649.04,266.389C648.979,266.389 648.979,266.45 648.918,266.45C648.856,266.542 648.856,266.663 648.918,266.755L648.979,266.816L650.322,268.037C649.629,268.487 648.866,268.817 648.064,269.014C645.44,269.686 642.651,268.781 640.922,266.695L640.861,266.634C639.783,265.245 639.261,263.504 639.396,261.751C639.396,259.004 640.19,256.929 641.838,255.651C643.468,254.445 645.505,253.919 647.515,254.186L647.637,254.186C649.712,254.674 652.52,255.286 656.488,263.159C658.502,267.249 661.066,269.934 664.24,271.338C665.766,272.07 667.431,272.466 669.123,272.498C670.288,272.488 671.444,272.282 672.541,271.888C674.372,271.217 678.706,268.836 678.706,261.816C678.991,258.629 677.688,255.498 675.227,253.454" style="fill:white;fill-rule:nonzero;"/>
                        </g>
                        <g transform="matrix(1,0,0,1,-619.473,-200.923)">
                            <path d="M626.248,209.835L626.248,220.273L628.568,220.273L628.568,206.6L626.737,206.6L624.601,209.1L624.601,211.481L626.248,209.835Z" style="fill:white;fill-rule:nonzero;"/>
                        </g>
                        <g transform="matrix(1,0,0,1,-622.862,-200.844)">
                            <path d="M633.3,209.328L633.3,210.976L635.375,210.976L635.375,209.267C635.375,208.412 635.802,208.167 636.291,208.167C636.718,208.167 637.146,208.35 637.146,209.205L637.146,210.365C637.261,211.249 636.942,212.137 636.291,212.746L635.009,214.146C633.727,215.489 633.3,216.346 633.3,217.746L633.3,220.246L639.282,220.246L639.282,218.354L635.5,218.354L635.5,217.683C635.46,216.873 635.827,216.094 636.477,215.608L637.942,214.082C638.946,213.215 639.488,211.927 639.407,210.603L639.407,209.26C639.407,207.307 638.43,206.391 636.416,206.391C634.341,206.33 633.303,207.429 633.303,209.321" style="fill:white;fill-rule:nonzero;"/>
                        </g>
                        <g transform="matrix(1,0,0,1,-630.421,-201.391)">
                            <path d="M652.7,212.134L652.7,209.326C652.69,209.261 652.686,209.196 652.686,209.131C652.686,208.397 653.29,207.793 654.024,207.793C654.071,207.793 654.118,207.795 654.165,207.8C655.265,207.8 655.508,208.41 655.508,209.265L655.508,209.936L654.653,209.936L654.653,209.142C654.653,208.776 654.531,208.593 654.165,208.593C653.799,208.593 653.677,208.837 653.677,209.203L653.677,212.316C653.677,212.682 653.799,212.926 654.165,212.926C654.531,212.926 654.653,212.682 654.653,212.377L654.653,211.34L655.508,211.34L655.508,212.317C655.508,213.172 655.142,213.782 654.165,213.782C653.354,213.775 652.691,213.106 652.691,212.295C652.691,212.241 652.694,212.187 652.7,212.134" style="fill:white;fill-rule:nonzero;"/>
                        </g>
                        <g transform="matrix(1,0,0,1,-632.524,-201.391)">
                            <path d="M658.1,212.134L658.1,209.326C658.09,209.261 658.086,209.196 658.086,209.131C658.086,208.397 658.69,207.793 659.424,207.793C659.471,207.793 659.518,207.795 659.565,207.8C659.602,207.797 659.64,207.795 659.677,207.795C660.425,207.795 661.04,208.411 661.04,209.158C661.04,209.214 661.037,209.27 661.03,209.326L661.03,212.134C661.04,212.199 661.044,212.264 661.044,212.329C661.044,213.063 660.44,213.667 659.706,213.667C659.659,213.667 659.612,213.665 659.565,213.66C659.528,213.663 659.492,213.664 659.455,213.664C658.706,213.664 658.09,213.048 658.09,212.299C658.09,212.244 658.093,212.189 658.1,212.134M660.053,212.256L660.053,209.143C660.053,208.777 659.87,208.533 659.565,208.533C659.199,208.533 659.077,208.777 659.077,209.143L659.077,212.256C659.077,212.622 659.26,212.866 659.565,212.866C659.931,212.866 660.053,212.622 660.053,212.256" style="fill:white;fill-rule:nonzero;"/>
                        </g>
                        <g transform="matrix(1,0,0,1,-634.745,-201.43)">
                            <path d="M664.655,210.036L664.655,213.636L663.8,213.636L663.8,207.9L664.777,207.9L665.815,211.2L665.815,207.9L666.609,207.9L666.609,213.638L665.754,213.638L664.655,210.036Z" style="fill:white;fill-rule:nonzero;"/>
                        </g>
                        <g transform="matrix(1,0,0,1,-636.888,-201.43)">
                            <path d="M669.3,212.417L669.3,211.623L670.216,211.623L670.216,212.417C670.216,212.722 670.338,212.905 670.704,212.905C671.009,212.905 671.131,212.722 671.131,212.417L671.131,212.234C671.129,211.915 670.969,211.617 670.704,211.44L670.155,210.891C669.664,210.537 669.368,209.97 669.361,209.365L669.361,209.182C669.359,209.152 669.358,209.122 669.358,209.092C669.358,208.433 669.899,207.892 670.558,207.892C670.605,207.892 670.653,207.894 670.7,207.9C671.677,207.9 672.043,208.388 672.043,209.182L672.043,209.67L671.188,209.67L671.188,209.182C671.189,209.168 671.19,209.155 671.19,209.141C671.19,208.895 670.987,208.692 670.741,208.692C670.727,208.692 670.714,208.693 670.7,208.694L670.693,208.694C670.429,208.694 670.212,208.911 670.212,209.175L670.212,209.304C670.212,209.609 670.395,209.792 670.7,210.098L671.31,210.708C671.801,211.062 672.097,211.629 672.104,212.234L672.104,212.539C672.108,212.577 672.109,212.616 672.109,212.654C672.109,213.334 671.55,213.893 670.87,213.893C670.815,213.893 670.759,213.889 670.704,213.882C669.666,213.699 669.304,213.15 669.304,212.417" style="fill:white;fill-rule:nonzero;"/>
                        </g>
                        <g transform="matrix(1,0,0,1,-638.953,-201.391)">
                            <path d="M674.6,212.134L674.6,209.326C674.59,209.261 674.586,209.196 674.586,209.131C674.586,208.397 675.19,207.793 675.924,207.793C675.971,207.793 676.018,207.795 676.065,207.8C676.102,207.797 676.14,207.795 676.177,207.795C676.925,207.795 677.54,208.411 677.54,209.158C677.54,209.214 677.537,209.27 677.53,209.326L677.53,212.134C677.54,212.199 677.544,212.264 677.544,212.329C677.544,213.063 676.94,213.667 676.206,213.667C676.159,213.667 676.112,213.665 676.065,213.66C676.028,213.663 675.992,213.664 675.955,213.664C675.206,213.664 674.59,213.048 674.59,212.299C674.59,212.244 674.593,212.189 674.6,212.134M676.614,212.256L676.614,209.143C676.614,208.777 676.431,208.533 676.126,208.533C675.76,208.533 675.638,208.777 675.638,209.143L675.638,212.256C675.638,212.622 675.821,212.866 676.126,212.866C676.431,212.866 676.614,212.622 676.614,212.256" style="fill:white;fill-rule:nonzero;"/>
                        </g>
                        <g transform="matrix(1,0,0,1,-641.174,-201.43)">
                            <path d="M682.986,209.914L682.315,213.637L681.888,213.637L681.156,209.914L681.156,213.637L680.3,213.637L680.3,207.9L681.46,207.9L682.07,211.135L682.68,207.9L683.9,207.9L683.9,213.638L682.984,213.638L682.986,209.914Z" style="fill:white;fill-rule:nonzero;"/>
                        </g>
                        <g transform="matrix(1,0,0,1,-643.823,-201.43)">
                            <path d="M689.725,209.914L689.054,213.637L688.627,213.637L687.895,209.914L687.895,213.637L687.1,213.637L687.1,207.9L688.2,207.9L688.871,211.135L689.42,207.9L690.641,207.9L690.641,213.638L689.725,213.638L689.725,209.914Z" style="fill:white;fill-rule:nonzero;"/>
                        </g>
                        <g transform="matrix(1,0,0,1,-646.317,-201.43)">
                            <path d="M693.5,213.638L694.6,207.9L695.7,207.9L696.8,213.638L695.823,213.638L695.64,212.6L694.6,212.6L694.417,213.638L693.5,213.638ZM694.721,211.807L695.515,211.807L695.149,209.487L694.721,211.807Z" style="fill:white;fill-rule:nonzero;"/>
                        </g>
                        <g transform="matrix(1,0,0,1,-648.343,-201.43)">
                            <path d="M698.7,207.9L701.264,207.9L701.264,208.694L700.47,208.694L700.47,213.638L699.493,213.638L699.493,208.694L698.7,208.694L698.7,207.9Z" style="fill:white;fill-rule:nonzero;"/>
                        </g>
                        <g transform="matrix(1,0,0,1,53.409,6.47)">
                            <rect x="0" y="0" width="0.977" height="5.738" style="fill:white;"/>
                        </g>
                        <g transform="matrix(1,0,0,1,-651.265,-201.391)">
                            <path d="M706.2,212.134L706.2,209.326C706.19,209.261 706.186,209.196 706.186,209.131C706.186,208.397 706.79,207.793 707.524,207.793C707.571,207.793 707.618,207.795 707.665,207.8C707.702,207.797 707.74,207.795 707.777,207.795C708.525,207.795 709.14,208.411 709.14,209.158C709.14,209.214 709.137,209.27 709.13,209.326L709.13,212.134C709.131,212.152 709.131,212.17 709.131,212.188C709.131,212.992 708.469,213.654 707.665,213.654C706.861,213.654 706.199,212.992 706.199,212.188C706.199,212.17 706.199,212.152 706.2,212.134M708.153,212.256L708.153,209.143C708.153,208.777 707.97,208.533 707.665,208.533C707.299,208.533 707.177,208.777 707.177,209.143L707.177,212.256C707.177,212.622 707.36,212.866 707.665,212.866C707.97,212.866 708.153,212.622 708.153,212.256" style="fill:white;fill-rule:nonzero;"/>
                        </g>
                        <g transform="matrix(1,0,0,1,-653.485,-201.43)">
                            <path d="M712.693,210.036L712.693,213.636L711.9,213.636L711.9,207.9L712.816,207.9L713.854,211.2L713.854,207.9L714.708,207.9L714.708,213.638L713.854,213.638L712.693,210.036Z" style="fill:white;fill-rule:nonzero;"/>
                        </g>
                        <g transform="matrix(1,0,0,1,-630.421,-206.3)">
                            <path d="M652.7,220.4L654.958,220.4L654.958,221.194L653.615,221.194L653.615,222.842L654.592,222.842L654.592,223.636L653.615,223.636L653.615,225.406L654.958,225.406L654.958,226.2L652.7,226.2L652.7,220.4Z" style="fill:white;fill-rule:nonzero;"/>
                        </g>
                        <g transform="matrix(1,0,0,1,-632.135,-206.3)">
                            <path d="M657.1,220.4L659.664,220.4L659.664,221.194L658.87,221.194L658.87,226.2L657.893,226.2L657.893,221.195L657.1,221.195L657.1,220.4Z" style="fill:white;fill-rule:nonzero;"/>
                        </g>
                        <g transform="matrix(1,0,0,1,-634.628,-206.3)">
                            <path d="M663.5,220.4L664.965,220.4C665.942,220.4 666.308,220.888 666.308,221.682L666.308,222.9C666.308,223.694 665.942,224.182 664.965,224.182L664.477,224.182L664.477,226.135L663.5,226.135L663.5,220.4ZM664.477,221.133L664.477,223.452L664.843,223.452C664.857,223.453 664.87,223.454 664.884,223.454C665.13,223.454 665.333,223.251 665.333,223.005C665.333,222.991 665.332,222.978 665.331,222.964L665.331,221.621C665.331,221.316 665.209,221.133 664.843,221.133L664.477,221.133Z" style="fill:white;fill-rule:nonzero;"/>
                        </g>
                        <g transform="matrix(1,0,0,1,-636.732,-206.3)">
                            <path d="M669.877,223.513L669.877,226.138L668.9,226.138L668.9,220.4L670.3,220.4C671.277,220.4 671.643,220.888 671.643,221.682L671.643,222.414C671.719,222.932 671.365,223.423 670.85,223.514L671.766,226.139L670.789,226.139L669.877,223.513ZM669.877,221.133L669.877,222.964L670.182,222.964C670.196,222.965 670.209,222.966 670.223,222.966C670.469,222.966 670.672,222.763 670.672,222.517C670.672,222.503 670.671,222.49 670.67,222.476L670.67,221.621C670.67,221.316 670.548,221.133 670.182,221.133L669.877,221.133Z" style="fill:white;fill-rule:nonzero;"/>
                        </g>
                        <g transform="matrix(1,0,0,1,-638.836,-206.261)">
                            <path d="M674.3,224.634L674.3,221.826C674.29,221.761 674.286,221.696 674.286,221.631C674.286,220.897 674.89,220.293 675.624,220.293C675.671,220.293 675.718,220.295 675.765,220.3C675.802,220.297 675.84,220.295 675.877,220.295C676.625,220.295 677.24,220.911 677.24,221.658C677.24,221.714 677.237,221.77 677.23,221.826L677.23,224.634C677.24,224.699 677.244,224.764 677.244,224.829C677.244,225.563 676.64,226.167 675.906,226.167C675.859,226.167 675.812,226.165 675.765,226.16C674.727,226.221 674.3,225.55 674.3,224.634M676.253,224.817L676.253,221.7C676.253,221.334 676.07,221.09 675.765,221.09C675.399,221.09 675.277,221.334 675.277,221.7L675.277,224.813C675.277,225.179 675.46,225.423 675.765,225.423C676.056,225.371 676.266,225.108 676.253,224.813" style="fill:white;fill-rule:nonzero;"/>
                        </g>
                        <g transform="matrix(1,0,0,1,-641.057,-206.336)">
                            <path d="M682.869,222.024L682.869,224.71C682.869,225.565 682.503,226.236 681.469,226.236L680,226.236L680,220.5L681.465,220.5C682.503,220.439 682.865,221.11 682.865,222.026M681.339,225.444C681.766,225.444 681.888,225.2 681.888,224.834L681.888,221.84C681.891,221.818 681.893,221.795 681.893,221.772C681.893,221.506 681.673,221.286 681.407,221.286C681.384,221.286 681.361,221.288 681.339,221.291L680.912,221.291L680.912,225.442L681.339,225.444Z" style="fill:white;fill-rule:nonzero;"/>
                        </g>
                        <g transform="matrix(1,0,0,1,-643.239,-206.3)">
                            <path d="M688.408,220.4L688.408,224.734C688.408,225.65 688.042,226.199 687.065,226.199C687.004,226.208 686.942,226.212 686.881,226.212C686.171,226.212 685.587,225.628 685.587,224.918C685.587,224.857 685.591,224.795 685.6,224.734L685.6,220.4L686.577,220.4L686.577,224.856C686.577,225.222 686.699,225.405 687.065,225.405C687.431,225.405 687.553,225.161 687.553,224.856L687.553,220.4L688.408,220.4Z" style="fill:white;fill-rule:nonzero;"/>
                        </g>
                        <g transform="matrix(1,0,0,1,-645.381,-206.261)">
                            <path d="M691.1,224.634L691.1,221.826C691.09,221.761 691.086,221.696 691.086,221.631C691.086,220.897 691.69,220.293 692.424,220.293C692.471,220.293 692.518,220.295 692.565,220.3C693.665,220.3 693.908,220.91 693.908,221.765L693.908,222.436L693.054,222.436L693.054,221.7C693.054,221.334 692.932,221.151 692.566,221.151C692.2,221.151 692.078,221.395 692.078,221.761L692.078,224.874C692.078,225.24 692.2,225.484 692.566,225.484C692.932,225.484 693.054,225.24 693.054,224.935L693.054,223.775L693.908,223.775L693.908,224.752C693.908,225.607 693.542,226.217 692.565,226.217C691.527,226.217 691.1,225.546 691.1,224.63" style="fill:white;fill-rule:nonzero;"/>
                        </g>
                        <g transform="matrix(1,0,0,1,-647.407,-206.3)">
                            <path d="M696.3,220.4L698.864,220.4L698.864,221.194L698.07,221.194L698.07,226.2L697.093,226.2L697.093,221.195L696.3,221.195L696.3,220.4Z" style="fill:white;fill-rule:nonzero;"/>
                        </g>
                        <g transform="matrix(1,0,0,1,51.883,14.1)">
                            <rect x="0" y="0" width="0.977" height="5.738" style="fill:white;"/>
                        </g>
                        <g transform="matrix(1,0,0,1,-650.291,-206.261)">
                            <path d="M703.7,224.634L703.7,221.826C703.69,221.761 703.686,221.696 703.686,221.631C703.686,220.897 704.29,220.293 705.024,220.293C705.071,220.293 705.118,220.295 705.165,220.3C705.202,220.297 705.24,220.295 705.277,220.295C706.025,220.295 706.64,220.911 706.64,221.658C706.64,221.714 706.637,221.77 706.63,221.826L706.63,224.634C706.64,224.699 706.644,224.764 706.644,224.829C706.644,225.563 706.04,226.167 705.306,226.167C705.259,226.167 705.212,226.165 705.165,226.16C704.188,226.221 703.7,225.55 703.7,224.634M705.714,224.817L705.714,221.7C705.714,221.334 705.531,221.09 705.226,221.09C704.86,221.09 704.738,221.334 704.738,221.7L704.738,224.813C704.738,225.179 704.921,225.423 705.226,225.423C705.517,225.371 705.727,225.108 705.714,224.813" style="fill:white;fill-rule:nonzero;"/>
                        </g>
                        <g transform="matrix(1,0,0,1,-652.511,-206.3)">
                            <path d="M710.255,222.536L710.255,226.2L709.4,226.2L709.4,220.4L710.377,220.4L711.415,223.7L711.415,220.4L712.209,220.4L712.209,226.2L711.354,226.2L710.255,222.536Z" style="fill:white;fill-rule:nonzero;"/>
                        </g>
                        <g transform="matrix(1,0,0,1,-630.382,-211.209)">
                            <path d="M653.577,236.113L653.577,238.738L652.6,238.738L652.6,233L654,233C654.977,233 655.343,233.488 655.343,234.282L655.343,235.014C655.419,235.532 655.065,236.023 654.55,236.114L655.466,238.739L654.428,238.739L653.577,236.113ZM653.577,233.732L653.577,235.502L653.882,235.502C653.896,235.503 653.909,235.504 653.923,235.504C654.169,235.504 654.372,235.301 654.372,235.055C654.372,235.041 654.371,235.028 654.37,235.014L654.37,234.22C654.37,233.915 654.248,233.732 653.882,233.732L653.577,233.732Z" style="fill:white;fill-rule:nonzero;"/>
                        </g>
                        <g transform="matrix(1,0,0,1,-632.485,-211.209)">
                            <path d="M658,233L660.319,233L660.319,233.732L658.976,233.732L658.976,235.38L659.953,235.38L659.953,236.174L658.976,236.174L658.976,237.944L660.319,237.944L660.319,238.738L658,238.738L658,233Z" style="fill:white;fill-rule:nonzero;"/>
                        </g>
                        <g transform="matrix(1,0,0,1,-634.239,-211.17)">
                            <path d="M662.5,237.478L662.5,236.685L663.416,236.685L663.416,237.478C663.416,237.783 663.538,237.966 663.904,237.966C664.209,237.966 664.331,237.783 664.331,237.478L664.331,237.234C664.329,236.915 664.169,236.617 663.904,236.44L663.355,235.891C662.864,235.537 662.569,234.97 662.562,234.365L662.562,234.182C662.56,234.152 662.559,234.122 662.559,234.092C662.559,233.433 663.1,232.892 663.759,232.892C663.806,232.892 663.853,232.894 663.9,232.9C664.877,232.9 665.243,233.388 665.243,234.182L665.243,234.67L664.388,234.67L664.388,234.182C664.389,234.168 664.39,234.155 664.39,234.141C664.39,233.895 664.187,233.692 663.941,233.692C663.927,233.692 663.914,233.693 663.9,233.694L663.893,233.694C663.629,233.694 663.412,233.911 663.412,234.175L663.412,234.304C663.412,234.609 663.595,234.792 663.9,235.098L664.51,235.708C665.059,236.257 665.304,236.563 665.304,237.173L665.304,237.478C665.308,237.516 665.309,237.555 665.309,237.593C665.309,238.273 664.75,238.832 664.07,238.832C664.015,238.832 663.959,238.828 663.904,238.821C662.866,238.76 662.504,238.211 662.504,237.478" style="fill:white;fill-rule:nonzero;"/>
                        </g>
                        <g transform="matrix(1,0,0,1,-636.343,-211.209)">
                            <path d="M667.9,233L669.365,233C670.342,233 670.708,233.488 670.708,234.282L670.708,235.5C670.708,236.294 670.342,236.782 669.365,236.782L668.877,236.782L668.877,238.735L667.9,238.735L667.9,233ZM668.877,233.732L668.877,235.99L669.243,235.99C669.257,235.991 669.27,235.992 669.284,235.992C669.53,235.992 669.733,235.789 669.733,235.543C669.733,235.529 669.732,235.516 669.731,235.502L669.731,234.22C669.731,233.915 669.609,233.732 669.243,233.732L668.877,233.732Z" style="fill:white;fill-rule:nonzero;"/>
                        </g>
                        <g transform="matrix(1,0,0,1,-638.408,-211.17)">
                            <path d="M673.2,237.234L673.2,234.426C673.19,234.361 673.186,234.296 673.186,234.231C673.186,233.497 673.79,232.893 674.524,232.893C674.571,232.893 674.618,232.895 674.665,232.9C674.702,232.897 674.74,232.895 674.777,232.895C675.525,232.895 676.14,233.511 676.14,234.258C676.14,234.314 676.137,234.37 676.13,234.426L676.13,237.234C676.14,237.299 676.144,237.364 676.144,237.429C676.144,238.163 675.54,238.767 674.806,238.767C674.759,238.767 674.712,238.765 674.665,238.76C674.639,238.761 674.613,238.762 674.586,238.762C673.822,238.762 673.193,238.133 673.193,237.369C673.193,237.324 673.196,237.279 673.2,237.234M675.214,237.356L675.214,234.243C675.214,233.877 675.031,233.633 674.726,233.633C674.36,233.633 674.238,233.877 674.238,234.243L674.238,237.356C674.238,237.722 674.421,237.966 674.726,237.966C675.031,237.966 675.214,237.722 675.214,237.356" style="fill:white;fill-rule:nonzero;"/>
                        </g>
                        <g transform="matrix(1,0,0,1,-640.667,-211.209)">
                            <path d="M679.793,235.136L679.793,238.736L679,238.736L679,233L679.916,233L680.954,236.3L680.954,233L681.748,233L681.748,238.738L680.954,238.738L679.793,235.136Z" style="fill:white;fill-rule:nonzero;"/>
                        </g>
                        <g transform="matrix(1,0,0,1,-642.771,-211.17)">
                            <path d="M684.4,237.478L684.4,236.685L685.316,236.685L685.316,237.478C685.316,237.783 685.438,237.966 685.804,237.966C686.109,237.966 686.231,237.783 686.231,237.478L686.231,237.234C686.229,236.915 686.069,236.617 685.804,236.44L685.255,235.891C684.764,235.537 684.469,234.97 684.462,234.365L684.462,234.182C684.46,234.152 684.459,234.122 684.459,234.092C684.459,233.433 685,232.892 685.659,232.892C685.706,232.892 685.753,232.894 685.8,232.9C686.777,232.9 687.143,233.388 687.143,234.182L687.143,234.67L686.288,234.67L686.288,234.182C686.289,234.168 686.29,234.155 686.29,234.141C686.29,233.895 686.087,233.692 685.841,233.692C685.827,233.692 685.814,233.693 685.8,233.694L685.793,233.694C685.529,233.694 685.312,233.911 685.312,234.175L685.312,234.304C685.312,234.609 685.495,234.792 685.8,235.098L686.41,235.708C686.959,236.257 687.204,236.563 687.204,237.173L687.204,237.478C687.208,237.516 687.209,237.555 687.209,237.593C687.209,238.273 686.65,238.832 685.97,238.832C685.915,238.832 685.859,238.828 685.804,238.821C684.766,238.76 684.404,238.211 684.404,237.478" style="fill:white;fill-rule:nonzero;"/>
                        </g>
                        <g transform="matrix(1,0,0,1,-644.719,-211.209)">
                            <path d="M689.4,238.738L690.5,233L691.6,233L692.7,238.738L691.723,238.738L691.54,237.7L690.5,237.7L690.317,238.738L689.4,238.738ZM690.621,236.907L691.415,236.907L691.049,234.587L690.621,236.907Z" style="fill:white;fill-rule:nonzero;"/>
                        </g>
                        <g transform="matrix(1,0,0,1,-647.057,-211.209)">
                            <path d="M695.4,233L696.8,233C697.777,233 698.082,233.427 698.082,234.282L698.082,234.892C698.139,235.287 697.909,235.672 697.533,235.808C697.995,235.888 698.318,236.319 698.265,236.785L698.265,237.579C698.265,238.373 697.899,238.861 696.922,238.861L695.4,238.861L695.4,233ZM696.377,235.381L696.743,235.381C696.757,235.382 696.77,235.383 696.784,235.383C697.03,235.383 697.233,235.18 697.233,234.934C697.233,234.92 697.232,234.907 697.231,234.893L697.231,234.222C697.231,233.917 697.109,233.734 696.743,233.734L696.377,233.734L696.377,235.381ZM696.377,236.052L696.377,237.883L696.804,237.883C696.818,237.884 696.831,237.885 696.845,237.885C697.091,237.885 697.294,237.682 697.294,237.436C697.294,237.422 697.293,237.409 697.292,237.395L697.292,236.54C697.292,236.235 697.17,236.052 696.804,236.052L696.377,236.052Z" style="fill:white;fill-rule:nonzero;"/>
                        </g>
                        <g transform="matrix(1,0,0,1,-649.2,-211.209)">
                            <path d="M700.9,233L701.816,233L701.816,237.944L702.976,237.944L702.976,238.738L700.9,238.738L700.9,233Z" style="fill:white;fill-rule:nonzero;"/>
                        </g>
                        <g transform="matrix(1,0,0,1,-650.836,-211.209)">
                            <path d="M705.1,233L707.359,233L707.359,233.732L706.016,233.732L706.016,235.38L706.993,235.38L706.993,236.174L706.016,236.174L706.016,237.944L707.359,237.944L707.359,238.738L705.1,238.738L705.1,233Z" style="fill:white;fill-rule:nonzero;"/>
                        </g>
                        <g transform="matrix(1,0,0,1,-652.55,-211.17)">
                            <path d="M709.5,237.478L709.5,236.685L710.416,236.685L710.416,237.478C710.416,237.783 710.538,237.966 710.904,237.966C711.209,237.966 711.331,237.783 711.331,237.478L711.331,237.234C711.329,236.915 711.169,236.617 710.904,236.44L710.355,235.891C709.864,235.537 709.569,234.97 709.562,234.365L709.562,234.182C709.56,234.152 709.559,234.122 709.559,234.092C709.559,233.433 710.1,232.892 710.759,232.892C710.806,232.892 710.853,232.894 710.9,232.9C711.877,232.9 712.243,233.388 712.243,234.182L712.243,234.67L711.388,234.67L711.388,234.182C711.389,234.168 711.39,234.155 711.39,234.141C711.39,233.895 711.187,233.692 710.941,233.692C710.927,233.692 710.914,233.693 710.9,233.694L710.893,233.694C710.629,233.694 710.412,233.911 710.412,234.175L710.412,234.304C710.412,234.609 710.595,234.792 710.9,235.098L711.51,235.708C712.059,236.257 712.304,236.563 712.304,237.173L712.304,237.478C712.308,237.516 712.309,237.554 712.309,237.592C712.309,238.272 711.75,238.832 711.069,238.832C711.014,238.832 710.959,238.828 710.904,238.821C709.927,238.76 709.504,238.211 709.504,237.478" style="fill:white;fill-rule:nonzero;"/>
                        </g>
                    </g>
                </g>
            </g>
        </g>
    </g>
</svg>
