<?xml version="1.0" encoding="UTF-8" standalone="no"?>
<!DOCTYPE svg PUBLIC "-//W3C//DTD SVG 1.1//EN" "http://www.w3.org/Graphics/SVG/1.1/DTD/svg11.dtd">
<svg width="100%" height="100%" viewBox="0 0 68 68" version="1.1" xmlns="http://www.w3.org/2000/svg" xmlns:xlink="http://www.w3.org/1999/xlink" xml:space="preserve" xmlns:serif="http://www.serif.com/" style="fill-rule:evenodd;clip-rule:evenodd;stroke-linejoin:round;stroke-miterlimit:2;">
    <g id="Plan-de-travail1" serif:id="Plan de travail1" transform="matrix(1,0,0,0.985507,0,0)">
        <rect x="0" y="0" width="68" height="69" style="fill:none;"/>
        <clipPath id="_clip1">
            <rect x="0" y="0" width="68" height="69"/>
        </clipPath>
        <g clipPath="url(#_clip1)">
            <g transform="matrix(1,0,0,1.01656,0,0)">
                <g id="ODD13">
                    <rect x="0" y="0" width="68" height="67.876" style="fill:none;"/>
                    <g id="odd13-carre" transform="matrix(1,0,0,0.998176,0.122,0.0618869)">
                        <rect x="0" y="0" width="67.876" height="67.876" style="fill:rgb(72,119,60);"/>
                        <g transform="matrix(1,0,0,1,-9.317,-343.914)">
                            <path d="M63.7,394.21C59.004,387.913 51.595,384.197 43.74,384.197C35.885,384.197 28.476,387.913 23.78,394.21C23.719,394.271 23.658,394.393 23.597,394.454C23.672,394.524 23.734,394.606 23.78,394.698C28.476,400.995 35.885,404.711 43.74,404.711C51.595,404.711 59.004,400.995 63.7,394.698C63.761,394.637 63.822,394.515 63.883,394.454C63.761,394.393 63.761,394.271 63.7,394.21M37.026,389.266C37.148,389.083 37.514,388.656 37.514,388.595C37.636,388.473 37.819,388.473 37.941,388.412C38.063,388.412 38.246,388.473 38.246,388.534C38.241,388.723 38.2,388.91 38.124,389.083C37.873,389.321 37.551,389.47 37.208,389.51C37.025,389.449 36.964,389.327 37.025,389.266M36.598,390.121C36.781,389.877 37.086,389.877 37.33,389.816C37.532,389.771 37.744,389.842 37.879,389.999C37.94,390.121 37.33,390.365 37.269,390.487C36.964,390.731 36.537,391.281 36.231,391.342L35.987,391.342C36.128,390.907 36.334,390.495 36.597,390.121M41.114,399.338C40.997,399.723 40.833,400.093 40.626,400.438C40.308,400.723 39.893,400.876 39.466,400.865C39.1,400.865 39.039,399.827 39.039,399.278C39.039,399.095 38.795,399.644 38.673,398.546C38.612,397.875 38.124,398.607 38.124,398.18C38.063,397.692 37.88,397.814 37.636,397.509C37.392,397.204 37.087,397.509 36.781,397.692C36.476,397.814 36.598,397.936 36.11,397.753C35.672,396.731 35.443,395.63 35.439,394.518C35.429,394.232 35.449,393.945 35.5,393.663L35.561,393.602C35.988,393.053 35.988,392.931 35.988,392.931L36.476,392.748C36.953,392.825 37.422,392.948 37.876,393.114C38.364,393.297 39.158,393.724 39.585,393.541C39.89,393.419 40.134,393.236 40.134,392.992C40.073,392.626 39.829,392.565 39.524,392.809C39.402,392.87 39.158,392.321 38.975,392.321C38.792,392.321 39.219,392.992 39.036,393.053C38.853,393.053 38.548,392.382 38.487,392.26C38.426,392.138 38.182,391.833 37.938,392.077C37.45,392.565 36.656,392.504 36.473,392.626C35.985,392.992 35.863,392.504 35.863,392.199C35.863,392.138 35.924,392.077 35.924,392.016C36.191,391.828 36.533,391.783 36.84,391.894C36.991,391.972 37.18,391.918 37.267,391.772C37.329,391.658 37.329,391.52 37.267,391.406C37.206,391.284 37.389,391.223 37.511,391.162C37.633,391.162 37.999,390.857 38.121,390.796C38.539,390.671 38.985,390.671 39.403,390.796C39.69,390.968 40.066,390.888 40.258,390.613C40.426,390.41 40.633,390.244 40.868,390.125C40.99,390.064 40.563,389.698 40.197,390.125C39.831,390.552 39.648,390.613 39.526,390.613C39.343,390.613 38.366,390.369 38.305,390.064C38.183,389.759 38.61,389.515 38.976,389.332C39.496,389.2 40.027,389.118 40.563,389.088C41.051,388.966 41.723,388.722 42.028,388.966C42.333,389.21 40.685,389.576 41.234,389.882C41.417,390.004 42.334,389.394 42.634,389.211C43.366,388.845 41.963,388.723 42.146,387.99C42.329,387.135 40.376,387.441 39.46,387.563C40.801,386.682 42.372,386.215 43.977,386.22C47.838,386.228 51.225,388.882 52.156,392.629C52.156,392.812 52.156,392.934 52.095,392.995C52.012,393.199 51.812,393.334 51.592,393.334C51.396,393.334 51.214,393.227 51.118,393.056C51.057,392.934 50.691,392.568 50.691,393.178C50.691,393.788 51.24,393.788 50.691,394.155C50.431,394.329 50.141,394.453 49.836,394.521C49.592,394.582 49.348,395.192 49.409,395.498C49.47,395.804 50.203,396.719 49.653,396.658C49.531,396.658 48.493,395.987 48.371,395.498C48.188,395.01 48.005,394.582 47.883,394.216C47.817,394.007 47.621,393.864 47.402,393.864C47.288,393.864 47.178,393.902 47.089,393.972C46.784,394.155 47.15,394.399 46.967,394.827C46.784,395.255 46.601,395.682 46.296,395.315C45.502,394.399 44.282,394.827 44.096,393.789C43.974,393.24 43.486,393.301 43.119,392.934C42.692,392.629 42.509,392.446 42.387,392.69C42.326,392.873 43.669,393.972 43.787,394.216C43.909,394.643 43.36,395.01 42.993,395.071C42.566,395.193 42.444,394.827 42.016,394.461C41.65,394.034 41.467,393.79 41.406,394.095C41.418,394.665 41.717,395.192 42.2,395.495C42.566,395.739 42.932,395.8 42.81,396.166C42.688,396.532 42.81,396.288 42.444,396.715C42.123,396.957 41.959,397.355 42.017,397.753C41.997,398.085 41.936,398.413 41.834,398.73C41.407,399.096 41.224,398.73 41.102,399.34M50.075,395.983C50.38,395.983 50.807,396.349 50.624,396.471C50.37,396.604 50.061,396.58 49.83,396.41C49.586,396.288 49.952,396.044 50.074,395.983M49.708,395.739C49.598,395.664 49.513,395.558 49.464,395.434C49.455,395.412 49.451,395.388 49.451,395.365C49.451,395.262 49.536,395.177 49.639,395.177C49.662,395.177 49.686,395.181 49.708,395.19C49.897,395.289 50.032,395.469 50.074,395.678C50.074,395.8 49.83,395.8 49.708,395.739M45.985,395.739C45.731,395.872 45.422,395.848 45.191,395.678C45.008,395.495 45.313,395.251 45.435,395.251C45.74,395.19 46.167,395.617 45.984,395.739M42.566,397.387C42.444,397.57 42.139,398.974 41.895,398.852C41.712,398.669 41.956,397.204 42.017,397.082C42.444,396.472 43.117,396.533 42.566,397.387M43.726,402.88C42.918,402.878 42.116,402.755 41.345,402.514C41.208,402.419 41.157,402.24 41.223,402.087C41.548,401.481 42.184,401.104 42.871,401.11C44.214,400.988 46.045,401.965 46.289,401.842C46.594,401.659 47.144,400.926 47.998,400.987C48.274,400.98 48.547,401.043 48.792,401.17C47.329,402.265 45.553,402.864 43.726,402.879M49.647,400.437C49.555,400.422 49.47,400.379 49.403,400.315C48.915,400.071 48.976,400.437 48.793,400.376C48.549,400.315 49.037,399.766 48.366,400.193C47.695,400.62 47.878,400.132 47.572,399.4C47.389,398.684 47.752,397.932 48.427,397.63C49.159,397.386 49.587,397.325 49.953,397.203C50.991,396.959 51.174,396.348 51.353,396.715C51.414,396.776 51.414,396.837 51.475,396.898C51.558,397.069 51.6,397.257 51.597,397.447C51.151,398.564 50.487,399.58 49.644,400.438M51.963,396.165C51.719,396.104 50.803,394.822 51.536,393.965C51.658,393.843 51.292,393.416 51.414,393.416C51.841,393.355 52.024,393.66 52.146,394.026L52.146,394.514L51.963,396.162" style="fill:white;fill-rule:nonzero;"/>
                        </g>
                        <g transform="matrix(1,0,0,1,-2.343,-321.823)">
                            <path d="M9.668,327.5L9.668,341.173L7.348,341.173L7.348,330.735L5.7,332.383L5.7,330L7.836,327.5L9.668,327.5Z" style="fill:white;fill-rule:nonzero;"/>
                        </g>
                        <g transform="matrix(1,0,0,1,-5.615,-321.744)">
                            <path d="M20.509,330.412L20.509,331.572C20.573,332.586 19.905,333.513 18.922,333.772C20.007,333.975 20.759,334.996 20.631,336.092L20.631,338.1C20.631,339.992 19.593,341.213 17.274,341.213C14.955,341.213 14.1,339.873 14.1,337.8L14.1,336.03L16.175,336.03L16.175,337.983C16.175,338.776 16.48,339.326 17.275,339.326C18.007,339.326 18.313,338.838 18.313,338.105L18.313,335.847C18.313,335.115 18.008,334.747 17.213,334.747L16.236,334.747L16.236,332.977L17.091,332.977C17.823,332.977 18.312,332.611 18.312,331.877L18.312,330.412C18.312,329.68 18.068,329.191 17.335,329.191C16.602,329.191 16.358,329.679 16.358,330.534L16.358,331.934L14.283,331.934L14.283,330.713C14.283,328.699 15.138,327.295 17.518,327.295C19.593,327.234 20.509,328.455 20.509,330.408" style="fill:white;fill-rule:nonzero;"/>
                        </g>
                        <g transform="matrix(1,0,0,1,-11.693,-321.862)">
                            <path d="M32.325,329.614L31.654,333.337L31.227,333.337L30.495,329.614L30.495,333.337L29.7,333.337L29.7,327.6L30.8,327.6L31.471,330.835L32.02,327.6L33.24,327.6L33.24,333.338L32.324,333.338L32.325,329.614Z" style="fill:white;fill-rule:nonzero;"/>
                        </g>
                        <g transform="matrix(1,0,0,1,-14.187,-321.862)">
                            <path d="M36.1,327.6L38.419,327.6L38.419,328.393L37.077,328.393L37.077,330.041L38.054,330.041L38.054,330.835L37.077,330.835L37.077,332.605L38.42,332.605L38.42,333.337L36.1,333.337L36.1,327.6Z" style="fill:white;fill-rule:nonzero;"/>
                        </g>
                        <g transform="matrix(1,0,0,1,-15.862,-321.823)">
                            <path d="M40.4,332.078L40.4,331.285L41.316,331.285L41.316,332.078C41.316,332.383 41.438,332.566 41.804,332.566C42.109,332.566 42.231,332.383 42.231,332.078L42.231,331.834C42.229,331.515 42.069,331.217 41.804,331.04L41.255,330.491C40.764,330.137 40.468,329.57 40.461,328.965L40.461,328.782C40.459,328.752 40.458,328.722 40.458,328.692C40.458,328.033 40.999,327.492 41.658,327.492C41.705,327.492 41.753,327.494 41.8,327.5C42.777,327.5 43.143,327.988 43.143,328.782L43.143,329.27L42.288,329.27L42.288,328.782C42.289,328.768 42.29,328.755 42.29,328.741C42.29,328.495 42.087,328.292 41.841,328.292C41.827,328.292 41.814,328.293 41.8,328.294L41.793,328.294C41.529,328.294 41.312,328.511 41.312,328.775L41.312,328.904C41.312,329.209 41.495,329.392 41.8,329.697L42.41,330.307C42.901,330.661 43.197,331.228 43.204,331.833L43.204,332.138C43.208,332.176 43.209,332.215 43.209,332.253C43.209,332.933 42.65,333.492 41.97,333.492C41.915,333.492 41.859,333.488 41.804,333.481C40.766,333.42 40.404,332.871 40.404,332.081" style="fill:white;fill-rule:nonzero;"/>
                        </g>
                        <g transform="matrix(1,0,0,1,-17.849,-321.862)">
                            <path d="M48.308,327.6L48.308,331.934C48.308,332.85 47.942,333.399 46.965,333.399C46.904,333.408 46.842,333.412 46.781,333.412C46.071,333.412 45.487,332.828 45.487,332.118C45.487,332.057 45.491,331.995 45.5,331.934L45.5,327.6L46.477,327.6L46.477,332.056C46.477,332.422 46.599,332.605 46.965,332.605C47.331,332.605 47.453,332.361 47.453,332.056L47.453,327.6L48.308,327.6Z" style="fill:white;fill-rule:nonzero;"/>
                        </g>
                        <g transform="matrix(1,0,0,1,-19.875,-321.862)">
                            <path d="M51.677,330.713L51.677,333.338L50.7,333.338L50.7,327.6L52.1,327.6C53.077,327.6 53.443,328.088 53.443,328.882L53.443,329.614C53.519,330.132 53.165,330.623 52.649,330.714L53.565,333.339L52.531,333.339L51.677,330.713ZM51.677,328.332L51.677,330.163L51.982,330.163C51.996,330.164 52.009,330.165 52.023,330.165C52.269,330.165 52.472,329.962 52.472,329.716C52.472,329.702 52.471,329.689 52.47,329.675L52.47,328.82C52.47,328.515 52.348,328.332 51.982,328.332L51.677,328.332Z" style="fill:white;fill-rule:nonzero;"/>
                        </g>
                        <g transform="matrix(1,0,0,1,-21.862,-321.862)">
                            <path d="M55.8,327.6L58.119,327.6L58.119,328.393L56.777,328.393L56.777,330.041L57.754,330.041L57.754,330.835L56.777,330.835L56.777,332.605L58.12,332.605L58.12,333.337L55.8,333.337L55.8,327.6Z" style="fill:white;fill-rule:nonzero;"/>
                        </g>
                        <g transform="matrix(1,0,0,1,-23.498,-321.823)">
                            <path d="M60,332.078L60,331.285L60.916,331.285L60.916,332.078C60.916,332.383 61.038,332.566 61.404,332.566C61.709,332.566 61.831,332.383 61.831,332.078L61.831,331.834C61.829,331.515 61.669,331.217 61.404,331.04L60.855,330.491C60.364,330.137 60.068,329.57 60.061,328.965L60.061,328.782C60.059,328.752 60.058,328.722 60.058,328.692C60.058,328.033 60.599,327.492 61.258,327.492C61.305,327.492 61.353,327.494 61.4,327.5C62.377,327.5 62.743,327.988 62.743,328.782L62.743,329.27L61.827,329.27L61.827,328.782C61.828,328.768 61.829,328.755 61.829,328.741C61.829,328.495 61.626,328.292 61.38,328.292C61.366,328.292 61.353,328.293 61.339,328.294L61.332,328.294C61.068,328.294 60.851,328.511 60.851,328.775L60.851,328.904C60.851,329.209 61.034,329.392 61.339,329.697L61.949,330.307C62.44,330.661 62.736,331.228 62.743,331.833L62.743,332.138C62.687,332.849 62.087,333.405 61.373,333.405C60.637,333.405 60.025,332.814 60,332.078" style="fill:white;fill-rule:nonzero;"/>
                        </g>
                        <g transform="matrix(1,0,0,1,-26.421,-321.862)">
                            <path d="M68.477,330.713L68.477,333.338L67.5,333.338L67.5,327.6L68.9,327.6C69.877,327.6 70.243,328.088 70.243,328.882L70.243,329.614C70.319,330.132 69.965,330.623 69.449,330.714L70.365,333.339L69.331,333.339L68.477,330.713ZM68.477,328.332L68.477,330.163L68.782,330.163C68.796,330.164 68.809,330.165 68.823,330.165C69.069,330.165 69.272,329.962 69.272,329.716C69.272,329.702 69.271,329.689 69.27,329.675L69.27,328.82C69.27,328.515 69.148,328.332 68.782,328.332L68.477,328.332Z" style="fill:white;fill-rule:nonzero;"/>
                        </g>
                        <g transform="matrix(1,0,0,1,-28.446,-321.862)">
                            <path d="M72.7,327.6L74.958,327.6L74.958,328.393L73.616,328.393L73.616,330.041L74.593,330.041L74.593,330.835L73.616,330.835L73.616,332.605L74.959,332.605L74.959,333.337L72.7,333.337L72.7,327.6Z" style="fill:white;fill-rule:nonzero;"/>
                        </g>
                        <g transform="matrix(1,0,0,1,-30.122,-321.862)">
                            <path d="M77,327.6L77.977,327.6L77.977,332.605L79.137,332.605L79.137,333.337L77,333.337L77,327.6Z" style="fill:white;fill-rule:nonzero;"/>
                        </g>
                        <g transform="matrix(1,0,0,1,-31.563,-321.862)">
                            <path d="M80.7,333.338L81.8,327.6L82.9,327.6L84,333.338L83.02,333.338L82.837,332.3L81.8,332.3L81.617,333.338L80.7,333.338ZM81.921,331.568L82.715,331.568L82.349,329.249L81.921,331.568Z" style="fill:white;fill-rule:nonzero;"/>
                        </g>
                        <g transform="matrix(1,0,0,1,-33.472,-321.862)">
                            <path d="M85.6,327.6L88.164,327.6L88.164,328.393L87.37,328.393L87.37,333.337L86.393,333.337L86.393,328.393L85.6,328.393L85.6,327.6Z" style="fill:white;fill-rule:nonzero;"/>
                        </g>
                        <g transform="matrix(1,0,0,1,54.997,5.738)">
                            <rect x="0" y="0" width="0.977" height="5.738" style="fill:white;"/>
                        </g>
                        <g transform="matrix(1,0,0,1,-36.083,-321.862)">
                            <path d="M95.535,327.6L94.435,333.338L93.4,333.338L92.3,327.6L93.277,327.6L93.948,331.629L94.619,327.6L95.535,327.6Z" style="fill:white;fill-rule:nonzero;"/>
                        </g>
                        <g transform="matrix(1,0,0,1,-38.303,-321.862)">
                            <path d="M98,327.6L100.319,327.6L100.319,328.393L98.977,328.393L98.977,330.041L99.954,330.041L99.954,330.835L98.977,330.835L98.977,332.605L100.32,332.605L100.32,333.337L98,333.337L98,327.6Z" style="fill:white;fill-rule:nonzero;"/>
                        </g>
                        <g transform="matrix(1,0,0,1,-39.94,-321.823)">
                            <path d="M102.2,332.078L102.2,331.285L103.116,331.285L103.116,332.078C103.116,332.383 103.238,332.566 103.604,332.566C103.909,332.566 104.031,332.383 104.031,332.078L104.031,331.834C104.029,331.515 103.869,331.217 103.604,331.04L103.055,330.491C102.564,330.137 102.268,329.57 102.261,328.965L102.261,328.782C102.259,328.752 102.258,328.722 102.258,328.692C102.258,328.033 102.799,327.492 103.458,327.492C103.505,327.492 103.553,327.494 103.6,327.5C104.577,327.5 104.943,327.988 104.943,328.782L104.943,329.27L104.088,329.27L104.088,328.782C104.089,328.768 104.09,328.755 104.09,328.741C104.09,328.495 103.887,328.292 103.641,328.292C103.627,328.292 103.614,328.293 103.6,328.294L103.593,328.294C103.329,328.294 103.112,328.511 103.112,328.775L103.112,328.904C103.112,329.209 103.295,329.392 103.6,329.697L104.21,330.307C104.701,330.661 104.997,331.228 105.004,331.833L105.004,332.138C105.008,332.176 105.009,332.215 105.009,332.253C105.009,332.933 104.45,333.492 103.77,333.492C103.715,333.492 103.659,333.488 103.604,333.481C103.563,333.485 103.522,333.487 103.481,333.487C102.777,333.487 102.198,332.908 102.198,332.204C102.198,332.163 102.2,332.122 102.204,332.081" style="fill:white;fill-rule:nonzero;"/>
                        </g>
                        <g transform="matrix(1,0,0,1,-11.576,-326.07)">
                            <path d="M29.4,345.236L30.5,339.498L31.6,339.498L32.7,345.236L31.723,345.236L31.54,344.198L30.5,344.198L30.317,345.236L29.4,345.236ZM30.255,338.4L31.781,338.705L31.781,339.254L30.255,339.071L30.255,338.4ZM30.621,343.405L31.415,343.405L31.049,341.085L30.621,343.405Z" style="fill:white;fill-rule:nonzero;"/>
                        </g>
                        <g transform="matrix(1,0,0,1,-14.304,-326.732)">
                            <path d="M36.4,340.1L37.377,340.1L37.377,345.105L38.537,345.105L38.537,345.899L36.4,345.899L36.4,340.1Z" style="fill:white;fill-rule:nonzero;"/>
                        </g>
                        <g transform="matrix(1,0,0,1,-15.745,-326.771)">
                            <path d="M40.1,345.938L41.2,340.2L42.3,340.2L43.4,345.938L42.423,345.938L42.24,344.9L41.2,344.9L41.017,345.938L40.1,345.938ZM41.321,344.107L42.115,344.107L41.749,341.788L41.321,344.107Z" style="fill:white;fill-rule:nonzero;"/>
                        </g>
                        <g transform="matrix(1,0,0,1,-18.473,-326.732)">
                            <path d="M47.1,340.1L48.077,340.1L48.077,345.105L49.177,345.105L49.177,345.899L47.1,345.899L47.1,340.1Z" style="fill:white;fill-rule:nonzero;"/>
                        </g>
                        <g transform="matrix(1,0,0,1,-19.953,-326.732)">
                            <path d="M53.708,340.1L53.708,344.434C53.708,345.35 53.342,345.899 52.365,345.899C52.304,345.908 52.242,345.912 52.181,345.912C51.471,345.912 50.887,345.328 50.887,344.618C50.887,344.557 50.891,344.495 50.9,344.434L50.9,340.1L51.877,340.1L51.877,344.556C51.877,344.922 51.999,345.105 52.365,345.105C52.731,345.105 52.853,344.861 52.853,344.556L52.853,340.1L53.708,340.1Z" style="fill:white;fill-rule:nonzero;"/>
                        </g>
                        <g transform="matrix(1,0,0,1,-21.901,-326.732)">
                            <path d="M55.9,340.1L58.464,340.1L58.464,340.894L57.67,340.894L57.67,345.9L56.693,345.9L56.693,340.895L55.9,340.895L55.9,340.1Z" style="fill:white;fill-rule:nonzero;"/>
                        </g>
                        <g transform="matrix(1,0,0,1,-23.654,-326.732)">
                            <path d="M60.4,340.1L63.025,340.1L63.025,340.894L62.231,340.894L62.231,345.9L61.254,345.9L61.254,340.895L60.4,340.895L60.4,340.1Z" style="fill:white;fill-rule:nonzero;"/>
                        </g>
                        <g transform="matrix(1,0,0,1,-25.485,-326.732)">
                            <path d="M65.1,340.1L67.419,340.1L67.419,340.894L66.077,340.894L66.077,342.542L67.054,342.542L67.054,343.336L66.077,343.336L66.077,345.106L67.42,345.106L67.42,345.9L65.1,345.9L65.1,340.1Z" style="fill:white;fill-rule:nonzero;"/>
                        </g>
                        <g transform="matrix(1,0,0,1,-27.667,-326.693)">
                            <path d="M70.7,344.334L70.7,341.526C70.69,341.461 70.686,341.396 70.686,341.331C70.686,340.597 71.29,339.993 72.024,339.993C72.071,339.993 72.118,339.995 72.165,340C73.265,340 73.508,340.61 73.508,341.465L73.508,342.136L72.653,342.136L72.653,341.4C72.653,341.034 72.531,340.851 72.165,340.851C71.799,340.851 71.677,341.095 71.677,341.461L71.677,344.574C71.677,344.94 71.799,345.184 72.165,345.184C72.531,345.184 72.653,344.94 72.653,344.635L72.653,343.6L73.508,343.6L73.508,344.577C73.508,345.432 73.142,346.042 72.165,346.042C71.346,346.008 70.69,345.324 70.69,344.504C70.69,344.447 70.694,344.39 70.7,344.333" style="fill:white;fill-rule:nonzero;"/>
                        </g>
                        <g transform="matrix(1,0,0,1,-29.693,-326.693)">
                            <path d="M75.9,344.334L75.9,341.526C75.89,341.461 75.886,341.396 75.886,341.331C75.886,340.597 76.49,339.993 77.224,339.993C77.271,339.993 77.318,339.995 77.365,340C77.402,339.997 77.44,339.995 77.477,339.995C78.225,339.995 78.84,340.611 78.84,341.358C78.84,341.414 78.837,341.47 78.83,341.526L78.83,344.334C78.84,344.399 78.844,344.464 78.844,344.529C78.844,345.263 78.24,345.867 77.506,345.867C77.459,345.867 77.412,345.865 77.365,345.86C76.327,345.921 75.9,345.25 75.9,344.334M77.853,344.517L77.853,341.4C77.853,341.034 77.67,340.79 77.365,340.79C76.999,340.79 76.877,341.034 76.877,341.4L76.877,344.513C76.877,344.879 77.06,345.123 77.365,345.123C77.731,345.123 77.853,344.879 77.853,344.513" style="fill:white;fill-rule:nonzero;"/>
                        </g>
                        <g transform="matrix(1,0,0,1,-31.836,-326.732)">
                            <path d="M82.194,342.3L82.194,345.9L81.4,345.9L81.4,340.1L82.316,340.1L83.354,343.457L83.354,340.1L84.148,340.1L84.148,345.9L83.354,345.9L82.194,342.3Z" style="fill:white;fill-rule:nonzero;"/>
                        </g>
                        <g transform="matrix(1,0,0,1,-33.784,-326.732)">
                            <path d="M86.4,340.1L88.964,340.1L88.964,340.894L88.17,340.894L88.17,345.9L87.193,345.9L87.193,340.895L86.4,340.895L86.4,340.1Z" style="fill:white;fill-rule:nonzero;"/>
                        </g>
                        <g transform="matrix(1,0,0,1,-35.615,-326.771)">
                            <path d="M92.077,343.313L92.077,345.938L91.1,345.938L91.1,340.2L92.5,340.2C93.477,340.2 93.843,340.688 93.843,341.482L93.843,342.214C93.919,342.732 93.565,343.223 93.049,343.314L93.965,345.939L92.931,345.939L92.077,343.313ZM92.077,340.871L92.077,342.702L92.382,342.702C92.396,342.703 92.409,342.704 92.423,342.704C92.669,342.704 92.872,342.501 92.872,342.255C92.872,342.241 92.871,342.228 92.87,342.214L92.87,341.359C92.87,341.054 92.748,340.871 92.382,340.871L92.077,340.871Z" style="fill:white;fill-rule:nonzero;"/>
                        </g>
                        <g transform="matrix(1,0,0,1,-37.602,-326.732)">
                            <path d="M96.2,340.1L98.519,340.1L98.519,340.894L97.177,340.894L97.177,342.542L98.154,342.542L98.154,343.336L97.177,343.336L97.177,345.106L98.52,345.106L98.52,345.9L96.2,345.9L96.2,340.1Z" style="fill:white;fill-rule:nonzero;"/>
                        </g>
                        <g transform="matrix(1,0,0,1,-11.693,-331.641)">
                            <path d="M29.7,352.7L30.677,352.7L30.677,357.644L31.837,357.644L31.837,358.438L29.7,358.438L29.7,352.7Z" style="fill:white;fill-rule:nonzero;"/>
                        </g>
                        <g transform="matrix(1,0,0,1,-13.213,-331.641)">
                            <path d="M33.6,352.7L35.919,352.7L35.919,353.493L34.577,353.493L34.577,355.141L35.554,355.141L35.554,355.873L34.577,355.873L34.577,357.643L35.92,357.643L35.92,358.437L33.6,358.437L33.6,352.7Z" style="fill:white;fill-rule:nonzero;"/>
                        </g>
                        <g transform="matrix(1,0,0,1,-14.849,-331.602)">
                            <path d="M37.8,357.178L37.8,356.385L38.716,356.385L38.716,357.178C38.716,357.483 38.838,357.666 39.204,357.666C39.509,357.666 39.631,357.483 39.631,357.178L39.631,356.934C39.629,356.615 39.469,356.318 39.204,356.141L38.655,355.592C38.164,355.238 37.868,354.671 37.861,354.066L37.861,353.883C37.859,353.853 37.858,353.822 37.858,353.792C37.858,353.133 38.399,352.592 39.058,352.592C39.105,352.592 39.153,352.594 39.2,352.6C40.177,352.6 40.543,353.088 40.543,353.882L40.543,354.37L39.688,354.37L39.688,353.882C39.689,353.868 39.69,353.855 39.69,353.841C39.69,353.595 39.487,353.392 39.241,353.392C39.227,353.392 39.214,353.393 39.2,353.394L39.193,353.394C38.929,353.394 38.712,353.611 38.712,353.875L38.712,354C38.712,354.305 38.895,354.488 39.2,354.793L39.81,355.403C40.301,355.757 40.597,356.324 40.604,356.929L40.604,357.234C40.608,357.272 40.609,357.311 40.609,357.349C40.609,358.029 40.05,358.588 39.37,358.588C39.315,358.588 39.259,358.584 39.204,358.577C38.227,358.455 37.804,357.905 37.804,357.177" style="fill:white;fill-rule:nonzero;"/>
                        </g>
                        <g transform="matrix(1,0,0,1,-17.343,-331.603)">
                            <path d="M44.2,356.934L44.2,354.126C44.19,354.061 44.186,353.996 44.186,353.931C44.186,353.197 44.79,352.593 45.524,352.593C45.571,352.593 45.618,352.595 45.665,352.6C46.765,352.6 47.008,353.21 47.008,354.065L47.008,354.736L46.153,354.736L46.153,354C46.153,353.634 46.031,353.451 45.665,353.451C45.299,353.451 45.177,353.695 45.177,354.061L45.177,357.174C45.177,357.54 45.299,357.784 45.665,357.784C46.031,357.784 46.153,357.54 46.153,357.235L46.153,356.2L47.008,356.2L47.008,357.177C47.017,357.238 47.021,357.299 47.021,357.361C47.021,358.065 46.442,358.644 45.738,358.644C45.714,358.644 45.689,358.643 45.665,358.642C44.798,358.568 44.141,357.801 44.2,356.933" style="fill:white;fill-rule:nonzero;"/>
                        </g>
                        <g transform="matrix(1,0,0,1,-19.369,-331.641)">
                            <path d="M51.292,355.874L50.315,355.874L50.315,358.438L49.4,358.438L49.4,352.7L50.316,352.7L50.316,355.142L51.293,355.142L51.293,352.7L52.27,352.7L52.27,358.438L51.293,358.438L51.292,355.874Z" style="fill:white;fill-rule:nonzero;"/>
                        </g>
                        <g transform="matrix(1,0,0,1,-21.356,-331.641)">
                            <path d="M54.5,358.438L55.6,352.7L56.7,352.7L57.8,358.438L56.823,358.438L56.64,357.4L55.6,357.4L55.417,358.438L54.5,358.438ZM55.721,356.607L56.515,356.607L56.149,354.287L55.721,356.607Z" style="fill:white;fill-rule:nonzero;"/>
                        </g>
                        <g transform="matrix(1,0,0,1,-23.576,-331.641)">
                            <path d="M61.055,354.836L61.055,358.436L60.2,358.436L60.2,352.7L61.177,352.7L62.215,356L62.215,352.7L63.009,352.7L63.009,358.438L62.154,358.438L61.055,354.836Z" style="fill:white;fill-rule:nonzero;"/>
                        </g>
                        <g transform="matrix(1,0,0,1,-25.641,-331.603)">
                            <path d="M66.965,355.347L68.365,355.347L68.365,358.4L67.633,358.4L67.633,357.79C67.536,358.207 67.144,358.494 66.717,358.461C65.862,358.461 65.496,357.79 65.496,356.935L65.496,354.127C65.486,354.062 65.482,353.997 65.482,353.932C65.482,353.198 66.086,352.594 66.82,352.594C66.867,352.594 66.914,352.596 66.961,352.601C68.061,352.601 68.361,353.211 68.361,354.066L68.361,354.554L67.506,354.554L67.506,353.944C67.506,353.578 67.384,353.395 67.018,353.395C66.652,353.395 66.53,353.639 66.53,354.005L66.53,357.118C66.53,357.484 66.652,357.728 67.018,357.728C67.323,357.728 67.506,357.545 67.506,357.179L67.506,356.14L67.018,356.14L67.018,355.346L66.965,355.347Z" style="fill:white;fill-rule:nonzero;"/>
                        </g>
                        <g transform="matrix(1,0,0,1,-27.706,-331.641)">
                            <path d="M70.8,352.7L73.119,352.7L73.119,353.493L71.777,353.493L71.777,355.141L72.693,355.141L72.693,355.873L71.777,355.873L71.777,357.643L73.12,357.643L73.12,358.437L70.8,358.437L70.8,352.7Z" style="fill:white;fill-rule:nonzero;"/>
                        </g>
                        <g transform="matrix(1,0,0,1,-29.382,-331.641)">
                            <path d="M77.786,354.714L77.115,358.437L76.688,358.437L75.956,354.714L75.956,358.437L75.1,358.437L75.1,352.7L76.26,352.7L76.87,355.935L77.48,352.7L78.7,352.7L78.7,358.438L77.784,358.438L77.786,354.714Z" style="fill:white;fill-rule:nonzero;"/>
                        </g>
                        <g transform="matrix(1,0,0,1,-31.914,-331.641)">
                            <path d="M81.6,352.7L83.92,352.7L83.92,353.493L82.577,353.493L82.577,355.141L83.554,355.141L83.554,355.873L82.577,355.873L82.577,357.643L83.92,357.643L83.92,358.437L81.6,358.437L81.6,352.7Z" style="fill:white;fill-rule:nonzero;"/>
                        </g>
                        <g transform="matrix(1,0,0,1,-33.628,-331.641)">
                            <path d="M86.794,354.836L86.794,358.436L86,358.436L86,352.7L86.916,352.7L87.954,356L87.954,352.7L88.809,352.7L88.809,358.438L87.954,358.438L86.794,354.836Z" style="fill:white;fill-rule:nonzero;"/>
                        </g>
                        <g transform="matrix(1,0,0,1,-35.576,-331.641)">
                            <path d="M91,352.7L93.564,352.7L93.564,353.493L92.77,353.493L92.77,358.437L91.793,358.437L91.793,353.493L91,353.493L91,352.7Z" style="fill:white;fill-rule:nonzero;"/>
                        </g>
                        <g transform="matrix(1,0,0,1,-37.329,-331.602)">
                            <path d="M95.5,357.178L95.5,356.385L96.416,356.385L96.416,357.178C96.416,357.483 96.538,357.666 96.904,357.666C97.209,357.666 97.331,357.483 97.331,357.178L97.331,356.934C97.329,356.615 97.169,356.318 96.904,356.141L96.355,355.592C95.864,355.238 95.568,354.671 95.561,354.066L95.561,353.883C95.559,353.853 95.558,353.822 95.558,353.792C95.558,353.133 96.099,352.592 96.758,352.592C96.805,352.592 96.853,352.594 96.9,352.6C97.877,352.6 98.243,353.088 98.243,353.882L98.243,354.37L97.388,354.37L97.388,353.882C97.389,353.868 97.39,353.855 97.39,353.841C97.39,353.595 97.187,353.392 96.941,353.392C96.927,353.392 96.914,353.393 96.9,353.394L96.893,353.394C96.629,353.394 96.412,353.611 96.412,353.875L96.412,354C96.412,354.305 96.595,354.488 96.9,354.793L97.51,355.403C98.001,355.757 98.297,356.324 98.304,356.929L98.304,357.234C98.308,357.272 98.309,357.311 98.309,357.349C98.309,358.029 97.75,358.588 97.07,358.588C97.015,358.588 96.959,358.584 96.904,358.577C95.866,358.455 95.504,357.905 95.504,357.177" style="fill:white;fill-rule:nonzero;"/>
                        </g>
                        <g transform="matrix(1,0,0,1,-11.693,-336.473)">
                            <path d="M29.7,369.434L29.7,366.626C29.69,366.561 29.686,366.496 29.686,366.431C29.686,365.697 30.29,365.093 31.024,365.093C31.071,365.093 31.118,365.095 31.165,365.1C32.265,365.1 32.508,365.71 32.508,366.565L32.508,367.236L31.653,367.236L31.653,366.5C31.653,366.134 31.531,365.951 31.165,365.951C30.799,365.951 30.677,366.195 30.677,366.561L30.677,369.674C30.677,370.04 30.799,370.284 31.165,370.284C31.531,370.284 31.653,370.04 31.653,369.735L31.653,368.7L32.508,368.7L32.508,369.677C32.517,369.738 32.521,369.799 32.521,369.861C32.521,370.565 31.942,371.144 31.238,371.144C31.214,371.144 31.189,371.143 31.165,371.142C30.342,371.09 29.694,370.398 29.694,369.574C29.694,369.527 29.696,369.48 29.7,369.433" style="fill:white;fill-rule:nonzero;"/>
                        </g>
                        <g transform="matrix(1,0,0,1,-13.719,-336.511)">
                            <path d="M34.9,365.2L35.877,365.2L35.877,370.144L37.037,370.144L37.037,370.938L34.9,370.938L34.9,365.2Z" style="fill:white;fill-rule:nonzero;"/>
                        </g>
                        <g transform="matrix(1,0,0,1,23.561,28.688)">
                            <rect x="0" y="0" width="0.977" height="5.738" style="fill:white;"/>
                        </g>
                        <g transform="matrix(1,0,0,1,-16.135,-336.511)">
                            <path d="M43.725,367.214L43.054,370.937L42.627,370.937L41.895,367.214L41.895,370.937L41.1,370.937L41.1,365.2L42.2,365.2L42.81,368.435L42.871,368.435L43.42,365.2L44.64,365.2L44.64,370.938L43.724,370.938L43.725,367.214Z" style="fill:white;fill-rule:nonzero;"/>
                        </g>
                        <g transform="matrix(1,0,0,1,-18.55,-336.511)">
                            <path d="M47.3,370.938L48.4,365.2L49.5,365.2L50.6,370.938L49.558,370.938L49.375,369.9L48.338,369.9L48.155,370.938L47.3,370.938ZM48.521,369.107L49.315,369.107L48.949,366.788L48.521,369.107Z" style="fill:white;fill-rule:nonzero;"/>
                        </g>
                        <g transform="matrix(1,0,0,1,-20.46,-336.511)">
                            <path d="M52.2,365.2L54.764,365.2L54.764,365.994L53.97,365.994L53.97,370.938L52.993,370.938L52.993,365.994L52.2,365.994L52.2,365.2Z" style="fill:white;fill-rule:nonzero;"/>
                        </g>
                        <g transform="matrix(1,0,0,1,34.609,28.688)">
                            <rect x="0" y="0" width="0.977" height="5.738" style="fill:white;"/>
                        </g>
                        <g transform="matrix(1,0,0,1,-23.148,-336.511)">
                            <path d="M60.2,371.365L60.2,371C59.498,370.898 59.002,370.238 59.1,369.535L59.1,366.727C59.09,366.662 59.086,366.597 59.086,366.532C59.086,365.798 59.69,365.194 60.424,365.194C60.471,365.194 60.518,365.196 60.565,365.201C60.602,365.198 60.64,365.196 60.677,365.196C61.425,365.196 62.04,365.812 62.04,366.559C62.04,366.615 62.037,366.671 62.03,366.727L62.03,369.535C62.074,370.087 61.786,370.615 61.298,370.878L62.03,371L62.03,371.732L60.2,371.365ZM61.055,369.656L61.055,366.543C61.055,366.177 60.872,365.933 60.567,365.933C60.201,365.933 60.079,366.177 60.079,366.543L60.079,369.656C60.079,370.022 60.262,370.266 60.567,370.266C60.933,370.266 61.055,370.022 61.055,369.656" style="fill:white;fill-rule:nonzero;"/>
                        </g>
                        <g transform="matrix(1,0,0,1,-25.291,-336.511)">
                            <path d="M67.408,365.2L67.408,369.534C67.408,370.45 67.042,370.999 66.065,370.999C66.004,371.008 65.942,371.012 65.881,371.012C65.171,371.012 64.587,370.428 64.587,369.718C64.587,369.657 64.591,369.595 64.6,369.534L64.6,365.2L65.577,365.2L65.577,369.656C65.577,370.022 65.699,370.205 66.065,370.205C66.431,370.205 66.553,369.961 66.553,369.656L66.553,365.2L67.408,365.2Z" style="fill:white;fill-rule:nonzero;"/>
                        </g>
                        <g transform="matrix(1,0,0,1,-27.317,-336.511)">
                            <path d="M69.8,365.2L72.119,365.2L72.119,365.994L70.777,365.994L70.777,367.642L71.754,367.642L71.754,368.435L70.777,368.435L70.777,370.144L72.12,370.144L72.12,370.938L69.8,370.938L69.8,365.2Z" style="fill:white;fill-rule:nonzero;"/>
                        </g>
                        <g transform="matrix(1,0,0,1,-28.953,-336.473)">
                            <path d="M74,369.678L74,368.884L74.916,368.884L74.916,369.678C74.916,369.983 75.038,370.166 75.404,370.166C75.709,370.166 75.831,369.983 75.831,369.678L75.831,369.434C75.829,369.115 75.669,368.818 75.404,368.641L74.855,368.092C74.364,367.738 74.068,367.171 74.061,366.566L74.061,366.383C74.059,366.353 74.058,366.322 74.058,366.292C74.058,365.633 74.599,365.092 75.258,365.092C75.305,365.092 75.353,365.094 75.4,365.1C76.377,365.1 76.743,365.588 76.743,366.382L76.743,366.87L75.827,366.87L75.827,366.382C75.828,366.368 75.829,366.355 75.829,366.341C75.829,366.095 75.626,365.892 75.38,365.892C75.366,365.892 75.353,365.893 75.339,365.894L75.332,365.894C75.068,365.894 74.851,366.111 74.851,366.375L74.851,366.504C74.851,366.809 75.034,366.992 75.339,367.297L75.949,367.907C76.44,368.261 76.736,368.828 76.743,369.433L76.743,369.738C76.747,369.776 76.748,369.815 76.748,369.853C76.748,370.533 76.189,371.092 75.509,371.092C75.454,371.092 75.398,371.088 75.343,371.081L75.319,371.081C74.594,371.081 73.998,370.485 73.998,369.76C73.998,369.734 73.998,369.707 74,369.681" style="fill:white;fill-rule:nonzero;"/>
                        </g>
                    </g>
                </g>
            </g>
        </g>
    </g>
</svg>
