<?xml version="1.0" encoding="UTF-8" standalone="no"?>
<!DOCTYPE svg PUBLIC "-//W3C//DTD SVG 1.1//EN" "http://www.w3.org/Graphics/SVG/1.1/DTD/svg11.dtd">
<svg width="100%" height="100%" viewBox="0 0 68 68" version="1.1" xmlns="http://www.w3.org/2000/svg" xmlns:xlink="http://www.w3.org/1999/xlink" xml:space="preserve" xmlns:serif="http://www.serif.com/" style="fill-rule:evenodd;clip-rule:evenodd;stroke-linejoin:round;stroke-miterlimit:2;">
    <g id="Plan-de-travail1" serif:id="Plan de travail1" transform="matrix(0.985507,0,0,0.985507,0,0)">
        <rect x="0" y="0" width="69" height="69" style="fill:none;"/>
        <clipPath id="_clip1">
            <rect x="0" y="0" width="69" height="69"/>
        </clipPath>
        <g clipPath="url(#_clip1)">
            <g transform="matrix(1.01471,0,0,1.01656,0,0)">
                <g id="ODD15">
                    <rect x="0" y="0" width="68" height="67.876" style="fill:none;"/>
                    <g id="odd15-carre" transform="matrix(1,0,0,0.998176,0.062,0.0618869)">
                        <rect x="0" y="0" width="67.876" height="67.876" style="fill:rgb(64,174,73);"/>
                        <g transform="matrix(1,0,0,1,-263.37,-347.498)">
                            <path d="M291.936,393.4C292.001,393.404 292.054,393.457 292.058,393.522L292.058,398.466C292.054,398.531 292.001,398.584 291.936,398.588L289.922,398.588C289.857,398.584 289.804,398.531 289.8,398.466L289.8,393.522C289.804,393.457 289.857,393.404 289.922,393.4L291.936,393.4Z" style="fill:white;fill-rule:nonzero;"/>
                        </g>
                        <g transform="matrix(1,0,0,1,-257.643,-352.174)">
                            <path d="M308.183,405.4L275.222,405.4C275.161,405.4 275.1,405.461 275.1,405.583L275.1,407.6C275.104,407.665 275.157,407.718 275.222,407.722L308.183,407.722C308.248,407.718 308.301,407.665 308.305,407.6L308.305,405.586C308.366,405.464 308.244,405.403 308.183,405.403" style="fill:white;fill-rule:nonzero;"/>
                        </g>
                        <g transform="matrix(1,0,0,1,-257.643,-354.745)">
                            <path d="M308.183,412L275.222,412C275.157,412.004 275.104,412.057 275.1,412.122L275.1,414.136C275.104,414.201 275.157,414.254 275.222,414.258L308.183,414.258C308.248,414.254 308.301,414.201 308.305,414.136L308.305,412.122C308.366,412.061 308.244,412 308.183,412" style="fill:white;fill-rule:nonzero;"/>
                        </g>
                        <g transform="matrix(1,0,0,1,-271.201,-343.291)">
                            <path d="M315.455,383.7C314.635,383.047 313.633,382.662 312.586,382.6C311.601,382.608 310.657,383.003 309.961,383.7C309.914,383.749 309.892,383.816 309.9,383.883L309.9,384.066C309.887,384.164 309.936,384.261 310.022,384.31C310.083,384.371 310.144,384.371 310.266,384.371L310.327,384.371C310.388,384.371 310.449,384.31 310.51,384.249C310.923,384.031 311.386,383.926 311.853,383.944C313.126,383.97 314.345,384.47 315.271,385.344L315.332,385.344C315.415,385.42 315.524,385.464 315.637,385.466C315.759,385.466 315.82,385.405 315.942,385.344C316.862,384.461 318.085,383.961 319.36,383.944C319.827,383.926 320.29,384.031 320.703,384.249C320.764,384.31 320.825,384.31 320.886,384.371L321.069,384.371C321.191,384.31 321.252,384.249 321.252,384.127L321.252,383.944C321.252,383.883 321.191,383.822 321.191,383.761C320.493,383.023 319.521,382.603 318.505,382.601C317.397,382.633 316.327,383.019 315.453,383.701" style="fill:white;fill-rule:nonzero;"/>
                        </g>
                        <g transform="matrix(1,0,0,1,-273.344,-335.42)">
                            <path d="M315.583,362.705C315.522,362.766 315.461,362.827 315.461,362.888L315.4,363.01C315.391,363.096 315.413,363.182 315.461,363.254C315.522,363.315 315.583,363.376 315.644,363.376L315.705,363.376C315.772,363.384 315.839,363.362 315.888,363.315L316.071,363.315C317.068,363.397 317.961,363.97 318.452,364.841L318.635,365.024L318.757,365.024C318.824,365.032 318.891,365.01 318.94,364.963C319.393,364.728 319.895,364.602 320.405,364.597C320.955,364.576 321.495,364.749 321.931,365.085C321.931,365.146 321.992,365.146 322.053,365.207C322.086,365.24 322.129,365.262 322.175,365.268L322.236,365.268C322.297,365.268 322.297,365.268 322.358,365.207C322.419,365.146 322.48,365.085 322.48,365.024L322.48,364.841C322.48,364.78 322.48,364.719 322.419,364.719C321.982,363.881 321.106,363.36 320.161,363.376C319.761,363.372 319.365,363.455 319.001,363.62C318.507,362.883 317.687,362.428 316.801,362.399C316.373,362.384 315.95,362.489 315.58,362.704" style="fill:white;fill-rule:nonzero;"/>
                        </g>
                        <g transform="matrix(1,0,0,1,-269.019,-337.836)">
                            <path d="M304.3,370.187L304.3,370.309C304.302,370.405 304.347,370.494 304.422,370.553C304.483,370.614 304.544,370.614 304.666,370.614L304.727,370.614C304.792,370.61 304.845,370.557 304.849,370.492C305.235,370.262 305.683,370.156 306.131,370.187C307.089,370.216 308.012,370.559 308.756,371.164C308.823,371.228 308.908,371.271 309,371.286C309.096,371.284 309.185,371.239 309.244,371.164C309.97,370.336 311.012,369.848 312.113,369.821C312.41,369.786 312.711,369.85 312.968,370.004C313.017,370.051 313.084,370.073 313.151,370.065L313.334,370.065C313.448,370.007 313.519,369.888 313.517,369.76L313.517,369.638C313.517,369.577 313.456,369.516 313.395,369.455C312.81,368.922 312.051,368.618 311.259,368.6C310.344,368.628 309.472,368.998 308.817,369.638C308.167,369.192 307.405,368.938 306.617,368.906C305.724,368.919 304.878,369.319 304.3,370L304.3,370.183" style="fill:white;fill-rule:nonzero;"/>
                        </g>
                        <g transform="matrix(1,0,0,1,-258.383,-335.382)">
                            <path d="M277,370.357C277.004,368.384 278.627,366.761 280.6,366.757L280.844,366.757C281.035,364.254 283.148,362.295 285.659,362.295C288.308,362.295 290.487,364.474 290.488,367.123C290.479,367.862 290.313,368.59 290,369.259C292.455,369.799 294.217,371.995 294.212,374.508C294.205,377.486 291.758,379.934 288.78,379.941C288.536,379.941 281.58,379.88 281.58,379.88L281.565,379.88C279.464,379.88 277.735,378.151 277.735,376.05L277.735,376.034C277.742,375.061 278.112,374.124 278.773,373.409C277.65,372.815 276.961,371.627 277.003,370.357" style="fill:white;fill-rule:nonzero;"/>
                        </g>
                        <g transform="matrix(1,0,0,1,-249.578,-321.823)">
                            <path d="M254.4,330L254.4,332.381L254.461,332.381L256.048,330.672L256.048,341.172L258.368,341.172L258.368,327.5L256.537,327.5L254.4,330Z" style="fill:white;fill-rule:nonzero;"/>
                        </g>
                        <g transform="matrix(1,0,0,1,-253.006,-321.823)">
                            <path d="M267.29,331.834C266.506,331.752 265.742,332.134 265.337,332.811L265.337,329.393L269.3,329.393L269.3,327.5L263.257,327.5L263.257,335.191L265.332,335.191L265.332,334.886C265.332,334.092 265.698,333.665 266.37,333.665C267.102,333.665 267.347,334.153 267.347,334.886L267.347,338.186C267.347,338.918 267.103,339.407 266.37,339.407C265.577,339.407 265.27,338.858 265.27,338.064L265.27,336.355L263.2,336.355L263.2,337.881C263.2,339.956 264.055,341.299 266.374,341.299C268.693,341.299 269.674,340.078 269.674,338.186L269.674,334.829C269.613,332.693 268.514,331.838 267.293,331.838" style="fill:white;fill-rule:nonzero;"/>
                        </g>
                        <g transform="matrix(1,0,0,1,-260.604,-321.862)">
                            <path d="M285.935,327.6L284.835,333.338L283.8,333.338L282.7,327.6L283.677,327.6L284.348,331.629L285.019,327.6L285.935,327.6Z" style="fill:white;fill-rule:nonzero;"/>
                        </g>
                        <g transform="matrix(1,0,0,1,25.759,5.738)">
                            <rect x="0" y="0" width="0.977" height="5.738" style="fill:white;"/>
                        </g>
                        <g transform="matrix(1,0,0,1,-263.915,-321.862)">
                            <path d="M291.2,327.6L293.52,327.6L293.52,328.393L292.177,328.393L292.177,330.041L293.093,330.041L293.093,330.835L292.177,330.835L292.177,332.605L293.52,332.605L293.52,333.337L291.2,333.337L291.2,327.6Z" style="fill:white;fill-rule:nonzero;"/>
                        </g>
                        <g transform="matrix(1,0,0,1,-260.643,-327.005)">
                            <path d="M282.8,340.8L285.364,340.8L285.364,341.594L284.571,341.594L284.571,346.6L283.594,346.6L283.594,341.595L282.8,341.595L282.8,340.8Z" style="fill:white;fill-rule:nonzero;"/>
                        </g>
                        <g transform="matrix(1,0,0,1,-262.552,-327.005)">
                            <path d="M287.7,340.8L290.019,340.8L290.019,341.594L288.676,341.594L288.676,343.242L289.653,343.242L289.653,344.036L288.676,344.036L288.676,345.806L290.019,345.806L290.019,346.6L287.7,346.6L287.7,340.8Z" style="fill:white;fill-rule:nonzero;"/>
                        </g>
                        <g transform="matrix(1,0,0,1,-264.344,-327.005)">
                            <path d="M293.277,343.913L293.277,346.538L292.3,346.538L292.3,340.8L293.7,340.8C294.677,340.8 295.043,341.288 295.043,342.082L295.043,342.814C295.119,343.332 294.765,343.823 294.249,343.914L295.165,346.539L294.127,346.539L293.277,343.913ZM293.277,341.533L293.277,343.364L293.582,343.364C293.596,343.365 293.609,343.366 293.623,343.366C293.869,343.366 294.072,343.163 294.072,342.917C294.072,342.903 294.071,342.89 294.07,342.876L294.07,342.021C294.07,341.716 293.948,341.533 293.582,341.533L293.277,341.533Z" style="fill:white;fill-rule:nonzero;"/>
                        </g>
                        <g transform="matrix(1,0,0,1,-266.448,-327.005)">
                            <path d="M298.677,343.913L298.677,346.538L297.7,346.538L297.7,340.8L299.1,340.8C300.077,340.8 300.443,341.288 300.443,342.082L300.443,342.814C300.519,343.332 300.165,343.823 299.65,343.914L300.566,346.539L299.528,346.539L298.677,343.913ZM298.677,341.533L298.677,343.364L298.982,343.364C298.996,343.365 299.009,343.366 299.023,343.366C299.269,343.366 299.472,343.163 299.472,342.917C299.472,342.903 299.471,342.89 299.47,342.876L299.47,342.021C299.47,341.716 299.348,341.533 298.982,341.533L298.677,341.533Z" style="fill:white;fill-rule:nonzero;"/>
                        </g>
                        <g transform="matrix(1,0,0,1,-268.552,-327.005)">
                            <path d="M303.1,340.8L305.419,340.8L305.419,341.594L304.076,341.594L304.076,343.242L304.992,343.242L304.992,344.036L304.076,344.036L304.076,345.806L305.419,345.806L305.419,346.6L303.1,346.6L303.1,340.8Z" style="fill:white;fill-rule:nonzero;"/>
                        </g>
                        <g transform="matrix(1,0,0,1,-270.305,-327.005)">
                            <path d="M307.6,345.317L307.6,344.584L308.516,344.584L308.516,345.378C308.516,345.683 308.638,345.866 309.004,345.866C309.309,345.866 309.431,345.683 309.431,345.378L309.431,345.134C309.429,344.815 309.269,344.518 309.004,344.341L308.455,343.792C307.964,343.438 307.669,342.871 307.662,342.266L307.662,342.083C307.66,342.053 307.659,342.022 307.659,341.992C307.659,341.333 308.2,340.792 308.859,340.792C308.906,340.792 308.953,340.794 309,340.8C309.977,340.8 310.343,341.288 310.343,342.082L310.343,342.57L309.488,342.57L309.488,342.082C309.489,342.068 309.49,342.055 309.49,342.041C309.49,341.795 309.287,341.592 309.041,341.592C309.027,341.592 309.014,341.593 309,341.594L308.993,341.594C308.729,341.594 308.512,341.811 308.512,342.075L308.512,342.204C308.512,342.509 308.695,342.692 309,342.997L309.61,343.607C310.159,344.156 310.404,344.462 310.404,345.072L310.404,345.377C310.408,345.415 310.409,345.454 310.409,345.492C310.409,346.172 309.85,346.731 309.17,346.731C309.115,346.731 309.059,346.727 309.004,346.72C307.966,346.659 307.604,346.11 307.604,345.32" style="fill:white;fill-rule:nonzero;"/>
                        </g>
                        <g transform="matrix(1,0,0,1,-272.214,-327.005)">
                            <path d="M312.5,340.8L315.125,340.8L315.125,341.594L314.332,341.594L314.332,346.6L313.355,346.6L313.355,341.595L312.5,341.595L312.5,340.8Z" style="fill:white;fill-rule:nonzero;"/>
                        </g>
                        <g transform="matrix(1,0,0,1,-274.162,-327.005)">
                            <path d="M318.477,343.913L318.477,346.538L317.5,346.538L317.5,340.8L318.9,340.8C319.877,340.8 320.243,341.288 320.243,342.082L320.243,342.814C320.319,343.332 319.965,343.823 319.449,343.914L320.365,346.539L319.327,346.539L318.477,343.913ZM318.477,341.533L318.477,343.364L318.782,343.364C318.796,343.365 318.809,343.366 318.823,343.366C319.069,343.366 319.272,343.163 319.272,342.917C319.272,342.903 319.271,342.89 319.27,342.876L319.27,342.021C319.27,341.716 319.148,341.533 318.782,341.533L318.477,341.533Z" style="fill:white;fill-rule:nonzero;"/>
                        </g>
                        <g transform="matrix(1,0,0,1,-276.266,-327.005)">
                            <path d="M322.9,340.8L325.158,340.8L325.158,341.594L323.876,341.594L323.876,343.242L324.792,343.242L324.792,344.036L323.876,344.036L323.876,345.806L325.158,345.806L325.158,346.6L322.9,346.6L322.9,340.8Z" style="fill:white;fill-rule:nonzero;"/>
                        </g>
                    </g>
                </g>
            </g>
        </g>
    </g>
</svg>
