<?xml version="1.0" encoding="UTF-8" standalone="no"?>
<!DOCTYPE svg PUBLIC "-//W3C//DTD SVG 1.1//EN" "http://www.w3.org/Graphics/SVG/1.1/DTD/svg11.dtd">
<svg width="100%" height="100%" viewBox="0 0 68 68" version="1.1" xmlns="http://www.w3.org/2000/svg" xmlns:xlink="http://www.w3.org/1999/xlink" xml:space="preserve" xmlns:serif="http://www.serif.com/" style="fill-rule:evenodd;clip-rule:evenodd;stroke-linejoin:round;stroke-miterlimit:2;">
    <g id="Plan-de-travail1" serif:id="Plan de travail1" transform="matrix(0.985507,0,0,0.985507,0,0)">
        <rect x="0" y="0" width="69" height="69" style="fill:none;"/>
        <clipPath id="_clip1">
            <rect x="0" y="0" width="69" height="69"/>
        </clipPath>
        <g clipPath="url(#_clip1)">
            <g transform="matrix(1.01471,0,0,1.01656,2.84217e-14,0)">
                <g id="ODD16">
                    <rect x="0" y="0" width="68" height="67.876" style="fill:none;"/>
                    <g id="odd16-carre" transform="matrix(1,0,0,0.998176,0.062,0.0618869)">
                        <rect x="0" y="0" width="67.876" height="67.876" style="fill:rgb(0,85,138);"/>
                        <g transform="matrix(1,0,0,1,-397.73,-338.576)">
                            <path d="M442.105,370.5C441.754,370.973 441.601,371.564 441.678,372.148C441.873,372.697 442.265,373.154 442.778,373.43C443.129,372.957 443.282,372.366 443.205,371.782C443.01,371.233 442.618,370.776 442.105,370.5" style="fill:white;fill-rule:nonzero;"/>
                        </g>
                        <g transform="matrix(1,0,0,1,-396.639,-339.706)">
                            <path d="M439.977,376.33C440.328,375.857 440.481,375.266 440.404,374.682C440.209,374.133 439.817,373.676 439.304,373.4C438.953,373.873 438.8,374.464 438.877,375.048C439.049,375.61 439.448,376.075 439.977,376.33" style="fill:white;fill-rule:nonzero;"/>
                        </g>
                        <g transform="matrix(1,0,0,1,-398.998,-340.483)">
                            <path d="M444.9,376.252C444.781,376.48 444.719,376.734 444.719,376.991C444.719,377.869 445.441,378.591 446.319,378.591C447.197,378.591 447.919,377.869 447.919,376.991C447.919,376.113 447.197,375.391 446.319,375.391C446.273,375.391 446.228,375.393 446.182,375.397C445.662,375.509 445.203,375.815 444.9,376.252" style="fill:white;fill-rule:nonzero;"/>
                        </g>
                        <g transform="matrix(1,0,0,1,-399.309,-338.419)">
                            <path d="M446.248,370.648C445.863,371.131 445.667,371.74 445.699,372.357C446.302,372.426 446.906,372.225 447.347,371.808C447.732,371.325 447.928,370.716 447.896,370.099C447.298,370.07 446.71,370.266 446.248,370.648" style="fill:white;fill-rule:nonzero;"/>
                        </g>
                        <g transform="matrix(1,0,0,1,-398.063,-341.69)">
                            <path d="M443.721,379.9C444.257,379.886 444.773,379.692 445.186,379.351C444.914,378.91 444.472,378.601 443.965,378.496C443.429,378.51 442.913,378.704 442.5,379.045C442.754,379.502 443.205,379.817 443.721,379.9" style="fill:white;fill-rule:nonzero;"/>
                        </g>
                        <g transform="matrix(1,0,0,1,-395.18,-350.187)">
                            <path d="M441.448,400.3L435.893,400.3C435.458,400.3 435.099,400.658 435.099,401.094C435.099,401.529 435.458,401.887 435.893,401.887L441.448,401.887C441.883,401.887 442.241,401.529 442.241,401.094C442.241,400.658 441.883,400.3 441.448,400.3" style="fill:white;fill-rule:nonzero;"/>
                        </g>
                        <g transform="matrix(1,0,0,1,-395.18,-355.719)">
                            <path d="M441.448,414.5L435.893,414.5C435.458,414.5 435.099,414.858 435.099,415.294C435.099,415.729 435.458,416.087 435.893,416.087L441.448,416.087C441.883,416.087 442.241,415.729 442.241,415.294C442.241,414.858 441.883,414.5 441.448,414.5" style="fill:white;fill-rule:nonzero;"/>
                        </g>
                        <g transform="matrix(1,0,0,1,-383.103,-348.901)">
                            <path d="M404.466,397.122C404.344,397.061 404.222,397.061 404.1,397C404.218,397.053 404.34,397.093 404.466,397.122" style="fill:white;fill-rule:nonzero;"/>
                        </g>
                        <g transform="matrix(1,0,0,1,-382.518,-339.979)">
                            <path d="M428.6,392.229L423.463,392.229C423.234,392.229 423.046,392.417 423.046,392.646L423.046,394.182L419.689,394.548L414.806,394.426L414.806,391.435C415.467,391.372 416.12,391.25 416.759,391.069C421.459,389.726 422.497,386.796 422.375,384.111C422.253,381.364 423.168,380.327 424.389,379.838C424.729,379.717 425.075,379.615 425.427,379.533C425.441,380.344 425.585,381.148 425.854,381.914L426.159,381.914C425.908,381.12 425.744,380.301 425.671,379.472C426.342,379.411 426.771,379.411 426.771,379.411C426.408,379.191 426.061,378.946 425.733,378.678C425.989,377.535 426.611,376.506 427.503,375.748C427.974,375.317 428.385,374.824 428.724,374.283L428.419,374.1C428.06,374.607 427.651,375.076 427.198,375.5C426.283,376.249 425.639,377.279 425.367,378.43C425.087,378.181 424.822,377.916 424.573,377.636C423.413,376.354 421.887,377.27 419.751,379.284C417.615,381.298 414.929,381.359 412.304,378.674C408.825,375.134 405.834,375.134 403.758,375.374C405.158,375.984 405.65,377.327 406.383,380.684C407.115,384.224 409.008,385.811 411.632,386.055C410.411,386.238 410.106,386.421 408.214,387.764C406.837,388.529 405.206,388.706 403.697,388.252C405.284,388.74 407.176,390.388 408.824,390.999C409.813,391.325 410.838,391.53 411.876,391.609L411.876,394.478L402.6,394.3L402.6,396.314L419.508,395.948L422.865,396.314L422.865,397.85C422.865,398.079 423.053,398.267 423.282,398.267L428.429,398.267C428.658,398.267 428.846,398.079 428.846,397.85L428.846,392.774C429.029,392.408 428.846,392.225 428.602,392.225M412.854,391.615L413.954,391.615L413.954,394.484L412.854,394.484L412.854,391.615Z" style="fill:white;fill-rule:nonzero;"/>
                        </g>
                        <g transform="matrix(1,0,0,1,-381.232,-352.524)">
                            <path d="M401.009,408.436C401.035,408.835 400.736,409.189 400.338,409.23L399.972,409.23C399.574,409.189 399.275,408.835 399.301,408.436L399.301,407.036C399.3,407.023 399.3,407.01 399.3,406.997C399.3,406.624 399.6,406.315 399.972,406.304L400.338,406.304C400.716,406.336 401.01,406.657 401.009,407.036L401.009,408.436Z" style="fill:white;fill-rule:nonzero;"/>
                        </g>
                        <g transform="matrix(1,0,0,1,-373.051,-321.823)">
                            <path d="M378.3,330L378.3,332.381L379.948,330.733L379.948,341.171L382.267,341.171L382.267,327.5L380.436,327.5L378.3,330Z" style="fill:white;fill-rule:nonzero;"/>
                        </g>
                        <g transform="matrix(1,0,0,1,-376.401,-321.745)">
                            <path d="M393.675,337.8L393.675,335.786C393.675,333.528 392.759,332.429 391.111,332.429C390.317,332.376 389.566,332.813 389.219,333.529L389.219,330.6C389.219,329.745 389.463,329.2 390.319,329.2C391.175,329.2 391.419,329.688 391.419,330.543L391.419,331.459L393.494,331.459L393.494,330.726C393.494,328.712 392.823,327.308 390.259,327.308C387.817,327.308 386.902,328.834 386.902,331.031L386.902,337.684C386.902,339.82 387.818,341.346 390.259,341.346C392.701,341.285 393.677,339.946 393.677,337.806M391.358,338.05C391.358,338.905 391.053,339.393 390.258,339.393C389.463,339.393 389.158,338.844 389.158,338.05L389.158,335.55C389.219,334.756 389.524,334.268 390.258,334.268C391.052,334.268 391.358,334.756 391.358,335.611L391.358,338.05Z" style="fill:white;fill-rule:nonzero;"/>
                        </g>
                        <g transform="matrix(1,0,0,1,-383.804,-321.862)">
                            <path d="M405.9,327.6L407.365,327.6C408.342,327.6 408.708,328.088 408.708,328.882L408.708,330.1C408.708,330.894 408.342,331.382 407.365,331.382L406.877,331.382L406.877,333.335L405.9,333.335L405.9,327.6ZM406.877,328.332L406.877,330.651L407.243,330.651C407.257,330.652 407.27,330.653 407.284,330.653C407.53,330.653 407.733,330.45 407.733,330.204C407.733,330.19 407.732,330.177 407.731,330.163L407.731,328.82C407.731,328.515 407.609,328.332 407.243,328.332L406.877,328.332Z" style="fill:white;fill-rule:nonzero;"/>
                        </g>
                        <g transform="matrix(1,0,0,1,-385.557,-321.862)">
                            <path d="M410.4,333.338L411.5,327.6L412.6,327.6L413.7,333.338L412.723,333.338L412.54,332.3L411.5,332.3L411.378,333.338L410.4,333.338ZM411.621,331.568L412.414,331.568L412.048,329.249L411.621,331.568Z" style="fill:white;fill-rule:nonzero;"/>
                        </g>
                        <g transform="matrix(1,0,0,1,28.566,5.738)">
                            <rect x="0" y="0" width="0.977" height="5.738" style="fill:white;"/>
                        </g>
                        <g transform="matrix(1,0,0,1,-388.83,-321.862)">
                            <path d="M419.716,330.347L418.861,327.6L419.9,327.6L420.388,329.492L420.937,327.6L421.914,327.6L421.059,330.347L421.975,333.338L420.937,333.338L420.327,331.202L419.717,333.338L418.8,333.338L419.716,330.347Z" style="fill:white;fill-rule:nonzero;"/>
                        </g>
                        <g transform="matrix(1,0,0,1,-391.09,-324.94)">
                            <path d="M425.638,335.622L425.15,336.904L424.6,336.904L424.722,335.504L425.638,335.504L425.638,335.622Z" style="fill:white;fill-rule:nonzero;"/>
                        </g>
                        <g transform="matrix(1,0,0,1,-392.648,-321.862)">
                            <path d="M431.225,327.6L431.225,332.056C431.225,332.911 430.859,333.456 429.882,333.456C429.828,333.464 429.773,333.468 429.718,333.468C429.098,333.468 428.588,332.958 428.588,332.338C428.588,332.283 428.592,332.228 428.6,332.174L428.6,331.014L429.516,331.014L429.516,332.174C429.516,332.479 429.638,332.662 429.882,332.662C430.126,332.662 430.248,332.479 430.248,332.174L430.248,327.6L431.225,327.6Z" style="fill:white;fill-rule:nonzero;"/>
                        </g>
                        <g transform="matrix(1,0,0,1,-394.674,-321.862)">
                            <path d="M436.608,327.6L436.608,331.934C436.608,332.85 436.242,333.399 435.265,333.399C435.204,333.408 435.142,333.412 435.081,333.412C434.371,333.412 433.787,332.828 433.787,332.118C433.787,332.057 433.791,331.995 433.8,331.934L433.8,327.6L434.777,327.6L434.777,332.056C434.777,332.422 434.899,332.605 435.265,332.605C435.631,332.605 435.753,332.361 435.753,332.056L435.753,327.6L436.608,327.6Z" style="fill:white;fill-rule:nonzero;"/>
                        </g>
                        <g transform="matrix(1,0,0,1,-396.817,-321.823)">
                            <path d="M439.3,332.078L439.3,331.285L440.216,331.285L440.216,332.078C440.216,332.383 440.338,332.566 440.704,332.566C441.009,332.566 441.131,332.383 441.131,332.078L441.131,331.834C441.129,331.515 440.969,331.217 440.704,331.04L440.155,330.491C439.664,330.137 439.368,329.57 439.361,328.965L439.361,328.782C439.359,328.752 439.358,328.722 439.358,328.692C439.358,328.033 439.899,327.492 440.558,327.492C440.605,327.492 440.653,327.494 440.7,327.5C441.677,327.5 442.043,327.988 442.043,328.782L442.043,329.27L441.188,329.27L441.188,328.782C441.189,328.768 441.19,328.755 441.19,328.741C441.19,328.495 440.987,328.292 440.741,328.292C440.727,328.292 440.714,328.293 440.7,328.294L440.693,328.294C440.429,328.294 440.212,328.511 440.212,328.775L440.212,328.904C440.212,329.209 440.395,329.392 440.7,329.697L441.31,330.307C441.801,330.661 442.096,331.228 442.103,331.833L442.103,332.138C442.107,332.176 442.108,332.215 442.108,332.253C442.108,332.933 441.549,333.492 440.869,333.492C440.814,333.492 440.758,333.488 440.703,333.481C439.665,333.42 439.303,332.871 439.303,332.081" style="fill:white;fill-rule:nonzero;"/>
                        </g>
                        <g transform="matrix(1,0,0,1,-398.726,-321.862)">
                            <path d="M444.2,327.6L446.825,327.6L446.825,328.393L446.032,328.393L446.032,333.337L445.055,333.337L445.055,328.393L444.2,328.393L444.2,327.6Z" style="fill:white;fill-rule:nonzero;"/>
                        </g>
                        <g transform="matrix(1,0,0,1,48.526,5.738)">
                            <rect x="0" y="0" width="0.977" height="5.738" style="fill:white;"/>
                        </g>
                        <g transform="matrix(1,0,0,1,-401.648,-321.823)">
                            <path d="M451.7,331.834L451.7,329.026C451.69,328.961 451.686,328.896 451.686,328.831C451.686,328.097 452.29,327.493 453.024,327.493C453.071,327.493 453.118,327.495 453.165,327.5C454.265,327.5 454.508,328.11 454.508,328.965L454.508,329.636L453.653,329.636L453.653,328.9C453.653,328.534 453.531,328.351 453.165,328.351C452.799,328.351 452.677,328.595 452.677,328.961L452.677,332.074C452.677,332.44 452.799,332.684 453.165,332.684C453.531,332.684 453.653,332.44 453.653,332.135L453.653,331.1L454.508,331.1L454.508,332.077C454.517,332.138 454.521,332.199 454.521,332.261C454.521,332.965 453.942,333.544 453.238,333.544C453.214,333.544 453.189,333.543 453.165,333.542C452.346,333.508 451.69,332.824 451.69,332.004C451.69,331.947 451.694,331.89 451.7,331.833" style="fill:white;fill-rule:nonzero;"/>
                        </g>
                        <g transform="matrix(1,0,0,1,-403.791,-321.862)">
                            <path d="M457.2,327.6L459.519,327.6L459.519,328.393L458.176,328.393L458.176,330.041L459.092,330.041L459.092,330.835L458.176,330.835L458.176,332.605L459.519,332.605L459.519,333.337L457.2,333.337L457.2,327.6Z" style="fill:white;fill-rule:nonzero;"/>
                        </g>
                        <g transform="matrix(1,0,0,1,-383.804,-327.005)">
                            <path d="M405.9,340.8L408.22,340.8L408.22,341.594L406.877,341.594L406.877,343.242L407.854,343.242L407.854,344.036L406.877,344.036L406.877,345.806L408.22,345.806L408.22,346.6L405.9,346.6L405.9,340.8Z" style="fill:white;fill-rule:nonzero;"/>
                        </g>
                        <g transform="matrix(1,0,0,1,-385.557,-327.005)">
                            <path d="M410.4,340.8L412.964,340.8L412.964,341.594L412.17,341.594L412.17,346.6L411.193,346.6L411.193,341.595L410.4,341.595L410.4,340.8Z" style="fill:white;fill-rule:nonzero;"/>
                        </g>
                        <g transform="matrix(1,0,0,1,28.75,13.795)">
                            <rect x="0" y="0" width="0.977" height="5.738" style="fill:white;"/>
                        </g>
                        <g transform="matrix(1,0,0,1,-389.024,-327.005)">
                            <path d="M420.094,342.936L420.094,346.6L419.3,346.6L419.3,340.8L420.216,340.8L421.254,344.157L421.254,340.8L422.108,340.8L422.108,346.6L421.254,346.6L420.094,342.936Z" style="fill:white;fill-rule:nonzero;"/>
                        </g>
                        <g transform="matrix(1,0,0,1,-391.128,-327.005)">
                            <path d="M424.7,345.317L424.7,344.584L425.616,344.584L425.616,345.378C425.616,345.683 425.738,345.866 426.104,345.866C426.409,345.866 426.531,345.683 426.531,345.378L426.531,345.134C426.529,344.815 426.369,344.518 426.104,344.341L425.555,343.792C425.064,343.438 424.768,342.871 424.761,342.266L424.761,342.083C424.759,342.053 424.758,342.022 424.758,341.992C424.758,341.333 425.299,340.792 425.958,340.792C426.005,340.792 426.053,340.794 426.1,340.8C427.077,340.8 427.443,341.288 427.443,342.082L427.443,342.57L426.588,342.57L426.588,342.082C426.589,342.068 426.59,342.055 426.59,342.041C426.59,341.795 426.387,341.592 426.141,341.592C426.127,341.592 426.114,341.593 426.1,341.594L426.093,341.594C425.829,341.594 425.612,341.811 425.612,342.075L425.612,342.204C425.612,342.509 425.795,342.692 426.1,342.997L426.71,343.607C427.259,344.156 427.503,344.462 427.503,345.072L427.503,345.377C427.507,345.415 427.508,345.454 427.508,345.492C427.508,346.172 426.949,346.731 426.269,346.731C426.214,346.731 426.158,346.727 426.103,346.72C425.065,346.659 424.703,346.11 424.703,345.32" style="fill:white;fill-rule:nonzero;"/>
                        </g>
                        <g transform="matrix(1,0,0,1,-393.076,-327.005)">
                            <path d="M429.7,340.8L432.264,340.8L432.264,341.594L431.471,341.594L431.471,346.6L430.494,346.6L430.494,341.595L429.7,341.595L429.7,340.8Z" style="fill:white;fill-rule:nonzero;"/>
                        </g>
                        <g transform="matrix(1,0,0,1,39.615,13.795)">
                            <rect x="0" y="0" width="0.977" height="5.738" style="fill:white;"/>
                        </g>
                        <g transform="matrix(1,0,0,1,-395.921,-327.005)">
                            <path d="M437,340.8L439.564,340.8L439.564,341.594L438.77,341.594L438.77,346.6L437.793,346.6L437.793,341.595L437,341.595L437,340.8Z" style="fill:white;fill-rule:nonzero;"/>
                        </g>
                        <g transform="matrix(1,0,0,1,-397.83,-327.005)">
                            <path d="M444.708,340.8L444.708,345.134C444.708,346.05 444.342,346.599 443.365,346.599C443.304,346.608 443.242,346.612 443.181,346.612C442.471,346.612 441.887,346.028 441.887,345.318C441.887,345.257 441.891,345.195 441.9,345.134L441.9,340.8L442.877,340.8L442.877,345.256C442.877,345.622 442.999,345.805 443.365,345.805C443.731,345.805 443.853,345.561 443.853,345.256L443.853,340.8L444.708,340.8Z" style="fill:white;fill-rule:nonzero;"/>
                        </g>
                        <g transform="matrix(1,0,0,1,-399.934,-327.005)">
                            <path d="M447.3,340.8L449.864,340.8L449.864,341.594L449.07,341.594L449.07,346.6L448.093,346.6L448.093,341.595L447.3,341.595L447.3,340.8Z" style="fill:white;fill-rule:nonzero;"/>
                        </g>
                        <g transform="matrix(1,0,0,1,50.357,13.795)">
                            <rect x="0" y="0" width="0.977" height="5.738" style="fill:white;"/>
                        </g>
                        <g transform="matrix(1,0,0,1,-402.817,-326.966)">
                            <path d="M454.7,345.034L454.7,342.226C454.69,342.161 454.686,342.096 454.686,342.031C454.686,341.297 455.29,340.693 456.024,340.693C456.071,340.693 456.118,340.695 456.165,340.7C456.202,340.697 456.24,340.695 456.277,340.695C457.025,340.695 457.64,341.311 457.64,342.058C457.64,342.114 457.637,342.17 457.63,342.226L457.63,345.034C457.64,345.099 457.644,345.164 457.644,345.229C457.644,345.963 457.04,346.567 456.306,346.567C456.259,346.567 456.212,346.565 456.165,346.56C455.127,346.621 454.7,345.95 454.7,345.034M456.653,345.217L456.653,342.1C456.653,341.734 456.47,341.49 456.165,341.49C455.799,341.49 455.677,341.734 455.677,342.1L455.677,345.213C455.677,345.579 455.86,345.823 456.165,345.823C456.531,345.823 456.653,345.579 456.653,345.213" style="fill:white;fill-rule:nonzero;"/>
                        </g>
                        <g transform="matrix(1,0,0,1,-405.037,-327.005)">
                            <path d="M461.255,342.936L461.255,346.6L460.4,346.6L460.4,340.8L461.377,340.8L462.415,344.157L462.415,340.8L463.209,340.8L463.209,346.6L462.354,346.6L461.255,342.936Z" style="fill:white;fill-rule:nonzero;"/>
                        </g>
                        <g transform="matrix(1,0,0,1,-407.141,-327.005)">
                            <path d="M465.8,345.317L465.8,344.584L466.716,344.584L466.716,345.378C466.716,345.683 466.838,345.866 467.204,345.866C467.509,345.866 467.631,345.683 467.631,345.378L467.631,345.134C467.629,344.815 467.469,344.518 467.204,344.341L466.655,343.792C466.164,343.438 465.868,342.871 465.861,342.266L465.861,342.083C465.859,342.053 465.858,342.022 465.858,341.992C465.858,341.333 466.399,340.792 467.058,340.792C467.105,340.792 467.153,340.794 467.2,340.8C468.177,340.8 468.543,341.288 468.543,342.082L468.543,342.57L467.688,342.57L467.688,342.082C467.689,342.068 467.69,342.055 467.69,342.041C467.69,341.795 467.487,341.592 467.241,341.592C467.227,341.592 467.214,341.593 467.2,341.594L467.193,341.594C466.929,341.594 466.712,341.811 466.712,342.075L466.712,342.204C466.712,342.509 466.895,342.692 467.2,342.997L467.81,343.607C468.359,344.156 468.604,344.462 468.604,345.072L468.604,345.377C468.608,345.415 468.609,345.454 468.609,345.492C468.609,346.172 468.05,346.731 467.37,346.731C467.315,346.731 467.259,346.727 467.204,346.72C467.173,346.722 467.143,346.723 467.112,346.723C466.393,346.723 465.801,346.131 465.801,345.412C465.801,345.381 465.802,345.351 465.804,345.32" style="fill:white;fill-rule:nonzero;"/>
                        </g>
                        <g transform="matrix(1,0,0,1,-383.804,-332.187)">
                            <path d="M405.9,354.1L408.22,354.1L408.22,354.894L406.877,354.894L406.877,356.542L407.854,356.542L407.854,357.274L406.877,357.274L406.877,359.044L408.22,359.044L408.22,359.838L405.9,359.838L405.9,354.1Z" style="fill:white;fill-rule:nonzero;"/>
                        </g>
                        <g transform="matrix(1,0,0,1,-385.596,-332.187)">
                            <path d="M410.5,354.1L412.758,354.1L412.758,354.894L411.476,354.894L411.476,356.542L412.453,356.542L412.453,357.274L411.476,357.274L411.476,359.838L410.5,359.838L410.5,354.1Z" style="fill:white;fill-rule:nonzero;"/>
                        </g>
                        <g transform="matrix(1,0,0,1,-387.31,-332.187)">
                            <path d="M414.9,354.1L417.219,354.1L417.219,354.894L415.876,354.894L415.876,356.542L416.853,356.542L416.853,357.274L415.876,357.274L415.876,359.838L414.9,359.838L414.9,354.1Z" style="fill:white;fill-rule:nonzero;"/>
                        </g>
                        <g transform="matrix(1,0,0,1,30.336,21.913)">
                            <rect x="0" y="0" width="0.977" height="5.738" style="fill:white;"/>
                        </g>
                        <g transform="matrix(1,0,0,1,-390.037,-332.148)">
                            <path d="M421.9,358.334L421.9,355.526C421.89,355.461 421.886,355.396 421.886,355.331C421.886,354.597 422.49,353.993 423.224,353.993C423.271,353.993 423.318,353.995 423.365,354C424.465,354 424.708,354.61 424.708,355.465L424.708,356.136L423.792,356.136L423.792,355.4C423.792,355.034 423.67,354.851 423.304,354.851C422.938,354.851 422.816,355.095 422.816,355.461L422.816,358.574C422.816,358.94 422.938,359.184 423.304,359.184C423.67,359.184 423.792,358.94 423.792,358.635L423.792,357.6L424.647,357.6L424.647,358.577C424.647,359.432 424.281,360.042 423.304,360.042C422.461,359.938 421.84,359.18 421.904,358.333" style="fill:white;fill-rule:nonzero;"/>
                        </g>
                        <g transform="matrix(1,0,0,1,-391.986,-332.187)">
                            <path d="M426.9,359.838L428,354.1L429.1,354.1L430.2,359.838L429.223,359.838L429.04,358.8L428,358.8L427.817,359.838L426.9,359.838ZM428.121,358.007L428.915,358.007L428.549,355.687L428.121,358.007Z" style="fill:white;fill-rule:nonzero;"/>
                        </g>
                        <g transform="matrix(1,0,0,1,-394.284,-332.148)">
                            <path d="M432.8,358.334L432.8,355.526C432.79,355.461 432.786,355.396 432.786,355.331C432.786,354.597 433.39,353.993 434.124,353.993C434.171,353.993 434.218,353.995 434.265,354C435.365,354 435.608,354.61 435.608,355.465L435.608,356.136L434.753,356.136L434.753,355.4C434.753,355.034 434.631,354.851 434.265,354.851C433.899,354.851 433.777,355.095 433.777,355.461L433.777,358.574C433.777,358.94 433.899,359.184 434.265,359.184C434.631,359.184 434.753,358.94 434.753,358.635L434.753,357.6L435.608,357.6L435.608,358.577C435.608,359.432 435.242,360.042 434.265,360.042C433.398,359.968 432.741,359.201 432.8,358.333" style="fill:white;fill-rule:nonzero;"/>
                        </g>
                        <g transform="matrix(1,0,0,1,-396.388,-332.187)">
                            <path d="M438.2,354.1L440.519,354.1L440.519,354.894L439.176,354.894L439.176,356.542L440.153,356.542L440.153,357.274L439.176,357.274L439.176,359.044L440.519,359.044L440.519,359.838L438.2,359.838L438.2,354.1Z" style="fill:white;fill-rule:nonzero;"/>
                        </g>
                        <g transform="matrix(1,0,0,1,-398.141,-332.109)">
                            <path d="M442.7,358.539L442.7,357.746L443.616,357.746L443.616,358.539C443.616,358.844 443.738,359.027 444.104,359.027C444.409,359.027 444.531,358.844 444.531,358.539L444.531,358.295C444.529,357.976 444.369,357.679 444.104,357.502L443.555,356.953C443.064,356.599 442.768,356.032 442.761,355.427L442.761,355.183C442.759,355.153 442.758,355.122 442.758,355.092C442.758,354.433 443.299,353.892 443.958,353.892C444.005,353.892 444.053,353.894 444.1,353.9C445.077,353.9 445.443,354.388 445.443,355.182L445.443,355.67L444.588,355.67L444.588,355.182C444.589,355.168 444.59,355.155 444.59,355.141C444.59,354.895 444.387,354.692 444.141,354.692C444.127,354.692 444.114,354.693 444.1,354.694L444.093,354.694C443.829,354.694 443.612,354.911 443.612,355.175L443.612,355.304C443.612,355.609 443.795,355.792 444.1,356.097L444.71,356.707C445.201,357.061 445.497,357.628 445.504,358.233L445.504,358.538C445.508,358.576 445.509,358.615 445.509,358.653C445.509,359.333 444.95,359.892 444.27,359.892C444.215,359.892 444.159,359.888 444.104,359.881C443.127,359.82 442.704,359.271 442.704,358.538" style="fill:white;fill-rule:nonzero;"/>
                        </g>
                    </g>
                </g>
            </g>
        </g>
    </g>
</svg>
