<?xml version="1.0" encoding="UTF-8" standalone="no"?>
<!DOCTYPE svg PUBLIC "-//W3C//DTD SVG 1.1//EN" "http://www.w3.org/Graphics/SVG/1.1/DTD/svg11.dtd">
<svg width="100%" height="100%" viewBox="0 0 68 68" version="1.1" xmlns="http://www.w3.org/2000/svg" xmlns:xlink="http://www.w3.org/1999/xlink" xml:space="preserve" xmlns:serif="http://www.serif.com/" style="fill-rule:evenodd;clip-rule:evenodd;stroke-linejoin:round;stroke-miterlimit:2;">
    <g id="Plan-de-travail1" serif:id="Plan de travail1" transform="matrix(0.985507,0,0,0.985507,0,0)">
        <rect x="0" y="0" width="69" height="69" style="fill:none;"/>
        <clipPath id="_clip1">
            <rect x="0" y="0" width="69" height="69"/>
        </clipPath>
        <g clipPath="url(#_clip1)">
            <g id="ODD1" transform="matrix(1.01378,0,0,1.01471,0.0628545,0.125594)">
                <rect x="0" y="0" width="68" height="67.876" style="fill:none;"/>
                <g transform="matrix(1.00274,0,0,1.00182,-0.062,-0.123773)">
                    <g id="odd1-carre">
                        <rect x="0" y="0" width="67.876" height="67.876" style="fill:rgb(234,28,45);"/>
                        <g transform="matrix(1,0,0,1,-33.35,-96.041)">
                            <path d="M85.6,128.392C85.6,127.354 86.454,126.5 87.492,126.5C88.53,126.5 89.384,127.354 89.384,128.392C89.384,129.43 88.53,130.284 87.492,130.284C86.456,130.28 85.604,129.428 85.6,128.392" style="fill:white;fill-rule:nonzero;"/>
                        </g>
                        <g transform="matrix(1,0,0,1,-31.714,-98.925)">
                            <path d="M88.053,133.9C89.338,134.011 90.33,135.111 90.311,136.4L90.311,141.588C90.311,141.99 89.98,142.32 89.578,142.32C89.177,142.32 88.846,141.99 88.846,141.588L88.846,137.132C88.848,137.116 88.85,137.1 88.85,137.083C88.85,136.907 88.705,136.762 88.529,136.762C88.512,136.762 88.496,136.764 88.48,136.766C88.297,136.766 88.236,137.01 88.236,137.132L88.236,150.593C88.236,151.163 87.768,151.631 87.199,151.631C86.629,151.631 86.161,151.163 86.161,150.593L86.161,142.809C86.155,142.644 86.021,142.51 85.856,142.504C85.691,142.51 85.557,142.644 85.551,142.809L85.551,150.561C85.534,151.124 85.076,151.582 84.513,151.599L84.504,151.599C83.939,151.599 83.475,151.135 83.475,150.57L83.475,137.135C83.475,137.013 83.414,136.769 83.231,136.769C83.224,136.769 83.217,136.768 83.21,136.768C83.021,136.768 82.864,136.925 82.864,137.114C82.864,137.121 82.865,137.128 82.865,137.135L82.865,141.591C82.865,141.993 82.534,142.323 82.132,142.323C81.731,142.323 81.4,141.993 81.4,141.591L81.4,136.4C81.401,135.118 82.382,134.031 83.658,133.9L88.053,133.9" style="fill:white;fill-rule:nonzero;"/>
                        </g>
                        <g transform="matrix(1,0,0,1,-23.961,-96.743)">
                            <path d="M65.04,130.07C65.04,129.099 64.241,128.3 63.27,128.3C62.299,128.3 61.5,129.099 61.5,130.07C61.5,131.041 62.299,131.84 63.27,131.84C64.241,131.839 65.039,131.041 65.04,130.07" style="fill:white;fill-rule:nonzero;"/>
                        </g>
                        <g transform="matrix(1,0,0,1,-21.832,-99.548)">
                            <path d="M57.54,136.9L56.075,141.722C56.075,141.722 55.831,142.577 56.563,142.822C57.295,143.067 57.54,142.151 57.54,142.151L58.761,138.122C58.761,138.122 58.822,137.817 59.066,137.878C59.31,137.939 59.188,138.244 59.188,138.244L57.113,145.752L59.066,145.752L59.066,151.123C59.082,151.614 59.49,152.009 59.981,152.009C60.473,152.009 60.881,151.614 60.897,151.123L60.897,145.752L61.385,145.752L61.385,151.123C61.401,151.614 61.809,152.009 62.301,152.009C62.792,152.009 63.2,151.614 63.216,151.123L63.216,145.752L65.17,145.752L63.095,138.244C63.095,138.244 63.034,137.939 63.217,137.878C63.461,137.817 63.522,138.122 63.522,138.122L64.743,142.151C64.743,142.151 64.987,143.006 65.72,142.822C66.452,142.578 66.208,141.722 66.208,141.722L64.743,136.9C64.743,136.9 64.194,135.5 63.034,135.5L59.249,135.5C58.089,135.5 57.54,136.9 57.54,136.9" style="fill:white;fill-rule:nonzero;"/>
                        </g>
                        <g transform="matrix(1,0,0,1,-17.182,-96.743)">
                            <path d="M47.64,130.07C47.64,129.099 46.841,128.3 45.87,128.3C44.899,128.3 44.1,129.099 44.1,130.07C44.1,131.041 44.899,131.84 45.87,131.84C46.841,131.839 47.639,131.041 47.64,130.07" style="fill:white;fill-rule:nonzero;"/>
                        </g>
                        <g transform="matrix(1,0,0,1,-15.053,-99.548)">
                            <path d="M40.14,136.9L38.675,141.722C38.675,141.722 38.431,142.577 39.163,142.822C39.895,143.067 40.14,142.151 40.14,142.151L41.361,138.122C41.361,138.122 41.422,137.817 41.666,137.878C41.91,137.939 41.788,138.244 41.788,138.244L39.713,145.752L41.666,145.752L41.666,151.123C41.682,151.614 42.09,152.009 42.581,152.009C43.073,152.009 43.481,151.614 43.497,151.123L43.497,145.752L43.985,145.752L43.985,151.123C44.001,151.614 44.409,152.009 44.9,152.009C45.392,152.009 45.8,151.614 45.816,151.123L45.816,145.752L47.77,145.752L45.695,138.244C45.695,138.244 45.634,137.939 45.817,137.878C46.061,137.817 46.122,138.122 46.122,138.122L47.343,142.151C47.343,142.151 47.587,143.006 48.32,142.822C49.052,142.578 48.808,141.722 48.808,141.722L47.343,136.9C47.343,136.9 46.794,135.5 45.634,135.5L41.849,135.5C40.689,135.5 40.14,136.9 40.14,136.9" style="fill:white;fill-rule:nonzero;"/>
                        </g>
                        <g transform="matrix(1,0,0,1,-29.104,-102.353)">
                            <path d="M76.165,145.63C76.969,145.63 77.63,144.969 77.63,144.165C77.63,143.361 76.969,142.7 76.165,142.7C75.361,142.7 74.7,143.361 74.7,144.165L74.7,144.184C74.7,144.977 75.353,145.63 76.146,145.63L76.165,145.63" style="fill:white;fill-rule:nonzero;"/>
                        </g>
                        <g transform="matrix(1,0,0,1,-27.75,-104.613)">
                            <path d="M71.271,152.529C71.234,152.599 71.215,152.676 71.215,152.755C71.215,152.95 71.334,153.127 71.515,153.2C71.581,153.235 71.654,153.254 71.729,153.254C71.894,153.254 72.047,153.163 72.125,153.017L72.919,150.453C72.919,150.453 73.041,150.27 73.041,150.453L73.041,156.5C73.041,156.902 73.372,157.233 73.774,157.233C74.175,157.233 74.506,156.902 74.506,156.5L74.506,154.119C74.506,154.119 74.445,153.753 74.75,153.753C75.055,153.753 74.994,154.119 74.994,154.119L74.994,156.5C74.994,156.902 75.325,157.233 75.727,157.233C76.128,157.233 76.459,156.902 76.459,156.5L76.459,150.457C76.459,150.274 76.581,150.396 76.581,150.396L77.191,152.166C77.191,152.166 77.435,152.96 77.557,152.96C77.628,152.993 77.705,153.009 77.783,153.009C78.009,153.009 78.212,152.867 78.289,152.655C78.36,152.473 78.337,152.268 78.228,152.106C78.228,152.045 77.312,149.786 77.19,149.481C76.885,148.504 76.274,148.504 75.664,148.504L73.59,148.504C72.796,148.504 72.552,148.931 71.698,151.129C71.59,151.606 71.447,152.073 71.271,152.529Z" style="fill:white;fill-rule:nonzero;"/>
                        </g>
                        <g transform="matrix(1,0,0,1,-6.857,-96.041)">
                            <path d="M21.384,128.392C21.384,127.354 20.53,126.5 19.492,126.5C18.454,126.5 17.6,127.354 17.6,128.392C17.6,129.43 18.454,130.284 19.492,130.284L19.521,130.284C20.543,130.284 21.384,129.443 21.384,128.421L21.384,128.392" style="fill:white;fill-rule:nonzero;"/>
                        </g>
                        <g transform="matrix(1,0,0,1,-5.26,-98.925)">
                            <path d="M15.758,133.9C14.473,134.011 13.481,135.111 13.5,136.4L13.5,141.588C13.5,141.99 13.831,142.32 14.233,142.32C14.634,142.32 14.965,141.99 14.965,141.588L14.965,137.132C14.963,137.116 14.961,137.1 14.961,137.083C14.961,136.907 15.106,136.762 15.282,136.762C15.299,136.762 15.315,136.764 15.331,136.766C15.514,136.766 15.575,137.01 15.575,137.132L15.575,150.561C15.575,150.572 15.574,150.582 15.574,150.593C15.574,151.163 16.043,151.631 16.612,151.631C17.182,151.631 17.65,151.163 17.65,150.593L17.65,142.809C17.656,142.644 17.79,142.51 17.955,142.504C18.12,142.51 18.254,142.644 18.26,142.809L18.26,150.561C18.276,151.125 18.736,151.584 19.3,151.6L19.309,151.6C19.874,151.6 20.338,151.136 20.338,150.571L20.338,137.135C20.338,137.013 20.399,136.769 20.582,136.769C20.589,136.769 20.596,136.768 20.603,136.768C20.792,136.768 20.949,136.925 20.949,137.114C20.949,137.121 20.948,137.128 20.948,137.135L20.948,141.591C20.948,141.993 21.279,142.323 21.681,142.323C22.082,142.323 22.413,141.993 22.413,141.591L22.413,136.4C22.412,135.118 21.431,134.031 20.155,133.9L15.758,133.9" style="fill:white;fill-rule:nonzero;"/>
                        </g>
                        <g transform="matrix(1,0,0,1,7.142,43.399)">
                            <path d="M1.709,0L0,8.851" style="fill:none;fill-rule:nonzero;"/>
                        </g>
                        <g transform="matrix(1,0,0,1,-10.831,-103.6)">
                            <path d="M28.838,146.144C28.738,145.974 28.546,145.878 28.35,145.9L28.348,145.9C28.048,145.9 27.801,146.147 27.801,146.447L27.801,146.449C27.814,146.532 27.834,146.614 27.862,146.693L29.327,149.379C29.398,149.489 29.44,149.615 29.449,149.745L29.449,155.545C29.449,155.947 29.78,156.278 30.182,156.278C30.583,156.278 30.914,155.947 30.914,155.545L30.914,153.226C30.914,153.226 30.853,152.921 31.158,152.921C31.402,152.921 31.402,153.226 31.402,153.226L31.402,155.545C31.402,155.947 31.733,156.278 32.135,156.278C32.536,156.278 32.867,155.947 32.867,155.545L32.867,149.745C32.87,149.621 32.891,149.498 32.928,149.379L34.328,146.879C34.4,146.742 34.461,146.599 34.511,146.452L34.511,146.45C34.511,146.15 34.264,145.903 33.964,145.903L33.962,145.903C33.788,145.907 33.627,145.999 33.535,146.147C33.474,146.208 32.803,147.429 32.558,147.673C32.431,147.812 32.257,147.899 32.07,147.917L30.242,147.917C30.055,147.899 29.881,147.812 29.754,147.673C29.571,147.368 28.899,146.147 28.838,146.147L28.838,146.144Z" style="fill:white;fill-rule:nonzero;"/>
                        </g>
                        <g transform="matrix(1,0,0,1,-12.039,-102.353)">
                            <path d="M32.365,145.63C33.169,145.63 33.83,144.969 33.83,144.165C33.83,143.361 33.169,142.7 32.365,142.7C31.561,142.7 30.9,143.361 30.9,144.165L30.9,144.184C30.9,144.977 31.553,145.63 32.346,145.63L32.365,145.63" style="fill:white;fill-rule:nonzero;"/>
                        </g>
                        <g transform="matrix(1,0,0,1,-11.415,-105.548)">
                            <path d="M31.742,150.9L33.451,152.121L34.245,155.051L29.3,155.051L30.094,152.121L31.742,150.9Z" style="fill:white;fill-rule:nonzero;"/>
                        </g>
                        <g transform="matrix(1,0,0,1,-4.987,-80.223)">
                            <path d="M14.448,89.135L14.509,89.135L14.509,99.573L16.767,99.573L16.767,85.9L14.936,85.9L12.8,88.4L12.8,90.781L12.861,90.781L14.448,89.135Z" style="fill:white;fill-rule:nonzero;"/>
                        </g>
                        <g transform="matrix(1,0,0,1,-11.688,-80.262)">
                            <path d="M30,86L31.465,86C32.442,86 32.808,86.488 32.808,87.282L32.808,88.5C32.808,89.294 32.442,89.782 31.465,89.782L30.977,89.782L30.977,91.735L30,91.735L30,86ZM30.977,86.733L30.977,89.052L31.343,89.052C31.357,89.053 31.37,89.054 31.384,89.054C31.63,89.054 31.833,88.851 31.833,88.605C31.833,88.591 31.832,88.578 31.831,88.564L31.831,87.221C31.831,86.916 31.709,86.733 31.343,86.733L30.977,86.733Z" style="fill:white;fill-rule:nonzero;"/>
                        </g>
                        <g transform="matrix(1,0,0,1,-13.48,-80.262)">
                            <path d="M34.6,91.738L35.7,86L36.8,86L37.9,91.738L36.923,91.738L36.675,90.7L35.638,90.7L35.455,91.738L34.6,91.738ZM35.821,89.907L36.615,89.907L36.249,87.588L35.821,89.907Z" style="fill:white;fill-rule:nonzero;"/>
                        </g>
                        <g transform="matrix(1,0,0,1,-15.74,-80.223)">
                            <path d="M40.4,90.478L40.4,89.684L41.316,89.684L41.316,90.478C41.316,90.783 41.438,90.966 41.804,90.966C42.109,90.966 42.231,90.783 42.231,90.478L42.231,90.234C42.229,89.915 42.069,89.617 41.804,89.44L41.255,88.891C40.764,88.537 40.468,87.97 40.461,87.365L40.461,87.182C40.459,87.152 40.458,87.122 40.458,87.092C40.458,86.433 40.999,85.892 41.658,85.892C41.705,85.892 41.753,85.894 41.8,85.9C42.777,85.9 43.143,86.388 43.143,87.182L43.143,87.67L42.288,87.67L42.288,87.182C42.289,87.168 42.29,87.155 42.29,87.141C42.29,86.895 42.087,86.692 41.841,86.692C41.827,86.692 41.814,86.693 41.8,86.694L41.793,86.694C41.529,86.694 41.312,86.911 41.312,87.175L41.312,87.3C41.312,87.605 41.495,87.788 41.8,88.094L42.41,88.704C42.959,89.253 43.204,89.559 43.204,90.169L43.204,90.474C43.176,91.224 42.551,91.826 41.8,91.826C41.049,91.826 40.424,91.224 40.396,90.474" style="fill:white;fill-rule:nonzero;"/>
                        </g>
                        <g transform="matrix(1,0,0,1,-11.688,-85.442)">
                            <path d="M32.93,100.824L32.93,103.51C32.93,104.365 32.564,105.036 31.53,105.036L30,105.036L30,99.3L31.465,99.3C32.565,99.239 32.93,99.91 32.93,100.826M31.4,104.242C31.827,104.242 31.949,103.998 31.949,103.632L31.949,100.64C31.952,100.618 31.954,100.595 31.954,100.572C31.954,100.306 31.734,100.086 31.468,100.086C31.445,100.086 31.422,100.088 31.4,100.091L30.973,100.091L30.973,104.242L31.4,104.242Z" style="fill:white;fill-rule:nonzero;"/>
                        </g>
                        <g transform="matrix(1,0,0,1,-13.909,-85.405)">
                            <path d="M35.7,99.2L38.019,99.2L38.019,99.994L36.677,99.994L36.677,101.642L37.593,101.642L37.593,102.436L36.677,102.436L36.677,104.206L38.02,104.206L38.02,105L35.7,105L35.7,99.2Z" style="fill:white;fill-rule:nonzero;"/>
                        </g>
                        <g transform="matrix(1,0,0,1,-16.286,-85.405)">
                            <path d="M41.8,99.2L43.265,99.2C44.242,99.2 44.608,99.688 44.608,100.482L44.608,101.7C44.608,102.494 44.242,102.982 43.265,102.982L42.777,102.982L42.777,104.935L41.8,104.935L41.8,99.2ZM42.777,99.933L42.777,102.252L43.143,102.252C43.157,102.253 43.17,102.254 43.184,102.254C43.43,102.254 43.633,102.051 43.633,101.805C43.633,101.791 43.632,101.778 43.631,101.764L43.631,100.421C43.631,100.116 43.509,99.933 43.143,99.933L42.777,99.933Z" style="fill:white;fill-rule:nonzero;"/>
                        </g>
                        <g transform="matrix(1,0,0,1,-18.039,-85.444)">
                            <path d="M46.3,105.038L47.4,99.3L48.5,99.3L49.6,105.038L48.623,105.038L48.436,104L47.4,104L47.217,105.038L46.3,105.038ZM47.521,103.207L48.315,103.207L47.949,100.887L47.521,103.207Z" style="fill:white;fill-rule:nonzero;"/>
                        </g>
                        <g transform="matrix(1,0,0,1,-20.337,-85.405)">
                            <path d="M55.008,99.2L55.008,103.534C55.008,104.45 54.642,104.999 53.665,104.999C53.604,105.008 53.542,105.012 53.481,105.012C52.771,105.012 52.187,104.428 52.187,103.718C52.187,103.657 52.191,103.595 52.2,103.534L52.2,99.2L53.177,99.2L53.177,103.656C53.177,104.022 53.299,104.205 53.665,104.205C54.031,104.205 54.153,103.961 54.153,103.656L54.153,99.2L55.008,99.2Z" style="fill:white;fill-rule:nonzero;"/>
                        </g>
                        <g transform="matrix(1,0,0,1,-22.363,-85.405)">
                            <path d="M60.635,99.2L59.6,105L58.5,105L57.4,99.2L58.377,99.2L59.048,103.229L59.78,99.2L60.635,99.2Z" style="fill:white;fill-rule:nonzero;"/>
                        </g>
                        <g transform="matrix(1,0,0,1,-24.701,-85.405)">
                            <path d="M64.377,102.313L64.377,104.938L63.4,104.938L63.4,99.2L64.8,99.2C65.777,99.2 66.143,99.688 66.143,100.482L66.143,101.214C66.219,101.732 65.865,102.223 65.349,102.314L66.265,104.939L65.231,104.939L64.377,102.313ZM64.377,99.933L64.377,101.764L64.682,101.764C64.696,101.765 64.709,101.766 64.723,101.766C64.969,101.766 65.172,101.563 65.172,101.317C65.172,101.303 65.171,101.29 65.17,101.276L65.17,100.421C65.17,100.116 65.048,99.933 64.682,99.933L64.377,99.933Z" style="fill:white;fill-rule:nonzero;"/>
                        </g>
                        <g transform="matrix(1,0,0,1,-26.805,-85.405)">
                            <path d="M68.8,99.2L71.058,99.2L71.058,99.994L69.716,99.994L69.716,101.642L70.693,101.642L70.693,102.436L69.716,102.436L69.716,104.206L71.059,104.206L71.059,105L68.8,105L68.8,99.2Z" style="fill:white;fill-rule:nonzero;"/>
                        </g>
                        <g transform="matrix(1,0,0,1,-28.519,-85.405)">
                            <path d="M73.2,99.2L75.764,99.2L75.764,99.994L74.97,99.994L74.97,105L73.993,105L73.993,99.993L73.2,99.993L73.2,99.2Z" style="fill:white;fill-rule:nonzero;"/>
                        </g>
                        <g transform="matrix(1,0,0,1,-30.467,-84.743)">
                            <path d="M78.2,98.538L80.519,98.538L80.519,99.332L79.177,99.332L79.177,100.98L80.154,100.98L80.154,101.774L79.177,101.774L79.177,103.544L80.52,103.544L80.52,104.338L78.2,104.338L78.2,98.538ZM80.214,98.172L78.688,98.355L78.688,97.806L80.214,97.501L80.214,98.172Z" style="fill:white;fill-rule:nonzero;"/>
                        </g>
                    </g>
                </g>
            </g>
        </g>
    </g>
</svg>
