<?xml version="1.0" encoding="UTF-8" standalone="no"?>
<!DOCTYPE svg PUBLIC "-//W3C//DTD SVG 1.1//EN" "http://www.w3.org/Graphics/SVG/1.1/DTD/svg11.dtd">
<svg width="100%" height="100%" viewBox="0 0 68 68" version="1.1" xmlns="http://www.w3.org/2000/svg" xmlns:xlink="http://www.w3.org/1999/xlink" xml:space="preserve" xmlns:serif="http://www.serif.com/" style="fill-rule:evenodd;clip-rule:evenodd;stroke-linejoin:round;stroke-miterlimit:2;">
    <g id="Plan-de-travail1" serif:id="Plan de travail1" transform="matrix(0.985507,0,0,1,0,0)">
        <rect x="0" y="0" width="69" height="68" style="fill:none;"/>
        <clipPath id="_clip1">
            <rect x="0" y="0" width="69" height="68"/>
        </clipPath>
        <g clipPath="url(#_clip1)">
            <g transform="matrix(1.01471,0,0,1.00183,0,4.40536e-13)">
                <g id="ODD2">
                    <rect x="0" y="0" width="68" height="67.876" style="fill:none;"/>
                    <g transform="matrix(1,0,0,0.998176,0.062,-8.79463e-13)">
                        <g id="odd2-carre">
                            <rect x="0" y="0" width="67.876" height="67.876" style="fill:rgb(209,159,42);"/>
                            <g transform="matrix(1,0,0,1,-132.551,-104.379)">
                                <path d="M159.652,162L159.652,162.987C159.652,163.216 159.84,163.404 160.069,163.404L171.259,163.404C171.488,163.404 171.676,163.216 171.676,162.987L171.676,161.877C177.869,159.982 182.528,154.806 183.762,148.448L183.762,148.316C183.762,148.087 183.574,147.899 183.345,147.899L147.617,147.899C147.388,147.899 147.2,148.087 147.2,148.316L147.2,148.509C148.493,154.974 153.311,160.195 159.652,162" style="fill:white;fill-rule:nonzero;"/>
                            </g>
                            <g transform="matrix(1,0,0,1,-147.224,-94.416)">
                                <path d="M186.472,122.8C186.35,122.983 182.872,127.988 186.533,132.017C188.242,133.848 188.059,135.496 187.571,136.595L189.952,136.595C190.536,134.528 189.896,132.299 188.304,130.857C185.618,127.927 188.365,123.899 188.365,123.837C188.456,123.687 188.505,123.514 188.505,123.339C188.505,122.986 188.31,122.66 187.999,122.494C187.493,122.176 186.818,122.311 186.473,122.799" style="fill:white;fill-rule:nonzero;"/>
                            </g>
                            <g transform="matrix(1,0,0,1,-142.704,-94.404)">
                                <path d="M175.971,136.521L178.352,136.521C178.936,134.454 178.296,132.225 176.704,130.783C174.018,127.853 176.765,123.824 176.765,123.763C176.856,123.613 176.905,123.44 176.905,123.265C176.905,122.912 176.71,122.586 176.399,122.42C175.882,122.164 175.252,122.289 174.873,122.725C174.751,122.908 171.273,127.913 174.934,131.881C176.582,133.773 176.46,135.421 175.972,136.52" style="fill:white;fill-rule:nonzero;"/>
                            </g>
                            <g transform="matrix(1,0,0,1,-138.146,-94.416)">
                                <path d="M163.172,122.8C163.05,122.983 159.572,127.988 163.233,132.017C164.942,133.848 164.759,135.496 164.271,136.595L166.652,136.595C167.236,134.527 166.594,132.297 165,130.856C162.314,127.926 165.061,123.898 165.061,123.836C165.152,123.686 165.201,123.513 165.201,123.338C165.201,122.985 165.006,122.659 164.695,122.493C164.188,122.181 163.518,122.315 163.169,122.798" style="fill:white;fill-rule:nonzero;"/>
                            </g>
                            <g transform="matrix(1,0,0,1,-127.758,-80.107)">
                                <path d="M140.883,97.564L137.037,97.564L137.037,96.893C136.997,96.083 137.364,95.304 138.014,94.818L139.479,93.292C140.483,92.425 141.025,91.137 140.944,89.813L140.944,88.469C140.944,86.516 139.967,85.6 137.953,85.6C137.838,85.585 137.722,85.578 137.606,85.578C136.114,85.578 134.885,86.806 134.885,88.299C134.885,88.396 134.891,88.494 134.901,88.591L134.901,90.239L136.976,90.239L136.976,88.53C136.976,87.675 137.403,87.43 137.892,87.43C138.319,87.43 138.747,87.613 138.747,88.468L138.747,89.628C138.862,90.512 138.543,91.4 137.892,92.009L136.61,93.352C135.389,94.695 134.901,95.552 134.901,96.952L134.901,99.452L140.883,99.452L140.883,97.564Z" style="fill:white;fill-rule:nonzero;"/>
                            </g>
                            <g transform="matrix(1,0,0,1,-135.239,-80.262)">
                                <path d="M154.1,86L156.419,86L156.419,86.794L155.076,86.794L155.076,88.442L156.053,88.442L156.053,89.236L155.076,89.236L155.076,91.736L154.1,91.736L154.1,86Z" style="fill:white;fill-rule:nonzero;"/>
                            </g>
                            <g transform="matrix(1,0,0,1,-136.641,-80.262)">
                                <path d="M157.7,91.738L158.8,86L159.9,86L161,91.738L160.023,91.738L159.84,90.7L158.8,90.7L158.617,91.738L157.7,91.738ZM158.921,89.907L159.715,89.907L159.349,87.588L158.921,89.907Z" style="fill:white;fill-rule:nonzero;"/>
                            </g>
                            <g transform="matrix(1,0,0,1,24.782,5.738)">
                                <rect x="0" y="0" width="0.977" height="5.738" style="fill:white;"/>
                            </g>
                            <g transform="matrix(1,0,0,1,-139.992,-80.262)">
                                <path d="M168.986,88.014L168.925,88.014L168.254,91.737L167.827,91.737L167.095,88.014L167.095,91.737L166.3,91.737L166.3,86L167.4,86L168.071,89.235L168.619,86L169.84,86L169.84,91.738L168.985,91.738L168.986,88.014Z" style="fill:white;fill-rule:nonzero;"/>
                            </g>
                            <g transform="matrix(1,0,0,1,-135.2,-87.042)">
                                <path d="M155.16,103.4L154.672,104.621L155.16,105.842L154.489,105.842L154,104.621L154.488,103.4L155.16,103.4ZM156.137,103.4L155.649,104.621L156.137,105.842L155.466,105.842L154.978,104.621L155.466,103.4L156.137,103.4Z" style="fill:white;fill-rule:nonzero;"/>
                            </g>
                            <g transform="matrix(1,0,0,1,-136.875,-85.405)">
                                <path d="M159.277,104.205L160.742,104.205L160.742,105L158.3,105L158.3,104.206L159.765,99.994L158.422,99.994L158.422,99.2L160.8,99.2L160.8,99.994L159.277,104.205Z" style="fill:white;fill-rule:nonzero;"/>
                            </g>
                            <g transform="matrix(1,0,0,1,-138.823,-84.743)">
                                <path d="M163.3,98.538L165.619,98.538L165.619,99.332L164.276,99.332L164.276,100.98L165.253,100.98L165.253,101.774L164.276,101.774L164.276,103.544L165.619,103.544L165.619,104.338L163.3,104.338L163.3,98.538ZM165.314,98.172L163.788,98.355L163.788,97.806L165.314,97.501L165.314,98.172Z" style="fill:white;fill-rule:nonzero;"/>
                            </g>
                            <g transform="matrix(1,0,0,1,-140.615,-85.405)">
                                <path d="M168.877,102.313L168.877,104.938L167.9,104.938L167.9,99.2L169.3,99.2C170.277,99.2 170.643,99.688 170.643,100.482L170.643,101.214C170.719,101.732 170.365,102.223 169.849,102.314L170.765,104.939L169.788,104.939L168.877,102.313ZM168.877,99.933L168.877,101.764L169.182,101.764C169.196,101.765 169.209,101.766 169.223,101.766C169.469,101.766 169.672,101.563 169.672,101.317C169.672,101.303 169.671,101.29 169.67,101.276L169.67,100.421C169.67,100.116 169.548,99.933 169.182,99.933L168.877,99.933Z" style="fill:white;fill-rule:nonzero;"/>
                            </g>
                            <g transform="matrix(1,0,0,1,-142.719,-85.366)">
                                <path d="M173.3,103.434L173.3,100.626C173.29,100.561 173.286,100.496 173.286,100.431C173.286,99.697 173.89,99.093 174.624,99.093C174.671,99.093 174.718,99.095 174.765,99.1C174.802,99.097 174.84,99.095 174.877,99.095C175.625,99.095 176.24,99.711 176.24,100.458C176.24,100.514 176.237,100.57 176.23,100.626L176.23,103.434C176.24,103.499 176.244,103.564 176.244,103.629C176.244,104.363 175.64,104.967 174.906,104.967C174.859,104.967 174.812,104.965 174.765,104.96C173.727,105.021 173.3,104.35 173.3,103.434M175.253,103.617L175.253,100.5C175.253,100.134 175.07,99.89 174.765,99.89C174.399,99.89 174.277,100.134 174.277,100.5L174.277,103.613C174.277,103.979 174.46,104.223 174.765,104.223C175.07,104.223 175.253,103.979 175.253,103.613" style="fill:white;fill-rule:nonzero;"/>
                            </g>
                            <g transform="matrix(1,0,0,1,-144.901,-87.042)">
                                <path d="M179.571,103.4L180.059,104.621L179.571,105.842L178.9,105.842L179.388,104.621L178.9,103.4L179.571,103.4ZM180.548,103.4L181.036,104.621L180.548,105.842L179.877,105.842L180.365,104.621L179.877,103.4L180.548,103.4Z" style="fill:white;fill-rule:nonzero;"/>
                            </g>
                        </g>
                    </g>
                </g>
            </g>
        </g>
    </g>
</svg>
