<?xml version="1.0" encoding="UTF-8" standalone="no"?>
<!DOCTYPE svg PUBLIC "-//W3C//DTD SVG 1.1//EN" "http://www.w3.org/Graphics/SVG/1.1/DTD/svg11.dtd">
<svg width="100%" height="100%" viewBox="0 0 68 68" version="1.1" xmlns="http://www.w3.org/2000/svg" xmlns:xlink="http://www.w3.org/1999/xlink" xml:space="preserve" xmlns:serif="http://www.serif.com/" style="fill-rule:evenodd;clip-rule:evenodd;stroke-linejoin:round;stroke-miterlimit:2;">
    <g id="Plan-de-travail1" serif:id="Plan de travail1" transform="matrix(0.985507,0,0,1,0,0)">
        <rect x="0" y="0" width="69" height="68" style="fill:none;"/>
        <clipPath id="_clip1">
            <rect x="0" y="0" width="69" height="68"/>
        </clipPath>
        <g clipPath="url(#_clip1)">
            <g transform="matrix(1.01471,0,0,1.00183,0,0)">
                <g id="ODD3">
                    <rect x="0" y="0" width="68" height="67.876" style="fill:none;"/>
                    <g transform="matrix(1,0,0,0.998176,0.062,-8.79463e-13)">
                        <g id="odd3-carre">
                            <rect x="0" y="0" width="67.876" height="67.876" style="fill:rgb(45,154,71);"/>
                            <g transform="matrix(1,0,0,1,-275.682,-101.418)">
                                <path d="M332.875,143.779C332.883,143.688 332.887,143.598 332.887,143.507C332.887,141.801 331.527,140.378 329.823,140.3C328.907,140.3 327.748,141.338 327.137,141.948C326.527,141.338 325.489,140.3 324.573,140.3C322.814,140.347 321.392,141.807 321.392,143.567C321.392,143.638 321.394,143.708 321.399,143.779C321.385,144.691 321.737,145.571 322.376,146.221L327.137,150.982L331.898,146.221C332.537,145.571 332.889,144.691 332.875,143.779" style="fill:white;fill-rule:nonzero;"/>
                            </g>
                            <g transform="matrix(1,0,0,1,-253.98,-92.886)">
                                <path d="M290.909,150.263C290.516,150.268 290.176,149.98 290.115,149.592L287.673,135.492L284.011,142.267C283.844,142.542 283.539,142.706 283.217,142.694C282.881,142.644 282.625,142.362 282.607,142.023L281.081,131.158L278.212,137.567C278.089,137.862 277.799,138.055 277.48,138.055L266.493,138.055C266.068,138.04 265.727,137.686 265.727,137.262C265.727,136.837 266.068,136.483 266.493,136.468L277.053,136.468L280.776,128.045C280.912,127.74 281.239,127.564 281.569,127.618C281.918,127.663 282.195,127.94 282.24,128.289L283.827,139.52L287.427,132.806C287.594,132.531 287.899,132.367 288.221,132.379C288.542,132.438 288.803,132.675 288.892,132.989L291.15,146.051L299.329,118.951C299.419,118.648 299.686,118.43 300,118.4C300.322,118.388 300.627,118.552 300.794,118.827L305.067,127.739C305.133,127.856 305.168,127.988 305.168,128.122C305.168,128.548 304.816,128.9 304.39,128.9C304.072,128.9 303.785,128.705 303.667,128.41L300.249,121.329L291.7,149.652C291.598,150.007 291.275,150.255 290.906,150.262" style="fill:white;fill-rule:nonzero;"/>
                            </g>
                            <g transform="matrix(1,0,0,1,-250.98,-80.146)">
                                <path d="M261.174,99.678C263.494,99.678 264.531,98.457 264.531,96.565L264.531,94.551C264.658,93.455 263.906,92.435 262.822,92.232C263.794,91.957 264.455,91.041 264.409,90.032L264.409,88.813C264.409,86.86 263.493,85.7 261.357,85.7C258.976,85.7 258.122,87.1 258.122,89.118L258.122,90.339L260.2,90.339L260.2,88.939C260.2,88.084 260.444,87.596 261.177,87.596C261.91,87.596 262.154,88.084 262.154,88.817L262.154,90.282C262.154,91.014 261.666,91.382 260.933,91.382L260.078,91.382L260.078,93.152L261.055,93.152C261.848,93.152 262.155,93.518 262.155,94.252L262.155,96.5C262.155,97.232 261.85,97.721 261.117,97.721C260.323,97.721 260.017,97.172 260.017,96.378L260.017,94.429L258,94.429L258,96.2C258,98.336 258.793,99.679 261.174,99.679" style="fill:white;fill-rule:nonzero;"/>
                            </g>
                            <g transform="matrix(1,0,0,1,-258.5,-80.262)">
                                <path d="M277.3,86L278.7,86C279.677,86 279.982,86.427 279.982,87.282L279.982,87.892C280.039,88.287 279.809,88.672 279.433,88.808C279.895,88.887 280.219,89.319 280.166,89.785L280.166,90.579C280.166,91.373 279.8,91.861 278.823,91.861L277.3,91.861L277.3,86ZM278.277,88.442L278.643,88.442C278.657,88.443 278.67,88.444 278.684,88.444C278.93,88.444 279.133,88.241 279.133,87.995C279.133,87.981 279.132,87.968 279.131,87.954L279.131,87.222C279.131,86.917 279.009,86.734 278.643,86.734L278.338,86.734L278.338,88.443L278.277,88.442ZM278.277,89.174L278.277,90.944L278.704,90.944C278.718,90.945 278.731,90.946 278.745,90.946C278.991,90.946 279.194,90.743 279.194,90.497C279.194,90.483 279.193,90.47 279.192,90.456L279.192,89.662C279.192,89.357 279.07,89.174 278.704,89.174L278.277,89.174Z" style="fill:white;fill-rule:nonzero;"/>
                            </g>
                            <g transform="matrix(1,0,0,1,-260.604,-80.223)">
                                <path d="M282.7,90.234L282.7,87.426C282.69,87.361 282.686,87.296 282.686,87.231C282.686,86.497 283.29,85.893 284.024,85.893C284.071,85.893 284.118,85.895 284.165,85.9C284.202,85.897 284.24,85.895 284.277,85.895C285.025,85.895 285.64,86.511 285.64,87.258C285.64,87.314 285.637,87.37 285.63,87.426L285.63,90.234C285.64,90.299 285.644,90.364 285.644,90.429C285.644,91.163 285.04,91.767 284.306,91.767C284.259,91.767 284.212,91.765 284.165,91.76C283.188,91.821 282.7,91.15 282.7,90.234M284.653,90.417L284.653,87.3C284.653,86.934 284.47,86.69 284.165,86.69C283.799,86.69 283.677,86.934 283.677,87.3L283.677,90.413C283.677,90.779 283.86,91.023 284.165,91.023C284.443,90.995 284.657,90.759 284.657,90.48C284.657,90.457 284.656,90.435 284.653,90.413" style="fill:white;fill-rule:nonzero;"/>
                            </g>
                            <g transform="matrix(1,0,0,1,-262.824,-80.262)">
                                <path d="M289.255,88.136L289.255,91.736L288.4,91.736L288.4,86L289.377,86L290.415,89.3L290.415,86L291.208,86L291.208,91.738L290.353,91.738L289.255,88.136Z" style="fill:white;fill-rule:nonzero;"/>
                            </g>
                            <g transform="matrix(1,0,0,1,-264.967,-80.262)">
                                <path d="M294.755,88.136L294.755,91.736L293.9,91.736L293.9,86L294.877,86L295.915,89.3L295.915,86L296.708,86L296.708,91.738L295.853,91.738L294.755,88.136Z" style="fill:white;fill-rule:nonzero;"/>
                            </g>
                            <g transform="matrix(1,0,0,1,-267.11,-80.262)">
                                <path d="M299.4,86L301.719,86L301.719,86.794L300.376,86.794L300.376,88.442L301.353,88.442L301.353,89.236L300.376,89.236L300.376,90.945L301.719,90.945L301.719,91.739L299.4,91.739L299.4,86Z" style="fill:white;fill-rule:nonzero;"/>
                            </g>
                            <g transform="matrix(1,0,0,1,-269.487,-80.223)">
                                <path d="M305.5,90.478L305.5,89.684L306.416,89.684L306.416,90.478C306.416,90.783 306.538,90.966 306.904,90.966C307.209,90.966 307.331,90.783 307.331,90.478L307.331,90.234C307.329,89.915 307.169,89.617 306.904,89.44L306.355,88.891C305.864,88.537 305.568,87.97 305.561,87.365L305.561,87.182C305.559,87.152 305.558,87.122 305.558,87.092C305.558,86.433 306.099,85.892 306.758,85.892C306.805,85.892 306.853,85.894 306.9,85.9C307.877,85.9 308.243,86.388 308.243,87.182L308.243,87.67L307.388,87.67L307.388,87.182C307.389,87.168 307.39,87.155 307.39,87.141C307.39,86.895 307.187,86.692 306.941,86.692C306.927,86.692 306.914,86.693 306.9,86.694L306.893,86.694C306.629,86.694 306.412,86.911 306.412,87.175L306.412,87.3C306.412,87.605 306.595,87.788 306.9,88.094L307.51,88.704C308.059,89.253 308.304,89.559 308.304,90.169L308.304,90.474C308.276,91.224 307.651,91.826 306.9,91.826C306.149,91.826 305.524,91.224 305.496,90.474" style="fill:white;fill-rule:nonzero;"/>
                            </g>
                            <g transform="matrix(1,0,0,1,-271.396,-80.262)">
                                <path d="M310.4,91.738L311.5,86L312.6,86L313.7,91.738L312.723,91.738L312.54,90.7L311.5,90.7L311.317,91.738L310.4,91.738ZM311.621,89.907L312.414,89.907L312.048,87.588L311.621,89.907Z" style="fill:white;fill-rule:nonzero;"/>
                            </g>
                            <g transform="matrix(1,0,0,1,-273.772,-80.262)">
                                <path d="M317.293,88.136L317.293,91.736L316.5,91.736L316.5,86L317.416,86L318.516,89.3L318.516,86L319.31,86L319.31,91.738L318.455,91.738L317.293,88.136Z" style="fill:white;fill-rule:nonzero;"/>
                            </g>
                            <g transform="matrix(1,0,0,1,-275.837,-80.262)">
                                <path d="M321.8,86L324.364,86L324.364,86.794L323.571,86.794L323.571,91.738L322.594,91.738L322.594,86.794L321.8,86.794L321.8,86Z" style="fill:white;fill-rule:nonzero;"/>
                            </g>
                            <g transform="matrix(1,0,0,1,-277.785,-79.561)">
                                <path d="M326.8,85.3L329.12,85.3L329.12,86.094L327.777,86.094L327.777,87.74L328.754,87.74L328.754,88.534L327.777,88.534L327.777,90.3L329.12,90.3L329.12,91.1L326.8,91.1L326.8,85.3ZM328.814,84.873L327.288,85.056L327.288,84.507L328.814,84.202L328.814,84.873Z" style="fill:white;fill-rule:nonzero;"/>
                            </g>
                            <g transform="matrix(1,0,0,1,-258.5,-85.405)">
                                <path d="M277.3,99.2L279.62,99.2L279.62,99.994L278.277,99.994L278.277,101.642L279.193,101.642L279.193,102.436L278.277,102.436L278.277,104.206L279.62,104.206L279.62,105L277.3,105L277.3,99.2Z" style="fill:white;fill-rule:nonzero;"/>
                            </g>
                            <g transform="matrix(1,0,0,1,-260.214,-85.405)">
                                <path d="M281.7,99.2L284.325,99.2L284.325,99.994L283.532,99.994L283.532,105L282.555,105L282.555,99.993L281.7,99.993L281.7,99.2Z" style="fill:white;fill-rule:nonzero;"/>
                            </g>
                            <g transform="matrix(1,0,0,1,-262.747,-85.405)">
                                <path d="M288.2,99.2L289.6,99.2C290.577,99.2 290.882,99.627 290.882,100.482L290.882,101.092C290.939,101.487 290.709,101.872 290.333,102.008C290.795,102.088 291.118,102.519 291.065,102.985L291.065,103.779C291.065,104.573 290.699,105.061 289.722,105.061L288.2,105.061L288.2,99.2ZM289.116,101.642L289.482,101.642C289.496,101.643 289.509,101.644 289.523,101.644C289.769,101.644 289.972,101.441 289.972,101.195C289.972,101.181 289.971,101.168 289.97,101.154L289.97,100.422C289.97,100.117 289.848,99.934 289.482,99.934L289.177,99.934L289.177,101.643L289.116,101.642ZM289.116,102.312L289.116,104.144L289.543,104.144C289.557,104.145 289.57,104.146 289.584,104.146C289.83,104.146 290.033,103.943 290.033,103.697C290.033,103.683 290.032,103.67 290.031,103.656L290.031,102.8C290.031,102.495 289.909,102.312 289.543,102.312L289.116,102.312Z" style="fill:white;fill-rule:nonzero;"/>
                            </g>
                            <g transform="matrix(1,0,0,1,28.75,13.795)">
                                <rect x="0" y="0" width="0.977" height="5.738" style="fill:white;"/>
                            </g>
                            <g transform="matrix(1,0,0,1,-265.824,-85.405)">
                                <path d="M296.1,99.2L298.419,99.2L298.419,99.994L297.076,99.994L297.076,101.642L298.053,101.642L298.053,102.436L297.076,102.436L297.076,104.206L298.419,104.206L298.419,105L296.1,105L296.1,99.2Z" style="fill:white;fill-rule:nonzero;"/>
                            </g>
                            <g transform="matrix(1,0,0,1,-267.617,-85.405)">
                                <path d="M301.555,101.336L301.555,105L300.7,105L300.7,99.2L301.677,99.2L302.715,102.5L302.715,99.2L303.508,99.2L303.508,105L302.653,105L301.555,101.336Z" style="fill:white;fill-rule:nonzero;"/>
                            </g>
                            <g transform="matrix(1,0,0,1,36.38,16.481)">
                                <rect x="0" y="0" width="1.343" height="0.794" style="fill:white;"/>
                            </g>
                            <g transform="matrix(1,0,0,1,-270.928,-84.704)">
                                <path d="M309.2,98.5L311.519,98.5L311.519,99.294L310.176,99.294L310.176,100.942L311.153,100.942L311.153,101.736L310.176,101.736L310.176,103.506L311.519,103.506L311.519,104.3L309.2,104.3L309.2,98.5ZM309.566,98.317L309.566,97.829L310.176,97.402L310.603,97.402L311.213,97.829L311.213,98.317L310.419,98.073L309.566,98.317Z" style="fill:white;fill-rule:nonzero;"/>
                            </g>
                            <g transform="matrix(1,0,0,1,-272.643,-85.405)">
                                <path d="M313.6,99.2L316.225,99.2L316.225,99.994L315.37,99.994L315.37,105L314.393,105L314.393,99.993L313.6,99.993L313.6,99.2Z" style="fill:white;fill-rule:nonzero;"/>
                            </g>
                            <g transform="matrix(1,0,0,1,-274.591,-85.405)">
                                <path d="M319.577,102.313L319.577,104.938L318.6,104.938L318.6,99.2L320,99.2C320.977,99.2 321.343,99.688 321.343,100.482L321.343,101.214C321.419,101.732 321.065,102.223 320.549,102.314L321.465,104.939L320.427,104.939L319.577,102.313ZM319.577,99.933L319.577,101.764L319.882,101.764C319.896,101.765 319.909,101.766 319.923,101.766C320.169,101.766 320.372,101.563 320.372,101.317C320.372,101.303 320.371,101.29 320.37,101.276L320.37,100.421C320.37,100.116 320.248,99.933 319.882,99.933L319.577,99.933Z" style="fill:white;fill-rule:nonzero;"/>
                            </g>
                            <g transform="matrix(1,0,0,1,-276.694,-85.405)">
                                <path d="M324,99.2L326.258,99.2L326.258,99.994L324.915,99.994L324.915,101.642L325.892,101.642L325.892,102.436L324.915,102.436L324.915,104.206L326.258,104.206L326.258,105L324,105L324,99.2Z" style="fill:white;fill-rule:nonzero;"/>
                            </g>
                        </g>
                    </g>
                </g>
            </g>
        </g>
    </g>
</svg>
