<?xml version="1.0" encoding="UTF-8" standalone="no"?>
<!DOCTYPE svg PUBLIC "-//W3C//DTD SVG 1.1//EN" "http://www.w3.org/Graphics/SVG/1.1/DTD/svg11.dtd">
<svg width="100%" height="100%" viewBox="0 0 68 68" version="1.1" xmlns="http://www.w3.org/2000/svg" xmlns:xlink="http://www.w3.org/1999/xlink" xml:space="preserve" xmlns:serif="http://www.serif.com/" style="fill-rule:evenodd;clip-rule:evenodd;stroke-linejoin:round;stroke-miterlimit:2;">
    <g id="Plan-de-travail1" serif:id="Plan de travail1" transform="matrix(0.985507,0,0,0.985507,0,0)">
        <rect x="0" y="0" width="69" height="69" style="fill:none;"/>
        <clipPath id="_clip1">
            <rect x="0" y="0" width="69" height="69"/>
        </clipPath>
        <g clip-path="url(#_clip1)">
            <g transform="matrix(1.01471,0,0,1.01656,0,8.94035e-13)">
                <g id="ODD4">
                    <rect x="0" y="0" width="68" height="67.876" style="fill:none;"/>
                    <g transform="matrix(1,0,0,0.998176,0.062,-8.79463e-13)">
                        <g id="odd4-carre">
                            <rect x="0" y="0" width="67.876" height="67.876" style="fill:rgb(194,32,51);"/>
                            <g transform="matrix(1,0,0,1,-381.154,-95.34)">
                                <path d="M411.247,131.72L399.1,124.7L399.1,147.407L411.247,151.069L411.247,131.72Z" style="fill:white;fill-rule:nonzero;"/>
                            </g>
                            <g transform="matrix(1,0,0,1,-389.765,-95.34)">
                                <path d="M421.2,131.781L421.2,151.069L433.469,147.407L433.469,124.7L421.2,131.781Z" style="fill:white;fill-rule:nonzero;"/>
                            </g>
                            <g transform="matrix(1,0,0,1,-401.843,-96.665)">
                                <path d="M452.566,148.365L452.2,148.365L453.665,153.37L455.13,148.365L455.13,128.1L452.2,128.1L452.2,148.365L452.566,148.365Z" style="fill:white;fill-rule:nonzero;"/>
                            </g>
                            <g transform="matrix(1,0,0,1,-379.479,-95.301)">
                                <path d="M425.808,125.638L424.465,124.6L424.465,147.978L410.975,152.373L409.575,152.373L396.146,148.589L396.146,124.6L394.803,125.638L394.803,149.5L409.514,153.59L411.04,153.59L424.591,149.256L425.812,148.951L425.808,125.638Z" style="fill:white;fill-rule:nonzero;"/>
                            </g>
                            <g transform="matrix(1,0,0,1,-401.843,-94.015)">
                                <path d="M455.13,122.765C455.13,121.961 454.469,121.3 453.665,121.3C452.861,121.3 452.2,121.961 452.2,122.765L452.2,124.291L455.069,124.291L455.069,122.765L455.13,122.765Z" style="fill:white;fill-rule:nonzero;"/>
                            </g>
                            <g transform="matrix(1,0,0,1,-373.908,-80.223)">
                                <path d="M384.529,99.573L386.729,99.573L386.729,97.373L387.645,97.373L387.645,95.603L386.729,95.603L386.729,85.9L384.471,85.9L380.5,95.971L380.5,97.371L384.529,97.371L384.529,99.573ZM382.515,95.544L384.59,89.928L384.59,95.544L382.515,95.544Z" style="fill:white;fill-rule:nonzero;"/>
                            </g>
                            <g transform="matrix(1,0,0,1,-382.44,-79.561)">
                                <path d="M402.4,85.3L404.719,85.3L404.719,86.094L403.376,86.094L403.376,87.74L404.353,87.74L404.353,88.534L403.376,88.534L403.376,90.3L404.719,90.3L404.719,91.1L402.4,91.1L402.4,85.3ZM404.414,84.873L402.888,85.056L402.888,84.507L404.414,84.202L404.414,84.873Z" style="fill:white;fill-rule:nonzero;"/>
                            </g>
                            <g transform="matrix(1,0,0,1,-384.232,-80.262)">
                                <path d="M409.93,87.526L409.93,90.212C409.93,91.067 409.564,91.738 408.53,91.738L407,91.738L407,86L408.465,86C408.513,85.995 408.561,85.992 408.61,85.992C409.342,85.992 409.945,86.595 409.945,87.327C409.945,87.394 409.94,87.46 409.93,87.526M408.4,90.944C408.827,90.944 408.949,90.7 408.949,90.334L408.949,87.343C408.952,87.321 408.954,87.298 408.954,87.275C408.954,87.009 408.734,86.789 408.468,86.789C408.445,86.789 408.422,86.791 408.4,86.794L407.973,86.794L407.973,90.945L408.4,90.944Z" style="fill:white;fill-rule:nonzero;"/>
                            </g>
                            <g transform="matrix(1,0,0,1,-386.453,-80.262)">
                                <path d="M415.508,86L415.508,90.334C415.508,91.25 415.142,91.799 414.165,91.799C414.104,91.808 414.042,91.812 413.981,91.812C413.271,91.812 412.687,91.228 412.687,90.518C412.687,90.457 412.691,90.395 412.7,90.334L412.7,86L413.677,86L413.677,90.456C413.677,90.822 413.799,91.005 414.165,91.005C414.531,91.005 414.653,90.761 414.653,90.456L414.653,86L415.508,86Z" style="fill:white;fill-rule:nonzero;"/>
                            </g>
                            <g transform="matrix(1,0,0,1,-388.596,-80.223)">
                                <path d="M418.2,90.234L418.2,87.426C418.19,87.361 418.186,87.296 418.186,87.231C418.186,86.497 418.79,85.893 419.524,85.893C419.571,85.893 419.618,85.895 419.665,85.9C420.765,85.9 421.008,86.51 421.008,87.365L421.008,88.036L420.153,88.036L420.153,87.3C420.153,86.934 420.031,86.751 419.665,86.751C419.299,86.751 419.177,86.995 419.177,87.361L419.177,90.474C419.177,90.84 419.299,91.084 419.665,91.084C420.031,91.084 420.153,90.84 420.153,90.535L420.153,89.5L421.008,89.5L421.008,90.477C421.008,91.332 420.642,91.942 419.665,91.942C418.846,91.908 418.19,91.224 418.19,90.404C418.19,90.347 418.194,90.29 418.2,90.233" style="fill:white;fill-rule:nonzero;"/>
                            </g>
                            <g transform="matrix(1,0,0,1,-390.583,-80.262)">
                                <path d="M423.3,91.738L424.4,86L425.5,86L426.6,91.738L425.562,91.738L425.379,90.7L424.341,90.7L424.158,91.738L423.3,91.738ZM424.521,89.907L425.315,89.907L424.949,87.588L424.521,89.907Z" style="fill:white;fill-rule:nonzero;"/>
                            </g>
                            <g transform="matrix(1,0,0,1,-392.609,-80.262)">
                                <path d="M428.5,86L431.064,86L431.064,86.794L430.271,86.794L430.271,91.738L429.294,91.738L429.294,86.794L428.5,86.794L428.5,86Z" style="fill:white;fill-rule:nonzero;"/>
                            </g>
                            <g transform="matrix(1,0,0,1,38.882,5.738)">
                                <rect x="0" y="0" width="0.977" height="5.738" style="fill:white;"/>
                            </g>
                            <g transform="matrix(1,0,0,1,-395.492,-80.223)">
                                <path d="M435.9,90.234L435.9,87.426C435.89,87.361 435.886,87.296 435.886,87.231C435.886,86.497 436.49,85.893 437.224,85.893C437.271,85.893 437.318,85.895 437.365,85.9C437.402,85.897 437.44,85.895 437.477,85.895C438.225,85.895 438.84,86.511 438.84,87.258C438.84,87.314 438.837,87.37 438.83,87.426L438.83,90.234C438.84,90.299 438.844,90.364 438.844,90.429C438.844,91.163 438.24,91.767 437.506,91.767C437.459,91.767 437.412,91.765 437.365,91.76C436.327,91.821 435.9,91.15 435.9,90.234M437.853,90.417L437.853,87.3C437.853,86.934 437.67,86.69 437.365,86.69C436.999,86.69 436.877,86.934 436.877,87.3L436.877,90.413C436.877,90.779 437.06,91.023 437.365,91.023C437.643,90.995 437.857,90.759 437.857,90.48C437.857,90.457 437.856,90.435 437.853,90.413" style="fill:white;fill-rule:nonzero;"/>
                            </g>
                            <g transform="matrix(1,0,0,1,-397.713,-80.262)">
                                <path d="M442.455,88.136L442.455,91.736L441.6,91.736L441.6,86L442.577,86L443.615,89.3L443.615,86L444.409,86L444.409,91.738L443.554,91.738L442.455,88.136Z" style="fill:white;fill-rule:nonzero;"/>
                            </g>
                            <g transform="matrix(1,0,0,1,-383.025,-85.442)">
                                <path d="M406.769,100.824L406.769,103.51C406.769,104.365 406.403,105.036 405.369,105.036L403.9,105.036L403.9,99.3L405.365,99.3C406.403,99.239 406.765,99.91 406.765,100.826M405.239,104.244C405.666,104.244 405.788,104 405.788,103.634L405.788,100.64C405.791,100.618 405.793,100.595 405.793,100.572C405.793,100.306 405.573,100.086 405.307,100.086C405.284,100.086 405.261,100.088 405.239,100.091L404.812,100.091L404.812,104.242L405.239,104.244Z" style="fill:white;fill-rule:nonzero;"/>
                            </g>
                            <g transform="matrix(1,0,0,1,-385.206,-85.405)">
                                <path d="M409.5,99.2L411.819,99.2L411.819,99.994L410.476,99.994L410.476,101.642L411.453,101.642L411.453,102.436L410.476,102.436L410.476,104.206L411.819,104.206L411.819,105L409.5,105L409.5,99.2Z" style="fill:white;fill-rule:nonzero;"/>
                            </g>
                            <g transform="matrix(1,0,0,1,-387.583,-85.405)">
                                <path d="M416.7,105.365L416.7,105C415.998,104.898 415.502,104.238 415.6,103.535L415.6,100.727C415.59,100.662 415.586,100.597 415.586,100.532C415.586,99.798 416.19,99.194 416.924,99.194C416.971,99.194 417.018,99.196 417.065,99.201C417.102,99.198 417.14,99.196 417.177,99.196C417.925,99.196 418.54,99.812 418.54,100.559C418.54,100.615 418.537,100.671 418.53,100.727L418.53,103.535C418.574,104.087 418.286,104.615 417.798,104.878L418.53,105L418.53,105.732L416.7,105.365ZM417.555,103.717L417.555,100.6C417.555,100.234 417.372,99.99 417.067,99.99C416.701,99.99 416.579,100.234 416.579,100.6L416.579,103.713C416.579,104.079 416.762,104.323 417.067,104.323C417.345,104.295 417.559,104.059 417.559,103.78C417.559,103.757 417.558,103.735 417.555,103.713" style="fill:white;fill-rule:nonzero;"/>
                            </g>
                            <g transform="matrix(1,0,0,1,-389.804,-85.405)">
                                <path d="M424.108,99.2L424.108,103.534C424.108,104.45 423.742,104.999 422.765,104.999C422.704,105.008 422.642,105.012 422.581,105.012C421.871,105.012 421.287,104.428 421.287,103.718C421.287,103.657 421.291,103.595 421.3,103.534L421.3,99.2L422.277,99.2L422.277,103.656C422.277,104.022 422.399,104.205 422.765,104.205C423.131,104.205 423.253,103.961 423.253,103.656L423.253,99.2L424.108,99.2Z" style="fill:white;fill-rule:nonzero;"/>
                            </g>
                            <g transform="matrix(1,0,0,1,-391.791,-85.444)">
                                <path d="M426.4,105.038L427.5,99.3L428.6,99.3L429.7,105.038L428.723,105.038L428.536,104L427.5,104L427.317,105.038L426.4,105.038ZM427.621,103.207L428.414,103.207L428.048,100.887L427.621,103.207Z" style="fill:white;fill-rule:nonzero;"/>
                            </g>
                            <g transform="matrix(1,0,0,1,-394.128,-85.405)">
                                <path d="M432.4,99.2L433.377,99.2L433.377,104.205L434.537,104.205L434.537,105L432.4,105L432.4,99.2Z" style="fill:white;fill-rule:nonzero;"/>
                            </g>
                            <g transform="matrix(1,0,0,1,40.835,13.795)">
                                <rect x="0" y="0" width="0.977" height="5.738" style="fill:white;"/>
                            </g>
                            <g transform="matrix(1,0,0,1,-396.661,-85.405)">
                                <path d="M438.9,99.2L441.525,99.2L441.525,99.994L440.731,99.994L440.731,105L439.754,105L439.754,99.993L438.9,99.993L438.9,99.2Z" style="fill:white;fill-rule:nonzero;"/>
                            </g>
                            <g transform="matrix(1,0,0,1,-398.609,-84.743)">
                                <path d="M443.9,98.538L446.219,98.538L446.219,99.332L444.876,99.332L444.876,100.98L445.853,100.98L445.853,101.774L444.876,101.774L444.876,103.544L446.219,103.544L446.219,104.338L443.9,104.338L443.9,98.538ZM445.914,98.172L444.388,98.355L444.388,97.806L445.914,97.501L445.914,98.172Z" style="fill:white;fill-rule:nonzero;"/>
                            </g>
                        </g>
                    </g>
                </g>
            </g>
        </g>
    </g>
</svg>
