<?xml version="1.0" encoding="UTF-8" standalone="no"?>
<!DOCTYPE svg PUBLIC "-//W3C//DTD SVG 1.1//EN" "http://www.w3.org/Graphics/SVG/1.1/DTD/svg11.dtd">
<svg width="100%" height="100%" viewBox="0 0 68 68" version="1.1" xmlns="http://www.w3.org/2000/svg" xmlns:xlink="http://www.w3.org/1999/xlink" xml:space="preserve" xmlns:serif="http://www.serif.com/" style="fill-rule:evenodd;clip-rule:evenodd;stroke-linejoin:round;stroke-miterlimit:2;">
    <g id="Plan-de-travail1" serif:id="Plan de travail1" transform="matrix(0.985507,0,0,1,0,0)">
        <rect x="0" y="0" width="69" height="68" style="fill:none;"/>
        <clipPath id="_clip1">
            <rect x="0" y="0" width="69" height="68"/>
        </clipPath>
        <g clip-path="url(#_clip1)">
            <g transform="matrix(1.01471,0,0,1.00183,0,0)">
                <g id="_0DD5" serif:id="0DD5">
                    <rect x="0" y="0" width="68" height="67.876" style="fill:none;"/>
                    <g transform="matrix(1,0,0,0.998176,0.062,-8.79463e-13)">
                        <g id="odd5-carre">
                            <rect x="0" y="0" width="67.876" height="67.876" style="fill:rgb(239,65,42);"/>
                            <g transform="matrix(1,0,0,1,-507.432,-92.964)">
                                <path d="M556.874,118.6L548.451,118.6C548.386,118.604 548.333,118.657 548.329,118.722L548.329,121.53C548.333,121.595 548.386,121.648 548.451,121.652L551.808,121.652L548.085,125.375C546.134,123.846 543.728,123.008 541.249,122.994L541.24,122.994C535.188,122.994 530.209,127.974 530.209,134.025C530.209,139.553 534.365,144.271 539.849,144.968L539.849,148.2L536.492,148.2C536.427,148.204 536.374,148.257 536.37,148.322L536.37,151.313C536.374,151.378 536.427,151.431 536.492,151.435L539.849,151.435L539.849,154.609C539.853,154.674 539.906,154.727 539.971,154.731L542.962,154.731C543.027,154.727 543.08,154.674 543.084,154.609L543.084,151.435L546.384,151.435C546.449,151.431 546.502,151.378 546.506,151.313L546.506,148.322C546.502,148.257 546.449,148.204 546.384,148.2L543.084,148.2L543.084,144.9C548.408,144.018 552.354,139.371 552.362,133.974C552.378,131.699 551.673,129.476 550.348,127.626L554.01,123.964L554.01,127.077C554.014,127.142 554.067,127.195 554.132,127.199L556.94,127.199C557.005,127.195 557.058,127.142 557.062,127.077L557.062,118.654C557.001,118.654 556.94,118.593 556.879,118.593M541.314,142.154C536.861,142.154 533.196,138.489 533.196,134.036C533.196,129.583 536.861,125.918 541.314,125.918C545.767,125.918 549.432,129.583 549.432,134.036C549.412,138.482 545.76,142.134 541.314,142.154" style="fill:white;fill-rule:nonzero;"/>
                            </g>
                            <g transform="matrix(1,0,0,1,-511.289,-100.717)">
                                <path d="M550.11,138.5L540.222,138.5C540.157,138.504 540.104,138.557 540.1,138.622L540.1,141C540.104,141.065 540.157,141.118 540.222,141.122L550.11,141.122C550.175,141.118 550.228,141.065 550.232,141L550.232,138.619C550.232,138.497 550.171,138.497 550.11,138.497" style="fill:white;fill-rule:nonzero;"/>
                            </g>
                            <g transform="matrix(1,0,0,1,-511.289,-103.405)">
                                <path d="M550.11,145.4L540.222,145.4C540.157,145.404 540.104,145.457 540.1,145.522L540.1,147.9C540.104,147.965 540.157,148.018 540.222,148.022L550.11,148.022C550.175,148.018 550.228,147.965 550.232,147.9L550.232,145.519C550.228,145.454 550.175,145.401 550.11,145.397" style="fill:white;fill-rule:nonzero;"/>
                            </g>
                            <g transform="matrix(1,0,0,1,-497.497,-80.223)">
                                <path d="M508.79,90.234C508.006,90.152 507.242,90.534 506.837,91.211L506.837,87.792L510.8,87.792L510.8,85.9L504.757,85.9L504.757,93.591L506.832,93.591L506.832,93.286C506.832,92.492 507.198,92.004 507.87,92.004C508.602,92.004 508.847,92.492 508.847,93.225L508.847,96.525C508.847,97.257 508.603,97.746 507.87,97.746C507.077,97.746 506.77,97.197 506.77,96.403L506.77,94.69L504.7,94.69L504.7,96.216C504.7,98.291 505.555,99.634 507.874,99.634C510.193,99.634 511.174,98.413 511.174,96.521L511.174,93.164C511.113,91.089 510.014,90.234 508.793,90.234" style="fill:white;fill-rule:nonzero;"/>
                            </g>
                            <g transform="matrix(1,0,0,1,-505.445,-79.561)">
                                <path d="M525.1,85.3L527.419,85.3L527.419,86.094L526.076,86.094L526.076,87.74L527.053,87.74L527.053,88.534L526.076,88.534L526.076,90.3L527.419,90.3L527.419,91.1L525.1,91.1L525.1,85.3ZM527.114,84.873L525.588,85.056L525.588,84.507L527.114,84.202L527.114,84.873Z" style="fill:white;fill-rule:nonzero;"/>
                            </g>
                            <g transform="matrix(1,0,0,1,-507.237,-80.223)">
                                <path d="M531.1,88.647L532.5,88.647L532.5,91.7L531.829,91.7L531.829,91.09C531.732,91.507 531.34,91.794 530.913,91.761C530.059,91.761 529.692,91.09 529.692,90.235L529.692,87.426C529.682,87.361 529.678,87.296 529.678,87.231C529.678,86.497 530.282,85.893 531.016,85.893C531.063,85.893 531.11,85.895 531.157,85.9C532.257,85.9 532.557,86.51 532.557,87.365L532.557,87.853L531.703,87.853L531.703,87.243C531.703,86.877 531.581,86.694 531.215,86.694C530.849,86.694 530.727,86.938 530.727,87.304L530.727,90.417C530.727,90.783 530.849,91.027 531.215,91.027C531.52,91.027 531.703,90.844 531.703,90.478L531.703,89.44L531.093,89.44L531.1,88.647Z" style="fill:white;fill-rule:nonzero;"/>
                            </g>
                            <g transform="matrix(1,0,0,1,-509.263,-80.262)">
                                <path d="M534.9,91.738L536,86L537.1,86L538.2,91.738L537.223,91.738L537.04,90.7L536,90.7L535.817,91.738L534.9,91.738ZM536.121,89.907L536.915,89.907L536.549,87.588L536.121,89.907Z" style="fill:white;fill-rule:nonzero;"/>
                            </g>
                            <g transform="matrix(1,0,0,1,-511.601,-80.262)">
                                <path d="M540.9,86L541.877,86L541.877,90.944L543.037,90.944L543.037,91.738L540.9,91.738L540.9,86Z" style="fill:white;fill-rule:nonzero;"/>
                            </g>
                            <g transform="matrix(1,0,0,1,31.863,5.738)">
                                <rect x="0" y="0" width="0.977" height="5.738" style="fill:white;"/>
                            </g>
                            <g transform="matrix(1,0,0,1,-514.133,-80.262)">
                                <path d="M547.4,86L549.964,86L549.964,86.794L549.17,86.794L549.17,91.738L548.193,91.738L548.193,86.794L547.4,86.794L547.4,86Z" style="fill:white;fill-rule:nonzero;"/>
                            </g>
                            <g transform="matrix(1,0,0,1,-516.081,-79.561)">
                                <path d="M552.4,85.3L554.72,85.3L554.72,86.094L553.377,86.094L553.377,87.74L554.354,87.74L554.354,88.534L553.377,88.534L553.377,90.3L554.72,90.3L554.72,91.1L552.4,91.1L552.4,85.3ZM554.414,84.873L552.888,85.056L552.888,84.507L554.414,84.202L554.414,84.873Z" style="fill:white;fill-rule:nonzero;"/>
                            </g>
                            <g transform="matrix(1,0,0,1,-518.458,-80.262)">
                                <path d="M558.5,86L560.819,86L560.819,86.794L559.476,86.794L559.476,88.442L560.392,88.442L560.392,89.236L559.476,89.236L559.476,90.945L560.819,90.945L560.819,91.739L558.5,91.739L558.5,86Z" style="fill:white;fill-rule:nonzero;"/>
                            </g>
                            <g transform="matrix(1,0,0,1,-520.25,-80.262)">
                                <path d="M563.955,88.136L563.955,91.736L563.1,91.736L563.1,86L564.077,86L565.115,89.3L565.115,86L565.909,86L565.909,91.738L565.054,91.738L563.955,88.136Z" style="fill:white;fill-rule:nonzero;"/>
                            </g>
                            <g transform="matrix(1,0,0,1,-522.315,-80.262)">
                                <path d="M568.4,86L571.025,86L571.025,86.794L570.17,86.794L570.17,91.738L569.193,91.738L569.193,86.794L568.4,86.794L568.4,86Z" style="fill:white;fill-rule:nonzero;"/>
                            </g>
                            <g transform="matrix(1,0,0,1,-524.263,-80.262)">
                                <path d="M574.377,89.113L574.377,91.738L573.4,91.738L573.4,86L574.8,86C575.777,86 576.143,86.488 576.143,87.282L576.143,88.014C576.219,88.532 575.865,89.023 575.35,89.114L576.266,91.739L575.228,91.739L574.377,89.113ZM574.377,86.733L574.377,88.564L574.682,88.564C574.696,88.565 574.709,88.566 574.723,88.566C574.969,88.566 575.172,88.363 575.172,88.117C575.172,88.103 575.171,88.09 575.17,88.076L575.17,87.221C575.17,86.916 575.048,86.733 574.682,86.733L574.377,86.733Z" style="fill:white;fill-rule:nonzero;"/>
                            </g>
                            <g transform="matrix(1,0,0,1,-526.367,-80.262)">
                                <path d="M578.8,86L581.058,86L581.058,86.794L579.715,86.794L579.715,88.442L580.692,88.442L580.692,89.236L579.715,89.236L579.715,90.945L581.058,90.945L581.058,91.739L578.8,91.739L578.8,86Z" style="fill:white;fill-rule:nonzero;"/>
                            </g>
                            <g transform="matrix(1,0,0,1,-505.445,-85.405)">
                                <path d="M525.1,99.2L526.016,99.2L526.016,104.205L527.176,104.205L527.176,105L525.1,105L525.1,99.2Z" style="fill:white;fill-rule:nonzero;"/>
                            </g>
                            <g transform="matrix(1,0,0,1,-507.082,-85.405)">
                                <path d="M529.3,99.2L531.558,99.2L531.558,99.994L530.215,99.994L530.215,101.642L531.192,101.642L531.192,102.436L530.215,102.436L530.215,104.206L531.558,104.206L531.558,105L529.3,105L529.3,99.2Z" style="fill:white;fill-rule:nonzero;"/>
                            </g>
                            <g transform="matrix(1,0,0,1,-508.796,-85.366)">
                                <path d="M533.7,103.678L533.7,102.884L534.616,102.884L534.616,103.678C534.616,103.983 534.738,104.166 535.104,104.166C535.409,104.166 535.531,103.983 535.531,103.678L535.531,103.434C535.529,103.115 535.369,102.817 535.104,102.64L534.555,102.091C534.064,101.737 533.769,101.17 533.762,100.565L533.762,100.382C533.76,100.352 533.759,100.322 533.759,100.292C533.759,99.633 534.3,99.092 534.959,99.092C535.006,99.092 535.053,99.094 535.1,99.1C536.077,99.1 536.443,99.588 536.443,100.382L536.443,100.87L535.588,100.87L535.588,100.382C535.589,100.368 535.59,100.355 535.59,100.341C535.59,100.095 535.387,99.892 535.141,99.892C535.127,99.892 535.114,99.893 535.1,99.894L535.093,99.894C534.829,99.894 534.612,100.111 534.612,100.375L534.612,100.504C534.612,100.809 534.795,100.992 535.1,101.298L535.71,101.908C536.259,102.457 536.503,102.763 536.503,103.373L536.503,103.678C536.475,104.428 535.85,105.03 535.099,105.03C534.348,105.03 533.723,104.428 533.695,103.678" style="fill:white;fill-rule:nonzero;"/>
                            </g>
                            <g transform="matrix(1,0,0,1,-511.445,-85.366)">
                                <path d="M540.5,103.678L540.5,102.884L541.416,102.884L541.416,103.678C541.416,103.983 541.538,104.166 541.904,104.166C542.209,104.166 542.331,103.983 542.331,103.678L542.331,103.434C542.329,103.115 542.169,102.817 541.904,102.64L541.355,102.091C540.864,101.737 540.569,101.17 540.562,100.565L540.562,100.382C540.56,100.352 540.559,100.322 540.559,100.292C540.559,99.633 541.1,99.092 541.759,99.092C541.806,99.092 541.853,99.094 541.9,99.1C542.877,99.1 543.243,99.588 543.243,100.382L543.243,100.87L542.388,100.87L542.388,100.382C542.389,100.368 542.39,100.355 542.39,100.341C542.39,100.095 542.187,99.892 541.941,99.892C541.927,99.892 541.914,99.893 541.9,99.894L541.893,99.894C541.629,99.894 541.412,100.111 541.412,100.375L541.412,100.504C541.412,100.809 541.595,100.992 541.9,101.298L542.51,101.908C543.059,102.457 543.304,102.763 543.304,103.373L543.304,103.678C543.308,103.716 543.309,103.754 543.309,103.792C543.309,104.472 542.75,105.032 542.069,105.032C542.014,105.032 541.959,105.028 541.904,105.021C540.866,105.021 540.504,104.472 540.504,103.678" style="fill:white;fill-rule:nonzero;"/>
                            </g>
                            <g transform="matrix(1,0,0,1,-513.549,-85.405)">
                                <path d="M545.9,99.2L548.219,99.2L548.219,99.994L546.876,99.994L546.876,101.642L547.853,101.642L547.853,102.436L546.876,102.436L546.876,104.206L548.219,104.206L548.219,105L545.9,105L545.9,99.2Z" style="fill:white;fill-rule:nonzero;"/>
                            </g>
                            <g transform="matrix(1,0,0,1,-515.263,-85.405)">
                                <path d="M551.216,101.947L550.423,99.2L551.4,99.2L551.949,101.092L552.5,99.2L553.416,99.2L552.561,101.947L553.477,104.999L552.5,104.999L551.829,102.799L551.219,104.999L550.3,104.999L551.216,101.947Z" style="fill:white;fill-rule:nonzero;"/>
                            </g>
                            <g transform="matrix(1,0,0,1,-517.601,-85.405)">
                                <path d="M556.3,99.2L558.558,99.2L558.558,99.994L557.215,99.994L557.215,101.642L558.192,101.642L558.192,102.436L557.215,102.436L557.215,104.206L558.558,104.206L558.558,105L556.3,105L556.3,99.2Z" style="fill:white;fill-rule:nonzero;"/>
                            </g>
                            <g transform="matrix(1,0,0,1,-519.315,-85.366)">
                                <path d="M560.7,103.678L560.7,102.884L561.616,102.884L561.616,103.678C561.616,103.983 561.738,104.166 562.104,104.166C562.409,104.166 562.531,103.983 562.531,103.678L562.531,103.434C562.529,103.115 562.369,102.817 562.104,102.64L561.555,102.091C561.064,101.737 560.769,101.17 560.762,100.565L560.762,100.382C560.76,100.352 560.759,100.322 560.759,100.292C560.759,99.633 561.3,99.092 561.959,99.092C562.006,99.092 562.053,99.094 562.1,99.1C563.077,99.1 563.443,99.588 563.443,100.382L563.443,100.87L562.588,100.87L562.588,100.382C562.589,100.368 562.59,100.355 562.59,100.341C562.59,100.095 562.387,99.892 562.141,99.892C562.127,99.892 562.114,99.893 562.1,99.894L562.093,99.894C561.829,99.894 561.612,100.111 561.612,100.375L561.612,100.504C561.612,100.809 561.795,100.992 562.1,101.298L562.71,101.908C563.259,102.457 563.504,102.763 563.504,103.373L563.504,103.678C563.476,104.428 562.851,105.03 562.1,105.03C561.349,105.03 560.724,104.428 560.696,103.678" style="fill:white;fill-rule:nonzero;"/>
                            </g>
                        </g>
                    </g>
                </g>
            </g>
        </g>
    </g>
</svg>
