<?xml version="1.0" encoding="UTF-8" standalone="no"?>
<!DOCTYPE svg PUBLIC "-//W3C//DTD SVG 1.1//EN" "http://www.w3.org/Graphics/SVG/1.1/DTD/svg11.dtd">
<svg width="100%" height="100%" viewBox="0 0 68 68" version="1.1" xmlns="http://www.w3.org/2000/svg" xmlns:xlink="http://www.w3.org/1999/xlink" xml:space="preserve" xmlns:serif="http://www.serif.com/" style="fill-rule:evenodd;clip-rule:evenodd;stroke-linejoin:round;stroke-miterlimit:2;">
    <g id="Plan-de-travail1" serif:id="Plan de travail1" transform="matrix(0.985507,0,0,0.985507,0,0)">
        <rect x="0" y="0" width="69" height="69" style="fill:none;"/>
        <clipPath id="_clip1">
            <rect x="0" y="0" width="69" height="69"/>
        </clipPath>
        <g clip-path="url(#_clip1)">
            <g transform="matrix(1.01471,0,0,1.01656,0,8.94049e-13)">
                <g id="ODD6">
                    <rect x="0" y="0" width="68" height="67.876" style="fill:none;"/>
                    <g transform="matrix(1,0,0,0.998176,0.062,-8.79477e-13)">
                        <g id="odd6-carre">
                            <rect x="0" y="0" width="67.876" height="67.876" style="fill:rgb(0,173,216);"/>
                            <g transform="matrix(1,0,0,1,-629.797,-94.015)">
                                <path d="M676.248,121.422C676.188,121.346 676.097,121.301 676,121.3L651.4,121.3C651.308,121.315 651.223,121.358 651.156,121.422C651.108,121.494 651.086,121.58 651.095,121.666L655.246,146.692C655.264,146.842 655.401,146.951 655.551,146.936L660.617,146.936L660.983,151.026L658.847,151.026L663.791,155.97L668.796,150.965L666.66,150.965L667.026,146.875L672.214,146.875C672.351,146.851 672.466,146.759 672.519,146.631L676.364,121.605C676.303,121.605 676.242,121.483 676.242,121.422M666.72,141.443C665.018,142.822 662.562,142.822 660.86,141.443C659.511,140.001 659.285,137.821 660.311,136.133C660.677,135.401 663.546,131.128 663.79,130.762C664.034,131.128 666.842,135.401 667.269,136.133C668.296,137.82 668.07,140.001 666.72,141.443M674.533,126.671C673.774,126.408 672.941,126.452 672.213,126.793C669.161,128.014 667.086,128.502 663.851,127.464C661.837,126.854 659.944,125.511 657.686,126.304C656.239,126.935 654.686,127.287 653.108,127.342L652.131,122.398L675.204,122.398L674.533,126.671Z" style="fill:white;fill-rule:nonzero;"/>
                            </g>
                            <g transform="matrix(1,0,0,1,-620.602,-80.146)">
                                <path d="M630.857,99.678C633.299,99.678 634.275,98.335 634.275,96.199L634.275,94.184C634.275,91.926 633.359,90.827 631.711,90.827C630.917,90.774 630.166,91.211 629.819,91.927L629.819,89C629.819,88.145 630.063,87.6 630.919,87.6C631.775,87.6 632.019,88.088 632.019,88.943L632.019,89.859L634.094,89.859L634.094,89.127C634.094,87.113 633.423,85.709 630.859,85.709C628.417,85.709 627.502,87.235 627.502,89.371L627.502,96.024C627.502,98.16 628.418,99.686 630.859,99.686M629.821,93.948C629.882,93.154 630.187,92.727 630.921,92.727C631.715,92.727 632.021,93.215 632.021,94.07L632.021,96.451C632.021,97.306 631.716,97.794 630.921,97.794C630.126,97.794 629.821,97.245 629.821,96.451L629.821,93.948Z" style="fill:white;fill-rule:nonzero;"/>
                            </g>
                            <g transform="matrix(1,0,0,1,-628.278,-80.262)">
                                <path d="M647.2,86L649.52,86L649.52,86.794L648.177,86.794L648.177,88.442L649.093,88.442L649.093,89.236L648.177,89.236L648.177,90.945L649.52,90.945L649.52,91.739L647.2,91.739L647.2,86Z" style="fill:white;fill-rule:nonzero;"/>
                            </g>
                            <g transform="matrix(1,0,0,1,-629.992,-80.262)">
                                <path d="M651.6,91.738L652.7,86L653.8,86L654.9,91.738L653.923,91.738L653.74,90.7L652.7,90.7L652.517,91.738L651.6,91.738ZM652.76,89.907L653.554,89.907L653.188,87.588L652.76,89.907Z" style="fill:white;fill-rule:nonzero;"/>
                            </g>
                            <g transform="matrix(1,0,0,1,-632.252,-80.262)">
                                <path d="M660.208,86L660.208,90.334C660.208,91.25 659.842,91.799 658.865,91.799C658.804,91.808 658.742,91.812 658.681,91.812C657.971,91.812 657.387,91.228 657.387,90.518C657.387,90.457 657.391,90.395 657.4,90.334L657.4,86L658.377,86L658.377,90.456C658.377,90.822 658.499,91.005 658.865,91.005C659.231,91.005 659.353,90.761 659.353,90.456L659.353,86L660.208,86Z" style="fill:white;fill-rule:nonzero;"/>
                            </g>
                            <g transform="matrix(1,0,0,1,-634.979,-80.262)">
                                <path d="M664.4,86L665.865,86C666.842,86 667.208,86.488 667.208,87.282L667.208,88.5C667.208,89.294 666.842,89.782 665.865,89.782L665.377,89.782L665.377,91.735L664.4,91.735L664.4,86ZM665.377,86.733L665.377,89.052L665.743,89.052C665.757,89.053 665.77,89.054 665.784,89.054C666.03,89.054 666.233,88.851 666.233,88.605C666.233,88.591 666.232,88.578 666.231,88.564L666.231,87.221C666.231,86.916 666.109,86.733 665.743,86.733L665.377,86.733Z" style="fill:white;fill-rule:nonzero;"/>
                            </g>
                            <g transform="matrix(1,0,0,1,-637.044,-80.262)">
                                <path d="M670.677,89.113L670.677,91.738L669.7,91.738L669.7,86L671.1,86C672.077,86 672.443,86.488 672.443,87.282L672.443,88.014C672.519,88.532 672.165,89.023 671.649,89.114L672.565,91.739L671.527,91.739L670.677,89.113ZM670.677,86.733L670.677,88.564L670.982,88.564C670.996,88.565 671.009,88.566 671.023,88.566C671.269,88.566 671.472,88.363 671.472,88.117C671.472,88.103 671.471,88.09 671.47,88.076L671.47,87.221C671.47,86.916 671.348,86.733 670.982,86.733L670.677,86.733Z" style="fill:white;fill-rule:nonzero;"/>
                            </g>
                            <g transform="matrix(1,0,0,1,-639.148,-80.223)">
                                <path d="M675.1,90.234L675.1,87.426C675.09,87.361 675.086,87.296 675.086,87.231C675.086,86.497 675.69,85.893 676.424,85.893C676.471,85.893 676.518,85.895 676.565,85.9C676.602,85.897 676.64,85.895 676.677,85.895C677.425,85.895 678.04,86.511 678.04,87.258C678.04,87.314 678.037,87.37 678.03,87.426L678.03,90.234C678.04,90.299 678.044,90.364 678.044,90.429C678.044,91.163 677.44,91.767 676.706,91.767C676.659,91.767 676.612,91.765 676.565,91.76C675.527,91.821 675.1,91.15 675.1,90.234M677.053,90.417L677.053,87.3C677.053,86.934 676.87,86.69 676.565,86.69C676.199,86.69 676.077,86.934 676.077,87.3L676.077,90.413C676.077,90.779 676.26,91.023 676.565,91.023C676.856,90.971 677.066,90.708 677.053,90.413" style="fill:white;fill-rule:nonzero;"/>
                            </g>
                            <g transform="matrix(1,0,0,1,-641.368,-80.262)">
                                <path d="M680.8,86L682.265,86C683.242,86 683.608,86.488 683.608,87.282L683.608,88.5C683.608,89.294 683.242,89.782 682.265,89.782L681.777,89.782L681.777,91.735L680.8,91.735L680.8,86ZM681.777,86.733L681.777,89.052L682.143,89.052C682.157,89.053 682.17,89.054 682.184,89.054C682.43,89.054 682.633,88.851 682.633,88.605C682.633,88.591 682.632,88.578 682.631,88.564L682.631,87.221C682.631,86.916 682.509,86.733 682.143,86.733L681.777,86.733Z" style="fill:white;fill-rule:nonzero;"/>
                            </g>
                            <g transform="matrix(1,0,0,1,-643.433,-80.262)">
                                <path d="M687.077,89.113L687.077,91.738L686.1,91.738L686.1,86L687.5,86C688.477,86 688.843,86.488 688.843,87.282L688.843,88.014C688.919,88.532 688.565,89.023 688.05,89.114L688.966,91.739L687.928,91.739L687.077,89.113ZM687.077,86.733L687.077,88.564L687.382,88.564C687.396,88.565 687.409,88.566 687.423,88.566C687.669,88.566 687.872,88.363 687.872,88.117C687.872,88.103 687.871,88.09 687.87,88.076L687.87,87.221C687.87,86.916 687.748,86.733 687.382,86.733L687.077,86.733Z" style="fill:white;fill-rule:nonzero;"/>
                            </g>
                            <g transform="matrix(1,0,0,1,-645.537,-80.262)">
                                <path d="M691.5,86L693.82,86L693.82,86.794L692.477,86.794L692.477,88.442L693.454,88.442L693.454,89.236L692.477,89.236L692.477,90.945L693.82,90.945L693.82,91.739L691.5,91.739L691.5,86Z" style="fill:white;fill-rule:nonzero;"/>
                            </g>
                            <g transform="matrix(1,0,0,1,-647.914,-80.262)">
                                <path d="M697.6,86L699.92,86L699.92,86.794L698.577,86.794L698.577,88.442L699.554,88.442L699.554,89.236L698.577,89.236L698.577,90.945L699.92,90.945L699.92,91.739L697.6,91.739L697.6,86Z" style="fill:white;fill-rule:nonzero;"/>
                            </g>
                            <g transform="matrix(1,0,0,1,-649.667,-80.262)">
                                <path d="M702.1,86L704.664,86L704.664,86.794L703.871,86.794L703.871,91.738L702.894,91.738L702.894,86.794L702.1,86.794L702.1,86Z" style="fill:white;fill-rule:nonzero;"/>
                            </g>
                            <g transform="matrix(1,0,0,1,-628.161,-85.444)">
                                <path d="M646.9,105.038L648,99.3L649.1,99.3L650.2,105.038L649.223,105.038L649.036,104L648,104L647.817,105.038L646.9,105.038ZM648.121,103.207L648.915,103.207L648.549,100.887L648.121,103.207Z" style="fill:white;fill-rule:nonzero;"/>
                            </g>
                            <g transform="matrix(1,0,0,1,-630.421,-85.366)">
                                <path d="M652.7,103.678L652.7,102.884L653.616,102.884L653.616,103.678C653.616,103.983 653.738,104.166 654.104,104.166C654.409,104.166 654.531,103.983 654.531,103.678L654.531,103.434C654.529,103.115 654.369,102.817 654.104,102.64L653.555,102.091C653.064,101.737 652.768,101.17 652.761,100.565L652.761,100.382C652.759,100.352 652.758,100.322 652.758,100.292C652.758,99.633 653.299,99.092 653.958,99.092C654.005,99.092 654.053,99.094 654.1,99.1C655.077,99.1 655.443,99.588 655.443,100.382L655.443,100.87L654.588,100.87L654.588,100.382C654.589,100.368 654.59,100.355 654.59,100.341C654.59,100.095 654.387,99.892 654.141,99.892C654.127,99.892 654.114,99.893 654.1,99.894L654.093,99.894C653.829,99.894 653.612,100.111 653.612,100.375L653.612,100.504C653.612,100.809 653.795,100.992 654.1,101.298L654.71,101.908C655.259,102.457 655.504,102.763 655.504,103.373L655.504,103.678C655.476,104.428 654.851,105.03 654.1,105.03C653.349,105.03 652.724,104.428 652.696,103.678" style="fill:white;fill-rule:nonzero;"/>
                            </g>
                            <g transform="matrix(1,0,0,1,-632.485,-85.366)">
                                <path d="M658,103.678L658,102.884L658.916,102.884L658.916,103.678C658.916,103.983 659.038,104.166 659.404,104.166C659.709,104.166 659.831,103.983 659.831,103.678L659.831,103.434C659.829,103.115 659.669,102.817 659.404,102.64L658.855,102.091C658.364,101.737 658.069,101.17 658.062,100.565L658.062,100.382C658.06,100.352 658.059,100.322 658.059,100.292C658.059,99.633 658.6,99.092 659.259,99.092C659.306,99.092 659.353,99.094 659.4,99.1C660.377,99.1 660.743,99.588 660.743,100.382L660.743,100.87L659.827,100.87L659.827,100.382C659.828,100.368 659.829,100.355 659.829,100.341C659.829,100.095 659.626,99.892 659.38,99.892C659.366,99.892 659.353,99.893 659.339,99.894L659.332,99.894C659.068,99.894 658.851,100.111 658.851,100.375L658.851,100.504C658.851,100.809 659.034,100.992 659.339,101.298L659.949,101.908C660.498,102.457 660.743,102.763 660.743,103.373L660.743,103.678C660.747,103.716 660.748,103.755 660.748,103.793C660.748,104.473 660.189,105.032 659.509,105.032C659.454,105.032 659.398,105.028 659.343,105.021C659.29,105.028 659.237,105.032 659.183,105.032C658.528,105.032 657.989,104.493 657.989,103.838C657.989,103.784 657.993,103.731 658,103.678" style="fill:white;fill-rule:nonzero;"/>
                            </g>
                            <g transform="matrix(1,0,0,1,-634.434,-85.444)">
                                <path d="M663,105.038L664.1,99.3L665.2,99.3L666.3,105.038L665.323,105.038L665.136,104L664.1,104L663.917,105.038L663,105.038ZM664.221,103.207L665.015,103.207L664.649,100.887L664.221,103.207Z" style="fill:white;fill-rule:nonzero;"/>
                            </g>
                            <g transform="matrix(1,0,0,1,32.229,13.795)">
                                <rect x="0" y="0" width="0.977" height="5.738" style="fill:white;"/>
                            </g>
                            <g transform="matrix(1,0,0,1,-637.745,-85.405)">
                                <path d="M672.354,101.336L672.354,105L671.5,105L671.5,99.2L672.477,99.2L673.515,102.5L673.515,99.2L674.308,99.2L674.308,105L673.454,105L672.354,101.336Z" style="fill:white;fill-rule:nonzero;"/>
                            </g>
                            <g transform="matrix(1,0,0,1,37.112,13.795)">
                                <rect x="0" y="0" width="0.977" height="5.738" style="fill:white;"/>
                            </g>
                            <g transform="matrix(1,0,0,1,-640.823,-85.366)">
                                <path d="M679.4,103.678L679.4,102.884L680.316,102.884L680.316,103.678C680.316,103.983 680.438,104.166 680.804,104.166C681.109,104.166 681.231,103.983 681.231,103.678L681.231,103.434C681.229,103.115 681.069,102.817 680.804,102.64L680.255,102.091C679.764,101.737 679.468,101.17 679.461,100.565L679.461,100.382C679.459,100.352 679.458,100.322 679.458,100.292C679.458,99.633 679.999,99.092 680.658,99.092C680.705,99.092 680.753,99.094 680.8,99.1C681.777,99.1 682.143,99.588 682.143,100.382L682.143,100.87L681.288,100.87L681.288,100.382C681.289,100.368 681.29,100.355 681.29,100.341C681.29,100.095 681.087,99.892 680.841,99.892C680.827,99.892 680.814,99.893 680.8,99.894L680.793,99.894C680.529,99.894 680.312,100.111 680.312,100.375L680.312,100.504C680.312,100.809 680.495,100.992 680.8,101.298L681.41,101.908C681.959,102.457 682.204,102.763 682.204,103.373L682.204,103.678C682.176,104.428 681.551,105.03 680.8,105.03C680.049,105.03 679.424,104.428 679.396,103.678" style="fill:white;fill-rule:nonzero;"/>
                            </g>
                            <g transform="matrix(1,0,0,1,-642.888,-85.366)">
                                <path d="M684.7,103.678L684.7,102.884L685.616,102.884L685.616,103.678C685.616,103.983 685.738,104.166 686.104,104.166C686.409,104.166 686.531,103.983 686.531,103.678L686.531,103.434C686.529,103.115 686.369,102.817 686.104,102.64L685.494,102.091C685.003,101.737 684.708,101.17 684.701,100.565L684.701,100.382C684.699,100.352 684.698,100.321 684.698,100.291C684.698,99.633 685.239,99.091 685.898,99.091C685.947,99.091 685.995,99.094 686.044,99.1C687.021,99.1 687.387,99.588 687.387,100.382L687.387,100.87L686.532,100.87L686.532,100.382C686.533,100.368 686.534,100.355 686.534,100.341C686.534,100.095 686.331,99.892 686.085,99.892C686.071,99.892 686.058,99.893 686.044,99.894L686.037,99.894C685.773,99.894 685.556,100.111 685.556,100.375L685.556,100.504C685.556,100.809 685.739,100.992 686.044,101.298L686.654,101.908C687.203,102.457 687.448,102.763 687.448,103.373L687.448,103.678C687.452,103.716 687.453,103.755 687.453,103.793C687.453,104.473 686.894,105.032 686.214,105.032C686.159,105.032 686.103,105.028 686.048,105.021C685.995,105.028 685.942,105.032 685.888,105.032C685.233,105.032 684.694,104.493 684.694,103.838C684.694,103.784 684.698,103.731 684.705,103.678" style="fill:white;fill-rule:nonzero;"/>
                            </g>
                            <g transform="matrix(1,0,0,1,-644.992,-85.405)">
                                <path d="M690.1,99.2L692.358,99.2L692.358,99.994L691.015,99.994L691.015,101.642L691.992,101.642L691.992,102.436L691.015,102.436L691.015,104.206L692.358,104.206L692.358,105L690.1,105L690.1,99.2Z" style="fill:white;fill-rule:nonzero;"/>
                            </g>
                            <g transform="matrix(1,0,0,1,-646.784,-85.405)">
                                <path d="M697.386,101.214L697.325,101.214L696.715,104.998L696.227,104.998L695.495,101.214L695.495,105L694.7,105L694.7,99.2L695.86,99.2L696.47,102.435L697.019,99.2L698.24,99.2L698.24,105L697.385,105L697.386,101.214Z" style="fill:white;fill-rule:nonzero;"/>
                            </g>
                            <g transform="matrix(1,0,0,1,-649.394,-85.405)">
                                <path d="M701.4,99.2L703.72,99.2L703.72,99.994L702.377,99.994L702.377,101.642L703.354,101.642L703.354,102.436L702.377,102.436L702.377,104.206L703.72,104.206L703.72,105L701.4,105L701.4,99.2Z" style="fill:white;fill-rule:nonzero;"/>
                            </g>
                            <g transform="matrix(1,0,0,1,-651.226,-85.405)">
                                <path d="M706.893,101.336L706.893,105L706.1,105L706.1,99.2L707.016,99.2L708.054,102.5L708.054,99.2L708.909,99.2L708.909,105L708.054,105L706.893,101.336Z" style="fill:white;fill-rule:nonzero;"/>
                            </g>
                            <g transform="matrix(1,0,0,1,-653.291,-85.405)">
                                <path d="M711.4,99.2L713.964,99.2L713.964,99.994L713.17,99.994L713.17,105L712.193,105L712.193,99.993L711.4,99.993L711.4,99.2Z" style="fill:white;fill-rule:nonzero;"/>
                            </g>
                        </g>
                    </g>
                </g>
            </g>
        </g>
    </g>
</svg>
