<?xml version="1.0" encoding="UTF-8" standalone="no"?>
<!DOCTYPE svg PUBLIC "-//W3C//DTD SVG 1.1//EN" "http://www.w3.org/Graphics/SVG/1.1/DTD/svg11.dtd">
<svg width="100%" height="100%" viewBox="0 0 68 68" version="1.1" xmlns="http://www.w3.org/2000/svg" xmlns:xlink="http://www.w3.org/1999/xlink" xml:space="preserve" xmlns:serif="http://www.serif.com/" style="fill-rule:evenodd;clip-rule:evenodd;stroke-linejoin:round;stroke-miterlimit:2;">
    <g id="Plan-de-travail1" serif:id="Plan de travail1" transform="matrix(1,0,0,0.985507,0,0)">
        <rect x="0" y="0" width="68" height="69" style="fill:none;"/>
        <clipPath id="_clip1">
            <rect x="0" y="0" width="68" height="69"/>
        </clipPath>
        <g clipPath="url(#_clip1)">
            <g transform="matrix(1,0,0,1.01656,0,1.42109e-14)">
                <g id="ODD7">
                    <rect x="0" y="0" width="68" height="67.876" style="fill:none;"/>
                    <g id="odd7-carre" transform="matrix(1,0,0,0.998176,0.062,0.0618869)">
                        <rect x="0" y="0" width="67.876" height="67.876" style="fill:rgb(253,183,20);"/>
                        <g transform="matrix(1,0,0,1,-16.502,-221.144)">
                            <path d="M50.5,258.5C45.947,258.5 42.2,262.247 42.2,266.8C42.2,271.353 45.947,275.1 50.5,275.1C55.053,275.1 58.8,271.353 58.8,266.8C58.795,262.249 55.051,258.505 50.5,258.5M49.89,261.735C49.89,261.4 50.166,261.125 50.501,261.125C50.835,261.125 51.111,261.4 51.111,261.735L51.111,264.6C51.104,264.904 50.852,265.151 50.547,265.151C50.532,265.151 50.516,265.15 50.501,265.149C50.187,265.155 49.918,264.913 49.891,264.6L49.89,261.735ZM50.5,271.074C48.122,271.07 46.168,269.112 46.168,266.734C46.168,264.839 47.409,263.153 49.218,262.59L49.218,264.177C48.281,264.657 47.69,265.625 47.69,266.677C47.69,268.218 48.958,269.486 50.499,269.486C52.04,269.486 53.308,268.218 53.308,266.677C53.324,265.621 52.729,264.645 51.782,264.177L51.782,262.59C53.591,263.153 54.832,264.839 54.832,266.734C54.832,269.112 52.878,271.07 50.5,271.074" style="fill:white;fill-rule:nonzero;"/>
                        </g>
                        <g transform="matrix(1,0,0,1,-12.567,-225.975)">
                            <path d="M37.044,271.571C37.046,271.224 36.779,270.931 36.434,270.9L32.771,270.9C32.403,270.9 32.1,271.203 32.1,271.572C32.1,271.94 32.403,272.243 32.771,272.243L36.433,272.243C36.768,272.192 37.024,271.911 37.043,271.572" style="fill:white;fill-rule:nonzero;"/>
                        </g>
                        <g transform="matrix(1,0,0,1,-27.879,-225.975)">
                            <path d="M76.344,271.571C76.346,271.224 76.079,270.931 75.734,270.9L72.071,270.9C71.703,270.9 71.4,271.203 71.4,271.572C71.4,271.94 71.703,272.243 72.071,272.243L75.733,272.243C76.068,272.192 76.324,271.911 76.343,271.572" style="fill:white;fill-rule:nonzero;"/>
                        </g>
                        <g transform="matrix(1,0,0,1,-21.373,-232.443)">
                            <path d="M55.371,292.444C55.718,292.446 56.011,292.179 56.042,291.834L56.042,288.172C56.042,287.804 55.739,287.501 55.371,287.501C55.002,287.501 54.699,287.804 54.699,288.172L54.699,291.834C54.73,292.179 55.023,292.446 55.37,292.444" style="fill:white;fill-rule:nonzero;"/>
                        </g>
                        <g transform="matrix(1,0,0,1,-26.967,-229.154)">
                            <path d="M73.479,281.892C73.653,281.572 73.545,281.167 73.235,280.976L70.061,279.145C69.74,278.977 69.339,279.083 69.145,279.389C68.971,279.709 69.079,280.114 69.389,280.305L72.563,282.136C72.667,282.203 72.788,282.239 72.911,282.239C73.15,282.239 73.37,282.105 73.479,281.892" style="fill:white;fill-rule:nonzero;"/>
                        </g>
                        <g transform="matrix(1,0,0,1,-16.993,-231.569)">
                            <path d="M43.789,289.679C44.109,289.853 44.514,289.745 44.705,289.435L46.536,286.261C46.704,285.94 46.598,285.539 46.292,285.345C45.972,285.171 45.567,285.279 45.376,285.589L43.545,288.763C43.371,289.083 43.479,289.488 43.789,289.679" style="fill:white;fill-rule:nonzero;"/>
                        </g>
                        <g transform="matrix(1,0,0,1,-24.59,-231.577)">
                            <path d="M65.792,289.686C66.102,289.495 66.21,289.09 66.036,288.77L64.2,285.6C63.99,285.315 63.608,285.213 63.284,285.356C62.974,285.547 62.866,285.952 63.04,286.272L64.871,289.446C65.056,289.763 65.469,289.873 65.787,289.69" style="fill:white;fill-rule:nonzero;"/>
                        </g>
                        <g transform="matrix(1,0,0,1,-13.742,-229.193)">
                            <path d="M35.228,281.992C35.419,282.302 35.824,282.41 36.144,282.236L39.318,280.405C39.603,280.195 39.705,279.813 39.562,279.489C39.371,279.179 38.966,279.071 38.646,279.245L35.472,281.076C35.254,281.176 35.113,281.395 35.113,281.634C35.113,281.763 35.153,281.888 35.228,281.992" style="fill:white;fill-rule:nonzero;"/>
                        </g>
                        <g transform="matrix(1,0,0,1,-21.373,-217.131)">
                            <path d="M55.371,253.144C55.718,253.146 56.011,252.879 56.042,252.534L56.042,248.872C56.042,248.504 55.739,248.2 55.371,248.2C55.002,248.2 54.699,248.504 54.699,248.872L54.699,252.534C54.73,252.879 55.023,253.146 55.37,253.144" style="fill:white;fill-rule:nonzero;"/>
                        </g>
                        <g transform="matrix(1,0,0,1,-13.681,-221.557)">
                            <path d="M39.379,262.392C39.553,262.072 39.445,261.667 39.135,261.476L35.961,259.645C35.64,259.477 35.239,259.583 35.045,259.889C34.871,260.209 34.979,260.614 35.289,260.805L38.463,262.636C38.783,262.81 39.188,262.702 39.379,262.392" style="fill:white;fill-rule:nonzero;"/>
                        </g>
                        <g transform="matrix(1,0,0,1,-24.59,-218.284)">
                            <path d="M63.289,255.579C63.609,255.753 64.014,255.645 64.205,255.335L66.036,252.161C66.204,251.84 66.098,251.439 65.792,251.245C65.472,251.071 65.067,251.179 64.876,251.489L63.045,254.663C62.871,254.983 62.979,255.388 63.289,255.579" style="fill:white;fill-rule:nonzero;"/>
                        </g>
                        <g transform="matrix(1,0,0,1,-16.954,-218.291)">
                            <path d="M46.192,255.586C46.502,255.395 46.61,254.99 46.436,254.67L44.6,251.5C44.39,251.215 44.008,251.113 43.684,251.256C43.374,251.447 43.266,251.852 43.44,252.172L45.271,255.346C45.462,255.656 45.867,255.764 46.187,255.59" style="fill:white;fill-rule:nonzero;"/>
                        </g>
                        <g transform="matrix(1,0,0,1,-27.006,-221.557)">
                            <path d="M69.245,262.392C69.436,262.702 69.841,262.81 70.161,262.636L73.335,260.805C73.62,260.595 73.722,260.213 73.579,259.889C73.388,259.579 72.983,259.471 72.663,259.645L69.489,261.476C69.28,261.591 69.15,261.812 69.15,262.051C69.15,262.171 69.183,262.289 69.245,262.392" style="fill:white;fill-rule:nonzero;"/>
                        </g>
                        <g transform="matrix(1,0,0,1,-4.541,-200.923)">
                            <path d="M11.5,208.431L15.1,208.431L11.987,220.273L14.306,220.273L17.297,208.673L17.297,206.6L11.5,206.6L11.5,208.431Z" style="fill:white;fill-rule:nonzero;"/>
                        </g>
                        <g transform="matrix(1,0,0,1,-11.749,-200.729)">
                            <path d="M30,207.2L32.319,207.2L32.319,207.994L30.977,207.994L30.977,209.642L31.954,209.642L31.954,210.436L30.977,210.436L30.977,212.206L32.32,212.206L32.32,213L30,213L30,207.2ZM32.014,206.773L30.488,206.956L30.488,206.407L32.014,206.102L32.014,206.773Z" style="fill:white;fill-rule:nonzero;"/>
                        </g>
                        <g transform="matrix(1,0,0,1,-13.58,-201.43)">
                            <path d="M35.494,210.036L35.494,213.636L34.7,213.636L34.7,207.9L35.616,207.9L36.654,211.2L36.654,207.9L37.448,207.9L37.448,213.638L36.654,213.638L35.494,210.036Z" style="fill:white;fill-rule:nonzero;"/>
                        </g>
                        <g transform="matrix(1,0,0,1,-15.723,-201.43)">
                            <path d="M40.2,207.9L42.458,207.9L42.458,208.694L41.116,208.694L41.116,210.342L42.093,210.342L42.093,211.136L41.116,211.136L41.116,212.845L42.459,212.845L42.459,213.639L40.2,213.639L40.2,207.9Z" style="fill:white;fill-rule:nonzero;"/>
                        </g>
                        <g transform="matrix(1,0,0,1,-17.515,-201.43)">
                            <path d="M45.777,211.013L45.777,213.638L44.8,213.638L44.8,207.9L46.2,207.9C47.177,207.9 47.543,208.388 47.543,209.182L47.543,209.914C47.619,210.432 47.265,210.923 46.749,211.014L47.665,213.639L46.631,213.639L45.777,211.013ZM45.777,208.693L45.777,210.463L46.082,210.463C46.096,210.464 46.109,210.465 46.123,210.465C46.369,210.465 46.572,210.262 46.572,210.016C46.572,210.002 46.571,209.989 46.57,209.975L46.57,209.181C46.57,208.876 46.448,208.693 46.082,208.693L45.777,208.693Z" style="fill:white;fill-rule:nonzero;"/>
                        </g>
                        <g transform="matrix(1,0,0,1,-19.619,-201.391)">
                            <path d="M51.6,210.547L53,210.547L53,213.6L52.329,213.6L52.329,212.99C52.232,213.407 51.84,213.694 51.413,213.661C50.558,213.661 50.192,212.99 50.192,212.135L50.192,209.327C50.182,209.262 50.178,209.197 50.178,209.132C50.178,208.398 50.782,207.794 51.516,207.794C51.563,207.794 51.61,207.796 51.657,207.801C52.757,207.801 53.057,208.411 53.057,209.266L53.057,209.754L52.202,209.754L52.202,209.144C52.202,208.778 52.08,208.595 51.714,208.595C51.348,208.595 51.226,208.839 51.226,209.205L51.226,212.318C51.226,212.684 51.348,212.928 51.714,212.928C52.019,212.928 52.202,212.745 52.202,212.379L52.202,211.34L51.714,211.34L51.714,210.546L51.6,210.547Z" style="fill:white;fill-rule:nonzero;"/>
                        </g>
                        <g transform="matrix(1,0,0,1,33.938,6.47)">
                            <rect x="0" y="0" width="0.977" height="5.738" style="fill:white;"/>
                        </g>
                        <g transform="matrix(1,0,0,1,-22.736,-201.43)">
                            <path d="M58.2,207.9L60.519,207.9L60.519,208.694L59.177,208.694L59.177,210.342L60.154,210.342L60.154,211.136L59.177,211.136L59.177,212.845L60.52,212.845L60.52,213.639L58.2,213.639L58.2,207.9Z" style="fill:white;fill-rule:nonzero;"/>
                        </g>
                        <g transform="matrix(1,0,0,1,-25.113,-201.43)">
                            <path d="M64.3,207.9L65.765,207.9C66.742,207.9 67.108,208.388 67.108,209.182L67.108,210.4C67.108,211.194 66.742,211.682 65.765,211.682L65.277,211.682L65.277,213.635L64.3,213.635L64.3,207.9ZM65.277,208.694L65.277,210.952L65.643,210.952C65.657,210.953 65.67,210.954 65.684,210.954C65.93,210.954 66.133,210.751 66.133,210.505C66.133,210.491 66.132,210.478 66.131,210.464L66.131,209.182C66.131,208.877 66.009,208.694 65.643,208.694L65.277,208.694Z" style="fill:white;fill-rule:nonzero;"/>
                        </g>
                        <g transform="matrix(1,0,0,1,-27.217,-201.43)">
                            <path d="M70.677,211.013L70.677,213.638L69.7,213.638L69.7,207.9L71.1,207.9C72.077,207.9 72.443,208.388 72.443,209.182L72.443,209.914C72.519,210.432 72.165,210.923 71.649,211.014L72.565,213.639L71.531,213.639L70.677,211.013ZM70.677,208.693L70.677,210.463L70.982,210.463C70.996,210.464 71.009,210.465 71.023,210.465C71.269,210.465 71.472,210.262 71.472,210.016C71.472,210.002 71.471,209.989 71.47,209.975L71.47,209.181C71.47,208.876 71.348,208.693 70.982,208.693L70.677,208.693Z" style="fill:white;fill-rule:nonzero;"/>
                        </g>
                        <g transform="matrix(1,0,0,1,-29.282,-201.391)">
                            <path d="M75,212.134L75,209.326C74.99,209.261 74.986,209.196 74.986,209.131C74.986,208.397 75.59,207.793 76.324,207.793C76.371,207.793 76.418,207.795 76.465,207.8C76.502,207.797 76.54,207.795 76.577,207.795C77.325,207.795 77.94,208.411 77.94,209.158C77.94,209.214 77.937,209.27 77.93,209.326L77.93,212.134C77.94,212.199 77.944,212.264 77.944,212.329C77.944,213.063 77.34,213.667 76.606,213.667C76.559,213.667 76.512,213.665 76.465,213.66C76.428,213.663 76.392,213.664 76.355,213.664C75.606,213.664 74.99,213.048 74.99,212.299C74.99,212.244 74.993,212.189 75,212.134M76.953,212.256L76.953,209.143C76.953,208.777 76.77,208.533 76.465,208.533C76.099,208.533 75.977,208.777 75.977,209.143L75.977,212.256C75.977,212.622 76.16,212.866 76.465,212.866C76.831,212.866 76.953,212.622 76.953,212.256" style="fill:white;fill-rule:nonzero;"/>
                        </g>
                        <g transform="matrix(1,0,0,1,-31.502,-201.43)">
                            <path d="M80.7,207.9L82.165,207.9C83.142,207.9 83.508,208.388 83.508,209.182L83.508,210.4C83.508,211.194 83.142,211.682 82.165,211.682L81.677,211.682L81.677,213.635L80.7,213.635L80.7,207.9ZM81.677,208.694L81.677,210.952L82.043,210.952C82.057,210.953 82.07,210.954 82.084,210.954C82.33,210.954 82.533,210.751 82.533,210.505C82.533,210.491 82.532,210.478 82.531,210.464L82.531,209.182C82.531,208.877 82.409,208.694 82.043,208.694L81.677,208.694Z" style="fill:white;fill-rule:nonzero;"/>
                        </g>
                        <g transform="matrix(1,0,0,1,-33.606,-201.43)">
                            <path d="M87.077,211.013L87.077,213.638L86.1,213.638L86.1,207.9L87.5,207.9C88.477,207.9 88.843,208.388 88.843,209.182L88.843,209.914C88.919,210.432 88.565,210.923 88.049,211.014L88.965,213.639L87.931,213.639L87.077,211.013ZM87.077,208.693L87.077,210.463L87.382,210.463C87.396,210.464 87.409,210.465 87.423,210.465C87.669,210.465 87.872,210.262 87.872,210.016C87.872,210.002 87.871,209.989 87.87,209.975L87.87,209.181C87.87,208.876 87.748,208.693 87.382,208.693L87.077,208.693Z" style="fill:white;fill-rule:nonzero;"/>
                        </g>
                        <g transform="matrix(1,0,0,1,-35.71,-201.43)">
                            <path d="M91.5,207.9L93.758,207.9L93.758,208.694L92.416,208.694L92.416,210.342L93.393,210.342L93.393,211.136L92.416,211.136L92.416,212.845L93.759,212.845L93.759,213.639L91.5,213.639L91.5,207.9Z" style="fill:white;fill-rule:nonzero;"/>
                        </g>
                        <g transform="matrix(1,0,0,1,-11.749,-206.3)">
                            <path d="M30,220.4L32.319,220.4L32.319,221.194L30.977,221.194L30.977,222.842L31.954,222.842L31.954,223.636L30.977,223.636L30.977,225.406L32.32,225.406L32.32,226.2L30,226.2L30,220.4Z" style="fill:white;fill-rule:nonzero;"/>
                        </g>
                        <g transform="matrix(1,0,0,1,-13.502,-206.3)">
                            <path d="M34.5,220.4L37.064,220.4L37.064,221.194L36.27,221.194L36.27,226.2L35.293,226.2L35.293,221.195L34.5,221.195L34.5,220.4Z" style="fill:white;fill-rule:nonzero;"/>
                        </g>
                        <g transform="matrix(1,0,0,1,-15.957,-206.336)">
                            <path d="M43.73,222.024L43.73,224.71C43.73,225.565 43.364,226.236 42.33,226.236L40.8,226.236L40.8,220.5L42.326,220.5C43.364,220.439 43.726,221.11 43.726,222.026M42.2,225.442C42.627,225.442 42.749,225.198 42.749,224.832L42.749,221.84C42.752,221.818 42.754,221.795 42.754,221.772C42.754,221.506 42.534,221.286 42.268,221.286C42.245,221.286 42.222,221.288 42.2,221.291L41.773,221.291L41.773,225.442L42.2,225.442Z" style="fill:white;fill-rule:nonzero;"/>
                        </g>
                        <g transform="matrix(1,0,0,1,-18.1,-206.3)">
                            <path d="M47.216,220.461L46.85,221.682L46.3,221.682L46.361,220.4L47.216,220.4L47.216,220.461Z" style="fill:white;fill-rule:nonzero;"/>
                        </g>
                        <g transform="matrix(1,0,0,1,-18.957,-206.3)">
                            <path d="M51.308,220.4L51.308,224.734C51.308,225.65 50.942,226.199 49.965,226.199C49.904,226.208 49.842,226.212 49.781,226.212C49.071,226.212 48.487,225.628 48.487,224.918C48.487,224.857 48.491,224.795 48.5,224.734L48.5,220.4L49.477,220.4L49.477,224.856C49.477,225.222 49.599,225.405 49.965,225.405C50.331,225.405 50.453,225.161 50.453,224.856L50.453,220.4L51.308,220.4Z" style="fill:white;fill-rule:nonzero;"/>
                        </g>
                        <g transform="matrix(1,0,0,1,-21.1,-206.3)">
                            <path d="M54.794,222.536L54.794,226.2L54,226.2L54,220.4L54.977,220.4L56.015,223.7L56.015,220.4L56.809,220.4L56.809,226.2L55.954,226.2L54.794,222.536Z" style="fill:white;fill-rule:nonzero;"/>
                        </g>
                        <g transform="matrix(1,0,0,1,-23.827,-206.261)">
                            <path d="M61,224.634L61,221.826C60.99,221.761 60.986,221.696 60.986,221.631C60.986,220.897 61.59,220.293 62.324,220.293C62.371,220.293 62.418,220.295 62.465,220.3C63.565,220.3 63.808,220.91 63.808,221.765L63.808,222.436L62.953,222.436L62.953,221.7C62.953,221.334 62.831,221.151 62.465,221.151C62.099,221.151 61.977,221.395 61.977,221.761L61.977,224.874C61.977,225.24 62.099,225.484 62.465,225.484C62.831,225.484 62.953,225.24 62.953,224.935L62.953,223.775L63.808,223.775L63.808,224.752C63.808,225.607 63.442,226.217 62.465,226.217C61.427,226.217 61,225.546 61,224.63" style="fill:white;fill-rule:nonzero;"/>
                        </g>
                        <g transform="matrix(1,0,0,1,-25.931,-206.261)">
                            <path d="M66.4,224.634L66.4,221.826C66.39,221.761 66.386,221.696 66.386,221.631C66.386,220.897 66.99,220.293 67.724,220.293C67.771,220.293 67.818,220.295 67.865,220.3C67.902,220.297 67.94,220.295 67.977,220.295C68.725,220.295 69.34,220.911 69.34,221.658C69.34,221.714 69.337,221.77 69.33,221.826L69.33,224.634C69.34,224.699 69.344,224.764 69.344,224.829C69.344,225.563 68.74,226.167 68.006,226.167C67.959,226.167 67.912,226.165 67.865,226.16C66.888,226.221 66.4,225.55 66.4,224.634M68.414,224.817L68.414,221.7C68.414,221.334 68.231,221.09 67.926,221.09C67.56,221.09 67.438,221.334 67.438,221.7L67.438,224.813C67.438,225.179 67.621,225.423 67.926,225.423C68.217,225.371 68.427,225.108 68.414,224.813" style="fill:white;fill-rule:nonzero;"/>
                        </g>
                        <g transform="matrix(1,0,0,1,-28.191,-205.599)">
                            <path d="M75.008,219.7L75.008,224.034C75.008,224.95 74.642,225.499 73.665,225.499C73.604,225.508 73.542,225.512 73.481,225.512C72.771,225.512 72.187,224.928 72.187,224.218C72.187,224.157 72.191,224.095 72.2,224.034L72.2,219.7L73.177,219.7L73.177,224.156C73.177,224.522 73.299,224.705 73.665,224.705C74.031,224.705 74.153,224.461 74.153,224.156L74.153,219.7L75.008,219.7ZM72.75,219.517L72.75,219.029L73.36,218.602L73.787,218.602L74.397,219.029L74.397,219.517L73.603,219.273L72.75,219.517Z" style="fill:white;fill-rule:nonzero;"/>
                        </g>
                        <g transform="matrix(1,0,0,1,-30.256,-206.3)">
                            <path d="M77.5,220.4L80.064,220.4L80.064,221.194L79.27,221.194L79.27,226.2L78.293,226.2L78.293,221.195L77.5,221.195L77.5,220.4Z" style="fill:white;fill-rule:nonzero;"/>
                        </g>
                        <g transform="matrix(1,0,0,1,-11.671,-211.209)">
                            <path d="M29.8,238.738L30.9,233L32,233L33.1,238.738L32.123,238.738L31.94,237.7L30.9,237.7L30.717,238.738L29.8,238.738ZM31.021,236.907L31.753,236.907L31.387,234.587L31.021,236.907Z" style="fill:white;fill-rule:nonzero;"/>
                        </g>
                        <g transform="matrix(1,0,0,1,-14.009,-211.209)">
                            <path d="M35.8,233L37.2,233C38.177,233 38.482,233.427 38.482,234.282L38.482,234.892C38.539,235.287 38.309,235.672 37.933,235.808C38.395,235.888 38.718,236.319 38.665,236.785L38.665,237.579C38.665,238.373 38.299,238.861 37.322,238.861L35.8,238.861L35.8,233ZM36.777,235.381L37.143,235.381C37.157,235.382 37.17,235.383 37.184,235.383C37.43,235.383 37.633,235.18 37.633,234.934C37.633,234.92 37.632,234.907 37.631,234.893L37.631,234.222C37.631,233.917 37.509,233.734 37.143,233.734L36.838,233.734L36.838,235.382L36.777,235.381ZM36.777,236.113L36.777,237.883L37.2,237.883C37.214,237.884 37.227,237.885 37.241,237.885C37.487,237.885 37.69,237.682 37.69,237.436C37.69,237.422 37.689,237.409 37.688,237.395L37.688,236.54C37.688,236.235 37.566,236.052 37.2,236.052L36.773,236.052L36.777,236.113Z" style="fill:white;fill-rule:nonzero;"/>
                        </g>
                        <g transform="matrix(1,0,0,1,-16.152,-211.17)">
                            <path d="M41.3,237.234L41.3,234.426C41.29,234.361 41.286,234.296 41.286,234.231C41.286,233.497 41.89,232.893 42.624,232.893C42.671,232.893 42.718,232.895 42.765,232.9C42.802,232.897 42.84,232.895 42.877,232.895C43.625,232.895 44.24,233.511 44.24,234.258C44.24,234.314 44.237,234.37 44.23,234.426L44.23,237.234C44.24,237.299 44.244,237.364 44.244,237.429C44.244,238.163 43.64,238.767 42.906,238.767C42.859,238.767 42.812,238.765 42.765,238.76C42.728,238.763 42.69,238.765 42.653,238.765C41.905,238.765 41.29,238.149 41.29,237.402C41.29,237.346 41.293,237.29 41.3,237.234M43.253,237.356L43.253,234.243C43.253,233.877 43.07,233.633 42.765,233.633C42.399,233.633 42.277,233.877 42.277,234.243L42.277,237.356C42.277,237.722 42.46,237.966 42.765,237.966C43.07,237.966 43.253,237.722 43.253,237.356" style="fill:white;fill-rule:nonzero;"/>
                        </g>
                        <g transform="matrix(1,0,0,1,-18.373,-211.209)">
                            <path d="M47.916,236.113L47.916,238.738L47,238.738L47,233L48.4,233C49.377,233 49.743,233.488 49.743,234.282L49.743,235.014C49.819,235.532 49.465,236.023 48.949,236.114L49.865,238.739L48.831,238.739L47.916,236.113ZM47.916,233.732L47.916,235.502L48.221,235.502C48.235,235.503 48.248,235.504 48.262,235.504C48.508,235.504 48.711,235.301 48.711,235.055C48.711,235.041 48.71,235.028 48.709,235.014L48.709,234.22C48.709,233.915 48.587,233.732 48.221,233.732L47.916,233.732Z" style="fill:white;fill-rule:nonzero;"/>
                        </g>
                        <g transform="matrix(1,0,0,1,-20.476,-211.209)">
                            <path d="M55.269,234.526L55.269,237.212C55.269,238.067 54.903,238.738 53.869,238.738L52.4,238.738L52.4,233L53.865,233C54.903,233 55.265,233.61 55.265,234.526M53.739,237.944C54.166,237.944 54.288,237.7 54.288,237.334L54.288,234.343C54.291,234.321 54.293,234.298 54.293,234.275C54.293,234.009 54.073,233.789 53.807,233.789C53.784,233.789 53.761,233.791 53.739,233.794L53.312,233.794L53.312,237.945L53.739,237.945L53.739,237.944Z" style="fill:white;fill-rule:nonzero;"/>
                        </g>
                        <g transform="matrix(1,0,0,1,-22.463,-211.209)">
                            <path d="M57.5,238.738L58.6,233L59.7,233L60.8,238.738L59.823,238.738L59.64,237.7L58.6,237.7L58.417,238.738L57.5,238.738ZM58.721,236.907L59.515,236.907L59.149,234.587L58.721,236.907Z" style="fill:white;fill-rule:nonzero;"/>
                        </g>
                        <g transform="matrix(1,0,0,1,-24.84,-211.209)">
                            <path d="M63.6,233L65,233C65.977,233 66.282,233.427 66.282,234.282L66.282,234.892C66.339,235.287 66.109,235.672 65.733,235.808C66.195,235.888 66.518,236.319 66.465,236.785L66.465,237.579C66.465,238.373 66.099,238.861 65.122,238.861L63.6,238.861L63.6,233ZM64.516,235.381L64.882,235.381C64.896,235.382 64.909,235.383 64.923,235.383C65.169,235.383 65.372,235.18 65.372,234.934C65.372,234.92 65.371,234.907 65.37,234.893L65.37,234.222C65.37,233.917 65.248,233.734 64.882,233.734L64.577,233.734L64.577,235.382L64.516,235.381ZM64.516,236.052L64.516,237.883L64.943,237.883C64.957,237.884 64.97,237.885 64.984,237.885C65.23,237.885 65.433,237.682 65.433,237.436C65.433,237.422 65.432,237.409 65.431,237.395L65.431,236.54C65.431,236.235 65.309,236.052 64.943,236.052L64.516,236.052Z" style="fill:white;fill-rule:nonzero;"/>
                        </g>
                        <g transform="matrix(1,0,0,1,-26.944,-211.209)">
                            <path d="M69,233L69.977,233L69.977,237.944L71.137,237.944L71.137,238.738L69,238.738L69,233Z" style="fill:white;fill-rule:nonzero;"/>
                        </g>
                        <g transform="matrix(1,0,0,1,-28.58,-211.209)">
                            <path d="M73.2,233L75.519,233L75.519,233.732L74.177,233.732L74.177,235.38L75.154,235.38L75.154,236.174L74.177,236.174L74.177,237.944L75.52,237.944L75.52,238.738L73.2,238.738L73.2,233Z" style="fill:white;fill-rule:nonzero;"/>
                        </g>
                    </g>
                </g>
            </g>
        </g>
    </g>
</svg>
