<?xml version="1.0" encoding="UTF-8" standalone="no"?>
<!DOCTYPE svg PUBLIC "-//W3C//DTD SVG 1.1//EN" "http://www.w3.org/Graphics/SVG/1.1/DTD/svg11.dtd">
<svg width="100%" height="100%" viewBox="0 0 68 68" version="1.1" xmlns="http://www.w3.org/2000/svg" xmlns:xlink="http://www.w3.org/1999/xlink" xml:space="preserve" xmlns:serif="http://www.serif.com/" style="fill-rule:evenodd;clip-rule:evenodd;stroke-linejoin:round;stroke-miterlimit:2;">
    <g id="Plan-de-travail1" serif:id="Plan de travail1" transform="matrix(0.985507,0,0,0.985507,0,0)">
        <rect x="0" y="0" width="69" height="69" style="fill:none;"/>
        <clipPath id="_clip1">
            <rect x="0" y="0" width="69" height="69"/>
        </clipPath>
        <g clip-path="url(#_clip1)">
            <g transform="matrix(1.01471,0,0,1.01656,1.42109e-14,1.42109e-14)">
                <g id="ODD8">
                    <rect x="0" y="0" width="68" height="67.876" style="fill:none;"/>
                    <g id="odd8-carre" transform="matrix(1,0,0,0.998176,0.062,0.0618869)">
                        <rect x="0" y="0" width="67.876" height="67.876" style="fill:rgb(143,24,56);"/>
                        <g transform="matrix(1,0,0,1,-147.945,-221.463)">
                            <path d="M192.382,259.49L186.705,264.922C186.473,265.115 186.357,265.416 186.4,265.715L186.4,280.853C186.4,280.859 186.399,280.865 186.399,280.871C186.399,281.029 186.529,281.159 186.687,281.159C186.693,281.159 186.699,281.158 186.705,281.158L192.565,281.158C192.571,281.158 192.577,281.159 192.583,281.159C192.741,281.159 192.871,281.029 192.871,280.871C192.871,280.865 192.87,280.859 192.87,280.853L192.87,259.612C192.87,259.429 192.748,259.124 192.382,259.49" style="fill:white;fill-rule:nonzero;"/>
                        </g>
                        <g transform="matrix(1,0,0,1,-137.465,-225.945)">
                            <path d="M165.482,270.992L159.805,276.425C159.573,276.618 159.457,276.919 159.5,277.218L159.5,285.336C159.5,285.342 159.499,285.348 159.499,285.354C159.499,285.512 159.629,285.642 159.787,285.642C159.793,285.642 159.799,285.641 159.805,285.641L165.665,285.641C165.671,285.641 165.677,285.642 165.683,285.642C165.841,285.642 165.971,285.512 165.971,285.354C165.971,285.348 165.97,285.342 165.97,285.336L165.97,271.175C166.031,270.931 165.909,270.626 165.482,270.992" style="fill:white;fill-rule:nonzero;"/>
                        </g>
                        <g transform="matrix(1,0,0,1,-136.228,-217.287)">
                            <path d="M183.228,248.783C183.228,248.722 183.228,248.722 183.167,248.661C183.134,248.628 183.091,248.606 183.045,248.6L182.923,248.6L178.589,249.577L178.528,249.577C178.467,249.577 178.467,249.577 178.467,249.638C178.406,249.708 178.406,249.812 178.467,249.882L179.505,250.92L169.678,260.747L165.1,256.169C165.079,256.14 165.045,256.123 165.008,256.123C164.972,256.123 164.938,256.14 164.917,256.169L163.7,257.39L156.375,264.715C156.346,264.736 156.329,264.77 156.329,264.806C156.329,264.843 156.346,264.877 156.375,264.898L157.596,266.119C157.617,266.148 157.651,266.165 157.688,266.165C157.724,266.165 157.758,266.148 157.779,266.119L164.979,258.919L169.5,263.44C169.521,263.469 169.555,263.486 169.592,263.486C169.628,263.486 169.662,263.469 169.683,263.44L180.853,252.27L181.891,253.308C181.961,253.369 182.065,253.369 182.135,253.308C182.196,253.308 182.196,253.247 182.196,253.186L183.234,248.791L183.228,248.783Z" style="fill:white;fill-rule:nonzero;"/>
                        </g>
                        <g transform="matrix(1,0,0,1,-142.725,-226.54)">
                            <path d="M178.982,272.564L176.235,275.311C176.214,275.34 176.18,275.357 176.144,275.357C176.107,275.357 176.073,275.34 176.052,275.311L173.552,272.747C173.125,272.32 173.003,272.686 173.003,272.869L173.003,285.931C173.003,285.937 173.002,285.943 173.002,285.949C173.002,286.107 173.132,286.237 173.29,286.237C173.296,286.237 173.302,286.236 173.308,286.236L179.168,286.236C179.174,286.236 179.18,286.237 179.186,286.237C179.344,286.237 179.474,286.107 179.474,285.949C179.474,285.943 179.473,285.937 179.473,285.931L179.473,272.686C179.534,272.442 179.412,272.137 178.985,272.564" style="fill:white;fill-rule:nonzero;"/>
                        </g>
                        <g transform="matrix(1,0,0,1,-127.413,-200.845)">
                            <path d="M140.536,216.838L140.536,215.373C140.642,214.233 140.034,213.139 139.01,212.626C139.915,212.199 140.456,211.241 140.353,210.245L140.353,209.7C140.353,207.564 139.253,206.4 137.118,206.4C135.043,206.4 133.944,207.56 133.944,209.7L133.944,210.249C133.861,211.225 134.365,212.162 135.226,212.63C134.173,213.11 133.551,214.229 133.7,215.377L133.7,216.842C133.7,218.917 134.677,220.382 137.118,220.382C139.559,220.382 140.536,218.917 140.536,216.842M136.08,209.517C136.08,208.662 136.385,208.174 137.118,208.174C137.912,208.174 138.156,208.662 138.156,209.517L138.156,210.433C138.156,211.288 137.851,211.776 137.118,211.776C136.385,211.776 136.08,211.288 136.08,210.433L136.08,209.517ZM138.216,217.086C138.216,217.941 137.911,218.486 137.056,218.486C136.262,218.486 135.956,217.876 135.956,217.086L135.956,214.886C135.956,214.031 136.261,213.486 137.056,213.486C137.911,213.486 138.216,214.096 138.216,214.886L138.216,217.086Z" style="fill:white;fill-rule:nonzero;"/>
                        </g>
                        <g transform="matrix(1,0,0,1,-134.893,-201.43)">
                            <path d="M152.9,207.9L155.464,207.9L155.464,208.694L154.67,208.694L154.67,213.638L153.693,213.638L153.693,208.694L152.9,208.694L152.9,207.9Z" style="fill:white;fill-rule:nonzero;"/>
                        </g>
                        <g transform="matrix(1,0,0,1,-136.802,-201.43)">
                            <path d="M158.777,211.013L158.777,213.638L157.8,213.638L157.8,207.9L159.2,207.9C160.177,207.9 160.543,208.388 160.543,209.182L160.543,209.914C160.619,210.432 160.265,210.923 159.749,211.014L160.665,213.639L159.627,213.639L158.777,211.013ZM158.777,208.693L158.777,210.463L159.082,210.463C159.096,210.464 159.109,210.465 159.123,210.465C159.369,210.465 159.572,210.262 159.572,210.016C159.572,210.002 159.571,209.989 159.57,209.975L159.57,209.181C159.57,208.876 159.448,208.693 159.082,208.693L158.777,208.693Z" style="fill:white;fill-rule:nonzero;"/>
                        </g>
                        <g transform="matrix(1,0,0,1,-138.789,-201.43)">
                            <path d="M162.9,213.638L164,207.9L165.1,207.9L166.2,213.638L165.223,213.638L165.04,212.6L164,212.6L163.817,213.638L162.9,213.638ZM164.121,211.807L164.915,211.807L164.549,209.487L164.121,211.807Z" style="fill:white;fill-rule:nonzero;"/>
                        </g>
                        <g transform="matrix(1,0,0,1,-140.738,-201.43)">
                            <path d="M171.135,207.9L170.035,213.638L169,213.638L167.9,207.9L168.877,207.9L169.548,211.929L170.219,207.9L171.135,207.9Z" style="fill:white;fill-rule:nonzero;"/>
                        </g>
                        <g transform="matrix(1,0,0,1,-142.647,-201.43)">
                            <path d="M172.8,213.638L173.9,207.9L175,207.9L176.1,213.638L175.123,213.638L174.94,212.6L173.9,212.6L173.717,213.638L172.8,213.638ZM174.021,211.807L174.815,211.807L174.449,209.487L174.021,211.807Z" style="fill:white;fill-rule:nonzero;"/>
                        </g>
                        <g transform="matrix(1,0,0,1,33.816,6.47)">
                            <rect x="0" y="0" width="0.977" height="5.738" style="fill:white;"/>
                        </g>
                        <g transform="matrix(1,0,0,1,-145.958,-201.43)">
                            <path d="M181.3,207.9L182.277,207.9L182.277,212.844L183.437,212.844L183.437,213.638L181.3,213.638L181.3,207.9Z" style="fill:white;fill-rule:nonzero;"/>
                        </g>
                        <g transform="matrix(1,0,0,1,-148.179,-201.43)">
                            <path d="M189.869,209.426L189.869,212.112C189.869,212.967 189.503,213.638 188.469,213.638L187,213.638L187,207.9L188.465,207.9C189.565,207.9 189.865,208.571 189.865,209.426M188.4,212.844C188.827,212.844 188.949,212.6 188.949,212.234L188.949,209.243C188.952,209.221 188.954,209.198 188.954,209.175C188.954,208.909 188.734,208.689 188.468,208.689C188.445,208.689 188.422,208.691 188.4,208.694L187.973,208.694L187.973,212.845L188.4,212.845L188.4,212.844Z" style="fill:white;fill-rule:nonzero;"/>
                        </g>
                        <g transform="matrix(1,0,0,1,-150.4,-200.729)">
                            <path d="M192.7,207.2L195.02,207.2L195.02,207.994L193.677,207.994L193.677,209.642L194.654,209.642L194.654,210.436L193.677,210.436L193.677,212.206L195.02,212.206L195.02,213L192.7,213L192.7,207.2ZM194.714,206.773L193.188,206.956L193.188,206.407L194.714,206.102L194.714,206.773Z" style="fill:white;fill-rule:nonzero;"/>
                        </g>
                        <g transform="matrix(1,0,0,1,-152.153,-201.391)">
                            <path d="M197.2,212.134L197.2,209.326C197.19,209.261 197.186,209.196 197.186,209.131C197.186,208.397 197.79,207.793 198.524,207.793C198.571,207.793 198.618,207.795 198.665,207.8C199.765,207.8 200.008,208.41 200.008,209.265L200.008,209.936L199.153,209.936L199.153,209.142C199.153,208.776 199.031,208.593 198.665,208.593C198.299,208.593 198.177,208.837 198.177,209.203L198.177,212.316C198.177,212.682 198.299,212.926 198.665,212.926C199.031,212.926 199.153,212.682 199.153,212.377L199.153,211.34L200.008,211.34L200.008,212.317C200.008,213.172 199.642,213.782 198.665,213.782L198.64,213.782C197.843,213.782 197.187,213.126 197.187,212.329C197.187,212.264 197.191,212.199 197.2,212.134" style="fill:white;fill-rule:nonzero;"/>
                        </g>
                        <g transform="matrix(1,0,0,1,-154.257,-201.43)">
                            <path d="M202.6,207.9L204.92,207.9L204.92,208.694L203.577,208.694L203.577,210.342L204.554,210.342L204.554,211.136L203.577,211.136L203.577,212.845L204.92,212.845L204.92,213.639L202.6,213.639L202.6,207.9Z" style="fill:white;fill-rule:nonzero;"/>
                        </g>
                        <g transform="matrix(1,0,0,1,-156.088,-201.43)">
                            <path d="M208.094,210.036L208.094,213.636L207.3,213.636L207.3,207.9L208.216,207.9L209.254,211.2L209.254,207.9L210.109,207.9L210.109,213.638L209.254,213.638L208.094,210.036Z" style="fill:white;fill-rule:nonzero;"/>
                        </g>
                        <g transform="matrix(1,0,0,1,-158.153,-201.43)">
                            <path d="M212.6,207.9L215.164,207.9L215.164,208.694L214.37,208.694L214.37,213.638L213.393,213.638L213.393,208.694L212.6,208.694L212.6,207.9Z" style="fill:white;fill-rule:nonzero;"/>
                        </g>
                        <g transform="matrix(1,0,0,1,-134.971,-206.3)">
                            <path d="M153.1,220.4L155.358,220.4L155.358,221.194L154.015,221.194L154.015,222.842L154.992,222.842L154.992,223.636L154.015,223.636L154.015,225.406L155.358,225.406L155.358,226.2L153.1,226.2L153.1,220.4Z" style="fill:white;fill-rule:nonzero;"/>
                        </g>
                        <g transform="matrix(1,0,0,1,-136.686,-206.3)">
                            <path d="M157.5,220.4L160.064,220.4L160.064,221.194L159.27,221.194L159.27,226.2L158.293,226.2L158.293,221.195L157.5,221.195L157.5,220.4Z" style="fill:white;fill-rule:nonzero;"/>
                        </g>
                        <g transform="matrix(1,0,0,1,-139.179,-206.261)">
                            <path d="M163.9,224.634L163.9,221.826C163.89,221.761 163.886,221.696 163.886,221.631C163.886,220.897 164.49,220.293 165.224,220.293C165.271,220.293 165.318,220.295 165.365,220.3C166.465,220.3 166.708,220.91 166.708,221.765L166.708,222.436L165.853,222.436L165.853,221.7C165.853,221.334 165.731,221.151 165.365,221.151C164.999,221.151 164.877,221.395 164.877,221.761L164.877,224.874C164.877,225.24 164.999,225.484 165.365,225.484C165.731,225.484 165.853,225.24 165.853,224.935L165.853,223.775L166.708,223.775L166.708,224.752C166.708,225.607 166.342,226.217 165.365,226.217C164.327,226.217 163.9,225.546 163.9,224.63" style="fill:white;fill-rule:nonzero;"/>
                        </g>
                        <g transform="matrix(1,0,0,1,-141.322,-206.3)">
                            <path d="M170.377,223.513L170.377,226.138L169.4,226.138L169.4,220.4L170.8,220.4C171.777,220.4 172.143,220.888 172.143,221.682L172.143,222.414C172.219,222.932 171.865,223.423 171.349,223.514L172.265,226.139L171.227,226.139L170.377,223.513ZM170.377,221.133L170.377,222.964L170.682,222.964C170.696,222.965 170.709,222.966 170.723,222.966C170.969,222.966 171.172,222.763 171.172,222.517C171.172,222.503 171.171,222.49 171.17,222.476L171.17,221.621C171.17,221.316 171.048,221.133 170.682,221.133L170.377,221.133Z" style="fill:white;fill-rule:nonzero;"/>
                        </g>
                        <g transform="matrix(1,0,0,1,-143.426,-206.261)">
                            <path d="M174.8,224.634L174.8,221.826C174.79,221.761 174.786,221.696 174.786,221.631C174.786,220.897 175.39,220.293 176.124,220.293C176.171,220.293 176.218,220.295 176.265,220.3C176.302,220.297 176.34,220.295 176.377,220.295C177.125,220.295 177.74,220.911 177.74,221.658C177.74,221.714 177.737,221.77 177.73,221.826L177.73,224.634C177.74,224.699 177.744,224.764 177.744,224.829C177.744,225.563 177.14,226.167 176.406,226.167C176.359,226.167 176.312,226.165 176.265,226.16C175.227,226.221 174.8,225.55 174.8,224.634M176.753,224.817L176.753,221.7C176.753,221.334 176.57,221.09 176.265,221.09C175.899,221.09 175.777,221.334 175.777,221.7L175.777,224.813C175.777,225.179 175.96,225.423 176.265,225.423C176.556,225.371 176.766,225.108 176.753,224.813" style="fill:white;fill-rule:nonzero;"/>
                        </g>
                        <g transform="matrix(1,0,0,1,34.853,14.1)">
                            <rect x="0" y="0" width="0.977" height="5.738" style="fill:white;"/>
                        </g>
                        <g transform="matrix(1,0,0,1,-146.582,-206.261)">
                            <path d="M182.9,224.878L182.9,224.084L183.816,224.084L183.816,224.878C183.816,225.183 183.938,225.366 184.304,225.366C184.609,225.366 184.731,225.183 184.731,224.878L184.731,224.634C184.729,224.315 184.569,224.017 184.304,223.84L183.755,223.291C183.264,222.937 182.968,222.37 182.961,221.765L182.961,221.582C182.959,221.552 182.958,221.522 182.958,221.492C182.958,220.833 183.499,220.292 184.158,220.292C184.205,220.292 184.253,220.294 184.3,220.3C185.277,220.3 185.643,220.788 185.643,221.582L185.643,222.07L184.788,222.07L184.788,221.582C184.789,221.568 184.79,221.555 184.79,221.541C184.79,221.295 184.587,221.092 184.341,221.092C184.327,221.092 184.314,221.093 184.3,221.094L184.293,221.094C184.029,221.094 183.812,221.311 183.812,221.575L183.812,221.704C183.812,222.009 183.995,222.192 184.3,222.498L184.91,223.108C185.401,223.462 185.697,224.029 185.704,224.634L185.704,224.939C185.708,224.977 185.709,225.016 185.709,225.054C185.709,225.734 185.15,226.293 184.47,226.293C184.415,226.293 184.359,226.289 184.304,226.282C183.266,226.221 182.904,225.672 182.904,224.882" style="fill:white;fill-rule:nonzero;"/>
                        </g>
                        <g transform="matrix(1,0,0,1,-148.608,-206.261)">
                            <path d="M188.1,224.878L188.1,224.084L189.016,224.084L189.016,224.878C189.016,225.183 189.138,225.366 189.504,225.366C189.809,225.366 189.931,225.183 189.931,224.878L189.931,224.634C189.929,224.315 189.769,224.017 189.504,223.84L188.955,223.291C188.464,222.937 188.168,222.37 188.161,221.765L188.161,221.582C188.159,221.552 188.158,221.522 188.158,221.492C188.158,220.833 188.699,220.292 189.358,220.292C189.405,220.292 189.453,220.294 189.5,220.3C190.477,220.3 190.843,220.788 190.843,221.582L190.843,222.07L189.988,222.07L189.988,221.582C189.989,221.568 189.99,221.555 189.99,221.541C189.99,221.295 189.787,221.092 189.541,221.092C189.527,221.092 189.514,221.093 189.5,221.094L189.493,221.094C189.229,221.094 189.012,221.311 189.012,221.575L189.012,221.704C189.012,222.009 189.195,222.192 189.5,222.498L190.11,223.108C190.601,223.462 190.897,224.029 190.904,224.634L190.904,224.939C190.908,224.977 190.909,225.016 190.909,225.054C190.909,225.734 190.35,226.293 189.67,226.293C189.615,226.293 189.559,226.289 189.504,226.282C188.466,226.221 188.104,225.672 188.104,224.882" style="fill:white;fill-rule:nonzero;"/>
                        </g>
                        <g transform="matrix(1,0,0,1,-150.556,-206.339)">
                            <path d="M193.1,226.238L194.2,220.5L195.3,220.5L196.4,226.238L195.423,226.238L195.24,225.2L194.2,225.2L194.017,226.238L193.1,226.238ZM194.321,224.407L195.115,224.407L194.749,222.087L194.321,224.407Z" style="fill:white;fill-rule:nonzero;"/>
                        </g>
                        <g transform="matrix(1,0,0,1,-152.932,-206.3)">
                            <path d="M199.994,222.536L199.994,226.2L199.2,226.2L199.2,220.4L200.116,220.4L201.154,223.7L201.154,220.4L202.009,220.4L202.009,226.2L201.154,226.2L199.994,222.536Z" style="fill:white;fill-rule:nonzero;"/>
                        </g>
                        <g transform="matrix(1,0,0,1,-155.075,-206.261)">
                            <path d="M204.7,224.634L204.7,221.826C204.69,221.761 204.686,221.696 204.686,221.631C204.686,220.897 205.29,220.293 206.024,220.293C206.071,220.293 206.118,220.295 206.165,220.3C207.265,220.3 207.508,220.91 207.508,221.765L207.508,222.436L206.653,222.436L206.653,221.7C206.653,221.334 206.531,221.151 206.165,221.151C205.799,221.151 205.677,221.395 205.677,221.761L205.677,224.874C205.677,225.24 205.799,225.484 206.165,225.484C206.531,225.484 206.653,225.24 206.653,224.935L206.653,223.775L207.508,223.775L207.508,224.752C207.508,225.607 207.142,226.217 206.165,226.217C205.127,226.217 204.7,225.546 204.7,224.63" style="fill:white;fill-rule:nonzero;"/>
                        </g>
                        <g transform="matrix(1,0,0,1,-157.179,-206.3)">
                            <path d="M210.1,220.4L212.42,220.4L212.42,221.194L211.077,221.194L211.077,222.842L212.054,222.842L212.054,223.636L211.077,223.636L211.077,225.406L212.42,225.406L212.42,226.2L210.1,226.2L210.1,220.4Z" style="fill:white;fill-rule:nonzero;"/>
                        </g>
                        <g transform="matrix(1,0,0,1,-134.971,-210.508)">
                            <path d="M153.1,232.3L155.42,232.3L155.42,233.094L154.077,233.094L154.077,234.742L155.054,234.742L155.054,235.536L154.077,235.536L154.077,237.306L155.42,237.306L155.42,238.1L153.1,238.1L153.1,232.3ZM155.114,231.873L153.588,232.056L153.588,231.507L155.114,231.202L155.114,231.873Z" style="fill:white;fill-rule:nonzero;"/>
                        </g>
                        <g transform="matrix(1,0,0,1,-136.686,-211.17)">
                            <path d="M157.5,237.234L157.5,234.426C157.49,234.361 157.486,234.296 157.486,234.231C157.486,233.497 158.09,232.893 158.824,232.893C158.871,232.893 158.918,232.895 158.965,232.9C160.065,232.9 160.308,233.51 160.308,234.365L160.308,235.036L159.453,235.036L159.453,234.3C159.453,233.934 159.331,233.751 158.965,233.751C158.599,233.751 158.477,233.995 158.477,234.361L158.477,237.474C158.477,237.84 158.599,238.084 158.965,238.084C159.331,238.084 159.453,237.84 159.453,237.535L159.453,236.5L160.308,236.5L160.308,237.477C160.308,238.332 159.942,238.942 158.965,238.942C158.098,238.868 157.441,238.101 157.5,237.233" style="fill:white;fill-rule:nonzero;"/>
                        </g>
                        <g transform="matrix(1,0,0,1,-138.828,-211.17)">
                            <path d="M163,237.234L163,234.426C162.99,234.361 162.986,234.296 162.986,234.231C162.986,233.497 163.59,232.893 164.324,232.893C164.371,232.893 164.418,232.895 164.465,232.9C164.502,232.897 164.54,232.895 164.577,232.895C165.325,232.895 165.94,233.511 165.94,234.258C165.94,234.314 165.937,234.37 165.93,234.426L165.93,237.234C165.94,237.299 165.944,237.364 165.944,237.429C165.944,238.163 165.34,238.767 164.606,238.767C164.559,238.767 164.512,238.765 164.465,238.76C164.428,238.763 164.39,238.765 164.353,238.765C163.605,238.765 162.99,238.149 162.99,237.402C162.99,237.346 162.993,237.29 163,237.234M164.953,237.356L164.953,234.243C164.953,233.877 164.77,233.633 164.465,233.633C164.099,233.633 163.977,233.877 163.977,234.243L163.977,237.356C163.977,237.722 164.16,237.966 164.465,237.966C164.831,237.966 164.953,237.722 164.953,237.356" style="fill:white;fill-rule:nonzero;"/>
                        </g>
                        <g transform="matrix(1,0,0,1,-141.049,-211.209)">
                            <path d="M169.555,235.136L169.555,238.736L168.7,238.736L168.7,233L169.677,233L170.715,236.3L170.715,233L171.509,233L171.509,238.738L170.654,238.738L169.555,235.136Z" style="fill:white;fill-rule:nonzero;"/>
                        </g>
                        <g transform="matrix(1,0,0,1,-143.192,-211.17)">
                            <path d="M174.2,237.234L174.2,234.426C174.19,234.361 174.186,234.296 174.186,234.231C174.186,233.497 174.79,232.893 175.524,232.893C175.571,232.893 175.618,232.895 175.665,232.9C175.702,232.897 175.74,232.895 175.777,232.895C176.525,232.895 177.14,233.511 177.14,234.258C177.14,234.314 177.137,234.37 177.13,234.426L177.13,237.234C177.14,237.299 177.144,237.364 177.144,237.429C177.144,238.163 176.54,238.767 175.806,238.767C175.759,238.767 175.712,238.765 175.665,238.76C175.639,238.761 175.613,238.762 175.586,238.762C174.822,238.762 174.193,238.133 174.193,237.369C174.193,237.324 174.196,237.279 174.2,237.234M176.153,237.356L176.153,234.243C176.153,233.877 175.97,233.633 175.665,233.633C175.299,233.633 175.177,233.877 175.177,234.243L175.177,237.356C175.177,237.722 175.36,237.966 175.665,237.966C176.031,237.966 176.153,237.722 176.153,237.356" style="fill:white;fill-rule:nonzero;"/>
                        </g>
                        <g transform="matrix(1,0,0,1,-145.413,-211.209)">
                            <path d="M182.586,235.014L181.915,238.737L181.488,238.737L180.756,235.014L180.695,235.014L180.695,238.737L179.9,238.737L179.9,233L181.06,233L181.67,236.235L182.219,233L183.5,233L183.5,238.738L182.584,238.738L182.586,235.014Z" style="fill:white;fill-rule:nonzero;"/>
                        </g>
                        <g transform="matrix(1,0,0,1,38.638,21.791)">
                            <rect x="0" y="0" width="0.977" height="5.738" style="fill:white;"/>
                        </g>
                        <g transform="matrix(1,0,0,1,-149.036,-211.17)">
                            <path d="M190.3,239.065L190.3,238.7C189.598,238.598 189.102,237.938 189.2,237.235L189.2,234.427C189.19,234.362 189.186,234.297 189.186,234.232C189.186,233.498 189.79,232.894 190.524,232.894C190.571,232.894 190.618,232.896 190.665,232.901C190.702,232.898 190.74,232.896 190.777,232.896C191.525,232.896 192.14,233.512 192.14,234.259C192.14,234.315 192.137,234.371 192.13,234.427L192.13,237.235C192.174,237.787 191.886,238.315 191.398,238.578L192.13,238.7L192.13,239.432L190.3,239.065ZM191.155,237.417L191.155,234.3C191.155,233.934 190.972,233.69 190.667,233.69C190.301,233.69 190.179,233.934 190.179,234.3L190.179,237.413C190.179,237.779 190.362,238.023 190.667,238.023C190.967,237.988 191.187,237.714 191.155,237.413" style="fill:white;fill-rule:nonzero;"/>
                        </g>
                        <g transform="matrix(1,0,0,1,-151.257,-211.209)">
                            <path d="M197.708,233L197.708,237.334C197.708,238.25 197.342,238.799 196.365,238.799C196.304,238.808 196.242,238.812 196.181,238.812C195.471,238.812 194.887,238.228 194.887,237.518C194.887,237.457 194.891,237.395 194.9,237.334L194.9,233L195.877,233L195.877,237.456C195.877,237.822 195.999,238.005 196.365,238.005C196.731,238.005 196.853,237.761 196.853,237.456L196.853,233L197.708,233Z" style="fill:white;fill-rule:nonzero;"/>
                        </g>
                        <g transform="matrix(1,0,0,1,-153.4,-211.209)">
                            <path d="M200.4,233L202.719,233L202.719,233.732L201.376,233.732L201.376,235.38L202.292,235.38L202.292,236.174L201.376,236.174L201.376,237.944L202.719,237.944L202.719,238.738L200.4,238.738L200.4,233Z" style="fill:white;fill-rule:nonzero;"/>
                        </g>
                    </g>
                </g>
            </g>
        </g>
    </g>
</svg>
