<?xml version="1.0" encoding="UTF-8" standalone="no"?>
<!DOCTYPE svg PUBLIC "-//W3C//DTD SVG 1.1//EN" "http://www.w3.org/Graphics/SVG/1.1/DTD/svg11.dtd">
<svg width="100%" height="100%" viewBox="0 0 68 68" version="1.1" xmlns="http://www.w3.org/2000/svg" xmlns:xlink="http://www.w3.org/1999/xlink" xml:space="preserve" xmlns:serif="http://www.serif.com/" style="fill-rule:evenodd;clip-rule:evenodd;stroke-linejoin:round;stroke-miterlimit:2;">
    <g id="Plan-de-travail1" serif:id="Plan de travail1" transform="matrix(0.985507,0,0,0.985507,0,0)">
        <rect x="0" y="0" width="69" height="69" style="fill:none;"/>
        <clipPath id="_clip1">
            <rect x="0" y="0" width="69" height="69"/>
        </clipPath>
        <g clip-path="url(#_clip1)">
            <g transform="matrix(1.01471,0,0,1.01656,0,1.42109e-14)">
                <g id="ODD9">
                    <rect x="0" y="0" width="68" height="67.876" style="fill:none;"/>
                    <g id="odd9-carre" transform="matrix(1,0,0,0.998176,0.062,0.0618869)">
                        <rect x="0" y="0" width="67.876" height="67.876" style="fill:rgb(243,110,36);"/>
                        <g transform="matrix(1,0,0,1,-259.574,-217.102)">
                            <path d="M308.466,264.285L301.752,260.379L301.752,252.627C301.76,252.45 301.665,252.283 301.508,252.2L294.55,248.171C294.393,248.109 294.219,248.109 294.062,248.171L287.1,252.2C286.952,252.292 286.86,252.453 286.856,252.627L286.856,260.379L280.142,264.285C279.994,264.377 279.902,264.538 279.898,264.712L279.898,272.769C279.877,272.934 279.981,273.091 280.142,273.135L287.101,277.164C287.162,277.225 287.223,277.225 287.345,277.225C287.467,277.225 287.528,277.225 287.589,277.164L294.303,273.257L301.017,277.164C301.078,277.225 301.139,277.225 301.261,277.225C301.347,277.234 301.433,277.212 301.505,277.164L308.464,273.135C308.597,273.057 308.688,272.922 308.708,272.769L308.708,264.712C308.721,264.534 308.625,264.364 308.464,264.285M293.876,271.915L288.321,268.68L293.876,265.445L293.876,271.915ZM300.346,260.623L294.791,263.858L294.791,257.449L300.346,260.623ZM293.876,263.858L288.321,260.623L293.876,257.388L293.876,263.858ZM295.219,264.652L301.262,261.173L307.305,264.652L301.262,268.131L295.219,264.652ZM300.835,259.83L295.28,256.595L300.835,253.36L300.835,259.83ZM293.388,256.656L287.833,259.891L287.833,253.482L293.388,256.656ZM286.918,275.883L280.875,272.404L280.875,265.446L286.918,268.925L286.918,275.883ZM287.834,275.883L287.834,269.474L293.389,272.709L287.834,275.883ZM307.794,272.404L301.751,275.883L301.751,268.925L307.794,265.446L307.794,272.404Z" style="fill:white;fill-rule:nonzero;"/>
                        </g>
                        <g transform="matrix(1,0,0,1,-250.886,-200.768)">
                            <path d="M264.375,209.862C264.375,207.726 263.459,206.2 261.018,206.2C258.577,206.2 257.6,207.543 257.6,209.679L257.6,211.693C257.6,213.951 258.516,215.05 260.164,215.05C260.958,215.103 261.709,214.666 262.056,213.95L262.056,216.88C262.056,217.735 261.751,218.28 260.896,218.28C260.041,218.28 259.736,217.792 259.736,216.937L259.736,216.021L257.661,216.021L257.661,216.753C257.661,218.767 258.394,220.171 260.961,220.171C263.403,220.171 264.379,218.645 264.379,216.509L264.379,209.856L264.375,209.862ZM262.117,211.937C262.056,212.731 261.751,213.158 261.017,213.158C260.224,213.158 259.917,212.67 259.917,211.815L259.917,209.434C259.917,208.579 260.222,208.091 261.017,208.091C261.812,208.091 262.117,208.64 262.117,209.434L262.117,211.937Z" style="fill:white;fill-rule:nonzero;"/>
                        </g>
                        <g transform="matrix(1,0,0,1,18.983,6.531)">
                            <rect x="0" y="0" width="0.977" height="5.738" style="fill:white;"/>
                        </g>
                        <g transform="matrix(1,0,0,1,-259.691,-201.469)">
                            <path d="M280.994,210.136L280.994,213.736L280.2,213.736L280.2,208L281.116,208L282.154,211.3L282.154,208L283.009,208L283.009,213.738L282.154,213.738L280.994,210.136Z" style="fill:white;fill-rule:nonzero;"/>
                        </g>
                        <g transform="matrix(1,0,0,1,-261.834,-201.469)">
                            <path d="M288.569,209.526L288.569,212.212C288.569,213.067 288.203,213.738 287.169,213.738L285.7,213.738L285.7,208L287.165,208C288.203,208 288.565,208.671 288.565,209.526M287.039,212.944C287.466,212.944 287.588,212.7 287.588,212.334L287.588,209.343C287.591,209.321 287.593,209.298 287.593,209.275C287.593,209.009 287.373,208.789 287.107,208.789C287.084,208.789 287.061,208.791 287.039,208.794L286.612,208.794L286.612,212.945L287.039,212.945L287.039,212.944Z" style="fill:white;fill-rule:nonzero;"/>
                        </g>
                        <g transform="matrix(1,0,0,1,-264.016,-201.469)">
                            <path d="M294.108,208L294.108,212.334C294.108,213.25 293.742,213.799 292.765,213.799C292.704,213.808 292.642,213.812 292.581,213.812C291.871,213.812 291.287,213.228 291.287,212.518C291.287,212.457 291.291,212.395 291.3,212.334L291.3,208L292.277,208L292.277,212.456C292.277,212.822 292.399,213.005 292.765,213.005C293.131,213.005 293.253,212.761 293.253,212.456L293.253,208L294.108,208Z" style="fill:white;fill-rule:nonzero;"/>
                        </g>
                        <g transform="matrix(1,0,0,1,-266.119,-201.43)">
                            <path d="M296.7,212.478L296.7,211.684L297.616,211.684L297.616,212.478C297.616,212.783 297.738,212.966 298.104,212.966C298.409,212.966 298.531,212.783 298.531,212.478L298.531,212.234C298.529,211.915 298.369,211.617 298.104,211.44L297.555,210.891C297.064,210.537 296.768,209.97 296.761,209.365L296.761,209.182C296.759,209.152 296.758,209.122 296.758,209.092C296.758,208.433 297.299,207.892 297.958,207.892C298.005,207.892 298.053,207.894 298.1,207.9C299.077,207.9 299.443,208.388 299.443,209.182L299.443,209.67L298.589,209.67L298.589,209.182C298.59,209.168 298.591,209.155 298.591,209.141C298.591,208.895 298.388,208.692 298.142,208.692C298.128,208.692 298.115,208.693 298.101,208.694L298.094,208.694C297.83,208.694 297.613,208.911 297.613,209.175L297.613,209.304C297.613,209.609 297.796,209.792 298.101,210.098L298.711,210.708C299.26,211.257 299.505,211.563 299.505,212.173L299.505,212.478C299.509,212.516 299.51,212.555 299.51,212.593C299.51,213.273 298.951,213.832 298.271,213.832C298.216,213.832 298.16,213.828 298.105,213.821C297.128,213.76 296.705,213.211 296.705,212.478" style="fill:white;fill-rule:nonzero;"/>
                        </g>
                        <g transform="matrix(1,0,0,1,-268.067,-201.469)">
                            <path d="M301.7,208L304.325,208L304.325,208.794L303.47,208.794L303.47,213.738L302.493,213.738L302.493,208.794L301.7,208.794L301.7,208Z" style="fill:white;fill-rule:nonzero;"/>
                        </g>
                        <g transform="matrix(1,0,0,1,-270.015,-201.469)">
                            <path d="M307.677,211.113L307.677,213.738L306.7,213.738L306.7,208L308.1,208C309.077,208 309.443,208.488 309.443,209.282L309.443,210.014C309.519,210.532 309.165,211.023 308.649,211.114L309.565,213.739L308.527,213.739L307.677,211.113ZM307.677,208.733L307.677,210.564L307.982,210.564C307.996,210.565 308.009,210.566 308.023,210.566C308.269,210.566 308.472,210.363 308.472,210.117C308.472,210.103 308.471,210.09 308.47,210.076L308.47,209.221C308.47,208.916 308.348,208.733 307.982,208.733L307.677,208.733Z" style="fill:white;fill-rule:nonzero;"/>
                        </g>
                        <g transform="matrix(1,0,0,1,39.981,6.531)">
                            <rect x="0" y="0" width="0.977" height="5.738" style="fill:white;"/>
                        </g>
                        <g transform="matrix(1,0,0,1,-273.093,-201.469)">
                            <path d="M314.6,208L316.858,208L316.858,208.794L315.515,208.794L315.515,210.442L316.492,210.442L316.492,211.236L315.515,211.236L315.515,212.945L316.858,212.945L316.858,213.739L314.6,213.739L314.6,208Z" style="fill:white;fill-rule:nonzero;"/>
                        </g>
                        <g transform="matrix(1,0,0,1,-274.847,-204.547)">
                            <path d="M320.138,215.961L319.65,217.304L319.1,217.304L319.222,215.904L320.138,215.904L320.138,215.961Z" style="fill:white;fill-rule:nonzero;"/>
                        </g>
                        <g transform="matrix(1,0,0,1,18.983,14.161)">
                            <rect x="0" y="0" width="0.977" height="5.738" style="fill:white;"/>
                        </g>
                        <g transform="matrix(1,0,0,1,-259.691,-206.339)">
                            <path d="M280.994,222.636L280.994,226.3L280.2,226.3L280.2,220.5L281.116,220.5L282.154,223.8L282.154,220.5L283.009,220.5L283.009,226.3L282.154,226.3L280.994,222.636Z" style="fill:white;fill-rule:nonzero;"/>
                        </g>
                        <g transform="matrix(1,0,0,1,-261.834,-206.339)">
                            <path d="M286.493,222.636L286.493,226.3L285.7,226.3L285.7,220.5L286.616,220.5L287.654,223.8L287.654,220.5L288.509,220.5L288.509,226.3L287.654,226.3L286.493,222.636Z" style="fill:white;fill-rule:nonzero;"/>
                        </g>
                        <g transform="matrix(1,0,0,1,-263.977,-206.339)">
                            <path d="M291.2,224.773L291.2,222.026C291.19,221.961 291.186,221.896 291.186,221.831C291.186,221.097 291.79,220.493 292.524,220.493C292.571,220.493 292.618,220.495 292.665,220.5C292.702,220.497 292.74,220.495 292.777,220.495C293.525,220.495 294.14,221.111 294.14,221.858C294.14,221.914 294.137,221.97 294.13,222.026L294.13,224.834C294.14,224.899 294.144,224.964 294.144,225.029C294.144,225.763 293.54,226.367 292.806,226.367C292.759,226.367 292.712,226.365 292.665,226.36C291.627,226.36 291.2,225.689 291.2,224.773M293.153,224.956L293.153,221.843C293.153,221.477 292.97,221.233 292.665,221.233C292.299,221.233 292.177,221.477 292.177,221.843L292.177,224.956C292.177,225.322 292.36,225.566 292.665,225.566C292.956,225.514 293.166,225.251 293.153,224.956" style="fill:white;fill-rule:nonzero;"/>
                        </g>
                        <g transform="matrix(1,0,0,1,-266.002,-206.339)">
                            <path d="M299.635,220.5L298.535,226.3L297.435,226.3L296.397,220.5L297.374,220.5L298.045,224.529L298.716,220.5L299.635,220.5Z" style="fill:white;fill-rule:nonzero;"/>
                        </g>
                        <g transform="matrix(1,0,0,1,-267.873,-206.378)">
                            <path d="M301.2,226.338L302.3,220.6L303.4,220.6L304.5,226.338L303.523,226.338L303.34,225.3L302.3,225.3L302.117,226.338L301.2,226.338ZM302.421,224.507L303.215,224.507L302.849,222.188L302.421,224.507Z" style="fill:white;fill-rule:nonzero;"/>
                        </g>
                        <g transform="matrix(1,0,0,1,-269.898,-206.339)">
                            <path d="M306.4,220.5L308.964,220.5L308.964,221.294L308.17,221.294L308.17,226.3L307.193,226.3L307.193,221.295L306.4,221.295L306.4,220.5Z" style="fill:white;fill-rule:nonzero;"/>
                        </g>
                        <g transform="matrix(1,0,0,1,39.553,14.161)">
                            <rect x="0" y="0" width="0.977" height="5.738" style="fill:white;"/>
                        </g>
                        <g transform="matrix(1,0,0,1,-272.821,-206.339)">
                            <path d="M313.9,224.773L313.9,222.026C313.89,221.961 313.886,221.896 313.886,221.831C313.886,221.097 314.49,220.493 315.224,220.493C315.271,220.493 315.318,220.495 315.365,220.5C315.402,220.497 315.44,220.495 315.477,220.495C316.225,220.495 316.84,221.111 316.84,221.858C316.84,221.914 316.837,221.97 316.83,222.026L316.83,224.834C316.84,224.899 316.844,224.964 316.844,225.029C316.844,225.763 316.24,226.367 315.506,226.367C315.459,226.367 315.412,226.365 315.365,226.36C314.327,226.36 313.9,225.689 313.9,224.773M315.853,224.956L315.853,221.843C315.853,221.477 315.67,221.233 315.365,221.233C314.999,221.233 314.877,221.477 314.877,221.843L314.877,224.956C314.877,225.322 315.06,225.566 315.365,225.566C315.656,225.514 315.866,225.251 315.853,224.956" style="fill:white;fill-rule:nonzero;"/>
                        </g>
                        <g transform="matrix(1,0,0,1,-275.041,-206.339)">
                            <path d="M320.393,222.636L320.393,226.3L319.6,226.3L319.6,220.5L320.516,220.5L321.554,223.8L321.554,220.5L322.409,220.5L322.409,226.3L321.554,226.3L320.393,222.636Z" style="fill:white;fill-rule:nonzero;"/>
                        </g>
                        <g transform="matrix(1,0,0,1,-277.73,-206.339)">
                            <path d="M326.5,220.5L328.819,220.5L328.819,221.294L327.476,221.294L327.476,222.942L328.453,222.942L328.453,223.735L327.476,223.735L327.476,225.505L328.819,225.505L328.819,226.299L326.5,226.299L326.5,220.5Z" style="fill:white;fill-rule:nonzero;"/>
                        </g>
                        <g transform="matrix(1,0,0,1,-279.483,-206.339)">
                            <path d="M331,220.5L333.564,220.5L333.564,221.294L332.77,221.294L332.77,226.3L331.793,226.3L331.793,221.295L331,221.295L331,220.5Z" style="fill:white;fill-rule:nonzero;"/>
                        </g>
                        <g transform="matrix(1,0,0,1,18.983,21.791)">
                            <rect x="0" y="0" width="0.977" height="5.738" style="fill:white;"/>
                        </g>
                        <g transform="matrix(1,0,0,1,-259.691,-211.209)">
                            <path d="M280.994,235.2L280.994,238.8L280.2,238.8L280.2,233L281.116,233L282.154,236.357L282.154,233L283.009,233L283.009,238.8L282.154,238.8L280.994,235.2Z" style="fill:white;fill-rule:nonzero;"/>
                        </g>
                        <g transform="matrix(1,0,0,1,-261.834,-211.209)">
                            <path d="M285.7,233L287.958,233L287.958,233.794L286.615,233.794L286.615,235.442L287.592,235.442L287.592,236.236L286.615,236.236L286.615,238.8L285.7,238.8L285.7,233Z" style="fill:white;fill-rule:nonzero;"/>
                        </g>
                        <g transform="matrix(1,0,0,1,-263.548,-211.209)">
                            <path d="M291.077,236.174L291.077,238.8L290.1,238.8L290.1,233L291.5,233C292.477,233 292.843,233.488 292.843,234.282L292.843,235.014C292.919,235.532 292.565,236.023 292.049,236.114L292.965,238.739L291.927,238.739L291.077,236.174ZM291.077,233.732L291.077,235.563L291.382,235.563C291.396,235.564 291.409,235.565 291.423,235.565C291.669,235.565 291.872,235.362 291.872,235.116C291.872,235.102 291.871,235.089 291.87,235.075L291.87,234.22C291.87,233.915 291.748,233.732 291.382,233.732L291.077,233.732Z" style="fill:white;fill-rule:nonzero;"/>
                        </g>
                        <g transform="matrix(1,0,0,1,-265.535,-211.248)">
                            <path d="M295.2,238.838L296.3,233.1L297.4,233.1L298.5,238.838L297.523,238.838L297.34,237.8L296.3,237.8L296.117,238.838L295.2,238.838ZM296.421,237.007L297.215,237.007L296.849,234.688L296.421,237.007Z" style="fill:white;fill-rule:nonzero;"/>
                        </g>
                        <g transform="matrix(1,0,0,1,-267.795,-211.17)">
                            <path d="M301,237.478L301,236.685L301.916,236.685L301.916,237.478C301.916,237.783 302.038,237.966 302.404,237.966C302.709,237.966 302.831,237.783 302.831,237.478L302.831,237.234C302.829,236.915 302.669,236.617 302.404,236.44L301.855,235.891C301.364,235.537 301.068,234.97 301.061,234.365L301.061,234.182C301.059,234.152 301.058,234.122 301.058,234.092C301.058,233.433 301.599,232.892 302.258,232.892C302.305,232.892 302.353,232.894 302.4,232.9C303.377,232.9 303.743,233.388 303.743,234.182L303.743,234.67L302.827,234.67L302.827,234.182C302.828,234.168 302.829,234.155 302.829,234.141C302.829,233.895 302.626,233.692 302.38,233.692C302.366,233.692 302.353,233.693 302.339,233.694L302.332,233.694C302.068,233.694 301.851,233.911 301.851,234.175L301.851,234.304C301.851,234.609 302.034,234.792 302.339,235.098L302.949,235.708C303.44,236.062 303.736,236.629 303.743,237.234L303.743,237.539C303.747,237.577 303.748,237.616 303.748,237.654C303.748,238.334 303.189,238.893 302.509,238.893C302.454,238.893 302.398,238.889 302.343,238.882C302.314,238.884 302.285,238.885 302.255,238.885C301.562,238.885 300.992,238.315 300.992,237.622C300.992,237.575 300.995,237.529 301,237.482" style="fill:white;fill-rule:nonzero;"/>
                        </g>
                        <g transform="matrix(1,0,0,1,-269.743,-211.209)">
                            <path d="M306,233L308.564,233L308.564,233.794L307.77,233.794L307.77,238.8L306.793,238.8L306.793,233.795L306,233.795L306,233Z" style="fill:white;fill-rule:nonzero;"/>
                        </g>
                        <g transform="matrix(1,0,0,1,-271.691,-211.209)">
                            <path d="M311.916,236.174L311.916,238.8L311,238.8L311,233L312.4,233C313.377,233 313.743,233.488 313.743,234.282L313.743,235.014C313.819,235.532 313.465,236.023 312.95,236.114L313.866,238.739L312.828,238.739L311.916,236.174ZM311.916,233.732L311.916,235.563L312.221,235.563C312.235,235.564 312.248,235.565 312.262,235.565C312.508,235.565 312.711,235.362 312.711,235.116C312.711,235.102 312.71,235.089 312.709,235.075L312.709,234.22C312.709,233.915 312.587,233.732 312.221,233.732L311.916,233.732Z" style="fill:white;fill-rule:nonzero;"/>
                        </g>
                        <g transform="matrix(1,0,0,1,-273.756,-211.209)">
                            <path d="M319.108,233L319.108,237.334C319.108,238.25 318.742,238.799 317.765,238.799C317.704,238.808 317.642,238.812 317.581,238.812C316.871,238.812 316.287,238.228 316.287,237.518C316.287,237.457 316.291,237.395 316.3,237.334L316.3,233L317.277,233L317.277,237.456C317.277,237.822 317.399,238.005 317.765,238.005C318.131,238.005 318.253,237.761 318.253,237.456L318.253,233L319.108,233Z" style="fill:white;fill-rule:nonzero;"/>
                        </g>
                        <g transform="matrix(1,0,0,1,-275.898,-211.17)">
                            <path d="M321.8,237.234L321.8,234.426C321.79,234.361 321.786,234.296 321.786,234.231C321.786,233.497 322.39,232.893 323.124,232.893C323.171,232.893 323.218,232.895 323.265,232.9C324.365,232.9 324.608,233.51 324.608,234.365L324.608,235.036L323.753,235.036L323.753,234.3C323.753,233.934 323.631,233.751 323.265,233.751C322.899,233.751 322.777,233.995 322.777,234.361L322.777,237.474C322.777,237.84 322.899,238.084 323.265,238.084C323.631,238.084 323.753,237.84 323.753,237.535L323.753,236.5L324.608,236.5L324.608,237.477C324.608,238.332 324.242,238.942 323.265,238.942C322.446,238.908 321.79,238.224 321.79,237.404C321.79,237.347 321.794,237.29 321.8,237.233" style="fill:white;fill-rule:nonzero;"/>
                        </g>
                        <g transform="matrix(1,0,0,1,-277.924,-211.209)">
                            <path d="M327,233L329.564,233L329.564,233.794L328.77,233.794L328.77,238.8L327.793,238.8L327.793,233.795L327,233.795L327,233Z" style="fill:white;fill-rule:nonzero;"/>
                        </g>
                        <g transform="matrix(1,0,0,1,-279.833,-211.209)">
                            <path d="M334.708,233L334.708,237.334C334.708,238.25 334.342,238.799 333.365,238.799C333.304,238.808 333.242,238.812 333.181,238.812C332.471,238.812 331.887,238.228 331.887,237.518C331.887,237.457 331.891,237.395 331.9,237.334L331.9,233L332.877,233L332.877,237.456C332.877,237.822 332.999,238.005 333.365,238.005C333.731,238.005 333.853,237.761 333.853,237.456L333.853,233L334.708,233Z" style="fill:white;fill-rule:nonzero;"/>
                        </g>
                        <g transform="matrix(1,0,0,1,-281.976,-211.209)">
                            <path d="M338.377,236.174L338.377,238.8L337.4,238.8L337.4,233L338.8,233C339.777,233 340.143,233.488 340.143,234.282L340.143,235.014C340.219,235.532 339.865,236.023 339.35,236.114L340.266,238.739L339.228,238.739L338.377,236.174ZM338.377,233.732L338.377,235.563L338.682,235.563C338.696,235.564 338.709,235.565 338.723,235.565C338.969,235.565 339.172,235.362 339.172,235.116C339.172,235.102 339.171,235.089 339.17,235.075L339.17,234.22C339.17,233.915 339.048,233.732 338.682,233.732L338.377,233.732Z" style="fill:white;fill-rule:nonzero;"/>
                        </g>
                        <g transform="matrix(1,0,0,1,-284.08,-211.209)">
                            <path d="M342.8,233L345.119,233L345.119,233.794L343.776,233.794L343.776,235.442L344.753,235.442L344.753,236.236L343.776,236.236L343.776,238.006L345.119,238.006L345.119,238.8L342.8,238.8L342.8,233Z" style="fill:white;fill-rule:nonzero;"/>
                        </g>
                    </g>
                </g>
            </g>
        </g>
    </g>
</svg>
